<svg id="Capa_1" data-name="Capa 1" xmlns="http://www.w3.org/2000/svg" viewBox="0 0 92.61 92.61"><defs><style>.cls-1{fill:#fff;stroke:#805da3;stroke-miterlimit:10;stroke-width:1.39px;}.cls-2{fill:#e4e4e4;}.cls-3{fill:#281c19;}</style></defs><title>100-bombeos</title><circle class="cls-1" cx="46.3" cy="46.3" r="45.61"/><path class="cls-2" d="M697.65,351.19H668.1a4.5,4.5,0,0,0-4.47,4.48V413a4.49,4.49,0,0,0,4.47,4.47h29.55a4.49,4.49,0,0,0,4.48-4.47V355.67a4.5,4.5,0,0,0-4.48-4.48Zm-19.5,3.23h9.45a.54.54,0,1,1,0,1.08h-9.45a.54.54,0,1,1,0-1.08Zm4.73,60.81a2.24,2.24,0,1,1,2.24-2.24,2.24,2.24,0,0,1-2.24,2.24ZM699,409.18H666.74V358.29H699Zm0,0" transform="translate(-636.57 -338.02)"/><path class="cls-3" d="M663.22,395.8h2.17c.51,0,1.38.2,1.38,1.12a1.29,1.29,0,0,1-1.28,1.24v0c.56.08,1,.4,1,.94,0,1-.89,1.53-2,1.54l-2.22,0Zm.46,4H664c.66,0,1.1-.18,1.1-.66s-.31-.49-.89-.49h-.32Zm.43-2h.49c.55,0,.87-.22.87-.56s-.32-.45-.81-.45h-.34Z" transform="translate(-636.57 -338.02)"/><path class="cls-3" d="M669.51,400.78a1.92,1.92,0,0,1-2.17-2c0-1.86,1-3.07,2.85-3.07a1.93,1.93,0,0,1,2.18,2C672.37,399.56,671.39,400.78,669.51,400.78Zm.6-4.09c-1,0-1.43,1.17-1.43,2,0,.62.23,1.13.91,1.13,1,0,1.43-1.17,1.43-2C671,397.2,670.79,396.69,670.11,396.69Z" transform="translate(-636.57 -338.02)"/><path class="cls-3" d="M673.69,395.8h2l.07,3.29h0l1.53-3.29h2.09l-1,4.89h-1.27l.89-4h0l-1.92,4h-1.23l-.18-4h0l-.85,4h-1.19Z" transform="translate(-636.57 -338.02)"/><path class="cls-3" d="M680.51,395.8h2.17c.51,0,1.38.2,1.38,1.12a1.29,1.29,0,0,1-1.28,1.24v0c.56.08,1,.4,1,.94,0,1-.89,1.53-2,1.54l-2.22,0Zm.46,4h.35c.66,0,1.1-.18,1.1-.66s-.31-.49-.89-.49h-.32Zm.43-2h.49c.55,0,.87-.22.87-.56s-.32-.45-.81-.45h-.34Z" transform="translate(-636.57 -338.02)"/><path class="cls-3" d="M685.4,395.8h3.44l-.19.93H686.5l-.23,1h2l-.2.92h-2l-.24,1.11h2.23l-.19.92h-3.53Z" transform="translate(-636.57 -338.02)"/><path class="cls-3" d="M689.84,395.8h1.56c.94,0,2.06,0,2.06,1.25,0,.86-.68,1.16-1.43,1.25v0c.39,0,.52.55.59.87l.35,1.5h-1.31l-.25-1.24c-.13-.64-.17-.69-.76-.69h-.14l-.39,1.93h-1.31Zm.86,2h.44c.57,0,1-.15,1-.61s-.21-.49-.6-.5h-.62Z" transform="translate(-636.57 -338.02)"/><path class="cls-3" d="M696.12,400.78a1.92,1.92,0,0,1-2.17-2c0-1.86,1-3.07,2.86-3.07a1.92,1.92,0,0,1,2.17,2C699,399.56,698,400.78,696.12,400.78Zm.6-4.09c-1,0-1.43,1.17-1.43,2,0,.62.24,1.13.92,1.13,1,0,1.42-1.17,1.42-2C697.63,397.2,697.4,396.69,696.72,396.69Z" transform="translate(-636.57 -338.02)"/><path class="cls-3" d="M703.28,396.91a2.41,2.41,0,0,0-1.07-.22c-.52,0-.94.07-.94.47,0,.69,1.89.43,1.89,1.91s-1.25,1.71-2.38,1.71a5.26,5.26,0,0,1-1.52-.26l.31-1a2.54,2.54,0,0,0,1.21.28c.4,0,1-.08,1-.58,0-.79-1.9-.49-1.9-1.87s1.11-1.64,2.18-1.64a3.86,3.86,0,0,1,1.5.22Z" transform="translate(-636.57 -338.02)"/><path class="cls-3" d="M663.54,375l6.38-4.16h3.46l-4.12,19h-3.81l3.24-14.68-3.49,2.42Z" transform="translate(-636.57 -338.02)"/><path class="cls-3" d="M689.28,376.81c0,5-1.88,13.34-8.28,13.34-4,0-5.53-3-5.53-6.7,0-4.87,2.26-13,8.39-13C687.84,370.49,689.28,373.16,689.28,376.81Zm-5.42-3.49c-3.54,0-4.74,8.77-4.74,10.87,0,1.47.38,3.13,2.15,3.13,3.27,0,4.36-9.37,4.36-11.19C685.63,374.9,685.33,373.32,683.86,373.32Z" transform="translate(-636.57 -338.02)"/><path class="cls-3" d="M705.51,376.81c0,5-1.88,13.34-8.28,13.34-4,0-5.53-3-5.53-6.7,0-4.87,2.26-13,8.39-13C704.07,370.49,705.51,373.16,705.51,376.81Zm-5.42-3.49c-3.54,0-4.74,8.77-4.74,10.87,0,1.47.38,3.13,2.15,3.13,3.27,0,4.36-9.37,4.36-11.19C701.86,374.9,701.56,373.32,700.09,373.32Z" transform="translate(-636.57 -338.02)"/></svg>