<svg id="Capa_1" data-name="Capa 1" xmlns="http://www.w3.org/2000/svg" viewBox="0 0 92.61 92.61"><defs><style>.cls-1{fill:#fff;stroke:#805da3;stroke-miterlimit:10;stroke-width:1.39px;}.cls-2{fill:#e4e4e4;}.cls-3{fill:#281c19;}</style></defs><title>101-policia</title><circle class="cls-1" cx="46.3" cy="46.3" r="45.61"/><path class="cls-2" d="M697.65,351.19H668.1a4.5,4.5,0,0,0-4.47,4.48V413a4.49,4.49,0,0,0,4.47,4.47h29.55a4.49,4.49,0,0,0,4.48-4.47V355.67a4.5,4.5,0,0,0-4.48-4.48Zm-19.5,3.23h9.45a.54.54,0,1,1,0,1.08h-9.45a.54.54,0,1,1,0-1.08Zm4.73,60.81a2.24,2.24,0,1,1,2.24-2.24,2.24,2.24,0,0,1-2.24,2.24ZM699,409.18H666.74V358.29H699Zm0,0" transform="translate(-636.57 -338.02)"/><path class="cls-3" d="M669.09,395.8h1.31c1.07,0,2.15.12,2.15,1.35s-1,1.83-2.17,1.83h-.67l-.36,1.71H668Zm.82,2.26h.35c.51,0,1-.18,1-.76s-.32-.57-.67-.57h-.38Z" transform="translate(-636.57 -338.02)"/><path class="cls-3" d="M675.05,400.78a1.93,1.93,0,0,1-2.18-2c0-1.86,1-3.07,2.86-3.07a1.92,1.92,0,0,1,2.17,2C677.9,399.56,676.93,400.78,675.05,400.78Zm.6-4.09c-1,0-1.43,1.17-1.43,2,0,.62.23,1.13.91,1.13,1,0,1.43-1.17,1.43-2C676.56,397.2,676.33,396.69,675.65,396.69Z" transform="translate(-636.57 -338.02)"/><path class="cls-3" d="M679.24,395.8h1.33l-.81,3.93h2l-.2,1h-3.37Z" transform="translate(-636.57 -338.02)"/><path class="cls-3" d="M683.38,395.8h1.32l-1,4.89h-1.31Z" transform="translate(-636.57 -338.02)"/><path class="cls-3" d="M689.58,397a2.31,2.31,0,0,0-1.22-.29,1.72,1.72,0,0,0-1.84,1.85,1.2,1.2,0,0,0,1.34,1.27,2.8,2.8,0,0,0,1.24-.27l-.14,1a4.89,4.89,0,0,1-1.3.19,2.22,2.22,0,0,1-2.48-2.28,2.72,2.72,0,0,1,3-2.78,4.83,4.83,0,0,1,1.73.26Z" transform="translate(-636.57 -338.02)"/><path class="cls-3" d="M690.76,395.8h1.32l-1,4.89h-1.32Z" transform="translate(-636.57 -338.02)"/><path class="cls-3" d="M694.72,395.8h1.64l.8,4.89h-1.32l-.13-1h-1.9l-.58,1h-1.42Zm.65,1h0l-1,1.91h1.26Z" transform="translate(-636.57 -338.02)"/><path class="cls-3" d="M664.09,375l6.37-4.16h3.46l-4.11,19H666l3.25-14.68-3.49,2.42Z" transform="translate(-636.57 -338.02)"/><path class="cls-3" d="M689.83,376.81c0,5-1.88,13.34-8.28,13.34-4,0-5.53-3-5.53-6.7,0-4.87,2.26-13,8.38-13C688.38,370.49,689.83,373.16,689.83,376.81Zm-5.43-3.49c-3.54,0-4.73,8.77-4.73,10.87,0,1.47.38,3.13,2.15,3.13,3.27,0,4.36-9.37,4.36-11.19C686.18,374.9,685.88,373.32,684.4,373.32Z" transform="translate(-636.57 -338.02)"/><path class="cls-3" d="M693.28,375l6.38-4.16h3.46l-4.12,19h-3.81l3.24-14.68-3.49,2.42Z" transform="translate(-636.57 -338.02)"/></svg>