<svg id="Capa_1" data-name="Capa 1" xmlns="http://www.w3.org/2000/svg" viewBox="0 0 92.61 92.61"><defs><style>.cls-1{fill:#fff;stroke:#805da3;stroke-miterlimit:10;stroke-width:1.39px;}.cls-2{fill:#e4e4e4;}.cls-3{fill:#281c19;}</style></defs><title>103-defensacivil</title><circle class="cls-1" cx="46.3" cy="46.3" r="45.61"/><path class="cls-2" d="M697.65,351.19H668.1a4.5,4.5,0,0,0-4.47,4.48V413a4.49,4.49,0,0,0,4.47,4.47h29.55a4.49,4.49,0,0,0,4.48-4.47V355.67a4.5,4.5,0,0,0-4.48-4.48Zm-19.5,3.23h9.45a.54.54,0,1,1,0,1.08h-9.45a.54.54,0,1,1,0-1.08Zm4.73,60.81a2.24,2.24,0,1,1,2.24-2.24,2.24,2.24,0,0,1-2.24,2.24ZM699,409.18H666.74V358.29H699Zm0,0" transform="translate(-636.57 -338.02)"/><path class="cls-3" d="M656.05,395.8h1.7c1.55,0,2.49.66,2.49,2,0,2.05-1.28,2.93-3.12,2.93H655Zm.49,3.93h.58a1.72,1.72,0,0,0,1.78-1.87c0-.9-.62-1.09-1.42-1.09h-.32Z" transform="translate(-636.57 -338.02)"/><path class="cls-3" d="M661.7,395.8h3.44l-.19.93H662.8l-.22,1h2l-.21.92h-2l-.24,1.11h2.24l-.19.92h-3.54Z" transform="translate(-636.57 -338.02)"/><path class="cls-3" d="M666.08,395.8h3.28l-.19.93h-2l-.24,1.07h1.92l-.19.92h-1.89l-.42,2h-1.31Z" transform="translate(-636.57 -338.02)"/><path class="cls-3" d="M670.25,395.8h3.44l-.19.93h-2.15l-.22,1h2l-.2.92h-2l-.24,1.11h2.23l-.18.92H669.2Z" transform="translate(-636.57 -338.02)"/><path class="cls-3" d="M674.69,395.8h1.64l1,3.39h0l.69-3.39h1.23l-1,4.89H676.6l-1-3.38h0l-.68,3.38h-1.23Z" transform="translate(-636.57 -338.02)"/><path class="cls-3" d="M683.28,396.91a2.46,2.46,0,0,0-1.08-.22c-.52,0-.94.07-.94.47,0,.69,1.9.43,1.9,1.91s-1.25,1.71-2.39,1.71a5.25,5.25,0,0,1-1.51-.26l.31-1a2.5,2.5,0,0,0,1.2.28c.41,0,1-.08,1-.58,0-.79-1.89-.49-1.89-1.87s1.1-1.64,2.17-1.64a3.83,3.83,0,0,1,1.5.22Z" transform="translate(-636.57 -338.02)"/><path class="cls-3" d="M686.28,395.8h1.64l.8,4.89H687.4l-.13-1h-1.9l-.58,1h-1.42Zm.65,1h0l-1,1.91h1.26Z" transform="translate(-636.57 -338.02)"/><path class="cls-3" d="M696.48,397a2.29,2.29,0,0,0-1.22-.29,1.72,1.72,0,0,0-1.83,1.85,1.19,1.19,0,0,0,1.33,1.27,2.8,2.8,0,0,0,1.24-.27l-.14,1a4.89,4.89,0,0,1-1.3.19,2.23,2.23,0,0,1-2.48-2.28,2.72,2.72,0,0,1,3-2.78,4.79,4.79,0,0,1,1.73.26Z" transform="translate(-636.57 -338.02)"/><path class="cls-3" d="M697.66,395.8H699l-1,4.89h-1.31Z" transform="translate(-636.57 -338.02)"/><path class="cls-3" d="M702,400.69h-1.61l-.64-4.89h1.31l.33,3.7h0l1.89-3.7h1.41Z" transform="translate(-636.57 -338.02)"/><path class="cls-3" d="M705.42,395.8h1.32l-1,4.89h-1.32Z" transform="translate(-636.57 -338.02)"/><path class="cls-3" d="M707.89,395.8h1.32l-.81,3.93h2l-.2,1h-3.37Z" transform="translate(-636.57 -338.02)"/><path class="cls-3" d="M663.54,375l6.38-4.16h3.46l-4.12,19h-3.81l3.24-14.68-3.49,2.42Z" transform="translate(-636.57 -338.02)"/><path class="cls-3" d="M689.28,376.81c0,5-1.88,13.34-8.28,13.34-4,0-5.53-3-5.53-6.7,0-4.87,2.26-13,8.39-13C687.84,370.49,689.28,373.16,689.28,376.81Zm-5.42-3.49c-3.54,0-4.74,8.77-4.74,10.87,0,1.47.38,3.13,2.15,3.13,3.27,0,4.36-9.37,4.36-11.19C685.63,374.9,685.33,373.32,683.86,373.32Z" transform="translate(-636.57 -338.02)"/><path class="cls-3" d="M691.32,386.15a9.74,9.74,0,0,0,4.6,1c1.83,0,4.09-.85,4.09-3.13,0-2.54-3.49-2.54-5.34-2.54l.52-3c2.31,0,6.1,0,6.1-3.11,0-1.41-1.33-1.91-2.89-1.91a9.92,9.92,0,0,0-4.16,1l.38-3.18a16.4,16.4,0,0,1,4.76-.82c2.92,0,5.89,1.28,5.89,4.55,0,2.78-1.94,4.27-4.47,4.82v.08c2,.71,3.19,1.8,3.19,4,0,4.33-3.84,6.23-7.77,6.23a13.05,13.05,0,0,1-5.58-1.09Z" transform="translate(-636.57 -338.02)"/></svg>