<svg id="Capa_1" data-name="Capa 1" xmlns="http://www.w3.org/2000/svg" viewBox="0 0 92.61 92.61"><defs><style>.cls-1{fill:#fff;stroke:#805da3;stroke-miterlimit:10;stroke-width:1.39px;}.cls-2{fill:#e4e4e4;}.cls-3{fill:#281c19;}</style></defs><title>105-ambiental</title><circle class="cls-1" cx="46.3" cy="46.3" r="45.61"/><path class="cls-2" d="M697.65,351.19H668.1a4.5,4.5,0,0,0-4.47,4.48V413a4.49,4.49,0,0,0,4.47,4.47h29.55a4.49,4.49,0,0,0,4.48-4.47V355.67a4.5,4.5,0,0,0-4.48-4.48Zm-19.5,3.23h9.45a.54.54,0,1,1,0,1.08h-9.45a.54.54,0,1,1,0-1.08Zm4.73,60.81a2.24,2.24,0,1,1,2.24-2.24,2.24,2.24,0,0,1-2.24,2.24ZM699,409.18H666.74V358.29H699Zm0,0" transform="translate(-636.57 -338.02)"/><path class="cls-3" d="M663.84,395.8h1.64l.8,4.89H665l-.13-1h-1.9l-.58,1h-1.42Zm.65,1h0l-1,1.91h1.26Z" transform="translate(-636.57 -338.02)"/><path class="cls-3" d="M668,395.8h2l.08,3.29h0l1.53-3.29h2.09l-1,4.89h-1.27l.89-4h0l-1.91,4h-1.24l-.18-4h0l-.85,4H666.9Z" transform="translate(-636.57 -338.02)"/><path class="cls-3" d="M674.78,395.8H677c.51,0,1.38.2,1.38,1.12a1.29,1.29,0,0,1-1.28,1.24v0c.56.08,1,.4,1,.94,0,1-.89,1.53-2,1.54l-2.22,0Zm.46,4h.35c.66,0,1.1-.18,1.1-.66s-.31-.49-.89-.49h-.32Zm.43-2h.49c.55,0,.87-.22.87-.56s-.32-.45-.81-.45h-.34Z" transform="translate(-636.57 -338.02)"/><path class="cls-3" d="M679.69,395.8H681l-1,4.89h-1.32Z" transform="translate(-636.57 -338.02)"/><path class="cls-3" d="M682.19,395.8h3.44l-.19.93h-2.15l-.23,1h2l-.2.92h-2l-.24,1.11h2.23l-.19.92h-3.53Z" transform="translate(-636.57 -338.02)"/><path class="cls-3" d="M686.63,395.8h1.63l1,3.39h0l.69-3.39h1.23l-1,4.89h-1.62l-1-3.38h0l-.68,3.38h-1.23Z" transform="translate(-636.57 -338.02)"/><path class="cls-3" d="M692.9,396.77h-1.21l.21-1h3.76l-.21,1h-1.22l-.84,3.92h-1.32Z" transform="translate(-636.57 -338.02)"/><path class="cls-3" d="M697.44,395.8h1.64l.8,4.89h-1.32l-.13-1h-1.9l-.58,1h-1.42Zm.65,1h0l-1,1.91h1.26Z" transform="translate(-636.57 -338.02)"/><path class="cls-3" d="M701.58,395.8h1.32l-.81,3.93h2l-.2,1h-3.37Z" transform="translate(-636.57 -338.02)"/><path class="cls-3" d="M663.68,375l6.37-4.16h3.46l-4.11,19h-3.81l3.24-14.68-3.49,2.42Z" transform="translate(-636.57 -338.02)"/><path class="cls-3" d="M689.42,376.81c0,5-1.88,13.34-8.28,13.34-4,0-5.53-3-5.53-6.7,0-4.87,2.26-13,8.39-13C688,370.49,689.42,373.16,689.42,376.81ZM684,373.32c-3.55,0-4.74,8.77-4.74,10.87,0,1.47.38,3.13,2.15,3.13,3.27,0,4.36-9.37,4.36-11.19C685.77,374.9,685.47,373.32,684,373.32Z" transform="translate(-636.57 -338.02)"/><path class="cls-3" d="M694.67,370.82h10.9l-.6,2.83h-7.3l-.87,3.89c.32,0,.68,0,1,0,3.11,0,5.83,1.66,5.83,5.77,0,4.47-3.59,6.86-7.87,6.86a15.73,15.73,0,0,1-5.26-.89l.63-3.08a10.76,10.76,0,0,0,4.11,1c2.26,0,4.42-1.23,4.42-3.71,0-2.26-2-2.94-3.9-2.94a10.83,10.83,0,0,0-3.38.55Z" transform="translate(-636.57 -338.02)"/></svg>