<svg id="Capa_1" data-name="Capa 1" xmlns="http://www.w3.org/2000/svg" viewBox="0 0 92.61 92.61"><defs><style>.cls-1{fill:#fff;stroke:#805da3;stroke-miterlimit:10;stroke-width:1.39px;}.cls-2{fill:#e4e4e4;}.cls-3{fill:#281c19;}</style></defs><title>107-hospital</title><circle class="cls-1" cx="46.3" cy="46.3" r="45.61"/><path class="cls-2" d="M721,349.29H691.42a4.5,4.5,0,0,0-4.48,4.48v57.32a4.5,4.5,0,0,0,4.48,4.48H721a4.5,4.5,0,0,0,4.48-4.48V353.77a4.5,4.5,0,0,0-4.48-4.48Zm-19.49,3.23h9.44a.54.54,0,1,1,0,1.08h-9.44a.54.54,0,1,1,0-1.08Zm4.72,60.81a2.24,2.24,0,1,1,2.24-2.24,2.24,2.24,0,0,1-2.24,2.24Zm16.13-6.05H690.05V356.4h32.27Zm0,0" transform="translate(-659.88 -336.13)"/><path class="cls-3" d="M689.44,393.91h1.31l-.38,1.87h1.55l.38-1.87h1.31l-1,4.89h-1.3l.43-2.1h-1.55l-.43,2.1h-1.31Z" transform="translate(-659.88 -336.13)"/><path class="cls-3" d="M696.12,398.88a1.92,1.92,0,0,1-2.17-2c0-1.85,1-3.07,2.86-3.07a1.92,1.92,0,0,1,2.17,2C699,397.67,698,398.88,696.12,398.88Zm.6-4.09c-1,0-1.42,1.17-1.42,2,0,.61.23,1.12.91,1.12,1,0,1.42-1.17,1.42-2C697.63,395.31,697.4,394.79,696.72,394.79Z" transform="translate(-659.88 -336.13)"/><path class="cls-3" d="M703.28,395a2.56,2.56,0,0,0-1.07-.22c-.52,0-.94.08-.94.47,0,.69,1.89.43,1.89,1.92s-1.25,1.7-2.38,1.7a5.62,5.62,0,0,1-1.52-.25l.31-1a2.54,2.54,0,0,0,1.21.28c.4,0,1-.07,1-.58,0-.78-1.9-.49-1.9-1.87s1.11-1.64,2.18-1.64a4.06,4.06,0,0,1,1.5.22Z" transform="translate(-659.88 -336.13)"/><path class="cls-3" d="M704.74,393.91H706c1.07,0,2.15.11,2.15,1.34s-1,1.84-2.17,1.84h-.67L705,398.8h-1.3Zm.81,2.25h.35c.52,0,1-.18,1-.76s-.32-.57-.67-.57h-.39Z" transform="translate(-659.88 -336.13)"/><path class="cls-3" d="M709.31,393.91h1.32l-1,4.89h-1.32Z" transform="translate(-659.88 -336.13)"/><path class="cls-3" d="M712.42,394.87h-1.21l.21-1h3.76l-.21,1h-1.22l-.83,3.93h-1.33Z" transform="translate(-659.88 -336.13)"/><path class="cls-3" d="M717,393.91h1.64l.8,4.89h-1.32l-.13-1.05h-1.9l-.58,1.05h-1.42Zm.65,1h0l-1,1.91h1.26Z" transform="translate(-659.88 -336.13)"/><path class="cls-3" d="M721.1,393.91h1.32l-.81,3.92h2l-.2,1h-3.37Z" transform="translate(-659.88 -336.13)"/><path class="cls-3" d="M687,373.09l6.37-4.17h3.46l-4.11,19H688.9l3.24-14.68-3.49,2.42Z" transform="translate(-659.88 -336.13)"/><path class="cls-3" d="M712.73,374.91c0,5-1.88,13.35-8.28,13.35-4,0-5.53-3.05-5.53-6.7,0-4.88,2.26-13,8.39-13C711.28,368.59,712.73,371.26,712.73,374.91Zm-5.42-3.48c-3.55,0-4.74,8.77-4.74,10.86,0,1.47.38,3.14,2.15,3.14,3.27,0,4.36-9.37,4.36-11.2C709.08,373,708.78,371.43,707.31,371.43Z" transform="translate(-659.88 -336.13)"/><path class="cls-3" d="M716.16,368.92h12.61l-.71,3.46-9.78,15.55h-4.41l10.27-16h-8.55Z" transform="translate(-659.88 -336.13)"/></svg>