<svg id="Capa_1" data-name="Capa 1" xmlns="http://www.w3.org/2000/svg" viewBox="0 0 42.71 65.94"><defs><style>.cls-1,.cls-2{fill:none;stroke-linecap:round;stroke-linejoin:round;stroke-width:0.5px;}.cls-1{stroke:#1d1d1b;}.cls-2{stroke:#000;}</style></defs><title>acampar-fuego</title><path class="cls-1" d="M1031.89,394.38c-6.41,11.4,22,2.72.2-.26Z" transform="translate(-1020.82 -340.37)"/><path class="cls-1" d="M1024.29,398.78c-2,.39-4.58-2.37-.89-6.26,3.08.48,7.79,5.19.89,6.26" transform="translate(-1020.82 -340.37)"/><path class="cls-1" d="M1043.78,396.1l-10.28-7.61" transform="translate(-1020.82 -340.37)"/><path class="cls-1" d="M1056.74,395.22c-2.69-.13-6-.89-9.33-.84" transform="translate(-1020.82 -340.37)"/><path class="cls-1" d="M1063.28,392c-1.12-3-5.53-2.75-8.46-1.29" transform="translate(-1020.82 -340.37)"/><path class="cls-1" d="M1053.32,391.6c.2-3.08-4.13-6.35-7.5-4" transform="translate(-1020.82 -340.37)"/><path class="cls-1" d="M1042.93,386.46c-1.39-3.11-5.77-5.34-7.61-1.08" transform="translate(-1020.82 -340.37)"/><path class="cls-1" d="M1028.57,398.45a77.66,77.66,0,0,1-7.18,4.29" transform="translate(-1020.82 -340.37)"/><path class="cls-1" d="M1035.54,384.63c-1.27-2.11-3-3.35-5.7-1.62-.77-1.65-4.13-3.91-7-1.27" transform="translate(-1020.82 -340.37)"/><path class="cls-1" d="M1048.16,392.31a12.11,12.11,0,0,0-5,.47" transform="translate(-1020.82 -340.37)"/><path class="cls-2" d="M1048.58,392.31" transform="translate(-1020.82 -340.37)"/><path class="cls-2" d="M1050.07,392.5" transform="translate(-1020.82 -340.37)"/><path class="cls-1" d="M1055.78,393.31a38.81,38.81,0,0,1-5.71-.81" transform="translate(-1020.82 -340.37)"/><path class="cls-1" d="M1039.38,385.37c-1.05,4.82,4.15,7.85,7.82,10.93" transform="translate(-1020.82 -340.37)"/><path class="cls-1" d="M1027.29,382.49a45.86,45.86,0,0,0,.26,4.58c1.55-.5,1.65-1.18,4.45-1.69" transform="translate(-1020.82 -340.37)"/><path class="cls-1" d="M1033.82,389.88c-3-1-7.76-.58-10.5,2.68" transform="translate(-1020.82 -340.37)"/><path class="cls-1" d="M1037.78,385.8c0,.83.21,3.84.21,3.84-1.38-.73-2.22-2.1-3.33-2.55" transform="translate(-1020.82 -340.37)"/><path class="cls-1" d="M1032.43,387c-1.21.43-2.4.87-3,2.14" transform="translate(-1020.82 -340.37)"/><path class="cls-1" d="M1025.17,405.6c.15-1.12.3-2.26.46-3.4l-4.09,2.95" transform="translate(-1020.82 -340.37)"/><path class="cls-1" d="M1029.43,399.74c-2.6.8-2.54,3.69-3.11,6.32" transform="translate(-1020.82 -340.37)"/><path class="cls-1" d="M1026.11,383.13c0,1.68.07,3.36.1,5v.17c-1.47.62-3.13,1.64-5.14,2.72" transform="translate(-1020.82 -340.37)"/><line class="cls-1" x1="27.45" y1="51.93" x2="28.75" y2="48.84"/><line class="cls-1" x1="30.34" y1="49.32" x2="29.24" y2="52.14"/><path class="cls-1" d="M1026.77,392.05c.13-.93,1.93-1.36,3-1.42.66,0,2.18-.11,2.83.86a1.93,1.93,0,0,1-.38,2.42c-1.27,1.17-3.65,0-3.79-.05S1026.63,393,1026.77,392.05Z" transform="translate(-1020.82 -340.37)"/><path class="cls-1" d="M1033.42,380.71a5.84,5.84,0,0,0,1.64-3.41,9.67,9.67,0,0,1,.58,3.64" transform="translate(-1020.82 -340.37)"/><path class="cls-1" d="M1039.08,381.48c.73-3.9,2.44-8.24,2.34-14.56,0,0,1.73,12.07,3.52,15.25" transform="translate(-1020.82 -340.37)"/><path class="cls-1" d="M1047,383.24c-.54-2.17-.33-4.74-.52-5.14a37.35,37.35,0,0,0,2.53,4.75,12.57,12.57,0,0,0,6.43,4.69" transform="translate(-1020.82 -340.37)"/><line class="cls-1" x1="35.53" y1="43.86" x2="37.13" y2="46.78"/><path class="cls-1" d="M1059.75,387.54c-.39-.87-3.61-9.2-3.09-10.39" transform="translate(-1020.82 -340.37)"/><path class="cls-1" d="M1054.54,382.21c-2.12-4.49,0-9.95,1.94-12.38-2.27,1.68-4.89,3.13-4.85,7.93" transform="translate(-1020.82 -340.37)"/><path class="cls-1" d="M1051,381.36c-7.55-9.27.59-21-6.55-29.91,1.83,5.48.07,14.13-.53,18.06" transform="translate(-1020.82 -340.37)"/><path class="cls-1" d="M1047.86,353.7c2.91-18.26.91,13.88,5.34,16.72" transform="translate(-1020.82 -340.37)"/><path class="cls-1" d="M1053.49,359.62a9.93,9.93,0,0,0,1,4.89" transform="translate(-1020.82 -340.37)"/><path class="cls-1" d="M1029.75,379.48c3.78-12.46,6.16-30.74,6-31.2,1.78,4.9.44,22,.9,27.81" transform="translate(-1020.82 -340.37)"/><path class="cls-1" d="M1028.6,378.39c-3.85-8.82,2.45-17.92.9-28,.07,0,1.29,10.57,2,11.44" transform="translate(-1020.82 -340.37)"/><path class="cls-1" d="M1025.29,375.08l-1.09-1.8s.08,2.05-.1,4.82" transform="translate(-1020.82 -340.37)"/><path class="cls-1" d="M1058.18,373.17s.14,3.52.92,5" transform="translate(-1020.82 -340.37)"/><path class="cls-1" d="M1059.82,380.89a59.76,59.76,0,0,0,2.06,6.06" transform="translate(-1020.82 -340.37)"/><path class="cls-1" d="M1038.93,375.24c-1.45-7.81,2.47-23.64-2.87-34.62,0,0,5.72,8.88,6.5,14.84" transform="translate(-1020.82 -340.37)"/><path class="cls-1" d="M1025.09,368.71a6.67,6.67,0,0,1,.2-6.15" transform="translate(-1020.82 -340.37)"/></svg>