<svg id="Capa_1" data-name="Capa 1" xmlns="http://www.w3.org/2000/svg" viewBox="0 0 140.21 97.97"><defs><style>.cls-1{fill:#fff;}.cls-2{fill:#e4e4e4;}.cls-3{fill:none;stroke:#000;stroke-linecap:round;stroke-linejoin:round;stroke-width:0.5px;}</style></defs><title>acampar-fogon2</title><polygon class="cls-1" points="28.89 15.25 85.89 4.25 126.89 17.25 125.06 68.16 70.21 88.62 64.89 33.25 28.89 15.25"/><path class="cls-2" d="M882.83,401l6,16.33,9.07,4.18,3-1.22L912,415l2.6-12.16s-2.08-8.84-2.24-9.41-4.53-5-4.53-5l-7.2-2.24s-8.53.1-8.53.24-6.16,6.67-6.16,6.67Z" transform="translate(-847.11 -323.75)"/><path class="cls-2" d="M979.59,360.4l.5,28.11c-3,1.27-6.32,2.89-9.41,3.94-.41-15.11-1.26-29.9-1.38-44.41l10-1.89,0,.23Z" transform="translate(-847.11 -323.75)"/><path class="cls-2" d="M872.65,390.18h0a9.45,9.45,0,0,0,3.32-.5l.32-.29c1.24,1.38,2.74,2.52,4.06,3.74a9.1,9.1,0,0,1,3.26,5.1h0a39.75,39.75,0,0,0-.68,6h-.21A9.72,9.72,0,0,1,879.3,409c-3.6,2.34-8-.58-10.19-4.92C866.83,399.53,866.91,393.49,872.65,390.18Z" transform="translate(-847.11 -323.75)"/><path class="cls-2" d="M883.47,366.79a9.78,9.78,0,0,0-5.35-1.5v-.15c1.87-11.94-9.63-12.44-17.35-10.91a10.77,10.77,0,0,0-1.08,2.26l-.32,0c-4.84-2.75-7.54-4.24-9.12-6-2-2.22-2.23-4.82-2.77-11a349.2,349.2,0,0,0,49,19.91c14.22-3.51,19.47-5.87,21.38-5.61,1.4.18,1,1.79,1,5.42h0c-3.84,1-7,1.88-9.62,2.66l-2.06.6c-9.43,2.77-12.22,3.32-22.21-1.68l-.16.44c-.76,1.45-.83,3-1.13,5.36Z" transform="translate(-847.11 -323.75)"/><path class="cls-2" d="M909.29,362.25V365h-.57a10,10,0,0,0-1.89-1.51c-.87-.53.09-.82.32-1l0-.05,2.06-.6Z" transform="translate(-847.11 -323.75)"/><path class="cls-2" d="M861.07,397.59c-10.58-.48-16.4-10.84-11.92-19.19a15.75,15.75,0,0,1,4.44-5c.14-.09.27-.2.42-.29s2.65-2.22,5-2.33c1.51,9.57,6.28,19.19,13.59,19.43h0c-5.74,3.31-5.82,9.35-3.54,13.85l-.64.1C864.8,404,861.17,400.74,861.07,397.59Z" transform="translate(-847.11 -323.75)"/><path class="cls-2" d="M987.07,338.89h0c-8.93,2.16-12.68,3.39-17.74,3h0c-9.06-1.73-18.52-6.16-37.24-11.66h0C916.67,333,884,340,884,340c11.31,5.45,22.38,8.94,33.82,13.84-1.91-.26-7.16,2.1-21.38,5.61a349.2,349.2,0,0,1-49-19.91l.11-.22c28.55-6.45,56.61-10.14,85.49-15.32.41.07.82.12,1.22.22C951.71,328.27,970.68,334,987.07,338.89Z" transform="translate(-847.11 -323.75)"/><path class="cls-2" d="M854,373.07c-.15.09-.28.2-.42.29l-.23-.29c-3.59-1.11-4.87-6.45-2.43-8.6a3,3,0,0,1,.4-.3s4.33-3.4,7.23-1.16a40.4,40.4,0,0,0,.5,7.73C856.66,370.85,854,373.07,854,373.07Z" transform="translate(-847.11 -323.75)"/><path class="cls-2" d="M891.06,385.3l-.09.51a15.3,15.3,0,0,0-6.09,7.87l-.12-.05a6.92,6.92,0,0,0-3.86-.53l-.55,0c-1.32-1.22-2.82-2.36-4.06-3.74a10.88,10.88,0,0,1-1.95-2.92c-3.84-6.32-3.68-20.64,3.78-21.17a9.78,9.78,0,0,1,5.35,1.5C883.57,377.16,885.48,382,891.06,385.3Z" transform="translate(-847.11 -323.75)"/><path class="cls-2" d="M982.85,385.69l.66,1.53c-1.08.34-2.23.78-3.42,1.29l-.5-28.11.87,0c2.44,3.85,5.47,10.26,1.36,14.93l.43.11C983.6,378.5,985,381.87,982.85,385.69Z" transform="translate(-847.11 -323.75)"/><path class="cls-2" d="M909.82,373.55l0,.13-.13,0c-1.24,1.82-5.46,4.36-4.82,7.39,1.67,8-3.08,8-4.86,7.71l-.15,0-.49-.11a38.56,38.56,0,0,1-8.34-3.37c-5.58-3.28-7.49-8.14-7.59-18.51l.16-.15c.3-2.4.37-3.91,1.13-5.36l.16-.44c10,5,12.78,4.45,22.21,1.68l0,.05c-.23.14-1.19.43-.32,1a10,10,0,0,1,1.89,1.51C912.33,368.82,909.82,373.55,909.82,373.55Z" transform="translate(-847.11 -323.75)"/><path class="cls-2" d="M849.77,357.89c-1,2.32-1.17,4.55,1,6.39l.14.19c-2.44,2.15-1.16,7.49,2.43,8.6l.23.29a15.75,15.75,0,0,0-4.44,5l-.47-.09V357.13A6.92,6.92,0,0,0,849.77,357.89Z" transform="translate(-847.11 -323.75)"/><path class="cls-2" d="M984.19,345.28c-.14,5.19,6,7.34-3.73,15.1l-.87,0-.26-14,0-.23,4.65-.88Z" transform="translate(-847.11 -323.75)"/><path class="cls-2" d="M918.81,359.26v0c-1.64,10.88-.64,35-.64,35,.11,4.61-.53,11.67-.21,17.78l-14.1,6.85,0-.11c7.69-3.55,10.83-14.34,6.61-22.19l.14-.08c.61-7.07.64-16.79-.72-22.85l0-.13s2.51-4.73-1.1-8.51h.57v-2.78l-.1-.33C911.84,361.14,915,360.24,918.81,359.26Z" transform="translate(-847.11 -323.75)"/><path class="cls-2" d="M909.85,373.68c1.36,6.06,1.33,15.78.72,22.85l-.14.08a15.62,15.62,0,0,0-7.66-6.93,10.07,10.07,0,0,0-2.73-.87c1.78.27,6.53.31,4.86-7.71-.64-3,3.58-5.57,4.82-7.39Z" transform="translate(-847.11 -323.75)"/><path class="cls-2" d="M859.36,356.46l.32,0a16.47,16.47,0,0,0-.66,2.45c-4.61-6.1-9.25-1.05-9.25-1.05a6.92,6.92,0,0,1-1.09-.76c-2.53-2.17-1-4.78,1.15-6.13l.41-.5C851.82,352.22,854.52,353.71,859.36,356.46Z" transform="translate(-847.11 -323.75)"/><path class="cls-2" d="M884.76,393.63l.12.05a27.88,27.88,0,0,0-1.27,4.54,9.1,9.1,0,0,0-3.26-5.1l.55,0A6.92,6.92,0,0,1,884.76,393.63Z" transform="translate(-847.11 -323.75)"/><path class="cls-2" d="M899.4,388.67l.49.11c-3.14-.49-7.88.36-9.1,9.35-1.5,11.05-.28,12.58-.18,12.68h0a21.18,21.18,0,0,0-6.2-3c-1.13-.37-.18-1.55-1.34-3.59h-.14a39.75,39.75,0,0,1,.68-6h0a27.88,27.88,0,0,1,1.27-4.54,15.3,15.3,0,0,1,6.09-7.87l.09-.51A38.56,38.56,0,0,0,899.4,388.67Z" transform="translate(-847.11 -323.75)"/><path class="cls-2" d="M987.05,338.89l0,.07c-2.13,2.63-2.84,4.63-2.88,6.32h-.25l-4.65.88-10,1.89c0-2,0-3.89,0-5.83l0-.33C974.37,342.28,978.12,341.05,987.05,338.89Z" transform="translate(-847.11 -323.75)"/><path class="cls-2" d="M882.93,404.26h.14c1.16,2,.21,3.22,1.34,3.59a21.18,21.18,0,0,1,6.2,3c7.31,5.48-3.85,10.94-10.46-1.55l-.85-.32a9.72,9.72,0,0,0,3.42-4.69Z" transform="translate(-847.11 -323.75)"/><path class="cls-2" d="M859,358.94a16.47,16.47,0,0,1,.66-2.45,10.77,10.77,0,0,1,1.08-2.26c7.72-1.53,19.22-1,17.35,10.91v.15c-7.46.53-7.62,14.85-3.78,21.17a10.88,10.88,0,0,0,1.95,2.92l-.32.29a9.45,9.45,0,0,1-3.32.5c-7.31-.24-12.08-9.86-13.59-19.43a40.4,40.4,0,0,1-.5-7.73A26.63,26.63,0,0,1,859,358.94Z" transform="translate(-847.11 -323.75)"/><path class="cls-2" d="M850.79,364.28c-2.19-1.84-2-4.07-1-6.39,0,0,4.64-5.05,9.25,1.05a26.63,26.63,0,0,0-.46,4.07c-2.9-2.24-7.23,1.16-7.23,1.16a3,3,0,0,0-.4.3Z" transform="translate(-847.11 -323.75)"/><path class="cls-3" d="M987.07,338.89c-16.39-4.87-35.36-10.62-52.78-14.67-.4-.1-.81-.15-1.22-.22-28.88,5.18-56.94,8.87-85.49,15.32" transform="translate(-847.11 -323.75)"/><path class="cls-3" d="M859.36,356.46c-4.84-2.75-7.54-4.24-9.12-6-2-2.22-2.23-4.82-2.77-11a349.2,349.2,0,0,0,49,19.91c14.22-3.51,19.47-5.87,21.38-5.61,1.4.18,1,1.79,1,5.42h0c-3.84,1-7,1.88-9.62,2.66l-2.06.6c-9.43,2.77-12.22,3.32-22.21-1.68-1.24-.63-2.59-1.33-4.08-2.13" transform="translate(-847.11 -323.75)"/><path class="cls-3" d="M932,330.22c18.72,5.5,28.18,9.93,37.24,11.66h0c5.06.4,8.81-.83,17.74-3h0" transform="translate(-847.11 -323.75)"/><path class="cls-3" d="M932,350l0-19.76C916.67,333,884,340,884,340c11.31,5.45,22.38,8.94,33.82,13.84" transform="translate(-847.11 -323.75)"/><path class="cls-3" d="M900,388.81c1.78.27,6.53.31,4.86-7.71-.64-3,3.58-5.57,4.82-7.39" transform="translate(-847.11 -323.75)"/><path class="cls-3" d="M883.61,398.22a9.1,9.1,0,0,0-3.26-5.1c-1.32-1.22-2.82-2.36-4.06-3.74a10.88,10.88,0,0,1-1.95-2.92c-3.84-6.32-3.68-20.64,3.78-21.17a9.78,9.78,0,0,1,5.35,1.5c.1,10.37,2,15.23,7.59,18.51a38.56,38.56,0,0,0,8.34,3.37l.49.11" transform="translate(-847.11 -323.75)"/><path class="cls-3" d="M878.11,365.14c1.87-11.94-9.63-12.44-17.35-10.91a10.77,10.77,0,0,0-1.08,2.26,16.47,16.47,0,0,0-.66,2.45,26.63,26.63,0,0,0-.46,4.07,40.4,40.4,0,0,0,.5,7.73c1.51,9.57,6.28,19.19,13.59,19.43a9.45,9.45,0,0,0,3.32-.5" transform="translate(-847.11 -323.75)"/><path class="cls-3" d="M944.34,339.77C952,342.7,959.55,345,969,348.1l.34-.06,10-1.89,4.65-.88" transform="translate(-847.11 -323.75)"/><path class="cls-3" d="M870,352.6c-6.92-2.52-14.22-6.81-21.64-9.64" transform="translate(-847.11 -323.75)"/><path class="cls-3" d="M910.57,396.53c.61-7.07.64-16.79-.72-22.85l0-.13s2.51-4.73-1.1-8.51a10,10,0,0,0-1.89-1.51c-.87-.53.09-.82.32-1" transform="translate(-847.11 -323.75)"/><path class="cls-3" d="M879.53,408.92c0,.07.7.5.74.58,2.09,3.85,4.63,5.95,6.88,6.84,4.87,1.92,8.43-1.8,3.46-5.52a21.18,21.18,0,0,0-6.2-3c-1.13-.37-.18-1.55-1.34-3.59h-.35a9.9,9.9,0,0,1-3.25,4.57c-3.63,2.55-8.12-.38-10.36-4.8s-2.2-10.54,3.54-13.85" transform="translate(-847.11 -323.75)"/><path class="cls-3" d="M865.26,397.28a18.54,18.54,0,0,1-4.19.31c-10.58-.48-16.4-10.84-11.92-19.19a15.75,15.75,0,0,1,4.44-5c.14-.09.27-.2.42-.29s2.65-2.22,5-2.33" transform="translate(-847.11 -323.75)"/><path class="cls-3" d="M892.25,418.81l.27.09a14.84,14.84,0,0,0,10.46.25,13.33,13.33,0,0,0,1.87-.88c6.93-4,9.6-14.17,5.58-21.66a15.62,15.62,0,0,0-7.66-6.93,10.07,10.07,0,0,0-2.73-.87l-.15,0c-3.14-.49-7.88.36-9.1,9.35-1.5,11.05-.28,12.58-.18,12.68h0" transform="translate(-847.11 -323.75)"/><path class="cls-3" d="M987.07,339c-2.13,2.63-2.84,4.63-2.88,6.32-.14,5.19,6,7.34-3.73,15.1,2.44,3.85,5.47,10.26,1.36,14.93" transform="translate(-847.11 -323.75)"/><path class="cls-3" d="M982.25,375.42c1.35,3.08,2.7,6.45.6,10.27l.66,1.53c-1.08.34-2.23.78-3.42,1.29-3,1.27-6.32,2.89-9.41,3.94" transform="translate(-847.11 -323.75)"/><path class="cls-3" d="M861.07,397.59c.1,3.15,3.73,6.43,7.4,6.54" transform="translate(-847.11 -323.75)"/><path class="cls-3" d="M853.36,373.07c-3.59-1.11-4.87-6.45-2.43-8.6a3,3,0,0,1,.4-.3s4.33-3.4,7.23-1.16" transform="translate(-847.11 -323.75)"/><path class="cls-3" d="M969.28,342.21c0,1.94,0,3.88,0,5.83.12,14.51,1,29.3,1.38,44.41" transform="translate(-847.11 -323.75)"/><path class="cls-3" d="M918.82,359.3c-1.64,10.88-.64,35-.64,35,.11,4.61-.53,11.67-.21,17.78l-13.12,6.21-1.87.88-4.9,2.32-2-.93-3.54-1.64-5.41-2.49" transform="translate(-847.11 -323.75)"/><path class="cls-3" d="M891,385.81a15.3,15.3,0,0,0-6.09,7.87,27.88,27.88,0,0,0-1.27,4.54h0a39.75,39.75,0,0,0-.68,6v0" transform="translate(-847.11 -323.75)"/><path class="cls-3" d="M849.83,351c-2.16,1.35-3.68,4-1.15,6.13a6.92,6.92,0,0,0,1.09.76c-1,2.32-1.17,4.55,1,6.39" transform="translate(-847.11 -323.75)"/><path class="cls-3" d="M884.76,361.28c-.76,1.45-.83,3-1.13,5.36" transform="translate(-847.11 -323.75)"/><path class="cls-3" d="M962.91,372.21c1.57.44,1.41.44,4.12,1.18" transform="translate(-847.11 -323.75)"/><path class="cls-3" d="M884.76,393.63a6.92,6.92,0,0,0-3.86-.53" transform="translate(-847.11 -323.75)"/><path class="cls-3" d="M962.53,356.78l5.25,1.23" transform="translate(-847.11 -323.75)"/><path class="cls-3" d="M909.29,362.25V365" transform="translate(-847.11 -323.75)"/><line class="cls-3" x1="48.82" y1="17.04" x2="62.39" y2="14.11"/><path class="cls-3" d="M849.77,357.89s4.64-5.05,9.25,1.05h0" transform="translate(-847.11 -323.75)"/><polyline class="cls-3" points="132.98 64.76 132.47 36.65 132.22 22.64"/><line class="cls-3" x1="1.57" y1="54.56" x2="1.57" y2="33.38"/></svg>