<svg id="Capa_1" data-name="Capa 1" xmlns="http://www.w3.org/2000/svg" viewBox="0 0 116.04 57.87"><defs><style>.cls-1{fill:#fff;}.cls-2{fill:none;stroke:#000;stroke-linecap:round;stroke-linejoin:round;stroke-width:0.5px;}</style></defs><title>acampar-banco</title><path class="cls-1" d="M1825.44,541.19c0,.45,0,1-.07,1.57l0,.18c-1,.09-2,.19-3,.32l-1.75.25c-1,.15-2,.32-3,.49-.79.14-1.57.38-2.35.55l-4.84,1.06c-.59.13-1.2.27-1.79.44a.4.4,0,0,0-.2.17l-.11-.09-.55.11-1.89.39-.75.16-1.42.29-3.73.76h0a3.25,3.25,0,0,0-.46.11,10.81,10.81,0,0,1-1.48.31c-1,.18-23,4.89-24,5.15l-.35.08-.48.11-.59.12c-1.07.19-2.15.36-3.22.56-.64.11-1.28.24-1.92.37h-.07a2.72,2.72,0,0,1-1.88.24l0-.12.18-1.67,0-.13a1.46,1.46,0,0,0,.59,0l6.26-1.37,3.09-.68,6.51-1.3c1-.21,1.94-.47,2.91-.68l7.62-1.55,8.86-1.79,5-1q3-.6,6.07-1.24c1.87-.39,3.72-.86,5.58-1.22,1.37-.27,5.22-.82,6.59-1.12Z" transform="translate(-1709.65 -517.26)"/><path class="cls-1" d="M1812.62,559.35c.16.36.08.53-.26.62l-1.53.45-.07-.24-4.86-13.55,1.89-.39,0,.23c.13.48.21,1,.38,1.42.92,2.47,1.85,4.92,2.78,7.38C1811.53,556.63,1812.06,558,1812.62,559.35Z" transform="translate(-1709.65 -517.26)"/><polygon class="cls-1" points="100.49 42.98 100.32 42.93 95.54 29.72 95.5 29.52 96.25 29.37 101.11 42.92 101.18 43.16 100.94 43.23 100.49 42.98"/><path class="cls-1" d="M1810,560.2l-.89.77a2.54,2.54,0,0,0-.13-.56c-.48-1.12-1-2.21-1.47-3.35-1.26-3.27-2.49-6.56-3.72-9.84l0-.14,1.42-.29,0,.2Z" transform="translate(-1709.65 -517.26)"/><path class="cls-1" d="M1808.45,546.22a.4.4,0,0,1,.2-.17c.59-.17,1.2-.31,1.79-.44l4.84-1.06c.78-.17,1.56-.41,2.35-.55,1-.17,2-.34,3-.49v.11a4.89,4.89,0,0,1,.19,2.57,2.53,2.53,0,0,1-2.35,2.19,19.68,19.68,0,0,1-2.54-.37c-1.55-.27-3.11-.54-4.65-.87-1-.2-1.89-.51-2.85-.72h-.07v-.06Z" transform="translate(-1709.65 -517.26)"/><path class="cls-1" d="M1767.77,527.41l-3.48.46-4.5.6h0l-4.73.63-1.4.19-4.72.64-.14,0a2.54,2.54,0,0,1-.48,0l-.4,0,0-.19c0-.5,0-1,.07-1.49V528h.16a13.31,13.31,0,0,0,2.08-.2c1.71-.29,27.42-3.09,29.29-3.3,1.33-.15,6.86-.84,8.3-1,1.93-.19,3.85-.38,5.77-.63,1.2-.15,12.22-1.86,12.39-1.94v1.4l-4.17.56-6.64.88-.88.12-5.86.78-7.29,1-3.29.43-3.64.49-1.87.24Z" transform="translate(-1709.65 -517.26)"/><path class="cls-1" d="M1801.83,523a3.8,3.8,0,0,1-1.86,4.39l-.19.08a1.78,1.78,0,0,1-.67.16c-.43,0-.86,0-1.28-.1l-.77-.07a2.57,2.57,0,0,0-.55-.06c-.44-1.14-.87-2.28-1.3-3.41l0-.23,6.64-.88Z" transform="translate(-1709.65 -517.26)"/><path class="cls-1" d="M1800.54,548.39c-.15-.43-.24-.58-.54-.55l3.73-.76,0,.14c1.23,3.28,2.46,6.57,3.72,9.84.44,1.14,1,2.23,1.47,3.35a2.54,2.54,0,0,1,.13.56l-2.48-.07c-.12,0-1.26,0-1.6-.87-.56-1.39-1.07-2.81-1.62-4.2-.67-1.7-1.37-3.39-2-5.09C1801,550,1800.8,549.18,1800.54,548.39Z" transform="translate(-1709.65 -517.26)"/><path class="cls-1" d="M1799.85,527.64c1.38,3.26,2.66,6.56,3.78,9.91a2.88,2.88,0,0,0,.13.31,1.45,1.45,0,0,0,.28.48l-.1.08a1.05,1.05,0,0,1-.25.18l-1.77.53,0-.09c-.56-1.45-3.12-7.8-3.71-9.54a15.55,15.55,0,0,1-.38-1.8l0-.17c.42.05.85.09,1.28.1a1.78,1.78,0,0,0,.67-.16Z" transform="translate(-1709.65 -517.26)"/><path class="cls-1" d="M1798.19,529.5c.59,1.74,3.15,8.09,3.71,9.54l0,.09-.52.14c-.06,0-.17-.06-.25-.15a.48.48,0,0,1-.11-.15c-.23-.5-.43-1-.63-1.54q-1.31-3.34-2.6-6.69c-.44-1.11-.87-2.23-1.3-3.34a2.57,2.57,0,0,1,.55.06l.77.07,0,.17A15.55,15.55,0,0,0,1798.19,529.5Z" transform="translate(-1709.65 -517.26)"/><path class="cls-1" d="M1797.48,540.06l-11.11,2.18h0c-1.06-.22-4.91-1-6-1.21-1.54-.28-3.09-.53-4.64-.78h0c-.47-.08-.86-.38-.75-.7.37-1.1.77-2.2,1.18-3.28a.57.57,0,0,1,.42-.3c.24,0,1.15.19,1.81.31h0l7.86,1.55a21.13,21.13,0,0,0,2.64.47c1.64.34,3.3.62,5,.94l2.29.43a5.47,5.47,0,0,1,.8.19,2.24,2.24,0,0,0,.55.11Z" transform="translate(-1709.65 -517.26)"/><path class="cls-1" d="M1800.16,539c-.66-1.59-1.33-3.18-2-4.77-.73-1.81-1.47-3.63-2.16-5.46-.18-.46-.39-1-.61-1.68-.4-1.12-.82-2.36-1.11-3.19l.88-.12,0,.23c.43,1.13.86,2.27,1.3,3.41s.86,2.23,1.3,3.34q1.29,3.35,2.6,6.69c.2.52.4,1,.63,1.54a.48.48,0,0,0,.11.15l-.12.11-.78.22,0-.1A1.51,1.51,0,0,0,1800.16,539Z" transform="translate(-1709.65 -517.26)"/><path class="cls-1" d="M1795.21,527.14l-6.77-2.48,5.86-.78c.29.83.71,2.07,1.11,3.19Z" transform="translate(-1709.65 -517.26)"/><path class="cls-1" d="M1786.37,542.24l-12.1,2.37c.33-1.06,1.09-3.22,1.42-4.27l0-.1h0c1.55.25,3.1.5,4.64.78C1781.46,541.21,1785.31,542,1786.37,542.24Z" transform="translate(-1709.65 -517.26)"/><path class="cls-1" d="M1786.25,537.82l-7.86-1.55.63.1-2.93-2.34-3.58-2.85-3.83-3-.91-.72,4.58-.62v.07a5.54,5.54,0,0,0,1.34,1.17h0c.19.2,2.52,2.06,5.13,4.11C1782.17,534.78,1786,537.73,1786.25,537.82Z" transform="translate(-1709.65 -517.26)"/><path class="cls-1" d="M1781.45,529.69l-.48,0v-.08c0-.36.1-.71.12-1.06,0-.82.05-2.12.07-2.94l7.29-1,6.77,2.48.2-.07c.22.63.43,1.22.61,1.68.69,1.83,1.43,3.65,2.16,5.46.65,1.59,1.32,3.18,2,4.77a1.51,1.51,0,0,1,.06.37l0,.1-.34.08a9.12,9.12,0,0,1-2.42.43,2.24,2.24,0,0,1-.55-.11,5.47,5.47,0,0,0-.8-.19l-2.29-.43c-1.66-.32-3.32-.6-5-.94a21.13,21.13,0,0,1-2.64-.47c-.27-.09-4.08-3-7.43-5.68l0,0c.09-.22.18-.45.25-.68A2.6,2.6,0,0,1,1781.45,529.69Z" transform="translate(-1709.65 -517.26)"/><path class="cls-1" d="M1781.15,525.63c0,.82,0,2.12-.07,2.94,0,.35-.08.7-.12,1.06v.08c-.86.06-2.21.18-2.8.15a2.86,2.86,0,0,1-.64-.11l0-.06a1.68,1.68,0,0,0,.18-.5c.06-.91.09-2.22.13-3.13Z" transform="translate(-1709.65 -517.26)"/><path class="cls-1" d="M1777.73,529.19a1.68,1.68,0,0,1-.18.5l0,.06a3.39,3.39,0,0,1-.53-.2,11.29,11.29,0,0,1-1.12-.73,1.17,1.17,0,0,0-.49-.18,2.91,2.91,0,0,1-1.48-.47l0-.09.31-1.18,0-.35,3.64-.49C1777.82,527,1777.79,528.28,1777.73,529.19Z" transform="translate(-1709.65 -517.26)"/><path class="cls-1" d="M1778.37,536.27c-.66-.12-1.57-.31-1.81-.31a.57.57,0,0,0-.42.3c-.41,1.08-.81,2.18-1.18,3.28-.11.32.28.62.75.7l0,.1c-.33,1-1.09,3.21-1.42,4.27l-2.5.49v0c.24-.62,1-2.31,1.21-2.93.58-1.51,1.14-3,1.74-4.52.39-1,.84-2,1.23-3a1,1,0,0,0,.06-.5l.09-.11,2.93,2.34-.63-.1Z" transform="translate(-1709.65 -517.26)"/><path class="cls-1" d="M1774.27,553.91c0,.84,0,1.69,0,2.53a1.24,1.24,0,0,1-.25.74c-.67.73-1.39,1.41-2.09,2.11a.47.47,0,0,1-.56.14l-.61-.17a2.68,2.68,0,0,1,.37-.64c.54-.58,1.12-1.11,1.66-1.69a1.63,1.63,0,0,0,.53-.86,20.52,20.52,0,0,0-.09-2.35l0-.12.48-.11Z" transform="translate(-1709.65 -517.26)"/><path class="cls-1" d="M1774,528.08l0,.09-.21-.14a5.54,5.54,0,0,1-1.34-1.17v-.07l1.87-.24,0,.35Z" transform="translate(-1709.65 -517.26)"/><path class="cls-1" d="M1781,529.71l.48,0a2.6,2.6,0,0,0-2.35,1.73c-.07.23-.16.46-.25.68l0,0c-2.61-2-4.94-3.91-5.13-4.11h0l.21.14a2.91,2.91,0,0,0,1.48.47,1.17,1.17,0,0,1,.49.18,11.29,11.29,0,0,0,1.12.73,3.39,3.39,0,0,0,.53.2,2.86,2.86,0,0,0,.64.11C1778.76,529.89,1780.11,529.77,1781,529.71Z" transform="translate(-1709.65 -517.26)"/><path class="cls-1" d="M1773.22,553.72a20.52,20.52,0,0,1,.09,2.35,1.63,1.63,0,0,1-.53.86c-.54.58-1.12,1.11-1.66,1.69a2.68,2.68,0,0,0-.37.64c-1-.28-2.11-.54-3.17-.84-1.51-.42-3-.87-4.52-1.29l-.91-.26c-.62-.17-1.25-.33-1.88-.48-.28-.06-.46,0-.56,0l-.12-.17-1.24-.37-.15.05c-.33-.94-.65-1.89-1-2.84,0-.07,0-.17.06-.25l0-.17.5.14c1,.22,1.93.49,2.89.76s2,.56,3,.81c.59.15,1.18.38,1.77.5a2.72,2.72,0,0,0,1.88-.24h.07c.64-.13,1.28-.26,1.92-.37,1.07-.2,2.15-.37,3.22-.56l.59-.12Z" transform="translate(-1709.65 -517.26)"/><path class="cls-1" d="M1772.51,531.18l3.58,2.85-.09.11a1,1,0,0,1-.06.5c-.39,1-.84,2-1.23,3-.6,1.5-1.16,3-1.74,4.52-.24.62-1,2.31-1.21,2.93v0l-4.83.94V546c.11-.35.65-1.46.78-1.8.61-1.61,1.24-3.22,1.86-4.83l.12-.31c.57-1.5,1.18-3,1.67-4.5.1-.34.21-.67.31-1,.21-.66.42-1.33.65-2l.09-.24Z" transform="translate(-1709.65 -517.26)"/><path class="cls-1" d="M1772.41,531.3l-.09.24-14.56,3c.2-.23.39-.45.6-.67,1-1.08,2.05-2.09,3-3.18.13-.17.77-.81,1.42-1.43l0,0,5.77-1.11.08-.1,3.83,3Z" transform="translate(-1709.65 -517.26)"/><path class="cls-1" d="M1756.77,536.75l14.9-3.22c-.1.34-.21.67-.31,1-.49,1.53-1.1,3-1.67,4.5l-.12.31Z" transform="translate(-1709.65 -517.26)"/><path class="cls-1" d="M1756.77,536.75l12.8,2.6c-.62,1.61-1.25,3.22-1.86,4.83-.13.34-.67,1.45-.78,1.8V546l-8.37,1.64c-.78-1.94-1.8-4.47-2.57-6.41-.48-1.21-.94-2.43-1.42-3.64l.18-.08a3.74,3.74,0,0,0,.92-.57Z" transform="translate(-1709.65 -517.26)"/><path class="cls-1" d="M1762.09,557.1l5.92,15.82c-.55.25-1.1.53-1.67.73-.27.09-.51,0-.63-.42s-.15-.46-.24-.68c-.18-.48-.37-.95-.55-1.43-.73-2-1.44-4-2.17-5.94-.61-1.66-1.24-3.31-1.86-5-.39-1.05-.79-2.1-1.18-3.16-.11-.32-.12-.53,0-.63s.28-.1.56,0c.63.15,1.26.31,1.88.48Z" transform="translate(-1709.65 -517.26)"/><path class="cls-1" d="M1765.75,553l0,.13-.18,1.67,0,.12c-.59-.12-1.18-.35-1.77-.5-1-.25-2-.54-3-.81l0-.11L1761,552l-.14-.05h.32a10.9,10.9,0,0,0,1.19.24,19.31,19.31,0,0,0,2.23.49C1765,552.7,1765.35,552.89,1765.75,553Z" transform="translate(-1709.65 -517.26)"/><path class="cls-1" d="M1764.29,527.87c-.16.14-.84.78-1.5,1.43s-1.29,1.26-1.42,1.43c-1,1.09-2,2.1-3,3.18-.21.22-.4.44-.6.67-.7.8-1.37,1.62-2.08,2.4a3.74,3.74,0,0,1-.92.57l-.18.08c-.23-.59-.46-1.17-.71-1.74a6.55,6.55,0,0,0-.44-1.29l0,0a5.47,5.47,0,0,0,1-.63c1.16-1.16,4.32-4.48,5.35-5.48h0Z" transform="translate(-1709.65 -517.26)"/><path class="cls-1" d="M1746.52,540.37c-.2-.56-.39-1.12-.58-1.65l-.6-1.68-1.12-3.16c-1-2.79-1.64-4.59-1.7-4.75h0l4.76.67v0l6.18,18.66,0,.2-2,.39.16,2h.1c.2,0,2.12.55,3.28.9l-.08.24c.53,1.7,1,3.42,1.56,5.13.21.7.49,1.38.74,2.08.62,1.78,1.21,3.58,1.86,5.35.56,1.49,1.21,2.93,1.79,4.41.72,1.85,1.4,3.71,2.11,5.57v.07a1.79,1.79,0,0,1-1.08-.11,20.92,20.92,0,0,0-2.9-1.06,1.4,1.4,0,0,1-1-1.07c0-.14-.07-.3-.12-.43-.32-.7-3.21-8.77-6.4-17.74l-1.8-5.08c-.1-.28-.2-.56-.31-.84-.59-1.68-1.18-3.33-1.74-4.93C1747.27,542.49,1746.89,541.41,1746.52,540.37Z" transform="translate(-1709.65 -517.26)"/><path class="cls-1" d="M1762.79,529.3c.66-.65,1.34-1.29,1.5-1.43l3.48-.46.91.72-.08.1-5.77,1.11Z" transform="translate(-1709.65 -517.26)"/><path class="cls-1" d="M1764.55,552.65a19.31,19.31,0,0,1-2.23-.49,10.9,10.9,0,0,1-1.19-.24h0c.31-.1,1.09-.34,1.41-.42l3.53-.81,4-.86c2.43-.54,4.87-1.09,7.31-1.61,2.26-.48,4.54-.91,6.81-1.37l4.77-1c1.51-.32,3-.66,4.52-1,2.17-.46,4.34-.89,6.5-1.37,1.54-.34,3.06-.75,4.59-1.1s2.81-.58,4.21-.87c1-.2,1.91-.39,2.85-.63,1.81-.45,3.74-.42,5.45-1.29l.13-.06c.06,0,.16,0,.24,0,1.26.17,2.54.29,3.78.54s2.41.59,3.68.92c-1.37.3-5.22.85-6.59,1.12-1.86.36-3.71.83-5.58,1.22q-3,.64-6.07,1.24l-5,1-8.86,1.79-7.62,1.55c-1,.21-1.94.47-2.91.68l-6.51,1.3-3.09.68-6.26,1.37a1.46,1.46,0,0,1-.59,0C1765.35,552.89,1765,552.7,1764.55,552.65Z" transform="translate(-1709.65 -517.26)"/><path class="cls-1" d="M1755.87,552.25c.5.13,1,.29,1.48.43l0,.17c0,.08-.08.18-.06.25.31.95.63,1.9,1,2.84l.15.44c.94,2.65,2,5.26,2.83,7.94.69,2.2,1.54,4.33,2.32,6.49.39,1.11.83,2.21,1.26,3.35a7.25,7.25,0,0,1-1.33.6l-.42.09v-.07c-.71-1.86-1.39-3.72-2.11-5.57-.58-1.48-1.23-2.92-1.79-4.41-.65-1.77-1.24-3.57-1.86-5.35-.25-.7-.53-1.38-.74-2.08-.53-1.71-1-3.43-1.56-5.13l.08-.24.7.21Z" transform="translate(-1709.65 -517.26)"/><path class="cls-1" d="M1756.77,536.75l-1.09.23c.71-.78,1.38-1.6,2.08-2.4l14.56-3c-.23.66-.44,1.33-.65,2Z" transform="translate(-1709.65 -517.26)"/><path class="cls-1" d="M1815.4,539.1c.56.11,1.16.06,1.61.5h0c-1.71.87-3.64.84-5.45,1.29-.94.24-1.9.43-2.85.63-1.4.29-2.81.55-4.21.87s-3,.76-4.59,1.1c-2.16.48-4.33.91-6.5,1.37-1.51.33-3,.67-4.52,1l-4.77,1c-2.27.46-4.55.89-6.81,1.37-2.44.52-4.88,1.07-7.31,1.61l-4,.86-3.53.81c-.32.08-1.1.32-1.41.42h-.28c-.77-.29-4.18-1.51-4.63-1.59v-.12c.33-.06,1.11,0,1.44,0,1.47-.37,2.92-.78,4.4-1.11s3-.56,4.52-.88c1.82-.39,3.63-.83,5.45-1.23,1-.22,2-.43,3-.62,1.53-.3,3.06-.59,4.59-.86,1.06-.19,2.15-.31,3.22-.51s2.1-.51,3.16-.73c1.83-.39,3.67-.75,5.51-1.12l5.88-1.18c.75-.15,1.49-.34,2.23-.42a40,40,0,0,0,5.33-1c1.76-.46,3.55-.8,5.33-1.19a7.27,7.27,0,0,0,2.38-.57l.16-.1a.63.63,0,0,1,.43-.07C1813.92,538.76,1814.65,539,1815.4,539.1Z" transform="translate(-1709.65 -517.26)"/><path class="cls-1" d="M1756.18,550.34c.45.08,3.86,1.3,4.63,1.59l.14.05-.18,1.49,0,.11c-1-.27-1.92-.54-2.89-.76l-.5-.14c-.5-.14-1-.3-1.48-.43l-.15,0,0-.1c0-.43.06-.87.13-1.3a1.16,1.16,0,0,1,.12-.34.86.86,0,0,1,.13-.14Z" transform="translate(-1709.65 -517.26)"/><path class="cls-1" d="M1812.58,538.78a7.27,7.27,0,0,1-2.38.57c-1.78.39-3.57.73-5.33,1.19a40,40,0,0,1-5.33,1c-.74.08-1.48.27-2.23.42l-5.88,1.18c-1.84.37-3.68.73-5.51,1.12-1.06.22-2.11.52-3.16.73s-2.16.32-3.22.51c-1.53.27-3.06.56-4.59.86-1,.19-2,.4-3,.62-1.82.4-3.63.84-5.45,1.23-1.5.32-3,.55-4.52.88s-2.93.74-4.4,1.11c-.33.08-1.11,0-1.44,0v.12h0a.86.86,0,0,0-.13.14l-.06,0c-1-.27-3.8-1.1-4.46-1.37l2-.39,1.81-.36.87-.17,2.39-.47,8.37-1.64,4.83-.94,2.5-.49,12.1-2.37h0l11.11-2.18V540a9.12,9.12,0,0,0,2.42-.43l.34-.08.78-.22.12-.11c.08.09.19.16.25.15l.52-.14,1.77-.53a1.05,1.05,0,0,0,.25-.18l.1-.08c.15.13.34.06.77-.1a12.51,12.51,0,0,1,2.3-.72,5,5,0,0,1,1.6.22c1.1.22,2.19.44,3.28.69a2.17,2.17,0,0,1,.56.3Z" transform="translate(-1709.65 -517.26)"/><path class="cls-1" d="M1755.88,550.81c-.07.43-.09.87-.13,1.3l0,.1-.7-.21c-1.16-.35-3.08-.91-3.28-.9h-.1l-.16-2c.66.27,3.46,1.1,4.46,1.37l.06,0A1.16,1.16,0,0,0,1755.88,550.81Z" transform="translate(-1709.65 -517.26)"/><path class="cls-1" d="M1755.06,529.13l.22,1.66-1.27,2c-.33.49-.66,1-1,1.45l-.36.47a3.48,3.48,0,0,1-.58.5l-.18-.08-.78-.35-.14,0,.15-.2c.81-1,1.6-2.07,2.5-3a1.13,1.13,0,0,0,.33-1,9.56,9.56,0,0,0-.27-1.15v-.05l1.4-.19Z" transform="translate(-1709.65 -517.26)"/><path class="cls-1" d="M1753.46,534.58l0,0a1,1,0,0,0-.28-.27l-.15-.1c.35-.48.68-1,1-1.45l1.27-2-.22-1.66v0l4.73-.63c-1,1-4.19,4.32-5.35,5.48A5.47,5.47,0,0,1,1753.46,534.58Z" transform="translate(-1709.65 -517.26)"/><path class="cls-1" d="M1756.16,548.07l-4.31-12.87,0-.08.18.08a3.48,3.48,0,0,0,.58-.5l.36-.47.15.1a1,1,0,0,1,.28.27,6.55,6.55,0,0,1,.44,1.29c.25.57.48,1.15.71,1.74.48,1.21.94,2.43,1.42,3.64.77,1.94,1.79,4.47,2.57,6.41l-2.39.47Z" transform="translate(-1709.65 -517.26)"/><path class="cls-1" d="M1751.52,554.44l-.18.07L1731,549.33l-.74-.19.08-1.51.16-3,.19-.12.21,0,18.48,4.88.31-.06Z" transform="translate(-1709.65 -517.26)"/><path class="cls-1" d="M1751.1,534.77l.78.35,0,.08,4.31,12.87,0,.08-.87.17,0-.13c-.12-.28-4.68-12.53-4.64-12.8a.91.91,0,0,1,.13-.38,2.4,2.4,0,0,1,.19-.29Z" transform="translate(-1709.65 -517.26)"/><path class="cls-1" d="M1750.67,535a1.92,1.92,0,0,1-.36-.5c-.51-1.46-1-2.92-1.5-4.39V530l.14,0,4.72-.64v.05a9.56,9.56,0,0,1,.27,1.15,1.13,1.13,0,0,1-.33,1c-.9.94-1.69,2-2.5,3l-.15.2a2.4,2.4,0,0,0-.19.29Z" transform="translate(-1709.65 -517.26)"/><path class="cls-1" d="M1748.81,530.06c.5,1.47,1,2.93,1.5,4.39a1.92,1.92,0,0,0,.36.5l.1.06a.91.91,0,0,0-.13.38c0,.27,4.52,12.52,4.64,12.8l0,.13-1.81.36,0-.2-6.18-18.66v0l.64.09.4,0a2.54,2.54,0,0,0,.48,0Z" transform="translate(-1709.65 -517.26)"/><path class="cls-1" d="M1749.41,548.52a11.41,11.41,0,0,1-1.22-.38l-3.78-1,3.26-3.5C1748.23,545.19,1748.82,546.84,1749.41,548.52Z" transform="translate(-1709.65 -517.26)"/><path class="cls-1" d="M1748,528.2c0,.5,0,1-.07,1.49l0,.19-.64-.09-4.76-.67-5.35-.75-.94-.14-.76-.1h0l-1.48-.2-1.86-.26a3.09,3.09,0,0,1,.11-1.81l.06-.17.09,0,5,.77,5.88,1c1,.16,1.9.29,2.85.44a12.7,12.7,0,0,0,1.85.15Z" transform="translate(-1709.65 -517.26)"/><path class="cls-1" d="M1747.67,543.59l-3.26,3.5-3-.83,5.11-5.89C1746.89,541.41,1747.27,542.49,1747.67,543.59Z" transform="translate(-1709.65 -517.26)"/><path class="cls-1" d="M1745.94,538.72h-.16l-2.48.56-2.73.62-3.71.86c-.91.21-1.82.43-2.73.61a2.22,2.22,0,0,1-.62,0l-.19-.05c.17-.57.35-1.2.55-1.88h0a2.71,2.71,0,0,0,.62.06c.93-.17,1.86-.35,2.79-.56.62-.14,1.23-.34,1.86-.49l6.13-1.36.06,0Z" transform="translate(-1709.65 -517.26)"/><path class="cls-1" d="M1744.22,533.88l-.26,0c-.52-.19-2.19-.69-3.86-1.18s-3.33-1-3.86-1.18h-.06c.49-1.65.87-2.88,1-3.16l5.35.75h0C1742.58,529.29,1743.23,531.09,1744.22,533.88Z" transform="translate(-1709.65 -517.26)"/><path class="cls-1" d="M1740.1,532.72c1.67.49,3.34,1,3.86,1.18l.26,0,1.12,3.16-.06,0-6.13,1.36c-.63.15-1.24.35-1.86.49-.93.21-1.86.39-2.79.56a2.71,2.71,0,0,1-.62-.06h0c.49-1.71,1.07-3.69,1.6-5.5l4.6-.93Z" transform="translate(-1709.65 -517.26)"/><path class="cls-1" d="M1740.1,532.72l0,.25-4.6.93c.25-.84.49-1.65.71-2.37h.06C1736.77,531.73,1738.43,532.23,1740.1,532.72Z" transform="translate(-1709.65 -517.26)"/><path class="cls-1" d="M1735.47,528.12h0l-5,16.45-4.9,15.94-.16.52-1.28.33,9.9-33.29v-.16Z" transform="translate(-1709.65 -517.26)"/><path class="cls-1" d="M1733.51,541.33a2.22,2.22,0,0,0,.62,0c.91-.18,1.82-.4,2.73-.61l3.71-.86,2.73-.62,2.48-.56h.16c.19.53.38,1.09.58,1.65l-5.11,5.89-.34-.1c-1.75-.48-3.51-.94-5.27-1.43-1.08-.29-2.15-.63-3.23-1v0c.07-.2.35-1.15.74-2.47Z" transform="translate(-1709.65 -517.26)"/><path class="cls-1" d="M1734,527.92v.16l-9.9,33.29-4.32-1.46c.13-.55.21-1.12.38-1.67.6-1.94,1.26-3.87,1.84-5.82s1-3.75,1.56-5.6c.16-.56.35-1.1.55-1.65s.34-1.28.5-1.92l0-.15c.09-.31.31-.94.58-1.77.55-1.61,1.36-3.93,2-5.76.5-1.47.91-2.62,1-2.85l1-3.42.28-.91c.11-.36.24-.7.37-1l2.27.32Z" transform="translate(-1709.65 -517.26)"/><path class="cls-1" d="M1732.58,543.75v0l-.11,0a1.42,1.42,0,0,0-1,.2l4.77-15.72.94.14c-.12.28-.5,1.51-1,3.16-.22.72-.46,1.53-.71,2.37-.53,1.81-1.11,3.79-1.6,5.5-.2.68-.38,1.31-.55,1.88C1732.93,542.6,1732.65,543.55,1732.58,543.75Z" transform="translate(-1709.65 -517.26)"/><path class="cls-1" d="M1732.46,543.75l.11,0c1.08.32,2.15.66,3.23,1,1.76.49,3.52.95,5.27,1.43l.34.1,3,.83,3.78,1a11.41,11.41,0,0,0,1.22.38c.11.28.21.56.31.84l-.31.06-18.48-4.88,0-.17a1.28,1.28,0,0,1,.49-.42A1.42,1.42,0,0,1,1732.46,543.75Z" transform="translate(-1709.65 -517.26)"/><path class="cls-1" d="M1731,544.37l0,.17-.21,0-.19.12-.11,0,5-16.45.76.1L1731.46,544A1.28,1.28,0,0,0,1731,544.37Z" transform="translate(-1709.65 -517.26)"/><polygon class="cls-1" points="20.64 31.87 21.38 32.06 21.32 32.3 17.89 43.07 16.73 43.39 20.69 30.36 20.72 30.37 20.64 31.87"/><polygon class="cls-1" points="15.87 43.25 20.77 27.31 20.88 27.35 20.72 30.37 20.69 30.36 16.73 43.39 15.87 43.25"/><path class="cls-1" d="M1729.86,527.34c-.13.35-.26.69-.37,1l-.28.91-.16,0a1.64,1.64,0,0,1-.93-2.1v-.06Z" transform="translate(-1709.65 -517.26)"/><path class="cls-1" d="M1732.24,525.85a3.09,3.09,0,0,0-.11,1.81l-2.27-.32-1.73-.25-.17,0h0c-.92-.11-1.84-.27-2.76-.41l-2.23-.35c0-.51,0-.95,0-1.38s.08-.58.37-.63a.72.72,0,0,1,.25,0c.79.13,5.19.79,8.85,1.34l-.09,0Z" transform="translate(-1709.65 -517.26)"/><path class="cls-1" d="M1725.21,541.33c-.27.83-.49,1.46-.58,1.77h-.05l-4.5.86.06-1.53a.67.67,0,0,0,.24,0C1721.56,542.2,1724,541.59,1725.21,541.33Z" transform="translate(-1709.65 -517.26)"/><path class="cls-1" d="M1732.39,525.64c-3.66-.55-8.06-1.21-8.85-1.34a.72.72,0,0,0-.25,0h0c2.18-.53,52.16-6.17,53.4-6.3,1.77-.2,3.52-.67,5.32-.37,1.25.22,2.48.5,3.72.74,1,.21,2.1.43,3.16.62.76.13,1.53.22,2.29.31,1.57.19,3.14.38,4.71.55.66.08,1.32.08,2,.14a3.2,3.2,0,0,1,1.17.2,2.44,2.44,0,0,0,1.18.16c.58,0,1.16,0,1.74.07,1,.09,1.9.2,2.85.31.39,0,.78.14,1.18.21-.17.08-11.19,1.79-12.39,1.94-1.92.25-3.84.44-5.77.63-1.44.14-7,.83-8.3,1-1.87.21-27.58,3-29.29,3.3a13.31,13.31,0,0,1-2.08.2H1748a12.7,12.7,0,0,1-1.85-.15c-1-.15-1.9-.28-2.85-.44l-5.88-1Z" transform="translate(-1709.65 -517.26)"/><path class="cls-1" d="M1720.14,542.42l-.06,1.53-1.06-.33-2.94-1h0l-2.45-.88-3.28-1.18a.64.64,0,0,1-.45-.68c0-.69,0-1,.19-1a2.94,2.94,0,0,1,.94.32c1.4.57,2.85,1,4.27,1.5l4.71,1.73Z" transform="translate(-1709.65 -517.26)"/><path class="cls-1" d="M1720.08,544l4.5-.86h.05l0,.15c-.16.64-.28,1.3-.5,1.92s-.39,1.09-.55,1.65l-.12,0a2.51,2.51,0,0,1-.62-.07c-1.06-.36-2.11-.73-3.16-1.11-.81-.29-1.61-.62-2.42-.92a1.78,1.78,0,0,1-1.18-2l0-.11,2.94,1Z" transform="translate(-1709.65 -517.26)"/><path class="cls-1" d="M1727.21,535.57c-.64,1.83-1.45,4.15-2,5.76-1.17.26-3.65.87-4.83,1.11a.67.67,0,0,1-.24,0l-.13,0-4.71-1.73c-1.42-.51-2.87-.93-4.27-1.5a2.94,2.94,0,0,0-.94-.32l0-.06c.27-.08,1-.19,1.14-.22,1.18-.18,2.36-.31,3.53-.51s2.52-.48,3.78-.74,2.52-.54,3.78-.8c1.42-.29,3.41-.71,4.84-1Z" transform="translate(-1709.65 -517.26)"/><path class="cls-2" d="M1817,539.6c-.45-.44-1-.39-1.61-.5-.75-.15-1.48-.34-2.23-.49a.63.63,0,0,0-.43.07l-.16.1a7.27,7.27,0,0,1-2.38.57c-1.78.39-3.57.73-5.33,1.19a40,40,0,0,1-5.33,1c-.74.08-1.48.27-2.23.42l-5.88,1.18c-1.84.37-3.68.73-5.51,1.12-1.06.22-2.11.52-3.16.73s-2.16.32-3.22.51c-1.53.27-3.06.56-4.59.86-1,.19-2,.4-3,.62-1.82.4-3.63.84-5.45,1.23-1.5.32-3,.55-4.52.88s-2.93.74-4.4,1.11c-.33.08-1.11,0-1.44,0h0" transform="translate(-1709.65 -517.26)"/><path class="cls-2" d="M1824.84,541c-1.37.3-5.22.85-6.59,1.12-1.86.36-3.71.83-5.58,1.22q-3,.64-6.07,1.24l-5,1-8.86,1.79-7.62,1.55c-1,.21-1.94.47-2.91.68l-6.51,1.3-3.09.68-6.26,1.37a1.46,1.46,0,0,1-.59,0c-.4-.08-.79-.27-1.2-.32a19.31,19.31,0,0,1-2.23-.49,10.9,10.9,0,0,1-1.19-.24h0" transform="translate(-1709.65 -517.26)"/><path class="cls-2" d="M1760.85,521.13c-5.72,1.19-22.24,1.74-28.46,4.51l-.09,0" transform="translate(-1709.65 -517.26)"/><path class="cls-2" d="M1761,552l-.14-.05c-.77-.29-4.18-1.51-4.63-1.59h0a.86.86,0,0,0-.13.14,1.16,1.16,0,0,0-.12.34c-.07.43-.09.87-.13,1.3" transform="translate(-1709.65 -517.26)"/><path class="cls-2" d="M1825.37,542.76c0-.56.05-1.12.07-1.57l-.6-.16c-1.27-.33-2.46-.67-3.68-.92s-2.52-.37-3.78-.54c-.08,0-.18-.06-.24,0l-.13.06c-1.71.87-3.64.84-5.45,1.29-.94.24-1.9.43-2.85.63-1.4.29-2.81.55-4.21.87s-3,.76-4.59,1.1c-2.16.48-4.33.91-6.5,1.37-1.51.33-3,.67-4.52,1l-4.77,1c-2.27.46-4.55.89-6.81,1.37-2.44.52-4.88,1.07-7.31,1.61l-4,.86-3.53.81c-.32.08-1.1.32-1.41.42" transform="translate(-1709.65 -517.26)"/><path class="cls-2" d="M1728,527.07h.1" transform="translate(-1709.65 -517.26)"/><path class="cls-2" d="M1723.54,524.3a.72.72,0,0,0-.25,0c-.29.05-.38.28-.37.63s0,.87,0,1.38l2.23.35c.92.14,1.84.3,2.76.41" transform="translate(-1709.65 -517.26)"/><path class="cls-2" d="M1806,520.92c-.4-.07-.79-.16-1.18-.21-1-.11-1.9-.22-2.85-.31-.58,0-1.16,0-1.74-.07a2.44,2.44,0,0,1-1.18-.16,3.2,3.2,0,0,0-1.17-.2c-.66-.06-1.32-.06-2-.14-1.57-.17-3.14-.36-4.71-.55-.76-.09-1.53-.18-2.29-.31-1.06-.19-2.11-.41-3.16-.62-1.24-.24-2.47-.52-3.72-.74-1.8-.3-3.55.17-5.32.37-1.24.13-51.22,5.77-53.4,6.3" transform="translate(-1709.65 -517.26)"/><path class="cls-2" d="M1800,547.84c.3,0,.39.12.54.55.26.79.5,1.58.8,2.35.67,1.7,1.37,3.39,2,5.09.55,1.39,1.06,2.81,1.62,4.2.34.85,1.48.86,1.6.87l2.48.07a2.54,2.54,0,0,0-.13-.56c-.48-1.12-1-2.21-1.47-3.35-1.26-3.27-2.49-6.56-3.72-9.84" transform="translate(-1709.65 -517.26)"/><path class="cls-2" d="M1751.74,551.1c.2,0,2.12.55,3.28.9l.7.21.15,0c.5.13,1,.29,1.48.43l.5.14c1,.22,1.93.49,2.89.76s2,.56,3,.81c.59.15,1.18.38,1.77.5a2.72,2.72,0,0,0,1.88-.24h.07c.64-.13,1.28-.26,1.92-.37,1.07-.2,2.15-.37,3.22-.56l.59-.12.48-.11.35-.08c1-.26,23-5,24-5.15a10.81,10.81,0,0,0,1.48-.31,3.25,3.25,0,0,1,.46-.11" transform="translate(-1709.65 -517.26)"/><path class="cls-2" d="M1807.84,546.47c.13.48.21,1,.38,1.42.92,2.47,1.85,4.92,2.78,7.38.53,1.36,1.06,2.73,1.62,4.08.16.36.08.53-.26.62l-1.53.45-.24.07-.45-.25" transform="translate(-1709.65 -517.26)"/><path class="cls-2" d="M1742.52,529.13c.06.16.71,2,1.7,4.75l1.12,3.16.6,1.68c.19.53.38,1.09.58,1.65.37,1,.75,2.12,1.15,3.22.56,1.6,1.15,3.25,1.74,4.93.11.28.21.56.31.84l1.8,5.08c3.19,9,6.08,17,6.4,17.74,0,.13.07.29.12.43a1.4,1.4,0,0,0,1,1.07,20.92,20.92,0,0,1,2.9,1.06,1.79,1.79,0,0,0,1.08.11l.42-.09a7.25,7.25,0,0,0,1.33-.6c-.43-1.14-.87-2.24-1.26-3.35-.78-2.16-1.63-4.29-2.32-6.49-.85-2.68-1.89-5.29-2.83-7.94l-.15-.44c-.33-.94-.65-1.89-1-2.84,0-.07,0-.17.06-.25" transform="translate(-1709.65 -517.26)"/><path class="cls-2" d="M1773.69,528c.19.2,2.52,2.06,5.13,4.11,3.35,2.64,7.16,5.59,7.43,5.68a21.13,21.13,0,0,0,2.64.47c1.64.34,3.3.62,5,.94l2.29.43a5.47,5.47,0,0,1,.8.19,2.24,2.24,0,0,0,.55.11,9.12,9.12,0,0,0,2.42-.43l.34-.08.78-.22" transform="translate(-1709.65 -517.26)"/><path class="cls-2" d="M1785.11,518.35c-.16.15-.31.38-.5.42-1.64.38-3.3.73-4.95,1.06-1.36.28-2.72.51-4.09.75-1.9.34-3.79.69-5.7,1-1.33.21-12.53,1.88-13.5,2.05-1.32.24-2.64.46-4,.69l-7.62,1.36c-.51.09-1,.13-1.54.19" transform="translate(-1709.65 -517.26)"/><path class="cls-2" d="M1794.3,523.88c.29.83.71,2.07,1.11,3.19.22.63.43,1.22.61,1.68.69,1.83,1.43,3.65,2.16,5.46.65,1.59,1.32,3.18,2,4.77a1.51,1.51,0,0,1,.06.37" transform="translate(-1709.65 -517.26)"/><path class="cls-2" d="M1727.14,535.55c-1.43.24-3.42.66-4.84,1-1.26.26-2.52.55-3.78.8s-2.51.52-3.78.74-2.35.33-3.53.51c-.17,0-.87.14-1.14.22l-.07,0" transform="translate(-1709.65 -517.26)"/><path class="cls-2" d="M1729.86,527.33h0c-.13.35-.26.69-.37,1l-.28.91-1,3.42c-.07.23-.48,1.38-1,2.85-.64,1.83-1.45,4.15-2,5.76-.27.83-.49,1.46-.58,1.77l0,.15" transform="translate(-1709.65 -517.26)"/><path class="cls-2" d="M1754.94,552.24c.53,1.7,1,3.42,1.56,5.13.21.7.49,1.38.74,2.08.62,1.78,1.21,3.58,1.86,5.35.56,1.49,1.21,2.93,1.79,4.41.72,1.85,1.4,3.71,2.11,5.57" transform="translate(-1709.65 -517.26)"/><path class="cls-2" d="M1774.27,553.91c0,.84,0,1.69,0,2.53a1.24,1.24,0,0,1-.25.74c-.67.73-1.39,1.41-2.09,2.11a.47.47,0,0,1-.56.14l-.61-.17c-1-.28-2.11-.54-3.17-.84-1.51-.42-3-.87-4.52-1.29l-.91-.26c-.62-.17-1.25-.33-1.88-.48-.28-.06-.46,0-.56,0s-.11.31,0,.63c.39,1.06.79,2.11,1.18,3.16.62,1.65,1.25,3.3,1.86,5,.73,2,1.44,4,2.17,5.94.18.48.37,1,.55,1.43.09.22.16.44.24.68s.36.51.63.42c.57-.2,1.12-.48,1.67-.73l-5.92-15.82" transform="translate(-1709.65 -517.26)"/><path class="cls-2" d="M1820.6,543.62a4.89,4.89,0,0,1,.19,2.57,2.53,2.53,0,0,1-2.35,2.19,19.68,19.68,0,0,1-2.54-.37c-1.55-.27-3.11-.54-4.65-.87-1-.2-1.89-.51-2.85-.72h-.07l-.23,0" transform="translate(-1709.65 -517.26)"/><path class="cls-2" d="M1753.67,529.34a9.56,9.56,0,0,1,.27,1.15,1.13,1.13,0,0,1-.33,1c-.9.94-1.69,2-2.5,3l-.15.2a2.4,2.4,0,0,0-.19.29.91.91,0,0,0-.13.38c0,.27,4.52,12.52,4.64,12.8" transform="translate(-1709.65 -517.26)"/><path class="cls-2" d="M1825.35,542.94c-1,.09-2,.19-3,.32l-1.75.25c-1,.15-2,.32-3,.49-.79.14-1.57.38-2.35.55l-4.84,1.06c-.59.13-1.2.27-1.79.44a.4.4,0,0,0-.2.17l-.11.13" transform="translate(-1709.65 -517.26)"/><path class="cls-2" d="M1795.21,524c.43,1.13.86,2.27,1.3,3.41s.86,2.23,1.3,3.34q1.29,3.35,2.6,6.69c.2.52.4,1,.63,1.54a.48.48,0,0,0,.11.15c.08.09.19.16.25.15l.52-.14,1.77-.53a1.05,1.05,0,0,0,.25-.18" transform="translate(-1709.65 -517.26)"/><path class="cls-2" d="M1745.28,537.06l-6.13,1.36c-.63.15-1.24.35-1.86.49-.93.21-1.86.39-2.79.56a2.71,2.71,0,0,1-.62-.06" transform="translate(-1709.65 -517.26)"/><path class="cls-2" d="M1797.81,527.7a15.55,15.55,0,0,0,.38,1.8c.59,1.74,3.15,8.09,3.71,9.54" transform="translate(-1709.65 -517.26)"/><path class="cls-2" d="M1799.85,527.64c1.38,3.26,2.66,6.56,3.78,9.91a2.88,2.88,0,0,0,.13.31,1.45,1.45,0,0,0,.28.48c.15.13.34.06.77-.1a12.51,12.51,0,0,1,2.3-.72,5,5,0,0,1,1.6.22c1.1.22,2.19.44,3.28.69a2.17,2.17,0,0,1,.56.3" transform="translate(-1709.65 -517.26)"/><path class="cls-2" d="M1799.23,520.46c-.7.21-1.39.44-2.1.61a42.26,42.26,0,0,1-7.44.82c-2.23.15-4.45.4-6.68.62-.93.08-1.86.2-2.79.3l-5.46.62c-2,.21-3.92.39-5.88.63-1.47.17-2.93.39-4.4.61-1.28.19-2.56.41-3.84.63" transform="translate(-1709.65 -517.26)"/><path class="cls-2" d="M1745.78,538.73l-2.48.56-2.73.62-3.71.86c-.91.21-1.82.43-2.73.61a2.22,2.22,0,0,1-.62,0" transform="translate(-1709.65 -517.26)"/><path class="cls-2" d="M1776,534.14a1,1,0,0,1-.06.5c-.39,1-.84,2-1.23,3-.6,1.5-1.16,3-1.74,4.52-.24.62-1,2.31-1.21,2.93" transform="translate(-1709.65 -517.26)"/><path class="cls-2" d="M1759.79,528.47l4.5-.6,3.48-.46,4.58-.62,1.87-.24,3.64-.49,3.29-.43,7.29-1,5.86-.78.88-.12,6.64-.88,4.17-.56v-1.4c-.17.08-11.19,1.79-12.39,1.94-1.92.25-3.84.44-5.77.63-1.44.14-7,.83-8.3,1-1.87.21-27.58,3-29.29,3.3a13.31,13.31,0,0,1-2.08.2H1748a12.7,12.7,0,0,1-1.85-.15c-1-.15-1.9-.28-2.85-.44l-5.88-1-5-.77c-3.66-.55-8.06-1.21-8.85-1.34" transform="translate(-1709.65 -517.26)"/><path class="cls-2" d="M1735.47,528.13l.76.1.94.14,5.35.75,4.76.67.64.09.4,0a2.54,2.54,0,0,0,.48,0l.14,0,4.72-.64,1.4-.19,4.73-.63" transform="translate(-1709.65 -517.26)"/><path class="cls-2" d="M1727.91,527.06h0l.17,0,1.73.25,2.27.32,1.86.26,1.48.2" transform="translate(-1709.65 -517.26)"/><path class="cls-2" d="M1725.36,561l-1.28.33-4.32-1.46c.13-.55.21-1.12.38-1.67.6-1.94,1.26-3.87,1.84-5.82s1-3.75,1.56-5.6c.16-.56.35-1.1.55-1.65s.34-1.28.5-1.92" transform="translate(-1709.65 -517.26)"/><path class="cls-2" d="M1725.21,541.33c-1.17.26-3.65.87-4.83,1.11a.67.67,0,0,1-.24,0l-.13,0-4.71-1.73c-1.42-.51-2.87-.93-4.27-1.5a2.94,2.94,0,0,0-.94-.32c-.2,0-.18.32-.19,1a.64.64,0,0,0,.45.68l3.28,1.18,2.45.88h0l2.94,1,1.06.33,4.5-.86" transform="translate(-1709.65 -517.26)"/><path class="cls-2" d="M1753.15,534.33a1,1,0,0,1,.28.27,6.55,6.55,0,0,1,.44,1.29c.25.57.48,1.15.71,1.74.48,1.21.94,2.43,1.42,3.64.77,1.94,1.79,4.47,2.57,6.41" transform="translate(-1709.65 -517.26)"/><path class="cls-2" d="M1731,544.37a1.28,1.28,0,0,1,.49-.42,1.42,1.42,0,0,1,1-.2l.11,0c1.08.32,2.15.66,3.23,1,1.76.49,3.52.95,5.27,1.43l.34.1,3,.83,3.78,1a11.41,11.41,0,0,0,1.22.38" transform="translate(-1709.65 -517.26)"/><path class="cls-2" d="M1716,542.69a1.78,1.78,0,0,0,1.18,2c.81.3,1.61.63,2.42.92,1,.38,2.1.75,3.16,1.11a2.51,2.51,0,0,0,.62.07" transform="translate(-1709.65 -517.26)"/><path class="cls-2" d="M1726,537c-1.12.24-2.24.47-3.35.74-2.51.62-5,1.33-7.55,1.73" transform="translate(-1709.65 -517.26)"/><path class="cls-2" d="M1759.79,528.47h0c-1,1-4.19,4.32-5.35,5.48a5.47,5.47,0,0,1-1,.63" transform="translate(-1709.65 -517.26)"/><path class="cls-2" d="M1772.41,531.3l-.09.24c-.23.66-.44,1.33-.65,2-.1.34-.21.67-.31,1-.49,1.53-1.1,3-1.67,4.5l-.12.31c-.62,1.61-1.25,3.22-1.86,4.83-.13.34-.67,1.45-.78,1.8" transform="translate(-1709.65 -517.26)"/><path class="cls-2" d="M1773.22,553.72a20.52,20.52,0,0,1,.09,2.35,1.63,1.63,0,0,1-.53.86c-.54.58-1.12,1.11-1.66,1.69a2.68,2.68,0,0,0-.37.64,0,0,0,0,1,0,0" transform="translate(-1709.65 -517.26)"/><path class="cls-2" d="M1761.37,530.73c-1,1.09-2,2.1-3,3.18-.21.22-.4.44-.6.67-.7.8-1.37,1.62-2.08,2.4a3.74,3.74,0,0,1-.92.57" transform="translate(-1709.65 -517.26)"/><path class="cls-2" d="M1737.17,528.37c-.12.28-.5,1.51-1,3.16-.22.72-.46,1.53-.71,2.37-.53,1.81-1.11,3.79-1.6,5.5-.2.68-.38,1.31-.55,1.88-.39,1.32-.67,2.27-.74,2.47" transform="translate(-1709.65 -517.26)"/><path class="cls-2" d="M1748.81,530.06c.5,1.47,1,2.93,1.5,4.39a1.92,1.92,0,0,0,.36.5" transform="translate(-1709.65 -517.26)"/><path class="cls-2" d="M1744.06,549.66l4.92,1.21" transform="translate(-1709.65 -517.26)"/><path class="cls-2" d="M1781.45,529.69l-.48,0c-.86.06-2.21.18-2.8.15a2.86,2.86,0,0,1-.64-.11,3.39,3.39,0,0,1-.53-.2,11.29,11.29,0,0,1-1.12-.73,1.17,1.17,0,0,0-.49-.18,2.91,2.91,0,0,1-1.48-.47l-.21-.14a5.54,5.54,0,0,1-1.34-1.17" transform="translate(-1709.65 -517.26)"/><path class="cls-2" d="M1801.83,523a3.8,3.8,0,0,1-1.86,4.39l-.19.08a1.78,1.78,0,0,1-.67.16c-.43,0-.86,0-1.28-.1l-.77-.07a2.57,2.57,0,0,0-.55-.06" transform="translate(-1709.65 -517.26)"/><path class="cls-2" d="M1741.63,534.45l-5.54,1.28" transform="translate(-1709.65 -517.26)"/><path class="cls-2" d="M1736.24,531.54c.53.19,2.19.69,3.86,1.18s3.34,1,3.86,1.18" transform="translate(-1709.65 -517.26)"/><path class="cls-2" d="M1775.69,540.34c-.33,1-1.09,3.21-1.42,4.27" transform="translate(-1709.65 -517.26)"/><path class="cls-2" d="M1769.57,530.42c-1.18.33-2.34.72-3.52,1s-2.11.39-3.16.57c-.48.08-1,.13-1.43.19" transform="translate(-1709.65 -517.26)"/><path class="cls-2" d="M1781.15,525.63c0,.82,0,2.12-.07,2.94,0,.35-.08.7-.12,1.06" transform="translate(-1709.65 -517.26)"/><path class="cls-2" d="M1751.1,534.77l.78.35.18.08a3.48,3.48,0,0,0,.58-.5l.36-.47c.35-.48.68-1,1-1.45l1.27-2-.22-1.66" transform="translate(-1709.65 -517.26)"/><path class="cls-2" d="M1781.52,529.69h-.07a2.6,2.6,0,0,0-2.35,1.73c-.07.23-.16.46-.25.68" transform="translate(-1709.65 -517.26)"/><path class="cls-2" d="M1777.86,526.06c0,.91-.07,2.22-.13,3.13a1.68,1.68,0,0,1-.18.5" transform="translate(-1709.65 -517.26)"/><path class="cls-2" d="M1728.12,527.15a1.64,1.64,0,0,0,.93,2.1" transform="translate(-1709.65 -517.26)"/><path class="cls-2" d="M1765.72,553.1l-.18,1.67" transform="translate(-1709.65 -517.26)"/><path class="cls-2" d="M1748,528.2c0,.5,0,1-.07,1.49" transform="translate(-1709.65 -517.26)"/><path class="cls-2" d="M1761,552l-.18,1.49" transform="translate(-1709.65 -517.26)"/><path class="cls-2" d="M1764.29,527.87c-.16.14-.84.78-1.5,1.43s-1.29,1.26-1.42,1.43" transform="translate(-1709.65 -517.26)"/><path class="cls-2" d="M1759.59,556.26l-1.24-.37" transform="translate(-1709.65 -517.26)"/><path class="cls-2" d="M1774.27,526.9l-.31,1.18" transform="translate(-1709.65 -517.26)"/><polyline class="cls-2" points="90.35 30.58 90.35 30.58 94.08 29.81 95.5 29.52 96.25 29.37 98.14 28.98 98.69 28.87"/><polyline class="cls-2" points="99.43 43.7 100.32 42.93 95.54 29.72"/><line class="cls-2" x1="96.25" y1="29.37" x2="101.11" y2="42.92"/><path class="cls-2" d="M1732.24,525.85a3.09,3.09,0,0,0-.11,1.81" transform="translate(-1709.65 -517.26)"/><polyline class="cls-2" points="21.07 27.22 21.27 27.28 39.77 32.16"/><line class="cls-2" x1="22.12" y1="29.18" x2="29.66" y2="31.21"/><line class="cls-2" x1="22.12" y1="30.9" x2="26.63" y2="31.99"/><polyline class="cls-2" points="20.88 27.35 20.72 30.37 20.64 31.87 21.38 32.06 41.69 37.25"/><polyline class="cls-2" points="25.82 10.86 25.82 10.86 20.77 27.31 15.87 43.25 15.71 43.77"/><line class="cls-2" x1="14.43" y1="44.1" x2="24.33" y2="10.81"/><path class="cls-2" d="M1786.37,542.24l-12.1,2.37-2.5.49-4.83.94-8.37,1.64-2.39.47-.87.17-1.81.36-2,.39c.66.27,3.46,1.1,4.46,1.37" transform="translate(-1709.65 -517.26)"/><line class="cls-2" x1="87.83" y1="22.8" x2="76.72" y2="24.97"/><line class="cls-2" x1="41.99" y1="33.84" x2="41.83" y2="31.81"/><polyline class="cls-2" points="21.81 26.68 26.58 10.97 26.58 10.97"/><polyline class="cls-2" points="21.32 32.3 17.89 43.07 16.73 43.39 20.69 30.36"/><line class="cls-2" x1="16.73" y1="43.39" x2="15.87" y2="43.25"/><line class="cls-2" x1="38.02" y1="26.33" x2="34.76" y2="29.83"/><polyline class="cls-2" points="36.87 23.1 36.87 23.1 31.76 28.99"/><line class="cls-2" x1="10.49" y1="25.16" x2="10.43" y2="26.68"/><line class="cls-2" x1="25.82" y1="16.64" x2="30.42" y2="15.71"/><line class="cls-2" x1="43.81" y1="31.21" x2="37.63" y2="12.55"/><line class="cls-2" x1="85.56" y1="9.88" x2="78.79" y2="7.39"/><line class="cls-2" x1="48.11" y1="17.32" x2="62.67" y2="14.28"/><polyline class="cls-2" points="46.02 19.72 47.12 19.48 62.02 16.27"/><line class="cls-2" x1="59.92" y1="22.08" x2="47.12" y2="19.48"/><line class="cls-2" x1="53.18" y1="12.08" x2="58.95" y2="10.97"/><path class="cls-2" d="M1778.37,536.27c-.66-.12-1.57-.31-1.81-.31a.57.57,0,0,0-.42.3c-.41,1.08-.81,2.18-1.18,3.28-.11.32.28.62.75.7h0c1.55.25,3.1.5,4.64.78,1.06.18,4.91,1,6,1.21h0" transform="translate(-1709.65 -517.26)"/><path class="cls-2" d="M1767.77,527.4h0l.91.72,3.83,3,3.58,2.85,2.93,2.34-.63-.1" transform="translate(-1709.65 -517.26)"/><line class="cls-2" x1="46.51" y1="30.8" x2="42.2" y2="17.94"/><polyline class="cls-2" points="76.6 20.56 68.74 19 68.72 19 68.61 18.98"/></svg>