<svg id="Capa_1" data-name="Capa 1" xmlns="http://www.w3.org/2000/svg" viewBox="0 0 115.69 69.57"><defs><style>.cls-1{fill:#fff;}.cls-2{fill:none;stroke:#000;stroke-linecap:round;stroke-linejoin:round;stroke-width:0.5px;}</style></defs><title>acampar-carpa</title><path class="cls-1" d="M1804.45,570.46c-6-21.46-13.83-45.72-23.65-55.27" transform="translate(-1709.83 -511.42)"/><path class="cls-1" d="M1822.13,556.85c-11.8-29.65-29.17-44.09-46.82-45.18-6,.78-11.52,1.38-17.61,3.08-16.16,4.51-30.11,22.21-40.33,45.5" transform="translate(-1709.83 -511.42)"/><path class="cls-1" d="M1806.17,575.54a.78.78,0,0,1-.54.24.72.72,0,0,1-.56-.46h0c.2-3.77-44.92-6.21-58.52-7.35l-.18,0c-3.58-.33-3,9.91-11,5.26-5.67-3.37-10.31-7.45-15.94-10.5-1.11-.8-2.91-1.12-2.19-2.3,2.57-1.13,44.62-48.74,47.87-36.45" transform="translate(-1709.83 -511.42)"/><path class="cls-1" d="M1822.13,556.85c-15.68-25.52-16.28-27.48-32.06-41.1" transform="translate(-1709.83 -511.42)"/><path class="cls-1" d="M1746.69,531.94c12.21.47,9.36,3.8,6.71,9.53-5.19,11-10.66,21.3-16,32.58" transform="translate(-1709.83 -511.42)"/><path class="cls-1" d="M1793.83,555.16c-7.54-11.81-18.91-20.68-28.71-31.2-6.36,13.69-13.44,31.1-20.82,45.27" transform="translate(-1709.83 -511.42)"/><path class="cls-1" d="M1803.15,570.39c-3,3.69-8.73-12.3-12.2-15.86-8.23-9.65-18.76-18.45-26.58-28.93" transform="translate(-1709.83 -511.42)"/><path class="cls-1" d="M1762.94,523.6c-7.38,16.95-17,33.3-24.43,50.55" transform="translate(-1709.83 -511.42)"/><path class="cls-1" d="M1780.8,515.19c-4,2.17-5.4,3.47-17.9,6.75" transform="translate(-1709.83 -511.42)"/><path class="cls-1" d="M1823.7,558.76c-.37-8-17.09,11.91-19.48,11.73-.85-.29-4.59-.28-1.85-2.92" transform="translate(-1709.83 -511.42)"/><path class="cls-1" d="M1823.51,558.84c-6-1-16.77,14.4-18.64,11.83" transform="translate(-1709.83 -511.42)"/><path class="cls-1" d="M1790.47,550.58c-5.42-2.55-20.7-20.06-25.75-25.76" transform="translate(-1709.83 -511.42)"/><path class="cls-1" d="M1787.41,550.66c-.1,3.55-.87,7.72-4.85,10.84,0,0-3.21,1.11-33.9-1" transform="translate(-1709.83 -511.42)"/><path class="cls-1" d="M1803.66,570.16c-2.61-6.07-5.49-9.9-9.83-15" transform="translate(-1709.83 -511.42)"/><path class="cls-1" d="M1762,521.85c-1.15-2.36-3.75-2.37-4.34-7.1" transform="translate(-1709.83 -511.42)"/><path class="cls-1" d="M1801.74,568.28c-1.2-2.51-4.5-5.67-4.64-9.14" transform="translate(-1709.83 -511.42)"/><path class="cls-1" d="M1800,572.32c-1.54-.64-3.83-2-5.75-2.93" transform="translate(-1709.83 -511.42)"/><path class="cls-1" d="M1714.92,564.3l-4.84,1.14.71,1.11,3.79-1.37c1-1.1.74-4,2.44-4.42" transform="translate(-1709.83 -511.42)"/><path class="cls-1" d="M1802.21,572.94c-17.8-5.25-37.56-5.57-56.4-6.66" transform="translate(-1709.83 -511.42)"/><path class="cls-1" d="M1789.33,565.69c-1.57-.12-3.53-.41-5.79-.66" transform="translate(-1709.83 -511.42)"/><path class="cls-1" d="M1762.83,522.12c-1.57,3.9-6.14,12.16-6.14,12.16-1.06-3-6.17-3.24-9-3.21" transform="translate(-1709.83 -511.42)"/><path class="cls-1" d="M1717.17,561.23c-.55,1-.46,4-2.25,4,3.37-.09,5.84.25,9,.17" transform="translate(-1709.83 -511.42)"/><path class="cls-1" d="M1737.77,576.19" transform="translate(-1709.83 -511.42)"/><path class="cls-1" d="M1796.93,564.83a125.76,125.76,0,0,1-14.37-1.29" transform="translate(-1709.83 -511.42)"/><path class="cls-1" d="M1782.17,563.93c-4.42-.8-19.23-1.37-21.42-1.45,0,0-8.61-.09-12.94-.25" transform="translate(-1709.83 -511.42)"/><path class="cls-1" d="M1797.1,559.14c-1.38.26-2-.86-1.71-2.13" transform="translate(-1709.83 -511.42)"/><path class="cls-1" d="M1718.59,562.37a21.31,21.31,0,0,0-1.77,2.58" transform="translate(-1709.83 -511.42)"/><path class="cls-1" d="M1738.24,574.35c.25,1-.7.7-1.44,1.36.27.84-.31,1.77-.75,3" transform="translate(-1709.83 -511.42)"/><path class="cls-1" d="M1825.27,557.55c-.52-.48-1-1.55-2.31-.51" transform="translate(-1709.83 -511.42)"/><path class="cls-1" d="M1806.2,570.76c.72,1.43-.06,3.27-1.41.38" transform="translate(-1709.83 -511.42)"/><path class="cls-1" d="M1753.7,565.69c-2-.16-5-.25-7.43-.33" transform="translate(-1709.83 -511.42)"/><path class="cls-1" d="M1738.24,576.15c-.14.45,0,.83.14,2.93l-.92.18" transform="translate(-1709.83 -511.42)"/><path class="cls-1" d="M1805.1,575.14c.49-1.5,2.59.1,1.14-2.28" transform="translate(-1709.83 -511.42)"/><path class="cls-1" d="M1716.28,565.19c-.28,0-.53.35-1.34.23" transform="translate(-1709.83 -511.42)"/><path class="cls-1" d="M1804.56,572.19l.12-1.52" transform="translate(-1709.83 -511.42)"/><path class="cls-1" d="M1782.42,561.54c.65,1.31-.31,1.75-.37,3.88" transform="translate(-1709.83 -511.42)"/><path class="cls-1" d="M1736,578.77c-.34.78-.4.94-.55,1.25,0,0,0,.86,1.7.69l.47-4.56" transform="translate(-1709.83 -511.42)"/><path class="cls-1" d="M1717.48,563.87c.69,0,2.63.53,3.53-.09" transform="translate(-1709.83 -511.42)"/><path class="cls-1" d="M1795.33,557a1.36,1.36,0,0,1-1.62-1.73" transform="translate(-1709.83 -511.42)"/><path class="cls-1" d="M1737.14,575.25c0-.26,0-.84,0-1.1" transform="translate(-1709.83 -511.42)"/><path class="cls-1" d="M1824.45,558.53c-.43.28-.35-.17-1.18.7" transform="translate(-1709.83 -511.42)"/><path class="cls-1" d="M1738.12,575.29c.66.43.32,1-1.13.82" transform="translate(-1709.83 -511.42)"/><path class="cls-1" d="M1807.11,572.49c-.09.17-.28.28-.75.2" transform="translate(-1709.83 -511.42)"/><path class="cls-2" d="M1804.45,570.46c-6-21.46-13.83-45.72-23.65-55.27" transform="translate(-1709.83 -511.42)"/><path class="cls-2" d="M1822.13,556.85c-11.8-29.65-29.17-44.09-46.82-45.18-6,.78-11.52,1.38-17.61,3.08-16.16,4.51-30.11,22.21-40.33,45.5" transform="translate(-1709.83 -511.42)"/><path class="cls-2" d="M1806.17,575.54a.78.78,0,0,1-.54.24.72.72,0,0,1-.56-.46h0c.2-3.77-44.92-6.21-58.52-7.35l-.18,0c-3.58-.33-3,9.91-11,5.26-5.67-3.37-10.31-7.45-15.94-10.5-1.11-.8-2.91-1.12-2.19-2.3,2.57-1.13,44.62-48.74,47.87-36.45" transform="translate(-1709.83 -511.42)"/><path class="cls-2" d="M1822.13,556.85c-15.68-25.52-16.28-27.48-32.06-41.1" transform="translate(-1709.83 -511.42)"/><path class="cls-2" d="M1746.69,531.94c12.21.47,9.36,3.8,6.71,9.53-5.19,11-10.66,21.3-16,32.58" transform="translate(-1709.83 -511.42)"/><path class="cls-2" d="M1793.83,555.16c-7.54-11.81-18.91-20.68-28.71-31.2-6.36,13.69-13.44,31.1-20.82,45.27" transform="translate(-1709.83 -511.42)"/><path class="cls-2" d="M1803.15,570.39c-3,3.69-8.73-12.3-12.2-15.86-8.23-9.65-18.76-18.45-26.58-28.93" transform="translate(-1709.83 -511.42)"/><path class="cls-2" d="M1762.94,523.6c-7.38,16.95-17,33.3-24.43,50.55" transform="translate(-1709.83 -511.42)"/><path class="cls-2" d="M1780.8,515.19c-4,2.17-5.4,3.47-17.9,6.75" transform="translate(-1709.83 -511.42)"/><path class="cls-2" d="M1823.7,558.76c-.37-8-17.09,11.91-19.48,11.73-.85-.29-4.59-.28-1.85-2.92" transform="translate(-1709.83 -511.42)"/><path class="cls-2" d="M1823.51,558.84c-6-1-16.77,14.4-18.64,11.83" transform="translate(-1709.83 -511.42)"/><path class="cls-2" d="M1790.47,550.58c-5.42-2.55-20.7-20.06-25.75-25.76" transform="translate(-1709.83 -511.42)"/><path class="cls-2" d="M1787.41,550.66c-.1,3.55-.87,7.72-4.85,10.84,0,0-3.21,1.11-33.9-1" transform="translate(-1709.83 -511.42)"/><path class="cls-2" d="M1803.66,570.16c-2.61-6.07-5.49-9.9-9.83-15" transform="translate(-1709.83 -511.42)"/><path class="cls-2" d="M1762,521.85c-1.15-2.36-3.75-2.37-4.34-7.1" transform="translate(-1709.83 -511.42)"/><path class="cls-2" d="M1801.74,568.28c-1.2-2.51-4.5-5.67-4.64-9.14" transform="translate(-1709.83 -511.42)"/><path class="cls-2" d="M1800,572.32c-1.54-.64-3.83-2-5.75-2.93" transform="translate(-1709.83 -511.42)"/><path class="cls-2" d="M1714.92,564.3l-4.84,1.14.71,1.11,3.79-1.37c1-1.1.74-4,2.44-4.42" transform="translate(-1709.83 -511.42)"/><path class="cls-2" d="M1802.21,572.94c-17.8-5.25-37.56-5.57-56.4-6.66" transform="translate(-1709.83 -511.42)"/><path class="cls-2" d="M1789.33,565.69c-1.57-.12-3.53-.41-5.79-.66" transform="translate(-1709.83 -511.42)"/><path class="cls-2" d="M1762.83,522.12c-1.57,3.9-6.14,12.16-6.14,12.16-1.06-3-6.17-3.24-9-3.21" transform="translate(-1709.83 -511.42)"/><path class="cls-2" d="M1717.17,561.23c-.55,1-.46,4-2.25,4,3.37-.09,5.84.25,9,.17" transform="translate(-1709.83 -511.42)"/><path class="cls-2" d="M1737.77,576.19" transform="translate(-1709.83 -511.42)"/><path class="cls-2" d="M1796.93,564.83a125.76,125.76,0,0,1-14.37-1.29" transform="translate(-1709.83 -511.42)"/><path class="cls-2" d="M1782.17,563.93c-4.42-.8-19.23-1.37-21.42-1.45,0,0-8.61-.09-12.94-.25" transform="translate(-1709.83 -511.42)"/><path class="cls-2" d="M1797.1,559.14c-1.38.26-2-.86-1.71-2.13" transform="translate(-1709.83 -511.42)"/><path class="cls-2" d="M1718.59,562.37a21.31,21.31,0,0,0-1.77,2.58" transform="translate(-1709.83 -511.42)"/><path class="cls-2" d="M1738.24,574.35c.25,1-.7.7-1.44,1.36.27.84-.31,1.77-.75,3" transform="translate(-1709.83 -511.42)"/><path class="cls-2" d="M1825.27,557.55c-.52-.48-1-1.55-2.31-.51" transform="translate(-1709.83 -511.42)"/><path class="cls-2" d="M1806.2,570.76c.72,1.43-.06,3.27-1.41.38" transform="translate(-1709.83 -511.42)"/><path class="cls-2" d="M1753.7,565.69c-2-.16-5-.25-7.43-.33" transform="translate(-1709.83 -511.42)"/><path class="cls-2" d="M1738.24,576.15c-.14.45,0,.83.14,2.93l-.92.18" transform="translate(-1709.83 -511.42)"/><path class="cls-2" d="M1805.1,575.14c.49-1.5,2.59.1,1.14-2.28" transform="translate(-1709.83 -511.42)"/><path class="cls-2" d="M1716.28,565.19c-.28,0-.53.35-1.34.23" transform="translate(-1709.83 -511.42)"/><path class="cls-2" d="M1804.56,572.19l.12-1.52" transform="translate(-1709.83 -511.42)"/><path class="cls-2" d="M1782.42,561.54c.65,1.31-.31,1.75-.37,3.88" transform="translate(-1709.83 -511.42)"/><path class="cls-2" d="M1736,578.77c-.34.78-.4.94-.55,1.25,0,0,0,.86,1.7.69l.47-4.56" transform="translate(-1709.83 -511.42)"/><path class="cls-2" d="M1717.48,563.87c.69,0,2.63.53,3.53-.09" transform="translate(-1709.83 -511.42)"/><path class="cls-2" d="M1795.33,557a1.36,1.36,0,0,1-1.62-1.73" transform="translate(-1709.83 -511.42)"/><path class="cls-2" d="M1737.14,575.25c0-.26,0-.84,0-1.1" transform="translate(-1709.83 -511.42)"/><path class="cls-2" d="M1824.45,558.53c-.43.28-.35-.17-1.18.7" transform="translate(-1709.83 -511.42)"/><path class="cls-2" d="M1738.12,575.29c.66.43.32,1-1.13.82" transform="translate(-1709.83 -511.42)"/><path class="cls-2" d="M1807.11,572.49c-.09.17-.28.28-.75.2" transform="translate(-1709.83 -511.42)"/></svg>