<svg id="Capa_1" data-name="Capa 1" xmlns="http://www.w3.org/2000/svg" viewBox="0 0 181.56 251.32"><defs><style>.cls-1{fill:#fff;}.cls-2{fill:none;stroke:#000;stroke-linecap:round;stroke-linejoin:round;stroke-width:0.5px;}.cls-3{fill:#e4e4e4;}</style></defs><title>areas-mano3</title><path class="cls-1" d="M1485.58,560.86l1.81-7.62,3.25-8.92,4.91-10,4.85-7.82,8.65-11.24,6.33-6.82,2.08-2,1.29-.46,1.67.53,2.67,1.79,2.36.81,4,.4,4.53-.21,2.92-3.55-.9-1.29-.39-1.54.5-1.46,3.15-2.72,1.89-1.46,1.69-2.27,5.1-6.82-2.71-4.19-4.15-7-1.2-3.4.21-3.15,1.67-2.56,3.73-3.12,1.33-1.61,4.21-4.39.71-1.22L1553,455l2.67-4.27,4.3-5.57,3.18-5.64,1.19-3.66,1.59-7,.44-3.72-.23-10.62-.33-12.25-.58-15.54-1.41-21.55-.93-6.4,39.3-17.05,0,3.32.13,4.87-.55,7.72-.74,7.45-1,7.77-1,6.77-1.79,10.77L1595,402.09l-2.12,10.35-2.09,9.34-1.89,7.58-1.38,4.28-.17.51.3,2.14,0,2.58-.39,3.82-1.36,3.81-.23,1.42-1,3.73-1.14,2.52,2.13,1.34,1.83,1.46.78,1.66v1.51l-.61,1.6-3.15,4-1.73,2.19.79,2,.35,1.84-.19,1.71-.59,1.15-1.26.71-1.52.59-.67-.16.33.41L1583,478l2.79,1.65,1.13.84.86,1.05.59,1.29.19,1.69-.25,1.23s-1,.57-1.07.57-.8.11-.92.11h-2.71l-5.61-1.58-2.45-.49-5.29-1.11,1.73,2,4.3,2.57,2.52,1.36,1.83,1.46,1.36,1.77.78,1.89-.47,2-1.2,1.24-1.3.53-3.87-.29,1.3,1.28.48,1.48-.63,1.86-1.09,1-3,.86-4.9-.12-1-.14-1.07,4.95-1.47,3.18-1.4,1.28-1.59.23-1.64-1.24-1.37-2.12-1.17-3.36-.6-3,.18-5.47-2-1.49-2.18,3-1.1,1.5L1550,505.8l-1.1,4-.9,1.2-1.37.49-2.26-.49.1,2.76.47,2.41,1.27,3,2.67,3.61.87,1.47.33,1.24-.16,2-2,3.38-4.57,5.36L1533.15,546l-9.75,8.73L1521,557l-4.34,3.15-3.19,2-3.35,1.34-1.15.26.71-1.78,1.38-2.29,1.26-3.13,1.07-2,.63-1.74-.49-2.7-.27-1.42.5-1.16-.37-2.32-.87-1.18-1.29-.92-1.63-1.27-1.43-1.27-2.38.26-6.08,2.15-3.58,1.62-.47.55-.49.91-.17,2.18-.36,1.07-.55.76-1.55.75-1,1-.53,1.26-.79,1.34-1,1.09-.93,1.17-1.48,2.48Z" transform="translate(-1420.83 -341.75)"/><path class="cls-2" d="M1566.53,443.55s-.38-62.36-3.34-83.22c0-.21-.06-.43-.09-.63" transform="translate(-1420.83 -341.75)"/><path class="cls-2" d="M1583.42,454.17a20.85,20.85,0,0,0,2.27-7.38" transform="translate(-1420.83 -341.75)"/><path class="cls-3" d="M1554.61,571c3,2.9,2,3.45-.76,6.07a2.49,2.49,0,0,0-.74,1.54h0a2.34,2.34,0,0,0,.73,2c1.82,1.72,5.19,2.36.32,6.3a37.63,37.63,0,0,1-10.69,3.74h0c-10.72-2.45-18.39-13.05-30.3-15.41-2.83-.56-3.84-4.14-6-5.91l.44,0c.93-1.64.87-3.64,1.33-5.45h0c4.67-.84,8-3.95,11.36-6.3,2.76-2,5.53-3.39,9.09-2.7,6.65.82,12.83,2.16,18.61,4.93a5,5,0,0,1,.61.33h0a6.4,6.4,0,0,1,2.64,3.38c.7,2,1.86,2.44,2.63,3.49C1554.41,567.67,1554.76,568.75,1554.61,571Z" transform="translate(-1420.83 -341.75)"/><path class="cls-3" d="M1465.35,580.08c-.56,1-5.22,2.8-10.06,4.62-5,1.9-10.23,3.81-11.23,4.87-1.94-.18-3.9-.3-5.87-.32a3.52,3.52,0,0,1-2.33-.85c-1.79-1.57-3.63-2-5.62-2.87a1.93,1.93,0,0,1-1.06-1.27,5,5,0,0,0-3.16-3.81l0,0a9.23,9.23,0,0,0-.48-2l2.5-.16a16.76,16.76,0,0,0-1.86-7.06l-.65-.11,1.32-.82.11-.08c-1.94-2.66-2.68-2.93,5.27-7.14l.37,0c.14-2.13,1.64-3.88,6.12-5.56,5-1.18,9.07-4.61,13.6-3.41a4.51,4.51,0,0,0,.44.22,1,1,0,0,1,.21.08c3.46,1.29,6.91-2.48,10-2.84a85.81,85.81,0,0,1,25-.7l.16,0a84,84,0,0,0-2.35,8.42c0,.11-.3,1.44-.33,1.57l.06,0c-5.75,7.34-16.15,13.53-20.09,19.23Z" transform="translate(-1420.83 -341.75)"/><path class="cls-3" d="M1426.21,571.17a16.76,16.76,0,0,1,1.86,7.06l-2.5.16a6.22,6.22,0,0,0-2.64-3.13c-1.58-1-2.24-1.13,2.63-4.2Z" transform="translate(-1420.83 -341.75)"/><path class="cls-2" d="M1533.63,509.24c-13.89,1.74-11.94-5.12-16.22-2.77-12.65,12.2-23.56,27.38-29.26,44.41a84,84,0,0,0-2.35,8.42c0,.11-.3,1.44-.33,1.57" transform="translate(-1420.83 -341.75)"/><path class="cls-2" d="M1507.57,569.23c.93-1.64.87-3.64,1.33-5.45a6.35,6.35,0,0,1,.9-2,14.45,14.45,0,0,0,2-4.15,13.55,13.55,0,0,1,1.19-2.38,5.88,5.88,0,0,0,.51-4.84,2.6,2.6,0,0,1,0-2,4,4,0,0,0-1.73-4.84c-4.77-2.91-.86-5.06-15,.65-2.62,1.36-.81,3.94-2.7,5.92-3.76,1.36-2,2.68-4.57,5.12a9.69,9.69,0,0,0-1.76,2.36,22.28,22.28,0,0,1-2.19,3.31c-5.75,7.34-16.15,13.53-20.09,19.23a10.1,10.1,0,0,0-1.06,1.86" transform="translate(-1420.83 -341.75)"/><path class="cls-2" d="M1520.26,557.47c48.09-42,23.38-27.26,24.11-46.62-2.65-1.94-5-3.4-7.22-4.9" transform="translate(-1420.83 -341.75)"/><path class="cls-2" d="M1543.46,590.59c-22.68,4.83-60.49.1-66.74,1.42" transform="translate(-1420.83 -341.75)"/><path class="cls-2" d="M1553.11,578.58a2.34,2.34,0,0,0,.73,2c1.82,1.72,5.19,2.36.32,6.3a37.63,37.63,0,0,1-10.69,3.74" transform="translate(-1420.83 -341.75)"/><path class="cls-2" d="M1548.58,560.05a6.4,6.4,0,0,1,2.64,3.38c.7,2,1.86,2.44,2.63,3.49.56.75.91,1.83.76,4,3,2.9,2,3.45-.76,6.07a2.49,2.49,0,0,0-.74,1.54" transform="translate(-1420.83 -341.75)"/><path class="cls-2" d="M1508.91,563.78c4.67-.84,8-3.95,11.36-6.3,2.76-2,5.53-3.39,9.09-2.7,6.65.82,12.83,2.16,18.61,4.93a5,5,0,0,1,.61.33" transform="translate(-1420.83 -341.75)"/><path class="cls-2" d="M1452.79,554.29a4.51,4.51,0,0,1-.44-.22c-4.53-1.2-8.65,2.23-13.6,3.41-4.48,1.68-6,3.43-6.12,5.56-.19,2.7,1.79,6,2.66,10.56" transform="translate(-1420.83 -341.75)"/><path class="cls-2" d="M1488,550.83a85.81,85.81,0,0,0-25,.7c-3.13.36-6.58,4.13-10,2.84" transform="translate(-1420.83 -341.75)"/><path class="cls-2" d="M1505.39,568.39a4.41,4.41,0,0,1,1.74.88c2.19,1.77,3.2,5.35,6,5.91,11.91,2.36,19.58,13,30.3,15.41h0" transform="translate(-1420.83 -341.75)"/><path class="cls-2" d="M1422.86,575.37c-.59.62-1.19,1.23-1.78,1.87,1.58,2.17,3.39,2.55,4.94,3.21a5,5,0,0,1,3.16,3.81,1.93,1.93,0,0,0,1.06,1.27c2,.91,3.83,1.3,5.62,2.87a3.52,3.52,0,0,0,2.33.85c2,0,3.93.14,5.87.32,10.8,1,21.27,3.82,32.66,2.44" transform="translate(-1420.83 -341.75)"/><path class="cls-2" d="M1458.28,579.52c5.65-.46,7.47-.18,7.07.56-.56,1-5.22,2.8-10.06,4.62-5,1.9-10.23,3.81-11.23,4.87" transform="translate(-1420.83 -341.75)"/><path class="cls-2" d="M1526.73,519.65a57.25,57.25,0,0,1,7-10.3c1-1.25,2.1-2.42,3.17-3.53-4-4.55,2-6.2,4.62-8.93l6.44-8.69" transform="translate(-1420.83 -341.75)"/><path class="cls-2" d="M1432.26,563c-8,4.21-7.21,4.48-5.27,7.14a15.6,15.6,0,0,1,3.09,7.65" transform="translate(-1420.83 -341.75)"/><path class="cls-2" d="M1553.86,566.91h0c-2,2.13-2.15,5.65-3.6,8.64" transform="translate(-1420.83 -341.75)"/><path class="cls-2" d="M1544.47,511c5,1.59,4.45-2,5.34-4.63l1.72-4.84,3.39-4.61" transform="translate(-1420.83 -341.75)"/><path class="cls-2" d="M1426.21,571.17a16.76,16.76,0,0,1,1.86,7.06" transform="translate(-1420.83 -341.75)"/><path class="cls-2" d="M1553.19,578.33a1.69,1.69,0,0,1-.08.24h0c-.89,2.57-2.74,4.51-4.37,6.6" transform="translate(-1420.83 -341.75)"/><path class="cls-2" d="M1459.92,555c.55,3.83,1.92,8,1.09,12.44" transform="translate(-1420.83 -341.75)"/><path class="cls-2" d="M1477.32,552.43c-.16,2.14-.6,5.2.5,7.9" transform="translate(-1420.83 -341.75)"/><path class="cls-2" d="M1426.88,570.24l-1.32.82c-4.87,3.07-4.21,3.16-2.63,4.2a6.22,6.22,0,0,1,2.64,3.13,9.23,9.23,0,0,1,.48,2" transform="translate(-1420.83 -341.75)"/><path class="cls-2" d="M1455.29,584.7a8.26,8.26,0,0,0,4,.17" transform="translate(-1420.83 -341.75)"/><path class="cls-2" d="M1514.26,579s4.08,1.35,4.71,2.36" transform="translate(-1420.83 -341.75)"/><path class="cls-2" d="M1470.2,571.17s-9,1.07-11.7,3.07" transform="translate(-1420.83 -341.75)"/><path class="cls-2" d="M1447.37,576.66s-7.58,2.08-10.23,5.35" transform="translate(-1420.83 -341.75)"/><path class="cls-2" d="M1455.11,567.76s1.22-11.88-2.11-13.39a1,1,0,0,0-.21-.08" transform="translate(-1420.83 -341.75)"/><path class="cls-2" d="M1548.58,560h0c0,.18-2.67,6.13-2,10" transform="translate(-1420.83 -341.75)"/><line class="cls-2" x1="133.78" y1="229.21" x2="133.42" y2="232.11"/><path class="cls-2" d="M1557,498.84" transform="translate(-1420.83 -341.75)"/><path class="cls-2" d="M1552.61,458.08c-1.83.43-5.21,4-6.86,6.49-3.71,2.37-7.53,5.91-5.32,10.85,3.77,8.4,14,22.37,16.47,23-1.63,13.12,7.55,23.71,10.14,5.52" transform="translate(-1420.83 -341.75)"/><path class="cls-2" d="M1550.92,458.94c4-9.21,11.33-14.57,13.36-23.06,0,0,1.3-4.78,2-9.47" transform="translate(-1420.83 -341.75)"/><path class="cls-2" d="M1565.43,457.9c11.73,18.41,7.34,13.88,20.52,21.82a5.35,5.35,0,0,1,2.6,4c.5,4.93-7.25,2-10.69,1-2.87-1-6.18-.43-8.77-2.44-4.17-3.92-6.15-9.58-9.29-14.72" transform="translate(-1420.83 -341.75)"/><path class="cls-2" d="M1569.9,482.87c2.38,3.67,6.53,4.61,9.23,6.46,6.2,4.28,3.95,11.12-4.31,7.84" transform="translate(-1420.83 -341.75)"/><path class="cls-2" d="M1550.57,474.61c12.5,17.67,10.13,17.19,24.25,22.56" transform="translate(-1420.83 -341.75)"/><path class="cls-2" d="M1575,497.47" transform="translate(-1420.83 -341.75)"/><path class="cls-2" d="M1575.28,497.34s4.2,2,1.58,5.34c-2.09,2.63-9.94,1.17-9.94,1.17l-10-5.45" transform="translate(-1420.83 -341.75)"/><path class="cls-2" d="M1561.74,452.51c-3.2,0-4.9,2.24-6.6,4.47" transform="translate(-1420.83 -341.75)"/><path class="cls-2" d="M1579.66,476c9.77-1.44-.54-13.09-2.25-19.05-.56-1.32,12.5-7.26,9.91-23.18,1.41-.1,16.21-65.63,14.72-89.92" transform="translate(-1420.83 -341.75)"/><path class="cls-2" d="M1545.78,464.52c.25,1.93,1.9,4.65,4.21,7.32" transform="translate(-1420.83 -341.75)"/><path class="cls-2" d="M1579.66,469.41c-.46,1.63-1.74,2.73-3.19,4.07" transform="translate(-1420.83 -341.75)"/><path class="cls-2" d="M1576.86,502c-.31-.56-1.76-.94-1.76-.94-2-.32-3.89-.45-5.66.72a5.43,5.43,0,0,1,.15,2.08" transform="translate(-1420.83 -341.75)"/><path class="cls-2" d="M1588.47,483.2c-1.44-.46-3.79-.67-4.75,1l-.28,1.94" transform="translate(-1420.83 -341.75)"/><path class="cls-2" d="M1565.2,451.41c1-2.72,2.36-3.69,4.56-3.25" transform="translate(-1420.83 -341.75)"/><path class="cls-2" d="M1575.74,497.5a5.45,5.45,0,0,0,.61-2.31,1.39,1.39,0,0,1,.58-1c.88-.61,1.79-1.2,3.92-.18,0,0,1.22.53,1,2.69" transform="translate(-1420.83 -341.75)"/><path class="cls-2" d="M1563.86,488l-2.5,1.68" transform="translate(-1420.83 -341.75)"/><path class="cls-2" d="M1574.08,476.54c-.23,1.95-1.13,3-2.77,3.38" transform="translate(-1420.83 -341.75)"/><path class="cls-2" d="M1582.72,467.92l4.68-6.13a3.88,3.88,0,0,0-.15-5,28,28,0,0,0-6-3.79" transform="translate(-1420.83 -341.75)"/></svg>