<svg id="Capa_1" data-name="Capa 1" xmlns="http://www.w3.org/2000/svg" viewBox="0 0 104.08 72.28"><defs><style>.cls-1{fill:#59bee9;}.cls-2,.cls-4,.cls-5,.cls-6{fill:#fff;}.cls-3{fill:none;}.cls-3,.cls-4,.cls-5,.cls-6{stroke:#000;stroke-linecap:round;stroke-linejoin:round;}.cls-3,.cls-4{stroke-width:0.5px;}.cls-5{stroke-width:0.5px;}.cls-6{stroke-width:0.5px;}</style></defs><title>circulo-rutas10</title><circle class="cls-1" cx="67.8" cy="36.2" r="36.08"/><path class="cls-2" d="M157.55,58.28v.26a36,36,0,0,1-14.28,28.74,5.17,5.17,0,0,1-.71.52h0c-.72.52-1.46,1-2.22,1.49l-4.22-.41a.84.84,0,0,1-.4-.17,1.59,1.59,0,0,1-.34-.39,2.44,2.44,0,0,1-.3-1.21V85.68h-.57l-.18,1.38a1.54,1.54,0,0,1-.14.52,1.13,1.13,0,0,1-.23.4.81.81,0,0,1-.3.25.7.7,0,0,1-.35.06l-5.39-2.23a1,1,0,0,1-.38-.3,2,2,0,0,1-.27-.47,2.93,2.93,0,0,1-.15-.6,3.53,3.53,0,0,1,0-.65l.18-1.39-.18-.08-.13-.08-.13-.08-.13-.1-.36,1.25a1.11,1.11,0,0,1-.16.39.77.77,0,0,1-.22.29.68.68,0,0,1-.26.18.66.66,0,0,1-.28,0h-.33l-.1-.07-4.74-3.81a2.08,2.08,0,0,1-.32-.4,2.58,2.58,0,0,1-.2-.55,4.2,4.2,0,0,1-.07-.62,2.28,2.28,0,0,1,.09-.63l.34-1.28-.11-.12-.12-.13-.12-.11-.1-.16-.53,1.12a1,1,0,0,1-.16.28.61.61,0,0,1-.2.19.94.94,0,0,1-.22.12.81.81,0,0,1-.22,0h-.17l-.15-.07-.15-.12-.13-.15-4.06-5.2a2.12,2.12,0,0,1-.27-.49,3,3,0,0,1-.13-.59,3.21,3.21,0,0,1,0-.62,2.21,2.21,0,0,1,.17-.57l.5-1.13-.1-.16-.1-.15-.07-.19a.54.54,0,0,0-.1-.16l-.63.93-.15.17-.17.11a.28.28,0,0,1-.17.07h-.37a.76.76,0,0,1-.19-.12.77.77,0,0,1-.18-.18l-.16-.24L108.18,63a5.31,5.31,0,0,1-.2-.56,3.21,3.21,0,0,1,0-.62,2.9,2.9,0,0,1,.09-.59,2.34,2.34,0,0,1,.23-.51l.63-.91-.08-.18-.08-.18a.31.31,0,0,0-.07-.18,1.42,1.42,0,0,0-.08-.18l-.73.67-.12.09-.12.06h-.24a.68.68,0,0,1-.48-.24l-.25-.22c-.06-.12-.11-.23-.16-.35l-2.4-7.25a3.14,3.14,0,0,1-.12-1.22,5.7,5.7,0,0,1,.16-.55,1.6,1.6,0,0,1,.28-.4l.73-.64a.83.83,0,0,0-.06-.21.61.61,0,0,0,0-.19v-.21L105,48.3l-.79.4h-.29a.8.8,0,0,1-.3-.09,1,1,0,0,1-.26-.23,2.2,2.2,0,0,1-.21-.32,3.5,3.5,0,0,1-.14-.46l-1.52-7.85a3.31,3.31,0,0,1,0-.63c0-.19.06-.39.11-.58a2.09,2.09,0,0,1,.22-.48,1.22,1.22,0,0,1,.33-.31l.78-.41v-.86l-.81.13a.87.87,0,0,1-.41-.11,1.26,1.26,0,0,1-.31-.3,1.88,1.88,0,0,1-.22-.45,5.72,5.72,0,0,1-.11-.57l-.6-5.84a35.77,35.77,0,0,1,11.19-5.48,30.42,30.42,0,0,1,4-.9c1-.16,2-.28,2.94-.35s1.91-.12,2.87-.12a34,34,0,0,1,5.7.45c.88.14,1.74.31,2.6.51a30.75,30.75,0,0,1,3.77,1.11c.86.3,1.69.63,2.49,1a36,36,0,0,1,10,6.62,32.62,32.62,0,0,1,3.71,4,36.09,36.09,0,0,1,5.26,9.1,33.16,33.16,0,0,1,1.51,4.78A35,35,0,0,1,157.55,58.28Z" transform="translate(-53.67 -22.33)"/><path class="cls-3" d="M142.56,87.81V86.35h.56l.13,1M100.49,29.28l.36,5.78a5.72,5.72,0,0,0,.11.57,1.88,1.88,0,0,0,.22.45,1.26,1.26,0,0,0,.31.3.87.87,0,0,0,.41.11l.77-.13v.86l-.78.41a1.22,1.22,0,0,0-.33.31,2.09,2.09,0,0,0-.22.48c0,.19-.08.39-.11.58a3.31,3.31,0,0,0,0,.63l1.52,7.85a3.5,3.5,0,0,0,.14.46,1.53,1.53,0,0,0,.19.3,1,1,0,0,0,.26.23.8.8,0,0,0,.3.09h.29l.79-.4.06.2v.21a.61.61,0,0,1,0,.19.83.83,0,0,1,.06.21l-.73.67a1.6,1.6,0,0,0-.28.4,5.7,5.7,0,0,0-.16.55,3.11,3.11,0,0,0,0,.61,2.07,2.07,0,0,0,.12.61l2.5,7.25c0,.12.1.23.16.35l.21.26a.68.68,0,0,0,.48.24h.24l.12-.06.18,0,.73-.67a1.42,1.42,0,0,1,.08.18.31.31,0,0,1,.07.18l.08.18,0,.13-.63.91a2.34,2.34,0,0,0-.23.51,2.9,2.9,0,0,0-.09.59,3.21,3.21,0,0,0,0,.62,5.31,5.31,0,0,0,.2.56l3.58,6.24c0,.08.1.16.16.24a.77.77,0,0,0,.18.18.76.76,0,0,0,.19.12h.37a.28.28,0,0,0,.17-.07l.17-.11.15-.17.63-.93a.54.54,0,0,1,.1.16l.1.15.1.15.1.16-.5,1.12a2.21,2.21,0,0,0-.17.57,3.21,3.21,0,0,0,0,.62,3,3,0,0,0,.13.59,2.12,2.12,0,0,0,.27.49l4.11,5.22c0,.06.09.1.13.15l.15.1.15.07h.37a.94.94,0,0,0,.22-.12.61.61,0,0,0,.2-.19,1,1,0,0,0,.16-.28l.53-1.08.12.12.12.11.12.13.11.12-.35,1.28a2.55,2.55,0,0,0-.12.67,4.2,4.2,0,0,0,.07.62,2.58,2.58,0,0,0,.2.55,2.08,2.08,0,0,0,.32.4L125,84.19l.1.07.11.06h.21a.66.66,0,0,0,.28,0,.64.64,0,0,0,.24-.22.77.77,0,0,0,.22-.29,1.11,1.11,0,0,0,.16-.39l.35-1.28.13.08.13.08.13.08.14.08L127,83.81a3.53,3.53,0,0,0,0,.65,2.93,2.93,0,0,0,.15.6,2,2,0,0,0,.27.47,1,1,0,0,0,.38.3l5.39,2.27a.7.7,0,0,0,.35-.06.81.81,0,0,0,.3-.25,1.13,1.13,0,0,0,.23-.4,1.54,1.54,0,0,0,.14-.52l.18-1.39H135v1.43a2.44,2.44,0,0,0,.3,1.21,1.59,1.59,0,0,0,.34.39.84.84,0,0,0,.4.17l4.26.37" transform="translate(-53.67 -22.33)"/><path class="cls-4" d="M111.55,23.81a67.11,67.11,0,0,0,2.06,16.33,51.89,51.89,0,0,0,5.69,13.75,33.54,33.54,0,0,0,8.61,9.69,20.6,20.6,0,0,0,10.86,4.1,19.52,19.52,0,0,0,11.2-2.8,28.39,28.39,0,0,0,7.53-6.58M133.85,30.62l.82-.56c1.06-.63,1.39.83,1.39,1.31v.27c0,.53,0,29.82-2.76,27.82h-.11c-2.86-1.27-12.42-7-13.94-18.1a2.19,2.19,0,0,1,.89-2.1c3.35-2.32,11.79-7.37,12.7-8Z" transform="translate(-53.67 -22.33)"/><path class="cls-4" d="M138.82,33.06a.92.92,0,0,0,.57-.18,1.54,1.54,0,0,0,.47-.48,2.37,2.37,0,0,0,.31-.73,3.32,3.32,0,0,0,0-1.77,2.15,2.15,0,0,0-.31-.73,1.57,1.57,0,0,0-.47-.49,1,1,0,0,0-.57-.18,1.06,1.06,0,0,0-.57.17,1.65,1.65,0,0,0-.46.49,3,3,0,0,0-.32.71,3.78,3.78,0,0,0,0,1.77,3.17,3.17,0,0,0,.32.73,2.19,2.19,0,0,0,.46.5A1.17,1.17,0,0,0,138.82,33.06Z" transform="translate(-53.67 -22.33)"/><path class="cls-4" d="M135.9,27.06c0,2.51-3.76.87-2.37-2.62" transform="translate(-53.67 -22.33)"/><path class="cls-4" d="M135.23,31.81l-1.17,23.25a17.14,17.14,0,0,1-3.89-2.25,23,23,0,0,1-3.49-3.41,29.62,29.62,0,0,1-2.9-4.29,38.74,38.74,0,0,1-1.93-4,1.4,1.4,0,0,1,.55-1.7l12.52-7.85.31-.18Z" transform="translate(-53.67 -22.33)"/><path class="cls-4" d="M155,45.28c-.16.29-.32.57-.49.84a27,27,0,0,1-3.18,4.26,20.67,20.67,0,0,1-3.68,3.18,16.11,16.11,0,0,1-4,2L142.48,32v-.28h.07l7,4.53m.21,0-3.92-4-2.94-1.93-.14-.07a.31.31,0,0,0-.13-.06h-.52a.54.54,0,0,0-.2.1.65.65,0,0,0-.18.15,1.55,1.55,0,0,0-.28.48,1.4,1.4,0,0,0-.09.29,1.91,1.91,0,0,0-.06.33v.56h0l1.26,26v.42a2.85,2.85,0,0,0,.12.58q.1.24.24.48a3.65,3.65,0,0,0,.31.36,1.34,1.34,0,0,0,.36.22h.61c4.63-1.56,8.88-5.19,12.06-10.06" transform="translate(-53.67 -22.33)"/><path class="cls-4" d="M127.17,22.91l-8.49,3.37v-3.7m-3,.23v4.27a1.55,1.55,0,0,0,.07.23,1.47,1.47,0,0,0,.1.22l.1.2.13.16.2.19.19.14.21.08h.45l12.43-4.8" transform="translate(-53.67 -22.33)"/><path class="cls-2" d="M77.49,51.35l7.91,2.82L90.68,56l11.56,6.4,3.32,10.08s-4.85,8.09-5,8.21-11.88-2.21-11.88-2.21l-9.3-8.71Z" transform="translate(-53.67 -22.33)"/><polygon class="cls-2" points="34.27 43.45 36.01 34.1 61.02 31.83 67.06 42.7 66.39 56.9 64.18 57.32 59.98 56.34 34.27 43.45"/><path class="cls-4" d="M70.06,71.48,73.84,73a16.19,16.19,0,0,0,4.22,2.81c2.07.8,8.22,3.65,10.33,4.82s3.91,2.45,5.31,3S97.46,85,97.46,85s.71.72,2.6-.2,2.3-1.17,2.3-1.17A7,7,0,0,0,104.51,81c.64-1.53,1-2.65,1-2.65a3.19,3.19,0,0,0-.26-3.13c-1-1.67-5.29-6.82-5.29-6.82a2.09,2.09,0,0,0-1.84-.87c-1.07.14-1.57-.19-2.37.1a6.67,6.67,0,0,0-2.47,2,3,3,0,0,0-.6,3,2.56,2.56,0,0,0,2.4,1.09s1.7,2.43,2.48,3.27a3.63,3.63,0,0,0,1.75,1" transform="translate(-53.67 -22.33)"/><path class="cls-4" d="M104.91,76.45a3.43,3.43,0,0,1-2,1.62,7.37,7.37,0,0,1-2.38.24" transform="translate(-53.67 -22.33)"/><path class="cls-4" d="M97.76,82.65a3.87,3.87,0,0,1-1.43-3.37c.27-2.08,1.09-2.5,1.09-2.5" transform="translate(-53.67 -22.33)"/><path class="cls-4" d="M95.12,73.81A9.47,9.47,0,0,1,95,71.1a1.79,1.79,0,0,1,.58-.64" transform="translate(-53.67 -22.33)"/><path class="cls-4" d="M95.93,70.4a3.7,3.7,0,0,1,.87-.85,4.22,4.22,0,0,1,2.32-.94" transform="translate(-53.67 -22.33)"/><path class="cls-4" d="M89.68,78.06a6,6,0,0,1,1-2.65,8,8,0,0,1,3.09-1.9" transform="translate(-53.67 -22.33)"/><path class="cls-4" d="M104.4,81.41l3,.61a4.23,4.23,0,0,0,2.72-.13,8,8,0,0,0,3.7-2.24s1-.72.63-1.65-1.39-3.54-2-4.67L110,68.86s-1.3-2.8-2.65-3.27a14,14,0,0,0-3.64-.64,3.1,3.1,0,0,0-2.36,1c-1.27,1-1.42,1.4-1.42,1.4" transform="translate(-53.67 -22.33)"/><path class="cls-4" d="M102.49,71.63a6.67,6.67,0,0,1-.37-2.22" transform="translate(-53.67 -22.33)"/><path class="cls-4" d="M103.58,69.62s2.66-2.6,3.65-3.29c0,0-3.55,2.26-4.07,2.41" transform="translate(-53.67 -22.33)"/><path class="cls-4" d="M73.6,69.12s-1.32,2.58.24,3.88" transform="translate(-53.67 -22.33)"/><path class="cls-4" d="M83.61,61a27.14,27.14,0,0,0,8.68,3.13,30.73,30.73,0,0,0,7.83-.56c2.41-.42,4.29-.89,4.29-.89" transform="translate(-53.67 -22.33)"/><path class="cls-4" d="M106.12,63.5s-5.45.44-5.92,0" transform="translate(-53.67 -22.33)"/><path class="cls-4" d="M77.49,58.35l3.83.08s.08-.51,4-2.75,4.7-2.65,6.8-3.4,2.48-1,3.71-.92,6.41.28,6.41.28l5.78-.19,1.79-.1a19.61,19.61,0,0,1,2.5.56c1.3.39,3.5,1,4.54,1.22a39.7,39.7,0,0,0,4.22.29,8.06,8.06,0,0,1,2.47.51,2.33,2.33,0,0,1,1,1.69c0,.41-.34.78-1.46,1.45a35.68,35.68,0,0,1-3.3,1.58,11,11,0,0,1-2.21.41,6.82,6.82,0,0,1-2.83-1c-1-.68-2.17-1.45-2-2.76" transform="translate(-53.67 -22.33)"/><path class="cls-4" d="M114.68,58a1,1,0,0,1-.59.53s-.1,0-2.21.4a5.24,5.24,0,0,1-4.11-.55A2.73,2.73,0,0,1,106.43,56" transform="translate(-53.67 -22.33)"/><path class="cls-4" d="M103.59,57.28s2.14,1.87,3.74,2,1.77.18,2.21-.17" transform="translate(-53.67 -22.33)"/><path class="cls-4" d="M105.17,59.81s3.83.87,3.83-.49l.12,1.62" transform="translate(-53.67 -22.33)"/><path class="cls-4" d="M114.49,79s2.45.61,3.27.77a17.55,17.55,0,0,0,2.17.23c.31,0,.68-.14,1.83-1.15a5.64,5.64,0,0,0,1.56-2.29s.4-.45-.26-1.91-1.28-2.89-1.76-3.69S120,68.06,120,68.06a8.2,8.2,0,0,0-2-2.9c-1.21-.92-1.93-1-3.47-2.18a26.69,26.69,0,0,0-3.15-2.12,2.31,2.31,0,0,0-2.89.48,3.22,3.22,0,0,0-.76,3.09,8.8,8.8,0,0,0,2,2.86,11.13,11.13,0,0,0,2.76,2.16,4.51,4.51,0,0,1,.94,1.42,29.28,29.28,0,0,0,1.4,3.61,9,9,0,0,0,2.1,3.16,5.12,5.12,0,0,0,1.4,1" transform="translate(-53.67 -22.33)"/><path class="cls-4" d="M111.68,72a1.35,1.35,0,0,1,1.85-.48h0l.08.06" transform="translate(-53.67 -22.33)"/><path class="cls-4" d="M112.49,69.54s-.55.38-.43.74a3.38,3.38,0,0,0,.51,1" transform="translate(-53.67 -22.33)"/><path class="cls-4" d="M112.81,61.81s.85,1.07.78,1.25-.67.1-1.77,1-1.07,1.39-1.07,1.39-.1.19-.37,0a6.26,6.26,0,0,1-1.47-1.39c-.61-.84-.34-1.54.52-2.26s1.78-1,2.22-.72" transform="translate(-53.67 -22.33)"/><path class="cls-4" d="M113.55,68.28s2.3-.06,3.3-1a1.16,1.16,0,0,0,.48-1" transform="translate(-53.67 -22.33)"/><path class="cls-4" d="M119.2,78.46A4.2,4.2,0,0,0,122.94,76" transform="translate(-53.67 -22.33)"/><path class="cls-4" d="M119.73,77.81a4.75,4.75,0,0,0,3-2.29" transform="translate(-53.67 -22.33)"/><path class="cls-4" d="M123.28,75.28h2.4s.38.14,2.24-1.55,1.61-1.87,1.26-3a13.26,13.26,0,0,0-1.84-3.31c-.54-.8-1.4-2.2-1.7-2.79s-.73-1.81-2.81-1.15-2.34,2-2.27,3a34.53,34.53,0,0,0,1.86,5.13,5.36,5.36,0,0,0,2.76,2.67" transform="translate(-53.67 -22.33)"/><path class="cls-4" d="M120.06,68.35s.7-.33,1,0" transform="translate(-53.67 -22.33)"/><path class="cls-4" d="M126,73.81a2.44,2.44,0,0,0,2.54-2" transform="translate(-53.67 -22.33)"/><path class="cls-4" d="M125.49,64.37a4.86,4.86,0,0,1-3.28,2.29c0,1.17,1.59,2.39,1.59,2.39a1.83,1.83,0,0,0,1.68-.24c1-.59,1.23-.86,1.11-1.45s-.78-2.37-.78-2.37" transform="translate(-53.67 -22.33)"/><path class="cls-4" d="M75.8,64.35s.61-2,5.07-3.47l-6-.86" transform="translate(-53.67 -22.33)"/><path class="cls-4" d="M71.68,71.64,73.9,73a16.3,16.3,0,0,0,4.21,2.81c2.07.8,8.22,3.65,10.33,4.82s3.91,2.45,5.31,3S97.46,85,97.46,85s.71.72,2.6-.2,2.3-1.17,2.3-1.17A7,7,0,0,0,104.51,81c.64-1.53,1-2.65,1-2.65a3.19,3.19,0,0,0-.26-3.13c-1-1.67-5.29-6.82-5.29-6.82a2.09,2.09,0,0,0-1.84-.87c-1.07.14-1.57-.19-2.37.1a6.67,6.67,0,0,0-2.47,2,3,3,0,0,0-.6,3,2.56,2.56,0,0,0,2.4,1.09s1.7,2.43,2.48,3.27a3.63,3.63,0,0,0,1.75,1" transform="translate(-53.67 -22.33)"/><line class="cls-3" x1="3.39" y1="40.4" x2="12.1" y2="45.72"/><path class="cls-4" d="M104.91,76.45a3.43,3.43,0,0,1-2,1.62,7.37,7.37,0,0,1-2.38.24" transform="translate(-53.67 -22.33)"/><path class="cls-4" d="M97.76,82.65a3.87,3.87,0,0,1-1.43-3.37c.27-2.08,1.09-2.5,1.09-2.5" transform="translate(-53.67 -22.33)"/><path class="cls-4" d="M95.12,73.81A9.47,9.47,0,0,1,95,71.1c.08-.42.33-.48.58-.64" transform="translate(-53.67 -22.33)"/><polygon class="cls-4" points="49.45 40.4 51.23 40.04 51.87 44.75 50.1 44.78 49.45 40.4"/><rect class="cls-5" x="105.22" y="61.31" width="2.76" height="6.35" transform="translate(-61.71 -6.63) rotate(-8.12)"/><rect class="cls-6" x="107.86" y="61.63" width="10.71" height="4.18" transform="translate(-61.48 -5.85) rotate(-8.05)"/><rect class="cls-6" x="118.5" y="58.44" width="9.22" height="7.57" rx="2.31" transform="translate(-61.17 -4.48) rotate(-8.05)"/><polyline class="cls-4" points="0.25 47.41 12.1 45.72 39.31 41.84"/><polyline class="cls-4" points="49.45 40.4 50.17 44.58 19.41 49.08 17.95 49.3 0.88 51.84"/><polygon class="cls-4" points="64.55 44.78 63.97 42.5 61.91 41.37 60.18 40.2 58.66 39.04 57.23 38.21 56.02 38.27 55.1 38.69 54.63 39.08 54.29 39.5 54.03 39.95 53.85 41.21 54.14 42.61 55.56 44.49 57.16 46.02 64.16 46.2 64.55 44.78"/><polygon class="cls-4" points="72.51 43.55 71.55 41.42 70.25 41.01 68.51 41.27 67.03 42.98 66.82 44.42 68.85 47.01 72.63 46.87 72.51 43.55"/><polygon class="cls-2" points="57.3 45.29 56.21 45.17 54.81 43.9 53.2 43.18 50.23 42.7 49.1 42.81 47.43 43.75 46.04 45.29 45.87 45.54 51.55 49.05 55.62 50.43 57.3 45.29"/><path class="cls-4" d="M89.68,78.06a6,6,0,0,1,1-2.65,8,8,0,0,1,3.09-1.9" transform="translate(-53.67 -22.33)"/><path class="cls-3" d="M104.4,81.41l3,.61a4.23,4.23,0,0,0,2.72-.13,8,8,0,0,0,3.7-2.24s1-.72.63-1.65-1.39-3.54-2-4.67L110,68.86s-1.3-2.8-2.65-3.27a14,14,0,0,0-3.64-.64,3.1,3.1,0,0,0-2.36,1,7.67,7.67,0,0,0-1.4,1.33l-.53.73" transform="translate(-53.67 -22.33)"/><path class="cls-4" d="M102.49,71.63a6.67,6.67,0,0,1-.37-2.22" transform="translate(-53.67 -22.33)"/><path class="cls-4" d="M103.58,69.62s2.66-2.6,3.65-3.29c0,0-3.55,2.26-4.07,2.41" transform="translate(-53.67 -22.33)"/><path class="cls-4" d="M73.12,71.42A2.23,2.23,0,0,0,73.88,73" transform="translate(-53.67 -22.33)"/><path class="cls-4" d="M83.61,61a27.14,27.14,0,0,0,8.68,3.13,30.73,30.73,0,0,0,7.83-.56c1.19-.21,2.25-.42,3-.59" transform="translate(-53.67 -22.33)"/><path class="cls-4" d="M100.12,63.54" transform="translate(-53.67 -22.33)"/><path class="cls-4" d="M103.26,63.67" transform="translate(-53.67 -22.33)"/><path class="cls-4" d="M77.49,58.35l3.83.08s.08-.51,4-2.75,4.7-2.65,6.8-3.4,2.48-1,3.71-.92,6.41.28,6.41.28l5.78-.19,1.65-.1H110a19,19,0,0,1,2.35.54c1.3.39,3.5,1,4.54,1.22a39.7,39.7,0,0,0,4.22.29,8.06,8.06,0,0,1,2.47.51,2.33,2.33,0,0,1,1,1.69c0,.41-.34.78-1.46,1.45a35.68,35.68,0,0,1-3.3,1.58,11.07,11.07,0,0,1-2.21.43,6.82,6.82,0,0,1-2.83-1c-1-.68-2.17-1.45-2-2.76" transform="translate(-53.67 -22.33)"/><path class="cls-4" d="M106.49,56a2.73,2.73,0,0,0,1.34,2.38,5.24,5.24,0,0,0,4.11.55c2.11-.37,2.21-.4,2.21-.4a1,1,0,0,0,.59-.53" transform="translate(-53.67 -22.33)"/><path class="cls-4" d="M103.59,57.28s2.14,1.87,3.74,2,1.77.18,2.21-.17" transform="translate(-53.67 -22.33)"/><path class="cls-4" d="M105.17,59.81s3.83.87,3.83-.49l.12,1.49" transform="translate(-53.67 -22.33)"/><path class="cls-4" d="M114.49,79s2.45.61,3.27.77a17.55,17.55,0,0,0,2.17.23c.31,0,.68-.14,1.83-1.15a5.64,5.64,0,0,0,1.56-2.29s.4-.45-.26-1.91-1.28-2.89-1.76-3.69S120,68.06,120,68.06a8.2,8.2,0,0,0-2-2.9c-1.21-.92-1.93-1-3.47-2.18a34.73,34.73,0,0,0-3.22-2.29c-.42-.27-1.5-.54-2.82.65a3.22,3.22,0,0,0-.76,3.09,8.8,8.8,0,0,0,2,2.86,11.13,11.13,0,0,0,2.76,2.16,4.51,4.51,0,0,1,.94,1.42,29.28,29.28,0,0,0,1.4,3.61,9,9,0,0,0,2.1,3.16,5.12,5.12,0,0,0,1.4,1" transform="translate(-53.67 -22.33)"/><path class="cls-4" d="M111.68,72a1.35,1.35,0,0,1,1.85-.48h0l.08.06" transform="translate(-53.67 -22.33)"/><path class="cls-4" d="M112.49,69.54s-.55.38-.43.74a3.38,3.38,0,0,0,.51,1" transform="translate(-53.67 -22.33)"/><path class="cls-4" d="M111.68,61.06s2,1.8,1.94,2-.67.1-1.77,1-1.07,1.39-1.07,1.39-.1.19-.37,0a6.68,6.68,0,0,1-1.47-1.34c-.61-.84-.34-1.54.52-2.26s1.78-1,2.22-.72" transform="translate(-53.67 -22.33)"/><path class="cls-4" d="M113.55,68.28s2.3-.06,3.3-1a1.16,1.16,0,0,0,.48-1" transform="translate(-53.67 -22.33)"/><path class="cls-4" d="M119.2,78.46A4.2,4.2,0,0,0,122.94,76" transform="translate(-53.67 -22.33)"/><path class="cls-4" d="M119.42,77.6a4.76,4.76,0,0,0,3-2.28" transform="translate(-53.67 -22.33)"/><path class="cls-4" d="M123.28,75.28h2.4s.38.14,2.24-1.55,1.61-1.87,1.26-3a13.26,13.26,0,0,0-1.84-3.31c-.54-.8-1.4-2.2-1.7-2.79s-.73-1.81-2.81-1.15-2.34,2-2.27,3a34.53,34.53,0,0,0,1.86,5.13,5.36,5.36,0,0,0,2.76,2.67" transform="translate(-53.67 -22.33)"/><path class="cls-4" d="M120.06,68.35s.7-.33,1,0" transform="translate(-53.67 -22.33)"/><path class="cls-4" d="M126,73.81a2.44,2.44,0,0,0,2.54-2" transform="translate(-53.67 -22.33)"/><path class="cls-4" d="M125.49,64.37a4.86,4.86,0,0,1-3.28,2.29c0,1.17,1.59,2.39,1.59,2.39a1.83,1.83,0,0,0,1.68-.24c1-.59,1.23-.86,1.11-1.45s-.78-2.37-.78-2.37" transform="translate(-53.67 -22.33)"/><path class="cls-4" d="M75.8,64.35s.61-2,5.07-3.47l-6-.86" transform="translate(-53.67 -22.33)"/><path class="cls-4" d="M70.68,44.81S85.18,55,87.12,54.71" transform="translate(-53.67 -22.33)"/><ellipse class="cls-2" cx="20.17" cy="46.98" rx="1.25" ry="0.86"/></svg>