<svg id="Capa_1" data-name="Capa 1" xmlns="http://www.w3.org/2000/svg" viewBox="0 0 74.68 84.36"><defs><style>.cls-1{fill:#5a6db1;}.cls-2,.cls-3{fill:#fff;}.cls-3,.cls-4{stroke:#1d1d1b;}.cls-3,.cls-4,.cls-5{stroke-linecap:round;stroke-linejoin:round;stroke-width:0.5px;}.cls-4,.cls-5{fill:none;}.cls-5{stroke:#000;}</style></defs><title>circulo-acampar</title><circle class="cls-1" cx="38.6" cy="42.05" r="36.08"/><polygon class="cls-2" points="48.98 33.12 52.07 30.89 56.49 11.43 51.98 3.52 41.41 3.52 36.82 9.72 28.15 20.35 4.19 21.68 1.72 39.47 30.85 34.87 45.3 35.09 48.98 33.12"/><path class="cls-2" d="M1507.62,645.32l1.92,2.59s9.8,5.34,11.74,18.62-1,17.68-1,17.68l4,12.57-7.84,1.32-5.17-.3-7.57,1-8.81-.21-13.12-1.8-1.7.73-4.48.06-7-1.76,3.64-14.66,1.26-2.29L1471.8,670l1.26-7.28,4.06-6.85,7.18-5.08,3.9-3.76Z" transform="translate(-1457.22 -614.77)"/><polygon class="cls-2" points="51.05 12.75 51.61 18.36 56.72 17.86 57.29 15.12 56.23 12.08 51.05 12.75"/><path class="cls-3" d="M1493.92,623.9c-.31-1.35-.72-2.68-.91-4a2.58,2.58,0,0,1,1.35-2.48,10.42,10.42,0,0,1,4.12-1.31l2.33-.42,3.21-.6a1.22,1.22,0,0,1,1.4,1.11c.1.84.25,1.68.38,2.52" transform="translate(-1457.22 -614.77)"/><path class="cls-3" d="M1501.14,639c-1.21.35-1.54,1-1.21,2a4.14,4.14,0,0,0,1.22,1.66,18.18,18.18,0,0,0,2.66,2,16.9,16.9,0,0,0,3.64,1.8,11.24,11.24,0,0,0,1.18.11c1,.22,1.86-1,1.81-1.83a9.83,9.83,0,0,0-.19-1.21" transform="translate(-1457.22 -614.77)"/><path class="cls-3" d="M1505.43,616a5.71,5.71,0,0,1,2.09-.36c1.56-.21,3.12-.38,4.68-.57a1.62,1.62,0,0,1,1.54.68c1,1.19.76,2.43.27,3.67s-1.13,2.54-1.7,3.8c-.07.15-.12.31-.18.47" transform="translate(-1457.22 -614.77)"/><path class="cls-3" d="M1511.59,638.44c.16.38.34.75.48,1.14a3.64,3.64,0,0,1,.07,2.73,2,2,0,0,1-.83.87,1.6,1.6,0,0,1-1.09.16,21.15,21.15,0,0,1-2-.75,32,32,0,0,1-4.3-2l-1.65-.93a7.32,7.32,0,0,1-1.18-.82l-.57-.49a1.3,1.3,0,0,1-.41-.6,1.2,1.2,0,0,1,.23-1.12.8.8,0,0,0,.11-.25,2,2,0,0,1,1.09-.89" transform="translate(-1457.22 -614.77)"/><path class="cls-3" d="M1502.16,635.87" transform="translate(-1457.22 -614.77)"/><path class="cls-3" d="M1501.25,635.85" transform="translate(-1457.22 -614.77)"/><path class="cls-3" d="M1513.25,632.92a7.41,7.41,0,0,1,.55,1.34,3.6,3.6,0,0,1-.39,2.94,2.76,2.76,0,0,1-1.27.95,3.4,3.4,0,0,1-2.25,0c-1.66-.35-3.3-.77-4.94-1.18a3.67,3.67,0,0,1-1.22-.54" transform="translate(-1457.22 -614.77)"/><path class="cls-3" d="M1513.72,615.87a8.46,8.46,0,0,1-3.15,1.06,7.56,7.56,0,0,0-2.66,1,7.37,7.37,0,0,1-1.59.73,6.07,6.07,0,0,1-3.43-.12c-.32-.1-.76,0-1-.39" transform="translate(-1457.22 -614.77)"/><path class="cls-3" d="M1511.79,629.36c-.72-.18-1.44-.37-2.16-.53a1.93,1.93,0,0,0-.53,0c-1.08.1-2.16.15-3.23.3a5.05,5.05,0,0,0-2.25.78,5.13,5.13,0,0,0-1,.94,1.4,1.4,0,0,0-.09.87" transform="translate(-1457.22 -614.77)"/><path class="cls-3" d="M1485.67,649.36c-1.69.32-3.92.67-5.61,1l-22.59,3.91" transform="translate(-1457.22 -614.77)"/><path class="cls-3" d="M1463.55,636.35c.16,0,12.15-.76,12.31-.77,1.89-.13,3.79-.24,5.67-.43a3.12,3.12,0,0,0,2-1l.54-.41a28.32,28.32,0,0,0,4.19-3.85c1.54-1.64,3-3.34,4.5-5a3.11,3.11,0,0,1,2.87-1.06,4.17,4.17,0,0,0,.79,0,13.23,13.23,0,0,0,1.89-.22c1.24-.25,2.5-.34,3.74-.6a24.58,24.58,0,0,1,3.19-.49,7.44,7.44,0,0,1,2.71.11,30,30,0,0,0,3.47,1c1.37.07,1.24.36,1.85.33a7.41,7.41,0,0,1,2.69.44.9.9,0,0,1,.73,1.35,4,4,0,0,1-.62.86,6,6,0,0,1-2.29,1.31,5.15,5.15,0,0,1-3.36-.52,3.14,3.14,0,0,1-.55-.17,2.82,2.82,0,0,0-1.42-.3,9,9,0,0,0-1.62.47l-4.53,1.15a.57.57,0,0,0-.49.57,7.49,7.49,0,0,1-.13,1.06,13.32,13.32,0,0,1-1.37,3.77,14.42,14.42,0,0,1-4.5,4.63,6.23,6.23,0,0,1-1.15.66,12.4,12.4,0,0,1-3.91,1.13" transform="translate(-1457.22 -614.77)"/><path class="cls-3" d="M1491.51,640.61" transform="translate(-1457.22 -614.77)"/><path class="cls-3" d="M1500.05,623.21a3.09,3.09,0,0,1,0-.43c.1-1.38.2-2.76.31-4.14,0-.62.11-.66.71-.57a6.94,6.94,0,0,0,.79,0" transform="translate(-1457.22 -614.77)"/><path class="cls-4" d="M1512.78,623.93c-.09,1.16.27,1.89,1.29,1.9a3.56,3.56,0,0,0,1.35-.32,3.4,3.4,0,0,0,1.11-.81" transform="translate(-1457.22 -614.77)"/><path class="cls-3" d="M1500.43,636.64c.29.09.6.16.88.27a3.94,3.94,0,0,1,1,.46,1.16,1.16,0,0,1,.45,1.65c-.09.22-.19.43-.28.65" transform="translate(-1457.22 -614.77)"/><path class="cls-4" d="M1501.58,634c.46,0,.93,0,1.39,0a1,1,0,0,1,1.1,1.08,7.34,7.34,0,0,1-.23,1.28,3.35,3.35,0,0,1-2.24-.75,1.86,1.86,0,0,1-.31-.48,1,1,0,0,1,.18-1,.35.35,0,0,0,.07-.23c0-.48.33-.73.65-1a1,1,0,0,1,1.11-.12,4.53,4.53,0,0,0,1,.18c.94.09,1.87.15,2.81.22a2.42,2.42,0,0,0,.38,0c1.78-.1,3.56-.22,5.34-.3a1.33,1.33,0,0,0,1.07-.51,3.22,3.22,0,0,0,.62-2.2,6.59,6.59,0,0,0-.76-2.11" transform="translate(-1457.22 -614.77)"/><path class="cls-3" d="M1501.28,642.5c.2-.14.41-.28.6-.44.63-.52.83-1,.22-1.56-.18-.15-.35-.32-.54-.47l-.77-.65s-.24-.2-.43-.09" transform="translate(-1457.22 -614.77)"/><path class="cls-3" d="M1495.6,620c.24.39.51.77.72,1.18a11.27,11.27,0,0,1,.53,1.24c.14.4.23.81.34,1.22" transform="translate(-1457.22 -614.77)"/><path class="cls-3" d="M1504.81,615.29a6,6,0,0,1-2.68,2.58.91.91,0,0,0-.16.13" transform="translate(-1457.22 -614.77)"/><path class="cls-3" d="M1483.91,646.26c.1.62.58,1,.95,1.41a4.46,4.46,0,0,0,.76.68c.28.22.48.37.65.48" transform="translate(-1457.22 -614.77)"/><path class="cls-3" d="M1510.16,627.52l-.62,1.24" transform="translate(-1457.22 -614.77)"/><path class="cls-5" d="M1507.48,646.27s10.82,5.58,13.33,17.63-.71,20.85-.71,20.85l4.64,12.53s-7.5,1.34-12.2.61-6.44,3.32-29.81-1.11c.1,0-5,2.57-14.11-1-.17-.3,2.51-14.28,4.9-16.95a55,55,0,0,1-1.81-10.13c0-4.69,3.55-11.92,8.14-14.77a15.83,15.83,0,0,0,1.46-1,78.81,78.81,0,0,0,14.34-14.17" transform="translate(-1457.22 -614.77)"/><path class="cls-3" d="M1482.73,696.78c9.74-4.12,10.3-6.55,10.3-6.55" transform="translate(-1457.22 -614.77)"/><path class="cls-5" d="M1500.94,678.83s-6.26-4.09-16-2.63" transform="translate(-1457.22 -614.77)"/><path class="cls-4" d="M1502.6,632.55c-.2-.76-.21-.81.55-.95a16.91,16.91,0,0,1,2.13-.23c.36,0,.57.25.57.66l0,1" transform="translate(-1457.22 -614.77)"/><line class="cls-3" x1="27.07" y1="20.1" x2="24.57" y2="20.35"/><line class="cls-3" x1="62.87" y1="69.98" x2="60.82" y2="63.86"/><path class="cls-3" d="M1503.81,644.55s1.52,8.28-3.53,11.34" transform="translate(-1457.22 -614.77)"/><path class="cls-3" d="M1497.55,637.31a18.39,18.39,0,0,0-1.4,11.53" transform="translate(-1457.22 -614.77)"/><line class="cls-3" x1="26.05" y1="39.83" x2="30.49" y2="54.31"/></svg>