<svg id="Capa_1" data-name="Capa 1" xmlns="http://www.w3.org/2000/svg" viewBox="0 0 73.89 91.59"><defs><style>.cls-1{fill:#71b857;}.cls-2,.cls-3{fill:#fff;}.cls-3,.cls-4{stroke:#1d1d1b;stroke-linecap:round;stroke-linejoin:round;stroke-width:0.5px;}.cls-4{fill:none;}</style></defs><title>circulo-naturales</title><circle class="cls-1" cx="37.82" cy="38.98" r="36.08"/><polygon class="cls-2" points="11.23 0.46 24.85 4.34 31.68 5.73 40.05 7 45.03 7.49 47.49 8.31 48.77 9.71 49.65 12.89 51.29 21.87 52.29 25.52 52.98 26.29 53.75 27.65 54.27 29.18 54.45 33.41 54.89 38.05 55.04 43.36 54.44 47.52 53.75 49.87 51.59 51.41 45.37 50.18 43.57 47.85 41.82 46.36 40.94 46.42 39.26 45.65 37.2 43.54 35.4 40.98 33.89 38.21 32.52 35.68 31.31 33.3 30.57 32.77 23.13 29.08 18.58 26.33 16.35 24.74 15.73 24.88 13.38 24.47 10.49 23.58 8.1 22.37 4.94 20.1 6.14 4.8 11.23 0.46"/><path class="cls-3" d="M1670.21,730.2c.88.75,1.69,1.5,2.43,2.24,12,12.09,7.24,23.31,11.6,37.3-7.79-.8-15.83-1.67-24.49-1.12-1.39.09-2.79.22-4.21.38-15.07,5.41-8.57-.4-5.27-14.55,6.15-22.85,6.19-17.58,13.57-24.7" transform="translate(-1620.11 -681.78)"/><line class="cls-3" x1="49.72" y1="73.48" x2="46.74" y2="49.87"/><line class="cls-3" x1="42.64" y1="51.41" x2="37.43" y2="69.91"/><path class="cls-3" d="M1684.24,769.74l-.73,3.39c-9.55-.93-11.67-2.25-15-3.17a41.48,41.48,0,0,0-8.74-1.34" transform="translate(-1620.11 -681.78)"/><path class="cls-3" d="M1664.87,718.73l.77-.32.15-.06v.79s3.84-3.47,5.47-3.57c-.06.06-.48,4.91-.48,4.91a2.5,2.5,0,0,1,0,2c-.46,1.08-1.07,3.14-1.07,3.14" transform="translate(-1620.11 -681.78)"/><path class="cls-4" d="M1630.7,682c.92.31,1.84.62,2.77.91,3.5,1.09,7,2.14,10.58,2.93,1.88.41,3.75.89,5.65,1.27,1.55.32,3.12.52,4.68.78,1.15.19,2.3.4,3.45.57.89.13,1.78.2,2.68.29,1.21.13,2.42.24,3.63.39a8.08,8.08,0,0,1,3.06.77,4.49,4.49,0,0,1,2.1,2.91c.23.89.33,1.82.49,2.73.23,1.3.46,2.61.67,3.92a54.3,54.3,0,0,0,1.83,7.42,15.49,15.49,0,0,1,.54,5.74c-.11,1.49-.42,3-.65,4.45-.16,1-.34,2.07-.52,3.11s-.39,2.11-.58,3.16-.41,2.33-.62,3.49c0,.08-.18.84-.21.92" transform="translate(-1620.11 -681.78)"/><path class="cls-4" d="M1672.57,707.68c.38,0,.49.36.67.62a7.6,7.6,0,0,1,1.19,4c.08,1.08.08,2.17.15,3.25.07.88.2,1.76.28,2.63.11,1.09.26,2.17.28,3.26,0,1.48,0,3-.1,4.45a32.61,32.61,0,0,1-.47,3.25,18,18,0,0,1-.52,1.91,1.84,1.84,0,0,1-1.41,1.41" transform="translate(-1620.11 -681.78)"/><path class="cls-4" d="M1669.17,731.42" transform="translate(-1620.11 -681.78)"/><path class="cls-4" d="M1664.62,730.48" transform="translate(-1620.11 -681.78)"/><path class="cls-4" d="M1630.6,700.12a21,21,0,0,0,3.69,4.54,31.44,31.44,0,0,0,4.92,3.84,63.17,63.17,0,0,0,6.18,3.44c1.86.92,3.75,1.81,5.59,2.79a12,12,0,0,1,3.16,2.24,16.19,16.19,0,0,1,2.35,3.11c.94,1.61,1.87,3.23,2.83,4.83a18.47,18.47,0,0,0,3.15,3.63c.5.49,1.06.92,1.57,1.4a4.22,4.22,0,0,0,1.84,1.07" transform="translate(-1620.11 -681.78)"/><path class="cls-4" d="M1620.36,699.64a10.92,10.92,0,0,1,4.83,2.35,27.19,27.19,0,0,0,4.36,2.92,21.8,21.8,0,0,0,4.31,1.43c.63.15,1.27.28,1.91.38a3,3,0,0,0,.72-.07" transform="translate(-1620.11 -681.78)"/><path class="cls-4" d="M1651.51,715.2a7.92,7.92,0,0,0,.34.85c.84,1.56,1.73,3.08,2.52,4.65a22,22,0,0,0,3.8,5.59,6.64,6.64,0,0,0,2,1.64,3.49,3.49,0,0,0,2,.3" transform="translate(-1620.11 -681.78)"/><path class="cls-4" d="M1665.39,697.83a10.46,10.46,0,0,1-2.07,3.29c-1.08,1.21-2.22,2.37-3.35,3.54a1.62,1.62,0,0,1-.51.25" transform="translate(-1620.11 -681.78)"/><path class="cls-4" d="M1660,702.42c-.16.62-.33,1.24-.47,1.87a9.15,9.15,0,0,0,0,3.34,28.32,28.32,0,0,0,.67,3.54,11.82,11.82,0,0,0,1.81,4.07,4.26,4.26,0,0,0,.42.43" transform="translate(-1620.11 -681.78)"/><path class="cls-4" d="M1661.45,703.19c.22.35.53,1,.79,1.28a3.29,3.29,0,0,0,.86.76,1.84,1.84,0,0,1,.86,1.11c.4,1.27.82,2.53,1.24,3.78a9.11,9.11,0,0,1,.39,3.11c0,1.44.07,2.88.08,4.31q0,.44,0,.87" transform="translate(-1620.11 -681.78)"/><path class="cls-4" d="M1623,697.06l3.21,1,1.57.48" transform="translate(-1620.11 -681.78)"/><path class="cls-4" d="M1664.58,721.27a5.06,5.06,0,0,1-4,2.16,1.42,1.42,0,0,0-.2,0" transform="translate(-1620.11 -681.78)"/><path class="cls-4" d="M1670.29,728.51c-.33-.46-1.06-1.61-1.41-2.07-.85-1.1-1.8-1.44-3.3-.57-.47.28-.94.59-1.39.91a1.38,1.38,0,0,0-.28,2.15c.35.43.81.82,1.16,1.24l1,1.09a2.18,2.18,0,0,0,2,.39,2.91,2.91,0,0,0,1.73-.95,1.79,1.79,0,0,0,.48-2.11,1,1,0,0,1,0-.38,6.39,6.39,0,0,0-.22-1.49,14,14,0,0,0-3.23-5.92c-1-1.08-2-2.07-3-3.18-.59-.71-1.38-1.25-1.47-2.42a5.38,5.38,0,0,0-1.31-3.12c-.18-.2-.32-.41-.63-.38" transform="translate(-1620.11 -681.78)"/><path class="cls-4" d="M1659.26,721.13a8.3,8.3,0,0,1,3.26-2,5.49,5.49,0,0,1,.81-.14" transform="translate(-1620.11 -681.78)"/><path class="cls-4" d="M1668.31,701.75a8.18,8.18,0,0,1-3,2.44c-.2.13-.38.29-.57.43" transform="translate(-1620.11 -681.78)"/><path class="cls-4" d="M1665.68,711.66a11.54,11.54,0,0,1,2.87-.39l.62.05" transform="translate(-1620.11 -681.78)"/><path class="cls-4" d="M1668.07,712.71a3.12,3.12,0,0,1-2.39.33" transform="translate(-1620.11 -681.78)"/><path class="cls-4" d="M1663.79,712.21a5.45,5.45,0,0,0-1.91.71" transform="translate(-1620.11 -681.78)"/><path class="cls-4" d="M1663.19,720.75l-1.77,1" transform="translate(-1620.11 -681.78)"/><path class="cls-4" d="M1663.86,713.38l-1.49.52" transform="translate(-1620.11 -681.78)"/><path class="cls-4" d="M1673.09,720.17l-1.38.15" transform="translate(-1620.11 -681.78)"/><path class="cls-4" d="M1655.87,720.65l-1.1.58" transform="translate(-1620.11 -681.78)"/><path class="cls-3" d="M1680.74,762.8s-2.1-2-3.44-2-5.19-2.73-6.69-1.89-9.53-.87-12.12,2-6.48.39-7.59,1.53-2.79,2.93-2.8,2.93" transform="translate(-1620.11 -681.78)"/><path class="cls-3" d="M1668.87,765.6a7.8,7.8,0,0,0-4.25-1" transform="translate(-1620.11 -681.78)"/><path class="cls-3" d="M1682.3,766a10,10,0,0,1-8.94,1.12" transform="translate(-1620.11 -681.78)"/><path class="cls-3" d="M1675.53,762.09s-1.86-1.5-3.53-1.29" transform="translate(-1620.11 -681.78)"/><path class="cls-3" d="M1656.62,756.4a11.19,11.19,0,0,1-4.35,4.59" transform="translate(-1620.11 -681.78)"/><path class="cls-4" d="M1649.57,767.89c7.2-5.29,4.16-3.82,9.52-4.82,9.92-1.66,7.34,1.31,12.54.48a5.28,5.28,0,0,1,2.94.36h0a5.33,5.33,0,0,0,2.16.42l4.33-.06" transform="translate(-1620.11 -681.78)"/></svg>