<svg id="Capa_1" data-name="Capa 1" xmlns="http://www.w3.org/2000/svg" xmlns:xlink="http://www.w3.org/1999/xlink" viewBox="0 0 135.02 81.22"><defs><style>.cls-1,.cls-4{fill:none;}.cls-2{fill:#fbc465;}.cls-3,.cls-5{fill:#fff;}.cls-4,.cls-5{stroke:#1d1d1b;stroke-linecap:round;stroke-linejoin:round;stroke-width:0.5px;}.cls-6{isolation:isolate;}.cls-7{clip-path:url(#clip-path);}.cls-8{fill:#1d1d1b;}</style><clipPath id="clip-path" transform="translate(-1308.8 -590.91)"><polygon class="cls-1" points="1428.41 597.07 1431.55 594.74 1433.33 597.11 1430.18 599.45 1428.41 597.07"/></clipPath></defs><title>circulo-naturaleza</title><circle class="cls-2" cx="82.46" cy="36.43" r="36.08"/><polygon class="cls-3" points="47.06 48.04 49.56 48.43 52.71 49 56.22 50.14 60.22 52.15 63.71 54.48 67.06 56.72 70.34 58.03 72.79 58.2 74.92 57.71 77.55 55.5 80.65 51.84 83.22 47.95 83.76 46.97 83.94 45.17 96.43 36.74 108.45 42.42 107.68 44.79 106.15 47.64 104.44 50.89 102.56 56.29 101.86 60.8 100.98 65.89 100.01 68.36 97.68 70.06 97.23 72.08 68.49 81.22 53.17 71.57 46.56 58.98 47.06 48.04"/><polygon class="cls-3" points="42.36 45.27 51.52 41.51 56.91 37.31 60.24 34.07 65.24 31.76 70 30.2 72.03 29.61 76.6 26.95 78.4 25.49 79.21 23.12 78.24 20.72 80.26 20.9 81.35 22.31 84.16 24.14 84.7 25.01 83.18 26.43 80.17 28.91 79.5 29.11 72.13 34.69 71.59 35.62 72.24 37.26 92.53 45.63 105.72 43.79 107.89 44.01 111.3 41.58 112.44 37.01 113.17 35.07 116.6 31.79 120.02 29.89 121.89 28.25 123.72 25.49 123.04 19.92 122.51 17.36 128.83 12.4 134.07 8.18 134.77 7.01 133.94 5.36 120.32 0.25 116.64 0.88 112.45 3.87 108.96 6.35 107.14 7.91 104.38 10.18 100.83 12.71 97.5 14.98 94.29 17.44 93.22 18.32 91.54 19.57 91.47 19.73 91.41 19.92 91.31 20.03 90.94 20.15 89.43 21.37 88.94 21.08 82.21 14.72 75.51 10.34 74.71 9.85 73.59 5.59 71.61 4.43 67.28 4.97 58.64 7.39 54.61 8.04 50.21 7.96 46.68 9.1 40.67 16.17 31.23 24.89 37.39 39.92 40.8 43.2 42.36 45.27"/><path class="cls-4" d="M1309.38,629.12h-.33" transform="translate(-1308.8 -590.91)"/><path class="cls-4" d="M1398,612.25c-.91-1-1.77-2-2.75-3-1.21-1.15-2.5-2.22-3.79-3.29a31.92,31.92,0,0,0-2.85-2.21c-1.36-.9-2.8-1.69-4.2-2.52h-.07c-.52,0-.6-.41-.71-.81a22.85,22.85,0,0,0-1-3.33,2.89,2.89,0,0,0-1.85-1.6,4.7,4.7,0,0,0-2.44,0c-1,.17-2,.42-3,.65s-2,.48-3,.75c-1.51.4-3,.89-4.51,1.23a30,30,0,0,1-3.88.59c-1.36.11-2.73.07-4.1.09a8.1,8.1,0,0,0-2.84.55,6.52,6.52,0,0,0-2.54,1.86c-.89,1-1.69,2.12-2.6,3.12-1.38,1.51-2.79,3-4.25,4.43s-2.83,2.69-4.28,4c-1.61,1.45-3.26,2.87-4.91,4.29s-3,2.59-4.54,3.87a28.24,28.24,0,0,1-4.47,3.13,9.84,9.84,0,0,1-2.62,1c-.63.15-1.28.21-1.92.32a14.22,14.22,0,0,0-4.94,1.66,9.56,9.56,0,0,1-3.22,1.15" transform="translate(-1308.8 -590.91)"/><path class="cls-5" d="M1309.16,652.27s-.06.07-.09.11" transform="translate(-1308.8 -590.91)"/><path class="cls-5" d="M1387.26,611.81a15.91,15.91,0,0,1,.61,1.54,3.21,3.21,0,0,1-1.2,3.55,36.82,36.82,0,0,1-4.92,3.17,14.14,14.14,0,0,1-3.24,1.19c-.93.27-1.85.58-2.77.88a37.73,37.73,0,0,0-4.73,1.63,9.59,9.59,0,0,0-2.5,1.67c-1.17,1.12-2.29,2.28-3.44,3.42A20.81,20.81,0,0,1,1361,632a36.33,36.33,0,0,1-4.53,2.19c-1.85.76-3.71,1.47-5.62,2a29.27,29.27,0,0,1-4.25.93,10,10,0,0,1-1.1.08l-1.78.07a.22.22,0,0,1-.14,0c-.53-.37-1,0-1.44.15a14.17,14.17,0,0,1-3.18.88c-.72.11-1.46.13-2.18.23a5.84,5.84,0,0,0-2.58,1.11c-1.21.88-2.39,1.8-3.59,2.69a31.32,31.32,0,0,1-5.13,3.14q-3.56,1.73-7.24,3.18" transform="translate(-1308.8 -590.91)"/><path class="cls-5" d="M1372,617.49a.57.57,0,0,1,0,.68,5,5,0,0,1-1.73,2.32.35.35,0,0,0-.15.25,1.85,1.85,0,0,0,1.29,1.88c.07,0,.18.07.22,0,.35-.28.82-.08,1.18-.29a3.7,3.7,0,0,0,1.4-1.29,13,13,0,0,0,.59-1.18,3.11,3.11,0,0,0,.08-.44,2.06,2.06,0,0,1,.23-.55,7.26,7.26,0,0,1,.89-1.1c.37-.37.62-.81,1-1.19s.74-.82,1.06-1.26a5.65,5.65,0,0,0,1.2-3.21,20.12,20.12,0,0,0-.3-4.1c-.28-1.76-.49-3.52-.75-5.28a9.91,9.91,0,0,0-.59-2.4,2.61,2.61,0,0,0-2.28-1.8,5.17,5.17,0,0,0-1,.07l-2.48.22c-1.41.13-2.81.27-4.21.54a23.37,23.37,0,0,0-4.17,1.28,24.81,24.81,0,0,1-4.21,1.25c-1.14.23-2.27.5-3.4.77a2,2,0,0,0-.48.26h0v0" transform="translate(-1308.8 -590.91)"/><path class="cls-4" d="M1424.59,616.53s-.13-.09-.14-.15c-.17-.94-.36-1.89-.47-2.84s-.16-1.87-.23-2.8-.22-1.88-.21-2.81a5.05,5.05,0,0,1,1.84-4,3.14,3.14,0,0,1,2.87-.68,2.06,2.06,0,0,1,1.33,1A21.13,21.13,0,0,1,1431,608a37.37,37.37,0,0,1,1.3,5.1,15.56,15.56,0,0,1,.2,2.55,4.33,4.33,0,0,1-1.25,2.87,16.17,16.17,0,0,1-4.9,3.62,9.79,9.79,0,0,0-2.32,1.6c-.63.6-1.24,1.22-1.81,1.88a4.93,4.93,0,0,0-1,2.61,28.52,28.52,0,0,1-.6,3.06,3.41,3.41,0,0,1-1.43,1.85c-.58.42-1.21.78-1.8,1.19a7.44,7.44,0,0,0-.67.59s-.07.05-.07.07c.06.6-.36,1-.61,1.47a57.54,57.54,0,0,0-2.6,5.14c-.35.81-.73,1.61-1,2.44a22.57,22.57,0,0,0-1.07,3.69c-.2,1.14-.35,2.29-.53,3.43s-.37,2.47-.59,3.69c-.16.86-.34,1.71-.58,2.55-.33,1.14-4.25,11.51-15.41,11.51" transform="translate(-1308.8 -590.91)"/><path class="cls-4" d="M1392.65,636.54c-.05.37-.11.74-.14,1.11s0,.66-.36.9-.28.43-.42.65a40.56,40.56,0,0,1-5.73,7.56,9.73,9.73,0,0,1-2.39,1.83,5.76,5.76,0,0,1-2.85.53,11.17,11.17,0,0,1-4.76-1.47,29.18,29.18,0,0,1-3.84-2.47s-6.78-6.09-18.27-6.22" transform="translate(-1308.8 -590.91)"/><path class="cls-5" d="M1416.58,635a1.29,1.29,0,0,0-.4.08c-.47.28-.91.59-1.37.88a5.27,5.27,0,0,0-1.6,1.69,20.1,20.1,0,0,1-2.83,3.66,13.43,13.43,0,0,1-5.51,3.27,12.82,12.82,0,0,1-3.95.65,9,9,0,0,1-4.69-1.37l-.44-.29" transform="translate(-1308.8 -590.91)"/><path class="cls-4" d="M1443.24,598.74a24.33,24.33,0,0,0-4.8-2c-1.35-.45-2.7-.94-4.06-1.38-1.58-.5-3.16-1-4.77-1.44a4.88,4.88,0,0,0-2.65.09,11.43,11.43,0,0,0-3.65,2c-.67.52-1.37,1-2,1.54s-1.41,1.05-2.1,1.59l-5.36,4.13c-1.62,1.24-3.25,2.46-4.87,3.69l-3.91,3a1.48,1.48,0,0,0-.27.4" transform="translate(-1308.8 -590.91)"/><path class="cls-5" d="M1438.9,602.39c-.21-.08-.42-.18-.64-.25l-.52-.16c-1.06-.35-2.11-.72-3.18-1.06s-2.19-.66-3.28-1c-1.31-.42-2.61-.87-3.92-1.29s-2.6-.82-3.91-1.22a1.15,1.15,0,0,1-.85-.7" transform="translate(-1308.8 -590.91)"/><path class="cls-5" d="M1396.38,638.65a4,4,0,0,1-.69-.42,11.16,11.16,0,0,0-2.45-1.53c-.71-.35-1.33-.84-2-1.2a33.13,33.13,0,0,0-3.84-1.61c-1.23-.45-2.46-.87-3.69-1.3-.6-.21-1.22-.39-1.81-.63a2.06,2.06,0,0,1-1.51-2.51,9.77,9.77,0,0,1,.28-1.41,1.67,1.67,0,0,1,1-1,7.06,7.06,0,0,1,.92-.15,4.54,4.54,0,0,1,1.68.13c.68.19,1.37.34,2,.56,1.7.53,3.4,1.11,5.1,1.65a26.79,26.79,0,0,1,3.87,1.52,28.44,28.44,0,0,1,3.84,2.36l.67.48" transform="translate(-1308.8 -590.91)"/><path class="cls-5" d="M1363.33,613.8a2.65,2.65,0,0,1-.6,1.25,16,16,0,0,1-4.79,4.51,12.07,12.07,0,0,1-1.11.62,1.14,1.14,0,0,0-.62.64,22.88,22.88,0,0,1-2.3,4.24c-.75,1.13-1.55,2.24-2.32,3.36" transform="translate(-1308.8 -590.91)"/><path class="cls-5" d="M1409.79,630.86a28.59,28.59,0,0,1-3.14-3.36c-3.44-1.32-15.38-16.27-17.58-8.22a3.49,3.49,0,0,0,.46,2.83c3.47,5.3,10.32,8.29,14.83,13.58" transform="translate(-1308.8 -590.91)"/><path class="cls-5" d="M1393.58,618.53a3.09,3.09,0,0,0-1.62,1,5.08,5.08,0,0,0-1.12,1.65c-.16.37-.16.62.12.85a4.55,4.55,0,0,0,1.47.9,1.94,1.94,0,0,0,2.61-1,1.42,1.42,0,0,0,.11-.91,4.41,4.41,0,0,0-1.54-2.55" transform="translate(-1308.8 -590.91)"/><path class="cls-5" d="M1412.19,630.78a1.7,1.7,0,0,1-.15-.22,16.44,16.44,0,0,0-2.28-3.44c-.56-.64-1.26-1.13-1.79-1.8-.69-.87-1.4-1.73-2.1-2.59s-1.41-1.76-2.14-2.61c-1.11-1.31-2.27-2.57-3.35-3.89a5.22,5.22,0,0,1-1.06-2.24,2.86,2.86,0,0,1,.68-2.45l.69-.67a3.17,3.17,0,0,1,1.56-.73,3.93,3.93,0,0,1,1.74.07,8.58,8.58,0,0,1,3.58,2.23q2.76,2.41,5.46,4.91a27.32,27.32,0,0,1,2,2.14,16.32,16.32,0,0,1,2.08,3.39c.09.19.14.43.44.41" transform="translate(-1308.8 -590.91)"/><path class="cls-4" d="M1388.59,619.82a1.85,1.85,0,0,0-.48.19l-4.8,3.72c-.75.58-1.52,1.14-2.25,1.74a1.78,1.78,0,0,0-.68,1.4,1.19,1.19,0,0,0,.34.77" transform="translate(-1308.8 -590.91)"/><path class="cls-5" d="M1405.91,614.28a4.54,4.54,0,0,0-.81-2.33c-.34-.48-.46-.51-1-.26a5.94,5.94,0,0,0-2.66,2.63.57.57,0,0,0,.1.78,4.58,4.58,0,0,0,1.83,1.12,1.87,1.87,0,0,0,1.84-.42,1.92,1.92,0,0,0,.7-1.48" transform="translate(-1308.8 -590.91)"/><path class="cls-4" d="M1431.2,608.34c.83-.6,1.67-1.17,2.48-1.78,1.41-1.07,2.81-2.16,4.21-3.25.35-.27.65-.6,1-.88s.68-.42,1-.67c1-.78,2-1.53,2.95-2.37,1.1-1,1-2.33-.32-3.32a8.17,8.17,0,0,0-2.26-1.1c-.92-.34-1.84-.7-2.77-1s-1.6-.52-2.4-.78c-1-.34-2.06-.71-3.1-1s-2.09-.62-3.14-.88a4.83,4.83,0,0,0-2.58.23,11.42,11.42,0,0,0-3.47,1.91c-2.54,1.92-5,3.86-7.58,5.79l-5.5,4.21-5,3.8-3.5,2.7c-.23.17-.48.33-.7.52l-1,.74c-1.69,1.29-3.38,2.6-5.06,3.9-.53.41-1.07.81-1.59,1.23a2.61,2.61,0,0,0-.37.44" transform="translate(-1308.8 -590.91)"/><path class="cls-5" d="M1383.79,629.16a.83.83,0,0,0-.29.11,3.69,3.69,0,0,0-1.08,1.51c-.09.26,0,.42.26.52a5.24,5.24,0,0,0,2,.36,1,1,0,0,0,1-.62,1.09,1.09,0,0,0-.21-1.15,2.08,2.08,0,0,0-1.63-.75" transform="translate(-1308.8 -590.91)"/><path class="cls-5" d="M1389.25,622.18l-1.84,1.4c-1.12.85-3.06,2.3-4.17,3.16" transform="translate(-1308.8 -590.91)"/><path class="cls-4" d="M1383.94,601.21c-.17.45.08.85.19,1.25A59.31,59.31,0,0,1,1386,609c.07.38,0,.69.11,1.07l0,.48a4.87,4.87,0,0,1-1.27,2.84,24.8,24.8,0,0,1-1.81,2.28,4.42,4.42,0,0,0-.86,1.48,4.89,4.89,0,0,1-2.42,2.77,2.56,2.56,0,0,1-.7.12s0,0-.07,0c-1.15.18-1.64-.63-2.1-1.44-.18-.33-.3-.69-.45-1" transform="translate(-1308.8 -590.91)"/><path class="cls-5" d="M1369.5,620.52a11.74,11.74,0,0,1,.67-1.21c.36-.51.78-1,1.18-1.45a.53.53,0,0,1,.14-.11,7.67,7.67,0,0,0,2.1-2.4,5.83,5.83,0,0,0,1.07-2.92,3.31,3.31,0,0,0-.48-1.87,46.46,46.46,0,0,0-4-5.88,3.24,3.24,0,0,0-1.88-1.32,3.63,3.63,0,0,0-1.14,0,11.7,11.7,0,0,0-2.88.88c-1.31.6-2.6,1.25-3.92,1.84a8.57,8.57,0,0,1-2.58.78,38.68,38.68,0,0,0-4.39.86,11.47,11.47,0,0,0-1.19.54" transform="translate(-1308.8 -590.91)"/><path class="cls-5" d="M1388.77,611.58c.36.45.71.9,1.08,1.33a7.44,7.44,0,0,0,1.69,1.26c.53.35,1,.7,1.55,1.07a2.85,2.85,0,0,1,.41.44" transform="translate(-1308.8 -590.91)"/><path class="cls-5" d="M1423.78,612.77c-.19.13-.4.26-.59.4a21,21,0,0,0-2.8,2.7c-.2.23-.34.52-.53.77s-.3.43-.66.39-.44.2-.66.31a8.65,8.65,0,0,0-3,2.68" transform="translate(-1308.8 -590.91)"/><path class="cls-5" d="M1399.34,614.46c-.27.18-.56.33-.81.52-1.06.81-2.1,1.62-3.14,2.44-.21.16-.4.34-.6.51" transform="translate(-1308.8 -590.91)"/><path class="cls-5" d="M1367,611.66a2.16,2.16,0,0,1-1.29,1.76,4.32,4.32,0,0,1-2,.3c-.6-.06-1.18-.19-1.77-.25" transform="translate(-1308.8 -590.91)"/><path class="cls-5" d="M1382.35,616.35c-.28-.23-.55-.09-.77.08a8.89,8.89,0,0,0-2.1,2.14A2.67,2.67,0,0,0,1379,620" transform="translate(-1308.8 -590.91)"/><path class="cls-4" d="M1366.88,612.62a3.82,3.82,0,0,0,1.07,1.76c-.26.53-.55,1-.77,1.56a4.41,4.41,0,0,0-.39,2.4,2.75,2.75,0,0,0,1.86,2.1,1.15,1.15,0,0,0,.89.1c.15,0,.36.08.55.13" transform="translate(-1308.8 -590.91)"/><path class="cls-5" d="M1374.82,619.34a3.19,3.19,0,0,0-1.4,1.11,15.66,15.66,0,0,0-1.14,1.44,1.69,1.69,0,0,0-.16.51" transform="translate(-1308.8 -590.91)"/><path class="cls-5" d="M1392.39,638.42c.33.35.27.82.4,1.23a3.87,3.87,0,0,0,.93,1.65" transform="translate(-1308.8 -590.91)"/><path class="cls-5" d="M1408.38,625.91a2.6,2.6,0,0,0-.25.33,2,2,0,0,1-1.22,1.09c-.08,0-.15.09-.23.13" transform="translate(-1308.8 -590.91)"/><path class="cls-5" d="M1419.46,617.09l-.22.73c-.09.33-.17.67-.26,1" transform="translate(-1308.8 -590.91)"/><path class="cls-5" d="M1388.74,611.71a4.29,4.29,0,0,1-2.59-.42" transform="translate(-1308.8 -590.91)"/><path class="cls-5" d="M1428.51,604.46a4.51,4.51,0,0,0-2.79,1.85,1.43,1.43,0,0,0-.11,1.52,2.35,2.35,0,0,0,1.24,1.24,2.05,2.05,0,0,0,2.1-.73,2.38,2.38,0,0,0,.51-1.67,7.63,7.63,0,0,0-.23-1.65c-.15-.58-.15-.57-.68-.56" transform="translate(-1308.8 -590.91)"/><ellipse class="cls-5" cx="1434.35" cy="598.39" rx="0.84" ry="0.49" transform="translate(-1169.53 866.67) rotate(-56.21)"/><g class="cls-6"><g class="cls-7"><path class="cls-3" d="M1432,596.16l-.17-.18-.06,0a1,1,0,0,0-1.15,0l-.2.19-.59.74a.88.88,0,0,0-.07,1.09v0l.17.17.06,0a1,1,0,0,0,1.15-.06l.19-.18.6-.73a.91.91,0,0,0,.06-1.11" transform="translate(-1308.8 -590.91)"/><path class="cls-8" d="M1429.74,598a.88.88,0,0,1,.07-1.09l.59-.74.2-.19a1,1,0,0,1,1.15,0l.06,0,.17.18a.91.91,0,0,1-.06,1.11l-.6.73-.19.18a1,1,0,0,1-1.15.06l-.06,0-.17-.17v0m2.64-2.15a1.07,1.07,0,0,0-.26-.26l-.06,0a1.48,1.48,0,0,0-1.73.08,1.53,1.53,0,0,0-.29.28l-.6.73a1.37,1.37,0,0,0-.09,1.68,1.28,1.28,0,0,0,.26.26l.05,0a1.52,1.52,0,0,0,1.74-.08,1.92,1.92,0,0,0,.29-.28l.59-.73a1.36,1.36,0,0,0,.1-1.68" transform="translate(-1308.8 -590.91)"/></g></g><line class="cls-4" x1="102.41" y1="12.66" x2="109.17" y2="7.49"/><line class="cls-5" x1="100.23" y1="14.2" x2="97.81" y2="16.1"/><path class="cls-5" d="M1388.74,610.07a2.42,2.42,0,0,0,.38,1.95" transform="translate(-1308.8 -590.91)"/></svg>