<svg id="Capa_1" data-name="Capa 1" xmlns="http://www.w3.org/2000/svg" xmlns:xlink="http://www.w3.org/1999/xlink" viewBox="0 0 279.52 301.58"><defs><style>.cls-1,.cls-2{fill:none;}.cls-2{stroke:#000;stroke-linecap:round;stroke-linejoin:round;stroke-width:0.5px;}.cls-3{isolation:isolate;}.cls-4{clip-path:url(#clip-path);}.cls-5{clip-path:url(#clip-path-2);}</style><clipPath id="clip-path" transform="translate(-1518.22 -236.82)"><polygon class="cls-1" points="1597.97 398.66 1596.7 381.97 1616.22 382.5 1617.48 399.19 1597.97 398.66"/></clipPath><clipPath id="clip-path-2" transform="translate(-1518.22 -236.82)"><polygon class="cls-1" points="1552.53 252.15 1550.08 242.63 1574.94 239.55 1577.38 249.06 1552.53 252.15"/></clipPath></defs><title>emergencia-mano</title><path class="cls-2" d="M1623.77,301.89c-.37-1.43-15.84-51.64-17.15-55.07a14.61,14.61,0,0,0-8.93-8.59c-3.72-1.41-7.56-1.11-11.41-1.16,0,0-54.46.11-57.14.91-3.84,1.14-5.77,3.3-6.12,6.79a11.48,11.48,0,0,0,.2,3.41c1,5,25.81,110.24,26.67,113.87" transform="translate(-1518.22 -236.82)"/><path class="cls-2" d="M1523.26,243.4c-1.64,5.93-1.85,11.24-1.26,13.78,1.38,5.95,12.79,53.19,14.34,59.65,1.67,7,3.43,14,5.13,20.94.93,3.79,3.94,16.71,5,20.47" transform="translate(-1518.22 -236.82)"/><path class="cls-2" d="M1592.33,404.78l4.87-.56c7.42-.82,14.83-1.61,22.24-2.44,5.31-.6,10.62-1.2,15.91-1.88,4.5-.59,9.88-1.12,13.83-3.79a4.63,4.63,0,0,0,1.58-2.13" transform="translate(-1518.22 -236.82)"/><path class="cls-2" d="M1641.31,402.51a45.14,45.14,0,0,1-4.8,14.21c-3.4,6.58-8.07,12.31-12,18.5a30.77,30.77,0,0,0-5.06,13.19,2.56,2.56,0,0,1-.22.62" transform="translate(-1518.22 -236.82)"/><path class="cls-2" d="M1642,459.64c1.15,4.49,3.55,8.38,5.76,12.39,1.89,3.43,4.94,4.62,8.44,5.08,9.9,1.28,17.36,6.72,23.91,13.8a47,47,0,0,1,3.54,3.8,73.67,73.67,0,0,1,4.64,7.08c4.47,7.9,7.91,16.28,11.31,24.68,1.38,3.43,2.65,6.91,3.94,10.38a6.18,6.18,0,0,1,.19,1.3" transform="translate(-1518.22 -236.82)"/><path class="cls-2" d="M1538,323.49c-2.26-.37-5-.91-7.22-1.19-2.89-.35-5.6,1.07-7.66,2.89-3.15,2.78-4.88,6-4.58,10.44a14,14,0,0,0,7,11.6h0a13,13,0,0,0,2,1l18.25,7.31" transform="translate(-1518.22 -236.82)"/><path class="cls-2" d="M1554,390.65c-3.1-.95-6.26-1.71-9.28-2.87-5.34-2-9.43-5.75-13-10.22-3.93-4.94-3.7-10.23-2-15.8,0,0,1.45-4.8,6.24-6a10.9,10.9,0,0,1,4.84-.09,13.13,13.13,0,0,1,7.76,4.8c5.8,7.38.93,16.88.36,18.42" transform="translate(-1518.22 -236.82)"/><path class="cls-2" d="M1551.41,368.87c.65,2.22,1.64,5.07,2.18,7.31,1.56,6.46,2.8,13,4.61,19.4a15.18,15.18,0,0,0,8.29,9.61,6.24,6.24,0,0,0,1.3.45" transform="translate(-1518.22 -236.82)"/><path class="cls-2" d="M1614.91,450a4.62,4.62,0,0,0,4.13,4.52,2,2,0,0,1,1.16.91c1.66,2.95,4.31,4.83,7.16,6.36a24.38,24.38,0,0,1,5.84,4.6c3.06,3.13,6.83,4.89,10.84,6.34,1.46.53,2.84,1.31,4.28,1.89a3.43,3.43,0,0,0,1.28,0" transform="translate(-1518.22 -236.82)"/><path class="cls-2" d="M1624.26,320c.4,1.77,13.88,45.85,16.21,53.37a.76.76,0,0,1-.65,1l-21.17,2.07q-15.48,1.5-31,3c-5.52.56-11,1.2-16.55,1.79-2.75.3-5.51.54-8.27.84-.81.08-1.28,0-1.51-1-1.11-4.36-6.42-25.42-7.49-29.71-1.24-4.95-2.51-9.9-3.76-14.85q-2.64-10.54-5.29-21.11c-1.38-5.51-2.8-11-4.2-16.51q-2.32-9.15-4.64-18.32-2.49-9.81-5-19.63c-.57-2.28-1.1-4.57-1.67-6.93,3.48-.1,6.75-.24,10-.28,3.68,0,7.37,0,11.06,0s7.16,0,10.74-.06,7.4-.25,11.1-.32c3.2-.06,6.41,0,9.61,0,3.59-.05,7.18-.15,10.77-.21,3,0,6.1,0,9.14-.12,1.16-.05,1.62.23,2,1.37,1.5,5,14.33,45.09,16.64,52.63" transform="translate(-1518.22 -236.82)"/><path class="cls-2" d="M1685.47,449.53a78.77,78.77,0,0,1-9.54,21.06c-1.82,2.91-3,6.24-4.32,9.42a13,13,0,0,0-.51,2.82" transform="translate(-1518.22 -236.82)"/><path class="cls-2" d="M1613.06,418.36a28.45,28.45,0,0,0-2.59-2.67c-2.52-2-5.45-2.07-8.46-1.62-.28,0-.65.3-.81.19-2.3-1.47-5.51-1.56-6.87-4.44-.68-1.44-1.23-2.94-1.92-4.38a19.37,19.37,0,0,0-8.33-8.47,17.2,17.2,0,0,0-7.24-2.47c-6.73-.48-10.77,4.94-9,11.34a20.08,20.08,0,0,0,2.27,5.1,16,16,0,0,1,1.23,3.63c.33,1.05.62,2.1.93,3.15,0,0,5.34,10.89,13.75,16.92s7.16,5.25,7.16,5.25a116.7,116.7,0,0,1,12.44,8.56,4.63,4.63,0,0,0,4.54,1" transform="translate(-1518.22 -236.82)"/><path class="cls-2" d="M1659.91,308.16c-.85,3.27-1.67,6.55-2.57,9.8a63.18,63.18,0,0,1-2.06,6.65c-1.32,3.31-.89,6.53,0,9.79a14.81,14.81,0,0,1,.3,1.64" transform="translate(-1518.22 -236.82)"/><path class="cls-2" d="M1643.4,420.7a74.42,74.42,0,0,0,3.63-7c1.78-4.4,3.42-8.88,3.82-13.65.23-2.81.14-5.65.19-8.48a21.25,21.25,0,0,0,0-3.19c-.26-2-1-4-1-6.06,0-3.34.12-6.51.34-9.85a59.64,59.64,0,0,1,2.06-11.66A38.36,38.36,0,0,1,1663,344.25" transform="translate(-1518.22 -236.82)"/><path class="cls-2" d="M1797.48,466.05c-15.63-21.68-41.24-57.16-42.26-58.75a87.07,87.07,0,0,1-9.08-19l-5.37-14.87c-1-2.68-1.9-5.43-3.12-8a73.38,73.38,0,0,0-11.64-17.2c-3.55-4-6.94-8.27-10.87-11.9a179.1,179.1,0,0,0-14.79-12c-7.79-5.8-15.75-11.38-23.69-17-2.31-1.62-4.73-3.1-7.18-4.5a15.71,15.71,0,0,0-9.9-1.61c-4,.48-8,1.26-12,1.61a57.27,57.27,0,0,1-13.15.1l-3.45-.67-2.17-.57a6.24,6.24,0,0,0-6.23,1.22,7.35,7.35,0,0,0-2.27,5.83l0,1c.27,3.94,1.35,7.8,4.19,10.44,2.23,2.08,3.54,4.72,5.57,6.82a28.61,28.61,0,0,0,11,6.88,43.9,43.9,0,0,0,12.19,2.68,7.32,7.32,0,0,0,1.64-.28" transform="translate(-1518.22 -236.82)"/><path class="cls-2" d="M1651,393.18c-.24.76-.5,1.45-.77,2.08-2.14,4.92-5.28,6.18-7.6,6.58-2.9.49-5.85.77-8.77,1.11l-16.24,1.84-20.45,2.31-3.57.4" transform="translate(-1518.22 -236.82)"/><path class="cls-2" d="M1650.63,393.8" transform="translate(-1518.22 -236.82)"/><path class="cls-2" d="M1550.37,375.19c.47,1.54,1,3.86,1.44,5.43,1.42,5.49,2.65,11.05,4.27,16.49a15.86,15.86,0,0,0,8.41,10.23,23.46,23.46,0,0,0,4,1.14" transform="translate(-1518.22 -236.82)"/><path class="cls-2" d="M1693.13,452.65A45.11,45.11,0,0,0,1682.84,467a7.66,7.66,0,0,0-.25.77" transform="translate(-1518.22 -236.82)"/><path class="cls-2" d="M1687.75,477.36a25.94,25.94,0,0,0-5.59,13.78,4.89,4.89,0,0,1-.43,1.07" transform="translate(-1518.22 -236.82)"/><path class="cls-2" d="M1634,330.29c.71,1.74,16.24,53.69,16.34,54.23" transform="translate(-1518.22 -236.82)"/><path class="cls-2" d="M1655.51,391.79a39.49,39.49,0,0,0,4.68,13.83,3,3,0,0,0,.57.55" transform="translate(-1518.22 -236.82)"/><path class="cls-2" d="M1615.71,452.8c-.38,0-.84.17-1.11,0a29.69,29.69,0,0,1-3.42-2.31c-1-.85-.81-1.83-.37-3.08,1.29-3.71,2.31-7.52,3.43-11.29,0,0,2-7.22,2-11.1" transform="translate(-1518.22 -236.82)"/><path class="cls-2" d="M1616,405.4c-2,3.82-2.35,8-2.53,12.21a11.32,11.32,0,0,1-.36,1.88" transform="translate(-1518.22 -236.82)"/><path class="cls-2" d="M1656,464.76a28.64,28.64,0,0,0,1,10.7,9.66,9.66,0,0,1,.15,1.62" transform="translate(-1518.22 -236.82)"/><path class="cls-2" d="M1650.59,326.65c.13,4.05,1.47,7.44,5.16,9.57a2.62,2.62,0,0,1,.85.9,20.27,20.27,0,0,0,10.4,8.71" transform="translate(-1518.22 -236.82)"/><path class="cls-2" d="M1668.46,344.05c-.87,1.07-1.74,2.15-2.62,3.22" transform="translate(-1518.22 -236.82)"/><path class="cls-2" d="M1601.64,414.5l1.56,1.78" transform="translate(-1518.22 -236.82)"/><g class="cls-3"><g class="cls-4"><path d="M1607.7,398.51c-.34,0-.7,0-1.06-.08-4.77-.6-8.51-4.11-8.81-8.09,0-.3,0-.6,0-.9.23-4,4-6.9,8.67-6.78.34,0,.7,0,1.06.08,4.76.59,8.5,4.12,8.81,8.09a9,9,0,0,1,0,.9c-.24,4-4,6.9-8.67,6.78m-1.25-16.27c-4.9-.14-8.88,2.89-9.12,7.14a5.9,5.9,0,0,0,0,.94c.31,4.2,4.26,7.9,9.28,8.52a10.81,10.81,0,0,0,1.11.09c4.91.13,8.89-2.9,9.13-7.14a7.51,7.51,0,0,0,0-1c-.31-4.18-4.26-7.9-9.28-8.52-.38,0-.75-.07-1.12-.08" transform="translate(-1518.22 -236.82)"/><path d="M1607.56,396.63a7.36,7.36,0,0,1-.81-.06c-3.64-.45-6.5-3.14-6.73-6.17a4,4,0,0,1,0-.69c.17-3.07,3.06-5.27,6.61-5.17a7.73,7.73,0,0,1,.81.06c3.64.45,6.5,3.14,6.73,6.17a4,4,0,0,1,0,.69c-.17,3.08-3.07,5.27-6.61,5.17m-1-12.52c-3.8-.1-6.89,2.25-7.08,5.54a5.93,5.93,0,0,0,0,.73c.24,3.25,3.31,6.12,7.2,6.61a8.28,8.28,0,0,0,.86.06c3.79.1,6.89-2.24,7.08-5.53a6.06,6.06,0,0,0,0-.74c-.25-3.24-3.31-6.12-7.2-6.6a8.54,8.54,0,0,0-.86-.07" transform="translate(-1518.22 -236.82)"/></g></g><g class="cls-3"><g class="cls-5"><path d="M1559.22,246a1.61,1.61,0,0,0-1.53,1.68l.07.5,0,.19a2.1,2.1,0,0,0,2.11,1.4l15.29-.41,0-.21,0-.21-15.29.42a1.58,1.58,0,0,1-1.57-1l0-.14-.06-.51a1.18,1.18,0,0,1,1.14-1.24l.17,0,15.28-.41a1.58,1.58,0,0,1,1.57,1.05l0,.14.06.51a1.18,1.18,0,0,1-1.14,1.24h-.16l0,.21,0,.21h.21a1.58,1.58,0,0,0,1.53-1.68l-.06-.51,0-.18a2.09,2.09,0,0,0-2.11-1.4l-15.29.41h-.22" transform="translate(-1518.22 -236.82)"/><path d="M1554.11,249.45l-.2,0a1.86,1.86,0,0,1-1.89-1.26l0-.16a1.41,1.41,0,0,1,1.37-1.51h.2a1.87,1.87,0,0,1,1.9,1.25l0,.17a1.41,1.41,0,0,1-1.37,1.5m-.86-3.32a1.82,1.82,0,0,0-1.76,1.93l0,.21a2.4,2.4,0,0,0,2.44,1.62l.25,0a1.82,1.82,0,0,0,1.76-1.94l0-.2a2.42,2.42,0,0,0-2.43-1.63l-.26,0" transform="translate(-1518.22 -236.82)"/><path d="M1567.07,244h-.2a1.87,1.87,0,0,1-1.89-1.26l0-.17a1.43,1.43,0,0,1,1.38-1.5l.2,0a1.87,1.87,0,0,1,1.89,1.26l0,.17a1.44,1.44,0,0,1-1.38,1.51m-.86-3.34a1.84,1.84,0,0,0-1.76,1.94l0,.21a2.39,2.39,0,0,0,2.42,1.62l.26,0a1.83,1.83,0,0,0,1.76-1.93l0-.22a2.42,2.42,0,0,0-2.43-1.62l-.26,0" transform="translate(-1518.22 -236.82)"/></g></g><path class="cls-2" d="M1593,412.63s-.31,8.14-3.77,9.07" transform="translate(-1518.22 -236.82)"/><path class="cls-2" d="M1684.77,427.66s11.54,16.17,39.3,17.27" transform="translate(-1518.22 -236.82)"/></svg>