<svg id="Capa_1" data-name="Capa 1" xmlns="http://www.w3.org/2000/svg" viewBox="0 0 222.68 300.09"><defs><style>.cls-1{fill:#fff;}.cls-2{fill:none;stroke:#000;stroke-linecap:round;stroke-linejoin:round;stroke-width:0.5px;}</style></defs><title>emergencia-enfermera</title><polygon class="cls-1" points="57.05 184.59 50.75 182.23 44.07 178.77 41.23 176.45 39.58 173.54 39.58 171.84 43.12 165.84 47.57 159.18 50.36 153.32 52.02 148.11 53.17 144.18 55.92 137.73 59.49 130.88 62.24 124.66 63.75 119.99 65.79 114.47 67.92 110.23 70.31 106.88 71.71 105.47 74.73 103.17 79.97 100.72 89.43 97.67 96.44 95.5 98.1 94.93 98.39 93.27 99.62 91.19 97.33 87.54 93.75 81.08 90.75 74.48 88.89 68.2 88.53 63.84 89.61 59.8 91.32 57.17 95.24 54.84 96.06 54.71 95.49 52.32 94.71 48.91 94.57 46.22 95.76 44.17 96.91 43.41 95.76 37.56 95.52 34.98 95.89 33.75 95.37 30.81 95.76 25.66 97.23 20.05 100.82 13.65 105.41 7.97 107.08 6.57 110.68 3.62 116.15 1.19 119.15 0.45 123.53 0.24 128.21 1.83 131.63 4.29 157.42 7.11 166.37 191.89 57.05 184.59"/><path class="cls-2" d="M1792,476.8a31,31,0,0,0-21,1c-.21-1.2-.41-2.39-.62-3.58a32.35,32.35,0,0,1,21.86-1.08C1792.19,474.38,1792.11,475.59,1792,476.8Z" transform="translate(-1652.61 -296.69)"/><path class="cls-2" d="M1755.4,394.44c-5.91,45.87-26.3,54.37-18.7,86.11.74,15.46-16.31,26.61-.18,38.06" transform="translate(-1652.61 -296.69)"/><path class="cls-2" d="M1753.46,390.64c-23.39,8.93-30.48,4.94-37.47,27.67-3.08,10.77-9.44,16.95-11.75,28.32-2.14,8.47-7.8,14.06-11.87,22-1.68,7.82,22,14.57,27,15.1" transform="translate(-1652.61 -296.69)"/><path class="cls-2" d="M1751.81,437.6a59.6,59.6,0,0,0-4.14,20.16c-2,67.51-22.67,30.43-4.48,80.31" transform="translate(-1652.61 -296.69)"/><path class="cls-2" d="M1764.59,552.94c-2-20.33-.27-39.9,2.21-59.21,3.32-2.6,7.91-4,10.65-2.55,0,0,.46-2,.89-5.22" transform="translate(-1652.61 -296.69)"/><path class="cls-2" d="M1809.27,377.79c3.61,11.47,14.73,18.07,25.48,23.77,21.92,11.7,26.71,16.86,28.63,41.36,3,17.34,6.1,34.43,10.8,52" transform="translate(-1652.61 -296.69)"/><path class="cls-2" d="M1766.6,494.05c-9.17,10.5-6.67,27.43-7.11,41.69-1.13,19.7,6.62,24.15,18.2,6.87,5.11-9.17,3.63-18.24,4.21-29" transform="translate(-1652.61 -296.69)"/><path class="cls-2" d="M1723.45,411.1c-1.85,26.14-13.43,54.16-.91,80.76,2.24,6.26-.19,14.74,7.23,19.5" transform="translate(-1652.61 -296.69)"/><path class="cls-2" d="M1819.08,391.63c-13.41,14.78-32.75,25.92-40.49,46.32-1,7.59,1.47,24.51,1.63,33.27" transform="translate(-1652.61 -296.69)"/><path class="cls-2" d="M1848.61,427.84c-22.33,39.36-39.69,44.17-.36,46.24" transform="translate(-1652.61 -296.69)"/><path class="cls-2" d="M1831.66,435.23c-3,17.62-19.52,31.21-17.52,50.7" transform="translate(-1652.61 -296.69)"/><path class="cls-2" d="M1775.51,485.43c-29.14,8.63-19.87,46.53-20.18,69.95" transform="translate(-1652.61 -296.69)"/><path class="cls-2" d="M1865.63,499.29c1.07,11.22,3.1,41.87-14.45,37-19.18-5.4-36.21-15-51.87-27.36-4.78-1.8-8.94,4.45-14.39,5.27" transform="translate(-1652.61 -296.69)"/><path class="cls-2" d="M1750.45,350.85c-22.15,5.56,2,35.14,7,46.54,6.43,7.86,6.48,19.51,16.28,25" transform="translate(-1652.61 -296.69)"/><path class="cls-2" d="M1746.43,398.89c-7.65,11.38-13.93,23.9-15.52,38.43" transform="translate(-1652.61 -296.69)"/><path class="cls-2" d="M1680.22,554.52c-3.31-4.26-9.54-9-15.88-5.5,3.31,7.7,13.34,10.55,20.4,15.12" transform="translate(-1652.61 -296.69)"/><path class="cls-2" d="M1806.31,330.38c-5.24-14.58-13.74-12.85-26.91-12.78-14.36-5.29-25.42,8.56-28.38,21.76" transform="translate(-1652.61 -296.69)"/><path class="cls-2" d="M1689.62,579.08c-11.67-4.4-24,3.23-36.69,4.59" transform="translate(-1652.61 -296.69)"/><path class="cls-2" d="M1805.38,337c5.81-14.13-4.19-41.31-23.05-38.71" transform="translate(-1652.61 -296.69)"/><path class="cls-2" d="M1781,317.74c1.92-2.53-.75-5.4-4.6-5.37-14.17-1.95-23.27,12.27-27.36,24.55" transform="translate(-1652.61 -296.69)"/><path class="cls-2" d="M1763.52,409c1.17,7.07-9.22,1.84-6,9.12,6.93,9.3-1.42,16.19-4.41,25.84-.29,26.08,4.4,5.85,13.18-3.36" transform="translate(-1652.61 -296.69)"/><path class="cls-2" d="M1798.7,369.45c-23.61,36.27-40.33,14-46.67-16.95" transform="translate(-1652.61 -296.69)"/><path class="cls-2" d="M1829.94,528.45c4.84,22.11,8.74,44.59,11.92,68.08" transform="translate(-1652.61 -296.69)"/><path class="cls-2" d="M1839.2,487.84c5.2-1.53,10.58-3.38,17.07-3.63-2.43-6.29-12.92-.84-16.28,3.09" transform="translate(-1652.61 -296.69)"/><path class="cls-2" d="M1796.33,562.92c-3.24-1.23-6.79-3.66-10.72-5.22-5.42,6.11,4.83,8.55,8.71,12.6,5.45,5.38,12.22,15.22-.64,17.54" transform="translate(-1652.61 -296.69)"/><path class="cls-2" d="M1798,556.24c-11.47-3.12-27.75-1.38-35.19,10.2" transform="translate(-1652.61 -296.69)"/><path class="cls-2" d="M1674.11,493.91l.57.1c8.64,18.32,8.71,33.75,7.18,54.64,5.23,6.16,12.07,10.41,18.25,16.64" transform="translate(-1652.61 -296.69)"/><path class="cls-2" d="M1750.59,352.72c-16,6,.08,25,4.27,35.23,7.43,16.88,19.73,28.86,37.24,12.2,4.17-6.84,7.37-13.25,12.79-20.26,7.8-7.45-.73-17.29,3.15-26.45" transform="translate(-1652.61 -296.69)"/><path class="cls-2" d="M1784.34,311.21c-14.8-12.32-32.56,6.64-36.26,21" transform="translate(-1652.61 -296.69)"/><path class="cls-2" d="M1780.25,320.4c14.06,4.14,11.59,1.82,16.36,16.09,12,12.64-3.55,32.63,4.53,48.33" transform="translate(-1652.61 -296.69)"/><path class="cls-2" d="M1684.17,580.87c-10.6,3.06-19.59,12.47-31.31,14.22" transform="translate(-1652.61 -296.69)"/><path class="cls-2" d="M1785.71,308.84c-11-17.08-31.35.54-36.56,13.93" transform="translate(-1652.61 -296.69)"/><path class="cls-2" d="M1777.23,471.36c-2.73-15.63-1-32.62-3.33-49.12-6.4,8.23-7,18.41-9,29.22-2.74,14.65-6.23,30.26-5.82,46.18" transform="translate(-1652.61 -296.69)"/><path class="cls-2" d="M1708.22,480.76c-4.31,17-12.38,32.51,3.74,44.17" transform="translate(-1652.61 -296.69)"/><path class="cls-2" d="M1754.76,558.83c-9.57-3.09-18-8.49-29.59-6.32" transform="translate(-1652.61 -296.69)"/><path class="cls-2" d="M1724.09,448.45c.62,14.46,2.85,30.12-.5,45.46" transform="translate(-1652.61 -296.69)"/><path class="cls-2" d="M1785.85,302.59c-14.53-17.28-41.37,8.85-37.41,27.87" transform="translate(-1652.61 -296.69)"/><path class="cls-2" d="M1875,494.26c-7.2,7.06-15.93,3.69-25.78,4.09-7.18.79-13.68,4.63-21.71,1.3.47-1.81.4-4.18,1.17-6.68" transform="translate(-1652.61 -296.69)"/><path class="cls-2" d="M1747.79,354.37c-3.38,25.07,15.43,24.19,7.54,34" transform="translate(-1652.61 -296.69)"/><path class="cls-2" d="M1781.83,314.66c17-19.55-19.43-23.16-31,1.29" transform="translate(-1652.61 -296.69)"/><path class="cls-2" d="M1799.28,577.5c-4.69-.27-20.85-19-20.51-7.84,3.94,6.13,11.29,9.67,15.26,16.69-3.5,10.36-15.7,6.52-23.72,2.49-7.31-2.42-12.28-5.16-10-13.71" transform="translate(-1652.61 -296.69)"/><path class="cls-2" d="M1837.77,501.52c5.57,2.05,24,4,23.41,12.42" transform="translate(-1652.61 -296.69)"/><path class="cls-2" d="M1834.54,417.21c-6.36,7.22-16.62,10.32-25.5,15.19l0,0" transform="translate(-1652.61 -296.69)"/><path class="cls-2" d="M1808.11,489.74c3.54,9,5,17.87-8.47,19.25" transform="translate(-1652.61 -296.69)"/><path class="cls-2" d="M1805.38,320.47c-4.68-8.77-15.17-7.34-23.62-4.88" transform="translate(-1652.61 -296.69)"/><path class="cls-2" d="M1682.66,557.68c7.85,5.39,15.1,12.13,24.2,17.09" transform="translate(-1652.61 -296.69)"/><path class="cls-2" d="M1715.05,550.06c1.85,15-28.4,36.81,45.38,32.75" transform="translate(-1652.61 -296.69)"/><path class="cls-2" d="M1780.18,319.47c-8.26-1.07-17.83,3.68-22.55,11.27" transform="translate(-1652.61 -296.69)"/><path class="cls-2" d="M1801.29,351.14c9-2.76,17.46,6.47,13.75,16.07-3.32,5.39-.89,8.46-.91,15.24" transform="translate(-1652.61 -296.69)"/><path class="cls-2" d="M1780.75,318c-.13.49,0,1.09-.5,1.44-6.76,6.35-20.15,6.6-26.72,15.37" transform="translate(-1652.61 -296.69)"/><path class="cls-2" d="M1714.69,553.94c-5.18,5.16-9.15,13.58-6,21.83" transform="translate(-1652.61 -296.69)"/><path class="cls-2" d="M1775.15,448.73c-5.16,9.38-5.31,21.25-6.79,32.5,2,1.9,3.57,2,6.36,4.27" transform="translate(-1652.61 -296.69)"/><path class="cls-2" d="M1713.47,530.32c-4.22,3.47-4,8.91-4.6,14.66a56.24,56.24,0,0,0-9.64,12c-5.53-4.16-10.48-11-16.86-15.44" transform="translate(-1652.61 -296.69)"/><path class="cls-2" d="M1749.44,353.44c3,4.29.85,9,2.29,14.71,1,5.18,6.11,6.94,7.69,12.14" transform="translate(-1652.61 -296.69)"/><path class="cls-2" d="M1675.37,529.85c1.78,1.66,6.33,24.32-1,15.4" transform="translate(-1652.61 -296.69)"/><path class="cls-2" d="M1780.61,319.25c4,3,9.68-1.68,14.34,2.14,4.35,5.57,12.37,13.14,9.14,20.56" transform="translate(-1652.61 -296.69)"/><path class="cls-2" d="M1710.16,596.49c-2-3.44-5.55-2.19-9.42-4.71-2.44-7.67-1.61-17.7-11.33-21.82" transform="translate(-1652.61 -296.69)"/><path class="cls-2" d="M1667.22,488.16c2,.11,3.61,1.19,5.35,1.94-.15-6.06-14-4.85-19.6-6.5" transform="translate(-1652.61 -296.69)"/><path class="cls-2" d="M1792.1,400.91c4.5,1.76-9.16,21.29-13.5,20.68" transform="translate(-1652.61 -296.69)"/><path class="cls-2" d="M1696.3,462.45c5.46,4.67,13.1,6.6,20.68,8.62" transform="translate(-1652.61 -296.69)"/><path class="cls-2" d="M1804.59,359.54c1.43,6.42-1.37,13.25,0,20.4" transform="translate(-1652.61 -296.69)"/><path class="cls-2" d="M1669.59,497.35c1.34,6.61,9.25,12.44,7.9,20.25" transform="translate(-1652.61 -296.69)"/><path class="cls-2" d="M1701.4,524.43c-9.22-3.7-15.38,7.17-18.81,14.72" transform="translate(-1652.61 -296.69)"/><path class="cls-2" d="M1803.8,362.13c1.48,6-5.38,13.69-.64,20" transform="translate(-1652.61 -296.69)"/><path class="cls-2" d="M1791.63,476.68c.42,4.58.29,6.42-5.85,7" transform="translate(-1652.61 -296.69)"/><path class="cls-2" d="M1752.67,362c.49,6.9,5.65,13.2,9.48,19.68" transform="translate(-1652.61 -296.69)"/><path class="cls-2" d="M1709.52,552.94c-5.26,7-7.68,19.61,1.79,25.63" transform="translate(-1652.61 -296.69)"/><path class="cls-2" d="M1705.85,530.17A40.19,40.19,0,0,0,1689.91,548" transform="translate(-1652.61 -296.69)"/><path class="cls-2" d="M1827.57,499.51c-9.41-2.12-17-11.79-27.2-12.58-2.52-1.82-4.54-5.28-8.56-6.38" transform="translate(-1652.61 -296.69)"/><path class="cls-2" d="M1726.89,550.21c24.34-2.2,19,6.31,38.28,12.64" transform="translate(-1652.61 -296.69)"/><path class="cls-2" d="M1688.55,509.06c-4.32-6.64-9-13.59-15.87-19" transform="translate(-1652.61 -296.69)"/><path class="cls-2" d="M1683.45,580.87c-5.34-2.33-12.73,1.59-18.82,3.16" transform="translate(-1652.61 -296.69)"/><path class="cls-2" d="M1670.67,546.33c-5-4.05-13.44,1.52-17.81,5.39" transform="translate(-1652.61 -296.69)"/><path class="cls-2" d="M1726.68,536.92c-6.63,3.69-2.59,25.19-11.49,20.33" transform="translate(-1652.61 -296.69)"/><path class="cls-2" d="M1728.4,402.92c-1.69,5.24-2.76,11.58-5.38,17.52" transform="translate(-1652.61 -296.69)"/><path class="cls-2" d="M1731.06,513.51c-4.65,1.26-14.85,2.22-14.65,9.77" transform="translate(-1652.61 -296.69)"/><path class="cls-2" d="M1828.94,482.85c-1.93,4.84.85,11.1,1.93,17.45" transform="translate(-1652.61 -296.69)"/><path class="cls-2" d="M1794,342.09c-3.85-2.74-8-3.78-13-.19-1,1-5,.81-4.07,2.61,5.11-.67,10.06-4.3,16.38-2.42" transform="translate(-1652.61 -296.69)"/><path class="cls-2" d="M1794.9,325.07c3.14,5.24,4.69,12.34,9.37,17.48a33.76,33.76,0,0,1-3.27,6.72" transform="translate(-1652.61 -296.69)"/><path class="cls-2" d="M1720.93,523.71c-15.55-4.06-22.67,23.18-12,19.68" transform="translate(-1652.61 -296.69)"/><path class="cls-2" d="M1802.08,365.43c-.12,5-3.54,11.17-.29,16.73" transform="translate(-1652.61 -296.69)"/><path class="cls-2" d="M1719.71,533.48c-2.83,5.33-3.7,10.41-5.12,17-5.06,5.67-6.16,1.34-5.72-5.2" transform="translate(-1652.61 -296.69)"/><path class="cls-2" d="M1808.47,351.14c1.69-3,5.5-15.94-2.94-12.57" transform="translate(-1652.61 -296.69)"/><path class="cls-2" d="M1766.1,404.57c1.65,5.12,3.2,15.79,11.85,13.79,3.31-.36,6-3.39,7.4-6.9" transform="translate(-1652.61 -296.69)"/><path class="cls-2" d="M1767.11,344.6c-.28,3.36,3.44,7.51,2,11.8-2.88,3.88.24,13.13,6,7.31" transform="translate(-1652.61 -296.69)"/><path class="cls-2" d="M1758.56,400c-1.59,13.93-8.09,28.73-5.53,43.74" transform="translate(-1652.61 -296.69)"/><path class="cls-2" d="M1837.34,548.7c2,10.68,6.37,35.95,8.81,47.83" transform="translate(-1652.61 -296.69)"/><path class="cls-2" d="M1698.17,523.42c-4.3-3.48-10.84-1.3-15.37,2.51" transform="translate(-1652.61 -296.69)"/><path class="cls-2" d="M1771.77,491.25c-2.17,6.79-.09,7.28,8.62,8.33" transform="translate(-1652.61 -296.69)"/><path class="cls-2" d="M1721.87,581.38c.29,4.39.32,9.72.5,15.15" transform="translate(-1652.61 -296.69)"/><path class="cls-2" d="M1791.09,401.12c0,1.17-.89,1.9-1.43,2.8-6.4,4.31-14.21,7.36-22.48,3.16" transform="translate(-1652.61 -296.69)"/><path class="cls-2" d="M1780.82,372.11c-4.31,1.28-11,2.51-16.08-.07" transform="translate(-1652.61 -296.69)"/><path class="cls-2" d="M1723.3,501.3c-3.33-3.62-8.61-7.57-14.43-3.88" transform="translate(-1652.61 -296.69)"/><path class="cls-2" d="M1728.62,582.52a68,68,0,0,0-.15,14" transform="translate(-1652.61 -296.69)"/><path class="cls-2" d="M1810.26,565.43c5.75-4.13.68-5.8-4.93-7.27-2.92-.61-8.76-4.69-9.8,1.86,1.68,8.59,20,8.47,6,21" transform="translate(-1652.61 -296.69)"/><path class="cls-2" d="M1810.91,385.68c-.76.84-1.18,2-2.23,2.59-4.2,5.61-10.29,8.32-15.29,14" transform="translate(-1652.61 -296.69)"/><path class="cls-2" d="M1766.6,345.25c-4.07-2.21-9.36-6.73-14-1.87" transform="translate(-1652.61 -296.69)"/><path class="cls-2" d="M1757.92,583.17c.42,3.84.37,8.36,1.14,13.36" transform="translate(-1652.61 -296.69)"/><path class="cls-2" d="M1814.32,368.52c-4.77,9.51-14.41,22.8-19,31.38" transform="translate(-1652.61 -296.69)"/><path class="cls-2" d="M1766.82,345.61c-3.79.1-8.36-4.09-13.14-2.37" transform="translate(-1652.61 -296.69)"/><path class="cls-2" d="M1781,572.76c-7.67,1.56,4.55,10.78,3.66,16.87" transform="translate(-1652.61 -296.69)"/><path class="cls-2" d="M1753.32,583.46c-.16,3.63-.14,8.52-.22,13.07" transform="translate(-1652.61 -296.69)"/><path class="cls-2" d="M1700.9,574.7c4.25,8.19,15.3,11.81,17.52,21.83" transform="translate(-1652.61 -296.69)"/><path class="cls-2" d="M1734.86,542.38l.92,3.83c9.12.79,18.38,6.25,23.93,14.34" transform="translate(-1652.61 -296.69)"/><path class="cls-2" d="M1798.06,307.83c-3.6-1.08-8.12.43-12.28,1.87" transform="translate(-1652.61 -296.69)"/><path class="cls-2" d="M1784,480.69c-3.55-1-8.2.21-12.15,2.86" transform="translate(-1652.61 -296.69)"/><path class="cls-2" d="M1766.39,439.69c-3.35.3-7.07,1.35-11.56.07" transform="translate(-1652.61 -296.69)"/><path class="cls-2" d="M1801.93,557.32c4.21,4.36,18.24,14.81,4.6,17.3" transform="translate(-1652.61 -296.69)"/><path class="cls-2" d="M1754.68,548.41c-7.28-6-12.79-10.21-23.48-4.52" transform="translate(-1652.61 -296.69)"/><path class="cls-2" d="M1749.37,340.29c-3.67,1.7-1.56,6.8-.65,10.78" transform="translate(-1652.61 -296.69)"/><path class="cls-2" d="M1688.76,583.1c2,3,6.65,5.11,10.92,6.68" transform="translate(-1652.61 -296.69)"/><path class="cls-2" d="M1733.5,540.51c8.13-3.66,12.5-2.08,20.9,3.45" transform="translate(-1652.61 -296.69)"/><path class="cls-2" d="M1802.65,313.72c-4.13-6.07-13.52-2.54-19.89,0" transform="translate(-1652.61 -296.69)"/><path class="cls-2" d="M1829.22,472.22c-3.87,5.31-.51,13.62,6.68,15.65" transform="translate(-1652.61 -296.69)"/><path class="cls-2" d="M1858.52,426.46c1.13,2.75,2.43,7.17,4.29,10.56" transform="translate(-1652.61 -296.69)"/><path class="cls-2" d="M1751,370.17c2,5.86,9.14,8.38,10.81,15.72l.25,0,1.22-4.28" transform="translate(-1652.61 -296.69)"/><path class="cls-2" d="M1836.4,531.54c1.42,5.63,2.91,12.93,1.65,19.6" transform="translate(-1652.61 -296.69)"/><path class="cls-2" d="M1707.58,555.16a21.55,21.55,0,0,0-7.4,10.78" transform="translate(-1652.61 -296.69)"/><path class="cls-2" d="M1807.46,360.76c2.37,2.53,2,6.8,2.67,11" transform="translate(-1652.61 -296.69)"/><path class="cls-2" d="M1715.05,582a94.88,94.88,0,0,1,4.45,10.27" transform="translate(-1652.61 -296.69)"/><path class="cls-2" d="M1770,502.52c2.69,1.39,6.35,2,10.27,2.3" transform="translate(-1652.61 -296.69)"/><path class="cls-2" d="M1782.26,372.4c-2.52,4.57-13.4,7.25-16.09.43" transform="translate(-1652.61 -296.69)"/><path class="cls-2" d="M1807.32,380.71c2.2,2.5,5.15,7.37,8.9,9.28" transform="translate(-1652.61 -296.69)"/><path class="cls-2" d="M1764.52,586.69c-.49,2.66,0,6.19.36,9.84" transform="translate(-1652.61 -296.69)"/><path class="cls-2" d="M1735.73,590.93c17,5.18,9.46-6.29-4.82-1.15" transform="translate(-1652.61 -296.69)"/><path class="cls-2" d="M1711.67,576.71a14.2,14.2,0,0,0,.07,1.74c2.18,2.06,5.69,4.82,9.48,2.78" transform="translate(-1652.61 -296.69)"/><path class="cls-2" d="M1768.33,492.9c-.19,6.31,1.39,16.35,11,15.62" transform="translate(-1652.61 -296.69)"/><path class="cls-2" d="M1778.31,438.18" transform="translate(-1652.61 -296.69)"/><path class="cls-2" d="M1777.81,427.33" transform="translate(-1652.61 -296.69)"/><path class="cls-2" d="M1689.91,518v.58a32.31,32.31,0,0,1,8.76.79" transform="translate(-1652.61 -296.69)"/><path class="cls-2" d="M1698,584c-2.81-.38-5.92-1.21-9.62-1.15" transform="translate(-1652.61 -296.69)"/><path class="cls-2" d="M1754.54,334.26c-2.27,5.42-1.84,12.39-3.24,18.75-2.51-2.05,2.14-8.7-2.83-10.45" transform="translate(-1652.61 -296.69)"/><path class="cls-2" d="M1810.62,380.94c4.29.26,7.19,5.65,7.4,10.34" transform="translate(-1652.61 -296.69)"/><path class="cls-2" d="M1707.86,528.16c-12.19-3.93-3.51-16-22.83-11" transform="translate(-1652.61 -296.69)"/><path class="cls-2" d="M1795.11,302.3a54.69,54.69,0,0,0-8.69,1.51" transform="translate(-1652.61 -296.69)"/><path class="cls-2" d="M1773.79,507.62c2.07,2.83,6.57,5.64,11,6.68" transform="translate(-1652.61 -296.69)"/><path class="cls-2" d="M1801.22,352.57c14.79-1.25,13.19,14.2,5.67,24.81" transform="translate(-1652.61 -296.69)"/><path class="cls-2" d="M1808,345.75c2.55-1.75.61-7.15-3.66-3.16" transform="translate(-1652.61 -296.69)"/><path class="cls-2" d="M1811.85,366.83c-1.43-1.78-1.76-5.95-4.53-7.58" transform="translate(-1652.61 -296.69)"/><path class="cls-2" d="M1711.67,578.5c-1.06,1.71,1.76,5,.65,8.08" transform="translate(-1652.61 -296.69)"/><path class="cls-2" d="M1711.53,588.77l5.53,7.69" transform="translate(-1652.61 -296.69)"/><path class="cls-2" d="M1765.46,384.75a10.93,10.93,0,0,0-4.46,7.54" transform="translate(-1652.61 -296.69)"/><path class="cls-2" d="M1681.87,549.06c-.91,1.92-.17,5-.29,7.54" transform="translate(-1652.61 -296.69)"/><path class="cls-2" d="M1693.43,514.66c-2.35.34-5.25-1.58-8.69-1.22" transform="translate(-1652.61 -296.69)"/><path class="cls-2" d="M1789.58,404c-1.43,5.91-7.32,9.25-11.49,14.29" transform="translate(-1652.61 -296.69)"/><path class="cls-2" d="M1765.81,384.17c.17,4.78-3.08,10.38-3.59,16.3" transform="translate(-1652.61 -296.69)"/><path class="cls-2" d="M1761.79,385.9c-1.26,2.45-1.61,5.87-2.87,9.55" transform="translate(-1652.61 -296.69)"/><path class="cls-2" d="M1805.53,350.49c-.07-1.47,1.49-5.9-2.37-4.88" transform="translate(-1652.61 -296.69)"/><path class="cls-2" d="M1768.47,481.84c-.57,1.46-.66,4.07-.64,6.75" transform="translate(-1652.61 -296.69)"/><path class="cls-2" d="M1788.1,349.53c-1.06,1.47-4.4,2.47-8.81.39" transform="translate(-1652.61 -296.69)"/><path class="cls-2" d="M1780.39,471" transform="translate(-1652.61 -296.69)"/><path class="cls-2" d="M1674.76,511.21c.69,2.06,1.88,4.52,2.8,7.47" transform="translate(-1652.61 -296.69)"/><path class="cls-2" d="M1760.57,550.93c-.06,2.78.2,6.07.36,10.05" transform="translate(-1652.61 -296.69)"/><path class="cls-2" d="M1681.87,556.67c1.7,4.75,4.58,9.11,7.4,14.15" transform="translate(-1652.61 -296.69)"/><path class="cls-2" d="M1779.1,482.85c-7.25,3,7.56,0,8.47,2.87" transform="translate(-1652.61 -296.69)"/><path class="cls-2" d="M1682.73,508.27c6.73-.95,9.17,4.79,13.43,7.83" transform="translate(-1652.61 -296.69)"/><path class="cls-2" d="M1723.81,520a19.78,19.78,0,0,0-6.18,3.24" transform="translate(-1652.61 -296.69)"/><path class="cls-2" d="M1766.75,359.25a2.78,2.78,0,0,0,1,5.17" transform="translate(-1652.61 -296.69)"/><path class="cls-2" d="M1743.12,541.37c-.1,1.39-.25,3.75-.43,6" transform="translate(-1652.61 -296.69)"/><path class="cls-2" d="M1800.79,502.16a22.1,22.1,0,0,1-3.59,6.11" transform="translate(-1652.61 -296.69)"/><path class="cls-2" d="M1797.2,306c-2.55,0-6.3-.53-9.48,1.29" transform="translate(-1652.61 -296.69)"/><path class="cls-2" d="M1791.09,481.62a11.33,11.33,0,0,0-7-.86" transform="translate(-1652.61 -296.69)"/><path class="cls-2" d="M1764.38,556.46c-.13,1.5.26,3-.07,5.81" transform="translate(-1652.61 -296.69)"/><path class="cls-2" d="M1784.84,349.64c4.83.79,10.16-3.53.87-5" transform="translate(-1652.61 -296.69)"/><path class="cls-2" d="M1784,480.83c-1.21,1.41-5.46-1.21-4.67,3.38" transform="translate(-1652.61 -296.69)"/><path class="cls-2" d="M1784.27,371.46c-4.67,1.35-12.15-1.68-18,1.08" transform="translate(-1652.61 -296.69)"/><path class="cls-2" d="M1777.09,484.43a13.47,13.47,0,0,0-1.56.93s2.89,1.39,13.56.57V491h-2.24c-3.26,1.52-6.88,1.14-11.7,1.4" transform="translate(-1652.61 -296.69)"/><path class="cls-2" d="M1766.46,349.06c-1.17-1.56-2.44-3-4.6-3" transform="translate(-1652.61 -296.69)"/><path class="cls-2" d="M1782.91,344.89c-1.1.64-5.79,2.48-3.62,5" transform="translate(-1652.61 -296.69)"/><path class="cls-2" d="M1804,386.76c1.19.69,2.43.61,4.66,1.51" transform="translate(-1652.61 -296.69)"/><path class="cls-2" d="M1804.3,343c1.18.93,3.32.24,3.67,3.16" transform="translate(-1652.61 -296.69)"/><path class="cls-2" d="M1750.45,345.39c-1.11.08-2.39,3.36.14,3.09" transform="translate(-1652.61 -296.69)"/><path class="cls-2" d="M1748.33,332.32c0,3.4,1,6.64,1.83,10.92" transform="translate(-1652.61 -296.69)"/><path class="cls-2" d="M1732.14,541.59c-2.78,3.78-5.41,11.66-11,13.36" transform="translate(-1652.61 -296.69)"/><path class="cls-2" d="M1777.38,364.14c2.07-1.09,2-5.45-1.73-4.89" transform="translate(-1652.61 -296.69)"/><path class="cls-2" d="M1758.56,350.2c-.31,1.29,3.65,3.13,3.88.36" transform="translate(-1652.61 -296.69)"/><path class="cls-2" d="M1760.57,388.41a5.31,5.31,0,0,1-4.81.86" transform="translate(-1652.61 -296.69)"/><path class="cls-2" d="M1756.62,382.52c-.68,1.22-.5,2.47-1.65,4.6" transform="translate(-1652.61 -296.69)"/><path class="cls-2" d="M1729.84,545.83a52.54,52.54,0,0,0,5.74.36" transform="translate(-1652.61 -296.69)"/><path class="cls-2" d="M1758.78,383.1a5.33,5.33,0,0,1-2.37,6" transform="translate(-1652.61 -296.69)"/><path class="cls-2" d="M1845.88,596.53" transform="translate(-1652.61 -296.69)"/><path class="cls-2" d="M1844.88,589.78" transform="translate(-1652.61 -296.69)"/><path class="cls-2" d="M1758.85,346.61c-6.64,1.47.51,4.65,6.53,3.38" transform="translate(-1652.61 -296.69)"/><path class="cls-2" d="M1736.23,537c-1.35.81-2.36,4.11-4.81,4.53" transform="translate(-1652.61 -296.69)"/><path class="cls-2" d="M1771.71,477.56c0,1.51.12,4.06.12,6" transform="translate(-1652.61 -296.69)"/><path class="cls-2" d="M1785.71,300.37c2,.13,3.64-.55,6.89.86" transform="translate(-1652.61 -296.69)"/><path class="cls-2" d="M1783.34,584.25c-.51.52-2,2-1.66,3.66" transform="translate(-1652.61 -296.69)"/><path class="cls-2" d="M1760.86,554.44c10.13,7.34,16.73-4.64,21-13.23,4-8,1.94-17.73,2.94-27" transform="translate(-1652.61 -296.69)"/><path class="cls-2" d="M1806.53,385.18a11.49,11.49,0,0,0,3.45,1.58" transform="translate(-1652.61 -296.69)"/><path class="cls-2" d="M1778.52,421.16c-.3,1.58-.16,16-.11,18.53" transform="translate(-1652.61 -296.69)"/><path class="cls-2" d="M1752.13,388.27c-.71.53-.87,1.34-1.32,3" transform="translate(-1652.61 -296.69)"/><path class="cls-2" d="M1764.88,383.31c-.66.41-.85,1.57-2.73,2.44" transform="translate(-1652.61 -296.69)"/><path class="cls-2" d="M1807,384.1c.39.59,1.2.77,2.59,1.87" transform="translate(-1652.61 -296.69)"/><path class="cls-2" d="M1756.12,383c-.93.43-1.28,1.15-2.44,2.45" transform="translate(-1652.61 -296.69)"/><path class="cls-2" d="M1771.56,479.33l-2.73.07" transform="translate(-1652.61 -296.69)"/><path class="cls-2" d="M1786,349.34" transform="translate(-1652.61 -296.69)"/><path class="cls-2" d="M1788.43,348.91" transform="translate(-1652.61 -296.69)"/><path class="cls-2" d="M1777.45,491.18l2.73.93c-2-1.89-.56-4.56-.72-5.82" transform="translate(-1652.61 -296.69)"/><path class="cls-2" d="M1790.52,590.14a5.66,5.66,0,0,1-4,.21" transform="translate(-1652.61 -296.69)"/><path class="cls-2" d="M1763,389.56c.12,1.08-.44,2.84.08,4.88" transform="translate(-1652.61 -296.69)"/><path class="cls-2" d="M1758.92,382.88a3.15,3.15,0,0,0-2.08-1.58" transform="translate(-1652.61 -296.69)"/><path class="cls-2" d="M1785.13,480.76a10.34,10.34,0,0,1,.5,3.74" transform="translate(-1652.61 -296.69)"/><path class="cls-2" d="M1784.92,486.29c.18,1.2.84,3.45-.58,5.32" transform="translate(-1652.61 -296.69)"/><path class="cls-2" d="M1734.72,517.53c-.46.07-1-.33-2.15,0" transform="translate(-1652.61 -296.69)"/><path class="cls-2" d="M1812.2,383.67" transform="translate(-1652.61 -296.69)"/><path class="cls-2" d="M1766.82,349c-1.1.44-1.62,3-5.63,3" transform="translate(-1652.61 -296.69)"/><path class="cls-2" d="M1758.56,383c.94-.06.54.1,2.3.9" transform="translate(-1652.61 -296.69)"/><path class="cls-2" d="M1751.74,358.82c.52.26.61.79,1.72.36" transform="translate(-1652.61 -296.69)"/><path class="cls-2" d="M1761.58,400.62a3.13,3.13,0,0,1-1.58,1.29" transform="translate(-1652.61 -296.69)"/><path class="cls-2" d="M1841.29,587.05" transform="translate(-1652.61 -296.69)"/><path class="cls-2" d="M1841.29,586.19" transform="translate(-1652.61 -296.69)"/><path class="cls-2" d="M1783,349.56l.21.79" transform="translate(-1652.61 -296.69)"/><path class="cls-2" d="M1812.44,381.38a3.65,3.65,0,0,1-.29,2.55" transform="translate(-1652.61 -296.69)"/><path class="cls-2" d="M1811.33,374s1.57,4.22-.71,7" transform="translate(-1652.61 -296.69)"/><path class="cls-2" d="M1778.75,348.54a54.42,54.42,0,0,0,7.1,1.19" transform="translate(-1652.61 -296.69)"/></svg>