<svg id="Capa_1" data-name="Capa 1" xmlns="http://www.w3.org/2000/svg" viewBox="0 0 294.63 225.61"><defs><style>.cls-1{fill:none;stroke:#000;stroke-linecap:round;stroke-linejoin:round;stroke-width:0.5px;}</style></defs><title>fondo-senderos</title><path class="cls-1" d="M1742.4,584l-.74,0c-2.2.11-4.41.16-6.61.13-2.52,0-5-.27-7.57-.24-4.08.06-8.16.3-12.24.37-1.79,0-3.58-.25-5.37-.23-3.44,0-6.88.22-10.32.23-2.39,0-4.77-.26-7.16-.23-4.72.07-9.44.3-14.17.38-2.89,0-5.78,0-8.67-.14-2.07-.09-4.12-.37-6.19-.53a6.23,6.23,0,0,1-3.92-1.84c.09-2.24,1.7-3.23,3.21-4.38,2.49-1.9,5-3.83,6.66-6.56a7.16,7.16,0,0,1,1.9-1.67,28.57,28.57,0,0,0,4.72-4.09c2-2.34,4.76-3.64,7.52-4.85,3.9-1.7,7.89-3.21,11.43-5.64a5.2,5.2,0,0,1,2.33-1.17,9,9,0,0,1,3,.76c2.44.8,4.87,1.64,7.3,2.46,1.8.62,3.39-.24,4.94-.86a17,17,0,0,0,4.84-3.53c2.34-2.06,4.82-4,7.13-6.08s5.11-3.8,6.81-6.69c1.56-2.65,4.44-3.9,7.13-5.08a89.23,89.23,0,0,0,11-5.84c1.11-.68,2.11-.9,3.18,0a38.1,38.1,0,0,1,3.14,2.64,20.64,20.64,0,0,0,6.21,4.12,4,4,0,0,0,3.58-.16c3.77-1.67,7.58-3.27,11.26-5.13a21.42,21.42,0,0,0,4.81-3.56c2.45-2.32,4.76-4.79,7-7.27,2.94-3.21,5.71-6.58,8.71-9.73a20.37,20.37,0,0,1,6.43-4.59c2.67-1.2,4.6-3.32,6.47-5.49,3.35-3.85,6.6-7.79,10.08-11.52,2.34-2.51,5-4.72,7.54-7a2.37,2.37,0,0,1,.55-.28" transform="translate(-1556.31 -479.25)"/><path class="cls-1" d="M1766,582.93" transform="translate(-1556.31 -479.25)"/><path class="cls-1" d="M1811.5,582.25" transform="translate(-1556.31 -479.25)"/><path class="cls-1" d="M1821.55,584.11" transform="translate(-1556.31 -479.25)"/><path class="cls-1" d="M1808.94,553.77a21.79,21.79,0,0,0-3.7-5.52c-2.63-3-5.08-6.22-5.94-10.3a6.44,6.44,0,0,0-.68-1.52c-1.06-2-.3-2.32,1-2.87a29.83,29.83,0,0,0,8.92-5.95c1.61-1.55,3.15-3.18,4.69-4.81a15.73,15.73,0,0,1,7.7-4.29,29.27,29.27,0,0,0,11.56-5.89c1.36-1.16,1.49-1.66.53-3.14-1.19-1.85-2.5-3.63-3.84-5.37a4.48,4.48,0,0,1-1.09-3.32,11.81,11.81,0,0,0-1.68-7.14,6.16,6.16,0,0,1-.39-5.52c.81-2.1,1.57-4.22,2.35-6.33a7.92,7.92,0,0,1,.28-.82c.25-.51.44-1.29.85-1.44a1.78,1.78,0,0,1,1.58.51,34.25,34.25,0,0,1,2.37,3.55c.85,1.36,1.64,2.76,2.49,4.12a16.63,16.63,0,0,0,6.91,6.12" transform="translate(-1556.31 -479.25)"/><path class="cls-1" d="M1659.23,505.33c-1.68,0-2.75,1.25-4,2.09a124.7,124.7,0,0,1-13.35,8.4,26.17,26.17,0,0,0-4.54,3.16,55,55,0,0,0-5.08,4.81,23,23,0,0,1-7.61,5.05,61.48,61.48,0,0,0-11,7.2c-1.07.82-1.84,2-2.92,2.84a10.42,10.42,0,0,1-8.94,1.85,41,41,0,0,1-9.35-3.87,20.4,20.4,0,0,0-3.45-1.35c-.38-.12-1.28.18-1.3.38-.2,1.52-1.81,2.17-2.11,3.57a3.41,3.41,0,0,0-.11,1.91c1.2,2.76.26,5-1.56,7" transform="translate(-1556.31 -479.25)"/><path class="cls-1" d="M1660.47,551.29c-1.24-2.66-2.46-5.32-1.66-8.4a11.78,11.78,0,0,0,.28-1.78c.35-3.72-.63-5.28-4.12-6.75a12.16,12.16,0,0,1-4.64-3.88,11,11,0,0,0-5.41-3.41c-.33-.11-.64-.28-1-.41-.79-.32-.81-.86-.27-1.36,1.76-1.64,3.54-3.26,5.37-4.82a17.3,17.3,0,0,0,4.28-4.54,8.34,8.34,0,0,1,1.78-2.33c2.42-2.05,3.28-4.92,4.24-7.73.34-1,.46-1.11,1.24-.41,2.58,2.33,5.33,4.51,7.67,7.06a24.83,24.83,0,0,0,10.78,6.83c.91.31,1.84.53,2.75.84a15.43,15.43,0,0,1,6.31,4.68,57.58,57.58,0,0,0,9.79,8.11,4.48,4.48,0,0,0,4.38.36,6.71,6.71,0,0,1,4.43.18,14.33,14.33,0,0,0,2.61.41c1.72.12,2.93,1.22,4.26,2.09,2.46,1.61,4.8,3.4,7.32,4.9a36.51,36.51,0,0,0,4.93,2.1c.5.21,1,.37,1.52.56" transform="translate(-1556.31 -479.25)"/><path class="cls-1" d="M1659.64,568.77q-11.42.06-22.84.14l-32.88.27a7.81,7.81,0,0,0-1,.14" transform="translate(-1556.31 -479.25)"/><path class="cls-1" d="M1661.31,576.12c-6.83,0-13.67.08-20.5.14s-14,.21-20.92.26c-2.15,0-4.31-.18-6.47-.25a9.2,9.2,0,0,0-1.37.13" transform="translate(-1556.31 -479.25)"/><path class="cls-1" d="M1699.82,589.83c-14.4.81-28.85-.05-43.2.69" transform="translate(-1556.31 -479.25)"/><path class="cls-1" d="M1750.33,528.45a2.6,2.6,0,0,1,.26.82c-.12,3.12-.14,6.26-.47,9.35-.11,1-1,1.94-1.58,2.9a14.59,14.59,0,0,0-1.48,2.63,8.35,8.35,0,0,1-3.07,4c-.93.72-1.91,1.4-2.89,2.07-1.71,1.18-2.79,2.67-1.89,4.8a2.9,2.9,0,0,1-.46,2.89c-1,1.51-2.1,2.89-3,4.44s-1.41,3-2.09,4.52" transform="translate(-1556.31 -479.25)"/><path class="cls-1" d="M1707.81,587.9c-13,.08-26-.35-39.08.69" transform="translate(-1556.31 -479.25)"/><path class="cls-1" d="M1761.2,572.34c-1.81-1.18-3.54-.67-5.23.28a2.42,2.42,0,0,1-2.35.3c-1.5-.65-2.58-.46-3.39.83a2.89,2.89,0,0,1-3.46,1.28c-2.24-.62-3.54.41-4.69,2-1,1.41-2.14,1.38-3-.15a2.44,2.44,0,0,0-3-.82c-.6.24-1.17.53-2.06.93a3.15,3.15,0,0,0-.29-.65c-1.28-1.79-3.12-1.73-4.4.13a3,3,0,0,1-.7.81,1.18,1.18,0,0,1-1.65,0,6.43,6.43,0,0,0-1.93-1.22c-.83-.28-.65-.85-.67-1.41,0-1.54-.44-2.15-1.52-2.34a2.4,2.4,0,0,0-2.63,1.65,13.31,13.31,0,0,1-1.22,1.78c-1.12-1.64-2.17-2.69-4-2.24-.18.05-.65-.55-.8-.92-1-2.37-2.25-2.72-4.27-1.08a5.43,5.43,0,0,0-.7.81" transform="translate(-1556.31 -479.25)"/><path class="cls-1" d="M1846.24,515.38c1,1.33,2.22,2.58,3.14,4" transform="translate(-1556.31 -479.25)"/><path class="cls-1" d="M1825.59,509.6,1820.5,513c-3.53,2.38-7.11,4.7-10.58,7.17-5.14,3.65-10.19,7.41-15.29,11.13-.4.29-.82.55-1.23.82" transform="translate(-1556.31 -479.25)"/><path class="cls-1" d="M1647.83,579.3c-3.58-.11-7.16-.19-10.74-.29l-20.09-.55" transform="translate(-1556.31 -479.25)"/><path class="cls-1" d="M1837.29,513.86c1.65,2.11,3.27,4.25,5,6.32a19.5,19.5,0,0,0,2.62,2.75" transform="translate(-1556.31 -479.25)"/><path class="cls-1" d="M1831.37,522.53a18.46,18.46,0,0,1,2.9,7.85c.2,2.55,1.6,4.6,3,6.59,2.58,3.6,5.22,7.16,7.83,10.74l1,1.38" transform="translate(-1556.31 -479.25)"/><path class="cls-1" d="M1587.4,536c-1.28.59-2.56,1.21-3.85,1.78-1.92.85-3.88,1.59-5.77,2.5a32.58,32.58,0,0,0-6.91,4.36,13,13,0,0,1-5.62,2.79,3.28,3.28,0,0,0-1.62.71c-.57.59-1.17.35-1.68.21" transform="translate(-1556.31 -479.25)"/><path class="cls-1" d="M1847.61,568.6c-.42.09-1.16,0-1.34-.27-1.31-2.05-3-1.49-4.71-.81a.87.87,0,0,1-.28,0s-.11,0-.13,0c-1.71-1.75-1.78-2.5-4.83-.69a2,2,0,0,1-3.11-1.92,2.51,2.51,0,0,0-1.57-2.73,2.87,2.87,0,0,0-2.88.53,2.08,2.08,0,0,1-2.21.31c-1.25-.48-2.59.36-3.57,2a9.66,9.66,0,0,1-1.12,1.77,1.34,1.34,0,0,1-1.91.16c-.26-.2-.57-.35-.82-.56a2.29,2.29,0,0,0-3.16,0c-.49.38-.92.82-1.38,1.23" transform="translate(-1556.31 -479.25)"/><path class="cls-1" d="M1820,576.88a2.88,2.88,0,0,0-2.34-1,1.72,1.72,0,0,1-1.33-.67c-.72-1.36-1.89-1.56-3.21-1.48a7.11,7.11,0,0,0-1.78.28,1.8,1.8,0,0,1-2.08-.7c-1.83-2.07-3.59-2.23-5.77-.55-1.19.91-1.52.93-2.75,0a2.69,2.69,0,0,0-3.43.16,20.29,20.29,0,0,0-1.66,1.91" transform="translate(-1556.31 -479.25)"/><path class="cls-1" d="M1663.22,515.93a13.34,13.34,0,0,1,6.34,5.22c1.4,2.36,3.84,3.23,6.17,4.31a15,15,0,0,1,3.57,2.33c1.92,1.69,3.69,3.55,5.53,5.34" transform="translate(-1556.31 -479.25)"/><path class="cls-1" d="M1849.4,561.89c-.41,1.59-.41,1.56-2.07,1.39a1.64,1.64,0,0,0-2.06,1.36" transform="translate(-1556.31 -479.25)"/><path class="cls-1" d="M1821.47,498.32c-6,4.86-12,9.7-18,14.6a39.24,39.24,0,0,0-2.9,2.87" transform="translate(-1556.31 -479.25)"/><path class="cls-1" d="M1696.11,554.32a6.69,6.69,0,0,1-1,1.76c-1.92,1.85-4,3.56-5.88,5.41a44.51,44.51,0,0,0-4,4.28,1.84,1.84,0,0,0,.09,2.32,31.69,31.69,0,0,1,2.32,3.31,4,4,0,0,1,.78,2.44c-.46,1.75.59,2.43,1.72,3.18.33.22.64.46,1,.69" transform="translate(-1556.31 -479.25)"/><path class="cls-1" d="M1647.54,517c-4.36,3.16-8.73,6.31-13.07,9.5-2.27,1.66-4.5,3.39-6.75,5.08" transform="translate(-1556.31 -479.25)"/><path class="cls-1" d="M1652.49,526.11a24.05,24.05,0,0,1,3.29,1c2.15,1,4.29,1.93,5.58,4.2a11.07,11.07,0,0,0,3.12,3.17c2.17,1.58,4.48,3,6.72,4.44" transform="translate(-1556.31 -479.25)"/><path class="cls-1" d="M1745.78,536.84q-6.66,5.45-13.34,10.87c-1.47,1.2-3,2.32-4.39,3.6s-2.41,2.83-4,3.83a4.73,4.73,0,0,1-.55.28" transform="translate(-1556.31 -479.25)"/><path class="cls-1" d="M1808.53,538.49l5,4.41a7.85,7.85,0,0,0,4.25,2.14,5.79,5.79,0,0,1,3.13,1.75c1.84,2,3.44,4.18,5.14,6.29a1.71,1.71,0,0,0,.41.27" transform="translate(-1556.31 -479.25)"/><path class="cls-1" d="M1819,505.47a7.92,7.92,0,0,0-1.64.56c-5,3-9.9,6-14.88,8.92a41.38,41.38,0,0,0-5.91,3.59" transform="translate(-1556.31 -479.25)"/><path class="cls-1" d="M1803.3,517.85l-17.89,14.31" transform="translate(-1556.31 -479.25)"/><path class="cls-1" d="M1822,495c-1.1.78-2.25,1.51-3.3,2.35q-6.08,4.92-12.11,9.91a10.1,10.1,0,0,0-1.11,1.23" transform="translate(-1556.31 -479.25)"/><path class="cls-1" d="M1639.28,526.39c-3.35,2.79-6.72,5.57-10,8.4-1.92,1.64-3.78,3.37-5.64,5.09a4,4,0,0,0-.56,1" transform="translate(-1556.31 -479.25)"/><path class="cls-1" d="M1745.51,534.92l-16.38,12.52" transform="translate(-1556.31 -479.25)"/><path class="cls-1" d="M1659.37,520.88c3.18,2.83,5,6.68,7.67,9.93a21.31,21.31,0,0,0,5.55,4.92c2,1.22,4.08,2.39,6.2,3.42,1.44.71,3,1,4.51,1.71a30.68,30.68,0,0,1,3.31,2" transform="translate(-1556.31 -479.25)"/><path class="cls-1" d="M1802.75,529.14c-2.43,1.65-5.29,2.91-7.2,5-4.61,5.1-10.4,8.77-15.36,13.41" transform="translate(-1556.31 -479.25)"/><path class="cls-1" d="M1795.6,549.91a16.17,16.17,0,0,0-2.74.85c-3.75,2-7.45,4-11.16,6-1,.55-1.93,1.19-2.89,1.78" transform="translate(-1556.31 -479.25)"/><path class="cls-1" d="M1831.65,493.64c.37.27.71.59,1.1.82,2.32,1.3,3.53,3.45,4.55,5.78s2,4.54,4.27,5.75c2.11,1.11,3.34,3.11,5.08,4.57" transform="translate(-1556.31 -479.25)"/><path class="cls-1" d="M1637.77,533.4a9.26,9.26,0,0,0-1.78.57c-3.83,2.13-7.61,4.33-11.44,6.43-1.33.73-2.9,1-3.85,2.36" transform="translate(-1556.31 -479.25)"/><path class="cls-1" d="M1797.66,572.34c-.76-.75-1.46-1.62-2.76-1.26a1.08,1.08,0,0,1-.81-.26c-1.34-1-2.63-.78-4,0s-1.75.61-2.88-.53a3.34,3.34,0,0,0-2.33-1.13c-1.37-.07-2.18-1.22-3-2.08a3.24,3.24,0,0,0-3.76-1.07c-1.7.57-1.76.49-1.79-1.22a1.59,1.59,0,0,0-2.47-1.51c-.53.28-1,.65-1.52,1-1,.58-1.79.39-2-.69-.27-1.25-.77-1.94-2.25-1.59.14-1.64-.32-2.73-1.92-3.09a2.37,2.37,0,0,0-2.75,1.38" transform="translate(-1556.31 -479.25)"/><path class="cls-1" d="M1794.36,539.18c-2.85,2.39-5.7,4.76-8.53,7.16-1.66,1.41-3.32,2.83-4.95,4.28a3.67,3.67,0,0,0-.56,1" transform="translate(-1556.31 -479.25)"/><path class="cls-1" d="M1807.16,542.35c1,1.65,2,3.25,2.86,5a13.08,13.08,0,0,0,3,4.54c1.53,1.3,3,2.65,4.54,4" transform="translate(-1556.31 -479.25)"/><path class="cls-1" d="M1794.36,544.82q-6.6,5.71-13.2,11.44a3.56,3.56,0,0,0-.56,1" transform="translate(-1556.31 -479.25)"/><path class="cls-1" d="M1794.5,544.55c-.5-.39-.52-.43-.83-.27l-6.74,3.71c-2.34,1.28-4.7,2.54-7,3.87-1,.55-1.84,1.27-2.76,1.91" transform="translate(-1556.31 -479.25)"/><path class="cls-1" d="M1826,541a7.14,7.14,0,0,0,1.93,5.09c1.73,1.94,3.5,3.84,5.22,5.79.82.92,1.56,1.92,2.34,2.88" transform="translate(-1556.31 -479.25)"/><path class="cls-1" d="M1794.91,534.5c-1.06.51-2.16.93-3.16,1.53-3,1.8-5.88,3.83-9,5.43a36.1,36.1,0,0,0-5.2,3.36" transform="translate(-1556.31 -479.25)"/><path class="cls-1" d="M1723.22,546.89a2.86,2.86,0,0,0-3.29,0c-.65.47-1.15.25-1.81.13a5.46,5.46,0,0,1-3.74-2.76c-.82-1.27-2.26-.83-3.24-.37a2.62,2.62,0,0,1-3.5-.72c-1.08-1.17-1.88-1-3.82.39" transform="translate(-1556.31 -479.25)"/><path class="cls-1" d="M1645.2,539.32a23.2,23.2,0,0,0-3,.84c-3.51,1.47-7,3-10.47,4.53a10.29,10.29,0,0,0-1,.55" transform="translate(-1556.31 -479.25)"/><path class="cls-1" d="M1750.74,546.2c.41,2,.8,4,1.26,6a2.25,2.25,0,0,0,.68,1.09,11.81,11.81,0,0,1,3,5.52" transform="translate(-1556.31 -479.25)"/><path class="cls-1" d="M1662.26,536.15a17.77,17.77,0,0,1,2.44,2.64,7.89,7.89,0,0,0,5,3.35,16,16,0,0,1,8,5.69c1.39,1.67,3,3.14,4.52,4.7" transform="translate(-1556.31 -479.25)"/><path class="cls-1" d="M1643.41,560c-.65-.87-1.7-.06-2.31-.47s-.93-1.47-1.59-2c-.42-.32-1.23-.12-1.91-.16a18,18,0,0,0-1.64-1.81,1.67,1.67,0,0,0-2.59.13c-.74.75-1.52,1.46-2.6.92a2.29,2.29,0,0,1-1.09-1.35c-.46-2.07-1.62-2.89-3.45-2a2.3,2.3,0,0,1-2.1.12c-1.21-.46-2.11.29-2.72,1.22s-1.15,1.34-2.1.41a1.69,1.69,0,0,0-1-.28,2.22,2.22,0,0,1-1.95-1.51c-.55-1.15-1.27-1.3-3.08-1-.11-.27-.21-.56-.34-.84a1.86,1.86,0,0,0-2.74-1c-.45.27-.81.67-1.25.95a1.12,1.12,0,0,1-1.53-.1c-1.54-1.29-2.49-1.15-4.1.39a7.5,7.5,0,0,0-.56.68" transform="translate(-1556.31 -479.25)"/><path class="cls-1" d="M1737,547.85c-1,1-2,1.91-3,2.89-2.57,2.56-5.15,5.12-7.7,7.72-.7.71-1.29,1.55-1.93,2.33" transform="translate(-1556.31 -479.25)"/><path class="cls-1" d="M1664.19,522.67a65.93,65.93,0,0,1,4.08,5.25c1.41,2.24,2.52,4.66,3.76,7" transform="translate(-1556.31 -479.25)"/><path class="cls-1" d="M1641.48,531.06c-3.75,2.21-6.64,5.48-10,8.14-1.78,1.4-3.41,3-5.11,4.52" transform="translate(-1556.31 -479.25)"/><path class="cls-1" d="M1643.27,534.5c-3.39,2.8-6.8,5.59-10.17,8.41a8,8,0,0,0-1.11,1.5" transform="translate(-1556.31 -479.25)"/><path class="cls-1" d="M1848.73,570.57a2.14,2.14,0,0,1-2.64,1,2.82,2.82,0,0,0-2.85.81,1.45,1.45,0,0,0-.26,1.31c.33.45,1.15,1.08,1.44.94" transform="translate(-1556.31 -479.25)"/><path class="cls-1" d="M1617.81,549.23a8,8,0,0,0-4.14-1.72,6.94,6.94,0,0,0-2.74.62,10.16,10.16,0,0,1-1.65.52,2.8,2.8,0,0,0-2.61,1.82" transform="translate(-1556.31 -479.25)"/><path class="cls-1" d="M1752,541.52c1.38,2.36,2.56,4.85,5.07,6.36,1.56.94,3,2.17,4.42,3.27" transform="translate(-1556.31 -479.25)"/><path class="cls-1" d="M1650,513.45c-3.53,2.29-7.07,4.58-10.59,6.89a4,4,0,0,0-.69.82" transform="translate(-1556.31 -479.25)"/><path class="cls-1" d="M1817.89,530.24c2.2,2.38,4.88,4.49,6.47,7.23a27.89,27.89,0,0,0,5.77,6.67c1.73,1.58,3.4,3.21,5.1,4.81" transform="translate(-1556.31 -479.25)"/><path class="cls-1" d="M1616.85,554.59a5.78,5.78,0,0,0-2.78,2.74c-.32.63-.3,1.12.18,1.51.32.25.91.52,1.21.39a1.76,1.76,0,0,1,2.5.86c.45.76,1.1.75,1.92.59a2.87,2.87,0,0,1,3.3,2.31" transform="translate(-1556.31 -479.25)"/><path class="cls-1" d="M1745.23,533.54l-10.45,6.88" transform="translate(-1556.31 -479.25)"/><path class="cls-1" d="M1740.14,545.24a12.43,12.43,0,0,1-4.23,2.81c-2.41,1.13-4.61,2.71-6.92,4.05a21.49,21.49,0,0,1-2.19,1" transform="translate(-1556.31 -479.25)"/><path class="cls-1" d="M1697.49,558.72a7.8,7.8,0,0,0,4.52,4.18,36.41,36.41,0,0,1,4.7,2.56" transform="translate(-1556.31 -479.25)"/><path class="cls-1" d="M1755.55,539.18a4.79,4.79,0,0,0,.84,1.22c2.89,2.09,5.78,4.16,8,7" transform="translate(-1556.31 -479.25)"/><path class="cls-1" d="M1686.61,560.65l-8.25,5.09-1.38.82" transform="translate(-1556.31 -479.25)"/><path class="cls-1" d="M1582,539.87c-2.34,1.42-4.68,2.85-7,4.26-.75.45-1.55.83-2.33,1.24" transform="translate(-1556.31 -479.25)"/><path class="cls-1" d="M1729.27,566.84a2.88,2.88,0,0,0,.54-.69c.78-2,1.53-3.93,2.37-6.1-1.37.6-2.8.55-3.6,1.84" transform="translate(-1556.31 -479.25)"/><path class="cls-1" d="M1743.86,552.25a42.51,42.51,0,0,0,1.54,4,4.35,4.35,0,0,0,2.7,2.56c1.84.54,3.09,2,4.17,3.64s2.18,3,3.28,4.55" transform="translate(-1556.31 -479.25)"/><path class="cls-1" d="M1658.41,561.61c-.65-1.66-1.42-2.3-2.89-2a2.56,2.56,0,0,1-2.21-.59,2.14,2.14,0,0,0-3.57,1c-.68,1.56-.68,1.56-2.07.69-1.1-.69-2.34-1.21-3.55-.64a11,11,0,0,0-2.23,2" transform="translate(-1556.31 -479.25)"/><path class="cls-1" d="M1823.39,506l-7.56,5.92c-.52.4-1,.82-1.52,1.24" transform="translate(-1556.31 -479.25)"/><path class="cls-1" d="M1649.05,550.88c.33-1.08.33-1.08-1-1.39l.54-1.42c-1-1-2.35.07-3.58-.59l2.94-3.53-.18-.41c-1.22.24-2.47.4-3.66.76-1.49.45-2.94,1.09-4.41,1.61a2.5,2.5,0,0,1-.82,0" transform="translate(-1556.31 -479.25)"/><path class="cls-1" d="M1579.56,544.14a4.43,4.43,0,0,0-1.23.29c-2.54,1.39-5,2.82-7.58,4.25" transform="translate(-1556.31 -479.25)"/><path class="cls-1" d="M1591.53,542.35c-1,2.29,1,3.14,2.24,4.08a12.44,12.44,0,0,1,3.54,3.76" transform="translate(-1556.31 -479.25)"/><path class="cls-1" d="M1683.17,564.22c-2.52,1.84-5.05,3.67-7.56,5.51-.89.66-1.75,1.37-2.62,2.06" transform="translate(-1556.31 -479.25)"/><path class="cls-1" d="M1682.49,548.68c-1.43-1.15-2.83-2.32-4.27-3.44-1.17-.89-2.39-1.7-4-1.38" transform="translate(-1556.31 -479.25)"/><path class="cls-1" d="M1796.7,549.23c-2.34,2.34-4.68,4.67-7,7-.48.49-.26,1.52-1.24,1.65" transform="translate(-1556.31 -479.25)"/><path class="cls-1" d="M1704.5,551.43a4.22,4.22,0,0,1,1.92-2.49c1.48-.73,2.58-.45,3.29,1.12.45,1,.93,1.37,2.09,1.13a3.37,3.37,0,0,1,4.12,2.16" transform="translate(-1556.31 -479.25)"/><path class="cls-1" d="M1838.94,499c1.24,2.11,2.49,4.21,3.7,6.34a3.2,3.2,0,0,1,.16,1.09" transform="translate(-1556.31 -479.25)"/><path class="cls-1" d="M1691.16,568.49c1.71,2.19,2.19,5.33,5.09,6.61" transform="translate(-1556.31 -479.25)"/><path class="cls-1" d="M1646.71,538.63c-2.9,2.27-6,4.32-8.12,7.43a4.76,4.76,0,0,1-.55.55" transform="translate(-1556.31 -479.25)"/><path class="cls-1" d="M1822.15,491.3l-7.15,7.15" transform="translate(-1556.31 -479.25)"/><path class="cls-1" d="M1824.08,502.31c-1.51.91-3.31,1.57-4.47,2.81a62.29,62.29,0,0,1-5.58,4.61c-.52.44-1.09.83-1.65,1.24" transform="translate(-1556.31 -479.25)"/><path class="cls-1" d="M1750.05,574.54a9.17,9.17,0,0,1,1.62,1.4c.59.79,1.06,1.17,2.11.71a2.64,2.64,0,0,1,2.88.51" transform="translate(-1556.31 -479.25)"/><path class="cls-1" d="M1804.68,521.16l-6.88,5.23" transform="translate(-1556.31 -479.25)"/><path class="cls-1" d="M1810.73,512.35l-6.88,4.95" transform="translate(-1556.31 -479.25)"/><path class="cls-1" d="M1694.05,562.16a32.82,32.82,0,0,1,2.69,5c1.1,3.22,3.56,5,6.11,6.86" transform="translate(-1556.31 -479.25)"/><path class="cls-1" d="M1716.2,546.75a3.25,3.25,0,0,0-.41.42c-.93,1.26-1.9,2.16-3.74,1.59-.62-.2-1.54.56-2.32.88" transform="translate(-1556.31 -479.25)"/><path class="cls-1" d="M1813.76,513.73l-6.6,5.22" transform="translate(-1556.31 -479.25)"/><path class="cls-1" d="M1784.59,576.06a19.89,19.89,0,0,1-1.51-1.39,3.2,3.2,0,0,0-3.18-1.13,2,2,0,0,1-2.53-.89c-.75-1.26-1.71-1.26-3.1-.43-.67.4-1.29.9-1.93,1.36" transform="translate(-1556.31 -479.25)"/><path class="cls-1" d="M1731.89,556.79c-1.15.56-2.29,1.11-3.44,1.65l-3,1.38" transform="translate(-1556.31 -479.25)"/><path class="cls-1" d="M1613.75,557.9c-1.6-1.07-3.11-.36-4.6.29a13.09,13.09,0,0,0-1.79,1.08" transform="translate(-1556.31 -479.25)"/><path class="cls-1" d="M1752.94,534.09a14.51,14.51,0,0,1,1.07,2.48c.55,2.31,2.45,2.81,4.3,3.44,1.15.4,2.29.82,3.44,1.24" transform="translate(-1556.31 -479.25)"/><path class="cls-1" d="M1795.05,556.38c-.6-.5-.61-.5-1.24-.27-1.24.45-2.47.93-3.72,1.36a2.5,2.5,0,0,1-.82,0" transform="translate(-1556.31 -479.25)"/><path class="cls-1" d="M1742.48,559.68l2.89,5.65" transform="translate(-1556.31 -479.25)"/><path class="cls-1" d="M1678.36,575.92l2.27-3.12-.13-.36c-1,.25-2.07.5-3.11.73-.68.15-1.37.27-2.06.41" transform="translate(-1556.31 -479.25)"/><path class="cls-1" d="M1682.21,568.35c-2.23.54-3.51,2.48-5.34,3.62a21.34,21.34,0,0,0-2.91,2.57" transform="translate(-1556.31 -479.25)"/><path class="cls-1" d="M1842.73,573a4.36,4.36,0,0,0-4.89,1.79" transform="translate(-1556.31 -479.25)"/><path class="cls-1" d="M1747.71,554.73c.73,1.15,1.5,2.27,2.18,3.45a6.19,6.19,0,0,1,.44,1.5" transform="translate(-1556.31 -479.25)"/><path class="cls-1" d="M1679.87,569.32c-.78.18-1.56.35-2.34.55s-1.65.46-2.47.68" transform="translate(-1556.31 -479.25)"/><path class="cls-1" d="M1797.25,526.94l-4.68,3.3" transform="translate(-1556.31 -479.25)"/><path class="cls-1" d="M1794.91,556.66c-1.47,1.42-2.93,2.85-4.41,4.25a4.56,4.56,0,0,1-1,.56" transform="translate(-1556.31 -479.25)"/><path class="cls-1" d="M1796.7,564.09l-.39-1.53-2.9.34c.18-.63.29-1,.4-1.43s.23-.81.41-1.42l-3.3.6" transform="translate(-1556.31 -479.25)"/><path class="cls-1" d="M1735.05,554.18c-.09.18-.13.46-.28.54-2.38,1.21-3.56,3.6-5.34,5.39-.21.21-.2.63-.3.95" transform="translate(-1556.31 -479.25)"/><path class="cls-1" d="M1785.14,538.77l-3.58,3" transform="translate(-1556.31 -479.25)"/><path class="cls-1" d="M1582,542.62a20.06,20.06,0,0,0-5.39,5.08,3,3,0,0,1-.94.56" transform="translate(-1556.31 -479.25)"/><path class="cls-1" d="M1693.36,566.15c1,.87,1.92,2,3.44,2.07" transform="translate(-1556.31 -479.25)"/><path class="cls-1" d="M1591.12,539c.09.83.13,1.67.3,2.48a1.85,1.85,0,0,0,.67.82c.9.8,1.83,1.57,2.74,2.35" transform="translate(-1556.31 -479.25)"/><path class="cls-1" d="M1681,577c-.18-1.41-.24-1.45-1.65-1.25a1.6,1.6,0,0,1-.55-.12" transform="translate(-1556.31 -479.25)"/><path class="cls-1" d="M1783.63,569l-2.89,2.2" transform="translate(-1556.31 -479.25)"/><path class="cls-1" d="M1578.87,549.5l.68-2.14-2.74.49" transform="translate(-1556.31 -479.25)"/><path class="cls-1" d="M1790.37,534.64l-2.2,1.65" transform="translate(-1556.31 -479.25)"/><path class="cls-1" d="M1792.85,532.71l-1.93,1.38" transform="translate(-1556.31 -479.25)"/><path class="cls-1" d="M1787.62,536.84l-1.93,1.38" transform="translate(-1556.31 -479.25)"/><path class="cls-1" d="M1741.79,577.85l1.66,1.24" transform="translate(-1556.31 -479.25)"/><path class="cls-1" d="M1806.47,519.64l-1.24,1" transform="translate(-1556.31 -479.25)"/><path class="cls-1" d="M1768.89,648.2c-.37.1-.75.34-1.09.28a20.81,20.81,0,0,0-8.09.62c-3,.69-6,1.23-9,2.15a38.88,38.88,0,0,0-5.8,2.76,4.55,4.55,0,0,0-1.29,1.19,1.3,1.3,0,0,0,.29,2,9,9,0,0,0,5.38,1.55,40.19,40.19,0,0,1,5.6.33,15.87,15.87,0,0,0,2.39,0l6.09-.2,5.69-.2" transform="translate(-1556.31 -479.25)"/><path class="cls-1" d="M1697.92,691.92c-2.2.23-4.39.45-6.59.7-3.63.42-7.26.79-10.88,1.32-2.81.41-5.6,1-8.38,1.6-1.53.34-1.5.46-1.5,2" transform="translate(-1556.31 -479.25)"/><path class="cls-1" d="M1663,690.32c.6,0,1.2.09,1.8.1,3.19,0,6.39.06,9.58.11,4.33.05,8.65.07,13,.21,2.6.09,5.19.37,7.78.6a4,4,0,0,1,1,.38" transform="translate(-1556.31 -479.25)"/><path class="cls-1" d="M1794.73,591.71" transform="translate(-1556.31 -479.25)"/><path class="cls-1" d="M1797.64,580.63l-.77,1-.95-.9a10.09,10.09,0,0,0-1,1.22,2.52,2.52,0,0,0-.4,1.19" transform="translate(-1556.31 -479.25)"/><path class="cls-1" d="M1692.33,685.13c-.57.14-1.13.3-1.7.39-1,.17-2.06.28-3.09.41l-9.78,1.2c-2.07.26-4.14.45-6.19.82a25.34,25.34,0,0,0-6.89,1.78,3.9,3.9,0,0,0-.6.49" transform="translate(-1556.31 -479.25)"/><path class="cls-1" d="M1789.94,608.08a4.41,4.41,0,0,1-.29,1.09" transform="translate(-1556.31 -479.25)"/><path class="cls-1" d="M1731.86,588.61a2.44,2.44,0,0,0,2.09-.3,4.14,4.14,0,0,1,.94-1l1.4-.3v-.27l.88.43.88-1.15c.12-.15.32-.41.39-.38.94.39,1-.52,1.39-.93a2.35,2.35,0,0,0,2.84-.92c.18.07.46.27.55.21.56-.4,1.36-.56,1.75-.94a4.06,4.06,0,0,1,2.75-.87c.44-.05.82-.47,1.3-.77l.74.5c.56-.86,1.41-.8,2.25-.93a10.83,10.83,0,0,0,2.22-.89c.42,1.17,1.5-.63,2,.4a5.5,5.5,0,0,1,1-.84c.1,0,.41.33.72.58l.74-.68,2.76.38.76-.7,0,.22c.74.12,1.57.5,2.2.29s1.61.67,1.87-.7l.91.94c.66.14.65-1.24,1.55-.57.48.35,1.06-.84,1.59,0,.74-.57,1.54.28,2.39-.11l.77,1,1.18-.83.79.66.91-.58.78.66,1-.79c.37.54.68.94,1.48.66.41-.14,1.05.33,1.45-.38l1,.79.92-.85,2.32.93.94-.57.9.67.42-.59c.72.32,1.26.59,1.82.82a.92.92,0,0,1,.61,1" transform="translate(-1556.31 -479.25)"/><path class="cls-1" d="M1848.35,634.56a9.08,9.08,0,0,0-4.77,3c-1.2,1.44-2.23,3-3.31,4.58a3.47,3.47,0,0,0-.31,1" transform="translate(-1556.31 -479.25)"/><path class="cls-1" d="M1679.45,610.57l-.5,2a3.29,3.29,0,0,0-3-.15,58.56,58.56,0,0,1-8.18,1.82c-1.39.22-2.72.76-4.1,1.06-1.75.38-3.52.7-5.29,1-1.49.27-3,.43-4.49.73-.59.12-1.07.28-1.63-.18-.17-.15-.72.15-1.21.27-.43-.4-.94-.47-1.36.28a4.09,4.09,0,0,1-.49.61" transform="translate(-1556.31 -479.25)"/><path class="cls-1" d="M1691.13,685.13a22.56,22.56,0,0,0-3.2-.77c-3.72-.33-7.44-.59-11.17-.81-3.13-.19-6.26-.28-9.39-.42a2.7,2.7,0,0,1-.59-.19" transform="translate(-1556.31 -479.25)"/><path class="cls-1" d="M1646.81,669.16a7.75,7.75,0,0,0,1.4.29c2.36.06,4.73,0,7.09.13,2.13.11,4.26.34,6.38.6,1.24.15,2.47.44,3.7.69.11,0,.2.19.3.29" transform="translate(-1556.31 -479.25)"/><path class="cls-1" d="M1649.41,677.15c3.72,0,7.45,0,11.18.11,2.53,0,5.06.17,7.58.3a14.12,14.12,0,0,1,2,.39" transform="translate(-1556.31 -479.25)"/><path class="cls-1" d="M1816.6,677.65a21.56,21.56,0,0,0-2.89-.18,13.33,13.33,0,0,0-5.88,1.7c-1.57.91-1.54,1.84.11,2.64a11.88,11.88,0,0,0,3.38,1,44.25,44.25,0,0,0,6.18.58,10.12,10.12,0,0,0,3.87-.81c1.05-.44,1.22-1.77,1.16-2.73a23.83,23.83,0,0,1,.35-4.4,7.37,7.37,0,0,0-.09-1.4" transform="translate(-1556.31 -479.25)"/><path class="cls-1" d="M1666,671.06c-1.74,1.21-3.86,1.27-5.79,1.9-2.94,1-5.87,2-8.78,3-.5.18-.87.74-1.3,1.12" transform="translate(-1556.31 -479.25)"/><path class="cls-1" d="M1691.43,644.11c.37.76.73,1.53,1.1,2.29a5.09,5.09,0,0,1,.66,3.8c-.78,1-2.28,1.25-3.76,1.48a18.8,18.8,0,0,1-3.09.2,13.34,13.34,0,0,1-5.89-1.48c.35-.71,1-.9,1.6-1.2a13.41,13.41,0,0,1,8.18-1.41c.16,0,.34-.12.5-.19" transform="translate(-1556.31 -479.25)"/><path class="cls-1" d="M1659.34,664.37c-1.58.47-3.15,1-4.74,1.39a27.48,27.48,0,0,0-6.68,2.41c-.6.34-1.14.79-1.71,1.19" transform="translate(-1556.31 -479.25)"/><path class="cls-1" d="M1679.75,602.49c.57.16,1.12.38,1.7.49,3.12.55,6.29.94,9.37,1.66,1.43.34,3,.23,4.31.93,0,0,.13-.09.19-.14" transform="translate(-1556.31 -479.25)"/><path class="cls-1" d="M1675.56,680.14c-1,0-2.07-.14-3.09-.08-1.87.11-3.73.32-5.59.48-.84.07-1.67.16-2.5.19-.53,0-1.06-.06-1.6-.09" transform="translate(-1556.31 -479.25)"/><path class="cls-1" d="M1645.61,663c1.57-.48,3.13.08,4.7,0a42.31,42.31,0,0,1,5.38.38c1.14.12,2.27.38,3.4.58" transform="translate(-1556.31 -479.25)"/><path class="cls-1" d="M1753,689.43c.13,1.09-.73,1.79-1.12,2.68-.54,1.24-1.31,2.38-1.84,3.62a5.44,5.44,0,0,0-.14,1.78" transform="translate(-1556.31 -479.25)"/><path class="cls-1" d="M1725.27,590.61c.17,1-.27,1.55-1.29,2a4.9,4.9,0,0,0-1.39,1.19c-.28.3-.33.78-.91.82-.16,0-.39.56-.38.86" transform="translate(-1556.31 -479.25)"/><path class="cls-1" d="M1845,656.29c-1.52-.63-3.06-1.19-4.59-1.81a4.46,4.46,0,0,1-.77-.51c1.3-1.94,3.31-2.32,5.26-2.89" transform="translate(-1556.31 -479.25)"/><path class="cls-1" d="M1679.42,602.38c0,.1-.51.13-.76.1-2.44-.35-4.86-.72-7.29-1.1-.15,0-.27-.19-.4-.29a941,941,0,0,0-114.41-12.68" transform="translate(-1556.31 -479.25)"/><path class="cls-1" d="M1755,691.42c-.62,1.07-.15,2.2-.18,3.3a23.9,23.9,0,0,0,.18,2.79" transform="translate(-1556.31 -479.25)"/><path class="cls-1" d="M1819.8,670.86c0,.33,0,.67,0,1a9.52,9.52,0,0,0,.26,2.41,23.33,23.33,0,0,1,.44,3.28c0,.34.21.66.29,1a1.52,1.52,0,0,1,.09.69c-.29,1.42.25,1.54,1.21,2.1" transform="translate(-1556.31 -479.25)"/><path class="cls-1" d="M1693.53,640.32c.13,1.59.16,3.21.43,4.78a21.6,21.6,0,0,0,1,2.91,5.49,5.49,0,0,1,.11,1.29" transform="translate(-1556.31 -479.25)"/><path class="cls-1" d="M1728,682.64c-.54,1.06,0,2.13,0,3.19a29.24,29.24,0,0,0,.4,4.39,22.28,22.28,0,0,0,1,3" transform="translate(-1556.31 -479.25)"/><path class="cls-1" d="M1719.18,681.74c-1.13,1-1.28,2.56-1.79,3.9-.41,1.11-.78,2.24-1.09,3.39a5.87,5.87,0,0,0,0,1.39" transform="translate(-1556.31 -479.25)"/><path class="cls-1" d="M1675.56,680.34l-3.19.8-5.49,1.4" transform="translate(-1556.31 -479.25)"/><path class="cls-1" d="M1651.1,700.62c0,.93-.07,1.86-.09,2.79,0,.37,0,.73,0,1.1" transform="translate(-1556.31 -479.25)"/><path class="cls-1" d="M1771.09,639.32c.6,2.49,1.19,5,1.8,7.48a3,3,0,0,0,.39.7" transform="translate(-1556.31 -479.25)"/><path class="cls-1" d="M1719.58,680.44c-.07.77-.18,1.53-.19,2.3,0,1.76-.05,3.53,0,5.29,0,.9.25,1.79.37,2.69a4.09,4.09,0,0,1,0,.7" transform="translate(-1556.31 -479.25)"/><path class="cls-1" d="M1583,681.74a40.91,40.91,0,0,0,1.77,6.2,7,7,0,0,1,.85,3.58c0,.35.31.73.47,1.1" transform="translate(-1556.31 -479.25)"/><path class="cls-1" d="M1635.73,637c-.76.8-1.86.66-2.8,1-1.21.44-2.47.76-3.68,1.23a13.49,13.49,0,0,0-1.61,1,5.4,5.4,0,0,1-.79.31" transform="translate(-1556.31 -479.25)"/><path class="cls-1" d="M1685.24,663.67c-.23,1.13-.44,2.27-.7,3.4-.37,1.59-.89,3.16-.42,4.84.1.34-.11.76-.18,1.15" transform="translate(-1556.31 -479.25)"/><path class="cls-1" d="M1617.42,652c-1.65.54-3.31,1-4.94,1.61-1,.37-2.07.86-3.1,1.29" transform="translate(-1556.31 -479.25)"/><path class="cls-1" d="M1730.46,683.64c-.34,1,.18,2,.31,3,.29,2.1.65,4.19,1,6.29,0,.11.13.2.2.3" transform="translate(-1556.31 -479.25)"/><path class="cls-1" d="M1696.22,640.32c0,1.23.43,2.61,0,3.65-.53,1.3-.32,2.72-1,3.93" transform="translate(-1556.31 -479.25)"/><path class="cls-1" d="M1616.67,683.94a21.66,21.66,0,0,1-5.79,1.22,20.48,20.48,0,0,0-2.5.66c-.42.11-.86.14-1.3.21" transform="translate(-1556.31 -479.25)"/><path class="cls-1" d="M1635.23,640.22c-1.18-.61-2.39-.2-3.59-.11s-2.66.14-4,.21" transform="translate(-1556.31 -479.25)"/><path class="cls-1" d="M1737,637.92c-.2.83-.38,1.67-.61,2.49-.34,1.24-.74,2.46-1.08,3.7a9.64,9.64,0,0,1-1,3.08c-.28.42.08,1.26.14,1.91" transform="translate(-1556.31 -479.25)"/><path class="cls-1" d="M1638.18,702.11c-1.11.47-1.13,1.41-1,2.4" transform="translate(-1556.31 -479.25)"/><path class="cls-1" d="M1638.33,701.22a1.16,1.16,0,0,0,.05,1.11,8.62,8.62,0,0,1,.25,2.18" transform="translate(-1556.31 -479.25)"/><path class="cls-1" d="M1723.77,686c.27.87.55,1.73.8,2.6a9.84,9.84,0,0,0,.63,2.28c.32.59,0,1.53,0,2.31" transform="translate(-1556.31 -479.25)"/><path class="cls-1" d="M1707.7,600.09l1,.56a3.86,3.86,0,0,0,.84-2.66.63.63,0,0,0-.1-.39" transform="translate(-1556.31 -479.25)"/><path class="cls-1" d="M1742.64,695.06l.1,2.45" transform="translate(-1556.31 -479.25)"/><path class="cls-1" d="M1746.13,688c-.26,1.4-.62,2.78-.77,4.19-.2,1.76-.23,3.53-.33,5.29" transform="translate(-1556.31 -479.25)"/><path class="cls-1" d="M1636.23,640.22c-.53.23-1.06.47-1.6.69-1.39.57-2.8,1.11-4.18,1.71-.63.27-1.21.66-1.81,1" transform="translate(-1556.31 -479.25)"/><path class="cls-1" d="M1735.75,684.43c-.7,1.7-.49,3.54-.8,5.29-.38,2.12.28,4.19.2,6.29" transform="translate(-1556.31 -479.25)"/><path class="cls-1" d="M1710.4,678.35a3.16,3.16,0,0,0-.38,1.09c0,1.83.11,3.67.31,5.49a8.64,8.64,0,0,1,.37,2.1" transform="translate(-1556.31 -479.25)"/><path class="cls-1" d="M1569,653.49a35,35,0,0,0,.8,7" transform="translate(-1556.31 -479.25)"/><path class="cls-1" d="M1754.52,692.92c-.87,1.43-2.18,2.68-1.9,4.59" transform="translate(-1556.31 -479.25)"/><path class="cls-1" d="M1730.36,685.33c-.72.67-.41,1.6-.57,2.4-.29,1.42-.43,2.86-.63,4.29" transform="translate(-1556.31 -479.25)"/><path class="cls-1" d="M1610.08,650.4c2.5.65,5.2.29,7.58,1.49" transform="translate(-1556.31 -479.25)"/><path class="cls-1" d="M1747.43,691v6.49" transform="translate(-1556.31 -479.25)"/><path class="cls-1" d="M1739,685.43a17,17,0,0,0-.77,1.81,5.3,5.3,0,0,0-.12,1.39c-.07,1.69-.15,3.39-.19,5.09a2.68,2.68,0,0,0,.29.8" transform="translate(-1556.31 -479.25)"/><path class="cls-1" d="M1727.57,684.13a12.82,12.82,0,0,0-1.8,4.7c-.15.59-.27,1.19-.4,1.79" transform="translate(-1556.31 -479.25)"/><path class="cls-1" d="M1735,686.93c-.53,1.23-1.09,2.45-1.59,3.7-.37.91-.67,1.86-1,2.79" transform="translate(-1556.31 -479.25)"/><path class="cls-1" d="M1631.14,701.42c0,.43.07.86.1,1.29,0,.64.07,1.27.1,1.9" transform="translate(-1556.31 -479.25)"/><path class="cls-1" d="M1636.53,701.12c-1,1-.94,2.17-.9,3.39" transform="translate(-1556.31 -479.25)"/><path class="cls-1" d="M1738,687.93c-.6,1.23-1.23,2.45-1.79,3.7-.36.8-.61,1.65-.91,2.49" transform="translate(-1556.31 -479.25)"/><path class="cls-1" d="M1770.49,680.44a12.62,12.62,0,0,0-1.51,5.09,10.19,10.19,0,0,1-.39,1.3" transform="translate(-1556.31 -479.25)"/><path class="cls-1" d="M1692.53,672.86c.13.13.4.29.38.39a18,18,0,0,0,0,6" transform="translate(-1556.31 -479.25)"/><path class="cls-1" d="M1729.76,666.87a27.49,27.49,0,0,1-2.49,6.29" transform="translate(-1556.31 -479.25)"/><path class="cls-1" d="M1612.67,665.67c-.53.27-1.07.51-1.59.8s-1.29.8-1.93,1.2l.09.33,2.84.69c-.46.74-1.32.88-1.28,1.87,0,.4-.89.82-1.42,1.27l.84,1.2-.64.82" transform="translate(-1556.31 -479.25)"/><path class="cls-1" d="M1669.27,678.05c-.82.73-1.92.76-2.89,1.1s-2.2.86-3.3,1.29" transform="translate(-1556.31 -479.25)"/><path class="cls-1" d="M1757.41,651.79a27.48,27.48,0,0,1-3.68,1.25,51.9,51.9,0,0,0-5.3,2" transform="translate(-1556.31 -479.25)"/><path class="cls-1" d="M1814.41,620.85a13.24,13.24,0,0,0,.19,7.09,3,3,0,0,1,0,.8" transform="translate(-1556.31 -479.25)"/><path class="cls-1" d="M1617.76,645.31c-1.29.43-2.6.84-3.89,1.3-.71.26-1.4.59-2.09.89" transform="translate(-1556.31 -479.25)"/><path class="cls-1" d="M1586.32,659.68c.3.73.66,1.45.89,2.2q.75,2.58,1.39,5.19a9.3,9.3,0,0,1,.12,1.59" transform="translate(-1556.31 -479.25)"/><path class="cls-1" d="M1721.78,669.26c.33.83.68,1.66,1,2.5.38,1,.74,2.06,1.1,3.09" transform="translate(-1556.31 -479.25)"/><path class="cls-1" d="M1770.69,680.44c.1,1,.19,2.06.3,3.1s.22,1.92.29,2.89a9.69,9.69,0,0,1-.09,1.2" transform="translate(-1556.31 -479.25)"/><path class="cls-1" d="M1771.29,641.71c-.07.9-.16,1.8-.2,2.7,0,1.33-.07,2.66-.1,4" transform="translate(-1556.31 -479.25)"/><path class="cls-1" d="M1637.73,634l-5.49,1.8a1.37,1.37,0,0,0-.3.19" transform="translate(-1556.31 -479.25)"/><path class="cls-1" d="M1629.64,643.41c.57.07,1.13.17,1.7.19,1.33.06,2.67.08,4,.12l.09.29-2,1.61.17.29,2.94.38-.51,1.09c.24.54.79.39,1.28.43s.82.12,1.3.19c-.17.33-.22.47-.3.6-.48.75-.43.83.49,1a13.4,13.4,0,0,1,1.56.47c-.24.65-.57,1.12-.49,1.5s.75.31,1.13.52a9.77,9.77,0,0,1,.9.69" transform="translate(-1556.31 -479.25)"/><path class="cls-1" d="M1775.48,682.24a6.71,6.71,0,0,1,.09,1.1c-.12,1.53-.74,3-.39,4.59" transform="translate(-1556.31 -479.25)"/><path class="cls-1" d="M1655.4,620.45a9.33,9.33,0,0,0,1.78-.32c.54-.21.67.14.78.44,0,.08-.34.41-.57.47-1.19.3-2.41.49-3.59.83a10.79,10.79,0,0,1-2.8.78" transform="translate(-1556.31 -479.25)"/><path class="cls-1" d="M1654.4,623c-.33,0-.74-.21-1-.08-1.82,1-3.87,1.1-5.8,1.68,0,0-.07.06-.1.1" transform="translate(-1556.31 -479.25)"/><path class="cls-1" d="M1679.25,661.88a8.18,8.18,0,0,0-.19,1.19c0,1.33.07,2.67.09,4,0,.73,0,1.46,0,2.19" transform="translate(-1556.31 -479.25)"/><path class="cls-1" d="M1562.66,679c0,1.5,0,3,0,4.5a6.26,6.26,0,0,0,.19.94" transform="translate(-1556.31 -479.25)"/><path class="cls-1" d="M1745.53,689.33a13.06,13.06,0,0,0-2.4,5,3.62,3.62,0,0,1-.19.4" transform="translate(-1556.31 -479.25)"/><path class="cls-1" d="M1700.12,674.85a6.67,6.67,0,0,0-.89,1.11c-.61,1.21-1.15,2.45-1.7,3.69,0,.1.06.26.09.39" transform="translate(-1556.31 -479.25)"/><path class="cls-1" d="M1760,652.59a19.58,19.58,0,0,0-5.91,2.18c-.3.19-.78.09-1.18.12" transform="translate(-1556.31 -479.25)"/><path class="cls-1" d="M1766.1,679.84a12.31,12.31,0,0,1,0,2.71,19,19,0,0,0,.13,3.68,10.19,10.19,0,0,1-.09,1.1" transform="translate(-1556.31 -479.25)"/><path class="cls-1" d="M1640.42,630.73c-.07.79-.66.94-1.29,1.11-1.21.33-2.4.72-3.6,1.09" transform="translate(-1556.31 -479.25)"/><path class="cls-1" d="M1776.58,640.72A4.87,4.87,0,0,1,1776,643a6.18,6.18,0,0,0-.34,1.78c-.09.37-.26.73-.39,1.1" transform="translate(-1556.31 -479.25)"/><path class="cls-1" d="M1723.57,686c-.06.33-.12.67-.2,1-.33,1.4-.66,2.79-1,4.19" transform="translate(-1556.31 -479.25)"/><path class="cls-1" d="M1586,682.44a9.53,9.53,0,0,0,0,1.69c.31,1.86.34,3.79,1.28,5.49" transform="translate(-1556.31 -479.25)"/><path class="cls-1" d="M1692,668.86a12,12,0,0,0-.87,4,25.54,25.54,0,0,0,0,3.39" transform="translate(-1556.31 -479.25)"/><path class="cls-1" d="M1788.16,606.58a6.75,6.75,0,0,0,1.49,2.79c.07.07.17.13.2.2l1.2,4.2a1.7,1.7,0,0,1,0,.39" transform="translate(-1556.31 -479.25)"/><path class="cls-1" d="M1733.06,643c-.17.8-.36,1.59-.5,2.4s-.27,1.79-.4,2.69" transform="translate(-1556.31 -479.25)"/><path class="cls-1" d="M1685.94,662.47a23.92,23.92,0,0,0-1.78,2c-.76,1.09-1.41,2.26-2.12,3.38a2.58,2.58,0,0,1-.49.5" transform="translate(-1556.31 -479.25)"/><path class="cls-1" d="M1804.63,622.55a13.44,13.44,0,0,0,.42,2.19,14.89,14.89,0,0,0,1.08,2.1c.24.44.52.87.79,1.3" transform="translate(-1556.31 -479.25)"/><path class="cls-1" d="M1736.15,641.71a12,12,0,0,1,.19,1.3c.06,1.33.09,2.66.1,4,0,.44-.06.87-.09,1.3" transform="translate(-1556.31 -479.25)"/><path class="cls-1" d="M1585.22,668.26a6.55,6.55,0,0,0,.21.9c.51,1.34,1.38,2.56,1.3,4.1,0,.12.12.26.19.39" transform="translate(-1556.31 -479.25)"/><path class="cls-1" d="M1583.63,683.14c.63,1.13,1.24,2.27,1.9,3.38a9.41,9.41,0,0,0,.89,1.11" transform="translate(-1556.31 -479.25)"/><path class="cls-1" d="M1565.86,678.45c-.2,1.16-.32,2.35-.62,3.48-.46,1.72-1,3.4-1.58,5.1" transform="translate(-1556.31 -479.25)"/><path class="cls-1" d="M1707,680.44c.17.53.34,1.06.5,1.6.27.93.54,1.86.79,2.8,0,.11-.06.26-.09.39" transform="translate(-1556.31 -479.25)"/><path class="cls-1" d="M1697.22,673.65c.07.94.13,1.87.2,2.8.06.67.13,1.33.2,2" transform="translate(-1556.31 -479.25)"/><path class="cls-1" d="M1766.39,681.94l1.2,2.79c.3.69.64,1.36.89,2a15.29,15.29,0,0,1,.41,1.65" transform="translate(-1556.31 -479.25)"/><path class="cls-1" d="M1779,682c-.76,1.23-1.52,2.46-2.3,3.69-.48.77-1,1.52-1.48,2.31a3.34,3.34,0,0,0-.21,1" transform="translate(-1556.31 -479.25)"/><path class="cls-1" d="M1701.11,673.55c-.26.4-.69.78-.77,1.21-.24,1.48-.36,3-.51,4.48,0,.13.12.27.19.4" transform="translate(-1556.31 -479.25)"/><path class="cls-1" d="M1740.74,641.51c-.89,1.76-.7,3.75-1.18,5.6a14.38,14.38,0,0,0-.22,2.19" transform="translate(-1556.31 -479.25)"/><path class="cls-1" d="M1643.62,690.24a5,5,0,0,0-.23,2.8,6.14,6.14,0,0,1,0,1.49c.09,1.43.2,2.86.3,4.29" transform="translate(-1556.31 -479.25)"/><path class="cls-1" d="M1823.39,671.66c-.7,2.16-1.39,4.32-2.1,6.48,0,.12-.19.21-.29.31" transform="translate(-1556.31 -479.25)"/><path class="cls-1" d="M1796.64,650.6l4.69.9" transform="translate(-1556.31 -479.25)"/><path class="cls-1" d="M1696.42,644.51l.6,2.49c.17.7.69,1.32.5,2.1" transform="translate(-1556.31 -479.25)"/><path class="cls-1" d="M1824.69,675.05c-.89.69-.7,1.81-1.09,2.7-.27.59-.48,1.19-.71,1.79" transform="translate(-1556.31 -479.25)"/><path class="cls-1" d="M1649.11,625.54c-1.13.37-2.27.72-3.39,1.11a6.43,6.43,0,0,0-1,.54" transform="translate(-1556.31 -479.25)"/><path class="cls-1" d="M1676.36,662.08a10.31,10.31,0,0,1-.4,5" transform="translate(-1556.31 -479.25)"/><path class="cls-1" d="M1582.43,688a3,3,0,0,0,0,1c.32.91.73,1.8,1.06,2.71a2.3,2.3,0,0,1,0,.79" transform="translate(-1556.31 -479.25)"/><path class="cls-1" d="M1809.62,621.35a16.65,16.65,0,0,0,.21,6.29,4.36,4.36,0,0,0,.48,1" transform="translate(-1556.31 -479.25)"/><path class="cls-1" d="M1578.44,637.52a3,3,0,0,1,.19.7,6.34,6.34,0,0,0,1.5,3.69" transform="translate(-1556.31 -479.25)"/><path class="cls-1" d="M1647,636.52c-.43,1.3-.89,2.59-1.28,3.9a2.83,2.83,0,0,0,.08,1" transform="translate(-1556.31 -479.25)"/><path class="cls-1" d="M1763.8,684.33c.07,1.07.14,2.13.2,3.2,0,.4,0,.8,0,1.2a6.32,6.32,0,0,1-2.9-3.5" transform="translate(-1556.31 -479.25)"/><path class="cls-1" d="M1643.12,692.53c-.92,1-.88,2.39-1.3,3.59-.09.24-.2.47-.3.7" transform="translate(-1556.31 -479.25)"/><path class="cls-1" d="M1724.77,669.06c-.27,1.2-.53,2.4-.8,3.6-.06.26-.13.53-.2.79" transform="translate(-1556.31 -479.25)"/><path class="cls-1" d="M1763.8,655.49s0-.09,0-.1a5.56,5.56,0,0,0-4.79-.1" transform="translate(-1556.31 -479.25)"/><path class="cls-1" d="M1729.36,641.91c.27,1.07.61,2.12.78,3.2s.18,2.22.26,3.33l-.27,0-1-.69" transform="translate(-1556.31 -479.25)"/><path class="cls-1" d="M1565.26,682.44a2.91,2.91,0,0,1,.19.7c0,1.56.08,3.12.11,4.69" transform="translate(-1556.31 -479.25)"/><path class="cls-1" d="M1826.29,672a5.69,5.69,0,0,0-1.41,3.69,3.36,3.36,0,0,1-.09.7c-.23,1.76-.47,3.53-.7,5.29" transform="translate(-1556.31 -479.25)"/><path class="cls-1" d="M1752.72,691c0,.93-.09,1.87-.09,2.8a10.65,10.65,0,0,0,.19,1.49" transform="translate(-1556.31 -479.25)"/><path class="cls-1" d="M1659.19,646.11c-.2,1.49-.43,3-.59,4.49a12.77,12.77,0,0,0,.07,1.73c1.08-.31,1.92-.69,2.14-1.83,0-.23.38-.4.58-.6" transform="translate(-1556.31 -479.25)"/><path class="cls-1" d="M1653.5,641.51c-.1,1-.12,2.08-.32,3.09a9,9,0,0,0,.21,3.2,8.06,8.06,0,0,1,0,1.3" transform="translate(-1556.31 -479.25)"/><path class="cls-1" d="M1566,654.69a26.18,26.18,0,0,1,1.06,3.4c.22,1.24.15,2.52.25,3.78a3.07,3.07,0,0,0,.39.9" transform="translate(-1556.31 -479.25)"/><path class="cls-1" d="M1681.65,664.07c0,.63-.07,1.27-.1,1.9-.07,1.43-.13,2.86-.2,4.29" transform="translate(-1556.31 -479.25)"/><path class="cls-1" d="M1691.43,669.76c-1,.42-1.19,1.42-1.69,2.2-.35.52-.67,1.06-1,1.59" transform="translate(-1556.31 -479.25)"/><path class="cls-1" d="M1776.08,680.24q-1.1,2.44-2.2,4.89c-.19.41-.4.8-.6,1.2" transform="translate(-1556.31 -479.25)"/><path class="cls-1" d="M1650,625.44c-1.41,0-2.76-.76-4.2-.3a7.62,7.62,0,0,1-.79.2" transform="translate(-1556.31 -479.25)"/><path class="cls-1" d="M1798.44,609.87l-1.7,2.8-.7,1.1" transform="translate(-1556.31 -479.25)"/><path class="cls-1" d="M1686.44,667.87c-.1,1.66-.21,3.32-.28,5a2.28,2.28,0,0,0,.28.79" transform="translate(-1556.31 -479.25)"/><path class="cls-1" d="M1574.44,655.49c-.63,1.74-.39,3.6-.67,5.39a12.79,12.79,0,0,0,.07,2.39" transform="translate(-1556.31 -479.25)"/><path class="cls-1" d="M1799.14,608.57a11.68,11.68,0,0,0-.82,5.45,4.16,4.16,0,0,1-.18,1.14" transform="translate(-1556.31 -479.25)"/><path class="cls-1" d="M1666.68,653.29c-.1,1-.22,1.93-.29,2.9a5.73,5.73,0,0,0,.09,1.09" transform="translate(-1556.31 -479.25)"/><path class="cls-1" d="M1709.8,679.94c-.91.8-.88,2-1.21,3a7.89,7.89,0,0,1-.39.9" transform="translate(-1556.31 -479.25)"/><path class="cls-1" d="M1568.06,681.14c-.63,1.48-.32,3.07-.57,4.6a17.4,17.4,0,0,0,0,2.89" transform="translate(-1556.31 -479.25)"/><path class="cls-1" d="M1725,669.06c.13.57.29,1.13.39,1.7.22,1.16.41,2.33.61,3.49" transform="translate(-1556.31 -479.25)"/><path class="cls-1" d="M1630,636.92c1.18-.78,2.46-.24,3.7-.28,1,0,2.06.12,3.09.18" transform="translate(-1556.31 -479.25)"/><path class="cls-1" d="M1651.1,661.08a12.88,12.88,0,0,1-3.69,1.1,1.12,1.12,0,0,0-.3.2" transform="translate(-1556.31 -479.25)"/><path class="cls-1" d="M1774.28,643.71s.09.06.1.1c.27,1.06.45,2.16.82,3.19s-.16,1.45-.72,2c-.19.18-.4.33-.56.31-1.34-.27-2.68-.58-4-.8-1-.15-1.12-.29-1.11-1.31,0-.73-.07-1.46-.08-2.19,0-.28-.16-.69.39-.65" transform="translate(-1556.31 -479.25)"/><path class="cls-1" d="M1696.82,673.75c-.33.9-.65,1.81-1,2.7-.18.44-.43.86-.65,1.3" transform="translate(-1556.31 -479.25)"/><path class="cls-1" d="M1721.18,687.23c.2.9.39,1.8.6,2.69.11.44.26.87.4,1.3" transform="translate(-1556.31 -479.25)"/><path class="cls-1" d="M1571.55,657.18c-.23.84-.46,1.67-.7,2.5-.14.5-.3,1-.45,1.5" transform="translate(-1556.31 -479.25)"/><path class="cls-1" d="M1651.5,637.82c-.6,1.23-1.22,2.45-1.78,3.7-.12.28,0,.66,0,1-.08.93-.19,1.87-.29,2.8" transform="translate(-1556.31 -479.25)"/><path class="cls-1" d="M1701.51,640.72c-.06.56-.13,1.13-.2,1.69a14.56,14.56,0,0,0,.39,5.8,4,4,0,0,1,0,1.09" transform="translate(-1556.31 -479.25)"/><path class="cls-1" d="M1786.36,606.58a7.12,7.12,0,0,0,0,.8c.23,1.69.5,3.39.67,5.09,0,.43-.38.9.13,1.3" transform="translate(-1556.31 -479.25)"/><path class="cls-1" d="M1841.26,672.66a1.79,1.79,0,0,0-.59.2,9.78,9.78,0,0,0-2.81,3.19" transform="translate(-1556.31 -479.25)"/><path class="cls-1" d="M1651.4,661.08l-4.19-.4" transform="translate(-1556.31 -479.25)"/><path class="cls-1" d="M1665.08,647.7a7.94,7.94,0,0,1-.4.7,9.58,9.58,0,0,0-1.28,4.2c-.05.3.18.66.28,1" transform="translate(-1556.31 -479.25)"/><path class="cls-1" d="M1813.61,623.85c-.27,1-.52,2-.81,3a5.36,5.36,0,0,1-.39.8" transform="translate(-1556.31 -479.25)"/><path class="cls-1" d="M1803.13,626.24c0,.5,0,1,0,1.5a5.75,5.75,0,0,0,.28,1c-1.35-.45-2.5-.78-3.09-2" transform="translate(-1556.31 -479.25)"/><path class="cls-1" d="M1608.58,665.07c.73.07,1.47.09,2.19.21a12.84,12.84,0,0,1,1.6.49" transform="translate(-1556.31 -479.25)"/><path class="cls-1" d="M1581,685.63c1.2,2.19,3,3.93,4.49,5.89" transform="translate(-1556.31 -479.25)"/><path class="cls-1" d="M1733.35,639.92c0,.36-.08.73-.09,1.09a19.21,19.21,0,0,0,.89,5.89" transform="translate(-1556.31 -479.25)"/><path class="cls-1" d="M1607,638.32l1.1,3.79" transform="translate(-1556.31 -479.25)"/><path class="cls-1" d="M1844.35,672c-1,.9-2.09,1.77-3.08,2.7-.65.61-1.21,1.32-1.81,2" transform="translate(-1556.31 -479.25)"/><path class="cls-1" d="M1560.87,684a3.43,3.43,0,0,0-.23,2.7c.11.31-.1.72-.17,1.09" transform="translate(-1556.31 -479.25)"/><path class="cls-1" d="M1727.86,646c1.51,1,1,2.57,1,4l-1.79-.51" transform="translate(-1556.31 -479.25)"/><path class="cls-1" d="M1657.49,644.71a12.34,12.34,0,0,0-.94,3.78,14.36,14.36,0,0,0,.14,3.6" transform="translate(-1556.31 -479.25)"/><path class="cls-1" d="M1740.34,691.12a5.09,5.09,0,0,1,.08,1.39,3.76,3.76,0,0,0,.22,2.5" transform="translate(-1556.31 -479.25)"/><path class="cls-1" d="M1721.58,669.26c-.1.93-.2,1.87-.31,2.8,0,.3-.13.6-.19.9" transform="translate(-1556.31 -479.25)"/><path class="cls-1" d="M1739.94,643.41c-.9.59-.9,1.68-1.4,2.49-.2.32-.46.6-.69.9" transform="translate(-1556.31 -479.25)"/><path class="cls-1" d="M1773.88,643.71c-.07.43-.16.86-.19,1.3-.12,1.36-.21,2.73-.31,4.09" transform="translate(-1556.31 -479.25)"/><path class="cls-1" d="M1672.07,656.49a1.85,1.85,0,0,1-.11.49,9.29,9.29,0,0,0-1,6.09" transform="translate(-1556.31 -479.25)"/><path class="cls-1" d="M1848.5,643.8c-.25,1.09-.74,1.17-1.75.61a3.79,3.79,0,0,1-.4-.3" transform="translate(-1556.31 -479.25)"/><path class="cls-1" d="M1629.64,677.85a14.58,14.58,0,0,1,0,2.29,4.47,4.47,0,0,1-.67,1.3" transform="translate(-1556.31 -479.25)"/><path class="cls-1" d="M1678.85,663.67c-.26.5-.56,1-.79,1.5a18.77,18.77,0,0,0-.69,1.9,4.62,4.62,0,0,0-.11,1" transform="translate(-1556.31 -479.25)"/><path class="cls-1" d="M1819.6,673.85c-.14,1-.26,2-.41,3a3.47,3.47,0,0,1-.19.6" transform="translate(-1556.31 -479.25)"/><path class="cls-1" d="M1729.36,669.26c0,.34.06.67.1,1l.3,2.6" transform="translate(-1556.31 -479.25)"/><path class="cls-1" d="M1567.26,683.34l-1.5,3.39" transform="translate(-1556.31 -479.25)"/><path class="cls-1" d="M1703.81,644.81l-1.5,2.49c-.16.27-.33.54-.5.8" transform="translate(-1556.31 -479.25)"/><path class="cls-1" d="M1654.6,645.71c.13.1.38.2.38.3,0,1.63,0,3.26-.08,4.89" transform="translate(-1556.31 -479.25)"/><path class="cls-1" d="M1572,654.89a19.52,19.52,0,0,0,0,5.29c.08.77.2,1.53.3,2.29" transform="translate(-1556.31 -479.25)"/><path class="cls-1" d="M1573.84,657.58l-1,2.1-.6,1.2" transform="translate(-1556.31 -479.25)"/><path class="cls-1" d="M1809.22,624.05c-.07,0-.18.05-.2.1-.39,1.57-.89,3.14-.4,4.79" transform="translate(-1556.31 -479.25)"/><path class="cls-1" d="M1614,648.3c-.4.27-.78.56-1.2.79-.69.38-1.6.41-2,1.26" transform="translate(-1556.31 -479.25)"/><path class="cls-1" d="M1776.48,642.71a2.46,2.46,0,0,1,.28.9,6.52,6.52,0,0,0,.61,2.5" transform="translate(-1556.31 -479.25)"/><path class="cls-1" d="M1847.64,642.3c-.12.1-.33.08-.49.11" transform="translate(-1556.31 -479.25)"/><path class="cls-1" d="M1740.54,690c-.4.77-.82,1.52-1.19,2.3s-.8,1.8-1.2,2.69" transform="translate(-1556.31 -479.25)"/><path class="cls-1" d="M1712,682.64l.3,5" transform="translate(-1556.31 -479.25)"/><path class="cls-1" d="M1730.56,646.21c.64,1.07,1.56,2,1.8,3.29" transform="translate(-1556.31 -479.25)"/><path class="cls-1" d="M1634.33,699.42a21,21,0,0,1-.59,5" transform="translate(-1556.31 -479.25)"/><path class="cls-1" d="M1741.94,607.08a8.48,8.48,0,0,1,.68,1.3c.35,1,1.29,1.69,1.42,2.79" transform="translate(-1556.31 -479.25)"/><path class="cls-1" d="M1791.75,608.18a8,8,0,0,1-.9,3.39" transform="translate(-1556.31 -479.25)"/><path class="cls-1" d="M1806.82,621.35a19.67,19.67,0,0,0,.23,3,25.88,25.88,0,0,0,1.17,3.1" transform="translate(-1556.31 -479.25)"/><path class="cls-1" d="M1627.35,685.63" transform="translate(-1556.31 -479.25)"/><path class="cls-1" d="M1842.56,671.46a19.52,19.52,0,0,0-2.79,3.9,2.22,2.22,0,0,0-.11.79" transform="translate(-1556.31 -479.25)"/><path class="cls-1" d="M1608.48,685.93c.57.13,1.13.28,1.7.4l2.49.5" transform="translate(-1556.31 -479.25)"/><path class="cls-1" d="M1766.59,688.63a31.75,31.75,0,0,0-2.77-4.42,4.68,4.68,0,0,1-.52-1.57" transform="translate(-1556.31 -479.25)"/><path class="cls-1" d="M1682.15,662.87c-.67,1.07-1.34,2.13-2,3.2a10,10,0,0,0-.51,1.1" transform="translate(-1556.31 -479.25)"/><path class="cls-1" d="M1705.21,680c.1,1,1,1.87.79,3" transform="translate(-1556.31 -479.25)"/><path class="cls-1" d="M1658.69,647.9l-1.4,2.1-.6.9" transform="translate(-1556.31 -479.25)"/><path class="cls-1" d="M1661.19,619.06l-3.3.79" transform="translate(-1556.31 -479.25)"/><path class="cls-1" d="M1848.05,644.81" transform="translate(-1556.31 -479.25)"/><path class="cls-1" d="M1672.76,659.48a4.29,4.29,0,0,1-1.69,3.09" transform="translate(-1556.31 -479.25)"/><path class="cls-1" d="M1769.09,644.51c.37.76.71,1.54,1.11,2.29a4.3,4.3,0,0,0,.59.7" transform="translate(-1556.31 -479.25)"/><path class="cls-1" d="M1630.64,700.72c.3.23.62.44.9.7a4.44,4.44,0,0,1,1.8,3" transform="translate(-1556.31 -479.25)"/><path class="cls-1" d="M1791.65,610.37a14.65,14.65,0,0,0,.42,2,5.66,5.66,0,0,0,.78,1.21" transform="translate(-1556.31 -479.25)"/><path class="cls-1" d="M1778.47,683.44c-.13.69-.28,1.39-.39,2.09-.06.4-.07.8-.11,1.2" transform="translate(-1556.31 -479.25)"/><path class="cls-1" d="M1732.06,669.66c-.7,1.12-1.42,2.22-2.09,3.35a4.47,4.47,0,0,0-.31,1" transform="translate(-1556.31 -479.25)"/><path class="cls-1" d="M1569.65,663.27a6.68,6.68,0,0,0-.41-1.19c-.57-1-1.18-2-1.79-3,0-.08-.13-.13-.19-.2" transform="translate(-1556.31 -479.25)"/><path class="cls-1" d="M1764.7,642.81a4.11,4.11,0,0,0,.51.89,6.53,6.53,0,0,1,1.58,4.4" transform="translate(-1556.31 -479.25)"/><path class="cls-1" d="M1747.13,691.92c-.4.7-.79,1.4-1.2,2.09-.18.31-.4.61-.6.9" transform="translate(-1556.31 -479.25)"/><path class="cls-1" d="M1840.86,605c-.07,1.07-.13,2.13-.2,3.2" transform="translate(-1556.31 -479.25)"/><path class="cls-1" d="M1843.45,673c-.39.76-.81,1.52-1.19,2.29a6.78,6.78,0,0,0-.3.9" transform="translate(-1556.31 -479.25)"/><path class="cls-1" d="M1606.68,634.93l.2,3.19" transform="translate(-1556.31 -479.25)"/><path class="cls-1" d="M1848.75,643.71" transform="translate(-1556.31 -479.25)"/><path class="cls-1" d="M1788.55,608.28c0,.69,0,1.39-.1,2.09,0,.34-.13.67-.19,1" transform="translate(-1556.31 -479.25)"/><path class="cls-1" d="M1838.56,606.58c-.1.56-.18,1.13-.3,1.69s-.23.94-.35,1.4" transform="translate(-1556.31 -479.25)"/><path class="cls-1" d="M1802.13,623.75a11.33,11.33,0,0,0,2.69,4.34,5.93,5.93,0,0,1,.5.85" transform="translate(-1556.31 -479.25)"/><path class="cls-1" d="M1721,687.23c-.27.76-.53,1.53-.81,2.29a4.73,4.73,0,0,1-.29.6" transform="translate(-1556.31 -479.25)"/><path class="cls-1" d="M1701.81,676.65a9.22,9.22,0,0,0,.25,4.69" transform="translate(-1556.31 -479.25)"/><path class="cls-1" d="M1574.94,628.74a5.33,5.33,0,0,0,1.2,2.59l.4.6" transform="translate(-1556.31 -479.25)"/><path class="cls-1" d="M1747.23,605.18c0,1,.41,2.05-.1,3.05" transform="translate(-1556.31 -479.25)"/><path class="cls-1" d="M1590,661.93c-.68,0-.48.56-.5.94,0,.67-.09,1.34-.09,2a3.62,3.62,0,0,0,.19.9c.12.5.26,1,.4,1.5" transform="translate(-1556.31 -479.25)"/><path class="cls-1" d="M1634.43,684.43l.18-2.14c-.74.29-1.35.55-1.47,1.35" transform="translate(-1556.31 -479.25)"/><path class="cls-1" d="M1561.07,684c.13.66.24,1.33.41,2a6.46,6.46,0,0,0,.39,1" transform="translate(-1556.31 -479.25)"/><path class="cls-1" d="M1646.71,636.82c-.43.53-.88,1-1.29,1.6-.27.38-.47.8-.7,1.2" transform="translate(-1556.31 -479.25)"/><path class="cls-1" d="M1585.52,679.44a30.44,30.44,0,0,0,.83,3.19c.43,1.17,1,2.27,1.57,3.4" transform="translate(-1556.31 -479.25)"/><path class="cls-1" d="M1563.26,629.14c.17,1.5.39,3,1.61,4.08a5.62,5.62,0,0,0,.93.58l1.16-2.57" transform="translate(-1556.31 -479.25)"/><path class="cls-1" d="M1563.26,630.43a3.31,3.31,0,0,0-.39.61c-.25.75-.49,1.52-.69,2.29a3,3,0,0,0,0,.8" transform="translate(-1556.31 -479.25)"/><path class="cls-1" d="M1768.29,641.31l.6,3" transform="translate(-1556.31 -479.25)"/><path class="cls-1" d="M1590.91,647.9a11.25,11.25,0,0,1,1,1.31,8.42,8.42,0,0,0,2.31,2.48" transform="translate(-1556.31 -479.25)"/><path class="cls-1" d="M1701,644.71c-.2.43-.41.86-.59,1.3s-.4,1-.6,1.49" transform="translate(-1556.31 -479.25)"/><path class="cls-1" d="M1663.78,649.7c-.43.56-.86,1.13-1.3,1.69-.22.28-.46.54-.7.8" transform="translate(-1556.31 -479.25)"/><path class="cls-1" d="M1688,671a9.25,9.25,0,0,0-1.6,3.49" transform="translate(-1556.31 -479.25)"/><path class="cls-1" d="M1649.61,695.93a1.82,1.82,0,0,0-1,1.69,1.5,1.5,0,0,1,0,.3c-.37,1.37-.73,2.73-1.1,4.09" transform="translate(-1556.31 -479.25)"/><path class="cls-1" d="M1716.09,669.86c.87,1.8,1.82,3.52,3.69,4.49" transform="translate(-1556.31 -479.25)"/><path class="cls-1" d="M1844.25,607.58c0,.13,0,.33-.1.39a3.26,3.26,0,0,0-1.39,3" transform="translate(-1556.31 -479.25)"/><path class="cls-1" d="M1719.38,669.26c.13.53.26,1.07.4,1.6a9.83,9.83,0,0,1,.11,3.29,2.28,2.28,0,0,0,.19.7" transform="translate(-1556.31 -479.25)"/><path class="cls-1" d="M1650.41,698.12c-.14.1-.37.19-.39.3-.16,1.13-.28,2.26-.41,3.4" transform="translate(-1556.31 -479.25)"/><path class="cls-1" d="M1704.61,601l-.9,1.78-1.4-1.78" transform="translate(-1556.31 -479.25)"/><path class="cls-1" d="M1742.84,690.72a11.8,11.8,0,0,0-1.52,2.79,5.94,5.94,0,0,1-.58,1.26" transform="translate(-1556.31 -479.25)"/><path class="cls-1" d="M1690.83,642.31a9.38,9.38,0,0,1,.2,4.79" transform="translate(-1556.31 -479.25)"/><path class="cls-1" d="M1738.35,642.91c-.41,1.36-.66,2.79-1.8,3.79" transform="translate(-1556.31 -479.25)"/><path class="cls-1" d="M1613.47,683.24c.63.1,1.28.16,1.9.31a3.25,3.25,0,0,1,.8.49" transform="translate(-1556.31 -479.25)"/><path class="cls-1" d="M1811.71,624.94c0,.3,0,.67-.11.89a9.1,9.1,0,0,0-1.29,3.91" transform="translate(-1556.31 -479.25)"/><path class="cls-1" d="M1742.34,692c0,.6,0,1.2,0,1.8a6.06,6.06,0,0,0,.19,1" transform="translate(-1556.31 -479.25)"/><path class="cls-1" d="M1741.24,605a5,5,0,0,1,.42,2.8,12.22,12.22,0,0,0-.12,2.19" transform="translate(-1556.31 -479.25)"/><path class="cls-1" d="M1774.08,640.91c0,.89-.37,1.81.2,2.65" transform="translate(-1556.31 -479.25)"/><path class="cls-1" d="M1847.15,641c-1.21.4-1.75,1.45-2.4,2.4" transform="translate(-1556.31 -479.25)"/><path class="cls-1" d="M1838.06,604a19.69,19.69,0,0,0,1.8,5.29" transform="translate(-1556.31 -479.25)"/><path class="cls-1" d="M1714.89,686.13l1.2,2.8" transform="translate(-1556.31 -479.25)"/><path class="cls-1" d="M1560.87,681l.1,2.8" transform="translate(-1556.31 -479.25)"/><path class="cls-1" d="M1714.49,684.43a3,3,0,0,1,0,2.12,8.71,8.71,0,0,0-.25,2.48" transform="translate(-1556.31 -479.25)"/><path class="cls-1" d="M1848.84,639.12c-.89.89-1.77,1.73-1.75,3.19,0,.58-.62,1.16-1,1.76l-2.27-.86" transform="translate(-1556.31 -479.25)"/><path class="cls-1" d="M1748.93,692.82c-.3.63-.59,1.27-.91,1.89a5.51,5.51,0,0,1-.49.7" transform="translate(-1556.31 -479.25)"/><path class="cls-1" d="M1723.67,683v2.79" transform="translate(-1556.31 -479.25)"/><path class="cls-1" d="M1703.41,679.64a4.27,4.27,0,0,1,.7,2.8" transform="translate(-1556.31 -479.25)"/><path class="cls-1" d="M1638.23,661.48l-1.11-.31-.22-.79-.77.22v-1.89a2.45,2.45,0,0,0-1.5,2.17" transform="translate(-1556.31 -479.25)"/><path class="cls-1" d="M1645.51,694.23c-.23,1.16-.51,2.32-.68,3.5a8.84,8.84,0,0,0,.09,1.69" transform="translate(-1556.31 -479.25)"/><path class="cls-1" d="M1606.78,638.32l-.59,2.79" transform="translate(-1556.31 -479.25)"/><path class="cls-1" d="M1728.36,597l-.3,3.79" transform="translate(-1556.31 -479.25)"/><path class="cls-1" d="M1615.07,644.81a7.21,7.21,0,0,0,.9.19c.76.06,1.53.07,2.29.11" transform="translate(-1556.31 -479.25)"/><path class="cls-1" d="M1640.22,693a9.62,9.62,0,0,1,.19,1.5,12.59,12.59,0,0,1-.21,2.29c-.09.42-.43.6-.88.21a4.44,4.44,0,0,1-1.69-2.6" transform="translate(-1556.31 -479.25)"/><path class="cls-1" d="M1586.42,636.92c-.06.3-.12.61-.2.9a6,6,0,0,0,0,4c.07.19,0,.46-.09.69" transform="translate(-1556.31 -479.25)"/><path class="cls-1" d="M1819.7,624.94c.65.15.41.7.5,1.1.12.55.26,1.1.4,1.65" transform="translate(-1556.31 -479.25)"/><path class="cls-1" d="M1646.21,627.64l-3.29,1.4" transform="translate(-1556.31 -479.25)"/><path class="cls-1" d="M1699.22,642.71c-.07.53-.14,1.07-.2,1.6a6.73,6.73,0,0,0,.6,3.19" transform="translate(-1556.31 -479.25)"/><path class="cls-1" d="M1619.36,623.05l-1.21,2.43a2.19,2.19,0,0,1-1.28-1.53" transform="translate(-1556.31 -479.25)"/><path class="cls-1" d="M1604.89,625.74l-2.16,3.3-.94-2.1" transform="translate(-1556.31 -479.25)"/><path class="cls-1" d="M1651.2,641.91a5.45,5.45,0,0,0-.27,2.8c0,.3.31.6.47.9.54-.46.94,1,1.5.1" transform="translate(-1556.31 -479.25)"/><path class="cls-1" d="M1587,667.17c.07.53.14,1.06.2,1.59,0,.37.07.74.1,1.1" transform="translate(-1556.31 -479.25)"/><path class="cls-1" d="M1668.67,653.49c-.1.37-.22.73-.29,1.1a9.26,9.26,0,0,1-1.49,2.7,7,7,0,0,0-.51,1.19" transform="translate(-1556.31 -479.25)"/><path class="cls-1" d="M1592.41,653.49l.59,2.7h-1" transform="translate(-1556.31 -479.25)"/><path class="cls-1" d="M1585.42,664.37c1,2,2.71,3.51,3.9,5.39" transform="translate(-1556.31 -479.25)"/><path class="cls-1" d="M1647.71,620.15a10.78,10.78,0,0,1-1.41,1.38c-.54.36-.87,0-1-.58" transform="translate(-1556.31 -479.25)"/><path class="cls-1" d="M1604.79,637.72l.4,2.7" transform="translate(-1556.31 -479.25)"/><path class="cls-1" d="M1796.44,609.17c-.23,1.23-.54,2.46-.67,3.7-.07.68.3,1.39,0,2.09" transform="translate(-1556.31 -479.25)"/><path class="cls-1" d="M1686,669.46l-1.8,2.3" transform="translate(-1556.31 -479.25)"/><path class="cls-1" d="M1818,583a6.45,6.45,0,0,1-.41,1.09,4.62,4.62,0,0,1-.74.72l-.71-.87-.84.57-.77-1-.81,1-.82-1.23-.78.83-.73-1-.78.38-.61-.8-.68.55" transform="translate(-1556.31 -479.25)"/><path class="cls-1" d="M1741.54,646.3l.1,2.6" transform="translate(-1556.31 -479.25)"/><path class="cls-1" d="M1744.83,607.28a3,3,0,0,0-.12,2.8,6.09,6.09,0,0,1,.42,1.49" transform="translate(-1556.31 -479.25)"/><path class="cls-1" d="M1664.88,652.69c0,1.07-.07,2.13-.1,3.2" transform="translate(-1556.31 -479.25)"/><path class="cls-1" d="M1724.87,666.27v2.59" transform="translate(-1556.31 -479.25)"/><path class="cls-1" d="M1690.83,647.4a3.18,3.18,0,0,0,2.3,1.8" transform="translate(-1556.31 -479.25)"/><path class="cls-1" d="M1749.13,692.82l.79,2.59" transform="translate(-1556.31 -479.25)"/><path class="cls-1" d="M1726.77,670.06a16.81,16.81,0,0,1-.22,1.89,4.92,4.92,0,0,1-.58,1.11" transform="translate(-1556.31 -479.25)"/><path class="cls-1" d="M1698.82,645.41c-.24.46-.47.93-.7,1.39s-.33.74-.5,1.1" transform="translate(-1556.31 -479.25)"/><path class="cls-1" d="M1717.58,672.86l.2,2.59" transform="translate(-1556.31 -479.25)"/><path class="cls-1" d="M1827.78,676.45a21.06,21.06,0,0,0-.48,2.2,9.26,9.26,0,0,0,.1,1.89c0,.1.25.17.38.25" transform="translate(-1556.31 -479.25)"/><path class="cls-1" d="M1764.8,587.31c-.1.7-.19,1.4-.31,2.1,0,.14-.19.27-.29.4" transform="translate(-1556.31 -479.25)"/><path class="cls-1" d="M1631,678.84a4.78,4.78,0,0,1-.68,2.81c-.14.2-.08.52-.12.79" transform="translate(-1556.31 -479.25)"/><path class="cls-1" d="M1721.38,666.47l.3,2.59" transform="translate(-1556.31 -479.25)"/><path class="cls-1" d="M1656.49,647c-.26.44-.53.87-.79,1.3s-.4.67-.6,1" transform="translate(-1556.31 -479.25)"/><path class="cls-1" d="M1678.35,680.14l-2.59.1" transform="translate(-1556.31 -479.25)"/><path class="cls-1" d="M1704.51,642.91a8.11,8.11,0,0,0-.43,4.65,4.59,4.59,0,0,1-.27,1.54" transform="translate(-1556.31 -479.25)"/><path class="cls-1" d="M1584.13,637.32a6.24,6.24,0,0,0-.19,1.2,9.7,9.7,0,0,0,.19,1.6c.14.73.33,1.46.49,2.19" transform="translate(-1556.31 -479.25)"/><path class="cls-1" d="M1610.68,635.92c0,.74.08,1.47.09,2.2,0,.15-.13.3-.19.45" transform="translate(-1556.31 -479.25)"/><path class="cls-1" d="M1688.54,669.26a5.56,5.56,0,0,0-.06,3.69,6.81,6.81,0,0,1,0,2.3" transform="translate(-1556.31 -479.25)"/><path class="cls-1" d="M1669.27,656.69a11.15,11.15,0,0,0,0,4,2.49,2.49,0,0,1-.09.6" transform="translate(-1556.31 -479.25)"/><path class="cls-1" d="M1667.87,656.29c-.12,1.26.36,2.53,0,3.79" transform="translate(-1556.31 -479.25)"/><path class="cls-1" d="M1783.06,611.37c0,.33.08.66.1,1,0,.5.07,1,.1,1.5" transform="translate(-1556.31 -479.25)"/><path class="cls-1" d="M1565.46,660.48c0,.46.08.93.1,1.4s0,.73,0,1.09" transform="translate(-1556.31 -479.25)"/><path class="cls-1" d="M1816.1,625.74l-1,1.6c-.14.23-.27.47-.4.7" transform="translate(-1556.31 -479.25)"/><path class="cls-1" d="M1847.35,678.05l-.18-1.22-1.49.26c.06-.48.12-.91.17-1.34" transform="translate(-1556.31 -479.25)"/><path class="cls-1" d="M1587.52,680.24a5.62,5.62,0,0,0,.1.7,10.37,10.37,0,0,1,0,4.19" transform="translate(-1556.31 -479.25)"/><path class="cls-1" d="M1822.19,625.74c0,.3,0,.6,0,.9-.09.77-.2,1.53-.3,2.3" transform="translate(-1556.31 -479.25)"/><path class="cls-1" d="M1845.85,651.79c-.7.47-1.82.81-2,1.43-.28.95-1.49,1-1.49,2" transform="translate(-1556.31 -479.25)"/><path class="cls-1" d="M1843,606.18a17.83,17.83,0,0,1-1.7,3.09" transform="translate(-1556.31 -479.25)"/><path class="cls-1" d="M1667.47,650.9a12.21,12.21,0,0,1-2.59,4.39" transform="translate(-1556.31 -479.25)"/><path class="cls-1" d="M1786.86,609.07a12.75,12.75,0,0,1,1.89,4.3" transform="translate(-1556.31 -479.25)"/><path class="cls-1" d="M1589.62,659.48l.2,2.4" transform="translate(-1556.31 -479.25)"/><path class="cls-1" d="M1562.86,684.63l.6,2.4" transform="translate(-1556.31 -479.25)"/><path class="cls-1" d="M1562.66,684.63l-.59,2.4" transform="translate(-1556.31 -479.25)"/><path class="cls-1" d="M1590.71,663.07l.5,2.4" transform="translate(-1556.31 -479.25)"/><path class="cls-1" d="M1673.76,660.68v4.09" transform="translate(-1556.31 -479.25)"/><path class="cls-1" d="M1785.06,610.87c.53.73,1.07,1.46,1.6,2.2" transform="translate(-1556.31 -479.25)"/><path class="cls-1" d="M1588.42,638.12a17,17,0,0,1-2.2,3.59" transform="translate(-1556.31 -479.25)"/><path class="cls-1" d="M1637.93,624.74c.22.81-.5,1.06-.9,1.7l-.7-.7-.82,1.32-.91-1.08-.76,1.34c-.8.07-.68-.7-.9-1.18" transform="translate(-1556.31 -479.25)"/><path class="cls-1" d="M1583.53,666.07c.16.13.39.23.49.4.8,1.38,2.14,2.26,3.19,3.4a9.72,9.72,0,0,1,.91,1.49" transform="translate(-1556.31 -479.25)"/><path class="cls-1" d="M1727.57,597.3a17.51,17.51,0,0,1-.82,1.88,2.74,2.74,0,0,1-1,.87c-.87-.71-.73.19-.93.54" transform="translate(-1556.31 -479.25)"/><path class="cls-1" d="M1569.25,630.53c-.16.54-.32,1.07-.5,1.6-.08.24-.2.47-.3.7" transform="translate(-1556.31 -479.25)"/><path class="cls-1" d="M1782.07,609.07a12.57,12.57,0,0,0,2.89,4.2" transform="translate(-1556.31 -479.25)"/><path class="cls-1" d="M1589,664.77l-1.4-2.1" transform="translate(-1556.31 -479.25)"/><path class="cls-1" d="M1784.46,609.17a13.52,13.52,0,0,1,.63,4,5.79,5.79,0,0,0,.57,1.6" transform="translate(-1556.31 -479.25)"/><path class="cls-1" d="M1749.53,607.88c-.77,1-1.59,1.91-1.3,3.29" transform="translate(-1556.31 -479.25)"/><path class="cls-1" d="M1819.6,625.14c-.23.47-.45,1-.71,1.4a4.86,4.86,0,0,1-.59.7" transform="translate(-1556.31 -479.25)"/><path class="cls-1" d="M1631.54,625.94c.16.75.21,1.57,1.17,1.93l.53-.63" transform="translate(-1556.31 -479.25)"/><path class="cls-1" d="M1844.15,608.18c0,1.06.07,2.12.1,3.19" transform="translate(-1556.31 -479.25)"/><path class="cls-1" d="M1844.35,674.65c-.13,0-.31,0-.39,0-.74.59-1.48,1.18-2.19,1.8-.16.13-.21.39-.31.59" transform="translate(-1556.31 -479.25)"/><path class="cls-1" d="M1759.51,654.39l-1.2.2-1.1.2" transform="translate(-1556.31 -479.25)"/><path class="cls-1" d="M1574.84,629.84l-.95,2" transform="translate(-1556.31 -479.25)"/><path class="cls-1" d="M1620.46,629.54c.35.73.09,1.78,1.1,2.19" transform="translate(-1556.31 -479.25)"/><path class="cls-1" d="M1800.23,611.37a8.79,8.79,0,0,0,0,3.39,1.79,1.79,0,0,1-.09.6" transform="translate(-1556.31 -479.25)"/><path class="cls-1" d="M1648.91,630.73l-.1,2.8" transform="translate(-1556.31 -479.25)"/><path class="cls-1" d="M1648.91,639.32a8.37,8.37,0,0,1-.62,1.58c-.49.79-.21,1.54-.16,2.57l1.38-1.66" transform="translate(-1556.31 -479.25)"/><path class="cls-1" d="M1643.72,622.35c-1.13.66-2.2,1.66-3.42,1.89-.93.17-1.11.63-1.5,1.19-.09.12-.51,0-.77,0" transform="translate(-1556.31 -479.25)"/><path class="cls-1" d="M1694.43,675.65c.15,1,.75,1.93.69,3" transform="translate(-1556.31 -479.25)"/><path class="cls-1" d="M1826,677.25a8.72,8.72,0,0,0-.3,4.39" transform="translate(-1556.31 -479.25)"/><path class="cls-1" d="M1634.23,633.23a5.72,5.72,0,0,1,3.6.4" transform="translate(-1556.31 -479.25)"/><path class="cls-1" d="M1692.43,673.06l-1.2,2" transform="translate(-1556.31 -479.25)"/><path class="cls-1" d="M1780,684.73c-.07,1-.13,1.93-.2,2.9" transform="translate(-1556.31 -479.25)"/><path class="cls-1" d="M1754.62,653c0,.14,0,.32-.11.39-.75.72-1.52,1.41-2.29,2.11" transform="translate(-1556.31 -479.25)"/><path class="cls-1" d="M1569.65,683.24a3.78,3.78,0,0,1-.87,2,9.45,9.45,0,0,0-1,1.88" transform="translate(-1556.31 -479.25)"/><path class="cls-1" d="M1731.56,671.06l.1,2.59" transform="translate(-1556.31 -479.25)"/><path class="cls-1" d="M1815.11,675.75c.92.08,1.05.94,1.49,1.5.14.16.27.33.4.5" transform="translate(-1556.31 -479.25)"/><path class="cls-1" d="M1611.18,635.13a4.81,4.81,0,0,0,1.78,2.76c.2.15.21.55.31.83" transform="translate(-1556.31 -479.25)"/><path class="cls-1" d="M1728.46,589.81l-.21,1.57-1.35-.71-.8,1.09-.63-.45" transform="translate(-1556.31 -479.25)"/><path class="cls-1" d="M1564.46,658.18a8.7,8.7,0,0,0,2.6,3.8" transform="translate(-1556.31 -479.25)"/><path class="cls-1" d="M1770.29,590.41l-.31-1.21-1,.11" transform="translate(-1556.31 -479.25)"/><path class="cls-1" d="M1706.9,678.25l-.1,2" transform="translate(-1556.31 -479.25)"/><path class="cls-1" d="M1660.09,649.7l-.3,2.09" transform="translate(-1556.31 -479.25)"/><path class="cls-1" d="M1822.79,624.15c-.4,1.34-1.47,2.28-2.09,3.49a4.34,4.34,0,0,0-.2.5" transform="translate(-1556.31 -479.25)"/><path class="cls-1" d="M1741.64,645.81l-1.9,2.39" transform="translate(-1556.31 -479.25)"/><path class="cls-1" d="M1772.88,682.64a10.51,10.51,0,0,1-1.49,3.69" transform="translate(-1556.31 -479.25)"/><path class="cls-1" d="M1631.94,627.74c-.82.42-1.12,1.46-2.09,1.72-.12,0-.14.44-.21.67" transform="translate(-1556.31 -479.25)"/><path class="cls-1" d="M1793.75,611c0,.7-.07,1.4-.1,2.1" transform="translate(-1556.31 -479.25)"/><path class="cls-1" d="M1616.87,634.73a5.68,5.68,0,0,0-.59.8,8.48,8.48,0,0,0-.39,1c-1-.39-.83-1.1-.72-1.79" transform="translate(-1556.31 -479.25)"/><path class="cls-1" d="M1694.23,675.65l-1,2.1" transform="translate(-1556.31 -479.25)"/><path class="cls-1" d="M1569.25,685l.2,2.15" transform="translate(-1556.31 -479.25)"/><path class="cls-1" d="M1593.61,645.91l.6,2" transform="translate(-1556.31 -479.25)"/><path class="cls-1" d="M1662.08,647.9a7.61,7.61,0,0,0-.42,4.2,7.86,7.86,0,0,1-.17,1.79" transform="translate(-1556.31 -479.25)"/><path class="cls-1" d="M1778.27,643.11c.24.92-.56,1.25-1,1.8" transform="translate(-1556.31 -479.25)"/><path class="cls-1" d="M1768.59,647.5l-1.9-1.49" transform="translate(-1556.31 -479.25)"/><path class="cls-1" d="M1611.28,647.7l3,.6" transform="translate(-1556.31 -479.25)"/><path class="cls-1" d="M1818.8,677.75c-.13,1.26.68,1.76,1.7,2.09" transform="translate(-1556.31 -479.25)"/><path class="cls-1" d="M1671,658.78l-1.5,2" transform="translate(-1556.31 -479.25)"/><path class="cls-1" d="M1818,624.74a1.94,1.94,0,0,1-.11.6c-.44.84-.92,1.67-1.39,2.5" transform="translate(-1556.31 -479.25)"/><path class="cls-1" d="M1807,624.94l-.4,2" transform="translate(-1556.31 -479.25)"/><path class="cls-1" d="M1644.32,636.92a8.31,8.31,0,0,0-.19,1.2,1,1,0,0,1-.81,1" transform="translate(-1556.31 -479.25)"/><path class="cls-1" d="M1703.51,678.25c.2,1.27-.87,2-1.29,3a5.55,5.55,0,0,0-.21,1" transform="translate(-1556.31 -479.25)"/><path class="cls-1" d="M1843.65,653.09l-2,.5" transform="translate(-1556.31 -479.25)"/><path class="cls-1" d="M1849.11,591.87l-.46-1.86" transform="translate(-1556.31 -479.25)"/><path class="cls-1" d="M1563.46,660.68c.41,1.31,1.5,2,2.5,2.79" transform="translate(-1556.31 -479.25)"/><path class="cls-1" d="M1805.22,625.94l-.1,1-.1,1" transform="translate(-1556.31 -479.25)"/><path class="cls-1" d="M1649.81,628.54c.16.53.35,1.06.49,1.6a2.28,2.28,0,0,1,0,.69c0,.37-.06.74-.09,1.1" transform="translate(-1556.31 -479.25)"/><path class="cls-1" d="M1594,626.14c-.09,1,.67,1.61,1,2.37a2.47,2.47,0,0,1,.25,1" transform="translate(-1556.31 -479.25)"/><path class="cls-1" d="M1645.71,627.74a2.31,2.31,0,0,0-2.19-.4c-.3,0-.6.13-.9.2" transform="translate(-1556.31 -479.25)"/><path class="cls-1" d="M1577.24,659.68l-1.91,3.23a4.56,4.56,0,0,1,.21-3.63" transform="translate(-1556.31 -479.25)"/><path class="cls-1" d="M1838.26,587.81l-1,1.44c-1-1.38-1-1.38-1.74-.87-.85-.34-1.46-1.3-2.62-.73-.26-.78-1.89-.88-1-2.23" transform="translate(-1556.31 -479.25)"/><path class="cls-1" d="M1635.63,702.61l-1.1-1.79" transform="translate(-1556.31 -479.25)"/><path class="cls-1" d="M1654.5,645.91l-1,1.79" transform="translate(-1556.31 -479.25)"/><path class="cls-1" d="M1693.83,645.51l-.4,2" transform="translate(-1556.31 -479.25)"/><path class="cls-1" d="M1656.59,624.55c0,.71-.24,1.52.64,2,.63-1.16,1.55-2.27,1-3.77" transform="translate(-1556.31 -479.25)"/><path class="cls-1" d="M1610.78,625.94l-1.17-1.4-.83,2.2" transform="translate(-1556.31 -479.25)"/><path class="cls-1" d="M1845.55,673.26a7.46,7.46,0,0,0-1.49,2.59c-.08.26-.14.53-.21.8" transform="translate(-1556.31 -479.25)"/><path class="cls-1" d="M1686.34,649a4.44,4.44,0,0,1-2,.63,4.05,4.05,0,0,0-1.29.57" transform="translate(-1556.31 -479.25)"/><path class="cls-1" d="M1697.52,671.66l-.5,1.84" transform="translate(-1556.31 -479.25)"/><path class="cls-1" d="M1816.8,624a6.69,6.69,0,0,0-.6,3.79" transform="translate(-1556.31 -479.25)"/><path class="cls-1" d="M1692.23,606.18l-.51,1.56-1.16-.91a1.24,1.24,0,0,1-.13.15c-.34.21,0,1-.7.89s-.58-.63-.59-1.09" transform="translate(-1556.31 -479.25)"/><path class="cls-1" d="M1800.93,580.23a2.61,2.61,0,0,0,.55,1.94" transform="translate(-1556.31 -479.25)"/><path class="cls-1" d="M1839.71,647.8a3.73,3.73,0,0,0-2.64.9" transform="translate(-1556.31 -479.25)"/><path class="cls-1" d="M1608.88,638.82l-.9,1.9" transform="translate(-1556.31 -479.25)"/><path class="cls-1" d="M1619.26,622a3.88,3.88,0,0,0,1.3,2.74" transform="translate(-1556.31 -479.25)"/><path class="cls-1" d="M1826.79,679.34l-1,1.7" transform="translate(-1556.31 -479.25)"/><path class="cls-1" d="M1797.74,580l.51,1.53,1-.89c.21.57.42,1.11.67,1.8l.76-1.14" transform="translate(-1556.31 -479.25)"/><path class="cls-1" d="M1605,640.72l-.6,1.89" transform="translate(-1556.31 -479.25)"/><path class="cls-1" d="M1686.84,610v-1.31c-.75.4-1.26,1-1.91.31l-.92,1.74-1-.84" transform="translate(-1556.31 -479.25)"/><path class="cls-1" d="M1747.33,608.38l.7,1.69" transform="translate(-1556.31 -479.25)"/><path class="cls-1" d="M1591.91,627.14c.7,1.11-.19,2-.46,2.89-.64.09-1-1-1.71-.25l-1.06-1.28-.55.79c-1.12-.3-1.18-1.15-1.31-1.95" transform="translate(-1556.31 -479.25)"/><path class="cls-1" d="M1652.7,617.46c-.43.4-.86.8-1.3,1.19-.09.08-.19.19-.3.2-.36,0-.72,0-1.08,0l0,.23-.87-.63" transform="translate(-1556.31 -479.25)"/><path class="cls-1" d="M1737.55,645.91c.57,1-.06,1.86-.1,2.79" transform="translate(-1556.31 -479.25)"/><path class="cls-1" d="M1594,627.14l-.7,2.2" transform="translate(-1556.31 -479.25)"/><path class="cls-1" d="M1596.6,626.34a3.9,3.9,0,0,0,.6,2.6" transform="translate(-1556.31 -479.25)"/><path class="cls-1" d="M1644.92,695.73l-1.2,1.59" transform="translate(-1556.31 -479.25)"/><path class="cls-1" d="M1646.81,696.82l-1.69,1.8" transform="translate(-1556.31 -479.25)"/><path class="cls-1" d="M1648.51,697.22a4.46,4.46,0,0,0-2,2.19c-.1.18-.32.28-.49.41" transform="translate(-1556.31 -479.25)"/><path class="cls-1" d="M1763.4,588l-1,1.7" transform="translate(-1556.31 -479.25)"/><path class="cls-1" d="M1762.1,587.61l-.9,1.7" transform="translate(-1556.31 -479.25)"/><path class="cls-1" d="M1569.15,628.94a3.43,3.43,0,0,0,1.47,3.12,1.33,1.33,0,0,0,.33-1.53" transform="translate(-1556.31 -479.25)"/><path class="cls-1" d="M1810.81,678.65l-2.29,2.09" transform="translate(-1556.31 -479.25)"/><path class="cls-1" d="M1702.41,601.49l-.73,1.55a1.61,1.61,0,0,1-1.07-1.45" transform="translate(-1556.31 -479.25)"/><path class="cls-1" d="M1692.23,605.28l.94,1.73.31-.1.45-1.63" transform="translate(-1556.31 -479.25)"/><path class="cls-1" d="M1585.22,672.66l.4,1.79" transform="translate(-1556.31 -479.25)"/><path class="cls-1" d="M1842.76,607.18c.06.6.13,1.2.2,1.79" transform="translate(-1556.31 -479.25)"/><path class="cls-1" d="M1840.76,608.38c.76.81.41,1.86.6,2.79" transform="translate(-1556.31 -479.25)"/><path class="cls-1" d="M1620.76,631.33l-.6,1.8" transform="translate(-1556.31 -479.25)"/><path class="cls-1" d="M1711.79,684l-1,1.59" transform="translate(-1556.31 -479.25)"/><path class="cls-1" d="M1799.83,612.47l-1.39,1.49" transform="translate(-1556.31 -479.25)"/><path class="cls-1" d="M1678,612.37a.71.71,0,0,0-.1.3c.08,1,.08,1-.95.79l-.3,1.2-.85-.3" transform="translate(-1556.31 -479.25)"/><path class="cls-1" d="M1846.25,675.25l-2.6,1.6" transform="translate(-1556.31 -479.25)"/><path class="cls-1" d="M1772.48,684.63l.4,1.8" transform="translate(-1556.31 -479.25)"/><path class="cls-1" d="M1665.78,619.35c.88.76.82,1.37-.28,2.68l-.52-.18" transform="translate(-1556.31 -479.25)"/><path class="cls-1" d="M1758.41,653.19l-2.2,2.3" transform="translate(-1556.31 -479.25)"/><path class="cls-1" d="M1627.65,653.09c.13.37.25.74.4,1.1.21.54.62,1.14,0,1.56-.26.18-.77,0-1.17-.07a1.62,1.62,0,0,1-.4-.19" transform="translate(-1556.31 -479.25)"/><path class="cls-1" d="M1662.18,621.55a1.31,1.31,0,0,0,.83,1.65,2.28,2.28,0,0,0,.27-2.05" transform="translate(-1556.31 -479.25)"/><path class="cls-1" d="M1618.66,631.33a3.25,3.25,0,0,0,1.29,2c.15.12.14.42.21.64" transform="translate(-1556.31 -479.25)"/><path class="cls-1" d="M1591.21,651.6a6.24,6.24,0,0,0,2.5,2.59" transform="translate(-1556.31 -479.25)"/><path class="cls-1" d="M1686.84,650.4c.23.87,1,.51,1.5.6" transform="translate(-1556.31 -479.25)"/><path class="cls-1" d="M1613.47,624.84l-1,1.9" transform="translate(-1556.31 -479.25)"/><path class="cls-1" d="M1762.2,687.53l.19,1.79a2.14,2.14,0,0,1-1.79-.69,3.06,3.06,0,0,0-.59-.4" transform="translate(-1556.31 -479.25)"/><path class="cls-1" d="M1844.65,589.91l.94,1.4,1.46-1.9" transform="translate(-1556.31 -479.25)"/><path class="cls-1" d="M1821.1,586l-.16-1.25-1,.45a.31.31,0,0,0-.1,0l0,.05" transform="translate(-1556.31 -479.25)"/><path class="cls-1" d="M1648.41,620.15c-.82-.72-1.82-1.32-1.9-2.59" transform="translate(-1556.31 -479.25)"/><path class="cls-1" d="M1811.71,625.94a8.22,8.22,0,0,1,.7,3" transform="translate(-1556.31 -479.25)"/><path class="cls-1" d="M1745.83,609.17a2.56,2.56,0,0,0-.09.39c.82.36.62,1.17.79,1.81" transform="translate(-1556.31 -479.25)"/><path class="cls-1" d="M1610.58,638.72l-.9,1.4" transform="translate(-1556.31 -479.25)"/><path class="cls-1" d="M1578.64,640.22l-.46,1.83-1.14-1.43" transform="translate(-1556.31 -479.25)"/><path class="cls-1" d="M1779.67,685.33c-1.09.78-2.15,1.58-2.2,3.1" transform="translate(-1556.31 -479.25)"/><path class="cls-1" d="M1781.27,686.93v1.7" transform="translate(-1556.31 -479.25)"/><path class="cls-1" d="M1698.32,604.48l-1.71,1-.39-.6" transform="translate(-1556.31 -479.25)"/><path class="cls-1" d="M1573.15,630.33l-1.13,2.49-.77-.79" transform="translate(-1556.31 -479.25)"/><path class="cls-1" d="M1627.75,622.25l1.29,1.4" transform="translate(-1556.31 -479.25)"/><path class="cls-1" d="M1819.9,583.42a14.41,14.41,0,0,0-1.19,1c-.46.46-.65.05-.91-.21" transform="translate(-1556.31 -479.25)"/><path class="cls-1" d="M1671.07,615.76c.28,1.09-.55,1.82-.82,2.72l-.28.08-.7-1.4" transform="translate(-1556.31 -479.25)"/><path class="cls-1" d="M1589,679.44l.4,2.1" transform="translate(-1556.31 -479.25)"/><path class="cls-1" d="M1607.78,625.34c.15.91-.54,1.53-.79,2.32-.49-.09-1-.58-1.4.18" transform="translate(-1556.31 -479.25)"/><path class="cls-1" d="M1706,644.91a4.21,4.21,0,0,0-.31,3.3c0,.12-.12.32-.18.49" transform="translate(-1556.31 -479.25)"/><path class="cls-1" d="M1596.4,627l-1,1.6" transform="translate(-1556.31 -479.25)"/><path class="cls-1" d="M1585.62,639.62l-1,1.59" transform="translate(-1556.31 -479.25)"/><path class="cls-1" d="M1701.41,678.15l-1.1,1.59" transform="translate(-1556.31 -479.25)"/><path class="cls-1" d="M1771,678.65c-.17.54-.34,1.09-.5,1.64" transform="translate(-1556.31 -479.25)"/><path class="cls-1" d="M1576.44,638.92a3.94,3.94,0,0,1,.32,2.8c-.08.21.11.53.18.79" transform="translate(-1556.31 -479.25)"/><path class="cls-1" d="M1825.79,629.14l-.22-1.13-.88.53" transform="translate(-1556.31 -479.25)"/><path class="cls-1" d="M1820.2,583l-.2,2.1" transform="translate(-1556.31 -479.25)"/><path class="cls-1" d="M1621.76,623.05l-1.3,2.29" transform="translate(-1556.31 -479.25)"/><path class="cls-1" d="M1621.86,622.75l.6,2.15.79-.75" transform="translate(-1556.31 -479.25)"/><path class="cls-1" d="M1813.11,680.24l-.38.58,1.38.32,2.19.6" transform="translate(-1556.31 -479.25)"/><path class="cls-1" d="M1584.23,671c.59.91,1.13,1.88,2.29,2.2" transform="translate(-1556.31 -479.25)"/><path class="cls-1" d="M1617.17,633.13c.09.73-.58,1.49.1,2.2" transform="translate(-1556.31 -479.25)"/><path class="cls-1" d="M1630.94,659.08l-.74.54-1.26-1.14" transform="translate(-1556.31 -479.25)"/><path class="cls-1" d="M1642.22,630l-1.6.59" transform="translate(-1556.31 -479.25)"/><path class="cls-1" d="M1685.14,650.2l2.4-.2" transform="translate(-1556.31 -479.25)"/><path class="cls-1" d="M1700.76,602.49l-1.54,1.79c-.37.44-.65.39-.9-.1" transform="translate(-1556.31 -479.25)"/><path class="cls-1" d="M1747.13,608.38l-.6,1.59" transform="translate(-1556.31 -479.25)"/><path class="cls-1" d="M1836.77,608.28a4.28,4.28,0,0,1,1.29,2.29" transform="translate(-1556.31 -479.25)"/><path class="cls-1" d="M1629.34,653.49l.4,1.6" transform="translate(-1556.31 -479.25)"/><path class="cls-1" d="M1809.52,680.14c1-.3,1.8.76,2.8.33,0,0,.22.44.34.67" transform="translate(-1556.31 -479.25)"/><path class="cls-1" d="M1754.42,608.77a11,11,0,0,0-1.47,1.42,3.73,3.73,0,0,0-.33,1.38" transform="translate(-1556.31 -479.25)"/><path class="cls-1" d="M1590.51,654.89a2.58,2.58,0,0,1,1.51,1.89c0,.12.19.21.29.3" transform="translate(-1556.31 -479.25)"/><path class="cls-1" d="M1750.22,606.38a3.64,3.64,0,0,0-.42,3.1,3.7,3.7,0,0,1-.17,1.29" transform="translate(-1556.31 -479.25)"/><path class="cls-1" d="M1846.05,608.38l-1.6,2.09" transform="translate(-1556.31 -479.25)"/><path class="cls-1" d="M1674.66,616.36c.3-.82-.14-.77-.7-.6a4.24,4.24,0,0,0-2.19,1.4" transform="translate(-1556.31 -479.25)"/><path class="cls-1" d="M1567,630.33c0,1.24.89,2,1.59,2.8" transform="translate(-1556.31 -479.25)"/><path class="cls-1" d="M1604.79,626.34l.4,1.6" transform="translate(-1556.31 -479.25)"/><path class="cls-1" d="M1561.27,631.13c0,.82-.22,1.74.8,2.2" transform="translate(-1556.31 -479.25)"/><path class="cls-1" d="M1707.4,646.9v1.6" transform="translate(-1556.31 -479.25)"/><path class="cls-1" d="M1647.11,618.46l.68-.85,1.19.64-.37,2.1" transform="translate(-1556.31 -479.25)"/><path class="cls-1" d="M1582.63,639.12l-.1,1.6" transform="translate(-1556.31 -479.25)"/><path class="cls-1" d="M1754.92,589.61c.28.52.41,1.25,1.3.95l.15-1c.64-.15.92.16,1,.69" transform="translate(-1556.31 -479.25)"/><path class="cls-1" d="M1715,673.26a3.6,3.6,0,0,1,1.2,2.59" transform="translate(-1556.31 -479.25)"/><path class="cls-1" d="M1649.71,698.82l-1.5,1.4" transform="translate(-1556.31 -479.25)"/><path class="cls-1" d="M1569.85,660.68a2.46,2.46,0,0,1,.8,2.19" transform="translate(-1556.31 -479.25)"/><path class="cls-1" d="M1803.33,582.62l-.55-2.17-1.25,2" transform="translate(-1556.31 -479.25)"/><path class="cls-1" d="M1707.7,645.91c-.07.23-.06.53-.21.68-.53.56-1.12,1.08-1.69,1.61" transform="translate(-1556.31 -479.25)"/><path class="cls-1" d="M1651.5,699.22c0,1.08-1.11,1.52-1.5,2.39-.22.49-.53.94-.79,1.4" transform="translate(-1556.31 -479.25)"/><path class="cls-1" d="M1783.66,614.56a1.86,1.86,0,0,0-2-1.09" transform="translate(-1556.31 -479.25)"/><path class="cls-1" d="M1662.08,622.85l-1.95,2.19-.44-.69" transform="translate(-1556.31 -479.25)"/><path class="cls-1" d="M1694.63,674.05l-.4,1.45" transform="translate(-1556.31 -479.25)"/><path class="cls-1" d="M1718,676.05c-.36-.76-1.14-.95-1.79-1.3" transform="translate(-1556.31 -479.25)"/><path class="cls-1" d="M1814.11,674.75c1.05.59.92,1.63,1,2.6" transform="translate(-1556.31 -479.25)"/><path class="cls-1" d="M1817.2,678c.44.37.89.69,1.5.4" transform="translate(-1556.31 -479.25)"/><path class="cls-1" d="M1847.25,637.72a8.55,8.55,0,0,1-1.77,1.15,5.2,5.2,0,0,0-2.32,2.14" transform="translate(-1556.31 -479.25)"/><path class="cls-1" d="M1636.93,699.62a3.75,3.75,0,0,0,.2,3" transform="translate(-1556.31 -479.25)"/><path class="cls-1" d="M1654.9,625.54l-.37,2-.2.14-1.43-1.75" transform="translate(-1556.31 -479.25)"/><path class="cls-1" d="M1599.4,627.44l-.66,1.22c-1-.49-1.46-.2-1.54.88" transform="translate(-1556.31 -479.25)"/><path class="cls-1" d="M1647.51,638.92c-.81,1.11-.08,2.43-.5,3.59" transform="translate(-1556.31 -479.25)"/><path class="cls-1" d="M1638.33,696.33l.1,1.49" transform="translate(-1556.31 -479.25)"/><path class="cls-1" d="M1646.71,697.22l.1,1.5" transform="translate(-1556.31 -479.25)"/><path class="cls-1" d="M1648.31,629.14a3.53,3.53,0,0,0,1.6,2.29" transform="translate(-1556.31 -479.25)"/><path class="cls-1" d="M1635.53,656.29a3.91,3.91,0,0,0-.5,3.09" transform="translate(-1556.31 -479.25)"/><path class="cls-1" d="M1583.83,639.82c-.1.1-.27.18-.29.3-.16.77-.46,1.24-1.27.66l-.7,1.41-.74-1.47" transform="translate(-1556.31 -479.25)"/><path class="cls-1" d="M1725.57,598.19l-.2,1.5" transform="translate(-1556.31 -479.25)"/><path class="cls-1" d="M1582.23,629.74l-1,1.46-1-.77" transform="translate(-1556.31 -479.25)"/><path class="cls-1" d="M1628,630.63l-.55-.54c-.53,0-.88,1.19-1.6.34" transform="translate(-1556.31 -479.25)"/><path class="cls-1" d="M1749.33,691.22l-.4,1.45" transform="translate(-1556.31 -479.25)"/><path class="cls-1" d="M1625.85,629.74c-.16.72-1.07,1.53-1.69,1.43s-.66-.54-.61-1" transform="translate(-1556.31 -479.25)"/><path class="cls-1" d="M1577.24,630.73l1.1,1.6" transform="translate(-1556.31 -479.25)"/><path class="cls-1" d="M1740.14,609.37l-.25,1.5" transform="translate(-1556.31 -479.25)"/><path class="cls-1" d="M1631.44,653.69c-.42,0-.73.06-.5.6s0,1.08.68,1.34c.21.08.22.69.32,1.06" transform="translate(-1556.31 -479.25)"/><path class="cls-1" d="M1739.84,608.57c.3.34.59.68.9,1l1,1" transform="translate(-1556.31 -479.25)"/><path class="cls-1" d="M1641.12,619.85l-.54.65-.77-.65c-.64.1-.72,1.7-1.61,1l-1,1-.91-.86-.91,1.16c-.5-.56-1.18-.94-1.1-1.81" transform="translate(-1556.31 -479.25)"/><path class="cls-1" d="M1795.74,610.87a1.08,1.08,0,0,0-1,1.1,2.24,2.24,0,0,1-.39.7" transform="translate(-1556.31 -479.25)"/><path class="cls-1" d="M1611.58,624.55a2.51,2.51,0,0,0,.94,1.89" transform="translate(-1556.31 -479.25)"/><path class="cls-1" d="M1690.63,647.1c-.41-.36-.86-.7-1.24-1.1a5.31,5.31,0,0,1-.55-.89" transform="translate(-1556.31 -479.25)"/><path class="cls-1" d="M1585.42,628.74l.71,1.4.89-1.4" transform="translate(-1556.31 -479.25)"/><path class="cls-1" d="M1592.41,660.88l-.4,1.4" transform="translate(-1556.31 -479.25)"/><path class="cls-1" d="M1611.78,636.92l-.4,1.4" transform="translate(-1556.31 -479.25)"/><path class="cls-1" d="M1590.21,680.44c-.25.3.06.74-.55,1.08a2.09,2.09,0,0,0-.94,2.32" transform="translate(-1556.31 -479.25)"/><path class="cls-1" d="M1706.8,680.44l-.6,1.4" transform="translate(-1556.31 -479.25)"/><path class="cls-1" d="M1626.15,623l-.8,1.2" transform="translate(-1556.31 -479.25)"/><path class="cls-1" d="M1669.27,618.26l-.5,1.39" transform="translate(-1556.31 -479.25)"/><path class="cls-1" d="M1720.18,672.16a4.45,4.45,0,0,1,1.4,2.29" transform="translate(-1556.31 -479.25)"/><path class="cls-1" d="M1627.65,622l-.7,1.5" transform="translate(-1556.31 -479.25)"/><path class="cls-1" d="M1847,589.81l.6,1.7" transform="translate(-1556.31 -479.25)"/><path class="cls-1" d="M1801.73,613.37l-1.3,1.49" transform="translate(-1556.31 -479.25)"/><path class="cls-1" d="M1732.76,672.16l-1,1.1" transform="translate(-1556.31 -479.25)"/><path class="cls-1" d="M1685.44,607.58l-.3,1.39" transform="translate(-1556.31 -479.25)"/><path class="cls-1" d="M1616.37,631.63a5.66,5.66,0,0,0,2.18,2.32c.14.07.15.38.21.58" transform="translate(-1556.31 -479.25)"/><path class="cls-1" d="M1823.39,627.24l-1.2.9" transform="translate(-1556.31 -479.25)"/><path class="cls-1" d="M1646.51,618.36c-.41.5-1.12.8-1.1,1.59" transform="translate(-1556.31 -479.25)"/><path class="cls-1" d="M1622.26,630.63l-.7,1.9" transform="translate(-1556.31 -479.25)"/><path class="cls-1" d="M1817.8,676.15l.8,1.3" transform="translate(-1556.31 -479.25)"/><path class="cls-1" d="M1781.37,686.63l-1.8,1.4" transform="translate(-1556.31 -479.25)"/><path class="cls-1" d="M1675.66,614.56l-1,1.2" transform="translate(-1556.31 -479.25)"/><path class="cls-1" d="M1587.82,639.72l.3,1.29" transform="translate(-1556.31 -479.25)"/><path class="cls-1" d="M1665.38,651.3c-.37.56-.74,1.12-1.1,1.69l-.8,1.3" transform="translate(-1556.31 -479.25)"/><path class="cls-1" d="M1616.77,624.55l-.87,1.14-.88-.58-.81.73c-.2,0-.75-1.16-.74-1.89" transform="translate(-1556.31 -479.25)"/><path class="cls-1" d="M1706.3,599.39l-.83,1.81c-1,0-.93-.66-1-1.21" transform="translate(-1556.31 -479.25)"/><path class="cls-1" d="M1705.31,646.4l-1.1,1" transform="translate(-1556.31 -479.25)"/><path class="cls-1" d="M1831.48,586.32l-1.2,1.29" transform="translate(-1556.31 -479.25)"/><path class="cls-1" d="M1641.22,619c-.06.48.06.93.6,1s1.34.06,1.67-.74l.82.59.51-1.63" transform="translate(-1556.31 -479.25)"/><path class="cls-1" d="M1642.22,637.32l.2,2.2" transform="translate(-1556.31 -479.25)"/><path class="cls-1" d="M1582.23,628.74c-.11.84.41,1.31,1,1.74" transform="translate(-1556.31 -479.25)"/><path class="cls-1" d="M1724.17,599c-.36.28-.1,1.41-1.15.77l-.65.83" transform="translate(-1556.31 -479.25)"/><path class="cls-1" d="M1693,671.46l-.3,1.3" transform="translate(-1556.31 -479.25)"/><path class="cls-1" d="M1752.62,608.18c-.22.69-.6,1.39,0,2.09" transform="translate(-1556.31 -479.25)"/><path class="cls-1" d="M1626.05,679.54a4.5,4.5,0,0,0,.91.68,4.22,4.22,0,0,0,1.09.22" transform="translate(-1556.31 -479.25)"/><path class="cls-1" d="M1619,632.53l-.5,1.3" transform="translate(-1556.31 -479.25)"/><path class="cls-1" d="M1625,623.15a4.2,4.2,0,0,1-1.34,1.85l-.46-.45" transform="translate(-1556.31 -479.25)"/><path class="cls-1" d="M1817.9,625.84l.4,2.1" transform="translate(-1556.31 -479.25)"/><path class="cls-1" d="M1629.14,653.49l-.69,1.2" transform="translate(-1556.31 -479.25)"/><path class="cls-1" d="M1679.25,609.57a3.09,3.09,0,0,0,1.47,2,2.32,2.32,0,0,0,.13-2.17" transform="translate(-1556.31 -479.25)"/><path class="cls-1" d="M1634.73,657.78c-1,.49-2,1-3,1.42-.18.07-.52-.27-.79-.42" transform="translate(-1556.31 -479.25)"/><path class="cls-1" d="M1578.64,662.28v-1.2l-.28-.06c-.51.64-1.61.86-1.32,2.05" transform="translate(-1556.31 -479.25)"/><path class="cls-1" d="M1672.27,661.68l.49,1.19" transform="translate(-1556.31 -479.25)"/><path class="cls-1" d="M1676.66,665.87l.6,1.2" transform="translate(-1556.31 -479.25)"/><path class="cls-1" d="M1628.25,679.84c-.35.6.32.91.41,1.4a3.43,3.43,0,0,0,.38.8" transform="translate(-1556.31 -479.25)"/><path class="cls-1" d="M1807,582.67a6.78,6.78,0,0,0-.9,0,1.86,1.86,0,0,1-2.06-.75l-.53.44" transform="translate(-1556.31 -479.25)"/><path class="cls-1" d="M1822.69,584.82l-1.4.9" transform="translate(-1556.31 -479.25)"/><path class="cls-1" d="M1760.31,587c0,.49.14,1.07-.51,1.3-.46.15-.94.25-1.53.4l-.56-.4" transform="translate(-1556.31 -479.25)"/><path class="cls-1" d="M1757.51,587.21l-.3,2.4" transform="translate(-1556.31 -479.25)"/><path class="cls-1" d="M1731.66,588.41c-.27.67-.33,1.49-1.4,1.44-.22,0-.47.43-.7.66l-.8-.4" transform="translate(-1556.31 -479.25)"/><path class="cls-1" d="M1838.16,588.51l1.51,1.08c.42-.37.91-.43,1.29.3l.85-.74.94,1,.51-.92" transform="translate(-1556.31 -479.25)"/><path class="cls-1" d="M1713.89,598.19c-.61-.78-.72.23-1.25.23l-.53-.76-.75,1.63c-.58-.1-1.12-.28-1-1.1" transform="translate(-1556.31 -479.25)"/><path class="cls-1" d="M1706.3,600.19l.73,1.19.77-1.79" transform="translate(-1556.31 -479.25)"/><path class="cls-1" d="M1750.82,608.67l-.9.9" transform="translate(-1556.31 -479.25)"/><path class="cls-1" d="M1751.32,607.58c-.5,1,0,2.13-.1,3.19a1.8,1.8,0,0,1-.1.4" transform="translate(-1556.31 -479.25)"/><path class="cls-1" d="M1781.17,613l.8,1.79" transform="translate(-1556.31 -479.25)"/><path class="cls-1" d="M1653.2,626.84a4,4,0,0,0-.2,2.1" transform="translate(-1556.31 -479.25)"/><path class="cls-1" d="M1643.62,629.74l-2.2-.3" transform="translate(-1556.31 -479.25)"/><path class="cls-1" d="M1585.22,629.44l-.73,1.22-.76-1.32" transform="translate(-1556.31 -479.25)"/><path class="cls-1" d="M1647.31,632.33l-.33,1.2h-.67" transform="translate(-1556.31 -479.25)"/><path class="cls-1" d="M1645.51,632.53a2.92,2.92,0,0,1,.7,2" transform="translate(-1556.31 -479.25)"/><path class="cls-1" d="M1614.37,637.72l-.14-1c-.94-.25-.72.64-1.06,1" transform="translate(-1556.31 -479.25)"/><path class="cls-1" d="M1643.92,639a2.2,2.2,0,0,1,.4,2.09" transform="translate(-1556.31 -479.25)"/><path class="cls-1" d="M1646.91,640.42c-.46.59-.94,1.18-1.38,1.8-.08.11,0,.33,0,.49" transform="translate(-1556.31 -479.25)"/><path class="cls-1" d="M1766.49,647.5a4.26,4.26,0,0,1-.49-.1c-.79-.27-.84-.22-.8.7" transform="translate(-1556.31 -479.25)"/><path class="cls-1" d="M1845.25,654.09c.65.15,1,1.09,1.8.8" transform="translate(-1556.31 -479.25)"/><path class="cls-1" d="M1765.2,655.69l-1.2-.1" transform="translate(-1556.31 -479.25)"/><path class="cls-1" d="M1801.63,628.24c.17.36.33.73.5,1.1" transform="translate(-1556.31 -479.25)"/><path class="cls-1" d="M1659.79,623.15a2.57,2.57,0,0,1-.77,1.73c-.27.25-.23.83-.33,1.26" transform="translate(-1556.31 -479.25)"/><path class="cls-1" d="M1570.85,685.23c-.23.4-.46.81-.7,1.2s-.53.8-.8,1.2" transform="translate(-1556.31 -479.25)"/><path class="cls-1" d="M1848.45,590.31l-.9.9" transform="translate(-1556.31 -479.25)"/><path class="cls-1" d="M1802.13,615l1.08-1.08.22,1.48" transform="translate(-1556.31 -479.25)"/><path class="cls-1" d="M1668,619.35l-.81,1-.58-.21" transform="translate(-1556.31 -479.25)"/><path class="cls-1" d="M1809.42,582.92l-.65-.79-1,.89c-.13-.13-.27-.26-.4-.4" transform="translate(-1556.31 -479.25)"/><path class="cls-1" d="M1682.85,609l-.26,2.16-1.34-.86" transform="translate(-1556.31 -479.25)"/><path class="cls-1" d="M1726.17,648.5l1.2,1.9" transform="translate(-1556.31 -479.25)"/><path class="cls-1" d="M1705,680l-.7,1.1" transform="translate(-1556.31 -479.25)"/><path class="cls-1" d="M1626.15,621.75a1.46,1.46,0,0,0,.38,1.41,3.88,3.88,0,0,1,.52,1" transform="translate(-1556.31 -479.25)"/><path class="cls-1" d="M1592,659.18l.6,1.1" transform="translate(-1556.31 -479.25)"/><path class="cls-1" d="M1647.11,631.33c.12.89.76,1.29,1.5,1.6" transform="translate(-1556.31 -479.25)"/><path class="cls-1" d="M1580.73,639.72c.29.78-.37,1.27-.6,1.89" transform="translate(-1556.31 -479.25)"/><path class="cls-1" d="M1609.08,637.92a2.26,2.26,0,0,0,.38,1.91,3.4,3.4,0,0,1,.22,1.08" transform="translate(-1556.31 -479.25)"/><path class="cls-1" d="M1738.35,609.77c.39.34.8.66,1.19,1,.21.19.4.4.6.6" transform="translate(-1556.31 -479.25)"/><path class="cls-1" d="M1760.21,588.31l.4,1.1" transform="translate(-1556.31 -479.25)"/><path class="cls-1" d="M1655,626.14a5.9,5.9,0,0,0,.5.5,4.14,4.14,0,0,0,.5.3" transform="translate(-1556.31 -479.25)"/><path class="cls-1" d="M1843.16,588.41a2.22,2.22,0,0,0,1.19,1.6" transform="translate(-1556.31 -479.25)"/><path class="cls-1" d="M1576.64,642l-1.1-.7" transform="translate(-1556.31 -479.25)"/><path class="cls-1" d="M1575.14,640.91l.5,1.6" transform="translate(-1556.31 -479.25)"/><path class="cls-1" d="M1817.4,676.25l-.4,1.1" transform="translate(-1556.31 -479.25)"/><path class="cls-1" d="M1630.74,654.19l-.7,1" transform="translate(-1556.31 -479.25)"/><path class="cls-1" d="M1577.14,630.33l-.6,1.3" transform="translate(-1556.31 -479.25)"/><path class="cls-1" d="M1844.75,638.42l-.4,1.1" transform="translate(-1556.31 -479.25)"/><path class="cls-1" d="M1629.64,622c-.06.72.57.94.9,1.45l.85-1,.72.64,1.43-1.1" transform="translate(-1556.31 -479.25)"/><path class="cls-1" d="M1630.64,681.54a15.2,15.2,0,0,1,1.28,1.11c.15.17.09.52.12.79" transform="translate(-1556.31 -479.25)"/><path class="cls-1" d="M1689.33,607.88l-.63,1c-.73-.72-1.12.33-1.76.28" transform="translate(-1556.31 -479.25)"/><path class="cls-1" d="M1589,640.42a2.31,2.31,0,0,0-1.2,1.69" transform="translate(-1556.31 -479.25)"/><path class="cls-1" d="M1696.22,603.78a1.42,1.42,0,0,1-.7,1.5" transform="translate(-1556.31 -479.25)"/><path class="cls-1" d="M1579.83,628.54a4.13,4.13,0,0,0,.14,1.38c.2.42,0,.59-.11.93a6.45,6.45,0,0,0-.23,1.48" transform="translate(-1556.31 -479.25)"/><path class="cls-1" d="M1826.59,584.82c-.12.81.47,1.19,1,1.6" transform="translate(-1556.31 -479.25)"/><path class="cls-1" d="M1570.65,686.23l.1,1.8" transform="translate(-1556.31 -479.25)"/><path class="cls-1" d="M1840.26,647.6l-.82,1,.1.28,1.12.12" transform="translate(-1556.31 -479.25)"/><path class="cls-1" d="M1768.79,589.61l-.16-1-1,.71a1.2,1.2,0,0,0-1.34-.34" transform="translate(-1556.31 -479.25)"/><path class="cls-1" d="M1665,621l-.52,1.83-.88-.63" transform="translate(-1556.31 -479.25)"/><path class="cls-1" d="M1625.05,691.82l.8,1.6" transform="translate(-1556.31 -479.25)"/><path class="cls-1" d="M1825.14,585.32l-.7.56-.72-.53-.83.67" transform="translate(-1556.31 -479.25)"/><path class="cls-1" d="M1589.42,639.52a1.28,1.28,0,0,0,.1,1.59" transform="translate(-1556.31 -479.25)"/><path class="cls-1" d="M1591.91,640.52a2.67,2.67,0,0,0-2.39.79" transform="translate(-1556.31 -479.25)"/><path class="cls-1" d="M1622.26,630.33c.14.69,1.06,1.13.6,2" transform="translate(-1556.31 -479.25)"/><path class="cls-1" d="M1611.53,625.24c-.55.37-.92.8-.55,1.5" transform="translate(-1556.31 -479.25)"/><path class="cls-1" d="M1633.44,681.44a2.05,2.05,0,0,1-1.4,1.3" transform="translate(-1556.31 -479.25)"/><path class="cls-1" d="M1847.25,609.37a.73.73,0,0,0,.43,1.14l1,.36" transform="translate(-1556.31 -479.25)"/><path class="cls-1" d="M1559.77,632.93l1,.62.52-.72" transform="translate(-1556.31 -479.25)"/><path class="cls-1" d="M1629.54,622.75l-.4,1.4" transform="translate(-1556.31 -479.25)"/><path class="cls-1" d="M1829.88,586.22c-.45.42-1.27.53-1.2,1.39" transform="translate(-1556.31 -479.25)"/><path class="cls-1" d="M1825.19,584.62l.54,1.39.81-.49" transform="translate(-1556.31 -479.25)"/><path class="cls-1" d="M1734.45,673.35l-.33-.77-1.46.87" transform="translate(-1556.31 -479.25)"/><path class="cls-1" d="M1728.16,599.79c.67-.36.78.32,1.2.56,0,0,0,0,.1-.06l.6-.2c.15,1,1.35-.29,1.5.7" transform="translate(-1556.31 -479.25)"/><path class="cls-1" d="M1573.15,631.13l.89,1.4" transform="translate(-1556.31 -479.25)"/><path class="cls-1" d="M1823.69,626.54c-.07.27-.27.68-.18.78.52.5,0,.83-.12,1.22" transform="translate(-1556.31 -479.25)"/><path class="cls-1" d="M1828.88,679.24l-.9,1.3" transform="translate(-1556.31 -479.25)"/><path class="cls-1" d="M1827.48,587l.5-.79.8.69" transform="translate(-1556.31 -479.25)"/><path class="cls-1" d="M1583.88,630c-.44.23-.89.46-.65,1.09" transform="translate(-1556.31 -479.25)"/><path class="cls-1" d="M1850.7,670.92a9.15,9.15,0,0,0-5.25-2.06" transform="translate(-1556.31 -479.25)"/><path class="cls-1" d="M1659.94,591.81c.32.1,17.13,1.28,24.38,1.79a.4.4,0,0,1,0,.79l-8,1.41a.26.26,0,0,0,0,.52l11.32,1.1a.26.26,0,0,1,.1.49l-2.16,1.13a.26.26,0,0,0,.07.49l2.91.55a.27.27,0,0,1,.21.32l-.14.57a.24.24,0,0,0,.14.3l1.9.91" transform="translate(-1556.31 -479.25)"/><path class="cls-1" d="M1773.78,649a43.18,43.18,0,0,0-2.56,3.92,11.84,11.84,0,0,0-1.68,4.37c-.08.82-.52,1.62.06,2.39a4.76,4.76,0,0,0,2.89,1.77c1.84.39,3.73.5,5.58.85,1.68.31,3.34.74,5,1.19a38.35,38.35,0,0,0,19.36,1.16c3.57-.66,7.21-1.14,10.58-2.58a26.23,26.23,0,0,0,3.59-1.81c1.5-.92,1.78-2.11.79-3.56-1.53-2.24-3.19-4.39-4.76-6.6-1.92-2.69-4.53-4.67-7-6.76a16.05,16.05,0,0,0-5.27-2.82c-1.31-.43-2.54-1.14-4-1.1a27.66,27.66,0,0,0-7.1,1,62.62,62.62,0,0,0-9.27,3.94,11.25,11.25,0,0,0-3.81,2.48c-.13.15-.45.14-.68.21Z" transform="translate(-1556.31 -479.25)"/><path class="cls-1" d="M1788.55,648.4c-.69.57-1.4,1.12-2.09,1.7a42.53,42.53,0,0,0-7.59,8.48,2.2,2.2,0,0,1-.5.4" transform="translate(-1556.31 -479.25)"/><path class="cls-1" d="M1801.93,654.39c.87.27,1.72.59,2.6.79,1.39.31,2.79.54,4.19.81" transform="translate(-1556.31 -479.25)"/><path class="cls-1" d="M1782.47,646.8c-1,.94-1.94,1.94-3,2.78-2.34,1.85-3.9,4.36-5.81,6.58a5.65,5.65,0,0,0-1.47,2.92" transform="translate(-1556.31 -479.25)"/><path class="cls-1" d="M1774.28,652.29a26.45,26.45,0,0,0-3.6,5.79c-.11.31-.26.6-.39.9" transform="translate(-1556.31 -479.25)"/><path class="cls-1" d="M1778.77,650.5c-.13,1.16-1.09,1.84-1.61,2.78s-1.2,1.8-1.77,2.72a2,2,0,0,0-.11.79" transform="translate(-1556.31 -479.25)"/><path class="cls-1" d="M1785,651.79c-.7,1.07-1.39,2.14-2.1,3.2-.35.54-.76,1-1.08,1.6a2.26,2.26,0,0,0-.11.79" transform="translate(-1556.31 -479.25)"/><path class="cls-1" d="M1786.36,655.59a12.24,12.24,0,0,1-.61,1.49,6.82,6.82,0,0,0-1.13,3.4c0,.47-.42.93-.66,1.4" transform="translate(-1556.31 -479.25)"/><path class="cls-1" d="M1791.05,654c-.37.4-.71.83-1.1,1.19-1.63,1.5-2.3,3.62-3.46,5.42a10.4,10.4,0,0,0-.83,2.47" transform="translate(-1556.31 -479.25)"/><path class="cls-1" d="M1780.07,654.19c0,.2.07.44,0,.59a11.51,11.51,0,0,0-1.9,4.6c0,.24-.25.47-.39.7" transform="translate(-1556.31 -479.25)"/><path class="cls-1" d="M1783,650.8a2.88,2.88,0,0,0-.39.3,64.61,64.61,0,0,0-5.7,6.88,2.38,2.38,0,0,1-.49.4" transform="translate(-1556.31 -479.25)"/><path class="cls-1" d="M1791.85,656.49l-1.6,1.59-.7.7-3.19,3.2" transform="translate(-1556.31 -479.25)"/><path class="cls-1" d="M1798.64,652.29c1.09.27,2.2.52,3.29.82a3.69,3.69,0,0,1,.8.48" transform="translate(-1556.31 -479.25)"/><path class="cls-1" d="M1788.26,657.08l-1.8,1.8-1.7,1.7" transform="translate(-1556.31 -479.25)"/><path class="cls-1" d="M1774.68,652.79c-.5,1-1,1.93-1.49,2.9a2.92,2.92,0,0,0-.11.8" transform="translate(-1556.31 -479.25)"/><path class="cls-1" d="M1788.75,653a2.26,2.26,0,0,0-.49.31l-4.8,5a2.25,2.25,0,0,1-.6.3" transform="translate(-1556.31 -479.25)"/><path class="cls-1" d="M1787,652.49a23.84,23.84,0,0,0-2.85,2.93,18.94,18.94,0,0,0-1.36,3.26c-.33.76-.78,1.47-1.18,2.2" transform="translate(-1556.31 -479.25)"/><path class="cls-1" d="M1790.55,658.18a6.32,6.32,0,0,1-.62,1.48,3.85,3.85,0,0,0-.78,2.12" transform="translate(-1556.31 -479.25)"/><path class="cls-1" d="M1779.17,653a9.16,9.16,0,0,0-1.47,1.52,16.08,16.08,0,0,1-2.28,2.31,18.45,18.45,0,0,0-1.94,3.06" transform="translate(-1556.31 -479.25)"/><path class="cls-1" d="M1792.25,659l-2.1,1.9c-.24.22-.46.46-.7.7" transform="translate(-1556.31 -479.25)"/><path class="cls-1" d="M1777.67,648.9c0,.1,0,.24-.1.29a7.3,7.3,0,0,0-2.7,3.59l-.61-.61,1-.67" transform="translate(-1556.31 -479.25)"/><path class="cls-1" d="M1783.86,655.69a3.36,3.36,0,0,0-.69.4,18.78,18.78,0,0,0-3.5,3.89" transform="translate(-1556.31 -479.25)"/><path class="cls-1" d="M1797.54,660c-.55.18-1-.71-1.61-.12a10.3,10.3,0,0,1-1.59,1l-.3-.89" transform="translate(-1556.31 -479.25)"/><path class="cls-1" d="M1776.68,656.09c-.27,1.19-.54,2.39-.8,3.59" transform="translate(-1556.31 -479.25)"/><path class="cls-1" d="M1794.44,659.08a7.59,7.59,0,0,1-.7.79c-.47.44-1,.84-1.47,1.28a3.34,3.34,0,0,1,1.28-3.47" transform="translate(-1556.31 -479.25)"/><path class="cls-1" d="M1803.93,653.69a2.84,2.84,0,0,0-2.12.47c-.22.18-.71,0-1.08,0" transform="translate(-1556.31 -479.25)"/></svg>