<svg id="Capa_1" data-name="Capa 1" xmlns="http://www.w3.org/2000/svg" viewBox="0 0 279.23 97.24"><defs><style>.cls-1{fill:none;stroke:#000;stroke-linecap:round;stroke-linejoin:round;stroke-width:0.5px;}</style></defs><title>fondo-acampar</title><path class="cls-1" d="M1584.38,560.6c-1.42-.46-2.82-1-4.27-1.37-3.39-.84-6.79-1.7-10.23-2.33-3.88-.71-7.81-1.15-11.71-1.74-2.92-.44-5.82-.95-8.74-1.37-2.48-.36-5-.63-7.45-1-2.07-.28-4.12-.64-6.19-.95q-3.35-.5-6.71-1c-2.66-.37-5.32-.75-8-1.06-1.7-.2-3.41-.29-5.11-.44-2.31-.21-4.62-.44-6.93-.63-1.92-.17-3.83-.29-5.75-.44l-6.93-.53c-1.28-.1-2.55-.22-3.83-.31-4.51-.33-9-.68-13.54-1-2.44-.15-4.9-.18-7.35-.21a3.08,3.08,0,0,0-1.05.42l0,.32c.41.21.84.39,1.23.63,1,.6,1,1.14.22,1.91l-.53.54c-1.23,1.19-1.23,1.19-2.77.21a1.9,1.9,0,0,0-2.67.53c-.37.44-.81.82-1.2,1.21-1.37-.57-1.69-.49-2.42.61-.39.59-.77,1.19-1,1.6-.94-.22-1.66-.36-2.38-.55a7.1,7.1,0,0,1-1.17-.42c-.49-.22-.4-.6-.35-1.07.08-.74-.6-.93-1.14-.92a14.73,14.73,0,0,0-1.82.38,2,2,0,0,1-1.25,0c-.5-.3-.12-.78.09-1.13.38-.6.73-1.18.1-1.82s-1.24-.62-2.13-.11c-.5.28-1,.52-1.54.77-.77-1.56-1.85-2.32-2.92-1.9a11.59,11.59,0,0,0-2.15,1.45" transform="translate(-1387.87 -482.9)"/><path class="cls-1" d="M1666,523.85a3.64,3.64,0,0,0-1.58-.11c-1.39.19-2.76.52-4.16.67a7.49,7.49,0,0,1-6.33-2.37c-.42-.41-.77-.88-1.2-1.28a25.25,25.25,0,0,0-3.59-3.13,19.24,19.24,0,0,1-5-4.81c-1.35-1.71-3.28-2.44-5.18-3.21-.22-.09-.78.27-1,.57-.77,1.28-1.48,2.62-2.19,3.95a3.34,3.34,0,0,0-.48,1.18,7.54,7.54,0,0,1-2.3,4.16c-.66.73-1.34,1.44-2,2.18a1,1,0,0,0,0,1.51,10.45,10.45,0,0,1,2.21,4.53l.1.69" transform="translate(-1387.87 -482.9)"/><path class="cls-1" d="M1471,546.1c-.64-1.39-.89-1.5-2.34-1.06l-.43.1c-1.6.45-1.6.45-1.49-1.17,0-.63-.51-1-1.38-.83a1.51,1.51,0,0,1-1.91-.67c.86-1.22.81-1.84-.22-2.65a2.43,2.43,0,0,0-2.67.42,7.07,7.07,0,0,1-1.5,1.25c-.65.34-1.32-.27-1.27-1s-.34-1.21-1.17-1.27c-.11,0-.23,0-.32,0-.32-.16-.75-.28-.92-.55a1.08,1.08,0,0,1,.19-.92c.92-1.26.9-1.47-.33-2.27a1.49,1.49,0,0,1-.52-.73,1.9,1.9,0,0,0-1.51-1.47,2.57,2.57,0,0,0-2.56.72c-1,1.27-1.4,1.28-2.45.11-.75-.84-1.42-1.07-2.66-.1-.27.22-.47.53-.75.73-.78.57-1.56.22-1.81-.73s-.5-1.66-1.71-1.32c-.18.05-.6-.34-.72-.61a2,2,0,0,0-3.11-.84c-.11.09-.2.22-.32.31-1.29,1.11-1.27,1.08-2.78.13a2.93,2.93,0,0,0-1.37-.22c-.61,0-1-.06-.77-.87.19-.63-.17-.9-.83-.86a10.43,10.43,0,0,1-1.57-.18c.51-.57.84-.92,1.14-1.3.61-.78.45-1.43-.42-1.81l-1.19-.49c.37-1.67.35-1.68-.83-2.29a1.57,1.57,0,0,0-1.82.22,14.79,14.79,0,0,1-1.61,1.15.84.84,0,0,1-.81-.11c-.16-.16-.13-.54-.12-.82a.77.77,0,0,1,.2-.43,1.44,1.44,0,0,0,.07-1.89,2,2,0,0,0-2.2-.56,6.38,6.38,0,0,1-1.18.51c-.56.11-1.22.61-1.63-.39-.21-.5-1.36-.38-2,.09a16.12,16.12,0,0,1-1.72,1.26,1.53,1.53,0,0,1-1.15.1c-1.24-.46-2,.13-2.77,1-.25.29-.45.62-.7,1a7.08,7.08,0,0,1,.67,1.39c.13.52.09,1.1-.72,1a2.3,2.3,0,0,0-2.66,1.71c-.21.77-.69.55-1.18.43a2.62,2.62,0,0,0-2.66.53,1.27,1.27,0,0,0-.33,1.49c.75,2,.27,2.81-2,3.11a6.26,6.26,0,0,0-.1-.87,1.32,1.32,0,0,0-1.69-1.14c-.91.25-1.09-.25-1.29-.88-.12-.4-.17-1-.44-1.13a4.79,4.79,0,0,0-2.11-.54,2,2,0,0,0-1.89,2.3,1.37,1.37,0,0,1-1.1,1.82,1.76,1.76,0,0,0-1.27,1.28,1.19,1.19,0,0,1-1.28,1,2.12,2.12,0,0,0-2.35,2.44,2.29,2.29,0,0,1-.53,1.92" transform="translate(-1387.87 -482.9)"/><path class="cls-1" d="M1604.2,564.43c-.36.22-.71.44-1.07.64-.53.29-1.21.6-1.55,0a3.51,3.51,0,0,1-.22-1.89c0-.27.48-.48.7-.75.39-.49.74-1,1.2-1.61-1.19-.33-2-.8-3.15,0a4.81,4.81,0,0,1-2.52.26c-3.41,0-6.82-.13-10.23-.2h-1.7l-3.3.11c-3.77.14-7.55.12-11.29.46-4.81.44-9.6,1.16-14.39,1.78-2.74.36-5.47.82-8.21,1.16-3.26.4-6.53.7-9.8,1.08-1.42.17-2.85.38-4.26.64-2.28.43-4.54,1-6.82,1.36-4.92.83-9.77,1.94-14.61,3.18-1.17.3-2.3,1.06-3.61.67-.56-.17-1.11-.37-1.73-.58l.83-1.27a9.18,9.18,0,0,0-1-1.12,1.62,1.62,0,0,0-2-.25c-1.13.63-1.16.53-1.91-.6-.19-.28-.58-.41-.83-.66s-.68-.73-.61-.82a1.19,1.19,0,0,0-.36-1.84,2,2,0,0,0-2.24-.21,4.06,4.06,0,0,1-2.56.25c-.81-.16-.78-.54-.63-1.1a4.25,4.25,0,0,1,.32-.64,1.36,1.36,0,0,0-1.28-2.13c-.61,0-1.21,0-1.81,0l-.17-.38a4,4,0,0,0,.79-.59c.31-.42.82-1,.7-1.35a1.9,1.9,0,0,0-1.75-1.23,2.56,2.56,0,0,1-1.47-.63,2.14,2.14,0,0,0-2.9-.3c-.61.42-1.2.87-1.82,1.28a9.92,9.92,0,0,1-1.07.47,2.47,2.47,0,0,0-.2-.46c-.89-1.23-1.8-1.33-2.87-.33-.3.28-.57.57-.86.85-1,1-1.25,1-2.55,0a2.08,2.08,0,0,0-.18-3.24,1.39,1.39,0,0,0-.25-2.11,2.2,2.2,0,0,0-2.35-.75c-1.38.49-1.56.37-1.94-.95a1.74,1.74,0,0,0-.73-.84,6.21,6.21,0,0,0-1.16-.45" transform="translate(-1387.87 -482.9)"/><path class="cls-1" d="M1628.47,540.27q-2.49-3.36-5-6.73c-.51-.69-.94-1.45-1.5-2.1-1-1.12-2-2.18-3.06-3.27a7.36,7.36,0,0,1-2.12-4.8,5.42,5.42,0,0,0-.76-1.91,16.65,16.65,0,0,0-2.9-3.63,46,46,0,0,0-7.21-6.44,10.63,10.63,0,0,1-3.44-4c-1.23-2.47-2.46-4.95-3.55-7.49-.69-1.61-2.14-2.54-3.19-3.83-.93-1.12-1.81-2.28-2.79-3.34a7,7,0,0,0-2.18-1.8,9.73,9.73,0,0,1-4.58-4.53,17.06,17.06,0,0,0-2.55-3,1.18,1.18,0,0,0-1.65.11,41.77,41.77,0,0,0-8.15,8.33,25.88,25.88,0,0,1-7.72,7.77,11.37,11.37,0,0,1-1.28.58,6.53,6.53,0,0,0-3.28,2.87c-1.5,2.76-3.46,2.77-6,1.44-1.32-.68-2.57-1.48-3.88-2.19a1.77,1.77,0,0,0-2.48.85,33,33,0,0,1-2.69,4.11c-.83,1-2,1.74-2.92,2.73s-1.6,2.16-2.4,3.24a1,1,0,0,0,.12,1.42,4.15,4.15,0,0,1,1.19,4.25,2.64,2.64,0,0,0,.2,1.43,1.16,1.16,0,0,1-.22,1.45,10.49,10.49,0,0,0-1.36,1.55,1.11,1.11,0,0,0,0,1,3.69,3.69,0,0,0,1.27,1.05,2.92,2.92,0,0,1,1.75,2.71,2.66,2.66,0,0,0,.81,1.73,4,4,0,0,1,.88,1.16,9.79,9.79,0,0,0,3.48,4.22,2.28,2.28,0,0,1,.3.38" transform="translate(-1387.87 -482.9)"/><path class="cls-1" d="M1550.41,502.19a7.19,7.19,0,0,0-3.25.94,66.77,66.77,0,0,0-12.49,9.1,18.94,18.94,0,0,1-5.24,3.66,31.13,31.13,0,0,1-3.66,1.29,11.23,11.23,0,0,0-5.8,3.71,20.29,20.29,0,0,1-4.77,4,27.47,27.47,0,0,0-3.09,2.64c-.32.28-.7.49-1,.8-1.47,1.58-3,1.21-4.77.42a32.32,32.32,0,0,1-7.4-4.61,2.89,2.89,0,0,0-2.78-.45,22.81,22.81,0,0,0-2.19.77,2.28,2.28,0,0,1-2.48-.58c-1.31-1.24-2.69-2.4-4-3.57a1.86,1.86,0,0,0-2.17-.19,44.45,44.45,0,0,0-6.69,3.89,16,16,0,0,1-7.69,3.44,10.16,10.16,0,0,0-5.56,2,7.4,7.4,0,0,1-2.35,1,20.09,20.09,0,0,0-6.34,3.38c-.28.22-.59.39-.89.59" transform="translate(-1387.87 -482.9)"/><path class="cls-1" d="M1434.79,563.69a11,11,0,0,1-.87,1c-.22.21-.67.49-.82.41-.89-.52-1.45.07-2.17.41a1.32,1.32,0,0,1-1.69-.48,2.51,2.51,0,0,0-.53-.64,1.3,1.3,0,0,0-2.23.42,2.25,2.25,0,0,1-2.67,1.17c-1-.37-1.21-.89-1-2.13.06-.37.61-.95-.1-1.14a1.11,1.11,0,0,0-1.36.93,3.92,3.92,0,0,0-.11,1.28c.08,1.34-.37,1.71-1.61,1.27-.8-.27-1.07,0-1.28,1.07a3.07,3.07,0,0,1-1.92,2.33,1.45,1.45,0,0,1-2-.84c-.23-.51-.36-.87-1.08-.78s-.74.55-.75,1.1a2.83,2.83,0,0,1-2,2.42,2,2,0,0,1-1.26-.52,1.34,1.34,0,0,0-2.07.1,1.81,1.81,0,0,1-1.45.4,1.2,1.2,0,0,1-.66-1.44,10.42,10.42,0,0,0,0-1.38l-1.08-.81c.33-.59.68-1.15,1-1.76.14-.32.31-.94.2-1a1.6,1.6,0,0,0-1.23-.32,4,4,0,0,0-1.19,1.13c-.63.73-1.15,1.55-1.83,2.22s-2.28.42-2.4-.42a3.63,3.63,0,0,1,.39-1.48c.38-1.18.37-1.2-.85-1.5-.56-.13-1-1.36-.63-1.8s.88-.82,1.52-1.41l-1.48-.88c.79-.66,1.3-1.14,1.87-1.54s1.23-.44.84-1.29a2.13,2.13,0,0,0-2.12-.84,11.74,11.74,0,0,0-1.28.84,3.31,3.31,0,0,1-2.24.75,1,1,0,0,1-.95-1.39c.13-.37.37-.7.51-1.07a1.21,1.21,0,0,0,.1-.74c-.36-1.14-.22-1.53.88-1.91.55-.19,1.14-.26,1.69-.45.21-.08.36-.34.54-.52" transform="translate(-1387.87 -482.9)"/><path class="cls-1" d="M1582.56,483.3a23.84,23.84,0,0,0,1.45,5.27,20.33,20.33,0,0,0,1,2.67,2.73,2.73,0,0,1-.31,2.88c-1.17,1.75-2.29,3.51-3.49,5.24a4,4,0,0,1-1.17,1,10.06,10.06,0,0,0-4.2,5.44,12.93,12.93,0,0,1-3.52,5.86,3.86,3.86,0,0,0-.5.49c-.66.86-.68,1.23,0,2.18a6.05,6.05,0,0,1,1.3,4c0,1.08.76,1.87,1.37,2.67a8.38,8.38,0,0,1,1.78,3.87" transform="translate(-1387.87 -482.9)"/><path class="cls-1" d="M1614.53,540.57a8.2,8.2,0,0,0-1.38-.2c-.71,0-1.11-.09-1.22-1-.09-.68-.82-1-1.55-1-.25,0-.5.1-.75.1-1,0-1.35-.32-1.14-1.27a.78.78,0,0,0-.56-1.08,3.24,3.24,0,0,0-2.57-.22,1.81,1.81,0,0,1-1.15,0,2.23,2.23,0,0,0-2.68.55c-.16.22-.36.42-.53.64-.74,1-.94,1.05-2.13.53a1.9,1.9,0,0,0-2.53.87c-.12.31.15.76.18,1.16s.49.83-.1,1.17a1,1,0,0,1-1.29-.1c-.14-.14-.41-.15-.63-.22a1.29,1.29,0,0,0-1.8.75c-.3.63-.61,1-1.4.65a1.11,1.11,0,0,0-.93,0,2.06,2.06,0,0,0-.74,1c-.17.69.4,1,.94,1.14s1,.37,1,1.09" transform="translate(-1387.87 -482.9)"/><path class="cls-1" d="M1614.53,560.28c-.86.15-1.61,1-1.49,1.6s.84,1,2.13.81v1.21c0,1.51,1.17,2.18,2.44,1.37a6.51,6.51,0,0,0,1.18-1.27c.27-.3.44-.73.77-.92a1.14,1.14,0,0,1,1,0,1.42,1.42,0,0,1,.42,1,5.14,5.14,0,0,1-.43,1.38,2.68,2.68,0,0,1,2.11,1.25c.26.36,1.08.35,1.66.46s1.06-.15,1.3-.84.77-.5,1.25-.22c1.24.73,1.83.7,2.29-.45.22-.55-.15-1.35-.26-2l-.33-.15a3.77,3.77,0,0,1,1.18-.63c.53,0,.8.34.89.92,0,.24.43.49.71.63a15.66,15.66,0,0,1,1.81.87l1.06-1.39" transform="translate(-1387.87 -482.9)"/><path class="cls-1" d="M1660.67,536.09c-.4-.7-.9-.74-1.61-.45a1.08,1.08,0,0,1-1-.22c-.14-.21,0-.73.19-1s.57-.41.83-.66c.69-.67.94-1.32,0-2.11a1.92,1.92,0,0,1-.89-1.5c-.09-1.22-1.72-1.5-2.82-.53-.32.28-.55.66-.87.95a10.31,10.31,0,0,1-.92.67l-.67-.54c0-.66.94-1.34.08-1.9a5.71,5.71,0,0,0-1.94-.37c0-.09,0-.42-.06-.73-.19-1.08-1.19-1.51-1.88-.72s-1.31.6-2.06.5a1.72,1.72,0,0,0-2.13,1.81c0,.29,0,.57,0,.86-.15,1.49-1.06,2-2.24,1.17a1.26,1.26,0,0,0-1.91.22c-.25.29-.41.65-.65.94a3.21,3.21,0,0,1-1,.95c-1.24.54-1.55,1.05-1.39,2.47a1.18,1.18,0,0,1-1,1.52c-2.11.5-2.57,2-1.28,3.81.48.67.42,1.26-.33,1.57a2,2,0,0,0-1.34,1.63c-.11.67-.49.84-1,1.07a1.22,1.22,0,0,0-.52,1.89,1.48,1.48,0,0,0,.84.32,2.34,2.34,0,0,0,.63-.09c1.29-.12,1.4,0,1.28,1.28,0,.25,0,.5,0,.83a3.72,3.72,0,0,1,.74.14,3.33,3.33,0,0,1,.66.38l-.74,1.87a22.37,22.37,0,0,0,2.21-.57,2.32,2.32,0,0,1,2.91.46l-.78,1.14a1,1,0,0,0,.12.33c1,1.19,1,1.17-.21,2.25a3.8,3.8,0,0,0-.54.95c.43.1.92.4,1.26.28a3.08,3.08,0,0,1,3.38.38l-.82,1.1a6.68,6.68,0,0,1,.86.37c.41.26.79.56,1.18.85a6.68,6.68,0,0,0,1.29.93.64.64,0,0,0,1-.5,2.79,2.79,0,0,1,.51-1c.42-.61,1-.63,1.37,0s.71,1,1.41.42c.12-.1.42-.17.51-.1.76.62,1.24-.1,1.82-.33" transform="translate(-1387.87 -482.9)"/><path class="cls-1" d="M1581.53,509.17a47.88,47.88,0,0,1,1.88,6.54,7.82,7.82,0,0,0,2.34,3.69,23.84,23.84,0,0,1,4.51,6.1c.87,1.57,1.9,3,2.85,4.57" transform="translate(-1387.87 -482.9)"/><path class="cls-1" d="M1465.79,571.57c-.89-.65-1.7-1.43-3-1.19-.47.08-.68-.33-.76-.83-.35-2.08-1.77-2.77-3.61-1.81a2.35,2.35,0,0,1-2.58,0,2.53,2.53,0,0,0-1.36-.13c-.75,0-1.35,0-1.63-1a1.77,1.77,0,0,0-2.85-.76c-.73.59-1.48,1.15-2.22,1.72l.29.36c-.56-.23-1.13-.45-1.69-.69a.78.78,0,0,0-1.08.31,5.08,5.08,0,0,1-1,1c-1,.78-1.33.73-2.13-.2-.09-.12-.23-.2-.31-.33-.86-1.44-2.2-1.42-3.18,0a2.89,2.89,0,0,1-2.15,1.4c-1.12.17-1.47,1-1.07,2a1.08,1.08,0,0,1-1.17,1.59c-.43,0-.85-.14-1.28-.21a1.77,1.77,0,0,0-2,2.45" transform="translate(-1387.87 -482.9)"/><path class="cls-1" d="M1632.33,547.81c-1.21,1.38-1.45,1.44-3,.69l1.07-1.68c-.61-1.16-1.35-1.26-2.22-.29s-1.05.94-2.35.5a2.75,2.75,0,0,0,.31-.82,1.86,1.86,0,0,0-.22-1.05c-.27-.41-.65-.81-1.26-.44a2.67,2.67,0,0,1-.85.41,4.29,4.29,0,0,1-1.59.1c-1.46-.28-2,.14-2,1.62,0,1.12-.25,1.39-1.38,1.5-1.3.11-1.31,0-1.74-1.06a1.48,1.48,0,0,0-1-.71c-.44-.05-1,0-1.18.7a3.57,3.57,0,0,1-.65,1.47c-.49.54-1.24.19-1.49-.5-.17-.47-.47-1.09-.85-1.22s-.88.37-1.24.69a5,5,0,0,0-.72.94,9.43,9.43,0,0,0-2.16.25,1.35,1.35,0,0,0-.9,1.79c.24.93-.27,1.33-1.25,1.16a8.2,8.2,0,0,0-1.38-.2c-1.42,0-1.86,1-1.17,2.44" transform="translate(-1387.87 -482.9)"/><path class="cls-1" d="M1598,508.18a10.5,10.5,0,0,0,1.31,1.86c1.46,1.35,3,2.59,4.53,3.89a7.76,7.76,0,0,1,2.15,3.24,20.4,20.4,0,0,0,2.53,4.07c.72,1,1.58,2,2.35,3a5.65,5.65,0,0,1,.5,1" transform="translate(-1387.87 -482.9)"/><path class="cls-1" d="M1587.57,495c.66.93,1.28,1.88,2,2.77a9.48,9.48,0,0,0,2,2.14,6.48,6.48,0,0,1,2.44,3.51,3.23,3.23,0,0,1,.29,1.38c-.22,2.24.82,4,1.9,5.85,1.42,2.37,2.84,4.75,4.27,7.12,0,.07.19.07.29.11" transform="translate(-1387.87 -482.9)"/><path class="cls-1" d="M1543.4,507.29a25.18,25.18,0,0,0-3.91,3.4c-2.94,3.83-6.73,6.66-10.54,9.48-1,.72-1.92,1.51-2.88,2.27" transform="translate(-1387.87 -482.9)"/><path class="cls-1" d="M1437.56,548.24c-.11-.25-.15-.57-.33-.73a7.61,7.61,0,0,1-1.51-1.59c-.46-.69-1.85-.75-2.85-.35a2.46,2.46,0,0,1-1,.2c-.51,0-1-.23-.83-.83s.11-1-.55-1.3a1.69,1.69,0,0,0-1.93.33c-.72.6-1.49,1.16-2.34,1.81-.46-.45-.83-.79-1.17-1.17a1.51,1.51,0,0,0-2.77.64,2.48,2.48,0,0,1-.32.54" transform="translate(-1387.87 -482.9)"/><path class="cls-1" d="M1537.66,518.38a108.08,108.08,0,0,1-10.59,9.12c-1.85,1.44-3.65,3-5.45,4.45-.73.62-1.39,1.32-2.09,2" transform="translate(-1387.87 -482.9)"/><path class="cls-1" d="M1637.87,510.06a24.86,24.86,0,0,0-3,1.41c-2,1.25-3.8,2.7-5.78,3.91-1.26.78-2.71,1.24-4,1.93a19.93,19.93,0,0,0-2.19,1.47,1.13,1.13,0,0,1-1.47,0c-1.66-1.65-3.16-.75-4.67.22-.34.21-.66.46-1,.69" transform="translate(-1387.87 -482.9)"/><path class="cls-1" d="M1636.59,537.27c-.36-.74-.74-1.4-1.7-1.53-.31,0-.57-.47-.86-.71-.67-.55-1.27-1-2.25-.46s-1.62-.15-2.35-.53c.49-1.87-.82-2.71-2.33-2.13-1.16.45-1.48.22-2-.93-.65-1.39-1.16-1.55-2.66-.85" transform="translate(-1387.87 -482.9)"/><path class="cls-1" d="M1578.75,495c-.59.63-1.16,1.28-1.78,1.88-2.47,2.38-5,4.72-7.42,7.14-2.19,2.2-4.3,4.48-6.44,6.73" transform="translate(-1387.87 -482.9)"/><path class="cls-1" d="M1428.39,539.82a2.45,2.45,0,0,0-1.7-1.06l-1.81-.1.42-1.08c-.94-1-1.08-1-2.34-.54a5.14,5.14,0,0,1-1.17.22c-.56.07-.75-.29-.63-.74a1,1,0,0,0-.64-1.41,1.33,1.33,0,0,0-1.71.24l-.32.32c-1.27,1.13-1.71,1-2.24-.54a1.45,1.45,0,0,0-2.45-.63c-.37.34-.7.72-1.07,1.06a1.19,1.19,0,0,1-1.72.14,2.12,2.12,0,0,0-3.29,1.88c0,.18,0,.36,0,.54,0,1.24-.41,1.66-1.6,1.6a2.16,2.16,0,0,0-2.35,2.55" transform="translate(-1387.87 -482.9)"/><path class="cls-1" d="M1535.87,524.12a18.34,18.34,0,0,0-1.67.8c-4.24,2.63-8.46,5.28-12.69,7.91-.12.07-.32,0-.49,0" transform="translate(-1387.87 -482.9)"/><path class="cls-1" d="M1458.76,554c0,.43-.11.86-.1,1.28a1.88,1.88,0,0,1-1.19,2.12l-.63-.52c-1-.89-1.16-.91-2.34-.33a1.26,1.26,0,0,1-.85.2c-1.55-.59-1.55-.61-2.71.71a6.2,6.2,0,0,1,.54,1.66,2,2,0,0,1-.54,1.34c-.15.16-.79,0-1.12-.19-1.29-.73-2.25-.72-2.86.25a2.47,2.47,0,0,0-.23,1.26c0,1.36-.36,1.68-1.6,1.37s-1.3.66-1.71,1.29" transform="translate(-1387.87 -482.9)"/><path class="cls-1" d="M1564.35,543.12a8.73,8.73,0,0,0-.65-1,1.54,1.54,0,0,0-1.8-.44,14.37,14.37,0,0,1-1.81.42,1.84,1.84,0,0,0-1.5,1.29c-.21.46-.45.91-.79,1.58l-1.23-1.37a1.94,1.94,0,0,0-1.92-.49,5.08,5.08,0,0,0-3.75,1.86c-.11.14-.56.08-.82,0-1.58-.44-1.93-.26-2.46,1.28" transform="translate(-1387.87 -482.9)"/><path class="cls-1" d="M1604.41,564a1.53,1.53,0,0,0,.67,1.75c.39.19,1.05-.1,1.56-.28a6,6,0,0,0,1.06-.63c1.24.86,1.29,1.16.33,2.25-.13.15-.37.26-.4.43-.09.45-.27,1-.07,1.35a1.31,1.31,0,0,0,1.21.31c1.27-.39,2.51-.93,3.78-1.42,0,0,.16.11.16.18,0,1.13.46,1.53,1.71,1.69a3.4,3.4,0,0,0,2.78-.41,6.09,6.09,0,0,0,5.67.81c3.25-1.17,3.85.89,4.86.22s2.48,0,3.11-1.78c.29-.8.29,1.35,1.11,1.65l1.48-1.3a15.31,15.31,0,0,1,1.45,1c1,.89,1.41.87,2.45-.23-.6-1.87-.14-2.61,1.62-2.43l-.11,1.13c.7.46,1.34.92,2,1.29a1,1,0,0,0,.83,0c.61-.4,1.14-.91,1.72-1.36s1.28-.42,1.49.11" transform="translate(-1387.87 -482.9)"/><path class="cls-1" d="M1486.26,520.06c0,.93,0,1.85.11,2.78a2.92,2.92,0,0,1-.78,2c-.46.62-.72,1.39-1.12,2.06s-.93,1.38-1.37,2.09c-.25.4-.44.91.1,1.17,2.11,1,2.87,3.12,4,5,.06.1.13.19.2.29" transform="translate(-1387.87 -482.9)"/><path class="cls-1" d="M1535.18,533.93a2.65,2.65,0,0,0,.48-.7c.22-.72.38-1.46.58-2.25-1-.54-2,.79-3.18.27l1.4-2.23-.14-.27a5.11,5.11,0,0,0-1.11.34c-1,.52-1.85,1.13-2.79,1.66a5.1,5.1,0,0,1-1,.31" transform="translate(-1387.87 -482.9)"/><path class="cls-1" d="M1570.14,528.38c.1-.86.2-1.71.29-2.57,0-.13,0-.34-.1-.39-.87-.51-.72-1.28-.61-2.09.08-.6-.11-1.06-.87-.6a2.25,2.25,0,0,1-.68.12c-.35-1.31.81-2.34.71-3.76l-2.6,1.57" transform="translate(-1387.87 -482.9)"/><path class="cls-1" d="M1646.39,560.7l-.42.86,2.36,2.07a7.08,7.08,0,0,0-.95,1.35,1.86,1.86,0,0,0-.09,1.25c.07.17.68.26,1,.21,1-.18,1.08-.17.85.87a1.16,1.16,0,0,0,.75,1.37c.43.2.9.49,1.29-.19s1-.56,1.47-.11a.9.9,0,0,0,1.48-.12c.41-.57.78-.49,1.3-.21a2.89,2.89,0,0,0,2.87-.42" transform="translate(-1387.87 -482.9)"/><path class="cls-1" d="M1580.14,489.76c-.83.8-1.66,1.57-2.47,2.38-2.78,2.77-5.57,5.53-8.31,8.33a14.59,14.59,0,0,0-1.4,2" transform="translate(-1387.87 -482.9)"/><path class="cls-1" d="M1585.19,503.53a22.34,22.34,0,0,1,3.47,7.12c.23.65.53,1.26.79,1.89a3.83,3.83,0,0,0,3.07,2.18" transform="translate(-1387.87 -482.9)"/><path class="cls-1" d="M1498.61,555.48l13,4.48" transform="translate(-1387.87 -482.9)"/><path class="cls-1" d="M1537,516.1l-10.69,9.21c-.38.32-.79.6-1.19.89" transform="translate(-1387.87 -482.9)"/><path class="cls-1" d="M1546.87,510.56c1,1.05,2.26,2,2.79,3.2,1,2.3,2.86,3.5,4.85,4.59a8.21,8.21,0,0,1,2.46,2.11" transform="translate(-1387.87 -482.9)"/><path class="cls-1" d="M1519.07,560.28c-.93-.29-1.85-.56-2.77-.86l-9.38-3a3.43,3.43,0,0,0-.64-.11" transform="translate(-1387.87 -482.9)"/><path class="cls-1" d="M1504.47,541.1c-.1-.82-.39-1.39-1.39-1.3-.4,0-.93-.15-.72-.71s.34-1.05-.24-1.39a2.18,2.18,0,0,0-2-.34,8.2,8.2,0,0,1-1.06.3c-.09-.84-.1-1.55-1.06-1.92a2.35,2.35,0,0,0-2.25.46" transform="translate(-1387.87 -482.9)"/><path class="cls-1" d="M1485,567.52a5.67,5.67,0,0,1,4.47-.41,6.12,6.12,0,0,1,1.06.59l-2,1.46a11.28,11.28,0,0,1,1.09.82.86.86,0,0,1,0,1.37c-.47.45-1,.85-1.48,1.27a1.63,1.63,0,0,0,2.55.45,10.58,10.58,0,0,1,2.25-1.14,3.79,3.79,0,0,1,1.79.11c.12,0,.22.53.2.81a4.24,4.24,0,0,1-.39,1,13,13,0,0,0,1.27.57c1.43.47,1.56.85.63,2-.15.21-.28.43-.51.77a5.2,5.2,0,0,0,1.05.29c.9.05,1.37.43,1.17,1.39" transform="translate(-1387.87 -482.9)"/><path class="cls-1" d="M1482.5,524.72c-.6.39-1.18.81-1.79,1.18-2.83,1.76-5.67,3.5-8.51,5.26-.2.12-.4.26-.59.39" transform="translate(-1387.87 -482.9)"/><path class="cls-1" d="M1528.44,562c-1.91-.71-3.82-1.44-5.75-2.12s-4-1.36-6.08-2a1.89,1.89,0,0,0-.63,0" transform="translate(-1387.87 -482.9)"/><path class="cls-1" d="M1573,503.43q-3.23,3.56-6.44,7.13l-2.67,3" transform="translate(-1387.87 -482.9)"/><path class="cls-1" d="M1510.22,571.57a4.05,4.05,0,0,1-.12,1.06,9.79,9.79,0,0,1-.84,1.38c.74.21,1.32.41,1.92.54s1.3.12,1.71.75a1.49,1.49,0,0,1-1,2.46c-.59.14-1.16.35-1.81.55l2.13,1.57" transform="translate(-1387.87 -482.9)"/><path class="cls-1" d="M1547.36,519.77c1.82.69,3.66,1.32,5.43,2.11a7.11,7.11,0,0,1,1.89,1.46c.67.65,1.26,1.38,1.89,2.07" transform="translate(-1387.87 -482.9)"/><path class="cls-1" d="M1640.21,547.07l.17,1.17,2.54-.61a4.19,4.19,0,0,1-.16,1,1.82,1.82,0,0,0,.6,2.73c.75.59,1.05.52,1.54-.06s.8-1,1.19-1.46a1.15,1.15,0,0,1,.63,1.57c-.27.85.08,1.27,1,1.16a7.52,7.52,0,0,0,2-.44A2.3,2.3,0,0,0,1651,550c.89-.3,1.78,1.31,2.67.07" transform="translate(-1387.87 -482.9)"/><path class="cls-1" d="M1569.35,510.06c-1.95,2.64-3.92,5.27-5.83,7.94a7.77,7.77,0,0,0-.71,1.67" transform="translate(-1387.87 -482.9)"/><path class="cls-1" d="M1496.59,542a9.63,9.63,0,0,0-1.29-1,1.45,1.45,0,0,0-1.71.17,2.05,2.05,0,0,1-2.74-.32,2.94,2.94,0,0,0-2.89-.94,2.17,2.17,0,0,1-.64.1,2.18,2.18,0,0,0-2.67,1c-.85,1.35-1,1.44-2.33.83a1.16,1.16,0,0,0-1.49.25,17.17,17.17,0,0,0-1.19,1.58" transform="translate(-1387.87 -482.9)"/><path class="cls-1" d="M1577.57,495.8c-1.26.8-2.56,1.52-3.76,2.4-1.63,1.19-3.11,2.59-4.79,3.7a14.94,14.94,0,0,0-2.55,1.92" transform="translate(-1387.87 -482.9)"/><path class="cls-1" d="M1666.85,564c-.25-.71-.52-1.42-.74-2.14-.17-.56-.55-.66-1.07-.64s-.69.38-.76.86a1.64,1.64,0,0,1-1.27,1.37c-.68.17-1-.28-1.4-.83s-.76-.52-1,.1a7.59,7.59,0,0,1-.57,1.37,1.44,1.44,0,0,1-1,.6c-.35-.05-.67-.5-1-.81-.11-.11-.06-.35-.13-.52-.3-.76-.65-.84-1.27-.32a4.23,4.23,0,0,0-.63.64c-1.09,1.44-1.19,1.45-2.35.21" transform="translate(-1387.87 -482.9)"/><path class="cls-1" d="M1635,520.26c.5,1.19,1.07,2.35,1.46,3.58a4.58,4.58,0,0,0,1.11,2c1,1,1.92,2,2.88,3,.07.07.2.07.29.11" transform="translate(-1387.87 -482.9)"/><path class="cls-1" d="M1530.89,540.89c-1-.55-2-.71-2.82.19-.57-.5-1-1.05-1.45-1.2s-1,.2-1.48.37-1.16-.21-1.05-1a1.57,1.57,0,0,0-1.09-2,2.15,2.15,0,0,0-1.57.31c-.61.41-1,.93-2,.66-.44-.12-1,.37-1.59.58a1.28,1.28,0,0,0-.89,1.28c0,.6-.33,1.19-1.24,1-1.35-.31-2.12.2-2.66,1.58" transform="translate(-1387.87 -482.9)"/><path class="cls-1" d="M1551.72,529.08a2.33,2.33,0,0,0,1.89,1.84,19,19,0,0,1,5.84,2.7c.06,0,.19,0,.29,0" transform="translate(-1387.87 -482.9)"/><path class="cls-1" d="M1552.2,550.16c-.19-1.29-1.29-1.37-2.23-1.73-.52-.2-1.42-.14-1.11-1.27.12-.47-1.4-1-2-.72a8.88,8.88,0,0,0-1.28.85c-.56.43-1,.26-1.16-.33a1.3,1.3,0,0,0-1.62-1c-.46.06-1-.06-1-.82s-.6-1-1.16-1.3a1.63,1.63,0,0,0-1.82.14,16.74,16.74,0,0,1-1.4,1c-.7.35-1.09,0-1.06-.83a8,8,0,0,1,0-.85c.15-.94-.33-1.35-1.18-1.49l-1.17-.17a2.58,2.58,0,0,0,0-.79c-.17-.44-.32-1.07-.65-1.22a1.86,1.86,0,0,0-1.46.18c-1,.56-1.06,1.11-.54,2.42" transform="translate(-1387.87 -482.9)"/><path class="cls-1" d="M1645.22,538.86a1,1,0,0,0-.73,1.28c.09.54.59.5,1,.55.93.09,1.09.57.54,1.37-.25.37-.63.8-.6,1.17a4.44,4.44,0,0,0,.62,1.9c.32.52.92.47,1.35,0s.6-.8,1-1.4c.3,1.67,1.54,1.21,2.61,1.44.29-.37.61-.79.94-1.2" transform="translate(-1387.87 -482.9)"/><path class="cls-1" d="M1582.42,527a3.23,3.23,0,0,0,.68,2.58c1.58,1.79,3.11,3.62,4.66,5.44" transform="translate(-1387.87 -482.9)"/><path class="cls-1" d="M1489.23,531a4.55,4.55,0,0,1,2.13,1.45,7.84,7.84,0,0,0,2.34,1.79,11.71,11.71,0,0,1,3.26,2.5" transform="translate(-1387.87 -482.9)"/><path class="cls-1" d="M1589.49,542.59c-.66-.61-1.17-1.42-2.35-1.1-.67.19-1.15.47-1.24,1.11s-.31,1-.88.93a2,2,0,0,1-1.35-.44c-.45-.57-.74-1.14-1.65-.86-.15,0-.55-.49-.72-.82a2.54,2.54,0,0,0-4.16-.73,3.34,3.34,0,0,1-2.56,1.09c-1.42,0-1.7.32-2.15,1.56a1.46,1.46,0,0,1-.74.73.67.67,0,0,1-1-.4,2,2,0,0,0-1.71-1.25c-.64-.1-1.39-.22-1.82.6-.14.27-.46.45-.65.63l-2.06-.57c-.65.79-1.79,1.27-1.54,2.61" transform="translate(-1387.87 -482.9)"/><path class="cls-1" d="M1599.51,545.79c-.35-.14-.7-.3-1.07-.42s-.87-.11-1.15-.35a1.92,1.92,0,0,0-2.67,0,2.28,2.28,0,0,1-2.69.43c-.69-.33-1.69.25-2.22,1.15-.39.67-.78,1.14-1.71.88-.69-.19-1.54.64-1.57,1.57s-.79,1.14-1.31,1.59c-.7.61-1.24.25-1.82-.3a2,2,0,0,0-2.93.54c-.42.9-1.13,1-2.11,1.31a8.69,8.69,0,0,1,.17-1.54,1.29,1.29,0,0,0-1.29-1.81,1.69,1.69,0,0,0-.64.11c-.92.43-1.29.21-1.31-.86,0-.71-1.09-1.15-1.89-.84a8.45,8.45,0,0,0-.75.52c-.61.33-1.12.59-1.73-.19-1.1-1.42-2.63-1-3.28.72,0,.09-.14.15-.21.22" transform="translate(-1387.87 -482.9)"/><path class="cls-1" d="M1640.94,519.67a4.61,4.61,0,0,0,1.38,2.58c1.46,1.58,2.85,3.23,4.27,4.84" transform="translate(-1387.87 -482.9)"/><path class="cls-1" d="M1537.06,523a33.23,33.23,0,0,1-5.63,5.36,19.55,19.55,0,0,0-1.88,2c-.13.15-.08.45-.11.69" transform="translate(-1387.87 -482.9)"/><path class="cls-1" d="M1580,519.57c1.45,1.83,1.84,4,2.16,6.24a1.53,1.53,0,0,0,.8,1.31c1.14.67,2.19,1.49,3.28,2.25" transform="translate(-1387.87 -482.9)"/><path class="cls-1" d="M1603.24,554.21a24.39,24.39,0,0,0-2.44.44c-.56.16-1.11.44-1,1.27,0,.21-.42.65-.71.71-1,.21-1.32,1-1.47,1.84a1.3,1.3,0,0,0,.22,1,1.37,1.37,0,0,0,1.14.12c.88-.34,1.72-.81,2.58-1.23l.25.23-.37,1.56" transform="translate(-1387.87 -482.9)"/><path class="cls-1" d="M1621.67,540.35c-.4-1.5-1.6-1.9-2.65-.84a1.67,1.67,0,0,1-2.35.41,1.25,1.25,0,0,0-1.87.36c-.35.59,0,1.29.59,1.78s1.22.63,1.06,1.49" transform="translate(-1387.87 -482.9)"/><path class="cls-1" d="M1632.53,514.22l-7.23,6" transform="translate(-1387.87 -482.9)"/><path class="cls-1" d="M1631.83,516.5c-2.11,1.78-4.23,3.56-6.33,5.35a6.59,6.59,0,0,0-.6.69" transform="translate(-1387.87 -482.9)"/><path class="cls-1" d="M1629.16,528.58c-.2-.84-.21-1.81-1.38-2-.1,0-.22-.39-.19-.57.15-1.13.17-1.12-1-1.3-.07,0-.13-.12-.28-.28l1.8-2.47c-.83-.26-3.79.86-4.49,1.67" transform="translate(-1387.87 -482.9)"/><path class="cls-1" d="M1498.84,526.3c.86.73,1.75,1.42,2.56,2.19.59.57,1,1.28,1.61,1.87.72.75,1.51,1.46,2.26,2.18" transform="translate(-1387.87 -482.9)"/><path class="cls-1" d="M1647.38,519.37a6.94,6.94,0,0,1,3,3.08,7,7,0,0,0,2.68,2.76" transform="translate(-1387.87 -482.9)"/><path class="cls-1" d="M1488.24,526.4l2.28,1.88a3.75,3.75,0,0,0,2.67,1,3.77,3.77,0,0,1,2.47,1.19c1.35,1,2.65,2.11,4,3.15a3,3,0,0,0,.68.31" transform="translate(-1387.87 -482.9)"/><path class="cls-1" d="M1482.4,526.5l-6.14,4.36c-.06,0-.07.2-.1.29" transform="translate(-1387.87 -482.9)"/><path class="cls-1" d="M1520.13,528.09l-1.29,1.38-4.85,5.25" transform="translate(-1387.87 -482.9)"/><path class="cls-1" d="M1514.54,544.51c-.54-1.54-.77-1.69-2.4-1.6-.69,0-1.29.05-1.64-.84s-1.47-.92-2.41-.33c-.41.27-.81.55-1.09.75-.22,0-.27,0-.29,0-1.82-1.7-2-1.7-3.84,0l-.32.32" transform="translate(-1387.87 -482.9)"/><path class="cls-1" d="M1520.88,545.47c0-.63-.44-.73-.85-.73-.64,0-1.28.19-1.92.18a3.72,3.72,0,0,1-1.59-.33,1.66,1.66,0,0,0-2.25.24l-1.17,1.07" transform="translate(-1387.87 -482.9)"/><path class="cls-1" d="M1524.29,520.06a27.55,27.55,0,0,1-5.75,5.35" transform="translate(-1387.87 -482.9)"/><path class="cls-1" d="M1522.6,523.93l-5.44,4.75a1.5,1.5,0,0,0-.2.4" transform="translate(-1387.87 -482.9)"/><path class="cls-1" d="M1482.8,523.13,1477,526.8" transform="translate(-1387.87 -482.9)"/><path class="cls-1" d="M1566.37,520.46a10.41,10.41,0,0,1,.62-1.67c.43-.8,1-1.52,1.46-2.29a7.13,7.13,0,0,0,.38-.85l-.19-.25a17.1,17.1,0,0,0-1.47.91c-1.5,1.14-3,2.29-4.45,3.47a3.5,3.5,0,0,0-.6.88" transform="translate(-1387.87 -482.9)"/><path class="cls-1" d="M1639.46,515.71a16,16,0,0,0,1.45,3.62,8.43,8.43,0,0,0,2.72,2c1,.61,2.17,1.08,3.25,1.61" transform="translate(-1387.87 -482.9)"/><path class="cls-1" d="M1550.53,506.2c.46.83,1,1.63,1.37,2.48.3.63.4,1.36.73,2a11.09,11.09,0,0,0,1.48,2.17c.93,1,2,2,3,3" transform="translate(-1387.87 -482.9)"/><path class="cls-1" d="M1478.74,537.79l.88-1.51-.8-.5,1.68-2.51c-1.1-.84-2.13.16-3.35,0a5.19,5.19,0,0,1,.4-.66c.52-.57,1-1.12,1.58-1.68" transform="translate(-1387.87 -482.9)"/><path class="cls-1" d="M1530.36,561.34c-1.56-.64-3.12-1.29-4.69-1.9a5,5,0,0,0-1.17-.12" transform="translate(-1387.87 -482.9)"/><path class="cls-1" d="M1499.89,557.4l5.54,2.35" transform="translate(-1387.87 -482.9)"/><path class="cls-1" d="M1590.74,511a29.8,29.8,0,0,0,2.22,4.23,49.37,49.37,0,0,0,3.71,4.1,1.62,1.62,0,0,1,.21.39" transform="translate(-1387.87 -482.9)"/><path class="cls-1" d="M1403.85,542.27a19.63,19.63,0,0,0-2.32,1.21,1.34,1.34,0,0,0-.5,1.12c.12.36.66.59,1,.87.1.08.22.14.32.21" transform="translate(-1387.87 -482.9)"/><path class="cls-1" d="M1638.08,545.15a7.36,7.36,0,0,0-.63.75c-.46.7-.27,1.39.52,2l2.35-1.17" transform="translate(-1387.87 -482.9)"/><path class="cls-1" d="M1586.51,549.62c.68.32,1.35.65,2,1,.17.08.38.24.52.2,1.07-.34,1.73.27,2.35,1" transform="translate(-1387.87 -482.9)"/><path class="cls-1" d="M1526.31,557.83l4.9,1.7" transform="translate(-1387.87 -482.9)"/><path class="cls-1" d="M1548.65,526.4a25.8,25.8,0,0,1,2.26,1.9,5.05,5.05,0,0,0,2.7,1.15,24.15,24.15,0,0,0,2.57.42" transform="translate(-1387.87 -482.9)"/><path class="cls-1" d="M1638.47,522.54l3.66,3.47" transform="translate(-1387.87 -482.9)"/><path class="cls-1" d="M1490.32,535.61l3.47,1.68" transform="translate(-1387.87 -482.9)"/><path class="cls-1" d="M1580.33,551.44c1.21.42,1.66,1.61,2.42,2.47.2.22,0,.76,0,1.15" transform="translate(-1387.87 -482.9)"/><path class="cls-1" d="M1514.17,557.19a26,26,0,0,1,5.12,3.18,5.05,5.05,0,0,0,1.06.55" transform="translate(-1387.87 -482.9)"/><path class="cls-1" d="M1522.05,558.36c2,.62,3.56,2,5.33,3" transform="translate(-1387.87 -482.9)"/><path class="cls-1" d="M1479.73,530.76a14.36,14.36,0,0,0-5.75,1.48" transform="translate(-1387.87 -482.9)"/><path class="cls-1" d="M1555.18,511.75l-2.47-1.59" transform="translate(-1387.87 -482.9)"/><path class="cls-1" d="M1519.44,528.48c-1.09.36-2.19.7-3.27,1.1a8.87,8.87,0,0,0-1.19.68" transform="translate(-1387.87 -482.9)"/><path class="cls-1" d="M1647,565.18l-1.23.36c.6,1.68.6,1.68-.9,2.89" transform="translate(-1387.87 -482.9)"/><path class="cls-1" d="M1492,527.39l1.58,1.78" transform="translate(-1387.87 -482.9)"/><path class="cls-1" d="M1490.73,541.31l-1.28,1.18" transform="translate(-1387.87 -482.9)"/><path class="cls-1" d="M1580.47,568.22c-2.17.21-4.35.34-6.5.66-3.31.49-6.63,1-9.9,1.7-5.67,1.2-11.3,2.53-17,3.83-.83.19-1.63.48-2.45.73" transform="translate(-1387.87 -482.9)"/><path class="cls-1" d="M1564.06,567.9c-1.74.25-3.5.4-5.22.76-3.77.79-7.55,1.62-11.29,2.56a38.43,38.43,0,0,0-7.89,2.54l-.85.42" transform="translate(-1387.87 -482.9)"/><path class="cls-1" d="M1582,571.73c-1.88.18-3.77.32-5.64.55-2.07.24-4.14.49-6.18.85-3.1.55-6.19,1.2-9.27,1.8l-.43.11" transform="translate(-1387.87 -482.9)"/><path class="cls-1" d="M1577.49,568.86c-3.48,1.1-7,2.17-10.44,3.31-1.62.54-3.21,1.18-4.79,1.82a4.41,4.41,0,0,0-1,.73" transform="translate(-1387.87 -482.9)"/><path class="cls-1" d="M1580.15,572.27c-1.49.71-3,1.41-4.47,2.14a7.57,7.57,0,0,0-1,.69c1,.7,1.86.11,2.67,0,1.78-.18,3.55-.49,5.33-.7.27,0,.76.13.82.31.25.86.91.69,1.52.74,1.32.09,2.63.21,3.94.31" transform="translate(-1387.87 -482.9)"/><path class="cls-1" d="M1545.1,569.92a90,90,0,0,0-11.51,3.41" transform="translate(-1387.87 -482.9)"/></svg>