<svg id="Capa_1" data-name="Capa 1" xmlns="http://www.w3.org/2000/svg" viewBox="0 0 212.82 234.12"><defs><style>.cls-1{fill:none;stroke:#000;stroke-linecap:round;stroke-linejoin:round;stroke-width:0.5px;}</style></defs><title>fondo-areasnaturales</title><path class="cls-1" d="M1544.21,652.06a71.34,71.34,0,0,1,6.39,12.56,41.68,41.68,0,0,1,3,11.22,56.38,56.38,0,0,1,.35,6.5c0,3.62.17,7.27-.15,10.87-.51,5.69-1.13,11.39-3.51,16.73a67,67,0,0,1-5.86,10.63,3.11,3.11,0,0,1-.67.57" transform="translate(-1452.34 -561.18)"/><path class="cls-1" d="M1579,615.72a29.35,29.35,0,0,0-1.33,2.7c-.55,1.47-.93,3-1.5,4.47a9.53,9.53,0,0,1-1.21,1.81,18,18,0,0,0-2.46,6.39,33.38,33.38,0,0,0-.68,8.52c.06,2.84.26,5.69.2,8.52a47.63,47.63,0,0,0,1.4,10.65,51.83,51.83,0,0,0,1.92,7.06c.81,2.28,1,4.67,1.59,7,.89,3.32,1.52,6.7,2.16,10.08.43,2.3.72,4.63,1,7,.27,2.13.53,4.26.66,6.4.11,1.75,0,3.51,0,5.26a2.06,2.06,0,0,0,.76,2,2.06,2.06,0,0,1,.61,2,5.32,5.32,0,0,0,.2,1.4" transform="translate(-1452.34 -561.18)"/><path class="cls-1" d="M1476.25,740.74c2-2.63,5.06-2.92,8-3.59,2-.47,4.2-.57,6.08-1.75a9.45,9.45,0,0,1,2.67-.71c1.42-.37,2.84-.76,4.26-1.12a9.59,9.59,0,0,1,6.61.91c3.35,1.56,6.69,3.14,10,4.82,3,1.53,5.85,3.25,7.65,6.26.18.29.58.45.88.68" transform="translate(-1452.34 -561.18)"/><path class="cls-1" d="M1569.11,608.77A3.75,3.75,0,0,1,1569,610c-1.22,2.37-1.46,5-2.23,7.52a10.14,10.14,0,0,0-.64,2.35c0,1.65.11,3.29.2,4.94,0,1.05.12,2.09.22,3.14.21,2.06.48,4.11.66,6.17.1,1.19.08,2.39.13,3.58a1.25,1.25,0,0,0,.22.45" transform="translate(-1452.34 -561.18)"/><path class="cls-1" d="M1554.3,637.82c-.65.89-.28,1.91-.17,2.79.34,2.53,1,5,1.38,7.53.31,2,.41,4,.58,5.94a1.94,1.94,0,0,1-.18.63,5.09,5.09,0,0,1-3.52-2,25.24,25.24,0,0,1-4.91-7.42,16.56,16.56,0,0,1-.58-2.12" transform="translate(-1452.34 -561.18)"/><path class="cls-1" d="M1570.12,650.94a79.66,79.66,0,0,0,1.66,11.89c1.09,4.58,1.88,9.23,3.09,13.78,1.11,4.15,1.63,8.41,2.65,12.57.08.33.15.67.22,1" transform="translate(-1452.34 -561.18)"/><path class="cls-1" d="M1528.73,744.89a2.12,2.12,0,0,0-.44.46,9.78,9.78,0,0,0-1.23,4.7,2.15,2.15,0,0,1-1.92,2.54,43.18,43.18,0,0,1-6.39,1.13c-3.24.34-6.5.52-9.75.69-1.76.09-3.52,0-5.27,0-1.5,0-3,0-4.49.12a2.17,2.17,0,0,1-2-.89c-1.74-2.25-3.57-4.43-5.36-6.64" transform="translate(-1452.34 -561.18)"/><path class="cls-1" d="M1560,681.22a39.94,39.94,0,0,1,.2,4.37c-.11,2.1-.36,4.2-.66,6.28-.43,3-1,5.91-1.44,8.86-.08.45-.15.9-.23,1.35" transform="translate(-1452.34 -561.18)"/><path class="cls-1" d="M1564.29,624.92a23.65,23.65,0,0,1,.09,3,48.48,48.48,0,0,0,.23,11.1c.16,1.3.18,2.62.23,3.93a5.65,5.65,0,0,1-.37,2,7.18,7.18,0,0,0-.06,2.89c.3,3,.65,6,1,9,.32,2.69.66,5.39,1,8.07,0,.2.21.38.32.57" transform="translate(-1452.34 -561.18)"/><path class="cls-1" d="M1558.9,661.43c.64,2.32,1.27,4.64,1.91,7a52.63,52.63,0,0,1,1.4,7.39,26.46,26.46,0,0,1-.17,5.84" transform="translate(-1452.34 -561.18)"/><path class="cls-1" d="M1565.41,631.87c.07,1.65.14,3.29.22,4.94.06,1.05.13,2.09.23,3.14.21,2,.46,4.11.66,6.17.15,1.53.23,3.06.35,4.59,0,.45.07.9.11,1.35" transform="translate(-1452.34 -561.18)"/><path class="cls-1" d="M1581,703.2a3.5,3.5,0,0,0-.33.9c-.35,3.54-.77,7.09-1,10.65a16.38,16.38,0,0,0,1,7.74" transform="translate(-1452.34 -561.18)"/><path class="cls-1" d="M1563.05,664.35c.19,3.74.49,7.47.52,11.21,0,2.39-.33,4.79-.52,7.18,0,.15,0,.3,0,.45" transform="translate(-1452.34 -561.18)"/><path class="cls-1" d="M1566.75,699.61c-2,3.67-2.53,7.78-3.49,11.77-.56,2.37-1.25,4.71-1.89,7.07" transform="translate(-1452.34 -561.18)"/><path class="cls-1" d="M1597.71,736.62c.29,1.83.74,3.65.85,5.49a35.81,35.81,0,0,1-.2,5.38c-.19,2.1-.5,4.19-.77,6.28-.07.5-.22,1-.33,1.46" transform="translate(-1452.34 -561.18)"/><path class="cls-1" d="M1568,640.84c0,2.55-.19,5.09-.08,7.63s.5,4.78.74,7.18c.12,1.12.16,2.24.23,3.36" transform="translate(-1452.34 -561.18)"/><path class="cls-1" d="M1567.87,660.36c.23,1.79.49,3.58.67,5.38.29,2.91.56,5.83.78,8.75.11,1.45.07,2.91.13,4.37,0,1.2.2,2.39.21,3.59,0,1.83-.07,3.66-.1,5.5a10.88,10.88,0,0,0,.11,1.12" transform="translate(-1452.34 -561.18)"/><path class="cls-1" d="M1501.26,611.69l.26,1c.91-.17,1-.81,1.21-1.5s.1-1.65.89-2.11a1.14,1.14,0,0,1,1-.1,1.15,1.15,0,0,1,.34,1,11.35,11.35,0,0,0-.45,3.82,2.46,2.46,0,0,0,4.06,1.56,12.07,12.07,0,0,0,1.26-1.22c1.31.86,2.53.89,3.46.11,1.09-.93,1.16-1.51.33-3" transform="translate(-1452.34 -561.18)"/><path class="cls-1" d="M1468.74,748.48c1.14-2.5,3.59-3.1,5.84-3.9a10.14,10.14,0,0,1,7,.18c3.18,1.15,6.35,2.3,9.07,4.4a10.39,10.39,0,0,1,3.73,4.81,6.71,6.71,0,0,1,.16,3.81c-.32,1.33-1.68,1.71-2.78,2-1.9.47-3.87.66-5.82.94a20.86,20.86,0,0,1-3.92.4,9.51,9.51,0,0,1-3.24-.87c-1.4-.6-2.68-1.44-4.06-2.08a16.59,16.59,0,0,0-2.12-.59,21.92,21.92,0,0,1-3.12-1.15,3.48,3.48,0,0,1-1.23-1.44c-.49-.93-.82-1.94-1.28-2.89-.11-.24-.43-.38-.65-.57" transform="translate(-1452.34 -561.18)"/><path class="cls-1" d="M1607.46,738.75c-1.48,3.46-3.38,6.75-4.39,10.42a19.16,19.16,0,0,0-.77,6.51" transform="translate(-1452.34 -561.18)"/><path class="cls-1" d="M1521.56,573.45c-1.1,1.31-1.07,1.63.22,2.69.55.46,1.14,1,.89,1.79a1.71,1.71,0,0,1-2.66.65,19.68,19.68,0,0,1-1.6-2.1,5.81,5.81,0,0,0-1.58-1.65c-1.55-.73-2.84.66-3.12,2a6.86,6.86,0,0,0-.09.71c-.69.14-1.38-.62-2,.07a3.16,3.16,0,0,0-1.23,2.25" transform="translate(-1452.34 -561.18)"/><path class="cls-1" d="M1639.65,632.21a13.85,13.85,0,0,1,2.1,1.6,1.57,1.57,0,0,1,.15,1.88,1.34,1.34,0,0,1-1.47.78,8.41,8.41,0,0,0-1.56-.19,3.51,3.51,0,0,0-1.13.53c.15.3.22.7.47.87.66.48,1.41.84,2.11,1.26a4.76,4.76,0,0,1,1,.68c1,1.09.93,1.61-.43,2.35a1.52,1.52,0,0,0-.34.33" transform="translate(-1452.34 -561.18)"/><path class="cls-1" d="M1572.93,683c.26,1.54.64,3.06.87,4.6a32.48,32.48,0,0,1,.34,3.81,52.33,52.33,0,0,1-.61,8.19c-.47,3.92-1.86,7.64-2.3,11.55-.19,1.76-.44,3.51-.66,5.27" transform="translate(-1452.34 -561.18)"/><path class="cls-1" d="M1610.49,730.67a59.26,59.26,0,0,1,3,10.86A22.3,22.3,0,0,1,1614,746" transform="translate(-1452.34 -561.18)"/><path class="cls-1" d="M1566.19,676.17c.26,1.2.59,2.38.77,3.59.32,2.09.55,4.18.79,6.28.06.52,0,1.05,0,1.57.1,2.54.38,5.09.29,7.62-.13,3.26-.56,6.51-.86,9.76" transform="translate(-1452.34 -561.18)"/><path class="cls-1" d="M1493.18,739.29c.41,0,.83,0,1.24,0a5.16,5.16,0,0,1,.67-.1,33.8,33.8,0,0,1,9.21,1.75,21,21,0,0,1,4.36,2.06" transform="translate(-1452.34 -561.18)"/><path class="cls-1" d="M1565.41,685.48a39.42,39.42,0,0,1-3,14.69" transform="translate(-1452.34 -561.18)"/><path class="cls-1" d="M1555.43,700.17c-.27,1.05-.54,2.09-.79,3.14a46,46,0,0,1-3.59,11.1" transform="translate(-1452.34 -561.18)"/><path class="cls-1" d="M1586.27,717.55q.66,3.65,1.34,7.29a20.58,20.58,0,0,1,.34,6.5c0,.16-.08.3-.11.45" transform="translate(-1452.34 -561.18)"/><path class="cls-1" d="M1569.89,632.77a3.42,3.42,0,0,0-.34,2.58,7.26,7.26,0,0,1,.22,1.46c0,1.38,0,2.77-.11,4.15-.13,2.5-.29,5-.44,7.51,0,.52-.07,1-.11,1.57" transform="translate(-1452.34 -561.18)"/><path class="cls-1" d="M1571.69,699.61c-.94,3.74-1.89,7.47-2.79,11.22a15,15,0,0,0-.24,2.24" transform="translate(-1452.34 -561.18)"/><path class="cls-1" d="M1594.57,741.55c.52,1.94,1,3.89,1.57,5.83a14.75,14.75,0,0,1,.33,7.63" transform="translate(-1452.34 -561.18)"/><path class="cls-1" d="M1543.65,606c1.24,2.31.54,3.89-2,4.59-.3.08-.6.13-.89.18a2.9,2.9,0,0,1-5.5,1.28" transform="translate(-1452.34 -561.18)"/><path class="cls-1" d="M1539.61,565a7.7,7.7,0,0,1,.57-1.23c1.16-1.67,3.25-.93,4,.67a5.64,5.64,0,0,1,.35,1c.4,1.37,1,1.74,2.35,1.46.3-.06.6-.15.9-.22,2.62-.67,4.26.62,4.26,3.36,0,.41-.07.82-.11,1.24" transform="translate(-1452.34 -561.18)"/><path class="cls-1" d="M1553.63,565c.11-.23.22-.45.34-.68a1.55,1.55,0,0,1,2.57-.55,10.31,10.31,0,0,1,.77.81c.36-.41.74-.85,1.15-1.26a1.74,1.74,0,0,1,2.21-.42,7.42,7.42,0,0,1,1.89,1.9c.18.23,0,.82-.2,1.2s-.53.57-.63.91-.18,1,0,1.19a1.35,1.35,0,0,0,1.18.23,2.08,2.08,0,0,1,2.14,0" transform="translate(-1452.34 -561.18)"/><path class="cls-1" d="M1656.61,752.19a13.13,13.13,0,0,1,.27,5.95,51,51,0,0,1-2,8.18c-.42,1.09-.89,2.17-1.34,3.25" transform="translate(-1452.34 -561.18)"/><path class="cls-1" d="M1513.59,632.66a2.27,2.27,0,0,0,.23.55c1.26,1.55.66,2.37-.81,3.11-.68.35-1.08.81-.83,1.37a1.88,1.88,0,0,1-.83,2.47,2.78,2.78,0,0,1-2.8-.33c-.44-.33-.82-.74-1.24-1.12" transform="translate(-1452.34 -561.18)"/><path class="cls-1" d="M1586.15,635.57c-.29,1.24-.55,2.48-.9,3.7a16.9,16.9,0,0,1-2.56,5.28,18.25,18.25,0,0,0-1.34,2.14,2.89,2.89,0,0,0-.13,1c.3,0,.66.11.89,0,2.71-1.58,5.74-1.9,8.75-2.35a9.43,9.43,0,0,0,1.46-.44" transform="translate(-1452.34 -561.18)"/><path class="cls-1" d="M1512.25,765.26c1.42,3.14,2.85,6.28,4.26,9.42a5.48,5.48,0,0,1,.72,3.37,13.26,13.26,0,0,0,.18,3.13" transform="translate(-1452.34 -561.18)"/><path class="cls-1" d="M1576.88,693.25c.88,2.58,0,5-.58,7.5-.42,1.71-1,3.38-1.56,5-.08.23-.36.38-.55.57" transform="translate(-1452.34 -561.18)"/><path class="cls-1" d="M1583.69,719.57c.41,1.53.83,3.06,1.23,4.6a8.91,8.91,0,0,1-.43,4.6,26.51,26.51,0,0,0-.47,2.69" transform="translate(-1452.34 -561.18)"/><path class="cls-1" d="M1563.61,598.45c.72,1.71.32,2.88-1.46,4a20.39,20.39,0,0,1-2.1,1c.55,2.52-.89,3.65-3.62,3.67a10.15,10.15,0,0,1-2.46-.64" transform="translate(-1452.34 -561.18)"/><path class="cls-1" d="M1464.47,782.82c1.54,1.91,3.11,3.78,4.59,5.73a12.35,12.35,0,0,1,2.37,6.16" transform="translate(-1452.34 -561.18)"/><path class="cls-1" d="M1560.47,707.46c-.45,1.9-.89,3.81-1.34,5.72-.53,2.2-1.05,4.41-1.57,6.61" transform="translate(-1452.34 -561.18)"/><path class="cls-1" d="M1478.49,781.93a45.4,45.4,0,0,1,1,5.49c.13,2.12-.1,4.26-.17,6.39" transform="translate(-1452.34 -561.18)"/><path class="cls-1" d="M1565.36,741.44c1.61,3.18,2.12,6.67,2.91,10.09.21.89.38,1.79.57,2.69" transform="translate(-1452.34 -561.18)"/><path class="cls-1" d="M1522.34,627.16a14,14,0,0,1,1.22,1.47,1.39,1.39,0,0,1-1.22,2.22,16.9,16.9,0,0,1-2.21-.36s-.11.06-.14.15c-.59,1.88-1.53,2.3-3.26,1.46l-.67-.34" transform="translate(-1452.34 -561.18)"/><path class="cls-1" d="M1653.69,757.35c.43,3.5.76,7-.45,10.43a9.75,9.75,0,0,1-.56,1.12" transform="translate(-1452.34 -561.18)"/><path class="cls-1" d="M1569,737.17c.22,1.13.51,2.24.65,3.37.11.89,0,1.79,0,2.69.06,2,.2,4,.19,6.06a19.86,19.86,0,0,1-.44,3.24c0,.25-.32.46-.49.68" transform="translate(-1452.34 -561.18)"/><path class="cls-1" d="M1657.28,757.24a3.6,3.6,0,0,1,.43,1.12,26,26,0,0,1-1.55,10.2" transform="translate(-1452.34 -561.18)"/><path class="cls-1" d="M1624.62,734.82a19.8,19.8,0,0,0-2.7,8.07c-.12,1.06-.36,2.1-.55,3.15" transform="translate(-1452.34 -561.18)"/><path class="cls-1" d="M1628.77,657.44c.48,1-.24,1.52-.9,2-1,.77-1.26-.54-1.91-.79-1,.62-.91,1.63-.89,2.59a3,3,0,0,1-1.46,2.81,1.6,1.6,0,0,1-2.45-.46,2.75,2.75,0,0,0-1.23-1.05c-.48-.22-.77-.85-1.14-1.29" transform="translate(-1452.34 -561.18)"/><path class="cls-1" d="M1659.19,757.12a27.52,27.52,0,0,1-.79,10c-.12.42-.3.83-.45,1.24" transform="translate(-1452.34 -561.18)"/><path class="cls-1" d="M1527.05,647.17c-.09-1,0,3-1.79,4-1.23.75-1.82.58-2.48-.67-.06-.14-.21-.32-.33-.33-1.49-.1-1.91-1.3-2.47-2.37,0-.09-.14-.15-.22-.22" transform="translate(-1452.34 -561.18)"/><path class="cls-1" d="M1589.18,716.88c.23,2.28.45,4.56.68,6.84.14,1.46.41,2.91.41,4.37a5.56,5.56,0,0,1-.75,3.48" transform="translate(-1452.34 -561.18)"/><path class="cls-1" d="M1570.18,742.11a29.58,29.58,0,0,1,1.2,3.93c.33,2,.43,4,.58,6.05a4,4,0,0,1-.21,1.12" transform="translate(-1452.34 -561.18)"/><path class="cls-1" d="M1592.66,574.68c.85-1.22,2-1.2,3.25-.77,2.1.72,1.72,2.51,1.65,4.18l.71-.05a1.09,1.09,0,0,1,1.34,1.13,4.86,4.86,0,0,0,1.67,3.6c.81.71.78,1.41,0,2.21a9.28,9.28,0,0,1-1.67,1.24c-.9.58-1,1.11-.22,1.8.53.45,1.16.79,1.67,1.25.91.8.78,1.26-.44,1.78" transform="translate(-1452.34 -561.18)"/><path class="cls-1" d="M1619.35,650.83c.28,2.15-1.21,3.54-3.46,3.12-1,1.67-1.28,4.3-4.11,3.8l-.17-2" transform="translate(-1452.34 -561.18)"/><path class="cls-1" d="M1631.24,635.91c-.2,2.13-1.12,2.57-4,1.9-.12.83-.29,1.65-.36,2.48-.1,1.34-.62,2-2.14,1.79" transform="translate(-1452.34 -561.18)"/><path class="cls-1" d="M1567.87,719.12c.45,1.46,1,2.9,1.33,4.38a13,13,0,0,1,.13,6.28" transform="translate(-1452.34 -561.18)"/><path class="cls-1" d="M1461.89,738.16a49.93,49.93,0,0,1,6.21,9.52c.94,1.81.33,3.6.39,5.4a4.5,4.5,0,0,1-.43,1.35" transform="translate(-1452.34 -561.18)"/><path class="cls-1" d="M1609.59,618.3a6.44,6.44,0,0,1,.92,2.81c0,1.27,0,1.34-1.28,1.65a25.61,25.61,0,0,1-.33,2.72c-.3,1.31-2.22,1.27-3,.56-.3-.27-.6-.56-.89-.84" transform="translate(-1452.34 -561.18)"/><path class="cls-1" d="M1565.41,570c0-.71,0-1.42-.12-2.13-.17-1.49,1.43-2.84,2.92-3.14,1-.2,1.6.44,2.18,1.06.48-.35.88-.66,1.3-1,1.84-1.25,3.65-.52,4.15,1.68a5,5,0,0,1-.9,4.26" transform="translate(-1452.34 -561.18)"/><path class="cls-1" d="M1598.94,742.78a16.93,16.93,0,0,1,.54,2.58c.1,2.24.09,4.49.14,6.73a4.22,4.22,0,0,0,.22.9" transform="translate(-1452.34 -561.18)"/><path class="cls-1" d="M1562.44,744.13c1.16,2.24,2.36,4.47,3.47,6.73a5.27,5.27,0,0,1,.57,3.36" transform="translate(-1452.34 -561.18)"/><path class="cls-1" d="M1557,712.73c-.6,2.13-1.19,4.26-1.8,6.39a17.75,17.75,0,0,1-1.16,3.57" transform="translate(-1452.34 -561.18)"/><path class="cls-1" d="M1460.88,782.38c2.51,2.39,3.47,5.56,4.36,8.75a2.9,2.9,0,0,1-.09,1" transform="translate(-1452.34 -561.18)"/><path class="cls-1" d="M1533.78,713.74a22.71,22.71,0,0,1,5.28,9.3c.06.17.29.45.32.43.56-.26.52.08.59.47a2.79,2.79,0,0,0,.43.79" transform="translate(-1452.34 -561.18)"/><path class="cls-1" d="M1562.72,634.34c-.12,1.08-.3,2.17-.33,3.25-.05,2.21,0,4.41,0,6.62" transform="translate(-1452.34 -561.18)"/><path class="cls-1" d="M1595.46,716c-.15,0-.4,0-.43.12a43.61,43.61,0,0,0-1.45,4.26c-.44,1.77-.74,3.58-1,5.38s-.46,3.66-.69,5.49" transform="translate(-1452.34 -561.18)"/><path class="cls-1" d="M1652.79,758.47a43.05,43.05,0,0,1-.8,8.63c-.07.33-.39.6-.6.9" transform="translate(-1452.34 -561.18)"/><path class="cls-1" d="M1486.57,784.06a44.8,44.8,0,0,0-2.78,3.71c-1.12,1.85-2,3.8-3,5.71" transform="translate(-1452.34 -561.18)"/><path class="cls-1" d="M1581.11,647.8c-1.2,1.19-2.47,2.32-3.57,3.6s-2.17,2.92-3.29,4.35a6.12,6.12,0,0,1-1.1.91" transform="translate(-1452.34 -561.18)"/><path class="cls-1" d="M1568.43,606.19c-.94,1-1,2.35-1.32,3.6-.35,1.51-.55,3.06-.8,4.59-.18,1.06-.93,2-.67,3.14a7.48,7.48,0,0,0,.33.9" transform="translate(-1452.34 -561.18)"/><path class="cls-1" d="M1473.45,779.68c.56,1.57,1.47,3.11,1.6,4.72.26,3.09,1.08,6.17.51,9.3,0,.13-.21.23-.32.34l-1.46-1.91" transform="translate(-1452.34 -561.18)"/><path class="cls-1" d="M1523.46,574.9l-1.9-1.68a20.69,20.69,0,0,1-1.78-1.58,1.85,1.85,0,0,1-.13-2.34,1.66,1.66,0,0,1,2.36-.57,2,2,0,0,0,.78.21c.26,0,.65-.05.75-.22a1.09,1.09,0,0,0,0-.87,4.34,4.34,0,0,0-.65-.91c-1.2-1.63-.76-2.76,1.24-3.14.67-.12,1.34-.22,2-.33.46-2.16,2-2.67,3.9-1.21a6.73,6.73,0,0,1,2.39,3.11,2,2,0,0,0,.43.56" transform="translate(-1452.34 -561.18)"/><path class="cls-1" d="M1617,711.72c-.71,2.92-1.41,5.83-2.13,8.75,0,.19-.15.37-.22.56" transform="translate(-1452.34 -561.18)"/><path class="cls-1" d="M1488,747.14a8.71,8.71,0,0,1,3.48-.37c3.48.17,6.76,1.22,10.1,2,.46.11,1,.05,1.45.13a2.18,2.18,0,0,1,1.5.85,23.5,23.5,0,0,0,2.76,2.5" transform="translate(-1452.34 -561.18)"/><path class="cls-1" d="M1524.58,587c-.46-.68-1.21-1.13-1.26-2.13-.06-1.44,1.31-2.78,3.17-3.26a2.41,2.41,0,0,1,3.25,1.57" transform="translate(-1452.34 -561.18)"/><path class="cls-1" d="M1544.35,691.94c.39,1.9.84,3.79,1.14,5.7a24.94,24.94,0,0,1,.12,3.24" transform="translate(-1452.34 -561.18)"/><path class="cls-1" d="M1544.77,638a8.2,8.2,0,0,0-3.25,6.28,2.71,2.71,0,0,1-3.7.11" transform="translate(-1452.34 -561.18)"/><path class="cls-1" d="M1478.16,630.08a2.62,2.62,0,0,0-2.13-.56c-1.31.14-1.63.72-1.09,2.1-.78.09-1,.45-.86,1.27s-.19,1.67,0,2.45a13.47,13.47,0,0,0,1.1,2.61,4.51,4.51,0,0,0,.3,3.24c.78,1.48,1.48,1.61,2.82.44" transform="translate(-1452.34 -561.18)"/><path class="cls-1" d="M1480.85,649.82a4.11,4.11,0,0,0-.85,3.58c.32,1.55.91,2,2.64,1.69,1.35,1.42,2.56,1.76,3.93,1.25a1.43,1.43,0,0,0,1.12-1.7" transform="translate(-1452.34 -561.18)"/><path class="cls-1" d="M1507.87,774c.72,1.42,1.44,2.83,2.13,4.26s1.43,3,2.14,4.48" transform="translate(-1452.34 -561.18)"/><path class="cls-1" d="M1620.92,731c-.28,1.46-.59,2.91-.83,4.37-.12.7-.13,1.42-.18,2.13a32.39,32.39,0,0,0-.2,3.25c0,1.61.2,3.22.31,4.83" transform="translate(-1452.34 -561.18)"/><path class="cls-1" d="M1615.87,608.1a1.65,1.65,0,0,1,2.35-.55,3,3,0,0,1,1.59,2.46,3.61,3.61,0,0,0,.25.91c.39-.24.72-.5,1.09-.68,2.17-1.11,4.08-.57,4.66,1.24a9.39,9.39,0,0,1,0,2.71,2.79,2.79,0,0,1,1.76,3.65c-.22.65-.17,1.43-.92,2-.34.26,0,1.3-.19,1.94a7.64,7.64,0,0,1-.76,1.58" transform="translate(-1452.34 -561.18)"/><path class="cls-1" d="M1619.35,737.06c-.49,1.61-1,3.2-1.44,4.83-.32,1.29-.47,2.61-.69,3.92" transform="translate(-1452.34 -561.18)"/><path class="cls-1" d="M1475.58,784.84a13.74,13.74,0,0,1,1.65,5.61,20.52,20.52,0,0,1-.08,3" transform="translate(-1452.34 -561.18)"/><path class="cls-1" d="M1524.7,618.64a3.48,3.48,0,0,0,1.68,3,1.87,1.87,0,0,0,2.21.08c.56-.47.84-.33,1.39-.1a2.4,2.4,0,0,0,2.89-.88c.1-.2,0-.51,0-.77" transform="translate(-1452.34 -561.18)"/><path class="cls-1" d="M1496.32,603.61a4,4,0,0,0-3,2.35c-.62,1.52-.11,2.67,1.43,3a17.41,17.41,0,0,0-.27,2.36,3.06,3.06,0,0,0,3,2.93c1,0,1.43-.77,1.9-1.47" transform="translate(-1452.34 -561.18)"/><path class="cls-1" d="M1461.33,745.45l4.38,8.41" transform="translate(-1452.34 -561.18)"/><path class="cls-1" d="M1570.34,717.78l1.06,8.47L1573,725" transform="translate(-1452.34 -561.18)"/><path class="cls-1" d="M1490.16,597.45c-1.61-1.42-1-2.79.56-3.71-1-2-.76-3.61.79-4.8s3-.56,4.47-.1a7.37,7.37,0,0,1,1.69,1.09" transform="translate(-1452.34 -561.18)"/><path class="cls-1" d="M1486.68,607.54c-1,.09-1.55-.73-2.1-1.37a1.07,1.07,0,0,1,.1-1,2.86,2.86,0,0,1,3.64-.93c.28-.34.49-.79.84-1a3.09,3.09,0,0,1,1.22,0" transform="translate(-1452.34 -561.18)"/><path class="cls-1" d="M1505.07,716c.15,2.21.35,4.41.43,6.62a15.29,15.29,0,0,1-.32,2.58" transform="translate(-1452.34 -561.18)"/><path class="cls-1" d="M1620,710.93a20.3,20.3,0,0,0-2.91,7.41c-.26,1.61-.53,3.21-.79,4.82" transform="translate(-1452.34 -561.18)"/><path class="cls-1" d="M1477.48,754.31c.64.34,1.27.69,1.91,1,2,1,4,.41,6,0,1.18-.25,2.32-.66,3.48-1" transform="translate(-1452.34 -561.18)"/><path class="cls-1" d="M1560.2,746.15c1.76,2.53,3.61,5,4.38,8.07" transform="translate(-1452.34 -561.18)"/><path class="cls-1" d="M1648.31,760c-.08,3.11,1.27,6.06,1,9.2" transform="translate(-1452.34 -561.18)"/><path class="cls-1" d="M1574.49,633.11a4.68,4.68,0,0,0,.47,1.55c1.59,2,5.64,2,6.91-.11a5.91,5.91,0,0,0,.47-1.56" transform="translate(-1452.34 -561.18)"/><path class="cls-1" d="M1506.19,774.9a28.32,28.32,0,0,1,3.7,8.08" transform="translate(-1452.34 -561.18)"/><path class="cls-1" d="M1536.92,631.65a5.3,5.3,0,0,1,1.58,3.7c0,1.36-.29,1.66-1.69,1.68l-.53.05a1.93,1.93,0,0,1-1.61,2.16,1.74,1.74,0,0,1-2-.77c-.41-.71-.9-1.55,0-2.34" transform="translate(-1452.34 -561.18)"/><path class="cls-1" d="M1618.12,629c.32,1.7-.09,2.55-1.69,3.47s-2.57.92-3.82-.1a.81.81,0,0,0-.66-.11c-2.66,1.15-4.14.1-5-1.69" transform="translate(-1452.34 -561.18)"/><path class="cls-1" d="M1539.84,572.44a3,3,0,0,1,2.69-2.35,3.39,3.39,0,0,1,3.69,1.35,2.71,2.71,0,0,1,.23.89" transform="translate(-1452.34 -561.18)"/><path class="cls-1" d="M1505.86,581.07a2.18,2.18,0,0,1-.56-2.24,2.7,2.7,0,0,1,2.46-1.57,3.36,3.36,0,0,1,3,.9" transform="translate(-1452.34 -561.18)"/><path class="cls-1" d="M1515.05,687.38c.33,2.46.66,4.92,1,7.37,0,.2.22.37.34.56" transform="translate(-1452.34 -561.18)"/><path class="cls-1" d="M1609.71,710.15c-.17,2.63,0,5.3-.9,7.85" transform="translate(-1452.34 -561.18)"/><path class="cls-1" d="M1540.29,717a3.52,3.52,0,0,1,.85,2.47,34,34,0,0,1-.3,4.26c-.06.64-.22,1.27-.33,1.91" transform="translate(-1452.34 -561.18)"/><path class="cls-1" d="M1545.89,719.57c.34,1.27.73,2.53,1,3.82s.39,2.53.57,3.81" transform="translate(-1452.34 -561.18)"/><path class="cls-1" d="M1549.58,694.49c.5,1.59,1,3.18,1.47,4.79a16.69,16.69,0,0,1,.4,2.45c0,.1-.2.23-.31.35" transform="translate(-1452.34 -561.18)"/><path class="cls-1" d="M1537.82,691c.16,1.75.31,3.5.48,5.25.08.79.19,1.57.29,2.35" transform="translate(-1452.34 -561.18)"/><path class="cls-1" d="M1461.56,749.72c1.49,2.5,3,5,4.47,7.52a3.49,3.49,0,0,1,.24,1" transform="translate(-1452.34 -561.18)"/><path class="cls-1" d="M1509.45,654.19a2.79,2.79,0,0,1-2,4c-1.32.26-2-.11-2.47-1.46" transform="translate(-1452.34 -561.18)"/><path class="cls-1" d="M1586.38,649a24.4,24.4,0,0,0-6,4.33c-2.11,2.08-2.66,4.7-3.3,7.34a13.32,13.32,0,0,0,0,1.9,7.57,7.57,0,0,1-1.11,4.15" transform="translate(-1452.34 -561.18)"/><path class="cls-1" d="M1561.37,722.71c1,1.82,2.47,3.37,2.79,5.5.11.7.09,1.42.13,2.13" transform="translate(-1452.34 -561.18)"/><path class="cls-1" d="M1452.59,751.06a22,22,0,0,1,5.05,7c.08.18.29.3.44.45" transform="translate(-1452.34 -561.18)"/><path class="cls-1" d="M1546.43,694.13c.32,2.08.62,4.17,1,6.25a5.77,5.77,0,0,0,.58,1.33" transform="translate(-1452.34 -561.18)"/><path class="cls-1" d="M1529,689.23c-.21,2.18-.42,4.35-.59,6.53a3.75,3.75,0,0,0,.24,1.11" transform="translate(-1452.34 -561.18)"/><path class="cls-1" d="M1568.66,616.9c.59.15.44.54.34,1-.35,1.6-.79,3.2-1,4.82a6.71,6.71,0,0,0,.88,4.14c.59,1,1,1.06,1.77.33a5.08,5.08,0,0,0,1.69-3" transform="translate(-1452.34 -561.18)"/><path class="cls-1" d="M1600.17,703c-1.48,1.63-2.05,3.69-2.69,5.72-.18.57-.37,1.12-.56,1.68" transform="translate(-1452.34 -561.18)"/><path class="cls-1" d="M1459.2,750.5c1.31,1.94,2.64,3.87,3.91,5.84a7.67,7.67,0,0,1,.58,1.67" transform="translate(-1452.34 -561.18)"/><path class="cls-1" d="M1462.68,744.11c1.08,2.24,2.27,4.44,3.2,6.75a11,11,0,0,1,.32,3.23l-.27,0" transform="translate(-1452.34 -561.18)"/><path class="cls-1" d="M1630.9,641.74a2.1,2.1,0,0,1-.9,2.46,2.2,2.2,0,0,1-2.56.22c-1.42,1.23-2.35,1.38-3.6.57" transform="translate(-1452.34 -561.18)"/><path class="cls-1" d="M1584.7,570c1.46-1,3-.45,3.67,1.47.38,1,.61,2.21-.45,3a5.2,5.2,0,0,1-1.88.48" transform="translate(-1452.34 -561.18)"/><path class="cls-1" d="M1565.63,720.24c.45,1.67,1.93,2.89,2,4.71.08,1.57.15,3.14.22,4.71" transform="translate(-1452.34 -561.18)"/><path class="cls-1" d="M1477.48,623.35a7.6,7.6,0,0,1-1.33-.69,1.87,1.87,0,0,1-.77-2.1,2.59,2.59,0,0,1,2.22-1.55c.91-.15,1.92-.2,2.46.86" transform="translate(-1452.34 -561.18)"/><path class="cls-1" d="M1552.73,639.05c.44,1.62-.65,2.43-3,2.12-.37,1.58-1.58,1.83-3,1.81" transform="translate(-1452.34 -561.18)"/><path class="cls-1" d="M1573.88,745.25c-.18,2.17-.38,4.33-.55,6.5a3.29,3.29,0,0,0,.1.68" transform="translate(-1452.34 -561.18)"/><path class="cls-1" d="M1553.74,625a8.5,8.5,0,0,1,.3,2.46,3.12,3.12,0,0,1-4,2.48" transform="translate(-1452.34 -561.18)"/><path class="cls-1" d="M1485.78,741.08l7.18,2.13" transform="translate(-1452.34 -561.18)"/><path class="cls-1" d="M1614.86,642.19a3.24,3.24,0,0,1-1.14,3.12,3.17,3.17,0,0,1-3.23.35,4.62,4.62,0,0,1-.67-.33" transform="translate(-1452.34 -561.18)"/><path class="cls-1" d="M1520,739.06a29.25,29.25,0,0,1,2,5.17c.57,3.16,2.39,5.31,4.78,7.17" transform="translate(-1452.34 -561.18)"/><path class="cls-1" d="M1598.27,644.21c-.59,1.78-1.91,2.62-3.57,2a2,2,0,0,0-1.71.14,26.22,26.22,0,0,1-3.59.91c-1.1.2-2.24.24-3.36.35" transform="translate(-1452.34 -561.18)"/><path class="cls-1" d="M1516.06,604.51a5,5,0,0,0,2,4.77c.5.35,1.45.05,2.2.05" transform="translate(-1452.34 -561.18)"/><path class="cls-1" d="M1529.63,612.36c1.52-.32,1.87-1.62,2.36-2.8.27-.67.55-1.33.84-2,1.11.44.79,1.23.85,1.9s-.33,1.64.66,2.14,1.14.47,2.36-.79" transform="translate(-1452.34 -561.18)"/><path class="cls-1" d="M1627.2,664.17c.23,1.5-.12,2.06-1.78,2.86.07,1,.36,2-.34,3a1.66,1.66,0,0,1-2.25.44" transform="translate(-1452.34 -561.18)"/><path class="cls-1" d="M1593.44,647l-1.79.56c-1.31.41-2.61.85-3.93,1.22-.39.12-.88.6-1.23-.1" transform="translate(-1452.34 -561.18)"/><path class="cls-1" d="M1615.54,738.86a15.25,15.25,0,0,1,.74,2.92,34.06,34.06,0,0,1-.18,4" transform="translate(-1452.34 -561.18)"/><path class="cls-1" d="M1557.44,632.66a3.89,3.89,0,0,1,.12,4.71,1.61,1.61,0,0,1-1.79.87c-.73-.19-1.64-.31-1.58-1.43" transform="translate(-1452.34 -561.18)"/><path class="cls-1" d="M1616.55,709a30.64,30.64,0,0,0-1.87,3.82c-.63,1.86-1,3.8-1.49,5.71-.14.56-.23,1.12-.34,1.68" transform="translate(-1452.34 -561.18)"/><path class="cls-1" d="M1600.73,707.23c0,1.87-.07,3.74-.11,5.61,0,.45-.07.9-.11,1.35" transform="translate(-1452.34 -561.18)"/><path class="cls-1" d="M1585.48,698.37a25,25,0,0,1,.63,3.26c.05.58-.41,1.18-.5,1.79-.3,1.94-.54,3.89-.8,5.83" transform="translate(-1452.34 -561.18)"/><path class="cls-1" d="M1477.37,642.53a4.93,4.93,0,0,0-.08,1.78c.78,2.3,2.1,3.29,4.23,1.36" transform="translate(-1452.34 -561.18)"/><path class="cls-1" d="M1471.2,731.32c0,2,.09,4,.1,5.95a3.49,3.49,0,0,1-.27,1" transform="translate(-1452.34 -561.18)"/><path class="cls-1" d="M1530.52,765.34c.19,2.28.37,4.56.56,6.84" transform="translate(-1452.34 -561.18)"/><path class="cls-1" d="M1571.91,629.07c-.52,2-1,4-1.58,6a2.82,2.82,0,0,1-.44.68" transform="translate(-1452.34 -561.18)"/><path class="cls-1" d="M1603.2,704.09c0,2.21,0,4.42-.15,6.62a7.88,7.88,0,0,1-.76,2.35c-.28.7-.66,1.35-1,2" transform="translate(-1452.34 -561.18)"/><path class="cls-1" d="M1590.3,628.73c.26,1.64,1,3,2.7,3.33a11.12,11.12,0,0,0,2.83-.19c2.16,1.9,4.25,1.75,5.69-.67" transform="translate(-1452.34 -561.18)"/><path class="cls-1" d="M1564.29,607.87a10,10,0,0,0,.69,1.9,4.25,4.25,0,0,1,0,4.72c-.67,1.09-.17,2.33-.52,3.49a39.87,39.87,0,0,0-.82,4.25" transform="translate(-1452.34 -561.18)"/><path class="cls-1" d="M1627.87,722.26l-.33,6.73" transform="translate(-1452.34 -561.18)"/><path class="cls-1" d="M1503.5,717.33c.3,1.79.61,3.58.89,5.38.07.44.08.9.12,1.35" transform="translate(-1452.34 -561.18)"/><path class="cls-1" d="M1525.82,739.62c-.23,2.25-.48,4.49-.65,6.73a11.52,11.52,0,0,0,.2,2c.05.6.07,1.2.11,1.79" transform="translate(-1452.34 -561.18)"/><path class="cls-1" d="M1490.94,741c1.65.45,3.28.92,4.94,1.33,1,.24,1.94.39,2.91.57" transform="translate(-1452.34 -561.18)"/><path class="cls-1" d="M1598.71,730.78l5.28-1.23c.44-.1.89-.15,1.34-.22" transform="translate(-1452.34 -561.18)"/><path class="cls-1" d="M1527.49,766.57l1.35,6.62" transform="translate(-1452.34 -561.18)"/><path class="cls-1" d="M1619.91,718.22l-1.35,6.51" transform="translate(-1452.34 -561.18)"/><path class="cls-1" d="M1499,651.39c.86,2.32-.36,4-2.92,4-.49,0-1-.07-1.46-.11" transform="translate(-1452.34 -561.18)"/><path class="cls-1" d="M1532.22,691.61l2.43,6.44" transform="translate(-1452.34 -561.18)"/><path class="cls-1" d="M1592.88,721.59c-.67,1.9-1.34,3.81-2,5.71a3.29,3.29,0,0,1-.44.68" transform="translate(-1452.34 -561.18)"/><path class="cls-1" d="M1536.36,599.46a1.51,1.51,0,0,1-.55,2.15,3.5,3.5,0,0,1-4,.21" transform="translate(-1452.34 -561.18)"/><path class="cls-1" d="M1566.42,722.49c.11.89.21,1.79.33,2.69a4.76,4.76,0,0,1-.53,3.76c-1.11-1.28-.88-3.24-2.38-4.21" transform="translate(-1452.34 -561.18)"/><path class="cls-1" d="M1525.26,611.8c1.1.66,2,.31,2.93-.86.22.36.33.72.56.84.62.33,1.08.73.87,1.47a2.39,2.39,0,0,1-1.55,1.82,4.43,4.43,0,0,1-3.49-.47" transform="translate(-1452.34 -561.18)"/><path class="cls-1" d="M1633.93,626.49a3.31,3.31,0,0,1,2.38,2,2.55,2.55,0,0,1,3.45.62c1.23,1.31.78,2.76-1,3.25" transform="translate(-1452.34 -561.18)"/><path class="cls-1" d="M1511.13,715.76c-1,1.87-2,3.75-3,5.6a24.47,24.47,0,0,1-1.58,2.46c-.18.24-.58.31-.88.46" transform="translate(-1452.34 -561.18)"/><path class="cls-1" d="M1593.56,700.84c-.79,1.76-1.56,3.52-2.37,5.27a7.29,7.29,0,0,1-.66,1" transform="translate(-1452.34 -561.18)"/><path class="cls-1" d="M1598.15,609.67c.81,1,.89,2,.23,2.8a2.44,2.44,0,0,1-3.16.82c-.64-.27-.47-.76-.65-1.15" transform="translate(-1452.34 -561.18)"/><path class="cls-1" d="M1594,748.28a10.44,10.44,0,0,1,1.13,6.28" transform="translate(-1452.34 -561.18)"/><path class="cls-1" d="M1466.49,788.43c.53,1.72,1.07,3.44,1.56,5.16a4.19,4.19,0,0,1,0,1.12" transform="translate(-1452.34 -561.18)"/><path class="cls-1" d="M1482.64,782.38c0,1.72-.09,3.43-.1,5.15a6.41,6.41,0,0,0,.21,1.13" transform="translate(-1452.34 -561.18)"/><path class="cls-1" d="M1475.69,734.46a22.4,22.4,0,0,0,.22,5.84c0,.4.26.93.08,1.21a3.51,3.51,0,0,0-.19,2.6" transform="translate(-1452.34 -561.18)"/><path class="cls-1" d="M1599.28,707.23c-.38,2.1-.75,4.19-1.13,6.28" transform="translate(-1452.34 -561.18)"/><path class="cls-1" d="M1495.09,747.47l3,3.93c.52.67,1.08,1.32,1.55,2a2.83,2.83,0,0,1,.24,1" transform="translate(-1452.34 -561.18)"/><path class="cls-1" d="M1524,643a11.7,11.7,0,0,1-.37,2.67c-.61,1.62-1.81,2-3.55,1.25" transform="translate(-1452.34 -561.18)"/><path class="cls-1" d="M1486,643.09c.38,2.06-.87,3.54-2.92,3.33a3.3,3.3,0,0,1-1.44-.78c-.12-.09,0-.5,0-.76" transform="translate(-1452.34 -561.18)"/><path class="cls-1" d="M1495.32,687.71c.91,1.88,1.83,3.76,2.72,5.65.08.15,0,.37,0,.55" transform="translate(-1452.34 -561.18)"/><path class="cls-1" d="M1518.3,770.5a28.67,28.67,0,0,1,1,5.49,8.23,8.23,0,0,0,.77,3.59" transform="translate(-1452.34 -561.18)"/><path class="cls-1" d="M1607.35,740.43l1,6.28" transform="translate(-1452.34 -561.18)"/><path class="cls-1" d="M1521.32,770.05a4.33,4.33,0,0,1,.78.68,9.76,9.76,0,0,1,1.82,4.48,2.16,2.16,0,0,0,.32.67" transform="translate(-1452.34 -561.18)"/><path class="cls-1" d="M1468.29,739.4l2.58,6.28" transform="translate(-1452.34 -561.18)"/><path class="cls-1" d="M1553.74,620a8.73,8.73,0,0,1,0,2.23c-.49,1.81-2.06,2-3.67.57" transform="translate(-1452.34 -561.18)"/><path class="cls-1" d="M1576.29,594.64c.18.56.38,1.12.55,1.68a3.33,3.33,0,0,1-2.8,4.38" transform="translate(-1452.34 -561.18)"/><path class="cls-1" d="M1544.32,573.33c2.12-1.3,2.4-1.05,4.38.34l.5.38c2-1.33,3.15-1.16,4.71.69,1-1,2.16-1.49,3.54-.63a3,3,0,0,1,1.79,2.59" transform="translate(-1452.34 -561.18)"/><path class="cls-1" d="M1534.9,718.22a16.37,16.37,0,0,1,3.7,6.17" transform="translate(-1452.34 -561.18)"/><path class="cls-1" d="M1479.73,747.47c1.9.75,3.81,1.49,5.71,2.25a2.36,2.36,0,0,1,.45.33" transform="translate(-1452.34 -561.18)"/><path class="cls-1" d="M1605.89,601.37c.68.22,1.34.49,2,.67a3.89,3.89,0,0,1,2.83,2.35,2.2,2.2,0,0,1-.48,2.59c-.21.23-.44.45-.67.67" transform="translate(-1452.34 -561.18)"/><path class="cls-1" d="M1580.1,632.32c-.45,1.75-1.53,2.18-3.59,1.47a9.12,9.12,0,0,1-3-1.69,7.53,7.53,0,0,0-.9-.56" transform="translate(-1452.34 -561.18)"/><path class="cls-1" d="M1576,628.73c1.14,1.81,2.34,2.49,3.91,2a7.69,7.69,0,0,0,1.81-1.2" transform="translate(-1452.34 -561.18)"/><path class="cls-1" d="M1495.2,655.65a3.65,3.65,0,0,1-4,3.93,2.24,2.24,0,0,1-2.13-2.36" transform="translate(-1452.34 -561.18)"/><path class="cls-1" d="M1510.42,703.23c.33,1.57.64,3.15,1,4.71a7.65,7.65,0,0,0,.66,1.35" transform="translate(-1452.34 -561.18)"/><path class="cls-1" d="M1532.44,568.4c-.53-1.47-.19-2.3,1.35-3.13.54-.29,1.15-.47,1.84-.75a4.47,4.47,0,0,0,.27-.83,1.84,1.84,0,0,1,3.14-1.22,8.34,8.34,0,0,1,1,1.11" transform="translate(-1452.34 -561.18)"/><path class="cls-1" d="M1488.12,687.24a11.93,11.93,0,0,1,.14,1.34c0,2.09,0,4.19,0,6.28" transform="translate(-1452.34 -561.18)"/><path class="cls-1" d="M1509.89,718.45c-.44,1.34-.86,2.7-1.36,4a22.19,22.19,0,0,1-1,2" transform="translate(-1452.34 -561.18)"/><path class="cls-1" d="M1602.86,743.34c-.48,1.76-1,3.52-1.46,5.27a3.15,3.15,0,0,1-.44.68" transform="translate(-1452.34 -561.18)"/><path class="cls-1" d="M1591.87,587c1.85.17,2.44,1.14,1.69,2.8a3,3,0,0,1-3,1.91" transform="translate(-1452.34 -561.18)"/><path class="cls-1" d="M1600.85,744.69c-.08,2.17,0,4.35-.27,6.5a24.68,24.68,0,0,1-1,3.71,2.08,2.08,0,0,0,0,.56" transform="translate(-1452.34 -561.18)"/><path class="cls-1" d="M1597,632.88a10.12,10.12,0,0,1-.68,1.45c-.86,1.3-2.87,1.84-4.59,0" transform="translate(-1452.34 -561.18)"/><path class="cls-1" d="M1626.86,648c-.12,1.53-1.18,2.09-2.46,2.47a2.67,2.67,0,0,1-2.66-.83,3.25,3.25,0,0,1-5.42-1.41" transform="translate(-1452.34 -561.18)"/><path class="cls-1" d="M1495,588.36c-.86-1.43-.54-2.83.79-3.23a4.09,4.09,0,0,1,1.21,0c.29-2.15,1.38-2.75,3.49-2,.54.18,1,.44,1.57.66" transform="translate(-1452.34 -561.18)"/><path class="cls-1" d="M1501.26,718c.52,1.64,1,3.29,1.56,4.94a8.23,8.23,0,0,1,.23,1.12" transform="translate(-1452.34 -561.18)"/><path class="cls-1" d="M1603.31,595.76a4.6,4.6,0,0,1,2.88,3.6,4.45,4.45,0,0,1-.44,1.89c0,.1-.42.08-.64.12" transform="translate(-1452.34 -561.18)"/><path class="cls-1" d="M1602.08,655.09c-.16,2.59,1.07,3.12,2.92,3.19.73,1.57,1.26,2,2.24,1.85a2,2,0,0,0,1.57-1.9" transform="translate(-1452.34 -561.18)"/><path class="cls-1" d="M1525.36,768.48q.62,3,1.24,5.94" transform="translate(-1452.34 -561.18)"/><path class="cls-1" d="M1492.51,651.16c-.33,2.24-1.58,2.83-3.93,3.24a6.1,6.1,0,0,1-3.59-.63,2.26,2.26,0,0,1-1.45-1.93" transform="translate(-1452.34 -561.18)"/><path class="cls-1" d="M1597,722.93c-.71,1.5-1.49,3-2.11,4.5-.52,1.3-.84,2.68-1.25,4" transform="translate(-1452.34 -561.18)"/><path class="cls-1" d="M1521,691a13.33,13.33,0,0,1,2.71,5.09,1.8,1.8,0,0,1-.08.67" transform="translate(-1452.34 -561.18)"/><path class="cls-1" d="M1498.57,634.34a5.19,5.19,0,0,0,1.91,3c1,.88,1.72.88,2.91.12" transform="translate(-1452.34 -561.18)"/><path class="cls-1" d="M1557.73,749.29c.49.74,1,1.47,1.45,2.24.71,1.22,1.36,2.47,2,3.7" transform="translate(-1452.34 -561.18)"/><path class="cls-1" d="M1618,670.11c-1.19,1.64-.83,3.23.9,3.93a.92.92,0,0,0,.45.1,10.55,10.55,0,0,0,2.34-.58,2.06,2.06,0,0,0,1.14-2.21,1.48,1.48,0,0,1,.11-.45" transform="translate(-1452.34 -561.18)"/><path class="cls-1" d="M1611.16,605.18c1-.43,1.85-1.09,3-.79a2.33,2.33,0,0,1,1.91,2.7,3.38,3.38,0,0,0,0,.45" transform="translate(-1452.34 -561.18)"/><path class="cls-1" d="M1538.72,616.85c1.19,1.52,1.39,2.44.53,3.68a7.65,7.65,0,0,1-1.74,1.3c.16,1.73-1.57,2.81-3.62,2a3.61,3.61,0,0,1-2-2" transform="translate(-1452.34 -561.18)"/><path class="cls-1" d="M1526.82,690.86l.5,5.82" transform="translate(-1452.34 -561.18)"/><path class="cls-1" d="M1469.72,703.23a6.68,6.68,0,0,1,4.73,4.58" transform="translate(-1452.34 -561.18)"/><path class="cls-1" d="M1520.32,607.65a12.28,12.28,0,0,1,.11,1.35,3,3,0,0,0,1.8,2.79c1.12.47,2.23.66,3.14-.44" transform="translate(-1452.34 -561.18)"/><path class="cls-1" d="M1520.44,775.35a15.94,15.94,0,0,0-.22,1.69c-.06,1.38-.08,2.76-.12,4.14" transform="translate(-1452.34 -561.18)"/><path class="cls-1" d="M1594.79,613.37c-.51,1.43-1.78,1.61-4.15,1.11a11.18,11.18,0,0,1-1.35-.44" transform="translate(-1452.34 -561.18)"/><path class="cls-1" d="M1580,583c1.26.66,1.56,1.22,1.23,2.24a2.11,2.11,0,0,1-2.36,1.35,5.23,5.23,0,0,0-.56,0" transform="translate(-1452.34 -561.18)"/><path class="cls-1" d="M1594.68,621.56a4.43,4.43,0,0,1,.21,1,4.6,4.6,0,0,0,1.15,3,2,2,0,0,0,3.42-.34c.46-1.13,1-1.72,2.28-1.7.78,0,1.56-1.07,1.56-2,0-.75-.14-1.5-.21-2.25" transform="translate(-1452.34 -561.18)"/><path class="cls-1" d="M1542.3,618.19c.93,2,2.46,3.28,4.83,2.92,1-.16,1.44-1,1.79-1.8" transform="translate(-1452.34 -561.18)"/><path class="cls-1" d="M1547.46,719.79c.26,1.42.61,2.84.76,4.27s.1,2.69.14,4" transform="translate(-1452.34 -561.18)"/><path class="cls-1" d="M1556.1,619.54c.35,1.38.69,2.76-.1,4.11a4.73,4.73,0,0,1,2.69,3.4,1.9,1.9,0,0,1-.81,1.78,10.45,10.45,0,0,1-1.33.69,2.79,2.79,0,0,0-1.59,2.58c0,1-1,.92-1.67,1.12" transform="translate(-1452.34 -561.18)"/><path class="cls-1" d="M1563.39,638.38c.22,1.94.44,3.89.68,5.83a2.34,2.34,0,0,0,.33.62" transform="translate(-1452.34 -561.18)"/><path class="cls-1" d="M1494.53,719.12l2.69,5.61" transform="translate(-1452.34 -561.18)"/><path class="cls-1" d="M1600.4,719.57c-.6,1.57-1.22,3.13-1.78,4.72a3,3,0,0,0,0,1" transform="translate(-1452.34 -561.18)"/><path class="cls-1" d="M1618.56,659.57c-.32,1.64-1.07,2.11-2.51,1.56-1.6,1.09-1.66,2.81-1.73,4.5,0,.83.6,1.53,1.1,1.46a1.42,1.42,0,0,0,1.35-1.8" transform="translate(-1452.34 -561.18)"/><path class="cls-1" d="M1561.93,694.67c0,2,.21,4,.06,5.94a16,16,0,0,1-1.07,3.48" transform="translate(-1452.34 -561.18)"/><path class="cls-1" d="M1544.77,721.14c.3,1.57.61,3.14.89,4.71a5.4,5.4,0,0,1,0,.9" transform="translate(-1452.34 -561.18)"/><path class="cls-1" d="M1476.44,702.6c.52,1.48,1.06,3,1.57,4.44a8.29,8.29,0,0,1,.26,1.12" transform="translate(-1452.34 -561.18)"/><path class="cls-1" d="M1646.4,763c.79,1.6,1.5,3.26,2.39,4.8.43.74,1.46,1.06,1.65,2" transform="translate(-1452.34 -561.18)"/><path class="cls-1" d="M1611.61,657.89a9.76,9.76,0,0,1-.47,2.12,1.65,1.65,0,0,1-3.12-.1" transform="translate(-1452.34 -561.18)"/><path class="cls-1" d="M1582.23,605.63c-.4,1.92-1.78,3.19-4.82,3" transform="translate(-1452.34 -561.18)"/><path class="cls-1" d="M1610.83,615.16c.33.86.73,1.71,1,2.59a1.85,1.85,0,0,1-1.22,2.46" transform="translate(-1452.34 -561.18)"/><path class="cls-1" d="M1467.05,741.08l2.69,5.66" transform="translate(-1452.34 -561.18)"/><path class="cls-1" d="M1594,748.11c-1,0-.6,1-.72,1.42a35.44,35.44,0,0,0-.62,4.13" transform="translate(-1452.34 -561.18)"/><path class="cls-1" d="M1505.52,777.15c.64,1.46,1.28,2.91,1.9,4.37a10.15,10.15,0,0,1,.34,1.23" transform="translate(-1452.34 -561.18)"/><path class="cls-1" d="M1601.63,590.49c2.09,1.12,2.25,4.49,1.1,5.93a4.83,4.83,0,0,1-1.79,1.33,4.54,4.54,0,0,0-1.82,1c-.23.27-.93.12-1.41.15" transform="translate(-1452.34 -561.18)"/><path class="cls-1" d="M1588.4,599.24c.53,1.37-.65,2.5-2.36,2.23a16.61,16.61,0,0,1-1.68-.44" transform="translate(-1452.34 -561.18)"/><path class="cls-1" d="M1477.15,748.93c.67.15,1.34.31,2,.44.18,0,.4-.06.55,0,1.77.88,3.52,1.78,5.28,2.68" transform="translate(-1452.34 -561.18)"/><path class="cls-1" d="M1560,610.57c1.34,1.62.66,2.65-1.57,4a9.4,9.4,0,0,1-1.26.51l1.71,2.75" transform="translate(-1452.34 -561.18)"/><path class="cls-1" d="M1479.73,620.66a5.8,5.8,0,0,1,.56-.89c.48-.55,1-.81,1.68-.12a4.05,4.05,0,0,0,.33-.67c.18-.72.65-.87,1.23-.55a22.11,22.11,0,0,1,1.91,1.22c.58.4,1.13.69,1.82-.17-.63-.57-1.31-1.12-1.91-1.75a2.76,2.76,0,0,1-.35-1l.78-.11" transform="translate(-1452.34 -561.18)"/><path class="cls-1" d="M1550.83,631.65a2.09,2.09,0,0,1-.23,2.46,2,2,0,0,1-2.44.65c-1.08,1.49-1.52,1.63-3.39,1" transform="translate(-1452.34 -561.18)"/><path class="cls-1" d="M1608.58,632.66c-1,1.38-3.74,1.55-5.49.33" transform="translate(-1452.34 -561.18)"/><path class="cls-1" d="M1545.89,626.71a3.57,3.57,0,0,1-1,4.26c-.95.91-1.83.72-2.57-.45-.07-.52,1.11-.76.34-1.45" transform="translate(-1452.34 -561.18)"/><path class="cls-1" d="M1475.69,642a3.88,3.88,0,0,0,.44,5.39,5.74,5.74,0,0,1,.9,1.12,3.78,3.78,0,0,0,3.37,1.67" transform="translate(-1452.34 -561.18)"/><path class="cls-1" d="M1504.55,688.8c.52,1.29,1,2.6,1.58,3.87a9.65,9.65,0,0,0,1,1.45l.29-.1.29-1.5" transform="translate(-1452.34 -561.18)"/><path class="cls-1" d="M1505.86,660.81c-.17.94-.72,1.37-1.91,1.45a4.4,4.4,0,0,1-2.92-.78" transform="translate(-1452.34 -561.18)"/><path class="cls-1" d="M1597,647.8l-2.56-.14c-.38.82.48,1.59,2.73,2.16a12.16,12.16,0,0,1-.65,2.44,1.9,1.9,0,0,0,0,1.6c.41,1.48.9,1.76,2.37,1.22a3.11,3.11,0,0,0,.45-.22" transform="translate(-1452.34 -561.18)"/><path class="cls-1" d="M1631.24,622.45c1.46-.27,2.57.59,2.91,2.25.29,1.37-.54,2.5-2.13,2.91" transform="translate(-1452.34 -561.18)"/><path class="cls-1" d="M1472.55,736.93c.75,1.31,1.49,2.62,2.24,3.92.25.43.52.83.79,1.24" transform="translate(-1452.34 -561.18)"/><path class="cls-1" d="M1624.51,640.17c0,.6,0,1.2.12,1.8.29,2.26-1.43,3.77-3.82,2.91" transform="translate(-1452.34 -561.18)"/><path class="cls-1" d="M1556.55,607.31a2.74,2.74,0,0,1-3.25,3,6.06,6.06,0,0,1-3.37-.9" transform="translate(-1452.34 -561.18)"/><path class="cls-1" d="M1583.13,595.76c-.77,1-.56,2.08.56,3a1.81,1.81,0,0,0,2.57-.12c.1-.13.08-.36.12-.55" transform="translate(-1452.34 -561.18)"/><path class="cls-1" d="M1570.45,611.58c-.45,1.49-.89,3-1.34,4.48-.08.26-.15.52-.23.79" transform="translate(-1452.34 -561.18)"/><path class="cls-1" d="M1621.14,642.86c-.94,2-3,2.19-4.71.34" transform="translate(-1452.34 -561.18)"/><path class="cls-1" d="M1529,741.64c-.08,2.32-.17,4.64-.21,7a9.88,9.88,0,0,0,.26,1.69" transform="translate(-1452.34 -561.18)"/><path class="cls-1" d="M1475,753.3c.33,1.39.69,2.77,1,4.16a5.14,5.14,0,0,1,0,1.11" transform="translate(-1452.34 -561.18)"/><path class="cls-1" d="M1577.74,586.12a2.52,2.52,0,0,1,.12,2.35c-.77,1.13-1.88,1.38-3.48.79" transform="translate(-1452.34 -561.18)"/><path class="cls-1" d="M1515.16,721.36l-5.27,2.81" transform="translate(-1452.34 -561.18)"/><path class="cls-1" d="M1591.76,591.84a6.93,6.93,0,0,1,1.1,1.35,2.07,2.07,0,0,1-2.22,3.13" transform="translate(-1452.34 -561.18)"/><path class="cls-1" d="M1606.9,649.59a1.94,1.94,0,0,1-1.9,1.69c-1.53.1-1.83-.34-2.34-1.25-.09-.15,0-.44.09-.66" transform="translate(-1452.34 -561.18)"/><path class="cls-1" d="M1582.45,619.65l-3.81.79c-.49.1-1,.22-1.46.33" transform="translate(-1452.34 -561.18)"/><path class="cls-1" d="M1508.54,704.45a2.35,2.35,0,0,0,.47,2.15,10.53,10.53,0,0,1,2,4.74" transform="translate(-1452.34 -561.18)"/><path class="cls-1" d="M1481.22,689.23a13.36,13.36,0,0,0,.36,5.15,2.46,2.46,0,0,1,0,.67" transform="translate(-1452.34 -561.18)"/><path class="cls-1" d="M1490.49,610.34a1.68,1.68,0,0,1-.5-2.11,2,2,0,0,1,2.07-1.37c.26,0,.53,0,.79,0" transform="translate(-1452.34 -561.18)"/><path class="cls-1" d="M1504.62,738.73l5.16,2" transform="translate(-1452.34 -561.18)"/><path class="cls-1" d="M1501.64,689.33c.24,1.71.47,3.42.71,5.14" transform="translate(-1452.34 -561.18)"/><path class="cls-1" d="M1492.29,598.23a10.68,10.68,0,0,0-1.13-.55c-.52-.18-1.11-.37-1.55.11a1.67,1.67,0,0,0-.49,1.68,4,4,0,0,0,2.05,2.68c-.94,1.7-.73,2.52.78,2.91a3,3,0,0,0,.67,0l.9.11" transform="translate(-1452.34 -561.18)"/><path class="cls-1" d="M1513.48,653.52c.44.8.73,1.58-.1,2.36s-1.54,1.37-2.7.89" transform="translate(-1452.34 -561.18)"/><path class="cls-1" d="M1477.26,635.46a2.06,2.06,0,0,1,.12-2.57,2,2,0,0,1,2.35-1" transform="translate(-1452.34 -561.18)"/><path class="cls-1" d="M1589,612.36c.07.56.4,1.44.17,1.62a5.14,5.14,0,0,1-2.2.92c-.44.08-1-.27-1.61-.48a3.6,3.6,0,0,1-3.09,1.35,1.77,1.77,0,0,0-1.29,1c-.21.73-.34,1.55-1.08,1.72a4.78,4.78,0,0,1-1.89-.39" transform="translate(-1452.34 -561.18)"/><path class="cls-1" d="M1520.88,643.2a1.46,1.46,0,0,1-1,1.66c-1,.36-2.09.73-3.14,0" transform="translate(-1452.34 -561.18)"/><path class="cls-1" d="M1519.18,690.63c.82,1.66,2,3.16,2.16,5.1" transform="translate(-1452.34 -561.18)"/><path class="cls-1" d="M1484.36,689.14c.82,1.28,1.67,2.55,2.45,3.87a3.89,3.89,0,0,1,.27,1.21" transform="translate(-1452.34 -561.18)"/><path class="cls-1" d="M1513.93,719.68l-5.16,4.26" transform="translate(-1452.34 -561.18)"/><path class="cls-1" d="M1606.45,710.82l.12,5.16" transform="translate(-1452.34 -561.18)"/><path class="cls-1" d="M1649.32,762.84c.67,1.8,1.43,3.57,2,5.4a5.59,5.59,0,0,1-.29,2.12" transform="translate(-1452.34 -561.18)"/><path class="cls-1" d="M1626.86,620.55h2.25c1.63,0,2.34,1,1.79,2.58" transform="translate(-1452.34 -561.18)"/><path class="cls-1" d="M1572.92,571.43c1.26-1.06,2.07-.94,3.59.56a3.59,3.59,0,0,1,.28.37c.62-.43,1.21-.89,1.86-1.26,1.41-.79,2.21-.32,2.35,1.34" transform="translate(-1452.34 -561.18)"/><path class="cls-1" d="M1509.78,773.11c.23,1.38.47,2.76.66,4.15a3.89,3.89,0,0,1-.1,1" transform="translate(-1452.34 -561.18)"/><path class="cls-1" d="M1592.43,632.77a4.33,4.33,0,0,1-4.59,2.69" transform="translate(-1452.34 -561.18)"/><path class="cls-1" d="M1610.27,649.37a27.47,27.47,0,0,0,2.81,1.43c1.12.43,1.44.2,1.9-1" transform="translate(-1452.34 -561.18)"/><path class="cls-1" d="M1594.23,640c-.37.37-.73.76-1.13,1.12-1.23,1.09-1.57,2.6-.22,4.37l.45.56" transform="translate(-1452.34 -561.18)"/><path class="cls-1" d="M1478.94,734.13c-.52,1.57-1,3.14-1.56,4.71,0,.08.14.22.21.33" transform="translate(-1452.34 -561.18)"/><path class="cls-1" d="M1582.23,724.06l1.68,5" transform="translate(-1452.34 -561.18)"/><path class="cls-1" d="M1599.5,726.3l-3.14,5.38" transform="translate(-1452.34 -561.18)"/><path class="cls-1" d="M1507,717.33q-.57,2.52-1.12,5" transform="translate(-1452.34 -561.18)"/><path class="cls-1" d="M1622.94,667a2,2,0,0,1-1.91,1.58,2.32,2.32,0,0,1-2.35-1.58" transform="translate(-1452.34 -561.18)"/><path class="cls-1" d="M1600.85,623.8a2.56,2.56,0,0,0,1.59,2.2,2,2,0,0,0,1.63,0c.59-.32,1.24-.85.93-1.75" transform="translate(-1452.34 -561.18)"/><path class="cls-1" d="M1579.2,593.52a8.75,8.75,0,0,0,.24,1.56c.51,1.46,1.41,1.85,3.13,1.47" transform="translate(-1452.34 -561.18)"/><path class="cls-1" d="M1541.52,601.26a2.28,2.28,0,0,1-2.8.88,17.14,17.14,0,0,1-2-.88" transform="translate(-1452.34 -561.18)"/><path class="cls-1" d="M1525.93,635.46a3.65,3.65,0,0,1-.23,3.25c-.83,1.24-2,1.37-3.41.45" transform="translate(-1452.34 -561.18)"/><path class="cls-1" d="M1476,622.9a5.31,5.31,0,0,0-.89.24,1.1,1.1,0,0,0-.33,1.77,6.83,6.83,0,0,0,.86.64l-1.25,1.19a3.16,3.16,0,0,0,4.08,1.65,3.51,3.51,0,0,1,3,.34" transform="translate(-1452.34 -561.18)"/><path class="cls-1" d="M1596.14,653.18a1.84,1.84,0,0,0-.39,2.54,10.23,10.23,0,0,0,2.89,2.9c1.09.72,2.38.81,3.89-1" transform="translate(-1452.34 -561.18)"/><path class="cls-1" d="M1507.54,589.93a2.07,2.07,0,0,1-.56-2.8c.7-1.63,1.31-1.75,2.58-.56" transform="translate(-1452.34 -561.18)"/><path class="cls-1" d="M1591.31,619.31a2.6,2.6,0,0,1-1.34,3.15,3.47,3.47,0,0,1-3.93-.34" transform="translate(-1452.34 -561.18)"/><path class="cls-1" d="M1507.23,688.5c1.6,1.68,3.4,3.21,4.41,5.37a7.08,7.08,0,0,1,.25.78" transform="translate(-1452.34 -561.18)"/><path class="cls-1" d="M1499.63,689.61c.53,1.63,1.07,3.26,1.6,4.89" transform="translate(-1452.34 -561.18)"/><path class="cls-1" d="M1542.64,631.42c-.46,2.19-2.17,2.76-4,3.14" transform="translate(-1452.34 -561.18)"/><path class="cls-1" d="M1587.61,635.69c-.22,1.23-.46,2.46-.66,3.7a8.41,8.41,0,0,0,0,1.23" transform="translate(-1452.34 -561.18)"/><path class="cls-1" d="M1503.16,593.41a1.57,1.57,0,0,1-.44-2.24c1.14-2.25,2.2-2.49,3.92-2.14" transform="translate(-1452.34 -561.18)"/><path class="cls-1" d="M1467.05,733.45c1.35,1.61,2.8,3.14,4,4.85.91,1.29.45,2.88.38,4.35" transform="translate(-1452.34 -561.18)"/><path class="cls-1" d="M1572.36,720.92c-.19,1.64-.37,3.29-.56,4.93" transform="translate(-1452.34 -561.18)"/><path class="cls-1" d="M1531.09,646.05c-.2,2.09-.87,3.93-2.81,5a1.43,1.43,0,0,1-1.9-.22" transform="translate(-1452.34 -561.18)"/><path class="cls-1" d="M1514.23,704.8c.26,1.35.54,2.69.77,4a3.11,3.11,0,0,1-.1.9" transform="translate(-1452.34 -561.18)"/><path class="cls-1" d="M1569.22,617.52a10.11,10.11,0,0,0,2.37,1.4,1.77,1.77,0,0,0,2.23-.95" transform="translate(-1452.34 -561.18)"/><path class="cls-1" d="M1480.62,755.88c.08,1.61.15,3.22.23,4.83" transform="translate(-1452.34 -561.18)"/><path class="cls-1" d="M1558.79,703.2c-.64,2.2-1.17,4.45-1.94,6.6s-1.85,4.42-2.77,6.63a41.31,41.31,0,0,1-1.72,4.24" transform="translate(-1452.34 -561.18)"/><path class="cls-1" d="M1522.57,623.13a2.37,2.37,0,0,0,.33.22c.77.31,1.39.78,1.33,1.68a3,3,0,0,1-2.11,2,1.26,1.26,0,0,1-.45-.1" transform="translate(-1452.34 -561.18)"/><path class="cls-1" d="M1637.52,643.42a3.93,3.93,0,0,1-.24,4.7,1.3,1.3,0,0,1-1.56.35" transform="translate(-1452.34 -561.18)"/><path class="cls-1" d="M1531.87,745.57a19.88,19.88,0,0,0-3.47,7.29" transform="translate(-1452.34 -561.18)"/><path class="cls-1" d="M1494.08,646.34a2.3,2.3,0,0,1-2.91,1.79c-.38-.08-.75-.22-1.13-.33" transform="translate(-1452.34 -561.18)"/><path class="cls-1" d="M1502.32,689.53a14.33,14.33,0,0,1,2.72,4.75" transform="translate(-1452.34 -561.18)"/><path class="cls-1" d="M1631.46,652.06l-1.5,2a5.92,5.92,0,0,1,1,1.42,4.5,4.5,0,0,1,.33,2.22c-.2,1.08-.93,1.21-2.2.57" transform="translate(-1452.34 -561.18)"/><path class="cls-1" d="M1475.5,689.27a29.14,29.14,0,0,1,2.29,2.43A15.23,15.23,0,0,1,1479,694" transform="translate(-1452.34 -561.18)"/><path class="cls-1" d="M1454,754.76c.49,1.16,1,2.32,1.46,3.48.17.44.3.9.45,1.34" transform="translate(-1452.34 -561.18)"/><path class="cls-1" d="M1576.06,720.47c-1.13.61-1.42,1.87-2.09,2.83a12.1,12.1,0,0,0-1.39,4.12" transform="translate(-1452.34 -561.18)"/><path class="cls-1" d="M1471.76,739.73c.71,1.09,1.44,2.16,2.12,3.26a14.82,14.82,0,0,1,.69,1.45" transform="translate(-1452.34 -561.18)"/><path class="cls-1" d="M1567.43,588.81a11.78,11.78,0,0,0,1,1.89c.76,1,1.4.93,2.23,0,.16-.18.3-.37.45-.56,1.37,1,2.53.7,3.13-.79a6.59,6.59,0,0,0,.23-.9" transform="translate(-1452.34 -561.18)"/><path class="cls-1" d="M1491.39,614.83a4.28,4.28,0,0,0-1.55.25c-1.21.71-1.23,2-.13,3.22a8.81,8.81,0,0,0,1,.79" transform="translate(-1452.34 -561.18)"/><path class="cls-1" d="M1629.33,662.26a17,17,0,0,1,0,2c-.16,1.33-.75,1.71-2.12,1.46" transform="translate(-1452.34 -561.18)"/><path class="cls-1" d="M1536.7,748.37c-.49,1.23-1,2.46-1.45,3.7a8.26,8.26,0,0,0-.24,1" transform="translate(-1452.34 -561.18)"/><path class="cls-1" d="M1510.68,770.42l2.8,4.48c0,.05.09.07.11.12l2.58,6.39" transform="translate(-1452.34 -561.18)"/><path class="cls-1" d="M1501,644c-.51,2-2,2.46-4,1.35-2.07,1.62-4.1,1-4.71-1.35" transform="translate(-1452.34 -561.18)"/><path class="cls-1" d="M1536.14,638.83c1.4,1.94,1,3.93,0,5.81s-2.38,3.26-4.8,2.71" transform="translate(-1452.34 -561.18)"/><path class="cls-1" d="M1478.75,689.07a9.84,9.84,0,0,0,1.31,4.6l.7-.95" transform="translate(-1452.34 -561.18)"/><path class="cls-1" d="M1581.56,601.82a3.12,3.12,0,0,1-3.48,3.27,10,10,0,0,0-2,.21" transform="translate(-1452.34 -561.18)"/><path class="cls-1" d="M1557.22,627.61c.26.67.57,1.33.77,2a18.16,18.16,0,0,1,.65,2.81c0,.34-.34.74-.52,1.12" transform="translate(-1452.34 -561.18)"/><path class="cls-1" d="M1663.22,762.4a33.74,33.74,0,0,0-1.52,3.82,10.86,10.86,0,0,0,0,2.68,5.23,5.23,0,0,1-.11.78" transform="translate(-1452.34 -561.18)"/><path class="cls-1" d="M1482.81,689.85a4.82,4.82,0,0,1-1,4.52" transform="translate(-1452.34 -561.18)"/><path class="cls-1" d="M1504.85,649.37a2.94,2.94,0,0,1-3,1.67,6.67,6.67,0,0,1-1.12-.44" transform="translate(-1452.34 -561.18)"/><path class="cls-1" d="M1598.71,639.39c-1,1.79-2.3,2.07-4.14.89" transform="translate(-1452.34 -561.18)"/><path class="cls-1" d="M1576,748.05c-.41.86-.85,1.71-1.22,2.59a3.39,3.39,0,0,1-1.33,2c-.32.18-.32.92-.47,1.41" transform="translate(-1452.34 -561.18)"/><path class="cls-1" d="M1472.88,751c1.24.86,2.45,1.76,3.72,2.56a1.43,1.43,0,0,1,.68,1.36c0,1.28.2,2.55.31,3.82" transform="translate(-1452.34 -561.18)"/><path class="cls-1" d="M1621.71,635.69c.94,1.58-.11,2.45-1.35,2.55a4.36,4.36,0,0,0-2,.55c-.91.53-1.71,0-2.33-.75" transform="translate(-1452.34 -561.18)"/><path class="cls-1" d="M1502.27,591.61a3.88,3.88,0,0,0-3.82,3" transform="translate(-1452.34 -561.18)"/><path class="cls-1" d="M1550.6,566.72a4.44,4.44,0,0,0,.33-.9c.1-.68.47-1.19,1.13-1.08s1.52.19,1.57,1.19" transform="translate(-1452.34 -561.18)"/><path class="cls-1" d="M1483.31,613.93c-.33.37-.86.71-.94,1.13a1.51,1.51,0,0,0,.63,1.19,9.31,9.31,0,0,0,1.88.82" transform="translate(-1452.34 -561.18)"/><path class="cls-1" d="M1547.13,647.69l3.36,6.28" transform="translate(-1452.34 -561.18)"/><path class="cls-1" d="M1507.43,661.7c0,.67.27,1.53-.47,1.87a8.74,8.74,0,0,1-2.68.68c-.42,0-.89-.27-1.34-.42" transform="translate(-1452.34 -561.18)"/><path class="cls-1" d="M1604,655c.35,1.07,1.4,1.33,2.26,1.63a1.65,1.65,0,0,0,1.89-1" transform="translate(-1452.34 -561.18)"/><path class="cls-1" d="M1473.11,753.3c.41,1.2.84,2.39,1.22,3.6a2.94,2.94,0,0,1,0,.89" transform="translate(-1452.34 -561.18)"/><path class="cls-1" d="M1517.52,777.37a7,7,0,0,1,.66,1.24c.27,1,.46,2,.69,3" transform="translate(-1452.34 -561.18)"/><path class="cls-1" d="M1592.1,743.57c.79,1.37,1.68,2.7,1.68,4.37" transform="translate(-1452.34 -561.18)"/><path class="cls-1" d="M1529.07,581.86c0-.3.09-.6.11-.9.11-1.8,1.08-2.31,2.58-1.35" transform="translate(-1452.34 -561.18)"/><path class="cls-1" d="M1600.06,598.34a14,14,0,0,1,1.11,1.69c.62,1.39.22,2.6-1.56,3a5.2,5.2,0,0,1-1.46-.09" transform="translate(-1452.34 -561.18)"/><path class="cls-1" d="M1606.45,755.23c1.27-.75,2.54-1.5,3.82-2.23a1.81,1.81,0,0,1,.67-.12" transform="translate(-1452.34 -561.18)"/><path class="cls-1" d="M1565.74,591.17a3.08,3.08,0,0,1-2.13,2.8c-.42.14-.84.31-1.12-.23" transform="translate(-1452.34 -561.18)"/><path class="cls-1" d="M1509.22,657.44a1.93,1.93,0,0,1-.56,2.47c-.57.57-1.14,1.13-2,.56" transform="translate(-1452.34 -561.18)"/><path class="cls-1" d="M1510.23,648.36c.11.33.23.67.34,1a2.55,2.55,0,0,1-1.92,3.33,1.17,1.17,0,0,0-1.15.92,5.7,5.7,0,0,1-2.2,2.93,3.06,3.06,0,0,1-3.37,0" transform="translate(-1452.34 -561.18)"/><path class="cls-1" d="M1585.26,727.08a7.39,7.39,0,0,1,.45,4.38" transform="translate(-1452.34 -561.18)"/><path class="cls-1" d="M1552.73,610.45a5.85,5.85,0,0,1-.46,1.12c-.78,1.18-1.7,1.2-3.24.12" transform="translate(-1452.34 -561.18)"/><path class="cls-1" d="M1604.15,710.49c-.05.82-.08,1.64-.17,2.46-.07.64-.22,1.27-.33,1.91" transform="translate(-1452.34 -561.18)"/><path class="cls-1" d="M1523.24,741.64c.49,1.46,1,2.92,1.46,4.37" transform="translate(-1452.34 -561.18)"/><path class="cls-1" d="M1606,747.83l-.22,4.37" transform="translate(-1452.34 -561.18)"/><path class="cls-1" d="M1519.2,583.88a3.25,3.25,0,0,1,4.26-.79" transform="translate(-1452.34 -561.18)"/><path class="cls-1" d="M1479.39,639.5a2.66,2.66,0,0,0,3.7,2" transform="translate(-1452.34 -561.18)"/><path class="cls-1" d="M1496.32,719.57c.56,1.12,1.11,2.25,1.69,3.36a7.24,7.24,0,0,0,.67.9" transform="translate(-1452.34 -561.18)"/><path class="cls-1" d="M1560.7,725.63c.63,1.45,1.27,2.91,1.9,4.37" transform="translate(-1452.34 -561.18)"/><path class="cls-1" d="M1614.75,734.37l.67,4.26" transform="translate(-1452.34 -561.18)"/><path class="cls-1" d="M1499.35,749.94c1,1.12,2,2.24,2.91,3.37a7.48,7.48,0,0,1,.57.89" transform="translate(-1452.34 -561.18)"/><path class="cls-1" d="M1485.45,607.43a5.4,5.4,0,0,0-.9.23c-1,.42-1.12.91-.43,2.13a1.63,1.63,0,0,0-.57.34c-.62.78-.49,1.29.44,1.66a15.14,15.14,0,0,0,1.79.46" transform="translate(-1452.34 -561.18)"/><path class="cls-1" d="M1504.36,704.58l2,4.26" transform="translate(-1452.34 -561.18)"/><path class="cls-1" d="M1611.39,642.3a14.17,14.17,0,0,1-1.25,1.78,1.63,1.63,0,0,1-2.34.24" transform="translate(-1452.34 -561.18)"/><path class="cls-1" d="M1577.41,623.91a6.06,6.06,0,0,0,2.47,2.8c1.32.78,2.36.24,2.69-1.34" transform="translate(-1452.34 -561.18)"/><path class="cls-1" d="M1531.2,643.65c0,1.43-.49,1.92-2,2-.37,0-.74.07-1.12.11" transform="translate(-1452.34 -561.18)"/><path class="cls-1" d="M1640,642.08c1,1.3.91,2.24-.24,2.66a4.38,4.38,0,0,1-1.45,0" transform="translate(-1452.34 -561.18)"/><path class="cls-1" d="M1617.33,719.57l.67,4.26" transform="translate(-1452.34 -561.18)"/><path class="cls-1" d="M1595.24,706.45c.79.73.68,1.79,1,2.69l.45,1.23" transform="translate(-1452.34 -561.18)"/><path class="cls-1" d="M1586.71,611.24a2.14,2.14,0,0,1-1.68,1.89,2.62,2.62,0,0,1-2.68-1.45,10.54,10.54,0,0,1-.57-1.11" transform="translate(-1452.34 -561.18)"/><path class="cls-1" d="M1513.37,644.43a2.81,2.81,0,0,1-2.46,3.61,6.34,6.34,0,0,1-3.71-.13" transform="translate(-1452.34 -561.18)"/><path class="cls-1" d="M1583.8,627.39a23.21,23.21,0,0,0,.25,3.24,1.9,1.9,0,0,0,2.36,1.59l1.2,2.23" transform="translate(-1452.34 -561.18)"/><path class="cls-1" d="M1576,658.15c-.33.89-.65,1.8-1,2.69-.19.46-.44.9-.67,1.34" transform="translate(-1452.34 -561.18)"/><path class="cls-1" d="M1503.73,778.49l2.91,4" transform="translate(-1452.34 -561.18)"/><path class="cls-1" d="M1512.33,703.67a14.33,14.33,0,0,1,.49,1.9,13.85,13.85,0,0,1-.27,5.51,4.15,4.15,0,0,0,0,1.11" transform="translate(-1452.34 -561.18)"/><path class="cls-1" d="M1501.82,750.05l3.48,4.15" transform="translate(-1452.34 -561.18)"/><path class="cls-1" d="M1547.91,635.35c.45.45.82,1.06,1.36,1.31a1.92,1.92,0,0,0,2.45-.75" transform="translate(-1452.34 -561.18)"/><path class="cls-1" d="M1528.4,635c.41.53.83,1,1.23,1.58a1.84,1.84,0,0,0,2.47.67" transform="translate(-1452.34 -561.18)"/><path class="cls-1" d="M1618.45,640a2.3,2.3,0,0,1-3.14,1.12c-.25-.09-.52-.15-.78-.23" transform="translate(-1452.34 -561.18)"/><path class="cls-1" d="M1500.36,660.69c-1.41,1.61-2.32,1.84-4,1" transform="translate(-1452.34 -561.18)"/><path class="cls-1" d="M1543.76,636.36c.71,1.35,1.47,2.33,3.37,1.91,1.21,1.6,2.35,2.1,4.27.09.77.87,1.62.39,2.46.13" transform="translate(-1452.34 -561.18)"/><path class="cls-1" d="M1589.74,576.14a9.3,9.3,0,0,1,1.13-.88,10.69,10.69,0,0,1,1.45-.58l.56,1.57" transform="translate(-1452.34 -561.18)"/><path class="cls-1" d="M1608.25,610.34c.22,0,.53-.09.66,0a35.22,35.22,0,0,1,2.89,2.7,1.48,1.48,0,0,1,.1,1.4,1.18,1.18,0,0,1-1.53.37,6.41,6.41,0,0,0-.78-.23" transform="translate(-1452.34 -561.18)"/><path class="cls-1" d="M1460.77,791l4.15,3.25" transform="translate(-1452.34 -561.18)"/><path class="cls-1" d="M1611.84,710.82c0,.94.05,1.87.12,2.81,0,.47.14.93.21,1.4" transform="translate(-1452.34 -561.18)"/><path class="cls-1" d="M1491.05,659.8a2.54,2.54,0,0,0,2,1.67c.56,0,1.12,0,1.76,0,1.42,2.18,4.18,2.86,5.53.9" transform="translate(-1452.34 -561.18)"/><path class="cls-1" d="M1473,703.7c.58.85,1.2,1.67,1.74,2.54a13.73,13.73,0,0,1,.73,1.55" transform="translate(-1452.34 -561.18)"/><path class="cls-1" d="M1664.91,765.42l-2.36,4.15" transform="translate(-1452.34 -561.18)"/><path class="cls-1" d="M1602.53,722.15c-1.53,1.31-3.08,2.61-4.59,3.93a2.72,2.72,0,0,0-.76,1.54,19.21,19.21,0,0,1-1.72,3.61" transform="translate(-1452.34 -561.18)"/><path class="cls-1" d="M1528,608.1c0,1.41-.83,2.22-2.13,1.89a4.39,4.39,0,0,1-3.14-2" transform="translate(-1452.34 -561.18)"/><path class="cls-1" d="M1583.91,700.51c-.34,1-.65,2-1,2.91a7,7,0,0,1-.66,1" transform="translate(-1452.34 -561.18)"/><path class="cls-1" d="M1604,642.19a18,18,0,0,0,1.46,1.56c1.23,1,2.57.59,3.13-1" transform="translate(-1452.34 -561.18)"/><path class="cls-1" d="M1525.93,642.41c1.29,1.58,2.3,1.7,3.57.32.31-.34.32-1,.47-1.44" transform="translate(-1452.34 -561.18)"/><path class="cls-1" d="M1513.22,705.48a7.73,7.73,0,0,1,.56,4" transform="translate(-1452.34 -561.18)"/><path class="cls-1" d="M1560.09,750.52l2.13,4" transform="translate(-1452.34 -561.18)"/><path class="cls-1" d="M1630.45,658.79c.11.41.2.83.35,1.23a1.46,1.46,0,0,1-.48,1.77,1.31,1.31,0,0,1-1.66,0" transform="translate(-1452.34 -561.18)"/><path class="cls-1" d="M1486.9,788.88l-2,4" transform="translate(-1452.34 -561.18)"/><path class="cls-1" d="M1612.06,636.13c0,1-.66,1.77-1.56,1.63a4.56,4.56,0,0,0-3.83,1.46c-1.27,1.17-2.4.91-3.69.39l-.34-.11" transform="translate(-1452.34 -561.18)"/><path class="cls-1" d="M1543.2,644a2.68,2.68,0,0,1,.78-.09,1,1,0,0,1,.65.44,1,1,0,0,1,0,.87,2.69,2.69,0,0,1-2.78,1" transform="translate(-1452.34 -561.18)"/><path class="cls-1" d="M1627.42,632.21a2.29,2.29,0,0,1-1.12,3.59" transform="translate(-1452.34 -561.18)"/><path class="cls-1" d="M1500.59,720.24l1.57,3.82" transform="translate(-1452.34 -561.18)"/><path class="cls-1" d="M1494.08,739.62c.67.49,1.36,1,2,1.47s1.05.89,1.57,1.34" transform="translate(-1452.34 -561.18)"/><path class="cls-1" d="M1577.74,617.63l-1.43-.16c-1.11,2-2.18,3.94-3.28,5.88a1.55,1.55,0,0,1-2.45.21,12.29,12.29,0,0,1-1.25-1.44" transform="translate(-1452.34 -561.18)"/><path class="cls-1" d="M1486.16,689.31c.44,1.15.84,2.32,1.36,3.43.16.35.66.54,1.13.9l1.8-3.55" transform="translate(-1452.34 -561.18)"/><path class="cls-1" d="M1582.57,616c0,1.12.1,2.24.1,3.36a2.55,2.55,0,0,0,3,2.67,1.84,1.84,0,0,0,1.34-1.66,6.8,6.8,0,0,0,0-1" transform="translate(-1452.34 -561.18)"/><path class="cls-1" d="M1590.53,637.82c-.71.74-1.41,1.5-2.14,2.23a1.7,1.7,0,0,1-.67.34c-.74.28-1.34.52-1.06,1.59.13.48-.31,1.11-.51,1.67-.29.82-.59,1.64-.89,2.47" transform="translate(-1452.34 -561.18)"/><path class="cls-1" d="M1481,702.24c-.1.57-.2,1.13-.29,1.7-.2,1.16-.39,2.32-.58,3.49" transform="translate(-1452.34 -561.18)"/><path class="cls-1" d="M1549.37,720.92l-.84.54c2.2,1.88,1.57,4.06,1.29,6.18" transform="translate(-1452.34 -561.18)"/><path class="cls-1" d="M1471.09,753.3c.22.83.43,1.65.68,2.47.14.48.3.93-.12,1.35" transform="translate(-1452.34 -561.18)"/><path class="cls-1" d="M1508.51,690.14c.21.86.46,1.7.62,2.57a6.26,6.26,0,0,1-.06,1.29" transform="translate(-1452.34 -561.18)"/><path class="cls-1" d="M1597.82,604.51c0,.57.12,1.14-.55,1.6-.93.63-1.46.12-2-.48" transform="translate(-1452.34 -561.18)"/><path class="cls-1" d="M1600.51,602.83a1.24,1.24,0,0,1,.62,1.76,4.62,4.62,0,0,1-1.77,1.56c-.34.18-.94-.11-1.43-.18" transform="translate(-1452.34 -561.18)"/><path class="cls-1" d="M1536.14,648.47a3.93,3.93,0,0,0,3.7,1.68" transform="translate(-1452.34 -561.18)"/><path class="cls-1" d="M1580.77,570.87a11.36,11.36,0,0,1,1.58-1c1.71-.75,2.55-.18,2.57,1.67" transform="translate(-1452.34 -561.18)"/><path class="cls-1" d="M1615.31,738.86c-.22.71-.46,1.42-.67,2.13-.16.56-.3,1.12-.45,1.68" transform="translate(-1452.34 -561.18)"/><path class="cls-1" d="M1588.4,701.63c-.38,1.64-.7,3.3-1.15,4.93-.26.94.31,1.65.48,2.47.06.3.14.6.22.9" transform="translate(-1452.34 -561.18)"/><path class="cls-1" d="M1578.64,601.15c.83,1.5.06,2.62-.9,3.7" transform="translate(-1452.34 -561.18)"/><path class="cls-1" d="M1609.37,735.72l1.46,3.59" transform="translate(-1452.34 -561.18)"/><path class="cls-1" d="M1575.05,600.7c1.23,1.85,1.11,2.19.23,3.47" transform="translate(-1452.34 -561.18)"/><path class="cls-1" d="M1611.05,660.69a3.37,3.37,0,0,0,3.59,1.69" transform="translate(-1452.34 -561.18)"/><path class="cls-1" d="M1616.55,732.58l-1,3.7" transform="translate(-1452.34 -561.18)"/><path class="cls-1" d="M1504.51,665.07c-1,2.25-2.1,3-3.92,2.91a1.94,1.94,0,0,1-1.91-1.68" transform="translate(-1452.34 -561.18)"/><path class="cls-1" d="M1562.15,616.73a10.79,10.79,0,0,1-.9,3.81,8.46,8.46,0,0,1-2.91,4.6" transform="translate(-1452.34 -561.18)"/><path class="cls-1" d="M1502.6,656.88c-1.24,1.4-2.23,1.68-3.58,1" transform="translate(-1452.34 -561.18)"/><path class="cls-1" d="M1593.56,606a6.62,6.62,0,0,1-.71,1.77,1.21,1.21,0,0,1-1.87.13" transform="translate(-1452.34 -561.18)"/><path class="cls-1" d="M1572.47,607.65a3,3,0,0,1-1.33,2.6c-.3.19-.46.58-.69.88" transform="translate(-1452.34 -561.18)"/><path class="cls-1" d="M1562.27,589.26a5.16,5.16,0,0,0,2.58,1.57,2.68,2.68,0,0,0,2.91-.67" transform="translate(-1452.34 -561.18)"/><path class="cls-1" d="M1515.61,630.3c.1.53.71,1,0,1.58a2.59,2.59,0,0,1-2.7.44" transform="translate(-1452.34 -561.18)"/><path class="cls-1" d="M1501.15,648.25a2.82,2.82,0,0,1-3.93,2.8c-.15,0-.3-.07-.45-.11" transform="translate(-1452.34 -561.18)"/><path class="cls-1" d="M1601.85,727.08c-1.12,1.26-2.19,2.56-3.39,3.73-.38.38-1.09.44-1.65.65" transform="translate(-1452.34 -561.18)"/><path class="cls-1" d="M1543,717.55a28.16,28.16,0,0,1,.64,3.37c.11,1.48,0,3,0,4.48" transform="translate(-1452.34 -561.18)"/><path class="cls-1" d="M1611.28,737.06a17.29,17.29,0,0,0-.33,2.14,10.37,10.37,0,0,0,.49,3.72,12.65,12.65,0,0,1,.28,3.34" transform="translate(-1452.34 -561.18)"/><path class="cls-1" d="M1484.17,690.26l1.78,3.54" transform="translate(-1452.34 -561.18)"/><path class="cls-1" d="M1536.78,694c-.25,1.58-.76,3.16.13,4.71" transform="translate(-1452.34 -561.18)"/><path class="cls-1" d="M1580.21,628.28a6.39,6.39,0,0,0,3.59,1.13" transform="translate(-1452.34 -561.18)"/><path class="cls-1" d="M1527.5,645.11c.72.94.1,2.16-1.23,2.34a7.22,7.22,0,0,1-1.46-.1" transform="translate(-1452.34 -561.18)"/><path class="cls-1" d="M1541.52,719.91c.26,1.19.57,2.38.75,3.59,0,.31-.26.67-.41,1" transform="translate(-1452.34 -561.18)"/><path class="cls-1" d="M1535,747.14a19.65,19.65,0,0,0-4.26,5.72" transform="translate(-1452.34 -561.18)"/><path class="cls-1" d="M1549.14,698.77l.21,3.58" transform="translate(-1452.34 -561.18)"/><path class="cls-1" d="M1577.29,608.88a3.17,3.17,0,0,1-3.47,1" transform="translate(-1452.34 -561.18)"/><path class="cls-1" d="M1612,716c0,1.15.19,2.34-.56,3.37" transform="translate(-1452.34 -561.18)"/><path class="cls-1" d="M1502.27,663.72c-.14,2.71-1.7,2.74-3.37,2.35-.78-.18-1.24-1.14-1.23-2.46" transform="translate(-1452.34 -561.18)"/><path class="cls-1" d="M1539.72,637.37c.88,1,.92,1.41.11,2.35a4.36,4.36,0,0,1-2.24,1.35" transform="translate(-1452.34 -561.18)"/><path class="cls-1" d="M1498.9,716.88a11.12,11.12,0,0,0,.88,4.16,19.71,19.71,0,0,1,.81,2.57" transform="translate(-1452.34 -561.18)"/><path class="cls-1" d="M1457,753.19a23.37,23.37,0,0,1,3.48,5.27" transform="translate(-1452.34 -561.18)"/><path class="cls-1" d="M1616.21,667a7.49,7.49,0,0,1,.11.79,1.94,1.94,0,0,0,2.69,2" transform="translate(-1452.34 -561.18)"/><path class="cls-1" d="M1505.33,704.13c.52,1.12,1,2.24,1.57,3.36" transform="translate(-1452.34 -561.18)"/><path class="cls-1" d="M1533.78,641.74c-.48,2-2.11,2.42-3.92.9" transform="translate(-1452.34 -561.18)"/><path class="cls-1" d="M1470.05,690.88c.43.81.85,1.63,1.31,2.43a7.22,7.22,0,0,0,.69.88" transform="translate(-1452.34 -561.18)"/><path class="cls-1" d="M1479.17,755.43c.14,1.16.29,2.32.44,3.48" transform="translate(-1452.34 -561.18)"/><path class="cls-1" d="M1611.05,742.67l-.9,3.37" transform="translate(-1452.34 -561.18)"/><path class="cls-1" d="M1514.49,777.93c-.19,1.16-.37,2.32-.56,3.48" transform="translate(-1452.34 -561.18)"/><path class="cls-1" d="M1567.09,604.51c0,1.41-.07,2.82-1.25,3.79a10.43,10.43,0,0,1-1.89,1" transform="translate(-1452.34 -561.18)"/><path class="cls-1" d="M1548.93,695.18c0,1.14,0,2.28,0,3.42" transform="translate(-1452.34 -561.18)"/><path class="cls-1" d="M1608.14,655.2a3.15,3.15,0,0,0,3.47.45,1.7,1.7,0,0,0,.45-2.24" transform="translate(-1452.34 -561.18)"/><path class="cls-1" d="M1586,702.41c.2.49.41,1,.61,1.46s.38,1,.56,1.46" transform="translate(-1452.34 -561.18)"/><path class="cls-1" d="M1477.48,636.81a1.65,1.65,0,0,0,.68,2.11c.71.4,1.49.84,2.24,0a.4.4,0,0,0,0-.11" transform="translate(-1452.34 -561.18)"/><path class="cls-1" d="M1556,634.12c0,1.1-.24,1.45-1.24,1.45-.41,0-.82-.07-1.23-.11" transform="translate(-1452.34 -561.18)"/><path class="cls-1" d="M1499.35,720.47a2,2,0,0,0-.21.56c-.1,1.23-.16,2.46-.24,3.7" transform="translate(-1452.34 -561.18)"/><path class="cls-1" d="M1525.43,689.56c-.08.86-.14,1.73-.28,2.58a2.54,2.54,0,0,1-.41.8" transform="translate(-1452.34 -561.18)"/><path class="cls-1" d="M1550,619.76c-.4,1.73-1.21,2.21-2.46,1.46" transform="translate(-1452.34 -561.18)"/><path class="cls-1" d="M1517.77,692.46l.66,3.35" transform="translate(-1452.34 -561.18)"/><path class="cls-1" d="M1498.54,690.76c.3,1.11.59,2.23.88,3.34" transform="translate(-1452.34 -561.18)"/><path class="cls-1" d="M1461.22,754.87c0,1.13.76,2.22.11,3.37" transform="translate(-1452.34 -561.18)"/><path class="cls-1" d="M1494.42,658.9c1.92,1.38,3.25,1.05,4.65-1.21-.9-.34-2.21.79-2.75-.7" transform="translate(-1452.34 -561.18)"/><path class="cls-1" d="M1461.78,789.1c1.09,1,2.22,2,3.24,3a15.86,15.86,0,0,1,1.47,2.11" transform="translate(-1452.34 -561.18)"/><path class="cls-1" d="M1471.43,785.74c.34,1.07,1.21,2,.89,3.25" transform="translate(-1452.34 -561.18)"/><path class="cls-1" d="M1534,648.69c-.9,1.12-2,1.08-3.26.68" transform="translate(-1452.34 -561.18)"/><path class="cls-1" d="M1484.77,656.77a2.22,2.22,0,0,0,4,1.4" transform="translate(-1452.34 -561.18)"/><path class="cls-1" d="M1492.06,611.91a1.45,1.45,0,0,0-1.67.68,1.64,1.64,0,0,0,.1,2.13" transform="translate(-1452.34 -561.18)"/><path class="cls-1" d="M1551.66,696.45l1.32,3.22" transform="translate(-1452.34 -561.18)"/><path class="cls-1" d="M1506.64,581.63c-1.4-.9-2.94-.42-3.92,1.24-.72,1.2-.64,1.87.33,2.8" transform="translate(-1452.34 -561.18)"/><path class="cls-1" d="M1558.79,621.11c.77,1.39.23,2.55-1.46,3.14" transform="translate(-1452.34 -561.18)"/><path class="cls-1" d="M1582.57,620.32c-2,.82-4,1.35-5.84,2.57-.1.07-.3,0-.44,0" transform="translate(-1452.34 -561.18)"/><path class="cls-1" d="M1533.22,749.49c.63,1,.4,2.08.45,3.14" transform="translate(-1452.34 -561.18)"/><path class="cls-1" d="M1514.94,649.93c-.36.91-.66,1.87-1.8,2.12-.17,0-.37-.07-.55-.1" transform="translate(-1452.34 -561.18)"/><path class="cls-1" d="M1571.13,619.87c.28,1.43,1.46,1.57,2.58,1.8" transform="translate(-1452.34 -561.18)"/><path class="cls-1" d="M1590.75,603.84c1.28,1.95,2.06,2.19,4,1.72.89-.21.75-.71.77-1.27" transform="translate(-1452.34 -561.18)"/><path class="cls-1" d="M1511.09,690l2.1,3" transform="translate(-1452.34 -561.18)"/><path class="cls-1" d="M1504.51,749.49a5.76,5.76,0,0,1,1.46-.2,14.21,14.21,0,0,0,7.06-1" transform="translate(-1452.34 -561.18)"/><path class="cls-1" d="M1534.9,721.36l2.58,3" transform="translate(-1452.34 -561.18)"/><path class="cls-1" d="M1590.19,596.1a2.22,2.22,0,0,1-1.9,3,9.87,9.87,0,0,1-1.69-.32" transform="translate(-1452.34 -561.18)"/><path class="cls-1" d="M1574.94,603.61c.52,1.46,1.27,2.89.46,4.49-.3.58-.62,1.06-1.36,1" transform="translate(-1452.34 -561.18)"/><path class="cls-1" d="M1615.54,657.33a6,6,0,0,0,2.68,1.81c1.55.5,2,.37,2.7-1.14" transform="translate(-1452.34 -561.18)"/><path class="cls-1" d="M1521.67,641.29c-.22.91-.41,1.92-1.57,2a17.14,17.14,0,0,1-2.47-.2" transform="translate(-1452.34 -561.18)"/><path class="cls-1" d="M1505.41,639.39c0,.86-.64,1.18-1.24,1.44a3.88,3.88,0,0,1-4.26-1.11" transform="translate(-1452.34 -561.18)"/><path class="cls-1" d="M1470.53,786.64c.82,1.27,1.65,2.53,2.46,3.81.93,1.47.64,3,.34,4.6" transform="translate(-1452.34 -561.18)"/><path class="cls-1" d="M1571.35,726.3l-.9,3" transform="translate(-1452.34 -561.18)"/><path class="cls-1" d="M1482.75,790.34l1,3" transform="translate(-1452.34 -561.18)"/><path class="cls-1" d="M1584.58,634.9c-1.47,1.32-2,1.15-3,.45" transform="translate(-1452.34 -561.18)"/><path class="cls-1" d="M1525,693.94a4.89,4.89,0,0,1,.87,3" transform="translate(-1452.34 -561.18)"/><path class="cls-1" d="M1468.47,703.73l3,1.46" transform="translate(-1452.34 -561.18)"/><path class="cls-1" d="M1495.65,691.51c.32,1,.65,1.93,1,2.89" transform="translate(-1452.34 -561.18)"/><path class="cls-1" d="M1517.41,637.93a2.62,2.62,0,0,0,2.69,2.24,2,2,0,0,0,2.24-2" transform="translate(-1452.34 -561.18)"/><path class="cls-1" d="M1509.89,749.38l2.7,2.8" transform="translate(-1452.34 -561.18)"/><path class="cls-1" d="M1561.71,618.53a2.84,2.84,0,0,1-2.6-.92,11.66,11.66,0,0,1-.25,2.81,3.19,3.19,0,0,1-2.2,1.81" transform="translate(-1452.34 -561.18)"/><path class="cls-1" d="M1512.25,652.4a3.67,3.67,0,0,1-3.81,1.57" transform="translate(-1452.34 -561.18)"/><path class="cls-1" d="M1493.82,690.44l.87,3" transform="translate(-1452.34 -561.18)"/><path class="cls-1" d="M1588.06,596.21c0,.49.09,1.25-.15,1.4a2.53,2.53,0,0,1-1.64.14,6.13,6.13,0,0,1-1.46-.75" transform="translate(-1452.34 -561.18)"/><path class="cls-1" d="M1511.35,648.25a1.74,1.74,0,0,0,2.92-.23" transform="translate(-1452.34 -561.18)"/><path class="cls-1" d="M1635.39,646.9c0,.79.44,1.53-.08,2.38a1.84,1.84,0,0,1-2,1" transform="translate(-1452.34 -561.18)"/><path class="cls-1" d="M1548.92,698.77l-.91,3.84" transform="translate(-1452.34 -561.18)"/><path class="cls-1" d="M1661.54,761.61l.34,2.92" transform="translate(-1452.34 -561.18)"/><path class="cls-1" d="M1517.55,692.47l-1.24,3.63" transform="translate(-1452.34 -561.18)"/><path class="cls-1" d="M1488.47,736.48l-2.69,2.47" transform="translate(-1452.34 -561.18)"/><path class="cls-1" d="M1546.23,604.06a3.3,3.3,0,0,1-5,1.12" transform="translate(-1452.34 -561.18)"/><path class="cls-1" d="M1453.26,756.44l1.23,2.92" transform="translate(-1452.34 -561.18)"/><path class="cls-1" d="M1539.16,720.47c.19.93.38,1.87.56,2.8" transform="translate(-1452.34 -561.18)"/><path class="cls-1" d="M1534.73,693.11l1.32,2.77" transform="translate(-1452.34 -561.18)"/><path class="cls-1" d="M1495.73,690.39c-.27,1.05-.55,2.11-.8,3.17a2.52,2.52,0,0,0,0,.67" transform="translate(-1452.34 -561.18)"/><path class="cls-1" d="M1466.21,754.31l.06,2.81" transform="translate(-1452.34 -561.18)"/><path class="cls-1" d="M1614.42,713.18c-.15,0-.35,0-.45.12a15,15,0,0,0-3.93,5.37" transform="translate(-1452.34 -561.18)"/><path class="cls-1" d="M1497.56,754.43l-2.81.22" transform="translate(-1452.34 -561.18)"/><path class="cls-1" d="M1526.38,640.4c.15,1.12-.72,1.48-1.46,1.89a4.58,4.58,0,0,1-4.37-.1" transform="translate(-1452.34 -561.18)"/><path class="cls-1" d="M1468.39,691.72c.54.43,1.1.83,1.6,1.31a10.16,10.16,0,0,1,.94,1.2" transform="translate(-1452.34 -561.18)"/><path class="cls-1" d="M1595.13,618.64c.17,1,.37,2.09-.58,2.78a3.64,3.64,0,0,1-3.57.36" transform="translate(-1452.34 -561.18)"/><path class="cls-1" d="M1523,690.3a10,10,0,0,0,1.08,1.86,2,2,0,0,1,.39,2.59" transform="translate(-1452.34 -561.18)"/><path class="cls-1" d="M1583,612.7c-.85,1.17-1.77.46-2.69.11" transform="translate(-1452.34 -561.18)"/><path class="cls-1" d="M1533.78,722.26l2.36,2.58" transform="translate(-1452.34 -561.18)"/><path class="cls-1" d="M1538.72,636l2.28-.48a2.17,2.17,0,0,0,2.77.72c1.11-.49,1.21-1.36,1.11-2.37" transform="translate(-1452.34 -561.18)"/><path class="cls-1" d="M1533.67,745.57v2.74" transform="translate(-1452.34 -561.18)"/><path class="cls-1" d="M1480.85,735.36l-.68,2.58" transform="translate(-1452.34 -561.18)"/><path class="cls-1" d="M1579.2,611.58a4,4,0,0,1,1.18,1.88c.24.73,1,1.29,1.51,1.93" transform="translate(-1452.34 -561.18)"/><path class="cls-1" d="M1543.34,696c.22,1.5,1,2.89.8,4.47" transform="translate(-1452.34 -561.18)"/><path class="cls-1" d="M1475.22,691.41l2.54,2.4" transform="translate(-1452.34 -561.18)"/><path class="cls-1" d="M1462.65,691.09l2.73,1.27" transform="translate(-1452.34 -561.18)"/><path class="cls-1" d="M1471.26,706c1.18-.18,1.48.85,2.06,1.51.11.12.23.22.35.33" transform="translate(-1452.34 -561.18)"/><path class="cls-1" d="M1458.87,752.41l-.34,2.63" transform="translate(-1452.34 -561.18)"/><path class="cls-1" d="M1506.87,637.48c.13.5.51,1-.12,1.46a1.49,1.49,0,0,1-1.68,0,3.31,3.31,0,0,1-2-3" transform="translate(-1452.34 -561.18)"/><path class="cls-1" d="M1605.89,636.25l2.36,1.68" transform="translate(-1452.34 -561.18)"/><path class="cls-1" d="M1600.17,650.49c-1,.82-1.41.8-2.58-.11" transform="translate(-1452.34 -561.18)"/><path class="cls-1" d="M1509.11,654.19c-.62.81-1.21,1.69-2.47,1.23" transform="translate(-1452.34 -561.18)"/><path class="cls-1" d="M1482.31,704c-.39.87-.78,1.75-1.16,2.62" transform="translate(-1452.34 -561.18)"/><path class="cls-1" d="M1506.75,704.73c.32,1.21,1.55,2,1.44,3.43,0,.42-.12.83-.19,1.24s-.13.76-.19,1.13" transform="translate(-1452.34 -561.18)"/><path class="cls-1" d="M1538.94,640.73c.11,1-.35,1.48-1.79,1.8" transform="translate(-1452.34 -561.18)"/><path class="cls-1" d="M1503.39,659.8a3,3,0,0,1-2.58.56" transform="translate(-1452.34 -561.18)"/><path class="cls-1" d="M1599.72,653.18c1,1.19,2.15,2,3.82,1.57" transform="translate(-1452.34 -561.18)"/><path class="cls-1" d="M1637.18,640.84a6.52,6.52,0,0,0,.12.79c.49,1.72.14,2.39-1.58,2.92" transform="translate(-1452.34 -561.18)"/><path class="cls-1" d="M1524,609.56a2.16,2.16,0,0,1-2.58.11" transform="translate(-1452.34 -561.18)"/><path class="cls-1" d="M1511,659.69c-.08.85-.15,1.71-.23,2.57" transform="translate(-1452.34 -561.18)"/><path class="cls-1" d="M1542.08,648.25a2.8,2.8,0,0,1-1.91,2" transform="translate(-1452.34 -561.18)"/><path class="cls-1" d="M1570.9,606.08a11.16,11.16,0,0,1-1.14,1.89,2.81,2.81,0,0,1-3.57.47" transform="translate(-1452.34 -561.18)"/><path class="cls-1" d="M1510.11,687.29a10.71,10.71,0,0,1,3.45,4.37c.35,1,1.15,1.79,1.24,2.91" transform="translate(-1452.34 -561.18)"/><path class="cls-1" d="M1507.76,749.6l1.8,2.58" transform="translate(-1452.34 -561.18)"/><path class="cls-1" d="M1503,704.58c.47,1,1.38,1.87,1.23,3.14a1.59,1.59,0,0,1-.12.44c0,.1-.14.16-.21.23-1.11-.38-2.41-.45-2.92-1.79" transform="translate(-1452.34 -561.18)"/><path class="cls-1" d="M1498.53,705.92l2.47,1.8" transform="translate(-1452.34 -561.18)"/><path class="cls-1" d="M1597,727.08c-.3.23-.6.44-.89.68-.5.4-1,.82-1.46,1.23" transform="translate(-1452.34 -561.18)"/><path class="cls-1" d="M1635.5,643.65a2.15,2.15,0,0,1-1.68,2.91" transform="translate(-1452.34 -561.18)"/><path class="cls-1" d="M1608,606.87c1.63.41,2,1.15,1.24,2.58-.13.25-.23.52-.34.78" transform="translate(-1452.34 -561.18)"/><path class="cls-1" d="M1491.83,691.4c.27.74.55,1.48.83,2.22l.23.09.85-2" transform="translate(-1452.34 -561.18)"/><path class="cls-1" d="M1469.63,740.52c.75,1.08,1.53,2.15,2.23,3.26a8.44,8.44,0,0,1,.58,1.45" transform="translate(-1452.34 -561.18)"/><path class="cls-1" d="M1576.06,621a2.32,2.32,0,0,1,1.35-2.25" transform="translate(-1452.34 -561.18)"/><path class="cls-1" d="M1556.1,623.91c-.6,1.17-1.85,1.21-3,.79" transform="translate(-1452.34 -561.18)"/><path class="cls-1" d="M1527.05,744.78c0,.82.08,1.65.11,2.47" transform="translate(-1452.34 -561.18)"/><path class="cls-1" d="M1507.54,663.05h2.35" transform="translate(-1452.34 -561.18)"/><path class="cls-1" d="M1593.33,705.89c0,.15.07.3.11.45.34,1.22,1,2.43-.42,3.5-.42.33-.55,1-.81,1.54" transform="translate(-1452.34 -561.18)"/><path class="cls-1" d="M1585.93,627.61a2.23,2.23,0,0,1-1.91,1.68" transform="translate(-1452.34 -561.18)"/><path class="cls-1" d="M1516.7,707.72l-1,2.35" transform="translate(-1452.34 -561.18)"/><path class="cls-1" d="M1490.26,691.33c-.06.78-.11,1.57-.16,2.36" transform="translate(-1452.34 -561.18)"/><path class="cls-1" d="M1494.53,722.26c.49.75,1,1.5,1.46,2.24" transform="translate(-1452.34 -561.18)"/><path class="cls-1" d="M1571.57,615.05c.5,1.16.87,1.4,1.91,1.24" transform="translate(-1452.34 -561.18)"/><path class="cls-1" d="M1573.37,615.5c.26,1.51,1.35,2,2.69,2.13" transform="translate(-1452.34 -561.18)"/><path class="cls-1" d="M1512.24,687.12c.11.78.78,1.49.29,2.35" transform="translate(-1452.34 -561.18)"/><path class="cls-1" d="M1533.66,766.69l1.46,4.26" transform="translate(-1452.34 -561.18)"/><path class="cls-1" d="M1534.22,769l-.78,2.36" transform="translate(-1452.34 -561.18)"/><path class="cls-1" d="M1498,659.57l2.54,1.28c.16-.77.26-1.3.37-1.84" transform="translate(-1452.34 -561.18)"/><path class="cls-1" d="M1520.21,647.24a11.64,11.64,0,0,1-1.6,2.32,2.71,2.71,0,0,1-4.45-1" transform="translate(-1452.34 -561.18)"/><path class="cls-1" d="M1458.75,756.22c-.29,1.08-.59,2.17-.89,3.25" transform="translate(-1452.34 -561.18)"/><path class="cls-1" d="M1583.46,649.26l-2.24,1.79" transform="translate(-1452.34 -561.18)"/><path class="cls-1" d="M1605.56,708.13c-.64,1-1.13,2.19-2.36,2.69" transform="translate(-1452.34 -561.18)"/><path class="cls-1" d="M1602.53,649.82c-1.6,1.16-3.34.59-4.15-1.35" transform="translate(-1452.34 -561.18)"/><path class="cls-1" d="M1596.47,637.82a18.75,18.75,0,0,0,1.58,1.11c1,.55,1.72.33,2.8-.78" transform="translate(-1452.34 -561.18)"/><path class="cls-1" d="M1467.4,692.53l2.08,2" transform="translate(-1452.34 -561.18)"/><path class="cls-1" d="M1542.38,693.57l.84,2.22" transform="translate(-1452.34 -561.18)"/><path class="cls-1" d="M1626.53,741.66l-3.82,4.49" transform="translate(-1452.34 -561.18)"/><path class="cls-1" d="M1510.79,780.74c0,.74-.07,1.49-.11,2.24" transform="translate(-1452.34 -561.18)"/><path class="cls-1" d="M1590,704.77a14.48,14.48,0,0,1,.42,2.24c0,.82.34,1.73-.63,2.39-.45.3-.69.94-1,1.42" transform="translate(-1452.34 -561.18)"/><path class="cls-1" d="M1625.52,617.29l1,2.25" transform="translate(-1452.34 -561.18)"/><path class="cls-1" d="M1469.74,754.2l.34,2.24" transform="translate(-1452.34 -561.18)"/><path class="cls-1" d="M1541.44,696.06c.32,1,.65,2.08,1,3.12" transform="translate(-1452.34 -561.18)"/><path class="cls-1" d="M1592.32,635.69c-.37,1.95,1,4,2.69,4.15" transform="translate(-1452.34 -561.18)"/><path class="cls-1" d="M1541.46,696.85l-1.29,1.94" transform="translate(-1452.34 -561.18)"/><path class="cls-1" d="M1624.28,741.55l.23,2.19" transform="translate(-1452.34 -561.18)"/><path class="cls-1" d="M1604.43,638.38l2,.78" transform="translate(-1452.34 -561.18)"/><path class="cls-1" d="M1468.36,704.93c.47.67,1.38.68,1.9,1.47a11.48,11.48,0,0,1,1.34,2.36" transform="translate(-1452.34 -561.18)"/><path class="cls-1" d="M1517.49,690.23l.28,2.07" transform="translate(-1452.34 -561.18)"/><path class="cls-1" d="M1562.83,615.84c-1.43,1.57-3.41,1.42-4.26-.34" transform="translate(-1452.34 -561.18)"/><path class="cls-1" d="M1620.58,665.52c-1.09,1.54-1.89,1.64-3.59.45" transform="translate(-1452.34 -561.18)"/><path class="cls-1" d="M1461.91,692.8l2.19,2.07" transform="translate(-1452.34 -561.18)"/><path class="cls-1" d="M1572.58,611.58a3.81,3.81,0,0,0,2.81,3.47" transform="translate(-1452.34 -561.18)"/><path class="cls-1" d="M1503.73,660c2.36,1.25,3.46.45,3.92-1.23" transform="translate(-1452.34 -561.18)"/><path class="cls-1" d="M1593.78,709.36l.45,2.14" transform="translate(-1452.34 -561.18)"/><path class="cls-1" d="M1573.59,607a4,4,0,0,1-.33,3.7c-.86,1.18-1.84,1.34-2.93.46a1.21,1.21,0,0,0-.77-.33,3.78,3.78,0,0,1-2.25-.8" transform="translate(-1452.34 -561.18)"/><path class="cls-1" d="M1605.22,754.11l.34,2" transform="translate(-1452.34 -561.18)"/><path class="cls-1" d="M1499.46,612.14c-.36.89.56,1,.9,1.67l1-1" transform="translate(-1452.34 -561.18)"/><path class="cls-1" d="M1461.14,693.15l1.06,2" transform="translate(-1452.34 -561.18)"/><path class="cls-1" d="M1573.15,613.82c-.63.5-1.27.88-2,.22" transform="translate(-1452.34 -561.18)"/><path class="cls-1" d="M1629.33,651.84c1.13.14,2.21.34,3.16-.66a2.62,2.62,0,0,0,.65-2.71" transform="translate(-1452.34 -561.18)"/><path class="cls-1" d="M1607.35,750.86a4.58,4.58,0,0,0-1.84,2.22,13.85,13.85,0,0,1-1.75,2.49" transform="translate(-1452.34 -561.18)"/><path class="cls-1" d="M1492,688c0,.65.11,1.3.17,2" transform="translate(-1452.34 -561.18)"/><path class="cls-1" d="M1659.86,768.56c.52-.52,1.05-1,1.57-1.57" transform="translate(-1452.34 -561.18)"/><path class="cls-1" d="M1577.74,606.53l-.22,1.91" transform="translate(-1452.34 -561.18)"/><path class="cls-1" d="M1512,650c.8.6.61,1.36.41,2.21l-1.3-.41" transform="translate(-1452.34 -561.18)"/><path class="cls-1" d="M1630.9,649.82l.79,1.79" transform="translate(-1452.34 -561.18)"/><path class="cls-1" d="M1590,635.8c.15.37.3.74.44,1.12.48,1.25.74,1.38,2.14,1.12" transform="translate(-1452.34 -561.18)"/><path class="cls-1" d="M1463.59,692.64l1.94,1.06" transform="translate(-1452.34 -561.18)"/><path class="cls-1" d="M1472.19,691.27a4,4,0,0,0,2.16,3.52c-.09-1.26-.17-2.3-.25-3.35" transform="translate(-1452.34 -561.18)"/><path class="cls-1" d="M1476.36,747.81l2.69,1.12" transform="translate(-1452.34 -561.18)"/><path class="cls-1" d="M1474.73,702.87c-.07,2,1.28,3.25,2.37,4.64" transform="translate(-1452.34 -561.18)"/><path class="cls-1" d="M1483.21,692.2l.62,1.89" transform="translate(-1452.34 -561.18)"/><path class="cls-1" d="M1530.93,693.67c-.34,1.27-1.39,2.1-2,3.2a5.29,5.29,0,0,0-.32.68" transform="translate(-1452.34 -561.18)"/><path class="cls-1" d="M1517.3,638.6a1.68,1.68,0,0,1-1.91.45" transform="translate(-1452.34 -561.18)"/><path class="cls-1" d="M1532.33,695.31l.05,1.91" transform="translate(-1452.34 -561.18)"/><path class="cls-1" d="M1547.58,640.84l.72-.43,1.18.77" transform="translate(-1452.34 -561.18)"/><path class="cls-1" d="M1539.85,695.66c-.44,1.3.09,2.54.22,3.81" transform="translate(-1452.34 -561.18)"/><path class="cls-1" d="M1599.28,596.21l.56,1.85" transform="translate(-1452.34 -561.18)"/><path class="cls-1" d="M1595.8,704.54c-.41.94-.81,1.88-1.25,2.8-.1.23-.36.38-.55.57" transform="translate(-1452.34 -561.18)"/><path class="cls-1" d="M1513.48,773.11l.11,1.85" transform="translate(-1452.34 -561.18)"/><path class="cls-1" d="M1537.15,646.45l-1.13,1.8" transform="translate(-1452.34 -561.18)"/><path class="cls-1" d="M1545.89,638.6c-.11.8-.22,1.59-.37,2.61.27.38.71,1,1.16,1.65" transform="translate(-1452.34 -561.18)"/><path class="cls-1" d="M1504.36,707.05c.38.52.75,1,1.12,1.57" transform="translate(-1452.34 -561.18)"/><path class="cls-1" d="M1587.28,708.36l-.57,1.79" transform="translate(-1452.34 -561.18)"/><path class="cls-1" d="M1493.1,688.67a12.44,12.44,0,0,0-2,4.54" transform="translate(-1452.34 -561.18)"/><path class="cls-1" d="M1588.06,640.51a1.67,1.67,0,0,1-1.29,1.57" transform="translate(-1452.34 -561.18)"/><path class="cls-1" d="M1640.21,640.17c0,1.8-.41,2.36-1.91,2.58" transform="translate(-1452.34 -561.18)"/><path class="cls-1" d="M1576.73,612.58c-.08,1.95-1.49,2.89-2.91,3.82" transform="translate(-1452.34 -561.18)"/><path class="cls-1" d="M1509,708.9l.67,1.68" transform="translate(-1452.34 -561.18)"/><path class="cls-1" d="M1532.4,694.07c.11,1.06-.83,1.54-1.28,2.28-.24.39-.5.77-.75,1.15" transform="translate(-1452.34 -561.18)"/><path class="cls-1" d="M1588,574.68c.56.45,1.14.88,1.66,1.36.12.11,0,.43,0,.66" transform="translate(-1452.34 -561.18)"/><path class="cls-1" d="M1507.18,690.74c.44.85.88,1.69,1.3,2.55.34.69.64,1.4,1,2.1" transform="translate(-1452.34 -561.18)"/><path class="cls-1" d="M1540.51,630.53h1.68" transform="translate(-1452.34 -561.18)"/><path class="cls-1" d="M1493.18,723.16l1.57,1.34" transform="translate(-1452.34 -561.18)"/><path class="cls-1" d="M1560.14,614.6c.31.84,1,.71,1.68.69a8.5,8.5,0,0,1,1.23.1" transform="translate(-1452.34 -561.18)"/><path class="cls-1" d="M1575.61,608.21l1.8.45" transform="translate(-1452.34 -561.18)"/><path class="cls-1" d="M1624.06,744.91l.34,1.57" transform="translate(-1452.34 -561.18)"/><path class="cls-1" d="M1465.56,690.79c0,.18.16.39.11.55-.32,1-.12,1.67,1,2,.3.09.47.55.71.84" transform="translate(-1452.34 -561.18)"/><path class="cls-1" d="M1484.66,612.47l-1.5.71c.18.91.72.9,1.28.86" transform="translate(-1452.34 -561.18)"/><path class="cls-1" d="M1602.3,713.29l.12,2" transform="translate(-1452.34 -561.18)"/><path class="cls-1" d="M1476.81,645.78l-.45,1.57" transform="translate(-1452.34 -561.18)"/><path class="cls-1" d="M1543.51,697.91c-.21.73-.91,1.3-.73,2.16" transform="translate(-1452.34 -561.18)"/><path class="cls-1" d="M1513.5,692.14l.18,2.46" transform="translate(-1452.34 -561.18)"/><path class="cls-1" d="M1543,650.49l1.12,1.35" transform="translate(-1452.34 -561.18)"/><path class="cls-1" d="M1543.54,722.26l-1.12,1.23" transform="translate(-1452.34 -561.18)"/><path class="cls-1" d="M1545.78,640.4l1.46.22" transform="translate(-1452.34 -561.18)"/><path class="cls-1" d="M1560.7,621.44l-1.46.12" transform="translate(-1452.34 -561.18)"/><path class="cls-1" d="M1474.47,692.56l1.38,1.19" transform="translate(-1452.34 -561.18)"/><path class="cls-1" d="M1543.75,694.43l-.08,1.35" transform="translate(-1452.34 -561.18)"/><path class="cls-1" d="M1584.7,634.56c.8,1,1.93.89,3,1l.24-1.7" transform="translate(-1452.34 -561.18)"/><path class="cls-1" d="M1546.45,648.47l1.24.9" transform="translate(-1452.34 -561.18)"/><path class="cls-1" d="M1600.17,657.44l-2.35.28" transform="translate(-1452.34 -561.18)"/><path class="cls-1" d="M1530.42,695.25c0,.41.1.82.14,1.23" transform="translate(-1452.34 -561.18)"/><path class="cls-1" d="M1475.91,703.06v1.23" transform="translate(-1452.34 -561.18)"/><path class="cls-1" d="M1479.84,703.28a3.18,3.18,0,0,0-1,2.13" transform="translate(-1452.34 -561.18)"/><path class="cls-1" d="M1585.37,721.59l-.34,1.57" transform="translate(-1452.34 -561.18)"/><path class="cls-1" d="M1605,654.19l-1.13.73-.56-.84" transform="translate(-1452.34 -561.18)"/><path class="cls-1" d="M1594.79,704.09l.34.9" transform="translate(-1452.34 -561.18)"/><path class="cls-1" d="M1566,626.71l-.34.9" transform="translate(-1452.34 -561.18)"/><path class="cls-1" d="M1533.89,647.35l.2,1.23c.53.12,1.15.4,1.71-.22" transform="translate(-1452.34 -561.18)"/><path class="cls-1" d="M1472.47,693.28l-.18,1.58" transform="translate(-1452.34 -561.18)"/><path class="cls-1" d="M1539.28,723.61l.11.89" transform="translate(-1452.34 -561.18)"/><path class="cls-1" d="M1539.24,697.81c-.25.49-.5,1-.74,1.48" transform="translate(-1452.34 -561.18)"/><path class="cls-1" d="M1465.85,693.13c-.46.61-.09,1,.37,1.34" transform="translate(-1452.34 -561.18)"/></svg>