<svg id="Capa_1" data-name="Capa 1" xmlns="http://www.w3.org/2000/svg" viewBox="0 0 34.48 35.98"><defs><style>.cls-1{fill:none;stroke:#fff;stroke-linecap:round;stroke-linejoin:round;}</style></defs><title>icono-senderismo</title><path class="cls-1" d="M1417,552.22v2.5a2.28,2.28,0,0,1-2.27,2.29h-12.23a2.28,2.28,0,0,1-2.29-2.29v-2.5a2.29,2.29,0,0,1,2.29-2.29h12.23A2.29,2.29,0,0,1,1417,552.22Z" transform="translate(-1399.72 -544.7)"/><polyline class="cls-1" points="18.27 24.46 18.27 30.75 15.48 30.75 10.61 30.75 8.5 30.75 1.66 30.75 1.66 24.11 1.66 12.32 2.79 12.32 15.02 12.32 16.15 12.32 16.19 12.32 16.19 17.21 16.19 18.21 16.19 21.53 16.19 21.63"/><path class="cls-1" d="M1406.24,580.17h-4.86V568.8h.19a6.65,6.65,0,0,1,6.65,6.65" transform="translate(-1399.72 -544.7)"/><line class="cls-1" x1="23.04" y1="35.48" x2="13.69" y2="35.48"/><line class="cls-1" x1="12.73" y1="17.22" x2="16.19" y2="17.22"/><polyline class="cls-1" points="16.19 21.63 15.78 21.63 12.73 21.63"/><rect class="cls-1" x="1.66" y="30.75" width="23.36" height="4.73"/><path class="cls-1" d="M1424.74,575.44a6.66,6.66,0,0,0-6.65-6.65h0a2.18,2.18,0,0,1-1.32-.44,1.9,1.9,0,0,1-.82-1.51h0v0a.13.13,0,0,1,0-.06v-.52" transform="translate(-1399.72 -544.7)"/><path class="cls-1" d="M1417,552.28h6.67A2.28,2.28,0,0,0,1426,550v-2.5a2.29,2.29,0,0,0-2.29-2.29h-12.22a2.3,2.3,0,0,0-2.29,2.29v2.44" transform="translate(-1399.72 -544.7)"/><polyline class="cls-1" points="23.05 26.02 27.23 26.02 27.23 19.73"/><polyline class="cls-1" points="25.14 16.9 25.14 16.8 25.14 13.48 25.14 12.48 25.14 7.59 25.1 7.59 23.96 7.59 17.29 7.59"/><line class="cls-1" x1="15.48" y1="30.75" x2="10.61" y2="30.75"/><polyline class="cls-1" points="16.2 22.12 16.2 22.13 16.2 22.14"/><polyline class="cls-1" points="22.65 30.75 25.02 30.75 32 30.75"/><line class="cls-1" x1="21.68" y1="12.49" x2="25.15" y2="12.49"/><line class="cls-1" x1="21.68" y1="16.9" x2="25.15" y2="16.9"/><polyline class="cls-1" points="23.05 26.02 27.23 26.02 33.98 26.02 33.98 30.75 32 30.75 25.02 30.75 22.65 30.75 18.27 30.75 15.48 30.75 10.61 30.75"/><path class="cls-1" d="M1424.86,561.5V562a2.08,2.08,0,0,0,2.16,2h0a6.64,6.64,0,0,1,6.65,6.65" transform="translate(-1399.72 -544.7)"/></svg>