<svg id="Capa_1" data-name="Capa 1" xmlns="http://www.w3.org/2000/svg" viewBox="0 0 34.69 39.18"><defs><style>.cls-1{fill:none;stroke:#fff;stroke-linecap:round;stroke-linejoin:round;}</style></defs><title>icono-naturaleza</title><line class="cls-1" x1="17.41" y1="6.34" x2="17.41" y2="16.22"/><path class="cls-1" d="M1486.9,588.34a6.17,6.17,0,0,1,8.14-6.91" transform="translate(-1469.39 -580.58)"/><path class="cls-1" d="M1486.9,588.34a6.16,6.16,0,0,0,8.14-6.91" transform="translate(-1469.39 -580.58)"/><path class="cls-1" d="M1478.57,581.43a6.17,6.17,0,0,1,8.14,6.91" transform="translate(-1469.39 -580.58)"/><path class="cls-1" d="M1478.57,581.43a6.17,6.17,0,0,0,8.14,6.91" transform="translate(-1469.39 -580.58)"/><path class="cls-1" d="M1478.75,609.35l-1.06-1.07-2.72-2.71a2.14,2.14,0,0,1-.64-1.44v-.27a2.07,2.07,0,0,1,.64-1.42,2.22,2.22,0,0,1,3.14,0l5,5a2.87,2.87,0,0,1,.84,2v9.78h-8.86V614l-4.42-6.6a4.5,4.5,0,0,1-.78-2.54v-11.4a2.32,2.32,0,0,1,2.14-2.38,2.21,2.21,0,0,1,2.3,2.21v10.82a2.14,2.14,0,0,0,.64,1.44l2.72,2.71,1.06,1.07" transform="translate(-1469.39 -580.58)"/><path class="cls-1" d="M1478.75,597.26v5.82l-.64-.64a2.22,2.22,0,0,0-3.14,0,2.07,2.07,0,0,0-.64,1.42v-6.6a2.21,2.21,0,0,1,4.42,0Z" transform="translate(-1469.39 -580.58)"/><path class="cls-1" d="M1494.72,609.35l1.07-1.07,2.71-2.71a2.09,2.09,0,0,0,.64-1.44v-.27a2,2,0,0,0-.64-1.42,2.22,2.22,0,0,0-3.14,0l-5,5a2.88,2.88,0,0,0-.85,2v9.78h8.86V614l4.43-6.6a4.57,4.57,0,0,0,.77-2.54v-11.4a2.32,2.32,0,0,0-2.14-2.38,2.21,2.21,0,0,0-2.3,2.21v10.82a2.09,2.09,0,0,1-.64,1.44l-2.71,2.71-1.07,1.07" transform="translate(-1469.39 -580.58)"/><path class="cls-1" d="M1494.72,597.26v5.82l.64-.64a2.22,2.22,0,0,1,3.14,0,2,2,0,0,1,.64,1.42v-6.6a2.21,2.21,0,0,0-4.42,0Z" transform="translate(-1469.39 -580.58)"/></svg>