<svg id="Capa_1" data-name="Capa 1" xmlns="http://www.w3.org/2000/svg" viewBox="0 0 36.4 36.4"><defs><style>.cls-1{fill:none;stroke:#fff;stroke-linecap:round;stroke-linejoin:round;}</style></defs><title>icono-emergencia</title><path class="cls-1" d="M1649,377.06a14.63,14.63,0,0,1,2.07-2.62,14.17,14.17,0,1,1,17.42,22.11" transform="translate(-1639.39 -369.79)"/><rect class="cls-1" x="1645.81" y="372.61" width="3.49" height="10.87" transform="translate(-1424.15 905.93) rotate(-45)"/><rect class="cls-1" x="1645.81" y="372.61" width="3.49" height="10.87" transform="translate(-1424.15 905.93) rotate(-45)"/><path class="cls-1" d="M1662.78,395.1l-.32.32,7.68,7.68-.73.74a6.34,6.34,0,0,1-9,0l-18.7-18.7a6.33,6.33,0,0,1,0-9l.73-.74,7.69,7.69.32-.32a2.4,2.4,0,0,0,0,3.38l8.92,8.92A2.39,2.39,0,0,0,1662.78,395.1Z" transform="translate(-1639.39 -369.79)"/><rect class="cls-1" x="1665.79" y="392.59" width="3.49" height="10.87" transform="translate(-1432.42 925.91) rotate(-45)"/><rect class="cls-1" x="1665.79" y="392.59" width="3.49" height="10.87" transform="translate(-1432.42 925.91) rotate(-45)"/><polygon class="cls-1" points="27.7 12.93 27.7 16.41 24 16.41 24 20.1 20.51 20.1 20.51 16.41 16.83 16.41 16.83 12.93 20.51 12.93 20.51 9.23 24 9.23 24 12.93 27.7 12.93"/></svg>