<svg id="Capa_1" data-name="Capa 1" xmlns="http://www.w3.org/2000/svg" viewBox="0 0 84.04 84.04"><defs><style>.cls-1{fill:#e3e2e2;}.cls-2{fill:none;stroke:#000;stroke-miterlimit:10;stroke-width:1.5px;}</style></defs><title>icono-informacion</title><rect class="cls-1" x="485.53" y="441.26" width="84.04" height="84.04" transform="translate(569.58 525.3) rotate(180)"/><circle class="cls-2" cx="42.02" cy="42.02" r="26.91"/><path d="M529.66,494.39a2.65,2.65,0,0,0,1.68.4,5.43,5.43,0,0,0,1.25-.2,7.19,7.19,0,0,0,1-.33l-.4,1.65c-1.23.48-2.2.86-2.93,1.11a7.67,7.67,0,0,1-2.51.37,5,5,0,0,1-3.45-1.08,3.49,3.49,0,0,1-1.23-2.75,7.26,7.26,0,0,1,.1-1.3c.05-.46.15-1,.27-1.53l1.53-5.39a12.55,12.55,0,0,0,.35-1.45,6.38,6.38,0,0,0,.15-1.28,1.93,1.93,0,0,0-.45-1.46,2.3,2.3,0,0,0-1.6-.4,5.46,5.46,0,0,0-1.23.18c-.4.12-.75.25-1.05.35l.4-1.65c1-.4,2-.76,2.86-1a8.37,8.37,0,0,1,2.6-.45,4.86,4.86,0,0,1,3.39,1.08,3.53,3.53,0,0,1,1.17,2.75c0,.23,0,.65-.07,1.23a7.87,7.87,0,0,1-.3,1.63l-1.51,5.36a10.09,10.09,0,0,0-.35,1.48,7.79,7.79,0,0,0-.15,1.25A1.86,1.86,0,0,0,529.66,494.39Zm3.26-20.28a3.83,3.83,0,0,1-5.12,0,3.1,3.1,0,0,1-1.07-2.4,3.19,3.19,0,0,1,1.07-2.41,3.83,3.83,0,0,1,5.12,0,3.24,3.24,0,0,1,1.05,2.41A3.15,3.15,0,0,1,532.92,474.11Z" transform="translate(-485.53 -441.26)"/><path d="M533.59,494.26l-.4,1.65c-1.23.48-2.2.86-2.93,1.11a7.67,7.67,0,0,1-2.51.37,5,5,0,0,1-3.45-1.08,3.49,3.49,0,0,1-1.23-2.75,7.26,7.26,0,0,1,.1-1.3c.05-.46.15-1,.27-1.53l1.53-5.39a12.55,12.55,0,0,0,.35-1.45,6.38,6.38,0,0,0,.15-1.28,1.93,1.93,0,0,0-.45-1.46,2.3,2.3,0,0,0-1.6-.4,5.46,5.46,0,0,0-1.23.18c-.4.12-.75.25-1.05.35l.4-1.65c1-.4,2-.76,2.86-1a8.37,8.37,0,0,1,2.6-.45,4.86,4.86,0,0,1,3.39,1.08,3.53,3.53,0,0,1,1.17,2.75c0,.23,0,.65-.07,1.23a7.87,7.87,0,0,1-.3,1.63l-1.51,5.36a10.09,10.09,0,0,0-.35,1.48,7.79,7.79,0,0,0-.15,1.25,1.86,1.86,0,0,0,.48,1.46,2.65,2.65,0,0,0,1.68.4,5.43,5.43,0,0,0,1.25-.2A7.19,7.19,0,0,0,533.59,494.26Z" transform="translate(-485.53 -441.26)"/><path d="M534,471.71a3.15,3.15,0,0,1-1.05,2.4,3.83,3.83,0,0,1-5.12,0,3.1,3.1,0,0,1-1.07-2.4,3.19,3.19,0,0,1,1.07-2.41,3.83,3.83,0,0,1,5.12,0A3.24,3.24,0,0,1,534,471.71Z" transform="translate(-485.53 -441.26)"/></svg>