<svg id="Capa_1" data-name="Capa 1" xmlns="http://www.w3.org/2000/svg" viewBox="0 0 38.4 30.21"><defs><style>.cls-1,.cls-2{fill:none;stroke:#fff;}.cls-1{stroke-miterlimit:10;}.cls-2{stroke-linecap:round;stroke-linejoin:round;}</style></defs><title>icono-ruta</title><path class="cls-1" d="M4.64,12.47H33.75a3.08,3.08,0,0,1,3.08,3.08V21.9A1.09,1.09,0,0,1,35.74,23H2.65A1.09,1.09,0,0,1,1.56,21.9V15.55A3.08,3.08,0,0,1,4.64,12.47Z"/><line class="cls-2" x1="13.63" y1="18.52" x2="24.77" y2="18.52"/><path class="cls-2" d="M3.23,23H8.94a0,0,0,0,1,0,0v5.85a.88.88,0,0,1-.88.88H4.11a.88.88,0,0,1-.88-.88V23A0,0,0,0,1,3.23,23Z"/><path class="cls-2" d="M29.45,23h5.71a0,0,0,0,1,0,0v5.85a.88.88,0,0,1-.88.88H30.33a.88.88,0,0,1-.88-.88V23A0,0,0,0,1,29.45,23Z"/><path class="cls-2" d="M13.63,23H24.77a0,0,0,0,1,0,0v3.86a.37.37,0,0,1-.37.37H14a.37.37,0,0,1-.37-.37V23A0,0,0,0,1,13.63,23Z"/><path class="cls-2" d="M1431.39,560h-28.87l1.3-7.33c.49-2.64,2.17-4.6,4.84-4.6h16.6c2.66,0,4.35,2,4.84,4.6Z" transform="translate(-1397.76 -547.58)"/><path class="cls-2" d="M1428.36,560.05h-9.71a4.86,4.86,0,0,1,9.71,0Z" transform="translate(-1397.76 -547.58)"/><line class="cls-2" x1="16.42" y1="4.25" x2="21.97" y2="4.25"/><line class="cls-2" x1="19.15" y1="0.5" x2="19.15" y2="4.25"/><circle class="cls-2" cx="6.93" cy="18.52" r="1.87"/><circle class="cls-2" cx="31.47" cy="18.52" r="1.87"/><path class="cls-2" d="M1398.26,560a3.64,3.64,0,0,1,3.64-3.64,3.53,3.53,0,0,1,1,.14" transform="translate(-1397.76 -547.58)"/><line class="cls-2" x1="4.14" y1="12.43" x2="0.51" y2="12.43"/><path class="cls-2" d="M1431,556.51a3.68,3.68,0,0,1,4.69,3.5" transform="translate(-1397.76 -547.58)"/><line class="cls-2" x1="34.25" y1="12.43" x2="37.89" y2="12.43"/></svg>