<svg id="Capa_1" data-name="Capa 1" xmlns="http://www.w3.org/2000/svg" viewBox="0 0 36.33 35.71"><defs><style>.cls-1{fill:none;stroke:#fff;stroke-linecap:round;stroke-linejoin:round;}</style></defs><title>icono-areasnaturales</title><path class="cls-1" d="M1421.44,565a165.87,165.87,0,0,0-11,4.49,4.49,4.49,0,0,0-6.61,0,4.49,4.49,0,0,1-1.67-8.66,4.41,4.41,0,0,1-.55-2.13,4.48,4.48,0,0,1,4.34-4.48h0a4.49,4.49,0,1,1,9,0h0a4.36,4.36,0,0,1,2.92,1.35,4.41,4.41,0,0,1,.75,5.23A4.51,4.51,0,0,1,1421.44,565Z" transform="translate(-1398.79 -544.83)"/><line class="cls-1" x1="11.6" y1="30.86" x2="11.6" y2="24.67"/><path class="cls-1" d="M1415,580h-15.51a4.94,4.94,0,0,1,8.9-4,4.58,4.58,0,0,1,1.7-.31h.3A5,5,0,0,1,1415,580Z" transform="translate(-1398.79 -544.83)"/><line class="cls-1" x1="23.55" y1="11.42" x2="26.78" y2="13.88"/><polyline class="cls-1" points="26.79 30.85 26.79 24.67 26.79 17.97 26.79 13.88 26.79 9.12"/><line class="cls-1" x1="31.41" y1="15.76" x2="26.78" y2="17.97"/><path class="cls-1" d="M1434.62,579.83a1.48,1.48,0,0,1,0,.21h-14a1.48,1.48,0,0,1,0-.21,4.17,4.17,0,0,1,4.15-4.15h5.74a4.14,4.14,0,0,1,2.93,1.22A4.1,4.1,0,0,1,1434.62,579.83Z" transform="translate(-1398.79 -544.83)"/><polyline class="cls-1" points="35.82 35.21 21.8 35.21 16.21 35.21"/><path class="cls-1" d="M1434.35,562.22c0,6.67-3.93,7.28-8.77,7.28a12.79,12.79,0,0,1-5.87-1,4.48,4.48,0,0,0-1.16-7.73,4.41,4.41,0,0,0-.75-5.23c1.47-5.28,4.4-10.25,7.78-10.25C1430.42,545.33,1434.35,555.54,1434.35,562.22Z" transform="translate(-1398.79 -544.83)"/></svg>