<svg id="Capa_1" data-name="Capa 1" xmlns="http://www.w3.org/2000/svg" viewBox="0 0 36.55 36.13"><defs><style>.cls-1{fill:none;stroke:#fff;stroke-linecap:round;stroke-linejoin:round;}</style></defs><title>icono-acampar</title><polygon class="cls-1" points="34.61 35.63 18.95 35.63 9.72 18.45 25.39 18.45 27.09 21.61 29.12 25.39 34.61 35.63"/><polyline class="cls-1" points="29.12 25.39 34.61 35.63 19.3 35.63 18.95 35.63 9.72 18.45"/><polyline class="cls-1" points="19.3 35.63 0.5 35.63 9.72 18.45"/><line class="cls-1" x1="9.72" y1="35.63" x2="9.72" y2="18.78"/><path class="cls-1" d="M1657.41,674a6.07,6.07,0,0,1-2.27.43,6.13,6.13,0,1,1,2.27-11.81,6.11,6.11,0,0,0,0,11.38Z" transform="translate(-1648.25 -661.66)"/><polyline class="cls-1" points="14.18 18.45 16.11 13.18 20.59 0.95 23.85 9.82"/><polyline class="cls-1" points="27.8 20.62 27.09 21.61 29.12 25.39 36.05 25.39 31.57 13.18 27.09 0.95 23.85 9.82 22.61 13.18 20.67 18.45 25.39 18.45 27.09 21.61 27.09 18.67"/><line class="cls-1" x1="27.09" y1="18.67" x2="27.09" y2="14.08"/><line class="cls-1" x1="29.38" y1="18.45" x2="27.8" y2="20.62"/></svg>