<svg id="Capa_1" data-name="Capa 1" xmlns="http://www.w3.org/2000/svg" viewBox="0 0 111.29 113.64"><defs><style>.cls-1{fill:none;stroke:#000;stroke-linecap:round;stroke-linejoin:round;stroke-width:0.5px;}</style></defs><title>naturaleza-tacho</title><path class="cls-1" d="M1477,557l1.22-3.74s.13-.62.69-.58l.13,0a4.66,4.66,0,0,0,2,.19,12.25,12.25,0,0,0,1.67-.41c.16-.07.49-.12.85.36a5.14,5.14,0,0,0,2.75,1.76,2.54,2.54,0,0,0,1.83-.07.83.83,0,0,1,.85.06.71.71,0,0,1,.18.27c.22.51.57,1.63.73,2.16" transform="translate(-1430.09 -548.5)"/><path class="cls-1" d="M1478.91,552.63a6.2,6.2,0,0,0,2.42,1.84c1.36.47,1.49.75,3.07.38,0,0,2.86.68,4.57-.31" transform="translate(-1430.09 -548.5)"/><path class="cls-1" d="M1483.86,557l.43-2.15c-.82,1-1.81.85-3.3.4a7,7,0,0,1-2.77-2.06" transform="translate(-1430.09 -548.5)"/><path class="cls-1" d="M1453.59,645.15a8.77,8.77,0,0,0,2.05,5.18,18.76,18.76,0,0,0,2.75,2.86,30.1,30.1,0,0,0,4.71,3.24,38.51,38.51,0,0,0,4,1.92,43.51,43.51,0,0,0,7.39,2.34,48.88,48.88,0,0,0,10.68,1.2,49.06,49.06,0,0,0,8.71-.79,45.27,45.27,0,0,0,10.27-3.14,34.18,34.18,0,0,0,5.35-3c4.51-3,7.22-6.64,7.22-9.86" transform="translate(-1430.09 -548.5)"/><line class="cls-1" x1="86.6" y1="96.65" x2="90.14" y2="52.68"/><line class="cls-1" x1="23.49" y1="96.65" x2="17.95" y2="58.72"/><line class="cls-1" x1="47.26" y1="49.41" x2="49.55" y2="113.08"/><line class="cls-1" x1="41.45" y1="53.97" x2="44.37" y2="112.2"/><line class="cls-1" x1="32.49" y1="57.35" x2="36.98" y2="109.86"/><line class="cls-1" x1="28.01" y1="58.72" x2="33.01" y2="107.93"/><line class="cls-1" x1="22.35" y1="58.72" x2="28.29" y2="104.69"/><line class="cls-1" x1="20.31" y1="58.72" x2="25.55" y2="101.83"/><line class="cls-1" x1="58.74" y1="52.32" x2="58.74" y2="113.08"/><line class="cls-1" x1="64.98" y1="53.99" x2="63.76" y2="112.61"/><line class="cls-1" x1="76.6" y1="56.57" x2="74.02" y2="109.46"/><line class="cls-1" x1="81.91" y1="56.43" x2="79.38" y2="106.6"/><path class="cls-1" d="M1454.63,599.11s1.21,5.28,3.63,6.93" transform="translate(-1430.09 -548.5)"/><polyline class="cls-1" points="26.18 48.12 29.29 53.5 33.37 54.02"/><path class="cls-1" d="M1455.51,594.23l2.86-.14a2.16,2.16,0,0,1,1.85.89l5,6.83a1,1,0,0,1-.06,1.27l-1.15,1.33" transform="translate(-1430.09 -548.5)"/><path class="cls-1" d="M1452,593.33a10.6,10.6,0,0,0,7.22-1.39l7.31-.88" transform="translate(-1430.09 -548.5)"/><line class="cls-1" x1="34.32" y1="39.41" x2="38.62" y2="42.95"/><path class="cls-1" d="M1471.42,591.27s-3.47,1.06-4.35,2.06a1.57,1.57,0,0,0,.2,2.5,13.46,13.46,0,0,0,5,2.8" transform="translate(-1430.09 -548.5)"/><path class="cls-1" d="M1472.58,590.83s6.33,1.89,7.39,2" transform="translate(-1430.09 -548.5)"/><path class="cls-1" d="M1470.91,595.77s4.6.29,7,1.74a11.27,11.27,0,0,0-2.24,2,6.92,6.92,0,0,1-2.24,1.77c-.8.5-2.42,1.32-2.42,1.32l-8.66,3.2-4.57,1.69h-7.41a5,5,0,0,0-4.47,0s-7.36-.91-7.36-.91l-2.78-.65-1.59-.68-3.86-.2a31.75,31.75,0,0,1,3.51-4.69c0-.06,1.33-1.92,2-2.81s2.48-2.32,3.11-5a17.56,17.56,0,0,0,.39-5.12l-.55-10-1.39-5.93-.1-5.54-.3-1.22" transform="translate(-1430.09 -548.5)"/><path class="cls-1" d="M1483.49,591a20.93,20.93,0,0,1,5,4.07,37.38,37.38,0,0,1,3.26,5.09" transform="translate(-1430.09 -548.5)"/><path class="cls-1" d="M1477.94,597.51a29.09,29.09,0,0,1,5.55,1.14c2.24.81,5.34,2,5.34,2l1.75-.07a1,1,0,0,1,.49.09l7.56,3.38s2.23.36,3.18.45,8.15.9,8.15.9l5.32-1.3,7.4-4.42,6.13-3.08,4-1.51s7.56-3.89,8.33-3.89c0,0-1-6.25-1.14-7.13,0,0-4-8.39-4.5-9.75s-2.38-7.27-2.63-8a.47.47,0,0,0-.06-.15l-1.42-3a2.05,2.05,0,0,0-1.22-1.09,4.45,4.45,0,0,0-1.65-.17c-1.67.12-2.52,2.22-2.52,2.22a5.91,5.91,0,0,1-2.12,2.44c-1.23.56-4.67,1-7.18,1.41s-6.94,1.44-10.77,1.44l-.19.33-8.63.67-.45-.43-3,.27" transform="translate(-1430.09 -548.5)"/><line class="cls-1" x1="65.75" y1="52.12" x2="72.62" y2="52.8"/><path class="cls-1" d="M1506.79,596.28a55.92,55.92,0,0,1-4.68,5.58,19,19,0,0,1-2.14,1.47" transform="translate(-1430.09 -548.5)"/><path class="cls-1" d="M1508.05,603.92s2.51-8.88,4.16-10.61" transform="translate(-1430.09 -548.5)"/><path class="cls-1" d="M1514.57,594.66l5.66-5.37.41-6.57,5.69.68s2.27.81,6.17-1" transform="translate(-1430.09 -548.5)"/><path class="cls-1" d="M1531.17,590.13a5,5,0,0,0,2.54.4c1.34-.18,2-.71,2.22-1.61a5,5,0,0,0-.94-3.75" transform="translate(-1430.09 -548.5)"/><path class="cls-1" d="M1535.29,584.8a3.85,3.85,0,0,1,2.28-1.28,4.34,4.34,0,0,1,2.42.58" transform="translate(-1430.09 -548.5)"/><path class="cls-1" d="M1520.23,589.29a117.75,117.75,0,0,1-25.16-1c-13.74-2.06-9.29-1.37-9.29-1.37" transform="translate(-1430.09 -548.5)"/><path class="cls-1" d="M1486.87,588.08l-2.16-1.69a28.74,28.74,0,0,1-8.24-1.74s-1.86-.69-1.86-.69-8.84,1.86-12,2.82-10.25,3.45-10.25,3.45-3.68,3.49-5.46,4.34" transform="translate(-1430.09 -548.5)"/><line class="cls-1" x1="9.42" y1="30.39" x2="13.55" y2="44.38"/><path class="cls-1" d="M1439.27,595.57a38.15,38.15,0,0,1,8.4-4.51c4.13-1.41,10.43-2.83,10.43-2.83" transform="translate(-1430.09 -548.5)"/><path class="cls-1" d="M1450,579.86a33.1,33.1,0,0,0,.56,5.1c.41,1.41,1,4.71,1,4.71" transform="translate(-1430.09 -548.5)"/><path class="cls-1" d="M1508.05,570.46s-1.46,5.72-2.13,7.6-5.69,10.65-5.69,10.65" transform="translate(-1430.09 -548.5)"/><path class="cls-1" d="M1506.24,578.06l3,11.24,4.56-5.8a42.67,42.67,0,0,1,4.49-3.55c2.15-1.41,5.75-3.68,5.75-3.68l2.06-1.51a33.62,33.62,0,0,1,7.78-2.65" transform="translate(-1430.09 -548.5)"/><path class="cls-1" d="M1525.51,571.23a37.31,37.31,0,0,0,6.13-4.66" transform="translate(-1430.09 -548.5)"/><path class="cls-1" d="M1517.63,568.46s1.77.84,5.84.44a9.9,9.9,0,0,0,6.11-2.64" transform="translate(-1430.09 -548.5)"/><path class="cls-1" d="M1524.72,566s1.64.08,4.35-2.2" transform="translate(-1430.09 -548.5)"/><polyline class="cls-1" points="66.56 21.51 66.29 21.14 75.02 20.51 75.83 20.94"/><path class="cls-1" d="M1476.28,584.58l1-1.15a2.78,2.78,0,0,1,1.36-.65c.64,0,3.53-.41,3.53-.41a5.23,5.23,0,0,0,1.71-.77c.86-.59,16.53-10.17,16.53-10.17" transform="translate(-1430.09 -548.5)"/><path class="cls-1" d="M1494.26,570.73l-2.72-1.43a1.76,1.76,0,0,0-1.82-.17c-1.13.46-4.5,1.33-4.5,1.33a1.36,1.36,0,0,1-1.08.18,13.07,13.07,0,0,0-2.2-.15,17,17,0,0,1-2,.24,9.33,9.33,0,0,0-2.23-.46c-.7,0-4.7-.07-4.7-.07l-9.87.13-7.27-.67-3-.35s-5-.71-6.5-1.07a38,38,0,0,1-4.3-1.35,16.81,16.81,0,0,1-1.94-1l-2.34,0-.92-1.34v-.26l2,0,1.16,1.24-2.47,0" transform="translate(-1430.09 -548.5)"/><line class="cls-1" x1="9.92" y1="16.97" x2="10.04" y2="17.41"/><path class="cls-1" d="M1490.36,569.3s2,4.07-1.61,4.74" transform="translate(-1430.09 -548.5)"/><path class="cls-1" d="M1483.51,579.3a20.66,20.66,0,0,1,2.27-3.22c.87-.83,2.38-2.22,2.38-2.22l-3.1-2.65" transform="translate(-1430.09 -548.5)"/><path class="cls-1" d="M1483,570.92l3.58,2.91s.45.37.73.11.17-.68-.18-1" transform="translate(-1430.09 -548.5)"/><path class="cls-1" d="M1470.45,581.57s5.1-5.16,6.72-6.1" transform="translate(-1430.09 -548.5)"/><polyline class="cls-1" points="49.49 22.71 32.9 22.71 30.9 24.41"/><path class="cls-1" d="M1461.29,571.21s-10.26-1.22-11.44-1.16" transform="translate(-1430.09 -548.5)"/><path class="cls-1" d="M1444.63,567.75s-.34,2.81,1,4" transform="translate(-1430.09 -548.5)"/><path class="cls-1" d="M1437.32,566.25l1.23,2a2.36,2.36,0,0,0,.85.84l6.66,3.94a3,3,0,0,0,.41.19,35.7,35.7,0,0,0,5,1.53" transform="translate(-1430.09 -548.5)"/><path class="cls-1" d="M1483.88,548.75c-21.44,0-38.89,2-39.45,4.42v.07a.13.13,0,0,0,0,.06c0,.79,1.78,1.54,4.9,2.2h0c6.74,1.4,19.68,2.35,34.53,2.35s27.8-1,34.54-2.35h0c3.12-.66,4.89-1.41,4.89-2.2C1523.35,550.78,1505.68,548.75,1483.88,548.75Zm31.76,6.34c-1,.19-2.22.37-3.54.54-.06-.39-.56-.77-1.44-1.12" transform="translate(-1430.09 -548.5)"/><path class="cls-1" d="M1519,554.25l-.57-.19h0a60,60,0,0,0-7-1.64h0a176.84,176.84,0,0,0-55.11,0h-.06a59.79,59.79,0,0,0-7,1.64h0l-.57.19" transform="translate(-1430.09 -548.5)"/><path class="cls-1" d="M1443.49,557.59v0a1.13,1.13,0,0,0,0,.25c0,3.86,18.11,6.37,40.43,6.37s40.43-2.51,40.43-6.37v-.09" transform="translate(-1430.09 -548.5)"/><line class="cls-1" x1="94.14" y1="8.91" x2="94.14" y2="8.9"/><line class="cls-1" x1="22.03" y1="6.6" x2="22.02" y2="6.6"/><line class="cls-1" x1="85.55" y1="6.6" x2="85.55" y2="6.6"/><path class="cls-1" d="M1518.42,555.5h0" transform="translate(-1430.09 -548.5)"/><path class="cls-1" d="M1443.68,556.67c-3.24.86-5.07,1.83-5.07,2.87a.58.58,0,0,0,0,.19c.73,3.36,20.71,6,45.24,6,25,0,45.27-2.79,45.27-6.24,0-1-1.83-2-5.08-2.87" transform="translate(-1430.09 -548.5)"/><path class="cls-1" d="M1449.33,555.51h0" transform="translate(-1430.09 -548.5)"/><path class="cls-1" d="M1515.64,555.09h0a22.9,22.9,0,0,0,3.18-.77l.2-.07c.87-.33,1.34-.67,1.34-1,0-2.1-16.34-3.8-36.49-3.8s-36.48,1.7-36.48,3.8c0,.36.47.7,1.34,1l.2.07a22.9,22.9,0,0,0,3.18.77h0c1,.19,2.22.37,3.55.54A241.57,241.57,0,0,0,1483.8,557h.08a243,243,0,0,0,28.22-1.39c-.06-.39-.56-.77-1.44-1.12" transform="translate(-1430.09 -548.5)"/><path class="cls-1" d="M1518.46,555.5h0" transform="translate(-1430.09 -548.5)"/><path class="cls-1" d="M1456.33,552.41h-.06" transform="translate(-1430.09 -548.5)"/><line class="cls-1" x1="19.22" y1="5.57" x2="19.21" y2="5.57"/><line class="cls-1" x1="88.37" y1="5.57" x2="88.37" y2="5.57"/><path class="cls-1" d="M1511.49,552.42h0" transform="translate(-1430.09 -548.5)"/><path class="cls-1" d="M1449.31,555.5h0" transform="translate(-1430.09 -548.5)"/><path class="cls-1" d="M1455.67,555.63c.06-.39.56-.77,1.44-1.12,3.74-1.52,14.31-2.6,26.77-2.6s23,1.08,26.78,2.6c.88.35,1.38.73,1.44,1.12" transform="translate(-1430.09 -548.5)"/><line class="cls-1" x1="93.26" y1="4.72" x2="94.22" y2="9.27"/><line class="cls-1" x1="13.39" y1="9.12" x2="14.33" y2="4.68"/><line class="cls-1" x1="99.06" y1="11.04" x2="99.06" y2="13.44"/><path class="cls-1" d="M1437.28,564.13a4.28,4.28,0,0,1,.47-1.41c.35-.64.44-1.42,1-1.6" transform="translate(-1430.09 -548.5)"/><line class="cls-1" x1="8.54" y1="11.24" x2="8.76" y2="15.73"/></svg>