<svg id="Capa_1" data-name="Capa 1" xmlns="http://www.w3.org/2000/svg" viewBox="0 0 30.66 103.41"><defs><style>.cls-1,.cls-2{fill:#fff;}.cls-2{stroke:#000;stroke-linecap:round;stroke-linejoin:round;stroke-width:0.5px;}</style></defs><title>naturaleza-botella</title><rect class="cls-1" x="1.26" y="34.54" width="28.25" height="54.16"/><path class="cls-2" d="M1541.56,527.63c0,.76.07,1.53.1,2.3,0,.12,0,.24,0,.36v5.85c0,2.92,0,5.83,0,8.74q0,14.79,0,29.58c0,1.09,0,2.18,0,3.27a4.8,4.8,0,0,1-.14.83" transform="translate(-1512.15 -490.89)"/><path class="cls-2" d="M1534.05,592.76a6.25,6.25,0,0,1,.5.4,2.64,2.64,0,0,0,2.37.63,8.61,8.61,0,0,0,1.58-.36,3.58,3.58,0,0,0,2-1.74,13.94,13.94,0,0,0,1.39-4.43,25.09,25.09,0,0,0,.37-3.45c0-.8.21-1.58.27-2.38a4.16,4.16,0,0,0-.11-1.79,1.59,1.59,0,0,0-1.61-1.18c-1.55-.07-3.11-.14-4.67-.15h-18.69c-1.11,0-2.23.08-3.34.15a1.71,1.71,0,0,0-1.66,1.61,6.92,6.92,0,0,0,.11,2.08c0,.3,0,.6.07.9.07.83.17,1.65.21,2.48a20.5,20.5,0,0,0,.67,3.74,6.76,6.76,0,0,0,1.82,3.52,4.21,4.21,0,0,0,2.08.91s.59.07,1.3.13a2.59,2.59,0,0,0,1.17-.21,5.08,5.08,0,0,0,1.06-1" transform="translate(-1512.15 -490.89)"/><path class="cls-2" d="M1523.55,499.34a1.66,1.66,0,0,1-.47,1.18c-1.17,1.68-2.37,3.34-3.51,5-.39.59-.81,1.17-1.16,1.79s-.75,1.21-1.07,1.84-.76,1.29-1.09,2-.72,1.33-1,2a29,29,0,0,0-1.69,4.31c-.28,1-.56,2.07-.75,3.13a25.83,25.83,0,0,0-.29,2.91,17.14,17.14,0,0,0,0,2.15,1.88,1.88,0,0,0,.79,1.78,3,3,0,0,0,1.28.3c1.12.06,26,0,26.85-.15a1,1,0,0,0,.82-.74,5.32,5.32,0,0,0,.28-1.29c0-.89,0-1.78,0-2.66,0-.65-.18-1.3-.28-1.94a5.31,5.31,0,0,0-.15-.93c-.19-.51-.14-1-.33-1.56s-.29-1-.46-1.54-.36-1.06-.57-1.58a31.71,31.71,0,0,0-1.83-3.92l-2-3.63a36.09,36.09,0,0,0-2.41-3.7c-.79-1.1-1.55-2.21-2.34-3.31a5.26,5.26,0,0,1-.57-1,2,2,0,0,1-.07-.43" transform="translate(-1512.15 -490.89)"/><path class="cls-2" d="M1513.38,527.63c0,.76-.08,1.53-.11,2.3,0,.12,0,.24,0,.36q0,3.18,0,6.36c0,2.79,0,5.58,0,8.37s0,5.27,0,7.91v11.75c0,2.54,0,5.08,0,7.63,0,.75,0,1.5,0,2.26,0,.17-.07.34-.07.5,0,1,0,2,0,3a3.16,3.16,0,0,0,.1.5" transform="translate(-1512.15 -490.89)"/><path class="cls-2" d="M1530.74,495.13" transform="translate(-1512.15 -490.89)"/><path class="cls-2" d="M1525.6,491.28" transform="translate(-1512.15 -490.89)"/><path class="cls-2" d="M1523.76,498.35a8.67,8.67,0,0,0-.11-1.38,1.15,1.15,0,0,1-.39-1.26,2.5,2.5,0,0,0-.07-.54,1.54,1.54,0,0,1,.13-1.13,1,1,0,0,0,.1-.84,1.36,1.36,0,0,1,0-1.24,1.27,1.27,0,0,1,1.29-.81l5.55,0a1.35,1.35,0,0,1,.9.33,2.22,2.22,0,0,1,.56,1.55,2,2,0,0,1-.1.92.92.92,0,0,0,0,.81.63.63,0,0,1,0,.78.38.38,0,0,0-.07.51,1.06,1.06,0,0,1,.11.21c.08.32,0,.69-.22.75v1.32" transform="translate(-1512.15 -490.89)"/><path class="cls-2" d="M1523.8,497.07c.67,0,1.34,0,2,0s1.58,0,2.37,0h3.14" transform="translate(-1512.15 -490.89)"/><path class="cls-2" d="M1518.81,591.07c.24,0,.48,0,.71,0a1.18,1.18,0,0,1,1.31.93c.12.34,0,.72.26,1l.07.09a2.25,2.25,0,0,0,1.77.87l1.77,0c.77,0,1.31,0,1.69-.9.15-.34.27-.7.44-1s.13-.84.69-.94c0,0,.44-.09.66,1a3.26,3.26,0,0,0,.6,1.33c.38.55,1.24.46,1.82.48.28,0,.57,0,.86,0a2.72,2.72,0,0,0,2-.5,1.74,1.74,0,0,0,.57-1,3.06,3.06,0,0,1,.27-.89,1.08,1.08,0,0,1,1-.51c.26,0,.53,0,.79,0" transform="translate(-1512.15 -490.89)"/><path class="cls-2" d="M1526,503.22" transform="translate(-1512.15 -490.89)"/><path class="cls-2" d="M1524.92,502.21" transform="translate(-1512.15 -490.89)"/><line class="cls-2" x1="11.1" y1="4.81" x2="19.31" y2="4.81"/><rect class="cls-2" x="10.7" y="7.45" width="9.01" height="0.99" rx="0.46"/><path class="cls-2" d="M1523.6,502.31c.85,0,1.71.69,2.56.69s1.7-.69,2.56-.69,1.7.69,2.56.69" transform="translate(-1512.15 -490.89)"/><path class="cls-2" d="M1522.25,505.29c.86,0,1.72.6,2.58.77a2.66,2.66,0,0,0,.89,0,15.92,15.92,0,0,0,1.72-.5,4.36,4.36,0,0,1,1.72-.09c.3,0,.59.11.89.17a13.23,13.23,0,0,0,2.58.22" transform="translate(-1512.15 -490.89)"/><path class="cls-2" d="M1520.91,508.26c1.08,0,2.17.83,3.26,1a3,3,0,0,0,1.11-.07c.72-.16,1.44-.53,2.16-.65a5.32,5.32,0,0,1,2.17.16c.37.08.74.18,1.11.23a23.72,23.72,0,0,0,3.26-.15" transform="translate(-1512.15 -490.89)"/><path class="cls-2" d="M1519.56,511.24c1.32,0,2.63,1,3.94,1.16a3.65,3.65,0,0,0,1.34-.16,17.4,17.4,0,0,1,2.61-.81,6.8,6.8,0,0,1,2.61.42,7,7,0,0,0,1.34.29c1.31.11,2.62-.51,3.93-.51" transform="translate(-1512.15 -490.89)"/><path class="cls-2" d="M1518.22,514.21c1.54,0,3.07,1.28,4.61,1.36a4.33,4.33,0,0,0,1.57-.25,13.78,13.78,0,0,1,3-1,8.15,8.15,0,0,1,3,.67,6,6,0,0,0,1.57.34c1.54.09,3.07-.86,4.61-.86" transform="translate(-1512.15 -490.89)"/><path class="cls-2" d="M1516.88,517.19c1.76,0,3.52,1.5,5.28,1.55a5,5,0,0,0,1.8-.34,13.12,13.12,0,0,1,3.49-1.12,9.91,9.91,0,0,1,3.5.93,6.14,6.14,0,0,0,1.8.4c1.76.06,3.52-1.23,5.28-1.23" transform="translate(-1512.15 -490.89)"/><path class="cls-2" d="M1515.53,520.16c2,0,4,1.73,6,1.75a5.48,5.48,0,0,0,2-.43c1.31-.49,2.62-1.25,3.94-1.27a11.47,11.47,0,0,1,3.94,1.18,6.16,6.16,0,0,0,2,.46c2,0,4-1.59,6-1.59" transform="translate(-1512.15 -490.89)"/><path class="cls-2" d="M1514.19,523.14c2.21,0,4.42,1.94,6.63,1.94s4.43-2,6.64-1.94,4.42,2,6.64,2,4.42-2,6.63-2" transform="translate(-1512.15 -490.89)"/><line class="cls-2" x1="7.41" y1="71.2" x2="21.09" y2="46.71"/><line class="cls-2" x1="13.2" y1="68.2" x2="21.09" y2="54.07"/><line class="cls-2" x1="15.33" y1="69.83" x2="23.22" y2="55.7"/></svg>