<svg id="Capa_1" data-name="Capa 1" xmlns="http://www.w3.org/2000/svg" viewBox="0 0 31.57 44.84"><defs><style>.cls-1{fill:#fff;}.cls-2{fill:none;stroke:#000;stroke-linecap:round;stroke-linejoin:round;stroke-width:0.5px;}</style></defs><title>naturaleza-manzana</title><polygon class="cls-1" points="14.32 0.52 13.73 0.39 13.73 1.94 14.32 5.04 14.98 7.31 14.96 8.22 13.05 8.08 8.84 7.53 5.6 8.47 2.81 9.72 1.04 11.11 1.04 11.61 1.89 11.87 3.28 13.06 4.15 14.4 5.32 15.19 7.08 17.17 8.07 18.92 8.54 20.51 8.84 21.99 9.03 22.96 8.56 26.14 8.52 26.97 8.73 28.99 8.83 31.04 8.52 32.52 7.16 34.57 4.5 35.98 2.26 36.64 0.25 36.78 1.33 38.44 3.63 41.55 7.71 43.73 9.38 44.26 12.66 44.26 16.29 44.03 20.43 44.53 22.59 44.53 23.55 44.4 25.91 43.23 28.02 41.32 29.92 39.16 30.89 37.22 31.16 36.28 30.45 36.1 29.03 36.07 26.53 35.43 24.69 35.13 23.35 33.95 22.25 32.72 21.28 29.81 21.21 27.22 21.24 26.03 20.81 21.84 21.11 18.34 22.28 17.09 23.39 15.49 24.04 14.26 25.44 13.08 27.01 11.48 28.64 10.04 26.96 9.43 23.78 8.08 20.08 8.17 15.26 8.46 14.48 3.18 14.32 1.31 14.32 0.52"/><path class="cls-2" d="M1536.74,558.74a.44.44,0,0,1-.35.23,5.55,5.55,0,0,1-1.15.13,6.56,6.56,0,0,1-2.19-.39c-.33-.12-.66-.26-1-.37a3.62,3.62,0,0,0-.85-.2,1.69,1.69,0,0,0-.66.13l-1.29.38-.77.25a11.64,11.64,0,0,1-1.31.25,9.06,9.06,0,0,1-1.64.08,5.5,5.5,0,0,1-1.93-.35c-.3-.12-.57-.28-.86-.42l-.49-.23h-.11a14.41,14.41,0,0,0-1.73.38,5.59,5.59,0,0,1-1.22.23c-.23,0-.45,0-.68,0a5.51,5.51,0,0,1-.71-.06l-.78-.07a10,10,0,0,1-1.79-.39,11.71,11.71,0,0,1-2.53-1.13,1.13,1.13,0,0,1-.38-.31c0-.07-.2-.09-.3-.1s-.1.13-.07.23a3.82,3.82,0,0,0,.59,1,14.25,14.25,0,0,1,1.33,1.76c.26.41.54.8.81,1.2a3.62,3.62,0,0,0,1.4,1.23c.54.28,1.07.59,1.61.88a18,18,0,0,0,2.55,1.11,5.11,5.11,0,0,0,1.16.25,12.53,12.53,0,0,0,2.29,0c.36,0,.73,0,1.09-.05.55,0,1.1,0,1.64-.07.33,0,.66-.09,1-.11a7.48,7.48,0,0,1,.82,0c.22,0,.45,0,.67,0l1.14.16.73.1,1,.16a4.21,4.21,0,0,0,.5,0c.42,0,.84.06,1.26,0a5.45,5.45,0,0,0,1.76-.21c.39-.14.76-.32,1.13-.49a8.11,8.11,0,0,0,1.7-1.07,12.91,12.91,0,0,0,1.56-1.49,22.22,22.22,0,0,0,2.18-2.76,8.33,8.33,0,0,0,.95-2.08.12.12,0,0,0,0-.08.54.54,0,0,1,.14-.45s0-.08,0-.12" transform="translate(-1511.7 -520.18)"/><path class="cls-2" d="M1531.43,545.29a2.15,2.15,0,0,0,0,.34c0,.82,0,1.64,0,2.46,0,.4,0,.81,0,1.21s.06.9.11,1.34.14.91.2,1.36a9.72,9.72,0,0,0,.42,1.85,4.18,4.18,0,0,0,.61,1.3,2.65,2.65,0,0,0,.57.59,6.77,6.77,0,0,1,1,1,7.18,7.18,0,0,0,1,.94l1,.82a2.6,2.6,0,0,0,.38.27.31.31,0,0,0,.21,0,12,12,0,0,1,1.58-.23,5,5,0,0,0,1.91-.59,13.65,13.65,0,0,0,1.9-1.31,1.24,1.24,0,0,0,.17-.23" transform="translate(-1511.7 -520.18)"/><path class="cls-2" d="M1540.67,530.19" transform="translate(-1511.7 -520.18)"/><path class="cls-2" d="M1526.94,528.48a6.25,6.25,0,0,1-1.06-.11l-1-.13c-.29,0-.57-.1-.85-.15l-.76-.15-1-.16c-.23,0-.47,0-.71-.06h-1.21a5,5,0,0,0-1.19.22,13.53,13.53,0,0,0-2,.75l-1.31.55a7.93,7.93,0,0,0-1.36.77l-1.54,1.06a.76.76,0,0,0-.39.56v0a3.43,3.43,0,0,1,.71.14s.07.06.11.09.27.22.42.32a8.22,8.22,0,0,1,.67.49,7.06,7.06,0,0,1,.71.83c.27.34.51.7.77,1.05a1,1,0,0,0,.29.24,5,5,0,0,1,1.25,1c.36.39.71.8,1,1.21a6.22,6.22,0,0,1,.6.85,11.24,11.24,0,0,1,.63,1.25,6.14,6.14,0,0,1,.45,1.64,9.42,9.42,0,0,0,.23,1.29.65.65,0,0,0,.39.49,3.69,3.69,0,0,1,1.38,1l0,0" transform="translate(-1511.7 -520.18)"/><path class="cls-2" d="M1520.33,547.64c0,.06,0,.11,0,.16,0,.24,0,.47.06.71l.12,1.14c0,.2,0,.39,0,.59,0,.36,0,.72,0,1.08a3.84,3.84,0,0,1-.36,1.49,9.72,9.72,0,0,1-.8,1.4,3.31,3.31,0,0,1-.91.84,14.9,14.9,0,0,1-3.25,1.48,5.09,5.09,0,0,1-1.9.31h-.73a1.12,1.12,0,0,0-.23.06" transform="translate(-1511.7 -520.18)"/><path class="cls-2" d="M1519.69,529.3c.28,0,.55,0,.82,0a4.27,4.27,0,0,1,1,0,8.62,8.62,0,0,1,1.5.36c.59.2,1.17.42,1.76.61s.91.24,1.36.39.55-1.2.79-1.36a.09.09,0,0,0,0-.06v-.77c0-.13,0-.27,0-.4s0-.48,0-.71-.11-.73-.17-1.1-.17-.81-.27-1.22a.64.64,0,0,1,0-.31.86.86,0,0,0-.07-.34c-.1-.43-.23-.85-.3-1.28a7.16,7.16,0,0,1-.1-1.73l.06-.41a.31.31,0,0,0-.2-.35c-.17-.07-.34-.11-.54-.18,0,.1,0,.16,0,.23,0,.32,0,.65,0,1s.1.92.18,1.37.19.93.31,1.4.23.8.33,1.2c.15.57.28,1.14.4,1.72,0,.23.09.92.12,1.15" transform="translate(-1511.7 -520.18)"/><path class="cls-2" d="M1542.83,556.33l-.57-.06h0a4.72,4.72,0,0,1-1.5,0c-.65-.12-1.28-.34-1.91-.52a9.41,9.41,0,0,0-1.47-.25,6.5,6.5,0,0,1-.75-.12,1.69,1.69,0,0,1-.94-.63,4.77,4.77,0,0,0-.72-.7,3.39,3.39,0,0,1-.56-.51,6.19,6.19,0,0,1-1.06-2.19A5.69,5.69,0,0,1,1533,550c0-.3-.1-.59-.11-.89s0-.81,0-1.21a3.59,3.59,0,0,1,.14-.86.42.42,0,0,0,0-.26c0-.1,0-.2-.06-.3-.06-.36-.13-.71-.19-1.07s-.15-.69-.19-1-.09-.93-.1-1.39q0-1,0-2c0-.46.09-.92.11-1.38a1.92,1.92,0,0,1,.47-1.21c.16-.17.33-.35.48-.54a6.36,6.36,0,0,0,.46-.69,4.17,4.17,0,0,1,.82-1.08.78.78,0,0,0,.23-.47,1,1,0,0,1,.14-.45,3.27,3.27,0,0,1,.81-1c.18-.14.38-.26.57-.4a4.36,4.36,0,0,0,.81-.85,3.18,3.18,0,0,1,.44-.52,8,8,0,0,1,.7-.61,8.76,8.76,0,0,1,1.17-.82c.17-.1.38-.19.46-.39a1.43,1.43,0,0,1,.14-.34,1.92,1.92,0,0,0-.41-.2,11.06,11.06,0,0,1-1.27-.41c-.61-.25-1.19-.55-1.79-.82a5.78,5.78,0,0,0-1.67-.47,13.69,13.69,0,0,0-1.81-.06l-.84,0-1.43.11c-.66.05-1.31.11-2,.15-.5,0-1,0-1.5,0l-.68,0" transform="translate(-1511.7 -520.18)"/><path class="cls-2" d="M1520.07,534.06a.75.75,0,0,0,.15.44c.42.74.86,1.47,1.28,2.2.22.37.43.75.63,1.13a2.64,2.64,0,0,1,.21.79c0,.15.05.31.07.46A18.5,18.5,0,0,0,1523,541c.12.41.23.82.34,1.22,0,.08,0,.16,0,.24a4.69,4.69,0,0,1,0,1.4v.23l0,1a1.06,1.06,0,0,0,0,.25c0,.25.1.49.15.74s.13.58.17.87a2,2,0,0,1-.12,1.24,1.29,1.29,0,0,0,0,.21,3.38,3.38,0,0,1-.52,1.06,1.45,1.45,0,0,0-.28,1,2.07,2.07,0,0,1-.13.85,3.2,3.2,0,0,1-.33.67,1.21,1.21,0,0,0-.13.42c-.1.52-.21,1-.29,1.57a4.76,4.76,0,0,0,0,1.46c.08.47.14.94.22,1.41s.16.75.23,1.13a1.15,1.15,0,0,1,0,.26" transform="translate(-1511.7 -520.18)"/><path class="cls-2" d="M1528.94,544.65c0,.36,0,.72-.07,1.08a5,5,0,0,1-.06.78c-.1.56-.21,1.11-.34,1.66s-.28,1-.41,1.52c-.08.31-.14.63-.2.95s-.17.76-.23,1.15a4.73,4.73,0,0,0,0,.54" transform="translate(-1511.7 -520.18)"/><path class="cls-2" d="M1527.23,545.29c-.14.39-.94,2.52-1.06,2.91a.89.89,0,0,0,.43,1,2.06,2.06,0,0,1,.33.27.27.27,0,0,0,.15.09c.14,0,.16.11.18.19a1.86,1.86,0,0,1,0,.33c0,.34.07.68.09,1s0,.66,0,1a.35.35,0,0,0,.09.29.1.1,0,0,1,0,.09.83.83,0,0,0,.06.62c.14.53.3,1,.49,1.56a4.72,4.72,0,0,0,1.66,2.32l1.22.91a1.37,1.37,0,0,1,.2.22" transform="translate(-1511.7 -520.18)"/><path class="cls-2" d="M1540.26,530.38c-.25.06-.55.1-.8.17-.44.14-.88.29-1.31.45a11,11,0,0,0-2.3,1.16,1.12,1.12,0,0,1-.53.13,9.58,9.58,0,0,0-1.59.34,6.37,6.37,0,0,0-2.43,1.4,3,3,0,0,0-.52.75.11.11,0,0,0,0,.08c0,.26.12.51.16.77s.06.46.08.68,0,.24,0,.36c0,.63,0,1.27,0,1.9a6.11,6.11,0,0,0,.07,1,3.08,3.08,0,0,1-.09,1.21c-.08.4-.19.8-.31,1.2a1.31,1.31,0,0,1-.21.36c-.26.34-.53.66-.77,1s-.37.6-.56.9a3.13,3.13,0,0,1-.2.3h-.08" transform="translate(-1511.7 -520.18)"/><path class="cls-2" d="M1520.68,542.57c0,.17,0,.33-.06.5,0,.39,0,.78,0,1.17s-.07.58-.1.87-.09.64-.14,1a3.14,3.14,0,0,0-.12.51c0,.2-.15.38-.07.58a4.08,4.08,0,0,0,.19.42s.09.08.12.13c.18.24.37.48.54.74a7.71,7.71,0,0,1,.82,1.62,4.63,4.63,0,0,1,.31,1.31l0,.41a.88.88,0,0,0,0,.15" transform="translate(-1511.7 -520.18)"/><path class="cls-2" d="M1531.24,529.27l-1.11.09-1.22.17-1.27.14a.61.61,0,0,1-.5-.23" transform="translate(-1511.7 -520.18)"/><path class="cls-2" d="M1530.75,534.8l-.59-.25a5,5,0,0,0-1-.26,3.51,3.51,0,0,0-1.37,0l-.81.2" transform="translate(-1511.7 -520.18)"/><path class="cls-2" d="M1527.72,540.9c.1.25.26.62.33.87l.8,2.66a.84.84,0,0,0,.06.14" transform="translate(-1511.7 -520.18)"/><path class="cls-2" d="M1523.31,542.65a5,5,0,0,1-.92.92.36.36,0,0,0-.13.23,2,2,0,0,1-.42,1,15.49,15.49,0,0,1-1.38,1.84,1.12,1.12,0,0,1-.24.19" transform="translate(-1511.7 -520.18)"/><path class="cls-2" d="M1530.73,542.11a2.51,2.51,0,0,1,.2.76c.07.49.13,1,.21,1.48a4.32,4.32,0,0,0,.17.71.45.45,0,0,0,.22.27c.18.14.32.32.48.47s.49.48.75.71a.44.44,0,0,0,.2.08" transform="translate(-1511.7 -520.18)"/><path class="cls-2" d="M1535.6,532.29a3.19,3.19,0,0,1-.18,1.06c-.11.36-.22.72-.31,1.09a5.1,5.1,0,0,0-.08.67,2.7,2.7,0,0,0,.08.39" transform="translate(-1511.7 -520.18)"/><path class="cls-2" d="M1533.8,537.55c-.1,0-.2,0-.27,0l-2.32,2.24" transform="translate(-1511.7 -520.18)"/><path class="cls-2" d="M1527.7,541c-.24.39-.63,1-.86,1.36s-.32.56-.48.84l-.19.27a8.12,8.12,0,0,0-.75,1.54,8.72,8.72,0,0,0-.44,1.51c-.06.3-.15.6-.22.9a2.72,2.72,0,0,0-.08,1,1.36,1.36,0,0,0,.27.5c.29.43.6.84.89,1.27s.69,1.06,1,1.59l.59.88" transform="translate(-1511.7 -520.18)"/><path class="cls-2" d="M1523.66,547s.11,0,.13.08a3.44,3.44,0,0,0,.66,1c.08.08.08.23.22.26" transform="translate(-1511.7 -520.18)"/><path class="cls-2" d="M1523.31,545.29c-.11.05-.12.16-.14.25l-.09.57-.48,1.36a.71.71,0,0,0,.05.22c.21.32.44.63.66.94,0,0,0,0,0,0" transform="translate(-1511.7 -520.18)"/><path class="cls-2" d="M1526.14,524.38a1.91,1.91,0,0,0,.16.32c0,.06.1.09.15.13" transform="translate(-1511.7 -520.18)"/><path class="cls-2" d="M1513.33,531.83a.82.82,0,0,1,.41,0l1.29.1a5.25,5.25,0,0,1,1.51.34c.34.13.67.28,1,.43s.76.33,1.13.51a4.77,4.77,0,0,1,1.15.73.45.45,0,0,0,.49.11c.51-.14,1-.25,1.55-.38a7.06,7.06,0,0,1,2.15-.22,5.46,5.46,0,0,1,1.54.3,6,6,0,0,1,1.18.54.52.52,0,0,1,.25.44c0,.44.16.87.24,1.31s.17.85.25,1.28.11.73.15,1.1.05.55.06.82c0,.46,0,.92,0,1.38,0,.1,0,.23,0,.3s0,.43,0,.64c0,.36,0,.72,0,1.08s-.06.55-.09.82-.07.63-.13.94-.14.53-.19.79a2.63,2.63,0,0,0-.08.68,5.83,5.83,0,0,0,.15.7c.11.48.21,1,.29,1.46a2,2,0,0,1-.22,1.32,2.39,2.39,0,0,1-.21.26" transform="translate(-1511.7 -520.18)"/></svg>