<svg id="Capa_1" data-name="Capa 1" xmlns="http://www.w3.org/2000/svg" viewBox="0 0 57.04 49.5"><defs><style>.cls-1{fill:#fff;}.cls-2{fill:none;stroke:#000;stroke-linecap:round;stroke-linejoin:round;stroke-width:0.5px;}</style></defs><title>naturaleza-banana</title><path class="cls-1" d="M1535.27,538.74l4.35-1.12,6.16-2.2,3.34-2,1.49-3,.56-2.41,0-1.52-.81-2.91-.25-2.68-.05-1,.22-.58.72-.29.94-.12,1.17-.27.48,1.93,1.54,2.77,2.75,3,2.12,2.75,1.47,2.54.89,3.72.22,1.15.92,2.8.8,3.21v3.14l-.4,2.27-1.41,2.71-1.69,1.52-1.54.72-2,.5-1.57.12-4.27,3.53L1547,560l-5.09,2.94-6.06,2.2-2.51.5-3.44.53-3.45.12-4.88-.52-3.1-.75-.6.36-.51-.16a1.67,1.67,0,0,1-.6-.4.59.59,0,0,1-.08-.5,2.06,2.06,0,0,0-.17-.39l-.27-.13-.43-.1-.68-.45-.43-.48-.47-.07-.53-.41-.09-.66.74-3.32,1.13-2.89,1.68-3.11,1.45-1.9-2.37-1.2.07-.74.69-.69h1.12l2.34.54,2.34-1.79,1.49-1.57s-4.7-.07-4.68-.12-6.18-.34-6.18-.34l-4.37-.93-1-.65v-.86l1.58-1,3.33-1,1.31-.31,5.39-.84,5.67-.14,3.91.53,2.4.76Zm6.52,1.25,1.91-.18,3.2-1.53,3-2,.58-1.67-7.08,4.17Z" transform="translate(-1507.61 -517.09)"/><path class="cls-2" d="M1553.48,551.08c-7,6.51-17.21,11.3-28.56,12.41" transform="translate(-1507.61 -517.09)"/><path class="cls-2" d="M1531.64,540.1c-9.52-4.58-43.84,4.53-7.35,4.9" transform="translate(-1507.61 -517.09)"/><path class="cls-2" d="M1553.35,531.13a29.66,29.66,0,0,1,.08-3.56c-3.78,10.45-17,9-26.16,14.63-2.08,1.28-3.85,4.45-6.89,6.16-.78.13-3.14-1.43-4.07,0" transform="translate(-1507.61 -517.09)"/><path class="cls-2" d="M1562.47,536.1c2.35,5.12,4.7,16.92-6.91,17.41a50.32,50.32,0,0,1-10.93,7.85l-1.17.7c-5.34,3.15-15.93,6.05-24.85,2.94" transform="translate(-1507.61 -517.09)"/><path class="cls-2" d="M1526.7,542.54c-5.44,1.39-12.7-1.25-18.65.2" transform="translate(-1507.61 -517.09)"/><path class="cls-2" d="M1553,517.34c.15,5.69,4.9,7.94,7.87,12.91a9.67,9.67,0,0,1,1.14,3,20.86,20.86,0,0,1-6.49,20.29" transform="translate(-1507.61 -517.09)"/><path class="cls-2" d="M1508.48,542.84c4.92-.28,10.65,2,16.85,1" transform="translate(-1507.61 -517.09)"/><path class="cls-2" d="M1553.76,533.56c-1.58,4.34-4.41,14-11.87,11.48-1.35-.22-3.73-2.07-5.77,0-6.26,6.13-10.13,14.12-19.3,18.84-1.41.4-3.3-1.74-1.14-3.66" transform="translate(-1507.61 -517.09)"/><path class="cls-2" d="M1520.38,548.36a23.54,23.54,0,0,0-6.77,13.85" transform="translate(-1507.61 -517.09)"/><path class="cls-2" d="M1529,550.36c-2.24,2.46-4,5.63-8,8.68" transform="translate(-1507.61 -517.09)"/><path class="cls-2" d="M1553.41,531.14c-2.3,5.39-11.26,6.45-16.19,13" transform="translate(-1507.61 -517.09)"/><path class="cls-2" d="M1538.93,542.39c2,.49,4.66,1.76,7.44,2.54" transform="translate(-1507.61 -517.09)"/><path class="cls-2" d="M1563.18,544c0,2.48-2,7.69-5.82,7.72" transform="translate(-1507.61 -517.09)"/><path class="cls-2" d="M1538.36,553.89c-2.12,1.61-8.6,3-12.42,3.13" transform="translate(-1507.61 -517.09)"/><path class="cls-2" d="M1551.22,526.76a13,13,0,0,1-2.25,6.77" transform="translate(-1507.61 -517.09)"/><path class="cls-2" d="M1552.71,522.24c-3.58-4.59-2.79-.72-1.51,4.43" transform="translate(-1507.61 -517.09)"/><path class="cls-2" d="M1548.73,543.45c-5.45,6.13-13.88,11.66-19.4,9.74" transform="translate(-1507.61 -517.09)"/><path class="cls-2" d="M1553.22,530.71a34,34,0,0,1-3.74,4.39" transform="translate(-1507.61 -517.09)"/><path class="cls-2" d="M1537.68,551.4c-1.8,0-4,1.46-7,.77" transform="translate(-1507.61 -517.09)"/><path class="cls-2" d="M1553.15,518.23c.2,1.25-3.56,0-3,2.14" transform="translate(-1507.61 -517.09)"/><path class="cls-2" d="M1550.61,534.52c-1,2.32-.09,1.36-3,3.28l-.56.35c-1.37.78-3.21,2.1-5.39,1.85" transform="translate(-1507.61 -517.09)"/><path class="cls-2" d="M1523,561.15a22.61,22.61,0,0,1-2.85,2" transform="translate(-1507.61 -517.09)"/><path class="cls-2" d="M1516.74,564c-.46,1,1.3,2.36,2,.32,0,0-.81-.51-.46-1.27" transform="translate(-1507.61 -517.09)"/><path class="cls-2" d="M1539.89,544.26c-.14-.35-.53-.61-1.84-1" transform="translate(-1507.61 -517.09)"/><path class="cls-2" d="M1553.46,531.21c.37.44.13,1.06.36,2.32" transform="translate(-1507.61 -517.09)"/><path class="cls-2" d="M1531.55,550.28a23.66,23.66,0,0,0,4,.65" transform="translate(-1507.61 -517.09)"/><path class="cls-2" d="M1516.68,563.84c-.51-.14-.65-1.35-2-1.06" transform="translate(-1507.61 -517.09)"/><path class="cls-2" d="M1553.43,520.73c-.28.1-.29.22-.76,1.33" transform="translate(-1507.61 -517.09)"/><path class="cls-2" d="M1553.37,527.58" transform="translate(-1507.61 -517.09)"/><path class="cls-2" d="M1520,559.8l-.89.7" transform="translate(-1507.61 -517.09)"/><path class="cls-2" d="M1514,561.67c.11.1.07.09.54.5" transform="translate(-1507.61 -517.09)"/><path class="cls-2" d="M1553,523.21a8.55,8.55,0,0,1,.37,2.47" transform="translate(-1507.61 -517.09)"/><path class="cls-2" d="M1513.61,562.23s.5.69,1,.56" transform="translate(-1507.61 -517.09)"/><path class="cls-2" d="M1518.46,550.54c-3.36-1.35-2.07-2.3-2.07-2.3" transform="translate(-1507.61 -517.09)"/><path class="cls-2" d="M1553.48,551.08c-7,6.51-17.21,11.3-28.56,12.41" transform="translate(-1507.61 -517.09)"/><path class="cls-2" d="M1531.64,540.1c-9.52-4.58-43.84,4.53-7.35,4.9" transform="translate(-1507.61 -517.09)"/><path class="cls-2" d="M1553.35,531.13a29.66,29.66,0,0,1,.08-3.56c-3.78,10.45-17,9-26.16,14.63-2.08,1.28-3.85,4.45-6.89,6.16-.78.13-3.14-1.43-4.07,0" transform="translate(-1507.61 -517.09)"/><path class="cls-2" d="M1562.47,536.1c2.35,5.12,4.7,16.92-6.91,17.41a50.32,50.32,0,0,1-10.93,7.85l-1.17.7c-5.34,3.15-15.93,6.05-24.85,2.94" transform="translate(-1507.61 -517.09)"/><path class="cls-2" d="M1526.7,542.54c-5.44,1.39-12.7-1.25-18.65.2" transform="translate(-1507.61 -517.09)"/><path class="cls-2" d="M1553,517.34c.15,5.69,4.9,7.94,7.87,12.91a9.67,9.67,0,0,1,1.14,3,20.86,20.86,0,0,1-6.49,20.29" transform="translate(-1507.61 -517.09)"/><path class="cls-2" d="M1508.48,542.84c4.92-.28,10.65,2,16.85,1" transform="translate(-1507.61 -517.09)"/><path class="cls-2" d="M1553.76,533.56c-1.58,4.34-4.41,14-11.87,11.48-1.35-.22-3.73-2.07-5.77,0-6.26,6.13-10.13,14.12-19.3,18.84-1.41.4-3.3-1.74-1.14-3.66" transform="translate(-1507.61 -517.09)"/><path class="cls-2" d="M1520.38,548.36a23.54,23.54,0,0,0-6.77,13.85" transform="translate(-1507.61 -517.09)"/><path class="cls-2" d="M1529,550.36c-2.24,2.46-4,5.63-8,8.68" transform="translate(-1507.61 -517.09)"/><path class="cls-2" d="M1553.41,531.14c-2.3,5.39-11.26,6.45-16.19,13" transform="translate(-1507.61 -517.09)"/><path class="cls-2" d="M1538.93,542.39c2,.49,4.66,1.76,7.44,2.54" transform="translate(-1507.61 -517.09)"/><path class="cls-2" d="M1563.18,544c0,2.48-2,7.69-5.82,7.72" transform="translate(-1507.61 -517.09)"/><path class="cls-2" d="M1538.36,553.89c-2.12,1.61-8.6,3-12.42,3.13" transform="translate(-1507.61 -517.09)"/><path class="cls-2" d="M1551.22,526.76a13,13,0,0,1-2.25,6.77" transform="translate(-1507.61 -517.09)"/><path class="cls-2" d="M1552.71,522.24c-3.58-4.59-2.79-.72-1.51,4.43" transform="translate(-1507.61 -517.09)"/><path class="cls-2" d="M1548.73,543.45c-5.45,6.13-13.88,11.66-19.4,9.74" transform="translate(-1507.61 -517.09)"/><path class="cls-2" d="M1553.22,530.71a34,34,0,0,1-3.74,4.39" transform="translate(-1507.61 -517.09)"/><path class="cls-2" d="M1537.68,551.4c-1.8,0-4,1.46-7,.77" transform="translate(-1507.61 -517.09)"/><path class="cls-2" d="M1553.15,518.23c.2,1.25-3.56,0-3,2.14" transform="translate(-1507.61 -517.09)"/><path class="cls-2" d="M1550.61,534.52c-1,2.32-.09,1.36-3,3.28l-.56.35c-1.37.78-3.21,2.1-5.39,1.85" transform="translate(-1507.61 -517.09)"/><path class="cls-2" d="M1523,561.15a22.61,22.61,0,0,1-2.85,2" transform="translate(-1507.61 -517.09)"/><path class="cls-2" d="M1516.74,564c-.46,1,1.3,2.36,2,.32,0,0-.81-.51-.46-1.27" transform="translate(-1507.61 -517.09)"/><path class="cls-2" d="M1539.89,544.26c-.14-.35-.53-.61-1.84-1" transform="translate(-1507.61 -517.09)"/><path class="cls-2" d="M1553.46,531.21c.37.44.13,1.06.36,2.32" transform="translate(-1507.61 -517.09)"/><path class="cls-2" d="M1531.55,550.28a23.66,23.66,0,0,0,4,.65" transform="translate(-1507.61 -517.09)"/><path class="cls-2" d="M1516.68,563.84c-.51-.14-.65-1.35-2-1.06" transform="translate(-1507.61 -517.09)"/><path class="cls-2" d="M1553.43,520.73c-.28.1-.29.22-.76,1.33" transform="translate(-1507.61 -517.09)"/><path class="cls-2" d="M1553.37,527.58" transform="translate(-1507.61 -517.09)"/><path class="cls-2" d="M1520,559.8l-.89.7" transform="translate(-1507.61 -517.09)"/><path class="cls-2" d="M1514,561.67c.11.1.07.09.54.5" transform="translate(-1507.61 -517.09)"/><path class="cls-2" d="M1553,523.21a8.55,8.55,0,0,1,.37,2.47" transform="translate(-1507.61 -517.09)"/><path class="cls-2" d="M1513.61,562.23s.5.69,1,.56" transform="translate(-1507.61 -517.09)"/><path class="cls-2" d="M1516.39,548.24s-1.29,1,2.07,2.3" transform="translate(-1507.61 -517.09)"/></svg>