<svg id="Capa_1" data-name="Capa 1" xmlns="http://www.w3.org/2000/svg" viewBox="0 0 137.34 110.88"><defs><style>.cls-1{fill:#fff;}.cls-2{fill:none;stroke:#000;stroke-linecap:round;stroke-linejoin:round;stroke-width:0.5px;}</style></defs><title>ruta-auto</title><path class="cls-1" d="M1535.87,630.09c-2.21,2.51-3.67,7.46-3.58,13.13,0,.37,0,.75,0,1.12l.63,0c0-.32,0-.64,0-1-.11-7.06,2.42-12.82,5.64-12.87a2.93,2.93,0,0,1,.88.13c-.13-.68-.28-1.48-.43-2.25a4.14,4.14,0,0,0-2.41,1A8.08,8.08,0,0,0,1535.87,630.09Z" transform="translate(-1532.03 -558.85)"/><path class="cls-1" d="M1533,644.31l-.63,0c.39,7.52,3.45,13.42,7.11,13.54h.16c3.09,0,5.66-4.2,6.54-10l-1.8-.51c-.73,5-2.84,8.59-5.39,8.62C1535.87,656.08,1533.27,650.91,1533,644.31Z" transform="translate(-1532.03 -558.85)"/><path class="cls-1" d="M1538.56,630.47c-3.22,0-5.75,5.81-5.64,12.87,0,.33,0,.65,0,1,.32,6.6,2.92,11.77,6,11.72,2.55,0,4.66-3.64,5.39-8.62l-1-.28c-.66,4-2.38,6.78-4.44,6.81-2.69,0-5-4.72-5-10.61s2-10.73,4.73-10.76a2.41,2.41,0,0,1,1.23.32l0-.38-.35-1.91h0A2.93,2.93,0,0,0,1538.56,630.47Z" transform="translate(-1532.03 -558.85)"/><path class="cls-1" d="M1540.11,643.22l.69-.65-.48-4.75-.49-4.93a2.41,2.41,0,0,0-1.23-.32c-2.7,0-4.82,4.85-4.73,10.76s2.35,10.65,5,10.61c2.06,0,3.78-2.85,4.44-6.81l-1.07-.31-2.07-3.5Z" transform="translate(-1532.03 -558.85)"/><path class="cls-1" d="M1537.18,599.86a1,1,0,0,0-.67,1.25s.37,2.08.58,2.72,1.26.7,1.26.7,2.83.52,3.84.55,1.34-.14,1.75-.82a13.18,13.18,0,0,0,.75-3.66c.11-.79,0-1-1.26-1.23a12.13,12.13,0,0,0-3.54-.07A17.13,17.13,0,0,0,1537.18,599.86Z" transform="translate(-1532.03 -558.85)"/><path class="cls-1" d="M1541.05,634c-.07-.81-.14-1.56-.21-2.27a70.25,70.25,0,0,0-1.63-10.39c-.35-1.63-1-1.62-1.38-1.56h0c-.2,0-.61.31-1.13,2-.75,2.39-1,8.33-1,8.33l.14.05a8.08,8.08,0,0,1,.73-.71l-.25,0s0-1.05.05-2.07c.09-1.22.38-4.07.82-4.12s.8.5,1.19,2.22c.15.64.38,1.78.6,3,.15.77.3,1.57.43,2.25h0l.35,1.91,0,.38.49,4.93h.09l1,.44c0-.32,0-.64-.07-1-.09-1.2-.18-2.31-.28-3.33Z" transform="translate(-1532.03 -558.85)"/><path class="cls-1" d="M1536.4,627.29c-.07,1-.05,2.07-.05,2.07l.25,0a4.14,4.14,0,0,1,2.41-1c-.22-1.18-.45-2.32-.6-3-.39-1.72-.73-2.28-1.19-2.22S1536.49,626.07,1536.4,627.29Z" transform="translate(-1532.03 -558.85)"/><path class="cls-1" d="M1537.82,619.6v.13c.36-.06,1-.07,1.38,1.56a70.25,70.25,0,0,1,1.63,10.39h.81a11.15,11.15,0,0,0,.33-2.87s0-3.4,0-6.5a62.82,62.82,0,0,1,.63-7.64,10.91,10.91,0,0,0-4.43,4.16h0A3.45,3.45,0,0,0,1537.82,619.6Z" transform="translate(-1532.03 -558.85)"/><path class="cls-1" d="M1541.3,612l-.32.25a5.81,5.81,0,0,0-1.65,2.49l-1.2,4.09a10.91,10.91,0,0,1,4.43-4.16l1.45-4.52s-1.58,1-2.71,1.85Z" transform="translate(-1532.03 -558.85)"/><path class="cls-1" d="M1539.46,657.88l7.32.18a1.2,1.2,0,0,0,.19,0c2.75,0,5.08-3.33,6.19-8.12l-7-2c-.88,5.76-3.45,9.92-6.54,10Z" transform="translate(-1532.03 -558.85)"/><path class="cls-1" d="M1540.32,637.82l.48,4.75,1.39.32a3.11,3.11,0,0,1-.37-1.4s0-.09,0-.13a2.57,2.57,0,0,1,1-2l8,1h0l5.59.73,1,3h.37l.07-5.22h-.12s-5.64-.55-6.45-.67l-.09,0c-.89,0-7.85-.72-9.43-.88l-.31,0h-.1c0,.32.05.64.07,1l-1-.44Z" transform="translate(-1532.03 -558.85)"/><path class="cls-1" d="M1541.76,637.18a32.74,32.74,0,0,1-.2-5.41v-.09h-.73c.07.71.14,1.46.21,2.27h0c.1,1,.19,2.13.28,3.33h.1l.31,0Z" transform="translate(-1532.03 -558.85)"/><path class="cls-1" d="M1542.76,639.37a2.57,2.57,0,0,0-1,2s0,.08,0,.13l.24,0,8.38,1.44a12.46,12.46,0,0,1,.36-2.49h0Z" transform="translate(-1532.03 -558.85)"/><path class="cls-1" d="M1542.06,641.47l-.24,0a3.11,3.11,0,0,0,.37,1.4l.06,0c.51.13,4.25,1.07,8.44,2a5,5,0,0,1-.25-2Z" transform="translate(-1532.03 -558.85)"/><path class="cls-1" d="M1545.5,608v0S1545.49,608,1545.5,608Zm8.21-3c.62-1.34,1.15-2.28,1.15-2.28l0-.1-.26.09a46.5,46.5,0,0,0-6.55,3.37l-1,.64c-1.3.89-1.53,1.17-1.57,1.25l.1-1.31s-1.35,1.6-1.86,2.31-2.32,2.92-2.44,3.06c1.13-.82,2.71-1.85,2.71-1.85a2.19,2.19,0,0,1,.78-.67,89,89,0,0,1,8.92-4.51Z" transform="translate(-1532.03 -558.85)"/><path class="cls-1" d="M1543.43,599.37c1.24.22,1.37.44,1.26,1.23a13.18,13.18,0,0,1-.75,3.66c-.41.68-.74.84-1.75.82s-3.84-.55-3.84-.55-1-.07-1.26-.7-.58-2.72-.58-2.72a1,1,0,0,1,.67-1.25,17.13,17.13,0,0,1,2.71-.56A12.13,12.13,0,0,1,1543.43,599.37Zm2.07,8.58c0-.08.27-.36,1.57-1.25l0-.08a4.09,4.09,0,0,0,.17-3.24.18.18,0,0,0,0,.08,3,3,0,0,1-1.75.15l.22-2.31a2.34,2.34,0,0,0-1.91-2.62,14.1,14.1,0,0,0-7,.66s-1.13.36-1.13,1.13a7.63,7.63,0,0,0,.79,3.84c.29.39.26.48.81.63s8.43,1.63,8.43,1.63l-.06.07Z" transform="translate(-1532.03 -558.85)"/><path class="cls-1" d="M1548.64,604.82l6.11-3.24.26.06c.53-2.34,2.2-7.91,3.21-10.86.8-2.32,3.42-7.79,4.91-10.86h0c-2.79,1.24-8.44,9.94-10.35,13.49S1548.64,604.82,1548.64,604.82Z" transform="translate(-1532.03 -558.85)"/><path class="cls-1" d="M1549.29,611.24a.41.41,0,0,0,.4.39l.11,0,1.14-.32h.07a.77.77,0,0,0,.51-.59,2.09,2.09,0,0,0,0-.82.34.34,0,0,0-.27-.22h-.15l-1,.3h0l-.14,0a1,1,0,0,0-.63.47.55.55,0,0,0-.07.23C1549.27,610.82,1549.28,611,1549.29,611.24Z" transform="translate(-1532.03 -558.85)"/><path class="cls-1" d="M1550.55,608.67a6.85,6.85,0,0,0-.45,1.29l1-.3h.15l.07-.92s0-.69-.19-.69S1550.78,608.22,1550.55,608.67Z" transform="translate(-1532.03 -558.85)"/><path class="cls-1" d="M1550.63,613c.17-.79.33-1.65.33-1.65l0-.07-1.14.32-.11,0-.08.13a3.47,3.47,0,0,0,0,1.44c.18.61.38.54.38.54S1550.45,613.8,1550.63,613Z" transform="translate(-1532.03 -558.85)"/><path class="cls-1" d="M1550.63,631.3a41.93,41.93,0,0,0,.63,6.92c.81.12,6.45.67,6.45.67h.12l.07-4.29a25.22,25.22,0,0,1,.43-3.25h0s0-.11,0-.24h-.12l-7.48.21Z" transform="translate(-1532.03 -558.85)"/><path class="cls-1" d="M1550.63,631.3h.12a.83.83,0,0,1-.08-.12A.64.64,0,0,1,1550.63,631.3Z" transform="translate(-1532.03 -558.85)"/><path class="cls-1" d="M1550.44,642.91a5,5,0,0,0,.25,2c1.7.36,3.48.71,5.15,1,0,0,1.09.24,1.29-.51a6.89,6.89,0,0,0,.26-1.25Z" transform="translate(-1532.03 -558.85)"/><path class="cls-1" d="M1550.44,642.91l7,1.19-1-3-5.59-.73A12.46,12.46,0,0,0,1550.44,642.91Z" transform="translate(-1532.03 -558.85)"/><path class="cls-1" d="M1551,619.74a67.18,67.18,0,0,1,.8-9l-.29,0a.77.77,0,0,1-.51.59h-.07l0,.07s-.16.86-.33,1.65-.62.73-.62.73-.2.07-.38-.54a3.47,3.47,0,0,1,0-1.44l-.37-.14s-1.33.19-6.08,2.73l-.6.33a62.82,62.82,0,0,0-.63,7.64c0,3.1,0,6.5,0,6.5a11.15,11.15,0,0,1-.33,2.87l9-.39a.64.64,0,0,0,0-.12,20.32,20.32,0,0,0,.49-2.64,11.41,11.41,0,0,0,.07-1.43C1551.18,625.24,1551,622.64,1551,619.74Z" transform="translate(-1532.03 -558.85)"/><path class="cls-1" d="M1551.81,610.74l0-.31,0-.18a22.25,22.25,0,0,1,1.83-5.27h0a89,89,0,0,0-8.92,4.51,2.19,2.19,0,0,0-.78.67l-1.45,4.52.6-.33c4.75-2.54,6.08-2.73,6.08-2.73l.37.14.08-.13a.41.41,0,0,1-.4-.39c0-.21,0-.42,0-.53a.55.55,0,0,1,.07-.23,1,1,0,0,1,.63-.47l.14,0h0a6.85,6.85,0,0,1,.45-1.29c.23-.45.41-.62.6-.63s.19.69.19.69l-.07.92a.34.34,0,0,1,.27.22,2.09,2.09,0,0,1,0,.82Z" transform="translate(-1532.03 -558.85)"/><path class="cls-1" d="M1551.26,638.22a41.93,41.93,0,0,1-.63-6.92l-9,.39h-.08v.09a32.74,32.74,0,0,0,.2,5.41l0,.14c1.58.16,8.54.88,9.43.88Z" transform="translate(-1532.03 -558.85)"/><path class="cls-1" d="M1554.75,601.58l-6.11,3.24s2.23-7.85,4.13-11.41,7.56-12.25,10.35-13.49h0l1.07-2.18a11.33,11.33,0,0,0-3.12,1.8h0c-.31.3-.58.58-.8.82a72.18,72.18,0,0,0-5.3,7.18h0a55.25,55.25,0,0,0-3.73,6.39c-2,4.3-3.79,8.8-4,9.43a4.09,4.09,0,0,1-.17,3.24l0,.08,1-.64a46.5,46.5,0,0,1,6.55-3.37l.26-.09.1,0-.07-.21a6.74,6.74,0,0,1,.14-.72Z" transform="translate(-1532.03 -558.85)"/><path class="cls-1" d="M1550.69,644.87c-4.19-.89-7.93-1.83-8.44-2l-.06,0-1.39-.32-.69.65.1.1,17.5,3.93v-.19l0-2.95h-.37a6.89,6.89,0,0,1-.26,1.25c-.2.75-1.27.54-1.29.51C1554.17,645.58,1552.39,645.23,1550.69,644.87Z" transform="translate(-1532.03 -558.85)"/><path class="cls-1" d="M1561,588.57c-.87,2.7-3.55,9.69-3.78,12.2a59.35,59.35,0,0,1,8.22-2.68c0-.08,2.17-7.41,3.13-10.31s4.23-10.68,4.23-10.68a25.55,25.55,0,0,0-7.15,1,.73.73,0,0,0-.07.13h0C1565,579.29,1561.75,586.08,1561,588.57Z" transform="translate(-1532.03 -558.85)"/><polygon class="cls-1" points="25.68 88.21 25.68 88.21 25.68 88.4 8.18 84.47 10.25 87.97 11.32 88.27 12.29 88.55 14.1 89.07 21.13 91.09 27.7 92.97 25.78 89.33 25.68 88.21"/><path class="cls-1" d="M1565.1,607.24,1559.94,624h0l.12-.22c1.26-2.29,1.84-2.76,2.66-2.76s2.32,1,3.45,4c.24.62.52,1.51.83,2.56,0,0,6.4-.44,14-.38s35.79.17,45,.31,41.65.74,41.65.74l.28-.06a12.75,12.75,0,0,0-.41-1.58,34.6,34.6,0,0,1-2.39-6.42,46.17,46.17,0,0,1-.36-4.94l-7.26-.18h-.18c-.17,3-.34,5.41-.34,5.41a3.65,3.65,0,0,1-2.77,2.47c-2.31.57-10.9.19-10.9.19l-32.56-.36-21.69-.45s-3.35-.34-4.57-2.47a3.42,3.42,0,0,1-.21-.43s-.25-2.29-.33-3.38c0-.23,0-1.14-.06-2.46h-.24l-13.84.28-.35-1.68a5.89,5.89,0,0,1,.36-3.47c.28-.65.62-1.41,1-2.15a52.51,52.51,0,0,0-5.75.62Z" transform="translate(-1532.03 -558.85)"/><path class="cls-1" d="M1551.16,628.54a20.32,20.32,0,0,1-.49,2.64.83.83,0,0,0,.08.12h0l7.48-.21h.12c.11-1,.59-5,1.62-7.06h0l5.16-16.79h0l-.89.17-.07,0a2,2,0,0,1-.75,1.18l-.3.07v.05a7.42,7.42,0,0,1-.38,1.35c-.25.59-.54.8-.84.79s-.37-.23-.5-.61a5.34,5.34,0,0,1-.1-1.22l0-.12a.58.58,0,0,1-.43-.55l0-.19-.23,0a41.36,41.36,0,0,0-8.85,2.34l0,.31a67.18,67.18,0,0,0-.8,9c0,2.9.17,5.5.22,7.37A11.41,11.41,0,0,1,1551.16,628.54Z" transform="translate(-1532.03 -558.85)"/><path class="cls-1" d="M1560.43,649.76c0,.13,0,.27,0,.41v.41c0,.13,0,.27,0,.4v.24c0,.13,0,.25,0,.37,0,6.93,1.07,12.35,2.55,12.39s3-6.08,3.21-13.67-.94-13.78-2.53-13.82-2.84,5.34-3.16,12.25c0,.12,0,.25,0,.37s0,.16,0,.24S1560.43,649.62,1560.43,649.76Z" transform="translate(-1532.03 -558.85)"/><path class="cls-1" d="M1562.62,605.52a7.46,7.46,0,0,0-.61,1.12h0l1.72-.3h0l.09-.74s.08-.81-.37-.8C1563.18,604.8,1563,605,1562.62,605.52Z" transform="translate(-1532.03 -558.85)"/><path class="cls-1" d="M1561.28,609a5.34,5.34,0,0,0,.1,1.22c.13.38.25.6.5.61s.59-.2.84-.79a7.42,7.42,0,0,0,.38-1.35v-.05a11.07,11.07,0,0,1-1.6.25h-.18Z" transform="translate(-1532.03 -558.85)"/><path class="cls-1" d="M1563.74,606.34h0l.09,0c.54-.09.41.54.41.54l-.1.52h0l.07,0,.89-.17c.15-.22,3.64-5.27,4.86-9.3s6-21.22,6-21.22.77-1.9-.66-2.08a17.61,17.61,0,0,0-6.94.36c-2.77.66-5.57,2.93-7.24,4.54a11.33,11.33,0,0,1,3.12-1.8,17.49,17.49,0,0,1,1.77-.59,21.73,21.73,0,0,1,2.8-.57,16.39,16.39,0,0,1,5.51,0,.67.67,0,0,1,.46.8,1.79,1.79,0,0,1-.14.56s-3.93,14.12-5.71,19.09c-.13.37-.25.68-.36.94s-.17.39-.23.52c-1.23,2.31-4.65,3-4.65,3s-6,1.89-9.94,3.52a22.25,22.25,0,0,0-1.83,5.27l0,.18a41.36,41.36,0,0,1,8.85-2.34l.23,0c0-.19.12-.5.21-.81a.88.88,0,0,1,.53-.61l.35-.07h0a7.46,7.46,0,0,1,.61-1.12c.38-.56.56-.72.84-.72.45,0,.37.8.37.8Z" transform="translate(-1532.03 -558.85)"/><path class="cls-1" d="M1564.24,606.87s.13-.63-.41-.54l-.09,0-1.72.3-.35.07a.88.88,0,0,0-.53.61c-.09.31-.17.62-.21.81l0,.19a.58.58,0,0,0,.43.55h.18a11.07,11.07,0,0,0,1.6-.25l.3-.07a2,2,0,0,0,.75-1.18h0Z" transform="translate(-1532.03 -558.85)"/><path class="cls-1" d="M1564.86,631.31a1,1,0,0,1,.46.13l.24-.07a22.4,22.4,0,0,0-.81-2.29c-1.68-4.12-3-4.05-3.87-3.7-1,.43-2,3.1-2.55,6h0a25.22,25.22,0,0,0-.43,3.25l-.07,4.29-.07,5.22,0,2.95h0l.1,1.12,1.92,3.65h.66v-.24c0-.12,0-.24,0-.37a1.91,1.91,0,0,1,0-.24c0-.13,0-.27,0-.4v-.41c0-.14,0-.28,0-.41s0-.28,0-.41a1.93,1.93,0,0,1,0-.24c0-.19,0-.38,0-.57v-.1l0-.45v0C1561,638.53,1562.82,631.26,1564.86,631.31Z" transform="translate(-1532.03 -558.85)"/><path class="cls-1" d="M1564,669.22h0l10.63.27c2.36,0,4.5-7.33,5-16.86l-11.25-.57h0C1567.9,661.69,1566,669.2,1564,669.22Z" transform="translate(-1532.03 -558.85)"/><path class="cls-1" d="M1562.94,664c-1.48,0-2.57-5.46-2.55-12.39v.78c0,7.75,1.2,13.75,2.81,13.79s3.36-7,3.58-15.84-1-16-2.79-16-3.09,5.89-3.49,13.62v0l0,.45v.1c0,.07,0,.13,0,.2.32-6.91,1.68-12.28,3.16-12.25s2.72,6.23,2.53,13.82S1564.53,664,1562.94,664Z" transform="translate(-1532.03 -558.85)"/><path class="cls-1" d="M1568.41,573.05l-.09.91h0l.28-.1,1.46-.45a19.61,19.61,0,0,1,6-2.63l-.17-.68c-.92.22-2,.52-3.24.92A16.13,16.13,0,0,0,1568.41,573.05Z" transform="translate(-1532.03 -558.85)"/><path class="cls-1" d="M1568.39,597.93a7.05,7.05,0,0,1-2,.87c-1,.24-9.57,3.14-11.42,3.77l-.1,0,0,.1s-.53.94-1.15,2.28c3.93-1.63,9.94-3.52,9.94-3.52s3.42-.68,4.65-3c.06-.13.14-.3.23-.52Z" transform="translate(-1532.03 -558.85)"/><path class="cls-1" d="M1567.92,647.69l.13,4.35.27,0,11.25.57,17.23.88a1.8,1.8,0,0,1,.66-2,3.6,3.6,0,0,1,2.08-.43,5.23,5.23,0,0,1,1.58.25,3,3,0,0,1,.62.29,2.32,2.32,0,0,1,1.16,2l1.88,0c2.6.07,7.49.18,11.74.2,2.32,0,4.45,0,5.92,0h0c5.4-.2,22.35-.24,22.35-.24l.8,0,2-.09,8.4-.38,2-.09,7-.32a13.35,13.35,0,0,0,2.44-2.09l0,0a5,5,0,0,0,1.5-2.9l0-.63h-.11c-1.57.09-3.62.17-6,.26-9.53.33-24.55.58-36.44.42l-2.14,0-3.53,0-2,0-12.51-.12-3.52,0-2,0c-7.92-.09-15.61-.22-20.91-.42-2.94-.12-5.14-.26-6.24-.43-2-.31-2.38-1.37-2.38-1.37l-1.17-4-.08-.27c-.08-2.7-1.61-9.21-2.8-13.3-.31-1-.59-1.94-.83-2.56-1.13-3.07-2.64-4-3.45-4s-1.4.47-2.66,2.76l-.12.22c-1,2.07-1.51,6-1.62,7.06,0,.13,0,.22,0,.24.55-2.86,1.52-5.53,2.55-6,.88-.35,2.19-.42,3.87,3.7a22.4,22.4,0,0,1,.81,2.29,78.12,78.12,0,0,1,2.47,11.4,20.9,20.9,0,0,1-.12,4.75Z" transform="translate(-1532.03 -558.85)"/><path class="cls-1" d="M1564.86,631.31c-2,0-3.9,7.22-4.36,16.64.4-7.73,1.88-13.66,3.49-13.62s3,7.2,2.79,16-1.82,15.88-3.58,15.84-2.79-6-2.81-13.79c0,9.44,1.5,16.8,3.54,16.85h0c2.07,0,3.94-7.53,4.36-17.15h0l-.27,0-.13-4.35v-.17a20.9,20.9,0,0,0,.12-4.75,78.12,78.12,0,0,0-2.47-11.4l-.24.07A1,1,0,0,0,1564.86,631.31Z" transform="translate(-1532.03 -558.85)"/><path class="cls-1" d="M1668.79,639.09c-.06-1-.44-7.14-.55-8.8a16.69,16.69,0,0,0-.29-2l-.28.06s-32.41-.59-41.65-.74-37.44-.25-45-.31-14,.38-14,.38c1.19,4.09,2.72,10.6,2.8,13.3l.08.27s44,0,55.66.08,43.56.34,43.56.34l-.33-2.4A.79.79,0,0,1,1668.79,639.09Zm-74-.26,5.85-6.44a9.64,9.64,0,0,1,7-2.9c4.57,0,31.67.45,31.67.45s4-.18,6.28,2.13a65.61,65.61,0,0,1,5.58,7.06l-27.28-.15-3.5,0h-2l-11.53-.06-3.54,0h-2Z" transform="translate(-1532.03 -558.85)"/><path class="cls-1" d="M1570.87,610.77l13,0c0-2.51-.06-5.47-.08-7.91h-.25l-6.93-.4a5.14,5.14,0,0,0-4.22,1.71,14.41,14.41,0,0,0-1.55,2.49c-.38.74-.72,1.5-1,2.15a5.89,5.89,0,0,0-.36,3.47l.73,0,.63-1.41Z" transform="translate(-1532.03 -558.85)"/><path class="cls-1" d="M1569.49,612.24l.35,1.68,13.84-.28h.24v-.11c0-.44,0-.93,0-1.45l-13.68.14Z" transform="translate(-1532.03 -558.85)"/><path class="cls-1" d="M1570.85,610.81l-.63,1.41,13.68-.14c0-.43,0-.88,0-1.35l-13,0Z" transform="translate(-1532.03 -558.85)"/><path class="cls-1" d="M1569.91,641.21l1.17,4s.35,1.06,2.38,1.37c1.1.17,3.3.31,6.24.43v-.21l3-2.75s1.13-1.4,5.7-1.34c1.54,0,6.36,0,12.1.06H1606l12.91,0H1627l27.11.25s3.91-.12,5.34.53c1.84.85,2.59,2.48,3.33,3.65,2.4-.09,4.45-.17,6-.26h.11c0-.45-.11-1.06-.2-1.67a15.54,15.54,0,0,1,.4-3.73s-31.91-.31-43.56-.34S1569.91,641.21,1569.91,641.21Z" transform="translate(-1532.03 -558.85)"/><path class="cls-1" d="M1568.89,597c1.78-5,5.71-19.09,5.71-19.09a1.79,1.79,0,0,0,.14-.56h0l-1.28-.25s-3.78,9.36-4.09,10.71-2.7,9.81-2.7,9.81S1567,597.73,1568.89,597Z" transform="translate(-1532.03 -558.85)"/><path class="cls-1" d="M1557.18,600.77c.23-2.51,2.91-9.5,3.78-12.2.79-2.49,4.07-9.28,4.58-10.34h0a.73.73,0,0,1,.07-.13,25.55,25.55,0,0,1,7.15-1s-3.26,7.77-4.23,10.68-3.08,10.23-3.13,10.31A59.35,59.35,0,0,0,1557.18,600.77Zm17.1-24.21a16.39,16.39,0,0,0-5.51,0,21.73,21.73,0,0,0-2.8.57,17.49,17.49,0,0,0-1.77.59l-1.07,2.18c-1.49,3.07-4.11,8.54-4.91,10.86-1,3-2.68,8.52-3.21,10.86a6.74,6.74,0,0,0-.14.72l.07.21c1.85-.63,10.4-3.53,11.42-3.77a7.05,7.05,0,0,0,2-.87l.14,0c.11-.26.23-.57.36-.94-1.86.72-2.25.62-2.25.62s2.39-8.45,2.7-9.81,4.09-10.71,4.09-10.71l1.28.25h0A.67.67,0,0,0,1574.28,576.56Z" transform="translate(-1532.03 -558.85)"/><path class="cls-1" d="M1568.41,573.05a16.13,16.13,0,0,1,4.2-2c1.24-.4,2.32-.7,3.24-.92l.17.68,1.07-.22,1.82-.26s.66-.14.65.32-.2,1.76-.2,1.76a10,10,0,0,1,3.2.76,2.51,2.51,0,0,0,.45.07,3.26,3.26,0,0,0,1.82-.32,19.55,19.55,0,0,0-.42-2.43c-.32-1.34-2.11-1.72-2.11-1.72a12.05,12.05,0,0,0-4.32.08,30.24,30.24,0,0,0-7,2.16c-2.82,1.2-3,2.37-3,2.37S1568.25,573.15,1568.41,573.05Z" transform="translate(-1532.03 -558.85)"/><path class="cls-1" d="M1582.4,593.39a2.46,2.46,0,0,0,1.83,2.91,6,6,0,0,0,1.1.2c3.59.31,4.09.19,6.78.28s59.57,1.41,59.57,1.41,1.78,0,2.87-.05a3.11,3.11,0,0,0,1.13-.17c.3-.14.42-.43.39-1.05a11.88,11.88,0,0,0-.72-2.9s-2.24-6.25-3.81-9.55c-1.11-2.35-2.24-4.47-2.8-5.5,0,0-5.81-.71-21.9-1.71-2.89-.18-6.11-.36-9.7-.56-3.13-.17-6-.28-8.72-.35-17.33-.46-25.45.94-25.57.95C1582.75,580.18,1582.4,593.39,1582.4,593.39Z" transform="translate(-1532.03 -558.85)"/><path class="cls-1" d="M1583.42,644.48l-1.93,1.73s11.54.37,12.27.37a2.83,2.83,0,0,0,1.72-.66l2.34-2.41s-8.83-.11-10.84-.08a7.49,7.49,0,0,0-2.93.64A3,3,0,0,0,1583.42,644.48Z" transform="translate(-1532.03 -558.85)"/><path class="cls-1" d="M1583.71,596.32l0,1.57s0,2,0,4.71l8.32.67s4.66.26,4.94,2.27c0,0,0,0,0,.11l22.05.33h0a3.78,3.78,0,0,1,7.29.07h0l20.19.61c-.13-1.7,2.13-2,2.13-2l8.15-.64.12,0c-.53-3.21-1.25-5.92-1.25-5.92l-.1-.13a3.11,3.11,0,0,1-1.13.17c-1.09.06-2.87.05-2.87.05s-56.87-1.32-59.57-1.41-3.19,0-6.78-.28a6,6,0,0,1-1.1-.2Z" transform="translate(-1532.03 -558.85)"/><path class="cls-1" d="M1591.4,610.71l-7.52,0c0,.47,0,.92,0,1.35l6.35-.06,0,0Z" transform="translate(-1532.03 -558.85)"/><path class="cls-1" d="M1590.25,612l-6.35.06c0,.52,0,1,0,1.45h.18s2.7,0,4.27-.11a5,5,0,0,0,2.45-.95l-.55-.48Z" transform="translate(-1532.03 -558.85)"/><path class="cls-1" d="M1584.1,613.53h-.18v.11c0,1.32,0,2.23.06,2.46.08,1.09.33,3.38.33,3.38a3.42,3.42,0,0,0,.21.43h0l72.49.62s.17-2.39.34-5.41c0-.1,0-.2,0-.31l-3.52-.33a3.6,3.6,0,0,1-1.83-.86,9.58,9.58,0,0,1-1.78-2l-3.25-3.87a2.82,2.82,0,0,1-.35-1.1l-20.19-.61h0a3.36,3.36,0,0,1,.09.9,3.75,3.75,0,0,1-7.49-.18,3.42,3.42,0,0,1,.1-.79l-22.05-.33c0,.19-.2.73-1.4,2.12a52.11,52.11,0,0,1-4.55,4.45,3.84,3.84,0,0,1-.32.25,5,5,0,0,1-2.45.95C1586.8,613.55,1584.1,613.53,1584.1,613.53Z" transform="translate(-1532.03 -558.85)"/><path class="cls-1" d="M1584.52,619.91h0c1.22,2.13,4.57,2.47,4.57,2.47l21.69.45,32.56.36s8.59.38,10.9-.19a3.65,3.65,0,0,0,2.77-2.47Z" transform="translate(-1532.03 -558.85)"/><path class="cls-1" d="M1564.23,576.39c-5.71,4-9.17,11-9.27,11.16a72.18,72.18,0,0,1,5.3-7.18c.22-.24.49-.52.8-.82h0c1.67-1.61,4.47-3.88,7.24-4.54a17.61,17.61,0,0,1,6.94-.36c1.43.18.66,2.08.66,2.08s-4.72,17.09-6,21.22-4.71,9.08-4.86,9.3a52.51,52.51,0,0,1,5.75-.62,14.41,14.41,0,0,1,1.55-2.49,5.14,5.14,0,0,1,4.22-1.71l6.93.4h.25v-.22c0-2.69,0-4.71,0-4.71l0-1.57.52,0a2.46,2.46,0,0,1-1.83-2.91s.35-13.21.45-16.09c0-.13,0-.24,0-.33l2.17-2.64s.86-1.2,5.35-1.66c3.42-.35,10.92-.68,19.31-.63-21.54-.43-24.86.86-24.86.86a3.26,3.26,0,0,1-1.82.32,2.51,2.51,0,0,1-.45-.07,10,10,0,0,0-3.2-.76s-2,0-4.41.11a19,19,0,0,0-4.89.92l-1.46.45-.28.1a10.93,10.93,0,0,0-1.69.76A13.69,13.69,0,0,0,1564.23,576.39Z" transform="translate(-1532.03 -558.85)"/><path class="cls-1" d="M1614.51,634a3.07,3.07,0,0,1,3.11-3l14.89.13a3.06,3.06,0,0,1,3,3.1V635a3.08,3.08,0,0,1-3.11,3l-14.88-.13a3.07,3.07,0,0,1-3-3.1Zm-13.91-1.56-5.85,6.44,6.48,0h2l3.54,0,11.53.06h2l3.5,0,27.28.15a65.61,65.61,0,0,0-5.58-7.06c-2.31-2.31-6.28-2.13-6.28-2.13s-27.1-.5-31.67-.45A9.64,9.64,0,0,0,1600.6,632.39Z" transform="translate(-1532.03 -558.85)"/><path class="cls-1" d="M1591.4,610.71l-1.13,1.28.55.48a3.84,3.84,0,0,0,.32-.25,52.11,52.11,0,0,0,4.55-4.45c1.2-1.39,1.39-1.93,1.4-2.12s0-.11,0-.11c-.28-2-4.94-2.27-4.94-2.27l-8.32-.67v.22c0,2.44,0,5.4.08,7.91Z" transform="translate(-1532.03 -558.85)"/><path class="cls-1" d="M1600.39,653c-1,0-1.84.31-1.85.76a.32.32,0,0,0,0,.14l0,0v0a2.22,2.22,0,0,0,1.76.64c1,0,1.83-.31,1.84-.75a.44.44,0,0,0-.12-.29A2.38,2.38,0,0,0,1600.39,653Z" transform="translate(-1532.03 -558.85)"/><path class="cls-1" d="M1597.46,651.54l1.11,2.32a.32.32,0,0,1,0-.14c0-.45.84-.78,1.85-.76a2.38,2.38,0,0,1,1.68.56l0,0-1-2.12v0a5.23,5.23,0,0,0-1.58-.25A3.6,3.6,0,0,0,1597.46,651.54Z" transform="translate(-1532.03 -558.85)"/><path class="cls-1" d="M1609.85,574.87l-1.43,1.48c2.69.07,5.59.18,8.72.35,3.59.2,6.81.38,9.7.56,0,0-.3-.55-.64-1.34s-.44-1.21-2.59-1.4-7.17-.42-10.22-.44C1610.5,574.07,1609.85,574.87,1609.85,574.87Z" transform="translate(-1532.03 -558.85)"/><path class="cls-1" d="M1604.78,653.7a9.18,9.18,0,0,0,5.14,4.17h0c.38.08,5.23,1.11,6.58-3.89v-.09C1612.27,653.88,1607.38,653.77,1604.78,653.7Z" transform="translate(-1532.03 -558.85)"/><path class="cls-1" d="M1611.45,570.84c-1.11.3-1.28.95-1.28.95v.26c1.15,0,2.3,0,3.47.05v-.23c-.06-.67-1.2-1.11-1.2-1.11l2.23-11.64-.61,0S1611.41,570.86,1611.45,570.84Z" transform="translate(-1532.03 -558.85)"/><path class="cls-1" d="M1617.62,630.91a3.07,3.07,0,0,0-3.11,3v.88a3.07,3.07,0,0,0,3,3.1l14.88.13a3.08,3.08,0,0,0,3.11-3v-.87a3.06,3.06,0,0,0-3-3.1Z" transform="translate(-1532.03 -558.85)"/><path class="cls-1" d="M1619.14,606a3.42,3.42,0,0,0-.1.79,3.75,3.75,0,0,0,7.49.18,3.36,3.36,0,0,0-.09-.9,3.78,3.78,0,0,0-7.29-.07Z" transform="translate(-1532.03 -558.85)"/><path class="cls-1" d="M1622.44,653.85c-1.47,0-3.6.06-5.92,0V654c-1.35,5-6.2,4-6.58,3.89l.63.14h0l4.69.2c2.82.07,5.39-1.61,7.22-4.34v0Z" transform="translate(-1532.03 -558.85)"/><path class="cls-1" d="M1641.62,573.9l-.29,0h0c-1.62-.26-3.13-.47-4.58-.63-2-.23-3.88-.38-5.84-.49-1.62-.09-3.29-.16-5.08-.22-2.39-.08-5-.16-8.09-.28-1.37-.06-2.74-.1-4.1-.13-1.17,0-2.32,0-3.47-.05h-.48c-8.39,0-15.89.28-19.31.63-4.49.46-5.35,1.66-5.35,1.66l-2.17,2.64c0,.09,0,.2,0,.33s8.24-1.41,25.57-.95l1.43-1.48s.65-.8,3.54-.79c3,0,8.08.24,10.22.44s2.25.61,2.59,1.4.64,1.34.64,1.34c16.09,1,21.9,1.71,21.9,1.71l-.37-.66.07-1.29,0-.55a.94.94,0,0,0-.26-.7c-.9-.95-3.27-1.26-4.17-1.45l-1-.18Z" transform="translate(-1532.03 -558.85)"/><path class="cls-1" d="M1641.33,573.85l.29,0,0-.09a4.37,4.37,0,0,0-2.51-2.92,10.59,10.59,0,0,0-2.76-.3,36.31,36.31,0,0,0-10.54,1.85v.07c1.79.06,3.46.13,5.08.22h0a53.24,53.24,0,0,1,5.87-.64,9.88,9.88,0,0,1,4.55,1.76Z" transform="translate(-1532.03 -558.85)"/><path class="cls-1" d="M1656,591.19c-1.71-4.9-7.56-14.17-7.56-14.17l-.07,1.29.37.66c.56,1,1.69,3.15,2.8,5.5,1.57,3.3,3.81,9.55,3.81,9.55a11.88,11.88,0,0,1,.72,2.9c0,.62-.09.91-.39,1.05l.1.13s.72,2.71,1.25,5.92l.06.37h0c.74-.3,4.67-.07,4.67-.07S1657.73,596.08,1656,591.19Z" transform="translate(-1532.03 -558.85)"/><path class="cls-1" d="M1647.62,653.48v.22c.36,5.62,2.1,9.89,4.19,9.88,1.54,0,2.88-2.3,3.62-5.75h0a27.43,27.43,0,0,0,.58-4.73h0Z" transform="translate(-1532.03 -558.85)"/><path class="cls-1" d="M1648,643.91l1.83,2.41a1.3,1.3,0,0,0,1.07.51l10.4-.21-.69-1a3.86,3.86,0,0,0-3.12-1.64Z" transform="translate(-1532.03 -558.85)"/><path class="cls-1" d="M1651.45,611.82l1.07,1.28,4.92.28c0-.42,0-.83,0-1.25Z" transform="translate(-1532.03 -558.85)"/><path class="cls-1" d="M1650.23,611.63a9.58,9.58,0,0,0,1.78,2l.51-.52-1.07-1.28,6,.31c0-.61.06-1.22.08-1.82a32.4,32.4,0,0,0-.48-5.92L1657,604l-.12,0-8.15.64s-2.26.28-2.13,2a2.82,2.82,0,0,0,.35,1.1Z" transform="translate(-1532.03 -558.85)"/><path class="cls-1" d="M1652.52,613.1l-.51.52a3.6,3.6,0,0,0,1.83.86l3.52.33c0-.46.05-.94.08-1.43Z" transform="translate(-1532.03 -558.85)"/><path class="cls-1" d="M1651.9,669.16h9.37c3.44,0,6.22-7.88,6.21-17.58,0-.33,0-.65,0-1h0a13.35,13.35,0,0,1-2.44,2.09l-7,.32a44.75,44.75,0,0,1-.46,5.39,33.69,33.69,0,0,1-1,4.63C1655.42,666.73,1653.76,669.1,1651.9,669.16Z" transform="translate(-1532.03 -558.85)"/><path class="cls-1" d="M1657.11,604.39h0a32.4,32.4,0,0,1,.48,5.92c0,.6,0,1.21-.08,1.82l7,.35,0,.25c-.16-1.57-.34-3.41-.33-4.13a4.91,4.91,0,0,0-1.23-2.75l-1.17-1.53S1657.85,604.09,1657.11,604.39Z" transform="translate(-1532.03 -558.85)"/><path class="cls-1" d="M1657.36,614.81c0,.11,0,.21,0,.31h.18l7.26.18-.17-1.52-7.18-.41C1657.41,613.87,1657.39,614.35,1657.36,614.81Z" transform="translate(-1532.03 -558.85)"/><path class="cls-1" d="M1657.44,613.38l7.18.41a.49.49,0,0,1,0-.12c0-.12,0-.25,0-.38l-.06-.56,0-.25-7-.35C1657.48,612.55,1657.46,613,1657.44,613.38Z" transform="translate(-1532.03 -558.85)"/><path class="cls-1" d="M1651.9,669.16c1.86-.06,3.52-2.43,4.65-6.13a33.69,33.69,0,0,0,1-4.63A44.75,44.75,0,0,0,1658,653l-2,.09h0a27.43,27.43,0,0,1-.58,4.73h0c-.74,3.45-2.08,5.75-3.62,5.75-2.09,0-3.83-4.26-4.19-9.88v-.22l-2,.09v.27c.4,8.65,3,15.33,6.19,15.33Z" transform="translate(-1532.03 -558.85)"/><path class="cls-1" d="M1587,643.43c2,0,10.84.08,10.84.08l-2.34,2.41a2.83,2.83,0,0,1-1.72.66c-.73,0-12.27-.37-12.27-.37l1.93-1.73a3,3,0,0,1,.63-.41A7.49,7.49,0,0,1,1587,643.43Zm70.5.55a3.86,3.86,0,0,1,3.12,1.64l.69,1-10.4.21a1.3,1.3,0,0,1-1.07-.51l-1.83-2.41Zm2-.33c-1.43-.65-5.34-.53-5.34-.53l-27.11-.25H1619l-12.91,0h-5.56c-5.74,0-10.56,0-12.1-.06-4.57-.06-5.7,1.34-5.7,1.34l-3,2.75V647c5.3.2,13,.33,20.91.42l2,0,3.52,0,12.51.12,2,0,3.53,0,2.14,0c11.89.16,26.91-.09,36.44-.42C1662.06,646.13,1661.31,644.5,1659.47,643.65Z" transform="translate(-1532.03 -558.85)"/><path class="cls-2" d="M1619.15,606a3.78,3.78,0,0,1,7.29.07,3.36,3.36,0,0,1,.09.9,3.75,3.75,0,0,1-7.49-.18,3.42,3.42,0,0,1,.1-.79" transform="translate(-1532.03 -558.85)"/><polyline class="cls-2" points="94.41 47.2 114.6 47.81 114.64 47.81"/><polyline class="cls-2" points="87.11 47.13 87.11 47.13 65.06 46.8 65.03 46.8"/><path class="cls-2" d="M1656.91,604l-8.15.64s-2.26.28-2.13,2a2.82,2.82,0,0,0,.35,1.1l3.25,3.87a9.58,9.58,0,0,0,1.78,2,3.6,3.6,0,0,0,1.83.86l3.52.33h.1" transform="translate(-1532.03 -558.85)"/><path class="cls-2" d="M1664.57,613.29c0,.13,0,.26,0,.38a.49.49,0,0,0,0,.12l.17,1.52-7.26-.18" transform="translate(-1532.03 -558.85)"/><path class="cls-2" d="M1657.11,604.39c.74-.3,4.67-.07,4.67-.07l1.17,1.53a4.91,4.91,0,0,1,1.23,2.75c0,.72.17,2.56.33,4.13" transform="translate(-1532.03 -558.85)"/><path class="cls-2" d="M1655.78,598.1s.72,2.71,1.25,5.92l.06.37a32.4,32.4,0,0,1,.48,5.92c0,.6,0,1.21-.08,1.82,0,.42,0,.83,0,1.25s0,1-.08,1.43c0,.11,0,.21,0,.31-.17,3-.34,5.41-.34,5.41a3.65,3.65,0,0,1-2.77,2.47c-2.31.57-10.9.19-10.9.19l-32.56-.36-21.69-.45s-3.35-.34-4.57-2.47a3.42,3.42,0,0,1-.21-.43s-.25-2.29-.33-3.38c0-.23,0-1.14-.06-2.46v-.11c0-.44,0-.93,0-1.45s0-.88,0-1.35c0-2.51-.06-5.47-.08-7.91v-.22c0-2.69,0-4.71,0-4.71l0-1.57" transform="translate(-1532.03 -558.85)"/><path class="cls-2" d="M1583.8,602.6l8.32.67s4.66.26,4.94,2.27c0,0,0,0,0,.11s-.2.73-1.4,2.12a52.11,52.11,0,0,1-4.55,4.45,3.84,3.84,0,0,1-.32.25,5,5,0,0,1-2.45.95c-1.57.13-4.27.11-4.27.11" transform="translate(-1532.03 -558.85)"/><path class="cls-2" d="M1583.55,602.82l-6.93-.4a5.14,5.14,0,0,0-4.22,1.71,14.41,14.41,0,0,0-1.55,2.49c-.38.74-.72,1.5-1,2.15a5.89,5.89,0,0,0-.36,3.47l.35,1.68,13.84-.28" transform="translate(-1532.03 -558.85)"/><line class="cls-2" x1="124.98" y1="61.68" x2="52.49" y2="61.06"/><path class="cls-2" d="M1648.44,577s5.85,9.27,7.56,14.17,5.78,13.13,5.78,13.13" transform="translate(-1532.03 -558.85)"/><path class="cls-2" d="M1558.33,631.34s0-.11,0-.24c.11-1,.59-5,1.62-7.06l.12-.22c1.26-2.29,1.84-2.76,2.66-2.76s2.32,1,3.45,4c.24.62.52,1.51.83,2.56,1.19,4.09,2.72,10.6,2.8,13.3l.08.27,1.17,4s.35,1.06,2.38,1.37c1.1.17,3.3.31,6.24.43,5.3.2,13,.33,20.91.42l2,0,3.52,0,12.51.12,2,0,3.53,0,2.14,0c11.89.16,26.91-.09,36.44-.42,2.4-.09,4.45-.17,6-.26" transform="translate(-1532.03 -558.85)"/><path class="cls-2" d="M1598.59,653.9a.05.05,0,0,1,0,0,.32.32,0,0,1,0-.14c0-.45.84-.78,1.85-.76a2.38,2.38,0,0,1,1.68.56.44.44,0,0,1,.12.29c0,.44-.83.78-1.84.75a2.22,2.22,0,0,1-1.76-.64" transform="translate(-1532.03 -558.85)"/><polyline class="cls-2" points="65.43 92.69 66.54 95.01 66.55 95.05 66.56 95.06"/><line class="cls-2" x1="70.06" y1="94.65" x2="69.08" y2="92.53"/><path class="cls-2" d="M1579.71,646.83l3-2.75s1.13-1.4,5.7-1.34c1.54,0,6.36,0,12.1.06H1606l12.91,0H1627l27.11.25s3.91-.12,5.34.53c1.84.85,2.59,2.48,3.33,3.65" transform="translate(-1532.03 -558.85)"/><path class="cls-2" d="M1632.44,638.06l-14.88-.13a3.07,3.07,0,0,1-3-3.1V634a3.07,3.07,0,0,1,3.11-3l14.89.13a3.06,3.06,0,0,1,3,3.1V635A3.08,3.08,0,0,1,1632.44,638.06Z" transform="translate(-1532.03 -558.85)"/><path class="cls-2" d="M1601.23,638.86l-6.48,0,5.85-6.44a9.64,9.64,0,0,1,7-2.9c4.57,0,31.67.45,31.67.45s4-.18,6.28,2.13a65.61,65.61,0,0,1,5.58,7.06l-27.28-.15-3.5,0h-2l-11.53-.06-3.54,0" transform="translate(-1532.03 -558.85)"/><path class="cls-2" d="M1581.49,646.21l1.93-1.73a3,3,0,0,1,.63-.41,7.49,7.49,0,0,1,2.93-.64c2,0,10.84.08,10.84.08l-2.34,2.41a2.83,2.83,0,0,1-1.72.66C1593,646.58,1581.49,646.21,1581.49,646.21Z" transform="translate(-1532.03 -558.85)"/><path class="cls-2" d="M1569.91,641.21s44,0,55.66.08,43.56.34,43.56.34" transform="translate(-1532.03 -558.85)"/><path class="cls-2" d="M1567,627.64s6.4-.44,14-.38,35.79.17,45,.31,41.65.74,41.65.74" transform="translate(-1532.03 -558.85)"/><path class="cls-2" d="M1648,643.91l1.83,2.41a1.3,1.3,0,0,0,1.07.51l10.4-.21-.69-1a3.86,3.86,0,0,0-3.12-1.64Z" transform="translate(-1532.03 -558.85)"/><path class="cls-2" d="M1582.84,577.31h0c.12,0,8.24-1.41,25.57-.95,2.69.07,5.59.18,8.72.35,3.59.2,6.81.38,9.7.56,16.09,1,21.9,1.71,21.9,1.71" transform="translate(-1532.03 -558.85)"/><path class="cls-2" d="M1555,587.56a55.25,55.25,0,0,0-3.73,6.39c-2,4.3-3.79,8.8-4,9.43a.18.18,0,0,0,0,.08,3,3,0,0,1-1.75.15l.22-2.31a2.34,2.34,0,0,0-1.91-2.62,14.1,14.1,0,0,0-7,.66s-1.13.36-1.13,1.13a7.63,7.63,0,0,0,.79,3.84c.29.39.26.48.81.63s8.43,1.63,8.43,1.63l.49.13v.53" transform="translate(-1532.03 -558.85)"/><path class="cls-2" d="M1561.06,579.55c-.31.3-.58.58-.8.82a72.18,72.18,0,0,0-5.3,7.18" transform="translate(-1532.03 -558.85)"/><path class="cls-2" d="M1559.94,624h0l5.16-16.79h0c.15-.22,3.64-5.27,4.86-9.3s6-21.22,6-21.22.77-1.9-.66-2.08a17.61,17.61,0,0,0-6.94.36c-2.77.66-5.57,2.93-7.24,4.54" transform="translate(-1532.03 -558.85)"/><path class="cls-2" d="M1570.85,606.62a52.51,52.51,0,0,0-5.75.62l-.89.17" transform="translate(-1532.03 -558.85)"/><polyline class="cls-2" points="26.2 72.24 18.71 72.45 18.6 72.45 9.62 72.83 9.53 72.83 8.88 72.82"/><path class="cls-2" d="M1541.43,637.29l.31,0c1.58.16,8.54.88,9.43.88l.09,0c.81.12,6.45.67,6.45.67" transform="translate(-1532.03 -558.85)"/><path class="cls-2" d="M1542.25,642.91c.51.13,4.25,1.07,8.44,2,1.7.36,3.48.71,5.15,1,0,0,1.09.24,1.29-.51a6.89,6.89,0,0,0,.26-1.25l-1-3-5.59-.73" transform="translate(-1532.03 -558.85)"/><path class="cls-2" d="M1550.8,640.42l-8-1a2.57,2.57,0,0,0-1,2s0,.08,0,.13a3.11,3.11,0,0,0,.37,1.4" transform="translate(-1532.03 -558.85)"/><polyline class="cls-2" points="10.02 82.61 18.41 84.06 25.36 85.25"/><path class="cls-2" d="M1550.69,644.87a5,5,0,0,1-.25-2,12.46,12.46,0,0,1,.36-2.49h0" transform="translate(-1532.03 -558.85)"/><path class="cls-2" d="M1551.26,638.22a41.93,41.93,0,0,1-.63-6.92.64.64,0,0,0,0-.12,20.32,20.32,0,0,0,.49-2.64,11.41,11.41,0,0,0,.07-1.43c0-1.87-.26-4.47-.22-7.37a67.18,67.18,0,0,1,.8-9l0-.31,0-.18a22.25,22.25,0,0,1,1.83-5.27c.62-1.34,1.15-2.28,1.15-2.28" transform="translate(-1532.03 -558.85)"/><path class="cls-2" d="M1564.24,606.87s.13-.63-.41-.54l-.09,0-1.72.3-.35.07a.88.88,0,0,0-.53.61c-.09.31-.17.62-.21.81l0,.19a.58.58,0,0,0,.43.55h.18a11.07,11.07,0,0,0,1.6-.25l.3-.07a2,2,0,0,0,.75-1.18h0l.1-.52v0" transform="translate(-1532.03 -558.85)"/><path class="cls-2" d="M1562,606.64a7.46,7.46,0,0,1,.61-1.12c.38-.56.56-.72.84-.72.45,0,.37.8.37.8l-.09.74" transform="translate(-1532.03 -558.85)"/><path class="cls-2" d="M1561.28,609a5.34,5.34,0,0,0,.1,1.22c.13.38.25.6.5.61s.59-.2.84-.79a7.42,7.42,0,0,0,.38-1.35" transform="translate(-1532.03 -558.85)"/><path class="cls-2" d="M1560.7,608.09a41.36,41.36,0,0,0-8.85,2.34" transform="translate(-1532.03 -558.85)"/><path class="cls-2" d="M1550.1,610l-.14,0a1,1,0,0,0-.63.47.55.55,0,0,0-.07.23c0,.11,0,.32,0,.53a.41.41,0,0,0,.4.39l.11,0,1.14-.32h.07a.77.77,0,0,0,.51-.59,2.09,2.09,0,0,0,0-.82.34.34,0,0,0-.27-.22h-.15l-1,.3" transform="translate(-1532.03 -558.85)"/><path class="cls-2" d="M1550.1,610h0a6.85,6.85,0,0,1,.45-1.29c.23-.45.41-.62.6-.63s.19.69.19.69l-.07.92" transform="translate(-1532.03 -558.85)"/><path class="cls-2" d="M1549.61,611.76a3.47,3.47,0,0,0,0,1.44c.18.61.38.54.38.54s.44.06.62-.73.33-1.65.33-1.65" transform="translate(-1532.03 -558.85)"/><path class="cls-2" d="M1538.12,618.85a3.45,3.45,0,0,0-.3.75" transform="translate(-1532.03 -558.85)"/><path class="cls-2" d="M1549.24,611.62s-1.33.19-6.08,2.73l-.6.33a10.91,10.91,0,0,0-4.43,4.16" transform="translate(-1532.03 -558.85)"/><path class="cls-2" d="M1541.65,631.69a11.15,11.15,0,0,0,.33-2.87s0-3.4,0-6.5a62.82,62.82,0,0,1,.63-7.64l1.45-4.52" transform="translate(-1532.03 -558.85)"/><path class="cls-2" d="M1541.56,631.77a32.74,32.74,0,0,0,.2,5.41" transform="translate(-1532.03 -558.85)"/><path class="cls-2" d="M1557.71,647.06l.1,1.12,1.92,3.65-6.57-1.89-7-2-1.8-.51-1-.28-1.07-.31-2.07-3.5,17.5,3.93v-.19l0-2.95.07-5.22.07-4.29a25.22,25.22,0,0,1,.43-3.25h0c.55-2.86,1.52-5.53,2.55-6,.88-.35,2.19-.42,3.87,3.7a22.4,22.4,0,0,1,.81,2.29,78.12,78.12,0,0,1,2.47,11.4,20.9,20.9,0,0,1-.12,4.75v.17l.13,4.35.27,0,11.25.57,17.23.88a1.8,1.8,0,0,1,.66-2,3.6,3.6,0,0,1,2.08-.43,5.23,5.23,0,0,1,1.58.25,3,3,0,0,1,.62.29,2.32,2.32,0,0,1,1.16,2l1.88,0c2.6.07,7.49.18,11.74.2,2.32,0,4.45,0,5.92,0h0c5.4-.2,22.35-.24,22.35-.24l.8,0,2-.09,8.4-.38,2-.09,7-.32a13.35,13.35,0,0,0,2.44-2.09l0,0a5,5,0,0,0,1.5-2.9l0-.63c0-.45-.11-1.06-.2-1.67a15.54,15.54,0,0,1,.4-3.73l-.33-2.4a.79.79,0,0,1,0-.14c-.06-1-.44-7.14-.55-8.8a16.69,16.69,0,0,0-.29-2,12.75,12.75,0,0,0-.41-1.58,34.6,34.6,0,0,1-2.39-6.42,46.17,46.17,0,0,1-.36-4.94" transform="translate(-1532.03 -558.85)"/><path class="cls-2" d="M1539.44,630.6c-.13-.68-.28-1.48-.43-2.25-.22-1.18-.45-2.32-.6-3-.39-1.72-.73-2.28-1.19-2.22s-.73,2.9-.82,4.12c-.07,1-.05,2.07-.05,2.07" transform="translate(-1532.03 -558.85)"/><path class="cls-2" d="M1540.09,643.24l0,0,.69-.65-.48-4.75-.49-4.93,0-.38-.35-1.91" transform="translate(-1532.03 -558.85)"/><path class="cls-2" d="M1541.05,634c.1,1,.19,2.13.28,3.33,0,.32.05.64.07,1l-1-.44" transform="translate(-1532.03 -558.85)"/><path class="cls-2" d="M1535.73,630s.21-5.94,1-8.33c.52-1.67.93-2,1.13-2h0c.36-.06,1-.07,1.38,1.56a70.25,70.25,0,0,1,1.63,10.39c.07.71.14,1.46.21,2.27" transform="translate(-1532.03 -558.85)"/><polyline class="cls-2" points="8.76 83.71 10.15 84.04 10.21 84.06"/><polyline class="cls-2" points="9.02 75.1 9.02 75.1 9.02 75.1"/><path class="cls-2" d="M1543.35,647.13c-.66,4-2.38,6.78-4.44,6.81-2.69,0-5-4.72-5-10.61s2-10.73,4.73-10.76a2.41,2.41,0,0,1,1.23.32" transform="translate(-1532.03 -558.85)"/><path class="cls-2" d="M1544.33,647.41c-.73,5-2.84,8.59-5.39,8.62-3.07.05-5.67-5.12-6-11.72,0-.32,0-.64,0-1-.11-7.06,2.42-12.82,5.64-12.87a2.93,2.93,0,0,1,.88.13h0" transform="translate(-1532.03 -558.85)"/><path class="cls-2" d="M1539.43,657.88c-3.66-.12-6.72-6-7.11-13.54,0-.37,0-.75,0-1.12-.09-5.67,1.37-10.62,3.58-13.13a8.08,8.08,0,0,1,.73-.71,4.14,4.14,0,0,1,2.41-1" transform="translate(-1532.03 -558.85)"/><path class="cls-2" d="M1546.13,647.92c-.88,5.76-3.45,9.92-6.54,10h-.13" transform="translate(-1532.03 -558.85)"/><path class="cls-2" d="M1553.16,649.94c-1.11,4.79-3.44,8.08-6.19,8.12a1.2,1.2,0,0,1-.19,0" transform="translate(-1532.03 -558.85)"/><path class="cls-2" d="M1550.67,631.18a.83.83,0,0,0,.08.12" transform="translate(-1532.03 -558.85)"/><polyline class="cls-2" points="7.4 99.03 7.43 99.03 14.75 99.21"/><path class="cls-2" d="M1541.3,612c1.13-.82,2.71-1.85,2.71-1.85a2.19,2.19,0,0,1,.78-.67,89,89,0,0,1,8.92-4.51h0c3.93-1.63,9.94-3.52,9.94-3.52s3.42-.68,4.65-3c.06-.13.14-.3.23-.52s.23-.57.36-.94c1.78-5,5.71-19.09,5.71-19.09a1.79,1.79,0,0,0,.14-.56.67.67,0,0,0-.46-.8,16.39,16.39,0,0,0-5.51,0,21.73,21.73,0,0,0-2.8.57,17.49,17.49,0,0,0-1.77.59,11.33,11.33,0,0,0-3.12,1.8h0" transform="translate(-1532.03 -558.85)"/><path class="cls-2" d="M1538.12,618.85h0l1.2-4.09a5.81,5.81,0,0,1,1.65-2.49l.32-.25" transform="translate(-1532.03 -558.85)"/><line class="cls-2" x1="69.19" y1="80.01" x2="71.23" y2="80.02"/><path class="cls-2" d="M1609.94,657.88l.63.14h0l4.69.2c2.82.07,5.39-1.61,7.22-4.34" transform="translate(-1532.03 -558.85)"/><path class="cls-2" d="M1604.78,653.7a9.18,9.18,0,0,0,5.14,4.17" transform="translate(-1532.03 -558.85)"/><path class="cls-2" d="M1557.18,600.77h0a59.35,59.35,0,0,1,8.22-2.68c0-.08,2.17-7.41,3.13-10.31s4.23-10.68,4.23-10.68a25.55,25.55,0,0,0-7.15,1,.73.73,0,0,0-.07.13" transform="translate(-1532.03 -558.85)"/><path class="cls-2" d="M1565.54,578.23c-.51,1.06-3.79,7.85-4.58,10.34-.87,2.7-3.55,9.69-3.78,12.2" transform="translate(-1532.03 -558.85)"/><path class="cls-2" d="M1574.71,577.36l-1.28-.25s-3.78,9.36-4.09,10.71-2.7,9.81-2.7,9.81.39.1,2.25-.62" transform="translate(-1532.03 -558.85)"/><path class="cls-2" d="M1545.5,608l.1-1.31s-1.35,1.6-1.86,2.31-2.32,2.92-2.44,3.06h0" transform="translate(-1532.03 -558.85)"/><path class="cls-2" d="M1545.5,608s0,0,0,0Z" transform="translate(-1532.03 -558.85)"/><polyline class="cls-2" points="13.46 49.1 13.46 49.1 13.47 49.09"/><path class="cls-2" d="M1568.39,597.93a7.05,7.05,0,0,1-2,.87c-1,.24-9.57,3.14-11.42,3.77l-.1,0-.26.09a46.5,46.5,0,0,0-6.55,3.37l-1,.64c-1.3.89-1.53,1.17-1.57,1.25" transform="translate(-1532.03 -558.85)"/><path class="cls-2" d="M1563.12,579.92c-2.79,1.24-8.44,9.94-10.35,13.49s-4.13,11.41-4.13,11.41l6.11-3.24" transform="translate(-1532.03 -558.85)"/><path class="cls-2" d="M1564.2,577.74l-1.07,2.18c-1.49,3.07-4.11,8.54-4.91,10.86-1,3-2.68,8.52-3.21,10.86a6.74,6.74,0,0,0-.14.72" transform="translate(-1532.03 -558.85)"/><polyline class="cls-2" points="33.94 18.3 33.51 19.38 33.51 19.38"/><path class="cls-2" d="M1536.51,601.11a1,1,0,0,1,.67-1.25,17.13,17.13,0,0,1,2.71-.56,12.13,12.13,0,0,1,3.54.07c1.24.22,1.37.44,1.26,1.23a13.18,13.18,0,0,1-.75,3.66c-.41.68-.74.84-1.75.82s-3.84-.55-3.84-.55-1-.07-1.26-.7S1536.51,601.11,1536.51,601.11Z" transform="translate(-1532.03 -558.85)"/><path class="cls-2" d="M1576,573.37a9.89,9.89,0,0,1,4.65,1.6" transform="translate(-1532.03 -558.85)"/><path class="cls-2" d="M1608.42,576.35l1.43-1.48s.65-.8,3.54-.79c3,0,8.08.24,10.22.44s2.25.61,2.59,1.4.64,1.34.64,1.34" transform="translate(-1532.03 -558.85)"/><path class="cls-2" d="M1641.33,573.85l.29,0,1.38.24,1,.18c.9.19,3.27.5,4.17,1.45a.94.94,0,0,1,.26.7l0,.55-.07,1.29.37.66c.56,1,1.69,3.15,2.8,5.5,1.57,3.3,3.81,9.55,3.81,9.55a11.88,11.88,0,0,1,.72,2.9c0,.62-.09.91-.39,1.05a3.11,3.11,0,0,1-1.13.17c-1.09.06-2.87.05-2.87.05s-56.87-1.32-59.57-1.41-3.19,0-6.78-.28a6,6,0,0,1-1.1-.2,2.46,2.46,0,0,1-1.83-2.91s.35-13.21.45-16.09c0-.13,0-.24,0-.33a6.78,6.78,0,0,0-.46-3" transform="translate(-1532.03 -558.85)"/><path class="cls-2" d="M1582.86,577l2.17-2.64s.86-1.2,5.35-1.66c3.42-.35,10.92-.68,19.31-.63h.48c1.15,0,2.3,0,3.47.05,1.36,0,2.73.07,4.1.13,3.07.12,5.7.2,8.09.28,1.79.06,3.46.13,5.08.22,2,.11,3.85.26,5.84.49,1.45.16,3,.37,4.58.63" transform="translate(-1532.03 -558.85)"/><path class="cls-2" d="M1570.06,573.42a19.61,19.61,0,0,1,6-2.63l1.07-.22,1.82-.26s.66-.14.65.32-.2,1.76-.2,1.76-2,0-4.41.11a19,19,0,0,0-4.89.92l-1.46.45-.28.1a10.93,10.93,0,0,0-1.69.76,13.69,13.69,0,0,0-2.4,1.66c-5.71,4-9.17,11-9.27,11.16h0" transform="translate(-1532.03 -558.85)"/><path class="cls-2" d="M1566.57,574.62a8.05,8.05,0,0,1,1.4-1.26c.14-.1.28-.21.44-.31a16.13,16.13,0,0,1,4.2-2c1.24-.4,2.32-.7,3.24-.92a25.7,25.7,0,0,1,3.47-.66" transform="translate(-1532.03 -558.85)"/><line class="cls-2" x1="36.38" y1="14.19" x2="36.29" y2="15.11"/><path class="cls-2" d="M1568,573.36s.15-1.17,3-2.37a30.24,30.24,0,0,1,7-2.16,12.05,12.05,0,0,1,4.32-.08s1.79.38,2.11,1.72a19.55,19.55,0,0,1,.42,2.43,3.26,3.26,0,0,1-1.82.32,2.51,2.51,0,0,1-.45-.07,10,10,0,0,0-3.2-.76" transform="translate(-1532.03 -558.85)"/><path class="cls-2" d="M1581.75,570.16a6.39,6.39,0,0,1,.81,3" transform="translate(-1532.03 -558.85)"/><path class="cls-2" d="M1547.19,603.38h0a4.09,4.09,0,0,1-.17,3.24" transform="translate(-1532.03 -558.85)"/><path class="cls-2" d="M1584.83,572.9s3.32-1.29,24.86-.86" transform="translate(-1532.03 -558.85)"/><path class="cls-2" d="M1625.83,572.44a36.31,36.31,0,0,1,10.54-1.85,10.59,10.59,0,0,1,2.76.3c3.22.81,3.91,3,3.91,3" transform="translate(-1532.03 -558.85)"/><path class="cls-2" d="M1630.91,572.73a53.24,53.24,0,0,1,5.87-.64,9.88,9.88,0,0,1,4.55,1.76h0" transform="translate(-1532.03 -558.85)"/><line class="cls-2" x1="104.74" y1="13.24" x2="104.72" y2="14.37"/><path class="cls-2" d="M1639.13,570.89a4.37,4.37,0,0,1,2.51,2.92" transform="translate(-1532.03 -558.85)"/><path class="cls-2" d="M1610.17,571.79s.17-.65,1.28-.95c0,0,2.61-11.74,2.61-11.74l.61,0-2.23,11.64s1.14.44,1.2,1.11" transform="translate(-1532.03 -558.85)"/><polyline class="cls-2" points="41.11 46.8 38.83 51.92 38.81 51.96 38.19 53.37 51.87 53.23 58.22 53.17 58.24 53.14 59.36 51.86 51.85 51.88 38.83 51.92"/><polygon class="cls-2" points="125.46 53.27 119.41 52.97 120.49 54.25 125.41 54.53 132.59 54.94 132.59 54.94 132.58 54.82 132.53 54.43 132.48 53.88 132.45 53.63 125.46 53.27"/><path class="cls-2" d="M1609.92,657.87h0c.38.08,5.23,1.11,6.58-3.89" transform="translate(-1532.03 -558.85)"/><polyline class="cls-2" points="12.23 70.24 19.13 69.69 24.43 69.27"/><path class="cls-2" d="M1572.16,638.66s9.26,0,18.8.07" transform="translate(-1532.03 -558.85)"/><line class="cls-2" x1="122.33" y1="79.88" x2="136.75" y2="80.24"/><path class="cls-2" d="M1645.64,653.84c.4,8.65,3,15.33,6.19,15.33h.07c1.86-.06,3.52-2.43,4.65-6.13a33.69,33.69,0,0,0,1-4.63A44.75,44.75,0,0,0,1658,653v0" transform="translate(-1532.03 -558.85)"/><path class="cls-2" d="M1661.27,669.16c3.44,0,6.22-7.88,6.21-17.58,0-.33,0-.65,0-1" transform="translate(-1532.03 -558.85)"/><path class="cls-2" d="M1647.63,653.7c.36,5.62,2.1,9.89,4.19,9.88,1.54,0,2.88-2.3,3.62-5.75h0a27.43,27.43,0,0,0,.58-4.73" transform="translate(-1532.03 -558.85)"/><polyline class="cls-2" points="129.24 110.3 119.87 110.31 119.8 110.31"/><line class="cls-2" x1="35.88" y1="88.84" x2="39.34" y2="88.92"/><path class="cls-2" d="M1560.43,649.76c0-.14,0-.28,0-.41" transform="translate(-1532.03 -558.85)"/><path class="cls-2" d="M1560.4,651c0-.13,0-.27,0-.4" transform="translate(-1532.03 -558.85)"/><path class="cls-2" d="M1560.46,648.74c.32-6.91,1.68-12.28,3.16-12.25s2.72,6.23,2.53,13.82-1.62,13.71-3.21,13.67-2.57-5.46-2.55-12.39" transform="translate(-1532.03 -558.85)"/><path class="cls-2" d="M1560.39,652.37c0,9.44,1.5,16.8,3.54,16.85h0c2.07,0,3.94-7.53,4.36-17.15" transform="translate(-1532.03 -558.85)"/><path class="cls-2" d="M1560.39,651.79v.55" transform="translate(-1532.03 -558.85)"/><path class="cls-2" d="M1560.4,651v.24c0,.13,0,.25,0,.37" transform="translate(-1532.03 -558.85)"/><path class="cls-2" d="M1560.47,648.54c0,.07,0,.13,0,.2s0,.25,0,.37,0,.16,0,.24" transform="translate(-1532.03 -558.85)"/><path class="cls-2" d="M1560.5,648l0,.45" transform="translate(-1532.03 -558.85)"/><path class="cls-2" d="M1565.32,631.44a1,1,0,0,0-.46-.13c-2,0-3.9,7.22-4.36,16.64" transform="translate(-1532.03 -558.85)"/><path class="cls-2" d="M1579.57,652.61v0c-.48,9.53-2.62,16.91-5,16.86" transform="translate(-1532.03 -558.85)"/><path class="cls-2" d="M1560.5,648c.4-7.73,1.88-13.66,3.49-13.62s3,7.2,2.79,16-1.82,15.88-3.58,15.84-2.79-6-2.81-13.79v-.78c0-.12,0-.24,0-.37a1.91,1.91,0,0,1,0-.24c0-.13,0-.27,0-.4v-.41c0-.14,0-.28,0-.41s0-.28,0-.41a1.93,1.93,0,0,1,0-.24c0-.19,0-.38,0-.57v-.1l0-.45Z" transform="translate(-1532.03 -558.85)"/><line class="cls-2" x1="31.93" y1="110.37" x2="42.56" y2="110.63"/></svg>