<svg id="Capa_1" data-name="Capa 1" xmlns="http://www.w3.org/2000/svg" viewBox="0 0 69.7 47.43"><defs><style>.cls-1{fill:#e4e4e4;}.cls-2{fill:#fff;}.cls-3{fill:none;stroke:#000;stroke-linecap:round;stroke-linejoin:round;stroke-width:0.5px;}</style></defs><title>ruta-ovejas</title><path class="cls-1" d="M1803.34,723.13c-1,.93-.41,1.71-1.74.27a.64.64,0,0,1-.34-.58c-.08-1.57-.08-3-.09-4.56-.05-.83-.75-1.51-.56-2.18h0c1.1-.22,1.52.68,2,1.34-.17,1.26.12,2.6,0,3.78.81,0,.28.86.37,1.23l.4.14a.74.74,0,0,0,0,.53Z" transform="translate(-1739.08 -679.94)"/><path class="cls-2" d="M1796.91,713.36a2,2,0,0,1-.27-.22A1.23,1.23,0,0,1,1796.91,713.36Z" transform="translate(-1739.08 -679.94)"/><path class="cls-1" d="M1796,712.53l-.35.24c.1.69-.45,1.1-1,1.49l0,0c.94.66.38,1.07-.38,1.67.58.57-.12.8-.2,1.41l-.42.13a5.91,5.91,0,0,0-.63-1.06c-.07-.71-.4-1.13-1.1-1.18h0a1.69,1.69,0,0,1,0-.25c.09-.54.27-.62-.54-1.28l-.13,0a1.27,1.27,0,0,1,.06-.18,2.73,2.73,0,0,1-.62-1.74c-.24-.43-.65-.57-.69-1l-.34-.29.23-.11c1.1-.75,2.31-.31,3.6-.26s.52.93,1.5,1.4A4.31,4.31,0,0,1,1796,712.53Z" transform="translate(-1739.08 -679.94)"/><path class="cls-2" d="M1792,715a1.69,1.69,0,0,0,0,.25,1.5,1.5,0,0,0,0,.3,7.11,7.11,0,0,1,0,1.65H1792a6.09,6.09,0,0,1-2.29-1.86c-.44-.3-1.08-.42-1.09-1-.33-.58-.72-.11-1-1.17-.52-.16-.94-.12-1.33-.57-.53-.18-.88,0-1.12-.52a1.35,1.35,0,0,1-1.67-1.13v0c.25-.06.28-.29.59-.28.86.51,1.41-.06,2.34.33a2.64,2.64,0,0,0,1.56-.22,3.08,3.08,0,0,0,1.83-.27l.34.29c0,.46.45.6.69,1a2.73,2.73,0,0,0,.62,1.74,1.27,1.27,0,0,0-.06.18,1.42,1.42,0,0,0,.43,1.26Z" transform="translate(-1739.08 -679.94)"/><path class="cls-1" d="M1793.54,722a4.8,4.8,0,0,0-.82.49l-.06,0c.51-1.66-.61-.31-1.36.34a1.65,1.65,0,0,1-.08-.34,2.64,2.64,0,0,0-.55.08v-.12c-.57-.79,1.13-2.47,1.36-5.23a7.11,7.11,0,0,0,0-1.65,1.5,1.5,0,0,1,0-.3h0c.7,0,1,.47,1.1,1.18a5.91,5.91,0,0,1,.63,1.06l.42-.13c.08-.61.78-.84.2-1.41.76-.6,1.32-1,.38-1.67l0,0c.52-.39,1.07-.8,1-1.49l.35-.24a4.39,4.39,0,0,0,.48.49,1.36,1.36,0,0,0,.12.12,2,2,0,0,0,.27.22c.7.79-1.11,2-1.26,2.8.7.77-.67.86-.3,1.63-.86.66-.19.53-.47,1.39-.36,1.23-1.06,2.08-1.21,2.86Z" transform="translate(-1739.08 -679.94)"/><path class="cls-2" d="M1791.76,715a1.42,1.42,0,0,1-.43-1.26l.13,0c.81.66.63.74.54,1.28Z" transform="translate(-1739.08 -679.94)"/><path class="cls-1" d="M1779.24,715.09a.66.66,0,0,0,0,.11c0,.43-.28,1.63-.6,1.64s-.53-.94-.53-1a7.4,7.4,0,0,0-.49,1l-.47-.52c.16-.34.24-.77.38-1h0c.66-.83,1.94-.94,2.2-2.19a2.68,2.68,0,0,1,1.86-1.86c.39-.32.31-.94.92-.44v0a.36.36,0,0,0-.08.09l.21.23s-.35.69-.27.86a.58.58,0,0,1-.3.65c-.23.05-.2.35-.16.38s-.25.48-.25.48-1.43,2.33-1.38,3.05h0a.44.44,0,0,1-.27.23c-.57,0-.75-1.33-.79-1.73,0,0,0-.05,0-.08Z" transform="translate(-1739.08 -679.94)"/><path class="cls-1" d="M1783.18,686.41a3.33,3.33,0,0,1-1.32.38s.41.84-.7.77c.52.74-2.63.43-3.36-.07,0-.1,0-.21,0-.32C1778,685.38,1782.68,685.42,1783.18,686.41Z" transform="translate(-1739.08 -679.94)"/><path class="cls-2" d="M1779.06,694.1c0,.22,0,.44,0,.67a3.18,3.18,0,0,1-.4.87l-.06,0a.5.5,0,0,1-.48-.25l-.09-.13.13,0a6.3,6.3,0,0,1,.74-1.08Z" transform="translate(-1739.08 -679.94)"/><path class="cls-2" d="M1778,693.23a.83.83,0,0,1,.75-.43l.11,0a7,7,0,0,1,.19,1.32h-.16a6.3,6.3,0,0,0-.74,1.08l-.13,0a6.69,6.69,0,0,1-.35-.76c-.24-.55-.49-1-.94-.67l-.42-.15c.14-1.15,1-1,1.59-.43Z" transform="translate(-1739.08 -679.94)"/><path class="cls-2" d="M1776.74,693.79c.45-.35.7.12.94.67l-.36-.05C1777,694.39,1776.83,694.24,1776.74,693.79Z" transform="translate(-1739.08 -679.94)"/><path class="cls-2" d="M1778.66,695.64c-1.1,1.66-3.41,1.28-4.34-.78l-.06,0,.22-.13c1,.55,2.36,1.61,3.58.71l.06-.06a.5.5,0,0,0,.48.25Z" transform="translate(-1739.08 -679.94)"/><path class="cls-1" d="M1772.6,724.83c-.06.3-.14.85-.21,1.28h-.08c-.24-.18-.33-.83-.76-.87v-.05c.29-1.33.91-2.44.67-3.77a10,10,0,0,1,.14-5.82h.06c.58-.25.42.32.77.45a1.18,1.18,0,0,1,1.45.42,14.29,14.29,0,0,0,1.64.71l0,0a.35.35,0,0,0-.07.12c-.35,2.43-2,4.82-1.55,7.42l.12,0a2.14,2.14,0,0,0-.06.35h-.08a1.78,1.78,0,0,0-.72.66h0c-.22-.41,0-.49-.32-.69l0,0c-.13.29-.14.77-.5,1.08A4.53,4.53,0,0,1,1772.6,724.83Z" transform="translate(-1739.08 -679.94)"/><path class="cls-1" d="M1768.69,713.1c.59.57-.2,1.49,1.29.92.42,1.91,1.17-.36,1.57,1a.69.69,0,0,0,.4.2v0a27.6,27.6,0,0,0-1.21,8.85h0l-.33.43-.11,0c-.78.29-1.13,1.23-1.77,1.9l-.1,0-.15-.47-.08,0-.06-.14c-.32-.26,0-.51,0-.79a20.81,20.81,0,0,0,.61-4.63,13,13,0,0,1-.47-7.26l0-.07A1.14,1.14,0,0,0,1768.69,713.1Z" transform="translate(-1739.08 -679.94)"/><path class="cls-1" d="M1777.8,687.49c.73.5,3.88.81,3.36.07,1.11.07.7-.77.7-.77a3.33,3.33,0,0,0,1.32-.38c-.5-1-5.14-1-5.42.76C1777.77,687.28,1777.79,687.39,1777.8,687.49Zm-3.54,7.34.06,0c.93,2.06,3.24,2.44,4.34.78a3.18,3.18,0,0,0,.4-.87c0-.23,0-.45,0-.67a7,7,0,0,0-.19-1.32l-.11,0a.83.83,0,0,0-.75.43l-.1,0c-.58-.62-1.45-.72-1.59.43l.42.15c.09.45.23.6.58.62l.36.05a6.69,6.69,0,0,0,.35.76l.09.13-.06.06c-1.22.9-2.53-.16-3.58-.71Zm-7-7.37-.18-.36.17-.11c-.25-.33,0-.61.1-.89l0,0c-1-.67-2.45.18-3.51.24.89,1.29,1.12,1.4,1.12,1.4a2,2,0,0,0,1.73.39A2.89,2.89,0,0,1,1767.26,687.46Zm-2.69.95a6,6,0,0,1-1.75-2.29l.43-.17c.4-.15.87-.4,1.37-.64a9.11,9.11,0,0,1,.86-.35l-.24-.34a.46.46,0,0,0-.19,0v-.06a4.28,4.28,0,0,1,1.94-2.44c.81-.64,1.89-1.75,2.94-1.47.68-.56,2.31-.23,3.16-.37.35-.14.48,0,.72.2s.61-.09,1,0a6.73,6.73,0,0,0,2.37,1.5c.63,0,.8.14.67.66.36.35.37.39.25.84.51.24.2.9.65,1.28,1.8.44,4.58,0,5.39,2.1v.08c1.26-.58,2.2-.48,4.6-.33a14.07,14.07,0,0,1,2.62.18c.73,0,1.63-.36,2.14.21l.17,0c.51-.35.89,0,1.38.16.74.1,1.39,0,1.89.63a1.22,1.22,0,0,1,1.27.64v.07c.89-.35,1.08.35,1.7.81.58.21,1.32,0,1.42.83.68.39,1,0,1.17,1,.68.49.49.69.69,1.38.61.37.16.83.39,1.35.88,2.61-.75,5.62,0,8.42l-.54.32c.75.95.23.72-.18,1.62-.07.26.29.47.12.77a.69.69,0,0,0-.25.77c-.26,1.57.92,1.78.06,2.12l0,.07c.18.35.56.6,0,1h0c.39.35.16.66.32,1.12.44.32.3.47.49.89.23.19.47.26.49.49-.29.87-.11.68.22,1.34-.38.63,0,1.06-.32,1.77-.1.45.3.67-.12,1.14-.23.44.22.65.18,1.19a12.77,12.77,0,0,0-.15,3c.25.44,0,.78,0,1.28.38.46.22.85.19,1.45a1,1,0,0,1-.14,1.09h-.13a2.93,2.93,0,0,1-.41-.66.74.74,0,0,1,0-.53l-.4-.14c-.09-.37.44-1.27-.37-1.23.15-1.18-.14-2.52,0-3.78-.51-.66-.93-1.56-2-1.34v0c-.3-.72-1.4-.57-1.77-1-.13-.53-.62-.17-.8-.5-.16-.66-.68-.91-1.14-1.23a1.23,1.23,0,0,0-.27-.22,1.36,1.36,0,0,1-.12-.12,4.39,4.39,0,0,1-.48-.49,4.31,4.31,0,0,0-1-1c-1-.47-.27-1.44-1.5-1.4s-2.5-.49-3.6.26l-.23.11a3.08,3.08,0,0,1-1.83.27,2.64,2.64,0,0,1-1.56.22c-.93-.39-1.48.18-2.34-.33-.31,0-.34.22-.59.28h-.08c-.34.06-.61-.12-.8,0v0c-.61-.5-.53.12-.92.44a2.68,2.68,0,0,0-1.86,1.86c-.26,1.25-1.54,1.36-2.2,2.19h0l0,0,0,0c-.14.21-.22.64-.38,1a1.19,1.19,0,0,1-.18.29c-.18.24-.49.3-.65.51l0,0a14.29,14.29,0,0,1-1.64-.71,1.18,1.18,0,0,0-1.45-.42c-.35-.13-.19-.7-.77-.45h-.06c0-.22-.22-.28-.42-.34a.69.69,0,0,1-.4-.2c-.4-1.39-1.15.88-1.57-1-1.49.57-.7-.35-1.29-.92a1.14,1.14,0,0,1-.39-.06c-.51-.18-.49-.78-.89-1.06-.93,0-.73-.87-1-1.42s-.8-.75-1-1.15l0,.06-.07-.05c-.28-.49-.57-.5-.95-.65-.23-.58-.73-.85-.62-1.54-1-.78-.87-.13-.91-1.7-1.38.55-.3-2.64.11-3.32-.57-1.07.72-1.79-.07-2.41.84-1.43.26-2.61.2-4.09.27-.82.78-1.31,1-2.11s.09-1.4.48-2a1.32,1.32,0,0,1-.28-1.14h0c-.85.08-.19-1,.11-1.6a2.19,2.19,0,0,0,.13-.33Z" transform="translate(-1739.08 -679.94)"/><path class="cls-1" d="M1767.37,686.07l0,0c-.14.28-.35.56-.1.89l-.17.11.18.36a2.89,2.89,0,0,0-.55.64,2,2,0,0,1-1.73-.39s-.23-.11-1.12-1.4C1764.92,686.25,1766.36,685.4,1767.37,686.07Z" transform="translate(-1739.08 -679.94)"/><path class="cls-2" d="M1765.24,684.62l.24.34a9.11,9.11,0,0,0-.86.35l-.19-.29c.27-.1.38-.42.62-.44A.46.46,0,0,1,1765.24,684.62Z" transform="translate(-1739.08 -679.94)"/><path class="cls-1" d="M1755.36,716.67c-.92-1.25.08-2.44.33-4.54l.12,0c.43.27.85.55,1.32.86a1.4,1.4,0,0,0,1.43,1.25c.3.22.56.45,1,.32l0,.11a11.11,11.11,0,0,1-1.06,2.38h-.07l.29.26a1,1,0,0,0-.3,1.32c-.26.84.36,1.5.45,2.34a.42.42,0,0,1-.13.6l.13,0c.15.54.31,1.07.47,1.6v0a9.71,9.71,0,0,0-1.54,1c-.46-.12-.85.73-.94,0h-.07l-.69.54c-.67-1.07-.25-2.21-.09-3.36a3.55,3.55,0,0,0-.06-1.62c-.14-1.14-1.87-2.15-.67-3.13Z" transform="translate(-1739.08 -679.94)"/><path class="cls-1" d="M1751,721.45l0,0a4.58,4.58,0,0,0-1.48.55.54.54,0,0,1-.52,0h0a13,13,0,0,0,2-5.87c-.16-1.41-.64-4.43.42-5.08a1.17,1.17,0,0,1,.33-.11c.52.39,1.33.88,1.86.3.7-.1,1,0,1.16.19.3.49-.71,1.67-.92,2.51a6.84,6.84,0,0,0-.43,2.38c-.41,1.26-1,3.63-.3,4.27l.06,0a4.63,4.63,0,0,1-.73.91l-.48-.09c-.16.15-.8.65-1.06.59A.93.93,0,0,1,1751,721.45Z" transform="translate(-1739.08 -679.94)"/><path class="cls-2" d="M1747.92,695.45a4.26,4.26,0,0,0,2.95.24l.19,0c-.71,1.33-2.13,1.91-3.15-.18Z" transform="translate(-1739.08 -679.94)"/><path class="cls-1" d="M1753,688.24l.31-.26.17-.38-.43.32-.37.26s0,.08,0,.11Zm-1.94,7.49-.19,0a4.26,4.26,0,0,1-2.95-.24v.1C1748.93,697.64,1750.35,697.06,1751.06,695.73Zm-4.75-7.69-.77,0,0-.09-.24.07.21,0a.83.83,0,0,0-.06.21A.9.9,0,0,0,1746.31,688Zm-3.09.94-.07-.07c-.58-.35-.12-.65.1-1-1.54-.37-3.36-.95-3.92-2.48a9.14,9.14,0,0,1,4.11-.78,4,4,0,0,0,.51,0l0-.2c0-.47.23-.64.53-.85.21-.36.19-.74.68-.75.29,0,.27-.38.47-.52.68-.09.9-.64,1.37-.29.46-.48.72-.48,1.24,0l0,0c.45-.32,1.13-.7,1.55-.25l0,0a1.17,1.17,0,0,1,1.45.29c.53-.24.75-.21,1,.19l.1,0c1.1-.64,1.07.06,1.55.68.58.14.55.12.62.71,1.06.52.65.23.81,1.4,1.64.29,3.56.37,4.85,1.75a9.81,9.81,0,0,1-1.44.89v0c.49-.06.94.45,1.28.51.69-.28,1.06-.44,1.57,0,.82.21,2,.54,2.72.65h0c-.3.63-1,1.68-.11,1.6h0a1.32,1.32,0,0,0,.28,1.14c-.39.61-.27,1.23-.48,2s-.75,1.29-1,2.11c.06,1.48.64,2.66-.2,4.09.79.62-.5,1.34.07,2.41-.41.68-1.49,3.87-.11,3.32,0,1.57-.11.92.91,1.7-.11.69.39,1,.62,1.54.38.15.67.16.95.65l.07.05c-.43.62-1.06,1.09-1.7.68l0,.12c-.62.36-1.21.88-2,.51l-.06,0c-.51.35-1.8-.4-1.67.22a2.25,2.25,0,0,1,0,1.09c.31.21.35,1.24-.22,1.2l.2.12c.34.16.52,1.3-.12,1l0,.12-.18.08c-.4.13-.66-.1-1-.32a1.4,1.4,0,0,1-1.43-1.25c-.47-.31-.89-.59-1.32-.86l-.12,0a4.51,4.51,0,0,0,0-.54h-.12l-.76-.21h-.17c-.12-.21-.46-.29-1.16-.19-.53.58-1.34.09-1.86-.3a1.17,1.17,0,0,0-.33.11l-.08-.08c-.46-.24-.54-.68-.86-.91-.82.06-.74-.18-1-.75-.72-.23-1.68-.46-1.7-1.31a1,1,0,0,1-.2-1.45v0a1.12,1.12,0,0,1-.64-.67c-.47-.25-.74-.47-.67-1-.42-.63-1.33-1.13-.88-1.89a.88.88,0,0,1-.25-1v-.06c-.46-.13-.58-.55-.62-1.12a5.75,5.75,0,0,1-.54-1.5c-.35-.41-.67-.18-.51-.94-.67-.68-.53-.94-.16-1.76-.65-.3-.15-1.25.14-1.52-.25-.4-.46-.79-.14-1.24-.81-.45-.12-1.42,0-2.14-.29-.39-.44-.7-.11-1.09C1743.88,689.76,1742,690.18,1743.22,689Z" transform="translate(-1739.08 -679.94)"/><path class="cls-3" d="M1771.94,715.29a27.6,27.6,0,0,0-1.21,8.85h0l-.33.43a1.62,1.62,0,0,0-.4,1.65l.47-.62a1.33,1.33,0,0,0,.14-.19" transform="translate(-1739.08 -679.94)"/><path class="cls-3" d="M1783.43,711a1.35,1.35,0,0,0,1.67,1.13c.24.53.59.34,1.12.52.39.45.81.41,1.33.57.3,1.06.69.59,1,1.17,0,.59.65.71,1.09,1a6.09,6.09,0,0,0,2.29,1.86" transform="translate(-1739.08 -679.94)"/><path class="cls-3" d="M1764.36,690.37s0,0,0,.08a1.32,1.32,0,0,0,.28,1.14c-.39.61-.27,1.23-.48,2s-.75,1.29-1,2.11c.06,1.48.64,2.66-.2,4.09.79.62-.5,1.34.07,2.41-.41.68-1.49,3.87-.11,3.32,0,1.57-.11.92.91,1.7-.11.69.39,1,.62,1.54.38.15.67.16.95.65" transform="translate(-1739.08 -679.94)"/><path class="cls-3" d="M1782.46,711.05a.36.36,0,0,1,.08-.09c.19-.16.46,0,.8,0h.08c.25-.06.28-.29.59-.28.86.51,1.41-.06,2.34.33a2.64,2.64,0,0,0,1.56-.22,3.08,3.08,0,0,0,1.83-.27l.23-.11c1.1-.75,2.31-.31,3.6-.26s.52.93,1.5,1.4a4.31,4.31,0,0,1,1,1,4.39,4.39,0,0,0,.48.49,1.36,1.36,0,0,0,.12.12,2,2,0,0,0,.27.22c.46.32,1,.57,1.14,1.23.18.33.67,0,.8.5.37.4,1.47.25,1.77,1" transform="translate(-1739.08 -679.94)"/><path class="cls-3" d="M1798.14,688.46c.89-.35,1.08.35,1.7.81.58.21,1.32,0,1.42.83.68.39,1,0,1.17,1,.68.49.49.69.69,1.38.61.37.16.83.39,1.35.88,2.61-.75,5.62,0,8.42l-.54.32c.75.95.23.72-.18,1.62-.07.26.29.47.12.77a.69.69,0,0,0-.25.77c-.26,1.57.92,1.78.06,2.12l0,0" transform="translate(-1739.08 -679.94)"/><path class="cls-3" d="M1803.94,724a2,2,0,0,0-.12-.19,2.93,2.93,0,0,1-.41-.66.74.74,0,0,1,0-.53l-.4-.14c-.09-.37.44-1.27-.37-1.23.15-1.18-.14-2.52,0-3.78-.51-.66-.93-1.56-2-1.34h0c-.19.67.51,1.35.56,2.18,0,1.56,0,3,.09,4.56a.64.64,0,0,0,.34.58c1.33,1.44.75.66,1.74-.27" transform="translate(-1739.08 -679.94)"/><path class="cls-3" d="M1748.92,721.94a13,13,0,0,0,2-5.87c-.16-1.41-.64-4.43.42-5.08a1.17,1.17,0,0,1,.33-.11c.52.39,1.33.88,1.86.3.7-.1,1,0,1.16.19.3.49-.71,1.67-.92,2.51a6.84,6.84,0,0,0-.43,2.38c-.41,1.26-1,3.63-.3,4.27" transform="translate(-1739.08 -679.94)"/><path class="cls-3" d="M1752.25,688.34a1.36,1.36,0,0,0,1.09-.23c-.43,1.8-.86,4.66-1.75,5.68" transform="translate(-1739.08 -679.94)"/><path class="cls-3" d="M1748.26,682.07s0,0,0,0c-.52-.48-.78-.48-1.24,0-.47-.35-.69.2-1.37.29-.2.14-.18.48-.47.52-.49,0-.47.39-.68.75-.3.21-.58.38-.53.85" transform="translate(-1739.08 -679.94)"/><path class="cls-3" d="M1791.46,713.73c.81.66.63.74.54,1.28a1.69,1.69,0,0,0,0,.25,1.5,1.5,0,0,0,0,.3,7.11,7.11,0,0,1,0,1.65c-.23,2.76-1.93,4.44-1.36,5.23" transform="translate(-1739.08 -679.94)"/><path class="cls-3" d="M1744.19,688.29a2.38,2.38,0,0,1,.57,1.61,1.31,1.31,0,0,0,.21.63,1.75,1.75,0,0,1,.2.92,2.86,2.86,0,0,0,.29,1.25c.45.9.63,2,1.59,2.32" transform="translate(-1739.08 -679.94)"/><path class="cls-3" d="M1745.59,687.84a.14.14,0,0,0,0,.06l0,.09a.83.83,0,0,0-.06.21c-.34,1.55,1.14,3.09,1.46,4.66" transform="translate(-1739.08 -679.94)"/><path class="cls-3" d="M1774.32,694.86c.93,2.06,3.24,2.44,4.34.78a3.18,3.18,0,0,0,.4-.87c0-.23,0-.45,0-.67a7,7,0,0,0-.19-1.32c-.4-1.75-1.24-3.11-.93-3.69" transform="translate(-1739.08 -679.94)"/><path class="cls-3" d="M1758.31,702.69c0,1.29-1,.69-1.58,1.23-.32.45-.14.93-.58,1.34-.65.33-1.38.94-.68,1.55" transform="translate(-1739.08 -679.94)"/><path class="cls-3" d="M1768.28,713.11a13,13,0,0,0,.47,7.26,20.81,20.81,0,0,1-.61,4.63c-.07.28-.34.53,0,.79" transform="translate(-1739.08 -679.94)"/><path class="cls-3" d="M1744.78,684.54a7.53,7.53,0,0,0-.83.1,4,4,0,0,1-.51,0,9.14,9.14,0,0,0-4.11.78" transform="translate(-1739.08 -679.94)"/><path class="cls-3" d="M1744.53,685.89a4.13,4.13,0,0,0-4.17-.19" transform="translate(-1739.08 -679.94)"/><path class="cls-3" d="M1784.09,686.8c-.81-2.07-3.59-1.66-5.39-2.1-.45-.38-.14-1-.65-1.28.12-.45.11-.49-.25-.84.13-.52,0-.67-.67-.66a6.73,6.73,0,0,1-2.37-1.5c-.34-.07-.58.14-1,0s-.37-.34-.72-.2c-.85.14-2.48-.19-3.16.37-1-.28-2.13.83-2.94,1.47a4.28,4.28,0,0,0-1.94,2.44" transform="translate(-1739.08 -679.94)"/><path class="cls-3" d="M1760,706.87c-.61,1.92-1,.91-1.63,1.35s-1.15,1.7-1.91,1.2" transform="translate(-1739.08 -679.94)"/><path class="cls-3" d="M1739.33,685.45c.56,1.53,2.38,2.11,3.92,2.48-.22.33-.68.63-.1,1" transform="translate(-1739.08 -679.94)"/><path class="cls-3" d="M1776.29,717.18a14.29,14.29,0,0,1-1.64-.71,1.18,1.18,0,0,0-1.45-.42c-.35-.13-.19-.7-.77-.45" transform="translate(-1739.08 -679.94)"/><path class="cls-3" d="M1758.42,717.08l.29.26a1,1,0,0,0-.3,1.32c-.26.84.36,1.5.45,2.34a.42.42,0,0,1-.13.6c-.51.44-1.85.7-2.17.95" transform="translate(-1739.08 -679.94)"/><path class="cls-3" d="M1755.28,716.75c-1.2,1,.53,2,.67,3.13a3.55,3.55,0,0,1,.06,1.62c-.16,1.15-.58,2.29.09,3.36l.69-.54" transform="translate(-1739.08 -679.94)"/><path class="cls-3" d="M1743.37,688.85l-.15.13c-1.26,1.2.66.78-.08,1.55-.33.39-.18.7.11,1.09-.13.72-.82,1.69,0,2.14-.32.45-.11.84.14,1.24-.29.27-.79,1.22-.14,1.52-.37.82-.51,1.08.16,1.76-.16.76.16.53.51.94a5.75,5.75,0,0,0,.54,1.5c0,.57.16,1,.62,1.12l.14,0" transform="translate(-1739.08 -679.94)"/><path class="cls-3" d="M1752.42,682.18c1.1-.64,1.07.06,1.55.68.58.14.55.12.62.71,1.06.52.65.23.81,1.4,1.64.29,3.56.37,4.85,1.75a9.81,9.81,0,0,1-1.44.89" transform="translate(-1739.08 -679.94)"/><path class="cls-3" d="M1764.38,688.83c-.71-.11-1.9-.44-2.72-.65-.51-.48-.88-.32-1.57,0-.34-.06-.79-.57-1.28-.51a.71.71,0,0,0-.31.14,15.28,15.28,0,0,1-3.31.63" transform="translate(-1739.08 -679.94)"/><path class="cls-3" d="M1768.77,691.67c-.28,1.12-.63,1.54.61,2,.35.52-.29,1.15.73,1" transform="translate(-1739.08 -679.94)"/><path class="cls-3" d="M1808.52,721.09a3.32,3.32,0,0,0-3.59,2.9" transform="translate(-1739.08 -679.94)"/><path class="cls-3" d="M1751.25,692.67a3.6,3.6,0,0,1-.19,3.06c-.71,1.33-2.13,1.91-3.15-.18" transform="translate(-1739.08 -679.94)"/><path class="cls-3" d="M1796.64,713.14a1.23,1.23,0,0,1,.27.22c.7.79-1.11,2-1.26,2.8.7.77-.67.86-.3,1.63-.86.66-.19.53-.47,1.39-.36,1.23-1.06,2.08-1.21,2.86a1.31,1.31,0,0,0,0,.73" transform="translate(-1739.08 -679.94)"/><path class="cls-3" d="M1747.25,700.77c.11,1,.84.48,1.67.62.49.12.75,1.45,1.43.78" transform="translate(-1739.08 -679.94)"/><path class="cls-3" d="M1777.8,687.49l0,0" transform="translate(-1739.08 -679.94)"/><path class="cls-3" d="M1777.8,687.49c0-.1,0-.21,0-.32.28-1.79,4.92-1.75,5.42-.76a3.33,3.33,0,0,1-1.32.38s.41.84-.7.77C1781.68,688.3,1778.53,688,1777.8,687.49Z" transform="translate(-1739.08 -679.94)"/><path class="cls-3" d="M1777.83,689.1c.31-.51.09-1,0-1.61" transform="translate(-1739.08 -679.94)"/><path class="cls-3" d="M1764.39,692.4c.9,0,0,.77.72,1.64-.31.45-.15.62.25,1a1.29,1.29,0,0,0,.33.82" transform="translate(-1739.08 -679.94)"/><path class="cls-3" d="M1802.71,709l.07,0c.39.35.16.66.32,1.12.44.32.3.47.49.89.23.19.47.26.49.49-.29.87-.11.68.22,1.34-.38.63,0,1.06-.32,1.77-.1.45.3.67-.12,1.14-.23.44.22.65.18,1.19a12.77,12.77,0,0,0-.15,3c.25.44,0,.78,0,1.28.38.46.22.85.19,1.45a1,1,0,0,1-.14,1.09" transform="translate(-1739.08 -679.94)"/><path class="cls-3" d="M1767.45,687.36a.69.69,0,0,0-.19.1,2.89,2.89,0,0,0-.55.64,2,2,0,0,1-1.73-.39s-.23-.11-1.12-1.4c1.06-.06,2.5-.91,3.51-.24l.21.16" transform="translate(-1739.08 -679.94)"/><path class="cls-3" d="M1759.14,686.78a5.19,5.19,0,0,1-4.73.62" transform="translate(-1739.08 -679.94)"/><path class="cls-3" d="M1790.08,710.76c0,.46.45.6.69,1a2.73,2.73,0,0,0,.62,1.74,1.27,1.27,0,0,0-.06.18,1.42,1.42,0,0,0,.43,1.26" transform="translate(-1739.08 -679.94)"/><path class="cls-3" d="M1757.27,697.3c.23.73-.35,1.33-1,1.74.17,1.42-.65,1.75-1.83,1.88-.34.24-.43.82-1,.62" transform="translate(-1739.08 -679.94)"/><path class="cls-3" d="M1740.36,685.7c1.07.47,2.49,2.1,3.46,1.19" transform="translate(-1739.08 -679.94)"/><path class="cls-3" d="M1794.74,714.29c.94.66.38,1.07-.38,1.67.58.57-.12.8-.2,1.41" transform="translate(-1739.08 -679.94)"/><path class="cls-3" d="M1777,698.22c-.33.41-1.12-.08-1.46.5-.43-.4-1.19-.72-1.7-1.1-.15-.53-.41-.73-1-.57" transform="translate(-1739.08 -679.94)"/><path class="cls-3" d="M1755.74,711.59a4.51,4.51,0,0,1,0,.54c-.25,2.1-1.25,3.29-.33,4.54a4.81,4.81,0,0,0,1.47,1.21" transform="translate(-1739.08 -679.94)"/><path class="cls-3" d="M1747.49,706.49a1,1,0,0,0,.2,1.45c0,.85,1,1.08,1.7,1.31.27.57.19.81,1,.75.32.23.4.67.86.91" transform="translate(-1739.08 -679.94)"/><path class="cls-3" d="M1763.66,710.11l.06,0c.64.41,1.27-.06,1.7-.68l0-.06c.2.4.69.7,1,1.15s0,1.42,1,1.42c.4.28.38.88.89,1.06a1.14,1.14,0,0,0,.39.06c.59.57-.2,1.49,1.29.92.42,1.91,1.17-.36,1.57,1a.69.69,0,0,0,.4.2c.2.06.39.12.42.34h0a10,10,0,0,0-.14,5.82c.24,1.33-.38,2.44-.67,3.77" transform="translate(-1739.08 -679.94)"/><path class="cls-3" d="M1797.23,710.73a9.53,9.53,0,0,0,1,2.92" transform="translate(-1739.08 -679.94)"/><path class="cls-3" d="M1777.54,715.43c-.14.21-.22.64-.38,1a1.19,1.19,0,0,1-.18.29c-.18.24-.49.3-.65.51a.35.35,0,0,0-.07.12c-.35,2.43-2,4.82-1.55,7.42" transform="translate(-1739.08 -679.94)"/><path class="cls-3" d="M1777.56,715.41h0" transform="translate(-1739.08 -679.94)"/><path class="cls-3" d="M1777.52,715.46h0l0,0h0" transform="translate(-1739.08 -679.94)"/><path class="cls-3" d="M1782.53,710.93c-.61-.5-.53.12-.92.44a2.68,2.68,0,0,0-1.86,1.86c-.26,1.25-1.54,1.36-2.2,2.19h0l0,0" transform="translate(-1739.08 -679.94)"/><path class="cls-3" d="M1793.55,687.11a1,1,0,0,0-.11-.17c-.51-.57-1.41-.16-2.14-.21a14.07,14.07,0,0,0-2.62-.18c-2.4-.15-3.34-.25-4.6.33a13.51,13.51,0,0,0-1.72,1s-1.4,1.28-4.35.5" transform="translate(-1739.08 -679.94)"/><path class="cls-3" d="M1775.42,682.64c-.46-.42-1.11-.2-1.66-.32a1.07,1.07,0,0,0-1.31-.21" transform="translate(-1739.08 -679.94)"/><path class="cls-3" d="M1755.81,712.15c.43.27.85.55,1.32.86a1.4,1.4,0,0,0,1.43,1.25c.3.22.56.45,1,.32l.18-.08" transform="translate(-1739.08 -679.94)"/><path class="cls-3" d="M1792,715.26c.7,0,1,.47,1.1,1.18a5.91,5.91,0,0,1,.63,1.06l.26.41" transform="translate(-1739.08 -679.94)"/><path class="cls-3" d="M1808.37,721.12a10.91,10.91,0,0,0-2.12,2.36,5.19,5.19,0,0,1-.36.46" transform="translate(-1739.08 -679.94)"/><path class="cls-3" d="M1772.46,699.91a12.86,12.86,0,0,0-2.64-.54c.39-1.13-.67-.25-1-.49-.3-1-.81-.38-1.35,0" transform="translate(-1739.08 -679.94)"/><path class="cls-3" d="M1780.86,688.7c0,.65.64.9,1.14,1.26.12.61,0,1.33.67,1.73" transform="translate(-1739.08 -679.94)"/><path class="cls-3" d="M1783.41,697.6c.78,1.3-.56,1.8-.39,2.79.5,1.23-.07,1.13-.49,1.8.11.56,0,.61-.18,1.27" transform="translate(-1739.08 -679.94)"/><path class="cls-3" d="M1752.39,682.3l-.07-.1c-.29-.4-.51-.43-1-.19a1.17,1.17,0,0,0-1.45-.29" transform="translate(-1739.08 -679.94)"/><path class="cls-3" d="M1796.45,702.78c.18,2.43-1.33,1-1.11,2.3" transform="translate(-1739.08 -679.94)"/><path class="cls-3" d="M1751.63,707.42c-.28.91.78,1.67,1.69,1.55.43,1.7,1.4,1.24,1.28,2.19" transform="translate(-1739.08 -679.94)"/><path class="cls-3" d="M1770.29,688.81c1,.08,1.59.9,2.34,1.43" transform="translate(-1739.08 -679.94)"/><path class="cls-3" d="M1748.46,692.82c-.73,1.83,1.34,1.5,1.11,3" transform="translate(-1739.08 -679.94)"/><path class="cls-3" d="M1797.43,725.34c-.06-.69-.35-.23-.92-.19.36-1.81-.72-.44-1.61-.38" transform="translate(-1739.08 -679.94)"/><path class="cls-3" d="M1759.55,714.69a11.11,11.11,0,0,1-1.06,2.38" transform="translate(-1739.08 -679.94)"/><path class="cls-3" d="M1750.94,687.85a4.39,4.39,0,0,0,.27,3.77" transform="translate(-1739.08 -679.94)"/><path class="cls-3" d="M1747,693a6.54,6.54,0,0,0,1,2.49,4.26,4.26,0,0,0,2.95.24" transform="translate(-1739.08 -679.94)"/><path class="cls-3" d="M1766.79,688.62a2.74,2.74,0,0,1-2.22-.21,6,6,0,0,1-1.75-2.29l.43-.17c.4-.15.87-.4,1.37-.64a9.11,9.11,0,0,1,.86-.35,1.73,1.73,0,0,1,2.4.87" transform="translate(-1739.08 -679.94)"/><path class="cls-3" d="M1752.93,697.88c-.77.2-1.55-.77-2.32-.29" transform="translate(-1739.08 -679.94)"/><path class="cls-3" d="M1799.93,722a22,22,0,0,0,1.24,2.69l.14,0,.1-1.29" transform="translate(-1739.08 -679.94)"/><path class="cls-3" d="M1770.28,724.54c-.78.29-1.13,1.23-1.77,1.9l-.1,0-.15-.47" transform="translate(-1739.08 -679.94)"/><path class="cls-3" d="M1798.15,688.39a1.22,1.22,0,0,0-1.27-.64c-.5-.68-1.15-.53-1.89-.63-.49-.17-.87-.51-1.38-.16" transform="translate(-1739.08 -679.94)"/><path class="cls-3" d="M1773.37,683.35c.72-.24.33.54.58.83.63.08.17.51.63.86" transform="translate(-1739.08 -679.94)"/><path class="cls-3" d="M1750.91,721.43a4.58,4.58,0,0,0-1.48.55.54.54,0,0,1-.52,0c-.31-.19-.42-.59-1,.19l-.56-.71-.29.37" transform="translate(-1739.08 -679.94)"/><path class="cls-3" d="M1747.79,687.7a3.81,3.81,0,0,1,.3,2.28" transform="translate(-1739.08 -679.94)"/><path class="cls-3" d="M1756.1,691.9a1,1,0,0,1-.48,1.76" transform="translate(-1739.08 -679.94)"/><path class="cls-3" d="M1754.2,719.09a6.76,6.76,0,0,1-.34,1,1.72,1.72,0,0,0-.07,1.22l.65-.37c.2.34.52.09.91.21.16.19.25.36.59.32" transform="translate(-1739.08 -679.94)"/><path class="cls-3" d="M1777.91,693.21c-.58-.62-1.45-.72-1.59.43" transform="translate(-1739.08 -679.94)"/><path class="cls-3" d="M1764.56,688.51a2.19,2.19,0,0,1-.13.33c-.3.63-1,1.68-.11,1.6" transform="translate(-1739.08 -679.94)"/><path class="cls-3" d="M1763.68,710.27c-.62.36-1.21.88-2,.51" transform="translate(-1739.08 -679.94)"/><path class="cls-3" d="M1750.32,693c.69.57,0,1.71-.73,2" transform="translate(-1739.08 -679.94)"/><path class="cls-3" d="M1751.52,689a1.71,1.71,0,0,0,.59-.69c.14-.8,1.31-.45,1.72-1.1.34-2-2.22-.31-3.08-.06-.79-.41-1.61.16-2.37-.57-.79.62-1.06,0-1.64-.41a1.94,1.94,0,0,1-1.24,0c-.33,0-.76.64-.28.85" transform="translate(-1739.08 -679.94)"/><path class="cls-3" d="M1778.6,695.6a.5.5,0,0,1-.48-.25l-.09-.13a6.69,6.69,0,0,1-.35-.76c-.24-.55-.49-1-.94-.67.09.45.23.6.58.62" transform="translate(-1739.08 -679.94)"/><path class="cls-3" d="M1753.7,692.74c-.12,1.25-.62.68-1.06,1.68" transform="translate(-1739.08 -679.94)"/><path class="cls-3" d="M1798.29,700.19a4.64,4.64,0,0,1-.65,2.37" transform="translate(-1739.08 -679.94)"/><path class="cls-3" d="M1774.21,694.86l0,0,.22-.13c1,.55,2.36,1.61,3.58.71" transform="translate(-1739.08 -679.94)"/><path class="cls-3" d="M1765.87,724c.07.93-.19,2.08.45,3l.42-.49" transform="translate(-1739.08 -679.94)"/><path class="cls-3" d="M1744.83,687.59c1.43-.43,1.67.9,2.59,1.41" transform="translate(-1739.08 -679.94)"/><path class="cls-3" d="M1759.15,686.69c-3.22-1.75-3.44,0-5.2.09" transform="translate(-1739.08 -679.94)"/><path class="cls-3" d="M1770.69,681.66c.42.53.31.85-.24,1.11l-.35.49" transform="translate(-1739.08 -679.94)"/><path class="cls-3" d="M1745.06,701.9a.88.88,0,0,0,.25,1c-.45.76.46,1.26.88,1.89-.07.54.2.76.67,1a1.12,1.12,0,0,0,.64.67,1.2,1.2,0,0,0,.34,0" transform="translate(-1739.08 -679.94)"/><path class="cls-3" d="M1762.88,722.63c-.44.27-.88.52-1.43.9,0-.21,0-.36,0-.56a2.54,2.54,0,0,0-.84.58" transform="translate(-1739.08 -679.94)"/><path class="cls-3" d="M1774.5,693.42c-.51-.55.57-1.14-.2-1.57" transform="translate(-1739.08 -679.94)"/><path class="cls-3" d="M1796.52,723.13c-.4.53-1.56.92-1.62,1.64" transform="translate(-1739.08 -679.94)"/><path class="cls-3" d="M1792.59,722.68c0-.07.05-.14.07-.2.51-1.66-.61-.31-1.36.34" transform="translate(-1739.08 -679.94)"/><path class="cls-3" d="M1746.17,684.73c-.52,0-1.33-.08-1.23.88" transform="translate(-1739.08 -679.94)"/><path class="cls-3" d="M1767.15,725.68c-.12,1.28.43.53,1,.25a.75.75,0,0,1,.24-.08" transform="translate(-1739.08 -679.94)"/><path class="cls-3" d="M1782.39,705a1.34,1.34,0,0,1-.27,1.28c.27,1,.4.85-.35,1.54.63.56.68.6.14,1.48" transform="translate(-1739.08 -679.94)"/><path class="cls-3" d="M1799.79,724.07c-.69.19-.6-1.07-.83-1.42,0,0-.47,1.64-.72,2.32" transform="translate(-1739.08 -679.94)"/><path class="cls-3" d="M1795.5,705.13c-1.29-.1-.13,1.73-1.33,1.72.16.6.59,1.13-.57,1,.11.21.2.38.28.56" transform="translate(-1739.08 -679.94)"/><path class="cls-3" d="M1758.86,721.62c.15.54.31,1.07.47,1.6" transform="translate(-1739.08 -679.94)"/><path class="cls-3" d="M1752.65,723.7a15.53,15.53,0,0,0-.38,1.53" transform="translate(-1739.08 -679.94)"/><path class="cls-3" d="M1749.85,681.8l0-.06c-.42-.45-1.1-.07-1.55.25" transform="translate(-1739.08 -679.94)"/><path class="cls-3" d="M1770,683.25c.35.73-.75.54-.94,1.1" transform="translate(-1739.08 -679.94)"/><path class="cls-3" d="M1803,710.1c-2.29.28-.92,1-1.85,1.27" transform="translate(-1739.08 -679.94)"/><path class="cls-3" d="M1800,722.34a2.47,2.47,0,0,0,0,2.11" transform="translate(-1739.08 -679.94)"/><path class="cls-3" d="M1759.6,713.25h.06c.57,0,.53-1,.22-1.2a2.25,2.25,0,0,0,0-1.09c-.13-.62,1.16.13,1.67-.22l.05,0" transform="translate(-1739.08 -679.94)"/><path class="cls-3" d="M1754.68,724.32c-.34.2-.77,1.32-1.23.73" transform="translate(-1739.08 -679.94)"/><path class="cls-3" d="M1753.88,690.8c-.36.5.12,1.13.1,1.81" transform="translate(-1739.08 -679.94)"/><path class="cls-3" d="M1800,713.59c.08.3.56,1.6.93.69" transform="translate(-1739.08 -679.94)"/><path class="cls-3" d="M1760.16,722.35a2.22,2.22,0,0,1-.82.89,9.71,9.71,0,0,0-1.54,1" transform="translate(-1739.08 -679.94)"/><path class="cls-3" d="M1746.2,720.69c0,.4,0,.85,0,1.4" transform="translate(-1739.08 -679.94)"/><path class="cls-3" d="M1776.31,683.8c-.13.38-1.19.61-.71,1.12" transform="translate(-1739.08 -679.94)"/><path class="cls-3" d="M1783.28,693.53c.4-.59.23-1-.5-1.17" transform="translate(-1739.08 -679.94)"/><path class="cls-3" d="M1795.69,712.77c.1.69-.45,1.1-1,1.49" transform="translate(-1739.08 -679.94)"/><path class="cls-3" d="M1752.11,722.61c.06.44.61.84.79,1.33.25.34-.05.85.48,1" transform="translate(-1739.08 -679.94)"/><path class="cls-3" d="M1748.63,683.23a1.06,1.06,0,0,0-1.28.45" transform="translate(-1739.08 -679.94)"/><path class="cls-3" d="M1765.85,725.85c-.34.37-.25.83-.29,1.27" transform="translate(-1739.08 -679.94)"/><path class="cls-3" d="M1753.36,684.75l.31-.22a1.35,1.35,0,0,1,.23,1.35" transform="translate(-1739.08 -679.94)"/><path class="cls-3" d="M1755.33,685l-1.27.33" transform="translate(-1739.08 -679.94)"/><path class="cls-3" d="M1770.61,695.28a3.07,3.07,0,0,0,1.59.33l.24.32" transform="translate(-1739.08 -679.94)"/><path class="cls-3" d="M1755.44,693.57c.5.36.24,1.38-.48,1.18" transform="translate(-1739.08 -679.94)"/><path class="cls-3" d="M1797.44,702.15c-.17.4-.46,1.16-1,.44" transform="translate(-1739.08 -679.94)"/><path class="cls-3" d="M1778.73,684.87c-.25.5-.33,1-1.09,1" transform="translate(-1739.08 -679.94)"/><path class="cls-3" d="M1778.9,694.1a6.3,6.3,0,0,0-.74,1.08" transform="translate(-1739.08 -679.94)"/><path class="cls-3" d="M1760.47,721.43c.26.6-.13,1.34.08,2.12" transform="translate(-1739.08 -679.94)"/><path class="cls-3" d="M1752,714c-.29.39-.75-.34-1.25,0" transform="translate(-1739.08 -679.94)"/><path class="cls-3" d="M1774.18,689.34c.1.27.59.67.23,1.07" transform="translate(-1739.08 -679.94)"/><path class="cls-3" d="M1747.06,722a8.85,8.85,0,0,1-1-1.75" transform="translate(-1739.08 -679.94)"/><path class="cls-3" d="M1747.53,691.74c-.15.38-.29.76-.44,1.13" transform="translate(-1739.08 -679.94)"/><path class="cls-3" d="M1781.83,709.35c.45.32.38.63-.07,1" transform="translate(-1739.08 -679.94)"/><path class="cls-3" d="M1753.37,684.63c-.07-.61-.46-.53-.94-.51a1,1,0,0,0-1.11-.34" transform="translate(-1739.08 -679.94)"/><path class="cls-3" d="M1772.31,726.1c-.24-.18-.33-.83-.76-.87h-.1a1.39,1.39,0,0,1-.14,1.26" transform="translate(-1739.08 -679.94)"/><path class="cls-3" d="M1770.59,725.62c.09.24.17.48.25.71l.47.16" transform="translate(-1739.08 -679.94)"/><path class="cls-3" d="M1753.42,720c-.1.19-.21.37-.32.55a4.63,4.63,0,0,1-.73.91l-.48-.09" transform="translate(-1739.08 -679.94)"/><path class="cls-3" d="M1754.49,695.2a.77.77,0,0,1-.12,1.1" transform="translate(-1739.08 -679.94)"/><path class="cls-3" d="M1770.93,688.4c1.26-1.11-.35-1.09-1.23-.84,0,0,1,1.08,1.59.17,0,0-.11-.17-.11-.17l-.62-.06-.53.14c.24.13.64.36.93.1a.7.7,0,0,0-.41,0" transform="translate(-1739.08 -679.94)"/><path class="cls-3" d="M1767.35,686.1c-.14.28-.35.56-.1.89l-.17.11" transform="translate(-1739.08 -679.94)"/><path class="cls-3" d="M1776.74,726.39a4.66,4.66,0,0,0,.29-.8c-.33-.13-.72.1-1.14.22a2.25,2.25,0,0,1-.36.06" transform="translate(-1739.08 -679.94)"/><path class="cls-3" d="M1770.77,724.19a6.08,6.08,0,0,1,.48,1" transform="translate(-1739.08 -679.94)"/><path class="cls-3" d="M1777.94,726a5.14,5.14,0,0,0-1,.16" transform="translate(-1739.08 -679.94)"/><path class="cls-3" d="M1775.1,724.31a1.46,1.46,0,0,0-.27.48h0a2.14,2.14,0,0,0-.06.35,3.49,3.49,0,0,0,.12,1" transform="translate(-1739.08 -679.94)"/><path class="cls-3" d="M1777.1,687.84c.19.31.41.64.66,1.06" transform="translate(-1739.08 -679.94)"/><path class="cls-3" d="M1755.62,724.2a2.47,2.47,0,0,1-.76.76" transform="translate(-1739.08 -679.94)"/><path class="cls-3" d="M1774.6,686.25c.05.35-.86.68-.31,1" transform="translate(-1739.08 -679.94)"/><path class="cls-3" d="M1750.84,683.35c-.15-.33-.35-.59-.78-.48" transform="translate(-1739.08 -679.94)"/><path class="cls-3" d="M1783.44,693.39c.58.46.23.47.15,1a2.51,2.51,0,0,1-.13,1.92" transform="translate(-1739.08 -679.94)"/><path class="cls-3" d="M1793.54,722a4.8,4.8,0,0,0-.82.49" transform="translate(-1739.08 -679.94)"/><path class="cls-3" d="M1756.22,691.87c.43-.43.18-.75.12-1.3a.93.93,0,0,0-.35-1.29" transform="translate(-1739.08 -679.94)"/><path class="cls-3" d="M1778.76,692.8a.83.83,0,0,0-.75.43l-.07.14" transform="translate(-1739.08 -679.94)"/><path class="cls-3" d="M1791.52,721.86a.48.48,0,0,0-.3.62,1.65,1.65,0,0,0,.08.34" transform="translate(-1739.08 -679.94)"/><path class="cls-3" d="M1757,717.91l-1.1.6" transform="translate(-1739.08 -679.94)"/><path class="cls-3" d="M1774.69,725.14a1.78,1.78,0,0,0-.72.66.88.88,0,0,0-.1.37" transform="translate(-1739.08 -679.94)"/><path class="cls-3" d="M1772.17,687.94c.14.69.71,1.37.47,2.18" transform="translate(-1739.08 -679.94)"/><path class="cls-3" d="M1787.26,725a2.43,2.43,0,0,1-.13-1.64,15.89,15.89,0,0,0-.27-2.86c.74.77.32,2,2.16,3.13.1-.34.29-.86.29-.86.24,1,.86.72,1-.14l.38-.07a2.64,2.64,0,0,1,.55-.08" transform="translate(-1739.08 -679.94)"/><path class="cls-3" d="M1798.48,712.85a2.25,2.25,0,0,0-.16,1.28" transform="translate(-1739.08 -679.94)"/><path class="cls-3" d="M1754.32,688.61c.62.73-.62,1-.25,1.81" transform="translate(-1739.08 -679.94)"/><path class="cls-3" d="M1773.59,725.14c-.13.29-.14.77-.5,1.08a4.53,4.53,0,0,1-.49-1.39c-.06.3-.14.85-.21,1.28,0,.16-.05.31-.07.42" transform="translate(-1739.08 -679.94)"/><path class="cls-3" d="M1794.07,708.54c-.29,0-.3,0-.66.24a1.16,1.16,0,0,1,.4,1.23" transform="translate(-1739.08 -679.94)"/><path class="cls-3" d="M1806.25,723.48l1-.12a11.74,11.74,0,0,1-.62,1c.35.68,2.1-.35,1.53.8" transform="translate(-1739.08 -679.94)"/><path class="cls-3" d="M1759.86,713.38c.34.16.52,1.3-.12,1l-.07,0" transform="translate(-1739.08 -679.94)"/><path class="cls-3" d="M1747.38,683.76c-.49-.18-.77,0-.79.57" transform="translate(-1739.08 -679.94)"/><path class="cls-3" d="M1805.06,723a2.29,2.29,0,0,1,.15-1.39s-.44-.19-1,1.09" transform="translate(-1739.08 -679.94)"/><path class="cls-3" d="M1795.61,722.52c.47-.55.61-1.23,1.06-1.68a5.59,5.59,0,0,0-3.06,2.35" transform="translate(-1739.08 -679.94)"/><path class="cls-3" d="M1773.6,725.08l0,0c.27.2.1.28.32.69" transform="translate(-1739.08 -679.94)"/><path class="cls-3" d="M1774.94,686.43c-.14-.35-.73-.35-1-.66,0,0-.49.75-1.11.51s-1-.38-1.08-.24a1.62,1.62,0,0,1-1,0c0-.08-.36-.18-.48,0s-.75.48-.87.39" transform="translate(-1739.08 -679.94)"/><path class="cls-3" d="M1763,723.08c.75-.21.31.35.19.87" transform="translate(-1739.08 -679.94)"/><path class="cls-3" d="M1774.89,726.09l.19-.28c.09-.14.17-.29.25-.39s.1-.22.69-.6a1.51,1.51,0,0,1-.13.92" transform="translate(-1739.08 -679.94)"/><path class="cls-3" d="M1796.08,722c.42.08.25.66.43,1.09" transform="translate(-1739.08 -679.94)"/><path class="cls-3" d="M1802.75,707.94c.18.35.56.6,0,1" transform="translate(-1739.08 -679.94)"/><path class="cls-3" d="M1754.91,723.75c-.32.55,0,1.15-.12,1.71" transform="translate(-1739.08 -679.94)"/><path class="cls-3" d="M1798.41,712.22c.07.59.17.81.71.91" transform="translate(-1739.08 -679.94)"/><path class="cls-3" d="M1767.77,697.81c-.07.3-.15.61-.22.92" transform="translate(-1739.08 -679.94)"/><path class="cls-3" d="M1751.89,721.38c-.16.15-.8.65-1.06.59" transform="translate(-1739.08 -679.94)"/><path class="cls-3" d="M1765.24,684.62a.46.46,0,0,0-.19,0c-.24,0-.35.34-.62.44" transform="translate(-1739.08 -679.94)"/><path class="cls-3" d="M1751.45,721a1.45,1.45,0,0,0-.5.45.93.93,0,0,0-.12.52" transform="translate(-1739.08 -679.94)"/><path class="cls-3" d="M1776,686.9c0-.14,0-.28.07-.43h.11c.1.21.21.41.31.62" transform="translate(-1739.08 -679.94)"/><path class="cls-3" d="M1755.62,711.58l-.76-.21" transform="translate(-1739.08 -679.94)"/><path class="cls-3" d="M1753.22,725c0,.14,0,.29-.07.43" transform="translate(-1739.08 -679.94)"/><path class="cls-3" d="M1750,683c-.18-.37-.35-.43-.8-.29" transform="translate(-1739.08 -679.94)"/><path class="cls-3" d="M1756.84,724.13a.9.9,0,0,0,0,.18c.09.7.48-.15.94,0" transform="translate(-1739.08 -679.94)"/><path class="cls-3" d="M1753,697.61l-.13.11" transform="translate(-1739.08 -679.94)"/><path class="cls-3" d="M1769.85,687a2,2,0,0,1,1.73.6,1.8,1.8,0,0,0,1.4.45" transform="translate(-1739.08 -679.94)"/><path class="cls-3" d="M1744.83,687.62a1.31,1.31,0,0,0,.65.58.9.9,0,0,0,.83-.16l-.77,0-.21,0,.24-.07.38-.11-.83,0,.36-.22" transform="translate(-1739.08 -679.94)"/><path class="cls-3" d="M1752.72,688.29l-.29.06c-.08,0-.22-.13-.22-.13l.39-.25.4-.23" transform="translate(-1739.08 -679.94)"/><path class="cls-3" d="M1752.72,688.29c-.06,0,0-.11,0-.11l.37-.26.43-.32-.17.38-.31.26Z" transform="translate(-1739.08 -679.94)"/><path class="cls-3" d="M1753.6,687.42a.85.85,0,0,1-.5.82c-.22.09-.33.08-.38,0" transform="translate(-1739.08 -679.94)"/><path class="cls-3" d="M1782.67,711.28s-.35.69-.27.86a.58.58,0,0,1-.3.65c-.23.05-.2.35-.16.38s-.25.48-.25.48-1.43,2.33-1.38,3.05" transform="translate(-1739.08 -679.94)"/><path class="cls-3" d="M1779.24,715.09h0v0s0,0,0,.08c0,.43-.28,1.63-.6,1.64s-.53-.94-.53-1a7.4,7.4,0,0,0-.49,1l-.47-.52" transform="translate(-1739.08 -679.94)"/><path class="cls-3" d="M1784,717c0-.09-.11-.06-.71,0s-.32-.4-.32-.4l.9-1.18s0-.13-.59.08-.88,1.15-1.15,1.06.32-1.07.48-1.28.29-.38.08-.39-1.37,1.34-1.52,1.35,0-.64,0-.64c-.31,0-.45.31-.45.31a3.59,3.59,0,0,1-.36.82h0a.44.44,0,0,1-.27.23c-.57,0-.75-1.33-.79-1.73a.66.66,0,0,1,0-.11" transform="translate(-1739.08 -679.94)"/></svg>