<svg id="Capa_1" data-name="Capa 1" xmlns="http://www.w3.org/2000/svg" xmlns:xlink="http://www.w3.org/1999/xlink" viewBox="0 0 94.1 138.66"><defs><style>.cls-1,.cls-3{fill:none;}.cls-2,.cls-7{fill:#fff;}.cls-2,.cls-3{stroke:#000;}.cls-2,.cls-3,.cls-4{stroke-linecap:round;stroke-linejoin:round;stroke-width:0.5px;}.cls-4{fill:#e4e4e4;stroke:#1d1d1b;}.cls-5{isolation:isolate;}.cls-6{clip-path:url(#clip-path);}</style><clipPath id="clip-path" transform="translate(-1803.62 -569.71)"><polygon class="cls-1" points="1868.26 647.88 1868.07 624.84 1885.87 624.63 1886.04 648.25 1868.26 647.88"/></clipPath></defs><title>sendero-cartel</title><path class="cls-2" d="M1880.58,653.18v52.56a2.28,2.28,0,0,0,2.17,2.38h1.36a1.5,1.5,0,0,0,1.43-1.57V653.63" transform="translate(-1803.62 -569.71)"/><path class="cls-2" d="M1812,646.9v44.67a1.88,1.88,0,0,0,1.79,2h1.13a1.24,1.24,0,0,0,1.18-1.29v-45" transform="translate(-1803.62 -569.71)"/><polyline class="cls-2" points="90.67 0.25 93.85 2.12 93.77 84.67 90.42 84.67"/><line class="cls-3" x1="93.83" y1="5.64" x2="90.67" y2="0.88"/><line class="cls-3" x1="93.83" y1="9.29" x2="90.67" y2="4.54"/><line class="cls-3" x1="93.83" y1="12.95" x2="90.67" y2="8.19"/><line class="cls-3" x1="93.83" y1="16.6" x2="90.67" y2="11.84"/><polygon class="cls-4" points="90.67 0.25 90.42 84.67 0.25 76.44 0.32 13.61 90.67 0.25"/><line class="cls-3" x1="93.83" y1="20.26" x2="90.67" y2="15.5"/><line class="cls-3" x1="93.83" y1="23.91" x2="90.67" y2="19.15"/><line class="cls-3" x1="93.81" y1="27.54" x2="90.67" y2="22.81"/><line class="cls-3" x1="93.81" y1="31.22" x2="90.61" y2="26.39"/><line class="cls-3" x1="93.81" y1="34.87" x2="90.59" y2="30.04"/><line class="cls-3" x1="93.81" y1="38.53" x2="90.57" y2="33.64"/><line class="cls-3" x1="93.8" y1="42.14" x2="90.56" y2="37.3"/><line class="cls-3" x1="93.8" y1="45.84" x2="90.57" y2="40.92"/><line class="cls-3" x1="93.8" y1="49.45" x2="90.54" y2="44.53"/><line class="cls-3" x1="93.8" y1="53.1" x2="90.56" y2="48.22"/><line class="cls-3" x1="93.79" y1="56.74" x2="90.53" y2="51.82"/><line class="cls-3" x1="93.79" y1="60.4" x2="90.5" y2="55.5"/><line class="cls-3" x1="93.79" y1="64.05" x2="90.5" y2="59.14"/><line class="cls-3" x1="93.77" y1="67.67" x2="90.49" y2="62.72"/><line class="cls-3" x1="93.77" y1="71.33" x2="90.48" y2="66.42"/><line class="cls-3" x1="93.76" y1="74.98" x2="90.47" y2="70.07"/><line class="cls-3" x1="93.77" y1="78.64" x2="90.5" y2="73.77"/><line class="cls-3" x1="93.77" y1="82.29" x2="90.45" y2="77.27"/><line class="cls-3" x1="92.93" y1="84.67" x2="90.42" y2="80.89"/><g class="cls-5"><g class="cls-6"><path class="cls-7" d="M1876.89,628.66a14.48,14.48,0,0,0-2.18,3,20.82,20.82,0,0,0-1.4,3.19,25.29,25.29,0,0,0-.78,2.76c-.18.78-.27,1.39-.32,1.73h.17a3.47,3.47,0,0,1,.89.13,2.61,2.61,0,0,1,.7.31,2.34,2.34,0,0,1,.53.45,2.46,2.46,0,0,1,.38.55,3.46,3.46,0,0,1,.24.57,2.87,2.87,0,0,1,.14.54,3.2,3.2,0,0,1,.07.49,2.76,2.76,0,0,1,0,.38l1,0h1.08l1.22,0a2.82,2.82,0,0,1,0-.39c0-.15,0-.31.06-.49a4.33,4.33,0,0,1,.13-.55,3.77,3.77,0,0,1,.24-.56,2.73,2.73,0,0,1,.37-.54,2.39,2.39,0,0,1,.54-.45,2.86,2.86,0,0,1,.71-.3,3.6,3.6,0,0,1,.91-.11h.17l0-.17,0-.2c0-.07,0-.15,0-.23l-.06-.27c0-.18-.08-.38-.13-.59s-.1-.45-.16-.7-.14-.5-.21-.77l-.26-.83c-.18-.56-.4-1.15-.65-1.76a20.15,20.15,0,0,0-.87-1.83,15.09,15.09,0,0,0-1.1-1.79,13.47,13.47,0,0,0-1.37-1.65" transform="translate(-1803.62 -569.71)"/><path d="M1872.21,639.37h0c0-.34.14-1,.32-1.73a25.29,25.29,0,0,1,.78-2.76,20.82,20.82,0,0,1,1.4-3.19,14.48,14.48,0,0,1,2.18-3,13.47,13.47,0,0,1,1.37,1.65,15.09,15.09,0,0,1,1.1,1.79,20.15,20.15,0,0,1,.87,1.83c.25.61.47,1.2.65,1.76l.26.83c.07.27.14.53.21.77s.11.48.16.7.09.41.13.59l.06.27c0,.08,0,.16,0,.23l0,.2,0,.17h-.17a3.6,3.6,0,0,0-.91.11,2.86,2.86,0,0,0-.71.3,2.39,2.39,0,0,0-.54.45,2.73,2.73,0,0,0-.37.54,3.77,3.77,0,0,0-.24.56,4.33,4.33,0,0,0-.13.55c0,.18,0,.34-.06.49a2.82,2.82,0,0,0,0,.39l-1.22,0h-1.08l-1,0a2.76,2.76,0,0,0,0-.38,3.2,3.2,0,0,0-.07-.49,2.87,2.87,0,0,0-.14-.54,3.46,3.46,0,0,0-.24-.57,2.46,2.46,0,0,0-.38-.55,2.34,2.34,0,0,0-.53-.45,2.61,2.61,0,0,0-.7-.31,3.47,3.47,0,0,0-.89-.13h-.17m4.54-10.85.14-.19-.14.19m.13-.44h-.1l0,0a15,15,0,0,0-2.58,3.62,22.72,22.72,0,0,0-1.51,3.72,26.89,26.89,0,0,0-.72,2.92c-.13.74-.18,1.19-.18,1.19l.06.21.16.08h.37a3.17,3.17,0,0,1,.81.11,2,2,0,0,1,.61.26,2.1,2.1,0,0,1,.45.38,2.26,2.26,0,0,1,.31.45,2.58,2.58,0,0,1,.21.49,5,5,0,0,1,.12.49,3.68,3.68,0,0,1,.06.43c0,.13,0,.24,0,.33v.2l0,.2.16.08,1.22,0h1.07l1.45,0,.15-.07,0-.2v-.2c0-.09,0-.21,0-.34a3.8,3.8,0,0,1,.05-.43,4.85,4.85,0,0,1,.11-.49,3.44,3.44,0,0,1,.21-.49,2.08,2.08,0,0,1,.31-.44,1.65,1.65,0,0,1,.45-.37,2,2,0,0,1,.61-.26,3.46,3.46,0,0,1,.83-.09h.38l.17-.08,0-.2s0-.46-.21-1.21a25.25,25.25,0,0,0-.78-3,22.58,22.58,0,0,0-1.6-3.77,15.25,15.25,0,0,0-2.65-3.61l0,0,0,0h-.07" transform="translate(-1803.62 -569.71)"/><path d="M1876.86,624.73a7.1,7.1,0,0,0-1.79.26,7.32,7.32,0,0,0-1.66.7,8.54,8.54,0,0,0-1.48,1.09,9.31,9.31,0,0,0-1.29,1.43,11.62,11.62,0,0,0-1,1.71,14.07,14.07,0,0,0-.79,2,15.08,15.08,0,0,0-.49,2.16,15.92,15.92,0,0,0,0,4.64,14.94,14.94,0,0,0,.52,2.17,13.23,13.23,0,0,0,.82,2,12,12,0,0,0,1.08,1.73,10,10,0,0,0,1.3,1.44,9.31,9.31,0,0,0,1.5,1.1,7.91,7.91,0,0,0,1.67.71,6.74,6.74,0,0,0,1.79.27,6.34,6.34,0,0,0,1.8-.2,7,7,0,0,0,1.68-.65,9,9,0,0,0,1.52-1.05,9.41,9.41,0,0,0,1.32-1.42,11.25,11.25,0,0,0,1.09-1.73,12.2,12.2,0,0,0,.82-2,14.12,14.12,0,0,0,.52-2.2,15.52,15.52,0,0,0,.16-2.38h-.43a14.24,14.24,0,0,1-.16,2.28,13.1,13.1,0,0,1-.49,2.12,12.94,12.94,0,0,1-.78,1.91,12.46,12.46,0,0,1-1,1.65,9.6,9.6,0,0,1-1.27,1.35,7.74,7.74,0,0,1-1.44,1,7.26,7.26,0,0,1-1.6.62,6.43,6.43,0,0,1-1.7.19,6.35,6.35,0,0,1-1.7-.26,7.36,7.36,0,0,1-1.59-.67,8.33,8.33,0,0,1-1.43-1,9.64,9.64,0,0,1-1.24-1.37,11,11,0,0,1-1-1.65,13.36,13.36,0,0,1-.78-1.89,13.73,13.73,0,0,1-.5-2.08,14.65,14.65,0,0,1,0-4.45,15,15,0,0,1,.47-2.08,12.52,12.52,0,0,1,.76-1.88,10.7,10.7,0,0,1,1-1.64,8.94,8.94,0,0,1,1.23-1.36,7.76,7.76,0,0,1,1.41-1,7.17,7.17,0,0,1,1.57-.66,6.72,6.72,0,0,1,3.41,0,7.21,7.21,0,0,1,1.61.64,8.35,8.35,0,0,1,1.46,1,9.31,9.31,0,0,1,1.29,1.36,11.18,11.18,0,0,1,1.06,1.66,12.74,12.74,0,0,1,.82,1.92,14,14,0,0,1,.52,2.12,14.12,14.12,0,0,1,.19,2.28h.43a14.33,14.33,0,0,0-.2-2.38,15.85,15.85,0,0,0-.54-2.21,13.72,13.72,0,0,0-.86-2,11.73,11.73,0,0,0-1.11-1.74,10.22,10.22,0,0,0-1.35-1.43,8.34,8.34,0,0,0-1.54-1.07,7.44,7.44,0,0,0-1.69-.67,6.73,6.73,0,0,0-1.8-.22" transform="translate(-1803.62 -569.71)"/></g></g></svg>