<svg id="Capa_1" data-name="Capa 1" xmlns="http://www.w3.org/2000/svg" viewBox="0 0 75.45 184.5"><defs><style>.cls-1{fill:#fff;}.cls-2{fill:none;stroke:#000;stroke-linecap:round;stroke-linejoin:round;stroke-width:0.5px;}</style></defs><title>sendero-personas</title><path class="cls-1" d="M1565,476.6l1.06.29,1.07.05.56-.19.92.16.42.41,1.26.19,1.19,1.91.42.72.13,1.35.13.79,1.22,3-.12.67,0,1.27.53,2,.45,2.45.11,1.74-.18,2.16-.13,1.82v1.66l-.52,1.28-.82.41-.79.07-1.47,0,.59,1.63.27,1.57.06,1.76-.42,1.56-.73,1,.47.54,1.16-.08.9.08.92.53.9.7s.29.66.29.66l1,.1,1.33.59.74.55.71.68.72,1.35.5,1.29,2.43,3.14,4.68,5.93,2.93,5,.73,1.06.55-.17.31-.35.67-.35.43-.11s.66.07.73.09l.91.42.38,1.06.47.37,1,.36.36.66.65.71.85,2.59-.28,1.06-1.24,1.15-2.42,1.55-1.5.59-.34-.14-1.79,1.39-2.66,2.13-4,2.75-2.68,1.32.49.57.77,1.45.58,2,.28,2.42-2.57,1-.13-.77-.12-1.48-.6-1.55L1579,550l-1-1.11-1.5.55.24,1.29.24,1.4.13,1.56,0,3.14-.11,1.53-.17,2,.07,4.55.56,7.43s.23,1.73.22,1.76l-.29.65-.82.47-1.31.48.26,1.59,1.36,9.59s.85,6.8.85,6.83.65,5.36.65,5.36l.22,2.62.1,3.12-.53,5.28-.85,9.17-1.06,9.36-1.11,8.73-1.2,7.75-.7,4.08.06.53,1.91,1.17,1.48.74,1,.4.65.55.35.82.76.48,2,.86,2.65.82,1.58,1.18.93,1.51.07,1.24-.51.47-.76,0h-7.25l-4.57,0-.43-.21-1.84.24L1567,660l-4.9-.14-1.08-.22-.39-1.44.29-.6-.31-1.21-.19-2.33.4-2.06.5-1.23.42-.8-.48-.45-.7-1-.25-.86-.09-.76.2-1.15.45-1.11.2-1,.44-5.07.5-7,.43-6.55-.12-1.46-.14-2.27.56-2.07s.34-1.63.36-1.69-.12-1.64-.12-1.64l-.29-1.48-.2-2.72.31-2.07.88-4.57-.06-1.33-.48-1.49-.38-1.95-1.61-6.3-.91-3.49-1.09,4.17-1.47,7.72-1.72,8.22-1.32,6.29-2.41,9.2-1,3.56-.68,3.56-.28,2.15-.7,3.29-.53,1.87-.29,1.56.25,1.44.47,1.57.42,1,.16.86-.26.55-.48.3.4,1.06.76,1.27,1.61,1.27,3.06,2,2.47,1.7,1.25,1.46.57,1.12.36.86-.35.34-.81.21-.89,0-2.6.06-6,.11-3.23.1h-7.15l-1.4-.33-.48-.5.1-.55-.21-.71-.24-1.77.12-1.54.43-1.66.57-2,.16-1.09-.89-.68.64-1,.29-.7-.44-.38-.15-.74,0-.92s.14-.77.14-.8l.31-1.08.66-2.2.4-1.65.11-1.4-.07-1-.23-.78-.44-1.53-.05-.72.28-.74.59-1,.55-1.75-.18-.67-.25-2.84.3-3,.4-3.89.16-1.62.38-2.87.58-2.22,1.23-4.11.67-2.68.44-1.33.57-2.21.14-.56c0-.05-.07-.48-.07-.56l-.11-1,0-2.14,0-.86.1-1.11.3-2.23.16-3.16.14-1.74.21-.87.58-2.16.25-2.7.13-3,0-.5-.19-.39-.39-.36-.63-.61-.63-1.54-.45-1.64-.13-2.78,0-1.29.39-2.84.6-1.9.59-.92-2.13-.52-2.77-.6-4.6-.9-2.2-.8-.86-1.4-1.19-2-.31-1.35,0-.93.26-2.45.47-3.82.08-1.4.13-1,0-1.76-.3-1.64-.31-1.15-.28-1.08-.37.24-1.33,1.11-1.66,1.23-1.33.62-.51,0-.77-.24-1.24-1-.45-1,0-.95.37-1.07,4.06-8-.44-1.27,4-2.39v-3.2l.36-5.34.65-3.85.09-1.55-.15-3.55.27-2.55.76-1.83.83-1.07,2.68-1.86,5.14-2.16,3.25-.61,2.33.05.27-1.13,1.35-1.41,2.84-1.18,2.29-.28,1.62.41.83.41.16-.56.41-.56-1.13-1.7-1.85-3.33-1.58-3.16-.93-3.9,1.29-4.06,2.24-3.54,2.77-2,4.19-.85,2.27.33Zm15.74,46,.59,3.28,1.56,7,.16,1.37-.29.93-.91.63-1.29.15-1.07-.07v2l1.25-.23,1.65.21,1.38.08,1.94-.86.6-.7-.45-.65-.4-1.43,0-1.2.15-.69-1.18-1.23-.2-.77.2-.69.45-.41.42-.62-.15-.74-1.94-3.1-2.24-2.75Z" transform="translate(-1522.71 -475.76)"/><path class="cls-2" d="M1560.45,658.44" transform="translate(-1522.71 -475.76)"/><path class="cls-2" d="M1560.18,590.38c.5,1.87,2.44,9.43,2.75,10.69a13,13,0,0,0,.4,2c.65,1.58.18,3.08-.12,4.61-.37,1.91-1,3.79-.65,5.79.15.76.26,1.53.38,2.3a9.26,9.26,0,0,1-.56,4.6,6.27,6.27,0,0,0-.05,3.41c.24,1.27-1,17.52-1.25,19.94a4,4,0,0,1-.36,1.2c-.85,2.11-.63,3.31.93,4.87" transform="translate(-1522.71 -475.76)"/><path class="cls-2" d="M1551.53,566.67c1.27.33,2.47.92,3.78.59,0,0,3.84-1.8,11.86,6.41" transform="translate(-1522.71 -475.76)"/><path class="cls-2" d="M1549.51,647.78a1,1,0,0,0,.39-1.48,20.59,20.59,0,0,1-.67-2c-.86-2.53-.2-3.45.62-6.5.37-1.37.6-3.71.8-5.1a34.66,34.66,0,0,1,1-4.41c.87-3.18,1.72-6.37,2.58-9.56.49-1.83,1.75-8.1,2-9.1.27-1.42,2.41-11.21,2.63-13a30.68,30.68,0,0,1,.79-3.7c.48-1.93.77-2,.56-2.87-.66-2.76-1.52-5.48-2.36-8.19a9.73,9.73,0,0,0-1.32-3.19" transform="translate(-1522.71 -475.76)"/><path class="cls-2" d="M1567.17,572.57" transform="translate(-1522.71 -475.76)"/><path class="cls-2" d="M1547,502.78c-4.33-.2-8.14,1.31-11.78,3.48a6.83,6.83,0,0,0-3.38,6.36c0,1.41.13,2.81.16,4.23a8.42,8.42,0,0,1-.18,1.65c-.13.74-.36,1.46-.44,2.21-.19,1.74-.41,3.49-.45,5.24a21.45,21.45,0,0,0,.13,5.06,3,3,0,0,1-.35,1.55,1.66,1.66,0,0,0,.48,2.21,16.42,16.42,0,0,0,1.66,1.36,2.9,2.9,0,0,0,1.09.21l12.07,1.27" transform="translate(-1522.71 -475.76)"/><path class="cls-2" d="M1556.78,498.36c-.53-.79-1.11-1.56-1.56-2.39-1-1.94-2.1-3.89-3-5.89a7.47,7.47,0,0,1-.43-5.58,24.18,24.18,0,0,1,2.16-4.24,9.07,9.07,0,0,1,9.93-4c1.2.29,2.35.95,3.68.6.54-.14,1.22-.1,1.42.46l1.42.19-5.94,10.16,6.84-8.49" transform="translate(-1522.71 -475.76)"/><path class="cls-2" d="M1551.63,566.68" transform="translate(-1522.71 -475.76)"/><path class="cls-2" d="M1551.63,566.63l-1.47.31c-1.35-.13-12.8-2.74-14.81-3.11-2.5-.47-2.32-.85-3.68-3a5.7,5.7,0,0,1-1-3.59c.26-2.64.64-5.27.89-7.91a14.82,14.82,0,0,0-.91-6.07s.08-4.42,2-7.08" transform="translate(-1522.71 -475.76)"/><path class="cls-2" d="M1576.49,549.47c.12.77.57,2.83.59,3.6a24.22,24.22,0,0,1,0,5.32c-.45,2.25.07,10.07.15,10.77.18,1.66.31,3.31.47,5a.92.92,0,0,1-.64,1c-1.85,1-3.67.62-5.52.08a9,9,0,0,0-1-.19" transform="translate(-1522.71 -475.76)"/><path class="cls-2" d="M1578.75,653.48a16.09,16.09,0,0,0,4.32,1.68,5.43,5.43,0,0,1,3.39,2.65,2.78,2.78,0,0,1,.28,1.19c0,.75-.25,1-1,1h-11.59c-.59,0-1.05,0-1.25-.81-.1-.4-.82-.8-1.33-.91a32.73,32.73,0,0,0-4.5-.74c-2-.16-4-.15-6.07-.21" transform="translate(-1522.71 -475.76)"/><path class="cls-2" d="M1564.44,517.68a21.62,21.62,0,0,0,.09,7.44c.34,2.86.88,5.7,1.35,8.55.19,1.11.77,1.29,1.76.86a13.43,13.43,0,0,1,3.11-.93,24.71,24.71,0,0,1,12.14,1.38" transform="translate(-1522.71 -475.76)"/><path class="cls-2" d="M1555.12,554.45c2.57.47,4.33-1.19,6.12-2.54a2.33,2.33,0,0,1,1.69-.57,11.51,11.51,0,0,1,1.84.36,1.15,1.15,0,0,1,.55.37,9.27,9.27,0,0,1,1.86,3.85,30.64,30.64,0,0,1,.58,7.45,59.08,59.08,0,0,1-.45,9.2c-.38,2.32-.26,4.72-.43,7.07s-.39,4.48-.64,6.72c-.2,1.72-.5,3.43-.72,5.15L1569,590c.27-2.26.5-4.53.74-6.8.11-1.07.19-2.14.27-3.22.13-1.71.3-3.43.36-5.15s0-3.61,0-5.42V559c0-1.9.09-3.81,0-5.7a2,2,0,0,1,.63-1.7s1-1.12,4.86-2" transform="translate(-1522.71 -475.76)"/><path class="cls-2" d="M1567.17,535a18.28,18.28,0,0,1,1.1,5,13.25,13.25,0,0,0,4.52,8.81,5.25,5.25,0,0,0,1.46.66,5.14,5.14,0,0,0,3.86-.55,7.64,7.64,0,0,1,.92-.54c.72-.3,1.48-.54,2.2-.84,4.07-1.7,7.23-4.73,10.67-7.35" transform="translate(-1522.71 -475.76)"/><path class="cls-2" d="M1576.45,651.75l-2.58,3.42,2.58,1.15,2.2-2.76c.23-.35-.45-1.38-1-1.55-.7-.2-4.14-1.89-4.37-2.5-.37-1-1.06-1.12-1.9-1.42a4,4,0,0,0-.59-.17c-.55-.12-.94-.23-1.44-.33a4.52,4.52,0,0,0-2.85.38,15.64,15.64,0,0,1-4.48,1.77c-.28,0-.59.48-.72.8a9.14,9.14,0,0,0-.48,6.62.63.63,0,0,1,0,.45c-.45.59,0,1.12.13,1.65a.82.82,0,0,0,.62.45c1,.11,2,.18,3,.2q3.59.08,7.17.09a8.28,8.28,0,0,0,1.2-.18" transform="translate(-1522.71 -475.76)"/><path class="cls-2" d="M1560.39,516.16c.83-.58,2-1.39,2.82-2A22.41,22.41,0,0,1,1572,511c3.68-.5,4.36.08,5.79.86,1.11.9,1.44,2.09,2,3.29a75.5,75.5,0,0,0,4.78,6.25,57.34,57.34,0,0,1,5.53,8.36,3.73,3.73,0,0,0,.54.65" transform="translate(-1522.71 -475.76)"/><path class="cls-2" d="M1538,649.34c-.31.95-.65,1.89-.91,2.85a9.66,9.66,0,0,0-.46,4.23c.1.64.46,1.23.22,2-.06.17.4.69.7.78a7.69,7.69,0,0,0,1.92.21c2.82,0,5.64.08,8.46,0,3.4-.12,6.8-.15,10.2-.17.62,0,1.31.09,1.66-.63l-.38-.83a6.94,6.94,0,0,0-2.84-3.31c-1.6-1-3.22-2-4.77-3.14a5.45,5.45,0,0,1-2.3-2.93,1.39,1.39,0,0,0-1-1.11,6.33,6.33,0,0,0-4.23,0c-1.56.61-3.1,1.26-4.7,1.71-.78.22-1.79.77-2.53-.41L1538,647c-1-1-.75-2.13-.5-3.22.37-1.58.91-3.12,1.25-4.7a6.08,6.08,0,0,0-.32-3.78,2.82,2.82,0,0,1-.26-1.63,15.06,15.06,0,0,1,.87-2,3.66,3.66,0,0,0,.43-1.73,14.32,14.32,0,0,1-.27-4.15c.29-2.76.58-5.51.85-8.28a18.91,18.91,0,0,1,.77-3.95c.9-2.94,1.62-5.89,2.56-8.82a7.54,7.54,0,0,0,.48-3.13,34.7,34.7,0,0,1,0-3.95c0-.86.24-1.72.3-2.58.11-1.75.23-3.49.37-5.24a4.52,4.52,0,0,1,.18-1.1,20.87,20.87,0,0,0,1-7c0-.76.26-1.71-.61-2.3-2.27-1.57-2.53-10.69-.31-13.33" transform="translate(-1522.71 -475.76)"/><path class="cls-2" d="M1549,659c0-.86-.48-1.11-1.29-1.12-3.19,0-6.37-.11-9.56-.17-.34,0-.67-.06-1-.09" transform="translate(-1522.71 -475.76)"/><path class="cls-2" d="M1550.78,505.91" transform="translate(-1522.71 -475.76)"/><path class="cls-2" d="M1572.07,482c.3,1,.78,2,1.16,3a1.33,1.33,0,0,1,.08.73c-.44,1.61.45,3,.69,4.51a15.35,15.35,0,0,1,.18,5.06,25.26,25.26,0,0,0-.2,3.59c0,1.3-.6,1.91-1.94,1.92-1.14,0-2.27,0-3.4-.09" transform="translate(-1522.71 -475.76)"/><path class="cls-2" d="M1556.41,517.52" transform="translate(-1522.71 -475.76)"/><path class="cls-2" d="M1554.81,560.7a2.41,2.41,0,0,0,1.33,2.57,6.45,6.45,0,0,0,.91.29,10.4,10.4,0,0,0,7.17-.11c1.1-.38,2.15-.91,3.22-1.37" transform="translate(-1522.71 -475.76)"/><path class="cls-2" d="M1554.65,547.65" transform="translate(-1522.71 -475.76)"/><path class="cls-2" d="M1570.92,508.88c-2.56.6-8,2.13-10.56,2.82a1.05,1.05,0,0,0-.64,1.65l1.36,5.72a10.22,10.22,0,0,1,.24,1.66c.06.66.23,1.33.33,2,.21,1.32.43,2.64.64,3.95.31,1.9.68,3.8.9,5.71.17,1.49.14,3,.21,4.5,0,.25,0,.57.1.72a28.92,28.92,0,0,1-9.63,1.49s-2.07,2,0,5.73c0,.08.09.16.14.24s.84,4.18.78,15.88" transform="translate(-1522.71 -475.76)"/><path class="cls-2" d="M1569.19,508.11c-2.15.28-4.3.53-6.44.84-1.2.17-2.8.42-4,.63" transform="translate(-1522.71 -475.76)"/><path class="cls-2" d="M1549.14,509.31" transform="translate(-1522.71 -475.76)"/><path class="cls-2" d="M1556.32,506.75" transform="translate(-1522.71 -475.76)"/><path class="cls-2" d="M1559.35,513c-1.07.37-2.17.67-3.21,1.12-1.41.61-2.68,1.15-4.06,1.83-.37.18-1,.44-1.39.62" transform="translate(-1522.71 -475.76)"/><path class="cls-2" d="M1558,504.16a3.11,3.11,0,0,1,2.21-.12s7.49,1,9,4.07c.86,0,1.36.31,1.49.83a3.15,3.15,0,0,1,2.08.07c.6.15,2.1,1,2.07,1.76" transform="translate(-1522.71 -475.76)"/><path class="cls-2" d="M1570.8,479.78l1,2.13a12.66,12.66,0,0,0-2.34,1.78c-.36.45-.26,1.31-.31,2a10.52,10.52,0,0,1-1.23,3.57c-.07.16-.41.19-.62.29" transform="translate(-1522.71 -475.76)"/><path class="cls-2" d="M1564,491.74a3.71,3.71,0,0,0-1.81,3.23c-.19,1.89-1.43,2.62-3,3.1a8.87,8.87,0,0,1-1.37,0,1.84,1.84,0,0,0-1.47,2.38c.44,1.2.93,2.39,1.36,3.59.06.15,0,.36-.08.55" transform="translate(-1522.71 -475.76)"/><path class="cls-2" d="M1556.22,499.77c-1.83-1.65-5.21-.77-7.54.61a2.59,2.59,0,0,0-1.44,2,2.88,2.88,0,0,0,.26,1.28c.43,1.15,1.6,6.6,1.79,7.46a41,41,0,0,0,1.38,5.34,8.88,8.88,0,0,1,.13,2.38c0,.4.17,4.84.2,5.88a14,14,0,0,0,.35,1.66,59.12,59.12,0,0,0,1.58,6.43,39,39,0,0,1,1.08,6.26" transform="translate(-1522.71 -475.76)"/><path class="cls-2" d="M1586.31,536.64a4.81,4.81,0,0,1-4.26,1.2,2.86,2.86,0,0,0-3,.69c-.18.21-.54.26-.81.38" transform="translate(-1522.71 -475.76)"/><path class="cls-2" d="M1589.38,538.15c-.81-1.44-3-1.63-3-1.63l1.37-1a8.51,8.51,0,0,0-2.08-2.9,5.24,5.24,0,0,1-1.44-1.93,1.63,1.63,0,0,1,.53-1.41.84.84,0,0,0,.24-1.24c-1-1.83-2.49-4.63-4.26-5.91" transform="translate(-1522.71 -475.76)"/><path class="cls-2" d="M1585.19,529.07c.89.68,1.75,1.39,2.67,2a1.73,1.73,0,0,0,2.21-.08c.52-.4,1.15-.68,1.63-1.12.79-.71,1.55-.39,2.31-.07s.74,1.56.74,1.56c.72,0,1.41.16,1.65,1,0,.06,0,.17,0,.18,1.16.61,1,1.92,1.42,2.88a1.56,1.56,0,0,1-.26,1.42,14.93,14.93,0,0,1-4.66,3.15c-.89.4-1.33-.78-1.65-1.37" transform="translate(-1522.71 -475.76)"/><path class="cls-2" d="M1559.07,498.27c0,1.53,0,3.07,0,4.6a7.8,7.8,0,0,0,.09.83" transform="translate(-1522.71 -475.76)"/><path class="cls-2" d="M1568.41,500.39a11,11,0,0,1,0,1.28c-.1,1.29-.22,2.58-.36,3.86a2.8,2.8,0,0,1-.27.65" transform="translate(-1522.71 -475.76)"/><path class="cls-2" d="M1556.32,563.55a7.41,7.41,0,0,1-3,2.13c-.46.23-1.28.72-1.71,1" transform="translate(-1522.71 -475.76)"/><path class="cls-2" d="M1564.68,487.79c.25,0,.49.07.74.09,1.56.14,2,.78,1.58,2.3-.18.69-.18,1.41-.3,2.11-.09.5-.24,1-.36,1.48l-.43-.15a4.53,4.53,0,0,1-2.07-4,3.77,3.77,0,0,1,.6-1.95" transform="translate(-1522.71 -475.76)"/><path class="cls-2" d="M1585.55,532.75a3.76,3.76,0,0,0,.83,3.68" transform="translate(-1522.71 -475.76)"/><path class="cls-2" d="M1570.2,552.52a3.69,3.69,0,0,0-2.67.73,8.07,8.07,0,0,0-1,.78" transform="translate(-1522.71 -475.76)"/><path class="cls-2" d="M1570.38,477.51c.38.66.43.67.95,1.66a4.78,4.78,0,0,1,.69,2.74" transform="translate(-1522.71 -475.76)"/><path class="cls-2" d="M1579.39,534.22v.19c0,1.19.07,2.39.1,3.58" transform="translate(-1522.71 -475.76)"/><path class="cls-2" d="M1578.2,549.12s2.21,1.64,2.31,5.84c0-.05,2.72-1.06,2.72-1.06s-.51-5-2.2-6.36" transform="translate(-1522.71 -475.76)"/><path class="cls-2" d="M1531,530.4l-4.09,2.42.5,1.23-4.06,8a3.23,3.23,0,0,0-.37,1.58,2,2,0,0,0,.55,1.43c.88.81,1.31,1.3,2.38,1.34s4.78-3.29,4.78-3.29" transform="translate(-1522.71 -475.76)"/><path class="cls-2" d="M1531.1,534.67l-4.82,6.1s-1.06,1.25-.11,1.78" transform="translate(-1522.71 -475.76)"/><path class="cls-2" d="M1523.13,543.82a16.29,16.29,0,0,0,7.06-4.36,38.36,38.36,0,0,0,2.52-3.44" transform="translate(-1522.71 -475.76)"/><path class="cls-2" d="M1551.29,526.21s-4,2.46-4.88,3.84c-.69,1-2.3,0-3.06-.62a6.72,6.72,0,0,0-1-.67l-.77-.41-.41,2.63a7.82,7.82,0,0,1,4.61,5.11s.7,1.6,0,2.26c-1.13,1-2.34,4.66-2,7.87.16,1.47-.09,4.66,3.9,5.68a3.13,3.13,0,0,0,3.57-1.63s.46-.14-.13-3-1.87-9.08-1.87-9.08a11.4,11.4,0,0,0-.17-6.72c0,.07,2.17-2.77,2.65-3.42" transform="translate(-1522.71 -475.76)"/><path class="cls-2" d="M1549.18,538.19a16.42,16.42,0,0,0-2.12,5.07,8,8,0,0,0-.08,3.23c.76,3.83,2,5.74,3.07,5" transform="translate(-1522.71 -475.76)"/><path class="cls-2" d="M1547.33,542.19s2.34,7.23,1,8.48" transform="translate(-1522.71 -475.76)"/><path class="cls-2" d="M1544,533l1-2.58a7,7,0,0,1,2.46,2.86c.67,1.72.31,2.23-.28,2.54s-1.13.69-1.59-.18" transform="translate(-1522.71 -475.76)"/><path class="cls-2" d="M1546.31,530.18a2.81,2.81,0,0,0,2.73,1.38" transform="translate(-1522.71 -475.76)"/><line class="cls-2" x1="26.03" y1="52.2" x2="27.91" y2="53.68"/><path class="cls-2" d="M1579.39,514.14c.84,3.92,1.5,9,1.67,10.42a6.36,6.36,0,0,0,.14.76l.16.71c.45,2.53,1.08,5,1.62,7.55.3,1.41-.36,2.26-1.84,2.38-.49,0-1,0-1.47,0" transform="translate(-1522.71 -475.76)"/><polyline class="cls-2" points="46.25 1.56 46.45 2.06 47.25 2.39"/><ellipse class="cls-2" cx="1590.27" cy="537.13" rx="1.31" ry="1.68" transform="translate(-1599.84 254.35) rotate(-25.26)"/><path class="cls-2" d="M1589.27,535.7s.27-.15-1.52-.16" transform="translate(-1522.71 -475.76)"/><path class="cls-2" d="M1590.06,538.65s1,1.34.76,2.3" transform="translate(-1522.71 -475.76)"/><path class="cls-2" d="M1570.48,556.08a16.56,16.56,0,0,1,6.6-3" transform="translate(-1522.71 -475.76)"/><path class="cls-2" d="M1575.24,575.76s3.93,24.3,3.45,29.73-2.67,29.17-5.41,44" transform="translate(-1522.71 -475.76)"/><path class="cls-2" d="M1550.8,518.87s7.17-2.42,9.31-3.9" transform="translate(-1522.71 -475.76)"/><path class="cls-2" d="M1549,509.74a18.16,18.16,0,0,1,9.19-2.54,4.73,4.73,0,0,0-.59-2.4,17.81,17.81,0,0,0-9.17,2.4l.53,2.38" transform="translate(-1522.71 -475.76)"/><line class="cls-2" x1="35.46" y1="31.44" x2="36.83" y2="37.05"/><path class="cls-2" d="M1559.53,515.33s-1.85,7.95-4.51,8.25a26.14,26.14,0,0,1,3,1.48s2.35-2.14,2.82-7.21" transform="translate(-1522.71 -475.76)"/><path class="cls-2" d="M1553.78,544.65s7.94-.33,10-2.17" transform="translate(-1522.71 -475.76)"/><path class="cls-2" d="M1556.53,539.1a19.6,19.6,0,0,0,.24,5.31" transform="translate(-1522.71 -475.76)"/><path class="cls-2" d="M1558.57,538.77a16.78,16.78,0,0,0,.39,5.34" transform="translate(-1522.71 -475.76)"/><path class="cls-2" d="M1563.5,537.61s.79,10.41,2,14.7" transform="translate(-1522.71 -475.76)"/><path class="cls-2" d="M1554.65,551.25s5.88-3.37,10.32-1.34" transform="translate(-1522.71 -475.76)"/><path class="cls-2" d="M1565.33,493.18s9,9.7,5.05,14.93" transform="translate(-1522.71 -475.76)"/><path class="cls-2" d="M1531.39,551.06s-.21,1.09,2.63,2.19,17.16,2.83,17.16,2.83,2.69-.5,3.54-2.23" transform="translate(-1522.71 -475.76)"/><path class="cls-2" d="M1549.31,537.79s3.47-.36,4.11-2.83" transform="translate(-1522.71 -475.76)"/><path class="cls-2" d="M1549.36,584.39c.63,0,5.81,0,3.94.93s-3.3,2.15-1.77,2.86a2.08,2.08,0,0,1,.86,3.38c-1,1.13-1,1.13,0,2.46s1.55,2.25.91,3.48-.91,6.35-.91,6.35" transform="translate(-1522.71 -475.76)"/><path class="cls-2" d="M1563.79,604.77s1.62,2.56,5.72,2.46" transform="translate(-1522.71 -475.76)"/></svg>