<svg id="Capa_1" data-name="Capa 1" xmlns="http://www.w3.org/2000/svg" viewBox="0 0 775.41 274.88"><defs><style>.cls-1{fill:#fff;}</style></defs><title>texto-titulo-disfrutasseguro</title><path class="cls-1" d="M675.54,398.23a18.71,18.71,0,0,0-8.43-2c-4.61,0-10,2.15-10,7.78,0,7.23,15.37,8,15.37,18.78,0,8.49-7.78,13-15.37,13-5.45,0-8.68-1.26-10.53-2.28l1.26-3.94a16.73,16.73,0,0,0,8.91,2.63c5.62,0,11.6-2.45,11.6-8.91,0-8.68-15.37-9.4-15.37-19,0-8.13,6.76-11.66,14.12-11.66a24.47,24.47,0,0,1,9.69,1.85Z" transform="translate(-646.59 -389.5)"/><path class="cls-1" d="M683.79,404.57h4l-6.46,30.51h-3.95Zm5.92-8.13h-4.48l1.07-5h4.49Z" transform="translate(-646.59 -389.5)"/><path class="cls-1" d="M710.18,420.9a16.37,16.37,0,0,0-.18,2.46c0,5.86,3.89,9.21,9.27,9.21a21.45,21.45,0,0,0,8.91-2l-.3,3.65a22.37,22.37,0,0,1-9.09,1.62c-7.12,0-12.56-4.25-12.56-12.44,0-10.23,6-19.5,15.79-19.5,7.18,0,10.77,4.42,10.77,11.36,0,1.86-.24,3.77-.42,5.68Zm18.66-3.23c.06-.83.18-1.61.18-2.33,0-5-2.09-8.25-7-8.25-5.86,0-10.17,5-11.18,10.58Z" transform="translate(-646.59 -389.5)"/><path class="cls-1" d="M734.1,430.35a14.09,14.09,0,0,0,7.24,2.22c3.65,0,8.62-1.38,8.62-6.1,0-6.64-12-6.34-12-14.12,0-6,6.4-8.49,11.31-8.49a20.42,20.42,0,0,1,7.83,1.49l-1.25,3.53a14.08,14.08,0,0,0-6.76-1.79c-3,0-7.18,1-7.18,5.2,0,5.2,12.2,5.86,12.2,13.94,0,6.94-6.34,9.57-12.26,9.57a22.33,22.33,0,0,1-8.85-1.68Z" transform="translate(-646.59 -389.5)"/><path class="cls-1" d="M769,397.75l4.31-1.49-1.85,8.31h8l-.78,3.23h-7.83l-3.23,15.08a30,30,0,0,0-.9,6c0,2.39,1.26,3.71,3.47,3.71a6.34,6.34,0,0,0,3.23-.84L773,435a8.39,8.39,0,0,1-3.83.84c-4.24,0-6.64-2.4-6.64-5.69a52.34,52.34,0,0,1,1.38-8.79l2.93-13.52h-6.1l.84-3.23h6Z" transform="translate(-646.59 -389.5)"/><path class="cls-1" d="M801.45,427.84a41,41,0,0,0-1.14,7.24h-3.76c.18-1.62.3-3.17.59-4.49H797c-2.57,3.83-5.92,5.21-10.4,5.21a8.52,8.52,0,0,1-8.74-8.56c0-8.91,10-10.76,17.53-10.76a40.59,40.59,0,0,1,4.13.24,22,22,0,0,0,.18-3.05c0-4.19-2.34-6.58-6.52-6.58-3.53,0-7,1.61-9,2.63l.41-3.83a25,25,0,0,1,9.21-2c6.58,0,10.05,3.58,10.05,9.93a30.41,30.41,0,0,1-.77,5.8Zm-13.52,4.73c7.06,0,10.29-6.34,11.13-12.74-1.26,0-2.45-.12-3.71-.12-5.08,0-13.34.77-13.34,7.47C782,430.65,784.88,432.57,787.93,432.57Zm9.57-40.68h4.73l-7,8.62h-2.81Z" transform="translate(-646.59 -389.5)"/><path class="cls-1" d="M807.19,430.35a14.06,14.06,0,0,0,7.24,2.22c3.65,0,8.61-1.38,8.61-6.1,0-6.64-12-6.34-12-14.12,0-6,6.4-8.49,11.3-8.49a20.44,20.44,0,0,1,7.84,1.49l-1.26,3.53a14,14,0,0,0-6.76-1.79c-3,0-7.17,1-7.17,5.2,0,5.2,12.2,5.86,12.2,13.94,0,6.94-6.34,9.57-12.26,9.57a22.41,22.41,0,0,1-8.86-1.68Z" transform="translate(-646.59 -389.5)"/><path class="cls-1" d="M853.26,404.57h4l-6.46,30.51h-4Zm5.92-8.13h-4.49l1.08-5h4.49Z" transform="translate(-646.59 -389.5)"/><path class="cls-1" d="M865.34,409.42c.36-2,.6-3.35.72-4.85h3.76a28.91,28.91,0,0,1-.65,4.61h.12a11.87,11.87,0,0,1,9.69-5.32c5.5,0,9.57,3.11,9.57,8.85a30.48,30.48,0,0,1-.9,6.28l-3.41,16.09h-4l3.47-16.81a22.66,22.66,0,0,0,.66-5.32c0-3.59-2-5.86-5.86-5.86-6.58,0-10.11,6.52-11.55,13.51l-3,14.48h-3.94Z" transform="translate(-646.59 -389.5)"/><path class="cls-1" d="M901.88,407.8H895.3l.78-3.23h6.52l.66-3.05c1.14-5.26,3-12,10.11-12a11.1,11.1,0,0,1,4.18.66l-.89,3.17a7.08,7.08,0,0,0-3-.6c-4.49,0-5.57,4.73-6.58,9.57l-.48,2.27h7.6l-.78,3.23h-7.54L900,435.08h-4Z" transform="translate(-646.59 -389.5)"/><path class="cls-1" d="M930.89,403.86c7.78,0,12.14,5.2,12.14,13.1,0,10.16-6.4,18.84-16.92,18.84-7.54,0-12.21-5.69-12.21-13.28C913.9,412.29,920.54,403.86,930.89,403.86Zm-4.31,28.71c7.9,0,12.33-8.38,12.33-15.55,0-5.75-2.58-9.93-8.5-9.93-8.43,0-12.38,8.25-12.38,16C918,428.38,921.26,432.57,926.58,432.57Z" transform="translate(-646.59 -389.5)"/><path class="cls-1" d="M951.65,410a51.92,51.92,0,0,0,.83-5.45h3.77a29.92,29.92,0,0,1-.66,4.61h.12c1.92-3,4.55-5.32,8.5-5.32a18.58,18.58,0,0,1,3.29.41l-.9,4a8.46,8.46,0,0,0-3.23-.48c-6.16,0-8.61,6.76-9.75,12.27l-3.11,15h-4Z" transform="translate(-646.59 -389.5)"/><path class="cls-1" d="M971.62,409.72a35.47,35.47,0,0,0,.78-5.15h3.77a39.84,39.84,0,0,1-.66,4.61h.12c2.87-3.83,5.26-5.32,9.45-5.32s7.48,2.39,7.66,6.81h.12a10.94,10.94,0,0,1,10.34-6.81c5.27,0,8.62,3.41,8.62,9a35,35,0,0,1-.9,5.74l-3.47,16.51h-4l3.41-16.15a25.26,25.26,0,0,0,.78-5.92c0-3.35-1.44-5.92-5.08-5.92-6.23,0-9.4,7-10.53,12.5l-3.17,15.49H985l3.41-16.15a25.26,25.26,0,0,0,.78-5.92c0-3.35-1.44-5.92-5.09-5.92-6.22,0-9.39,7-10.52,12.5l-3.17,15.49h-4Z" transform="translate(-646.59 -389.5)"/><path class="cls-1" d="M1039,427.84a41,41,0,0,0-1.14,7.24h-3.77a43,43,0,0,1,.6-4.49h-.12c-2.57,3.83-5.92,5.21-10.41,5.21a8.52,8.52,0,0,1-8.73-8.56c0-8.91,10-10.76,17.53-10.76a40.2,40.2,0,0,1,4.12.24,22,22,0,0,0,.18-3.05c0-4.19-2.33-6.58-6.52-6.58-3.52,0-7,1.61-9,2.63l.42-3.83a24.93,24.93,0,0,1,9.21-2c6.58,0,10.05,3.58,10.05,9.93a29.8,29.8,0,0,1-.78,5.8Zm-13.52,4.73c7.06,0,10.29-6.34,11.13-12.74-1.26,0-2.46-.12-3.71-.12-5.09,0-13.34.77-13.34,7.47C1019.59,430.65,1022.46,432.57,1025.51,432.57Z" transform="translate(-646.59 -389.5)"/><path class="cls-1" d="M1071.63,429.1a49.41,49.41,0,0,0-1,6h-3.89a24.75,24.75,0,0,1,1-4.85h-.12a11.62,11.62,0,0,1-10.41,5.57c-7.36,0-10.35-6.16-10.35-13,0-8.5,5.57-18.9,15.26-18.9,4.42,0,8.19,2.15,9.33,6.34h.12l4.18-20h4Zm-13.22,3.47c6.82,0,11.72-9,11.72-15.79,0-5.45-2.51-9.69-7.78-9.69-7.83,0-11.42,9.33-11.42,16.39C1050.93,428.56,1053.14,432.57,1058.41,432.57Z" transform="translate(-646.59 -389.5)"/><path class="cls-1" d="M1097,403.86c7.78,0,12.15,5.2,12.15,13.1,0,10.16-6.4,18.84-16.93,18.84-7.54,0-12.2-5.69-12.2-13.28C1080.06,412.29,1086.7,403.86,1097,403.86Zm-4.3,28.71c7.89,0,12.32-8.38,12.32-15.55,0-5.75-2.57-9.93-8.49-9.93-8.44,0-12.39,8.25-12.39,16C1084.18,428.38,1087.42,432.57,1092.74,432.57Z" transform="translate(-646.59 -389.5)"/><path class="cls-1" d="M1137.05,571.43c-8.69-9.6-22.1-15.08-35.2-18.13,7-25.6,13.1-52.56,14-80.6,0-3.05-5.18-5.94-9.15-5.94-2.28,0-4.11.91-4.41,3.2l-.92,6.4c-2.74-5.79-6.7-9-12.19-9a17.66,17.66,0,0,0-7.46,1.67c-6.4,2.74-12.65,10.41-17,19.34a3.38,3.38,0,0,0-.35.47c-8.08,12.5-33.37,40.23-47.54,40.23-7.77,0-10.21-7.93-10.21-15.39a32.9,32.9,0,0,1,1.52-10.21c12.65-3.05,29.26-6.55,36.11-18.89a17.22,17.22,0,0,0,2.14-8.08c0-9.9-9.45-14-16.76-14-14.77,0-27.68,13.05-34.53,27.82-6.25,7.54-15.06,13-23.52,18.05-2-8.23-4.42-18.59-4.42-27,0-4.12.76-12,5.18-12,.91,0,1.22.76,1.22,1.68,0,2.28-1.68,5.94-1.68,6.55,0,1.83,1.22,4.72,3.51,4.72,1.06,0,2.43-.76,3.8-2.89a14.45,14.45,0,0,0,3-8.84c0-7-5-11.43-11.43-11.43-6.7,0-16.6,6.25-16.6,21.48,0,9.91,3.65,28.19,5.18,35.35-10.67,7.16-27.28,22.1-27.28,35.35,0,10.21,7.62,15.54,16.46,15.54a27.46,27.46,0,0,0,23-13.56c3-5.18,4-11.58,4-18.28a106.26,106.26,0,0,0-2.13-19.2,175.09,175.09,0,0,0,17.13-11.4,41.31,41.31,0,0,0-.68,7.29c0,13.41,6.55,26.36,22.09,26.36,17.07,0,34.14-16,47-31.09a37,37,0,0,0-.26,4.27c0,10.36,5.79,16.45,11.43,16.45,8.83,0,19-12,26.2-23.31-3.35,15.54-6.24,31.39-11.27,46.93-69,2.14-100.26,44.19-100.26,76.34,0,20.26,12.34,36.72,35.5,36.72,35.81,0,62-44.49,79.84-103.92,11.28,2.75,23.92,7.62,31.24,15.54a4,4,0,0,0,2.89,1.38,3.85,3.85,0,0,0,3.81-3.66A3.2,3.2,0,0,0,1137.05,571.43Zm-107.88-99a13.38,13.38,0,0,1,3.35-.46c3.51,0,5.94,2.29,5.94,5.48,0,10.06-17.67,15.39-27.57,17.68C1014.24,486.11,1019.57,475.75,1029.17,472.4ZM948,558.33a8,8,0,0,1-8.23-8.38c0-9.14,11.89-19.81,21-26.05a122.64,122.64,0,0,1,1.07,13C961.83,551.32,953.9,558.33,948,558.33Zm67.19,99.5c-14.17,0-22.24-12.5-22.24-28.65,0-28.8,26.05-69.17,89.89-70.39C1071.83,591.09,1051.72,657.83,1015.15,657.83Zm82.58-165.32c-1.21,1.83-21.33,29.1-26.2,29.1-.61,0-1.07-.46-1.07-1.68,0-11.57,10.67-42.35,21.79-42.35,4.72,0,6.4,5.18,6.4,9.75A12.61,12.61,0,0,1,1097.73,492.51Z" transform="translate(-646.59 -389.5)"/><path class="cls-1" d="M1360.11,486.57a4.73,4.73,0,0,0-2.74,1.06c-7.77,9-20,21.18-32.91,21.18a30.1,30.1,0,0,1-3.66-.3c5.64-10.52,10.67-23.31,10.67-34.9,0-10.05-5-22.09-19-22.09a21.88,21.88,0,0,0-20.11,14.33c-9.3,2-16,10.81-19.81,18.89q-1,2-1.74,4.14c-11.84,16.17-37.37,48.82-49.91,60.92,2-9.75,12-26.82,12-36.87,0-8.38-7.16-14-12-22.25,11.88-14.32,20.87-34,20.87-46.32,0-7.31-3-12.19-10.36-12.19-10,0-25.14,16.31-25.14,37.94a52.38,52.38,0,0,0,5.29,22.2c-9.15,11.77-33.84,45.91-39.72,45.91-1.07,0-1.68-1.22-1.68-3.2,0-10.51,12.49-41.6,13.56-44.8a6.19,6.19,0,0,0,.46-2.28c0-3.51-3.66-5.79-7.32-5.79a8.35,8.35,0,0,0-8.07,5.33l-7.16,21.33c-2.75,4.72-16.61,26.21-21.95,26.21-.45,0-.76-.92-.76-2.29,0-8.38,8.84-38.39,11-45a2.45,2.45,0,0,0,.31-1.52c0-3.05-3.81-4.72-7.62-4.72-3.5,0-7,1.22-7.92,4-2.59,7.16-8.54,27-8.54,41.29,0,8.69,2.29,15.85,9.15,15.85,8.07,0,19.19-12.19,23.16-18.13a46.43,46.43,0,0,0-.46,6.55c0,7.62,2.13,14.78,11.43,14.78,11.81,0,34.24-30.31,45.62-46.44,1.87,3.75,3.29,6.89,3.29,9.56,0,6.71-9.75,26.52-9.75,39.62,0,5.18,1.83,10.67,6.85,10.67,12.18,0,37.77-33.18,52-52.93,0,.42,0,.85,0,1.27,0,13.87,6.09,26.36,22.09,26.36,12,0,20.73-9.6,26.67-18.13a40.1,40.1,0,0,0,6.09.46c19.35,0,35.35-16.76,40.53-25.75a2.92,2.92,0,0,0,.46-1.53C1363.16,487.48,1361.64,486.57,1360.11,486.57Zm-143.68-2.29c-1.83-4.26-2.44-8.53-2.44-14.63,0-17.37,9.75-30.16,17.37-30.16,2.74,0,4.12,2.13,4.12,5.48C1235.48,453.5,1227.1,471,1216.43,484.28Zm77.1,42.36c-6.4,0-9.3-10.36-9.3-18.59,0-9.14,2.59-19.2,5.49-24.84.76,13,5.94,25.75,18.89,30.63C1305.87,517.8,1299.32,526.64,1293.53,526.64Zm19.8-20c-11.42-2.9-15.69-15.09-15.69-26.21,0-8.84,3.81-21.18,13.71-21.18,8.84,0,12.35,9,12.35,16.15C1323.7,485.65,1318.21,497.38,1313.33,506.68Z" transform="translate(-646.59 -389.5)"/><path class="cls-1" d="M1376.35,541.29a7.25,7.25,0,0,1,5.51,8c-.74,6.35-8.21,10.7-13.7,10-4.81-.56-7.35-4.16-6.84-8.45.66-5.67,8.17-10.36,13.66-9.71Zm45.17-127.9c-10.82,38.92-28.49,73.92-39.23,112.16A6,6,0,0,1,1376,530c-3.6-.42-4.5-3.14-3.84-8.8,2.19-18.71,30.44-104,33.38-111.29,1.24-3.16,4.55-4.69,8.16-4.26,3.09.36,6.17,2.29,8.28,6.53Z" transform="translate(-646.59 -389.5)"/><path class="cls-1" d="M718.44,461.73l-8.31,38c-.48,2.63-1,5.26-1.14,6.82h-7.48l.78-4.55h-.12a11.41,11.41,0,0,1-10,5.27c-7.3,0-10.59-6.1-10.59-12.8,0-9.21,5-19.44,15.5-19.44a12,12,0,0,1,9.51,4.36l3.88-17.7Zm-28.53,32.06c0,3.11,1,7.3,4.9,7.3,5.86,0,9.33-6.82,9.33-12.5,0-3.59-1.73-7.3-5.8-7.3C692.6,481.29,689.91,489.18,689.91,493.79Z" transform="translate(-646.59 -389.5)"/><path class="cls-1" d="M723.46,475.79h8l-6.58,30.8h-8Zm2.93-13.28h8l-1.68,7.65h-8Z" transform="translate(-646.59 -389.5)"/><path class="cls-1" d="M757,482.37a19.09,19.09,0,0,0-6.58-1.44c-2.4,0-5.39.66-5.39,3.11,0,3.89,10.41,5.32,10.41,12.86,0,8-7,10.41-13.88,10.41a21.9,21.9,0,0,1-9.39-1.86l1.74-6.4a15,15,0,0,0,7.65,2.4c2.7,0,5.51-.9,5.51-3.41,0-5-10.41-5.45-10.41-13.16,0-7.24,7-9.81,13.34-9.81a36.15,36.15,0,0,1,8.73,1.25Z" transform="translate(-646.59 -389.5)"/><path class="cls-1" d="M768.2,481.65H762l1.26-5.86h6.22C771.07,468,773.7,461,783,461a16.93,16.93,0,0,1,5,.78l-1.86,6a5.6,5.6,0,0,0-2.45-.54c-4.42,0-5.44,5.33-6.22,8.56h7.18l-1.26,5.86h-7.18L771,506.59h-8Z" transform="translate(-646.59 -389.5)"/><path class="cls-1" d="M788.83,479.91c.24-1.31.48-2.69.72-4.12h7.66l-1.08,5.8h.12c1.44-3.35,5.38-6.52,9.09-6.52a12.79,12.79,0,0,1,3,.3l-1.67,7.83a10.19,10.19,0,0,0-3.05-.48c-5.68,0-8.44,5.09-9.45,10l-2.87,13.82h-8Z" transform="translate(-646.59 -389.5)"/><path class="cls-1" d="M835.55,502.16c-.36,1.86-.66,3.47-.78,4.43h-7.84l.54-3h-.12a13.14,13.14,0,0,1-8.73,3.71c-6,0-10-3.77-10-9.87a32,32,0,0,1,1-6.7l3.23-14.95h8l-3,14.53a32.25,32.25,0,0,0-.9,6.46,4.14,4.14,0,0,0,4.37,4.31c5.56,0,7.6-5.21,8.61-9.81l3.29-15.49h8Z" transform="translate(-646.59 -389.5)"/><path class="cls-1" d="M846.31,475.79h5.8l1.38-6.34,8.61-2.82-2,9.16h7.18l-1.26,5.86h-7.18l-2.93,13.46a12.62,12.62,0,0,0-.36,3,2.84,2.84,0,0,0,3,3,10.71,10.71,0,0,0,3.89-.72l-1.38,6.22a21.47,21.47,0,0,1-4.3.72c-5.45,0-9.27-2.16-9.27-8.08a33.47,33.47,0,0,1,1-7.18l2.28-10.4h-5.81Z" transform="translate(-646.59 -389.5)"/><path class="cls-1" d="M886,501.86h-.12c-2.76,3.47-5.51,5.45-9.93,5.45-5.57,0-9.51-3.11-9.51-8.8,0-10.16,11.36-10.94,18.9-10.94h2.81a9.59,9.59,0,0,0,.24-2.63c0-3.11-3.35-4-6.16-4a23.76,23.76,0,0,0-10.11,2.39l1.14-6.4a31.44,31.44,0,0,1,10.46-1.85c6.16,0,12,2.27,12,9.51,0,4.13-3,16.21-3.77,22h-6.76Zm-7.84-.41c6,0,7.84-4.13,9.09-9.1h-2.81c-3.89,0-10.35.66-10.35,5.87C874.06,500.37,876.1,501.45,878.13,501.45Zm8.08-38.58h7.95l-7.66,8.73h-5.14Z" transform="translate(-646.59 -389.5)"/><path class="cls-1" d="M923.11,482.37a19.09,19.09,0,0,0-6.58-1.44c-2.39,0-5.38.66-5.38,3.11,0,3.89,10.4,5.32,10.4,12.86,0,8-7,10.41-13.87,10.41a21.9,21.9,0,0,1-9.39-1.86l1.73-6.4a15,15,0,0,0,7.66,2.4c2.69,0,5.5-.9,5.5-3.41,0-5-10.41-5.45-10.41-13.16,0-7.24,7-9.81,13.34-9.81a36.15,36.15,0,0,1,8.73,1.25Z" transform="translate(-646.59 -389.5)"/></svg>