<svg id="Capa_1" data-name="Capa 1" xmlns="http://www.w3.org/2000/svg" viewBox="0 0 290.55 124.55"><defs><style>.cls-1{fill:#00a0d7;}.cls-2{fill:#fff;}</style></defs><title>titulo-disfrutas-seguro2</title><rect class="cls-1" width="290.55" height="124.55"/><path class="cls-2" d="M43.57,33.75a6.3,6.3,0,0,0-2.82-.68c-1.54,0-3.34.72-3.34,2.6,0,2.42,5.15,2.68,5.15,6.28,0,2.84-2.61,4.37-5.15,4.37a6.91,6.91,0,0,1-3.52-.77l.42-1.32a5.56,5.56,0,0,0,3,.88c1.88,0,3.88-.82,3.88-3,0-2.9-5.14-3.14-5.14-6.36,0-2.72,2.26-3.9,4.72-3.9a8,8,0,0,1,3.24.62Z" transform="translate(-16.77 -13.22)"/><path class="cls-2" d="M46.3,35.87h1.32l-2.16,10.2H44.14Zm2-2.72H46.8l.36-1.68h1.5Z" transform="translate(-16.77 -13.22)"/><path class="cls-2" d="M55.13,41.33a3.78,3.78,0,0,0-.06.82,2.89,2.89,0,0,0,2.68,3.08,2.94,2.94,0,0,0,.42,0,7.26,7.26,0,0,0,3-.68l-.1,1.23a7.74,7.74,0,0,1-3,.54,3.9,3.9,0,0,1-4.2-3.58,2.91,2.91,0,0,1,0-.59c0-3.42,2-6.52,5.28-6.52,2.4,0,3.6,1.48,3.6,3.8,0,.62-.08,1.26-.14,1.9Zm6.24-1.08c0-.28.06-.54.06-.78,0-1.66-.7-2.76-2.34-2.76a4,4,0,0,0-3.74,3.54Z" transform="translate(-16.77 -13.22)"/><path class="cls-2" d="M63.13,44.49a4.71,4.71,0,0,0,2.42.74c1.22,0,2.88-.45,2.88-2,0-2.22-4-2.12-4-4.72,0-2,2.14-2.84,3.78-2.84a6.78,6.78,0,0,1,2.62.5l-.42,1.18a4.74,4.74,0,0,0-2.26-.6c-1,0-2.4.32-2.4,1.74,0,1.74,4.08,2,4.08,4.66,0,2.32-2.12,3.21-4.1,3.21a7.35,7.35,0,0,1-3-.57Z" transform="translate(-16.77 -13.22)"/><path class="cls-2" d="M74.79,33.59l1.44-.5-.62,2.78h2.66L78,37H75.39l-1.08,5a9.77,9.77,0,0,0-.3,2,1.08,1.08,0,0,0,.92,1.23,1,1,0,0,0,.24,0,2.08,2.08,0,0,0,1.08-.28L76.13,46a2.73,2.73,0,0,1-1.28.29c-1.42,0-2.22-.81-2.22-1.91a16.35,16.35,0,0,1,.46-2.94l1-4.52h-2l.28-1.08h2Z" transform="translate(-16.77 -13.22)"/><path class="cls-2" d="M85.65,43.65a13.25,13.25,0,0,0-.38,2.42H84a12.85,12.85,0,0,1,.2-1.5h0a3.78,3.78,0,0,1-3.48,1.75,2.86,2.86,0,0,1-2.92-2.8s0-.05,0-.07c0-3,3.36-3.6,5.86-3.6a12.77,12.77,0,0,1,1.38.08,8.26,8.26,0,0,0,.06-1,2,2,0,0,0-1.78-2.2h-.4a7.14,7.14,0,0,0-3,.88l.14-1.28a8.32,8.32,0,0,1,3.08-.68,3,3,0,0,1,3.35,2.6,3.47,3.47,0,0,1,0,.72,11.59,11.59,0,0,1-.26,1.94Zm-4.52,1.58c2.36,0,3.44-2.12,3.72-4.26H83.61c-1.7,0-4.46.26-4.46,2.5A1.83,1.83,0,0,0,81,45.24Zm3.2-13.6h1.58l-2.34,2.88h-.94Z" transform="translate(-16.77 -13.22)"/><path class="cls-2" d="M87.57,44.49a4.71,4.71,0,0,0,2.42.74c1.22,0,2.88-.45,2.88-2,0-2.22-4-2.12-4-4.72,0-2,2.14-2.84,3.78-2.84a6.78,6.78,0,0,1,2.62.5l-.42,1.18a4.74,4.74,0,0,0-2.26-.6c-1,0-2.4.32-2.4,1.74,0,1.74,4.08,2,4.08,4.66,0,2.32-2.12,3.21-4.1,3.21a7.35,7.35,0,0,1-3-.57Z" transform="translate(-16.77 -13.22)"/><path class="cls-2" d="M103,35.87h1.32l-2.16,10.2h-1.32Zm2-2.72h-1.5l.36-1.68h1.5Z" transform="translate(-16.77 -13.22)"/><path class="cls-2" d="M107,37.49c.12-.68.2-1.12.24-1.62h1.26a11.42,11.42,0,0,1-.22,1.54h0a4,4,0,0,1,3.24-1.78,2.88,2.88,0,0,1,3.18,2.54,3.54,3.54,0,0,1,0,.46,10.63,10.63,0,0,1-.3,2.1l-1.14,5.38H112l1.16-5.62a8.18,8.18,0,0,0,.22-1.78,1.8,1.8,0,0,0-1.56-2,1.62,1.62,0,0,0-.44,0c-2.2,0-3.38,2.18-3.86,4.52l-1,4.84h-1.32Z" transform="translate(-16.77 -13.22)"/><path class="cls-2" d="M119.23,37H117l.26-1.08h2.18l.22-1c.38-1.76,1-4,3.38-4a3.73,3.73,0,0,1,1.4.22l-.3,1.06a2.32,2.32,0,0,0-1-.2c-1.5,0-1.86,1.58-2.2,3.2l-.16.76h2.54L123.09,37h-2.52l-2,9.12h-1.32Z" transform="translate(-16.77 -13.22)"/><path class="cls-2" d="M128.93,35.63c2.6,0,4.06,1.74,4.06,4.38,0,3.4-2.14,6.31-5.66,6.31-2.52,0-4.08-1.91-4.08-4.45C123.25,38.45,125.47,35.63,128.93,35.63Zm-1.44,9.6c2.64,0,4.12-2.8,4.12-5.2,0-1.92-.86-3.32-2.84-3.32-2.82,0-4.14,2.76-4.14,5.36a2.89,2.89,0,0,0,2.6,3.15Z" transform="translate(-16.77 -13.22)"/><path class="cls-2" d="M135.87,37.69c.12-.6.22-1.21.28-1.82h1.26a11.42,11.42,0,0,1-.22,1.54h0A3.32,3.32,0,0,1,140,35.63a5.92,5.92,0,0,1,1.1.14l-.3,1.34a2.87,2.87,0,0,0-1.08-.16c-2.06,0-2.88,2.26-3.26,4.1l-1,5h-1.34Z" transform="translate(-16.77 -13.22)"/><path class="cls-2" d="M142.57,37.59a14,14,0,0,0,.26-1.72h1.26c-.05.52-.12,1-.22,1.54h0A3.52,3.52,0,0,1,147,35.63a2.31,2.31,0,0,1,2.54,2.07c0,.07,0,.14,0,.21h0a3.66,3.66,0,0,1,3.46-2.28,2.73,2.73,0,0,1,2.88,2.56,3.23,3.23,0,0,1,0,.44,12.37,12.37,0,0,1-.3,1.92l-1.16,5.52h-1.32l1.14-5.4a8.91,8.91,0,0,0,.26-2c0-1.12-.48-2-1.7-2-2.08,0-3.14,2.34-3.52,4.18L148.27,46H147l1.14-5.4a8.91,8.91,0,0,0,.26-2c0-1.12-.48-2-1.7-2-2.08,0-3.14,2.34-3.52,4.18L142.07,46h-1.32Z" transform="translate(-16.77 -13.22)"/><path class="cls-2" d="M165.09,43.65a13.25,13.25,0,0,0-.38,2.42h-1.26a12.85,12.85,0,0,1,.2-1.5h0a3.78,3.78,0,0,1-3.48,1.75,2.86,2.86,0,0,1-2.92-2.8v-.07c0-3,3.36-3.6,5.86-3.6a12.77,12.77,0,0,1,1.38.08,8.26,8.26,0,0,0,.06-1,2,2,0,0,0-1.78-2.2h-.4a7.14,7.14,0,0,0-3,.88l.14-1.28a8.32,8.32,0,0,1,3.08-.68,3,3,0,0,1,3.35,2.6,3.47,3.47,0,0,1,0,.72,11.59,11.59,0,0,1-.26,1.94Zm-4.52,1.58c2.36,0,3.44-2.12,3.72-4.26h-1.24c-1.7,0-4.46.26-4.46,2.5a1.83,1.83,0,0,0,1.89,1.77Z" transform="translate(-16.77 -13.22)"/><path class="cls-2" d="M176,44.07a15.19,15.19,0,0,0-.34,2h-1.3a7.5,7.5,0,0,1,.32-1.62h0a3.89,3.89,0,0,1-3.48,1.87c-2.46,0-3.46-2.07-3.46-4.37,0-2.84,1.86-6.32,5.1-6.32A3,3,0,0,1,176,37.75h0l1.4-6.68h1.32Zm-4.42,1.16c2.28,0,3.92-3,3.92-5.28,0-1.82-.84-3.24-2.6-3.24-2.62,0-3.82,3.12-3.82,5.48,0,1.7.74,3,2.5,3Z" transform="translate(-16.77 -13.22)"/><path class="cls-2" d="M184.49,35.63c2.6,0,4.06,1.74,4.06,4.38,0,3.4-2.14,6.31-5.66,6.31-2.52,0-4.08-1.91-4.08-4.45C178.81,38.45,181,35.63,184.49,35.63Zm-1.44,9.6c2.64,0,4.12-2.8,4.12-5.2,0-1.92-.86-3.32-2.84-3.32-2.82,0-4.14,2.76-4.14,5.36a2.89,2.89,0,0,0,2.6,3.15Z" transform="translate(-16.77 -13.22)"/><path class="cls-2" d="M197.87,91.67c-2.91-3.21-7.39-5-11.77-6.06,2.34-8.56,4.38-17.58,4.68-27,0-1-1.73-2-3-2-.77,0-1.38.3-1.48,1.07L186,59.82c-.91-1.94-2.24-3-4.07-3a5.82,5.82,0,0,0-2.5.56c-2.14.92-4.24,3.5-5.7,6.5a.33.33,0,0,0-.11.13c-2.7,4.17-11.16,13.45-15.89,13.45-2.6,0-3.42-2.65-3.42-5.15a11,11,0,0,1,.51-3.41c4.23-1,9.78-2.19,12.08-6.32a5.9,5.9,0,0,0,.71-2.7c0-3.31-3.16-4.69-5.6-4.69-4.93,0-9.25,4.35-11.53,9.28a28.82,28.82,0,0,1-7.89,6.06,41.55,41.55,0,0,1-1.47-9c0-1.38.25-4,1.73-4,.3,0,.41.26.41.56a12.67,12.67,0,0,1-.56,2.2c0,.61.4,1.58,1.17,1.58.35,0,.81-.26,1.27-1a5,5,0,0,0,1-3,3.67,3.67,0,0,0-3.5-3.82h-.32c-2.24,0-5.55,2.09-5.55,7.18,0,3.32,1.22,9.43,1.73,11.82-3.57,2.4-9.12,7.39-9.12,11.83,0,3.41,2.55,5.19,5.5,5.19a9.19,9.19,0,0,0,7.69-4.53,12.13,12.13,0,0,0,1.33-6.12,37.44,37.44,0,0,0-.71-6.42,55.93,55.93,0,0,0,5.73-3.82,13.46,13.46,0,0,0-.23,2.45c0,4.48,2.19,8.81,7.39,8.81,5.71,0,11.41-5.34,15.73-10.39a11.44,11.44,0,0,0-.09,1.43c0,3.46,1.93,5.5,3.82,5.5,3,0,6.37-4,8.76-7.8q-1.5,7.93-3.77,15.7C157.44,85.59,147,99.65,147,110.4c0,6.78,4.12,12.28,11.87,12.28,12,0,20.73-14.88,26.7-34.75,3.77.92,8,2.55,10.44,5.2a1.31,1.31,0,0,0,1,.46,1.28,1.28,0,0,0,1.27-1.23A1.13,1.13,0,0,0,197.87,91.67ZM161.79,58.55a5.21,5.21,0,0,1,1.12-.15,1.84,1.84,0,0,1,2,1.67c0,.06,0,.11,0,.16,0,3.37-5.91,5.15-9.22,5.91,1.11-3,2.88-6.47,6.1-7.59ZM134.64,87.29a2.69,2.69,0,0,1-2.76-2.63,1,1,0,0,1,0-.17c0-3.06,4-6.63,7-8.72.19,1.44.3,2.88.35,4.33,0,4.85-2.62,7.19-4.6,7.19Zm22.47,33.27c-4.74,0-7.44-4.18-7.44-9.58,0-9.63,8.71-23.13,30.06-23.54-3.67,10.8-10.4,33.12-22.62,33.12Zm27.61-55.28c-.41.61-7.13,9.73-8.76,9.73-.21,0-.36-.15-.36-.56,0-3.87,3.57-14.16,7.29-14.16,1.57,0,2.14,1.73,2.14,3.26A4.45,4.45,0,0,1,184.72,65.28Z" transform="translate(-16.77 -13.22)"/><path class="cls-2" d="M272.46,63.29a1.53,1.53,0,0,0-.92.36c-2.6,3-6.68,7.08-11,7.08a9.87,9.87,0,0,1-1.22-.1c1.89-3.52,3.57-7.8,3.57-11.67,0-3.36-1.68-7.39-6.37-7.39a7.32,7.32,0,0,0-6.73,4.79c-3.11.66-5.35,3.62-6.62,6.32-.21.45-.4.9-.57,1.37-4,5.4-12.51,16.34-16.7,20.39.66-3.27,4-9,4-12.33,0-2.81-2.39-4.69-4-7.44,4-4.79,7-11.36,7-15.49,0-2.45-1-4.08-3.47-4.08-3.36,0-8.4,5.45-8.4,12.69a17.51,17.51,0,0,0,1.76,7.42c-3.06,3.94-11.31,15.35-13.28,15.35-.36,0-.56-.4-.56-1.07,0-3.51,4.18-13.91,4.54-15a2.44,2.44,0,0,0,.15-.76,2.26,2.26,0,0,0-2.45-1.94,2.79,2.79,0,0,0-2.7,1.79l-2.39,7.13c-.92,1.58-5.56,8.76-7.34,8.76-.15,0-.25-.3-.25-.76,0-2.8,3-12.84,3.66-15a.82.82,0,0,0,.11-.51c0-1-1.28-1.58-2.55-1.58s-2.34.41-2.65,1.32c-.87,2.4-2.85,9-2.85,13.81,0,2.91.76,5.3,3,5.3,2.7,0,6.42-4.07,7.75-6.06a14.67,14.67,0,0,0-.16,2.19c0,2.55.72,4.94,3.83,4.94,4,0,11.45-10.14,15.25-15.53a8.3,8.3,0,0,1,1.1,3.2c0,2.24-3.26,8.87-3.26,13.25,0,1.73.61,3.56,2.29,3.56,4.07,0,12.64-11.1,17.39-17.71v.44c0,4.64,2,8.82,7.38,8.82,4,0,6.93-3.21,8.92-6.07a12.17,12.17,0,0,0,2,.16c6.47,0,11.82-5.61,13.55-8.61a1.12,1.12,0,0,0,.15-.51A.94.94,0,0,0,272.46,63.29Zm-48-.76a11.67,11.67,0,0,1-.82-4.89c0-5.81,3.27-10.09,5.81-10.09.92,0,1.38.71,1.38,1.83C230.78,52.24,228,58.09,224.41,62.53Zm25.78,14.16c-2.14,0-3.11-3.46-3.11-6.21a20.05,20.05,0,0,1,1.84-8.31c.25,4.33,2,8.61,6.31,10.24C254.32,73.74,252.13,76.69,250.19,76.69ZM256.81,70c-3.82-1-5.24-5-5.24-8.77,0-3,1.27-7.08,4.58-7.08,3,0,4.13,3,4.13,5.4C260.28,63,258.44,66.91,256.81,70Z" transform="translate(-16.77 -13.22)"/><path class="cls-2" d="M277.89,81.59a2.43,2.43,0,0,1,1.84,2.66c-.25,2.12-2.75,3.58-4.58,3.36a2.43,2.43,0,0,1-2.32-2.55,1.27,1.27,0,0,1,0-.28c.22-1.89,2.73-3.46,4.57-3.24Zm15.85-44.75c-3.62,13-9.53,24.72-13.12,37.51a2,2,0,0,1-2.09,1.5c-1.21-.14-1.51-1-1.29-2.94.73-6.26,10.18-34.77,11.16-37.22a2.49,2.49,0,0,1,2.73-1.42,3.58,3.58,0,0,1,2.77,2.18Z" transform="translate(-16.77 -13.22)"/><path class="cls-2" d="M57.89,55,55.11,67.71c-.16.88-.32,1.76-.38,2.28h-2.5l.26-1.52h0a3.83,3.83,0,0,1-3.36,1.76c-2.44,0-3.54-2-3.54-4.28,0-3.08,1.68-6.51,5.18-6.51A4,4,0,0,1,54,60.91L55.25,55ZM48.35,65.71c0,1,.32,2.44,1.64,2.44,2,0,3.12-2.28,3.12-4.18,0-1.2-.58-2.44-1.94-2.44-1.92,0-2.82,2.64-2.82,4.18Z" transform="translate(-16.77 -13.22)"/><path class="cls-2" d="M59.57,59.69h2.68L60.05,70H57.37Zm1-4.45h2.68l-.56,2.57H60Z" transform="translate(-16.77 -13.22)"/><path class="cls-2" d="M70.77,61.89a6.44,6.44,0,0,0-2.2-.48c-.8,0-1.8.22-1.8,1,0,1.3,3.48,1.78,3.48,4.3,0,2.68-2.34,3.48-4.64,3.48a7.2,7.2,0,0,1-3.14-.62l.58-2.14a4.92,4.92,0,0,0,2.56.8c.9,0,1.84-.3,1.84-1.14,0-1.66-3.48-1.82-3.48-4.4,0-2.42,2.34-3.29,4.46-3.29a12.13,12.13,0,0,1,2.92.43Z" transform="translate(-16.77 -13.22)"/><path class="cls-2" d="M74.57,61.65H72.49l.42-2H75c.54-2.62,1.42-4.95,4.54-4.95a5.87,5.87,0,0,1,1.66.26l-.62,2a2,2,0,0,0-.82-.18c-1.48,0-1.82,1.79-2.08,2.87h2.4l-.42,2h-2.4L75.49,70H72.81Z" transform="translate(-16.77 -13.22)"/><path class="cls-2" d="M81.43,61.07q.12-.66.24-1.38h2.56l-.36,1.94h0a3.71,3.71,0,0,1,3-2.19,4.86,4.86,0,0,1,1,.11l-.56,2.62a3.48,3.48,0,0,0-1-.16c-1.9,0-2.82,1.7-3.16,3.36l-1,4.62H79.57Z" transform="translate(-16.77 -13.22)"/><path class="cls-2" d="M97.05,68.51c-.12.62-.22,1.16-.26,1.48H94.17l.18-1h0a4.4,4.4,0,0,1-2.92,1.24,3.11,3.11,0,0,1-3.36-2.84,3.53,3.53,0,0,1,0-.46,10,10,0,0,1,.34-2.24l1.08-5h2.68l-1,4.86a9.86,9.86,0,0,0-.3,2.16,1.37,1.37,0,0,0,1.31,1.44h.15c1.86,0,2.54-1.74,2.88-3.28l1.1-5.18H99Z" transform="translate(-16.77 -13.22)"/><path class="cls-2" d="M100.65,59.69h1.92l.46-2.12,2.88-1-.66,3.07h2.4l-.42,2h-2.4l-1,4.5a4.21,4.21,0,0,0-.12,1,1,1,0,0,0,1,1A3.65,3.65,0,0,0,106,68L105.55,70a7.22,7.22,0,0,1-1.44.24c-1.82,0-3.1-.72-3.1-2.7a10.85,10.85,0,0,1,.34-2.4l.76-3.48h-1.94Z" transform="translate(-16.77 -13.22)"/><path class="cls-2" d="M113.91,68.4h0a4,4,0,0,1-3.32,1.82c-1.86,0-3.18-1-3.18-2.94,0-3.4,3.8-3.66,6.32-3.66h.94a3.7,3.7,0,0,0,.08-.88c0-1-1.12-1.34-2.07-1.34a8,8,0,0,0-3.38.8l.38-2.14a10.5,10.5,0,0,1,3.5-.63c2.07,0,4,.77,4,3.19,0,1.38-1,5.42-1.26,7.36h-2.26Zm-2.62-.14c2,0,2.62-1.38,3-3h-.94c-1.3,0-3.46.22-3.46,2,0,.65.68,1,1.4,1ZM114,55.35h2.66l-2.56,2.92h-1.72Z" transform="translate(-16.77 -13.22)"/><path class="cls-2" d="M126.33,61.89a6.44,6.44,0,0,0-2.2-.48c-.8,0-1.8.22-1.8,1,0,1.3,3.48,1.78,3.48,4.3,0,2.68-2.34,3.48-4.64,3.48a7.2,7.2,0,0,1-3.14-.62l.58-2.14a4.92,4.92,0,0,0,2.56.8c.9,0,1.84-.3,1.84-1.14,0-1.66-3.48-1.82-3.48-4.4,0-2.42,2.34-3.29,4.46-3.29a12.13,12.13,0,0,1,2.92.43Z" transform="translate(-16.77 -13.22)"/></svg>